<svg width="28" height="16" viewBox="0 0 28 16" fill="none" xmlns="http://www.w3.org/2000/svg">
<mask id="path-1-inside-1_3322_5574" fill="white">
<path d="M20.8308 4.73079L23.1535 0.707265C23.2846 0.481688 23.2053 0.195205 22.9828 0.0641286C22.7603 -0.0669477 22.4707 0.009265 22.3427 0.234802L19.9896 4.31013C18.1942 3.4902 16.1734 3.03296 14 3.03296C11.8267 3.03296 9.80579 3.4902 8.01044 4.31013L5.65727 0.234842C5.62637 0.181282 5.58519 0.134358 5.53609 0.096767C5.487 0.0591759 5.43095 0.0316592 5.37119 0.0157986C5.31142 -6.1925e-05 5.24911 -0.00395358 5.18783 0.00434738C5.12656 0.0126483 5.06753 0.0329782 5.01413 0.0641684C4.96057 0.0950661 4.91365 0.136247 4.87605 0.185343C4.83846 0.234439 4.81093 0.290482 4.79507 0.35025C4.77921 0.410017 4.77532 0.472331 4.78363 0.533607C4.79193 0.594883 4.81227 0.653914 4.84346 0.707305L7.1661 4.73083C3.1609 6.90109 0.448092 10.9551 0 15.701H28C27.5519 10.9551 24.8391 6.90109 20.8308 4.73083V4.73079ZM7.57154 11.7689C6.92232 11.7689 6.39801 11.2416 6.39801 10.5954C6.39801 9.94614 6.92534 9.42183 7.57154 9.42183C8.22076 9.42183 8.74506 9.94916 8.74506 10.5954C8.74824 11.2416 8.2208 11.7689 7.57154 11.7689ZM20.4254 11.7689C19.7762 11.7689 19.2519 11.2416 19.2519 10.5954C19.2519 9.94614 19.7792 9.42183 20.4254 9.42183C21.0747 9.42183 21.599 9.94916 21.599 10.5954C21.6021 11.2416 21.0747 11.7689 20.4254 11.7689Z"/>
</mask>
<path d="M20.8308 4.73079L23.1535 0.707265C23.2846 0.481688 23.2053 0.195205 22.9828 0.0641286C22.7603 -0.0669477 22.4707 0.009265 22.3427 0.234802L19.9896 4.31013C18.1942 3.4902 16.1734 3.03296 14 3.03296C11.8267 3.03296 9.80579 3.4902 8.01044 4.31013L5.65727 0.234842C5.62637 0.181282 5.58519 0.134358 5.53609 0.096767C5.487 0.0591759 5.43095 0.0316592 5.37119 0.0157986C5.31142 -6.1925e-05 5.24911 -0.00395358 5.18783 0.00434738C5.12656 0.0126483 5.06753 0.0329782 5.01413 0.0641684C4.96057 0.0950661 4.91365 0.136247 4.87605 0.185343C4.83846 0.234439 4.81093 0.290482 4.79507 0.35025C4.77921 0.410017 4.77532 0.472331 4.78363 0.533607C4.79193 0.594883 4.81227 0.653914 4.84346 0.707305L7.1661 4.73083C3.1609 6.90109 0.448092 10.9551 0 15.701H28C27.5519 10.9551 24.8391 6.90109 20.8308 4.73083V4.73079ZM7.57154 11.7689C6.92232 11.7689 6.39801 11.2416 6.39801 10.5954C6.39801 9.94614 6.92534 9.42183 7.57154 9.42183C8.22076 9.42183 8.74506 9.94916 8.74506 10.5954C8.74824 11.2416 8.2208 11.7689 7.57154 11.7689ZM20.4254 11.7689C19.7762 11.7689 19.2519 11.2416 19.2519 10.5954C19.2519 9.94614 19.7792 9.42183 20.4254 9.42183C21.0747 9.42183 21.599 9.94916 21.599 10.5954C21.6021 11.2416 21.0747 11.7689 20.4254 11.7689Z" fill="white"/>
<path d="M20.8308 4.73079L19.9648 4.23084L19.8308 4.46288V4.73079H20.8308ZM23.1535 0.707265L22.2889 0.204852L22.2875 0.207315L23.1535 0.707265ZM22.3427 0.234802L23.2087 0.734859L23.2124 0.728429L22.3427 0.234802ZM19.9896 4.31013L19.5741 5.21976L20.401 5.59739L20.8556 4.81018L19.9896 4.31013ZM8.01044 4.31013L7.14444 4.81018L7.599 5.59739L8.42587 5.21976L8.01044 4.31013ZM5.65727 0.234842L4.7911 0.734585L4.79128 0.734889L5.65727 0.234842ZM5.01413 0.0641684L5.51381 0.930398L5.51854 0.927633L5.01413 0.0641684ZM4.84346 0.707305L5.70953 0.207355L5.70689 0.202821L4.84346 0.707305ZM7.1661 4.73083L7.64251 5.61006L8.54577 5.12062L8.03216 4.23089L7.1661 4.73083ZM0 15.701L-0.995572 15.607L-1.09886 16.701H0V15.701ZM28 15.701V16.701H29.0989L28.9956 15.607L28 15.701ZM20.8308 4.73083H19.8308V5.32656L20.3547 5.61021L20.8308 4.73083ZM8.74506 10.5954H7.74505L7.74507 10.6003L8.74506 10.5954ZM21.599 10.5954H20.599L20.599 10.6003L21.599 10.5954ZM21.6969 5.23075L24.0196 1.20722L22.2875 0.207315L19.9648 4.23084L21.6969 5.23075ZM24.0181 1.20968C24.4318 0.497776 24.1759 -0.393673 23.4903 -0.797493L22.4752 0.92575C22.2347 0.784083 22.1374 0.465601 22.2889 0.204854L24.0181 1.20968ZM23.4903 -0.797493C22.789 -1.21061 21.8782 -0.972644 21.473 -0.258825L23.2124 0.728429C23.0633 0.991174 22.7315 1.07672 22.4752 0.92575L23.4903 -0.797493ZM21.4767 -0.265242L19.1236 3.81009L20.8556 4.81018L23.2087 0.734846L21.4767 -0.265242ZM20.405 3.40051C18.478 2.52047 16.3154 2.03296 14 2.03296V4.03297C16.0313 4.03297 17.9104 4.45993 19.5741 5.21976L20.405 3.40051ZM14 2.03296C11.6847 2.03296 9.52198 2.52047 7.59502 3.40051L8.42587 5.21976C10.0896 4.45993 11.9687 4.03297 14 4.03297V2.03296ZM8.87644 3.81009L6.52327 -0.265205L4.79128 0.734889L7.14444 4.81018L8.87644 3.81009ZM6.52345 -0.264901C6.42669 -0.432602 6.29774 -0.579526 6.14402 -0.697227L4.92817 0.890761C4.87263 0.848242 4.82605 0.795166 4.7911 0.734585L6.52345 -0.264901ZM6.14402 -0.697227C5.99029 -0.814934 5.81481 -0.901088 5.62768 -0.950746L5.11469 0.982343C5.0471 0.964406 4.98371 0.933285 4.92817 0.890761L6.14402 -0.697227ZM5.62768 -0.950746C5.44055 -1.00041 5.24544 -1.01259 5.05359 -0.986601L5.32208 0.995296C5.25277 1.00468 5.18229 1.00028 5.11469 0.982343L5.62768 -0.950746ZM5.05359 -0.986601C4.86173 -0.960609 4.6769 -0.896954 4.50972 -0.799296L5.51854 0.927633C5.45816 0.96291 5.39139 0.985906 5.32208 0.995296L5.05359 -0.986601ZM4.51446 -0.802048C4.34672 -0.705283 4.19978 -0.576326 4.08209 -0.422617L5.67002 0.793303C5.62751 0.84882 5.57443 0.895416 5.5138 0.930385L4.51446 -0.802048ZM4.08209 -0.422617C3.9644 -0.268928 3.87821 -0.093452 3.82853 0.0937513L5.76162 0.606748C5.74366 0.674416 5.71252 0.737807 5.67002 0.793303L4.08209 -0.422617ZM3.82853 0.0937513C3.77886 0.280905 3.76668 0.476025 3.79268 0.667893L5.77457 0.399321C5.78396 0.468636 5.77956 0.53913 5.76162 0.606748L3.82853 0.0937513ZM3.79268 0.667893C3.81869 0.859816 3.88239 1.04465 3.98004 1.21179L5.70689 0.202821C5.74215 0.263178 5.76517 0.329951 5.77457 0.399321L3.79268 0.667893ZM3.97741 1.20725L6.30004 5.23078L8.03216 4.23089L5.70952 0.207361L3.97741 1.20725ZM6.68969 3.85161C2.38801 6.18252 -0.516501 10.533 -0.995572 15.607L0.995572 15.795C1.41269 11.3772 3.93379 7.61966 7.64251 5.61006L6.68969 3.85161ZM0 16.701H28V14.701H0V16.701ZM28.9956 15.607C28.5165 10.5329 25.6119 6.18233 21.307 3.85146L20.3547 5.61021C24.0663 7.61984 26.5874 11.3773 27.0044 15.795L28.9956 15.607ZM21.8308 4.73083V4.73079H19.8308V4.73083H21.8308ZM7.57154 10.7689C7.47627 10.7689 7.39801 10.6909 7.39801 10.5954H5.39801C5.39801 11.7922 6.36836 12.7689 7.57154 12.7689V10.7689ZM7.39801 10.5954C7.39801 10.5001 7.47594 10.4218 7.57154 10.4218V8.42183C6.37474 8.42183 5.39801 9.39217 5.39801 10.5954H7.39801ZM7.57154 10.4218C7.66679 10.4218 7.74506 10.4998 7.74506 10.5954H9.74506C9.74506 9.39855 8.77472 8.42183 7.57154 8.42183V10.4218ZM7.74507 10.6003C7.7455 10.6876 7.67131 10.7689 7.57154 10.7689V12.7689C8.77028 12.7689 9.75098 11.7955 9.74505 10.5904L7.74507 10.6003ZM20.4254 10.7689C20.3302 10.7689 20.2519 10.6909 20.2519 10.5954H18.2519C18.2519 11.7922 19.2223 12.7689 20.4254 12.7689V10.7689ZM20.2519 10.5954C20.2519 10.5001 20.3298 10.4218 20.4254 10.4218V8.42183C19.2286 8.42183 18.2519 9.39217 18.2519 10.5954H20.2519ZM20.4254 10.4218C20.5207 10.4218 20.599 10.4997 20.599 10.5954H22.599C22.599 9.39857 21.6287 8.42183 20.4254 8.42183V10.4218ZM20.599 10.6003C20.5994 10.6876 20.5252 10.7689 20.4254 10.7689V12.7689C21.6242 12.7689 22.6049 11.7955 22.599 10.5904L20.599 10.6003Z" fill="white" mask="url(#path-1-inside-1_3322_5574)"/>
</svg>
