<svg width="66" height="38" viewBox="0 0 66 38" fill="none" xmlns="http://www.w3.org/2000/svg">
<path d="M49.1655 11.3724L54.6196 1.92434C54.9274 1.39465 54.7412 0.721928 54.2187 0.414136C53.6962 0.106344 53.0163 0.285306 52.7157 0.81491L47.19 10.3846C42.9742 8.45921 38.2288 7.38553 33.1254 7.38553C28.022 7.38553 23.2766 8.45921 19.0608 10.3846L13.5351 0.815003C13.4625 0.689235 13.3658 0.579048 13.2505 0.490777C13.1352 0.402506 13.0036 0.337892 12.8633 0.300648C12.723 0.263404 12.5766 0.254266 12.4328 0.273758C12.2889 0.293251 12.1503 0.340989 12.0249 0.414229C11.8991 0.486783 11.7889 0.583484 11.7006 0.698771C11.6124 0.814058 11.5477 0.945657 11.5105 1.086C11.4732 1.22635 11.4641 1.37267 11.4836 1.51656C11.5031 1.66045 11.5509 1.79906 11.6241 1.92444L17.0781 11.3725C7.67313 16.4686 1.30294 25.9881 0.250732 37.1325H66.0001C64.948 25.9881 58.5777 16.4686 49.1655 11.3725V11.3724ZM18.0301 27.8991C16.5057 27.8991 15.2745 26.6609 15.2745 25.1435C15.2745 23.619 16.5128 22.3878 18.0301 22.3878C19.5546 22.3878 20.7858 23.6261 20.7858 25.1435C20.7933 26.6609 19.5547 27.8991 18.0301 27.8991ZM48.2136 27.8991C46.6891 27.8991 45.4579 26.6609 45.4579 25.1435C45.4579 23.619 46.6962 22.3878 48.2136 22.3878C49.7382 22.3878 50.9692 23.6261 50.9692 25.1435C50.9767 26.6609 49.7382 27.8991 48.2136 27.8991Z" fill="#828282"/>
</svg>
