<svg width="27" height="28" viewBox="0 0 27 28" fill="none" xmlns="http://www.w3.org/2000/svg">
<path fill-rule="evenodd" clip-rule="evenodd" d="M0 4.62888L13.1876 0L26.4507 4.55331L24.3725 21.8219L13.1876 28L2.07827 21.8974L0 4.62888ZM1.47335 5.6113L3.26822 21.0661L13.149 26.5449V26.5452L13.1492 26.545L13.1495 26.5452V26.5449L23.2003 20.9905L25.1274 5.55462L13.1495 1.45493V1.45476L13.1492 1.45484L13.149 1.45476V1.45493L1.47335 5.6113Z" fill="#828282"/>
<path fill-rule="evenodd" clip-rule="evenodd" d="M13.2085 2.58222L13.2072 2.20117L21.7281 20.3766L18.8186 20.3199L17.0426 16.1823H13.5326L13.1499 16.3616H9.6735L8.04867 20.4426L5.00684 20.4993L13.1499 2.36163L13.2085 2.58222ZM15.7809 13.3384L13.1688 8.18079L10.7504 13.9433H13.1499L13.2072 13.9451V13.7639H15.9846L15.7809 13.3384Z" fill="#828282"/>
</svg>
