<svg width="112" height="112" viewBox="0 0 112 112" fill="none" xmlns="http://www.w3.org/2000/svg">
<g clip-path="url(#clip0_2507_4535)">
<path d="M112 34.322C112 31.3342 109.569 28.9028 106.581 28.9028C105.959 28.9028 105.37 29.0292 104.814 29.2225L96.7195 19.1047C97.2362 18.2756 97.5487 17.3055 97.5487 16.2578C97.5487 13.27 95.1172 10.8385 92.1294 10.8385C90.6102 10.8385 89.2409 11.4708 88.2564 12.4788L74.0164 5.907C74.0308 5.74442 74.0652 5.58727 74.0652 5.41927C74.0652 2.43144 71.6337 0 68.6459 0C66.2939 0 64.3069 1.51559 63.559 3.61284H43.0236C42.2757 1.51559 40.2887 0 37.9367 0C34.9489 0 32.5175 2.43144 32.5175 5.41927C32.5175 5.64326 32.5572 5.85823 32.5843 6.07681L23.6244 10.5567C22.649 9.61739 21.3303 9.03211 19.8725 9.03211C16.8847 9.03211 14.4532 11.4636 14.4532 14.4514C14.4532 15.4991 14.7657 16.4692 15.2824 17.2983L7.1878 27.4161C6.63142 27.2228 6.04252 27.0963 5.42111 27.0963C2.43329 27.0963 0.00184631 29.5278 0.00184631 32.5156C0.00184631 34.8676 1.51743 36.8546 3.61469 37.6025V49.1076C1.51743 49.8536 0.00184631 51.8407 0.00184631 54.1927C0.00184631 57.1805 2.43329 59.6119 5.42111 59.6119C7.42805 59.6119 9.16221 58.5028 10.0997 56.8788L19.961 58.6708C20.3783 61.2468 22.6002 63.2248 25.2918 63.2248C25.364 63.2248 25.4327 63.2067 25.5049 63.2031L28.9516 71.8215C27.8244 72.8151 27.0982 74.253 27.0982 75.8697C27.0982 78.8576 29.5296 81.289 32.5175 81.289C34.3347 81.289 35.937 80.3822 36.9197 79.0075L52.4224 83.4368C52.5615 85.6371 54.0067 87.4706 56.0009 88.1823V101.494C53.9037 102.242 52.3881 104.229 52.3881 106.581C52.3881 109.569 54.8195 112 57.8074 112C60.7952 112 63.2266 109.569 63.2266 106.581C63.2266 104.229 61.711 102.242 59.6138 101.494V88.1823C61.711 87.4345 63.2266 85.4474 63.2266 83.0954C63.2266 81.3649 62.3957 79.8384 61.1294 78.8449L63.2863 72.3725L79.4953 77.7755C79.5386 80.0823 81.0307 82.0242 83.0973 82.7612V101.492C81 102.24 79.4844 104.227 79.4844 106.579C79.4844 109.567 81.9159 111.998 84.9037 111.998C87.8915 111.998 90.323 109.567 90.323 106.579C90.323 104.227 88.8074 102.24 86.7101 101.492V82.7631C88.8074 82.0152 90.323 80.0281 90.323 77.6762C90.323 77.0168 90.1875 76.3918 89.9707 75.8065L103.831 64.2562C104.639 64.7368 105.573 65.0312 106.581 65.0312C109.569 65.0312 112 62.5998 112 59.6119C112 57.26 110.484 55.2729 108.387 54.5251V39.4071C110.484 38.6611 112 36.674 112 34.322ZM92.1294 14.4514C93.1247 14.4514 93.9358 15.2607 93.9358 16.2578C93.9358 17.2549 93.1247 18.0642 92.1294 18.0642C91.1341 18.0642 90.323 17.2549 90.323 16.2578C90.323 15.2607 91.1341 14.4514 92.1294 14.4514ZM89.5607 20.9997C90.3284 21.4188 91.1955 21.6771 92.1294 21.6771C92.7508 21.6771 93.3379 21.5506 93.8943 21.3573L101.989 31.4769C101.474 32.3061 101.162 33.2743 101.162 34.322C101.162 34.6129 101.203 34.8929 101.248 35.1729L88.4515 42.1529L79.1322 34.3871C79.349 33.8 79.4844 33.1749 79.4844 32.5156C79.4844 31.7822 79.3345 31.0813 79.069 30.4436L89.5607 20.9997ZM66.8395 50.5798C66.0049 50.5798 65.2245 50.784 64.5182 51.1236L56.8644 43.4697L70.3765 36.4626C71.3465 37.3695 72.6363 37.9349 74.0652 37.9349C75.0732 37.9349 76.0053 37.6404 76.8145 37.1599L85.0392 44.0135L70.4379 51.978C69.4787 51.1181 68.2268 50.5798 66.8395 50.5798ZM68.6459 55.9991C68.6459 56.9962 67.8348 57.8055 66.8395 57.8055C65.8441 57.8055 65.0331 56.9962 65.0331 55.9991C65.0331 55.0019 65.8441 54.1927 66.8395 54.1927C67.8348 54.1927 68.6459 55.0019 68.6459 55.9991ZM41.3346 36.105L44.3676 45.8777L28.9805 53.8567C28.3356 53.2551 27.5462 52.818 26.6683 52.585L24.1646 33.3863L36.5422 32.7667C37.328 34.6707 39.1705 36.0183 41.3346 36.105ZM39.7431 30.7092C39.7431 29.712 40.5542 28.9028 41.5496 28.9028C42.5449 28.9028 43.356 29.712 43.356 30.7092C43.356 31.7063 42.5449 32.5156 41.5496 32.5156C40.5542 32.5156 39.7431 31.7063 39.7431 30.7092ZM45.4532 49.3858L50.0343 64.1497L30.7002 57.7044C30.6966 57.4876 30.6641 57.278 30.6352 57.0685L45.4532 49.3858ZM45.4406 37.1563L50.8201 42.534L47.6246 44.1905L45.4406 37.1563ZM46.4269 33.0304C46.7647 32.3241 46.9688 31.5438 46.9688 30.7092C46.9688 29.9396 46.8026 29.2099 46.5136 28.5469L55.0905 20.5408L68.9169 30.9097C68.7561 31.4227 68.6459 31.9538 68.6459 32.5156C68.6459 32.7685 68.6875 33.0088 68.72 33.2526L54.1837 40.789L46.4269 33.0304ZM72.2588 32.5156C72.2588 31.5185 73.0698 30.7092 74.0652 30.7092C75.0605 30.7092 75.8716 31.5185 75.8716 32.5156C75.8716 33.5128 75.0605 34.322 74.0652 34.322C73.0698 34.322 72.2588 33.5128 72.2588 32.5156ZM88.0252 46.5009L100.968 57.2871L72.9235 54.7382L88.0252 46.5009ZM68.6459 3.61284C69.6412 3.61284 70.4523 4.42212 70.4523 5.41927C70.4523 6.41641 69.6412 7.22569 68.6459 7.22569C67.6506 7.22569 66.8395 6.41641 66.8395 5.41927C66.8395 4.42212 67.6506 3.61284 68.6459 3.61284ZM66.1639 10.2081C66.9099 10.5965 67.7463 10.8385 68.6459 10.8385C70.1651 10.8385 71.5344 10.2063 72.5207 9.1965L86.7589 15.7683C86.7445 15.9326 86.7101 16.0898 86.7101 16.2578C86.7101 16.993 86.8601 17.6921 87.1256 18.3316L76.6339 27.7737C75.8662 27.3547 74.9991 27.0963 74.0652 27.0963C72.956 27.0963 71.9246 27.4341 71.0647 28.0086L57.773 18.0389L66.1639 10.2081ZM63.559 7.22569C63.6024 7.34311 63.6331 7.46594 63.6819 7.57975L54.8358 15.8351L43.356 7.22569H63.559ZM37.9367 3.61284C38.9321 3.61284 39.7431 4.42212 39.7431 5.41927C39.7431 6.41641 38.9321 7.22569 37.9367 7.22569C36.9414 7.22569 36.1303 6.41641 36.1303 5.41927C36.1303 4.42212 36.9414 3.61284 37.9367 3.61284ZM25.2918 14.4514C25.2918 14.2274 25.252 14.0124 25.2249 13.7956L34.1848 9.31572C35.1602 10.2533 36.4789 10.8385 37.9367 10.8385C39.0459 10.8385 40.0773 10.5007 40.9372 9.92629L52.1533 18.3388L44.0316 25.9185C43.2855 25.5302 42.4492 25.2899 41.5496 25.2899C39.1037 25.2899 37.0552 26.9283 36.3832 29.1575L23.6949 29.7915L22.322 19.2583C24.076 18.3605 25.2918 16.5541 25.2918 14.4514ZM19.8725 12.645C20.8678 12.645 21.6789 13.4542 21.6789 14.4514C21.6789 15.4485 20.8678 16.2578 19.8725 16.2578C18.8772 16.2578 18.0661 15.4485 18.0661 14.4514C18.0661 13.4542 18.8772 12.645 19.8725 12.645ZM18.1058 19.5509C18.3154 19.6232 18.5213 19.7008 18.7399 19.7478L20.073 29.974L10.4285 30.4563C10.3147 30.1799 10.1684 29.9216 10.0112 29.6687L18.1058 19.5509ZM5.42111 30.7092C6.41645 30.7092 7.22754 31.5185 7.22754 32.5156C7.22754 33.5128 6.41645 34.322 5.42111 34.322C4.42578 34.322 3.61469 33.5128 3.61469 32.5156C3.61469 31.5185 4.42578 30.7092 5.42111 30.7092ZM5.42111 55.9991C4.42578 55.9991 3.61469 55.1898 3.61469 54.1927C3.61469 53.1955 4.42578 52.3863 5.42111 52.3863C6.41645 52.3863 7.22754 53.1955 7.22754 54.1927C7.22754 55.1898 6.41645 55.9991 5.42111 55.9991ZM20.6131 55.1194L10.7537 53.3274C10.4339 51.3602 9.06106 49.7597 7.22754 49.1058V37.6007C8.84067 37.0244 10.0907 35.7148 10.5875 34.0655L20.5445 33.5669L23.0626 52.8776C22.0258 53.3491 21.1785 54.1385 20.6131 55.1194ZM25.2918 59.6119C24.2964 59.6119 23.4853 58.8027 23.4853 57.8055C23.4853 56.8084 24.2964 55.9991 25.2918 55.9991C26.2871 55.9991 27.0982 56.8084 27.0982 57.8055C27.0982 58.8027 26.2871 59.6119 25.2918 59.6119ZM32.5175 77.6762C31.5221 77.6762 30.711 76.8669 30.711 75.8697C30.711 74.8726 31.5221 74.0633 32.5175 74.0633C33.5128 74.0633 34.3239 74.8726 34.3239 75.8697C34.3239 76.8669 33.5128 77.6762 32.5175 77.6762ZM53.4069 79.9577L37.9042 75.5283C37.7218 72.7013 35.3897 70.4505 32.5175 70.4505C32.4452 70.4505 32.3766 70.4685 32.3043 70.4722L28.8576 61.8537C29.1087 61.6315 29.3363 61.3895 29.5441 61.1257L51.3548 68.3966L54.5757 78.7727C54.1295 79.1087 53.7321 79.5043 53.4069 79.9577ZM57.8074 108.385C56.812 108.385 56.0009 107.576 56.0009 106.579C56.0009 105.582 56.812 104.773 57.8074 104.773C58.8027 104.773 59.6138 105.582 59.6138 106.579C59.6138 107.576 58.8027 108.385 57.8074 108.385ZM57.8074 84.9019C56.812 84.9019 56.0009 84.0926 56.0009 83.0954C56.0009 82.0983 56.812 81.289 57.8074 81.289C58.8027 81.289 59.6138 82.0983 59.6138 83.0954C59.6138 84.0926 58.8027 84.9019 57.8074 84.9019ZM57.8688 77.1993L55.5728 69.8038L59.8577 71.2327L57.8688 77.1993ZM61.0011 67.8041L54.2559 65.5551L48.7138 47.6968L53.5009 45.2148L61.9639 53.6778C61.6243 54.3842 61.4202 55.1645 61.4202 55.9991C61.4202 57.7296 62.2512 59.2579 63.5193 60.2496L61.0011 67.8041ZM84.9037 108.385C83.9084 108.385 83.0973 107.576 83.0973 106.579C83.0973 105.582 83.9084 104.773 84.9037 104.773C85.899 104.773 86.7101 105.582 86.7101 106.579C86.7101 107.576 85.899 108.385 84.9037 108.385ZM84.9037 79.4826C83.9084 79.4826 83.0973 78.6733 83.0973 77.6762C83.0973 76.679 83.9084 75.8697 84.9037 75.8697C85.899 75.8697 86.7101 76.679 86.7101 77.6762C86.7101 78.6733 85.899 79.4826 84.9037 79.4826ZM87.6531 73.0301C86.8438 72.5514 85.9117 72.2569 84.9037 72.2569C83.1732 72.2569 81.6449 73.0878 80.6532 74.356L64.4279 68.9475L66.9406 61.4075C69.0758 61.3678 70.9021 60.0888 71.7475 58.2589L101.348 60.9487C101.395 61.1293 101.449 61.3064 101.514 61.4798L87.6531 73.0301ZM91.4375 44.6385L102.982 38.3413C103.501 38.8074 104.106 39.1687 104.776 39.4071V54.5251C104.444 54.6443 104.129 54.7906 103.831 54.9676L91.4375 44.6385ZM106.581 61.4184C105.585 61.4184 104.774 60.6091 104.774 59.6119C104.774 58.6148 105.585 57.8055 106.581 57.8055C107.576 57.8055 108.387 58.6148 108.387 59.6119C108.387 60.6091 107.576 61.4184 106.581 61.4184ZM106.581 36.1284C105.585 36.1284 104.774 35.3192 104.774 34.322C104.774 33.3249 105.585 32.5156 106.581 32.5156C107.576 32.5156 108.387 33.3249 108.387 34.322C108.387 35.3192 107.576 36.1284 106.581 36.1284Z" fill="#828282"/>
<path d="M7.2266 0H3.61375V3.61285H7.2266V0Z" fill="#828282"/>
<path d="M7.2266 7.22571H3.61375V10.8386H7.2266V7.22571Z" fill="#828282"/>
<path d="M10.8396 3.61282H7.22673V7.22567H10.8396V3.61282Z" fill="#828282"/>
<path d="M3.61382 3.61282H0.000976562V7.22567H3.61382V3.61282Z" fill="#828282"/>
<path d="M97.5477 83.0955H93.9349V86.7083H97.5477V83.0955Z" fill="#828282"/>
<path d="M97.5477 90.3211H93.9349V93.934H97.5477V90.3211Z" fill="#828282"/>
<path d="M101.161 86.7083H97.5479V90.3211H101.161V86.7083Z" fill="#828282"/>
<path d="M93.9349 86.7083H90.3221V90.3211H93.9349V86.7083Z" fill="#828282"/>
<path d="M108.386 7.22571H104.773V10.8386H108.386V7.22571Z" fill="#828282"/>
<path d="M108.386 14.4514H104.773V18.0642H108.386V14.4514Z" fill="#828282"/>
<path d="M111.999 10.8385H108.386V14.4514H111.999V10.8385Z" fill="#828282"/>
<path d="M104.773 10.8385H101.161V14.4514H104.773V10.8385Z" fill="#828282"/>
<path d="M25.2909 86.7083H21.6781V90.3211H25.2909V86.7083Z" fill="#828282"/>
<path d="M25.2909 93.934H21.6781V97.5468H25.2909V93.934Z" fill="#828282"/>
<path d="M28.9037 90.3211H25.2908V93.934H28.9037V90.3211Z" fill="#828282"/>
<path d="M21.6781 90.3211H18.0653V93.934H21.6781V90.3211Z" fill="#828282"/>
<path d="M14.4524 66.8376H10.8395V70.4505H14.4524V66.8376Z" fill="#828282"/>
<path d="M14.4524 74.0634H10.8395V77.6762H14.4524V74.0634Z" fill="#828282"/>
<path d="M18.0651 70.4504H14.4523V74.0633H18.0651V70.4504Z" fill="#828282"/>
<path d="M10.8396 70.4504H7.22673V74.0633H10.8396V70.4504Z" fill="#828282"/>
</g>
<defs>
<clipPath id="clip0_2507_4535">
<rect width="112" height="112" fill="white"/>
</clipPath>
</defs>
</svg>
