<svg width="34" height="39" viewBox="0 0 34 39" fill="none" xmlns="http://www.w3.org/2000/svg">
<path d="M33.9442 11.9519C33.9442 12.5414 33.9128 13.1343 33.9541 13.7222C33.9888 14.2336 33.8154 14.543 33.3463 14.7889C32.3816 15.2938 31.4334 15.8345 30.51 16.4111C30.2986 16.543 30.1053 16.8736 30.0971 17.1179C30.0574 18.4811 30.0558 19.8458 30.0937 21.2074C30.1004 21.4533 30.2903 21.7872 30.5001 21.9191C31.4582 22.5184 32.4427 23.0754 33.4371 23.6129C33.817 23.8181 33.9508 24.0689 33.9426 24.4874C33.9195 25.7496 33.9195 27.0118 33.9376 28.2724C33.9442 28.6649 33.8154 28.9092 33.4602 29.103C32.3436 29.717 31.2368 30.3505 30.1383 30.9971C29.77 31.2137 29.4561 31.1811 29.101 30.9743C28.1611 30.4238 27.1947 29.9157 26.2664 29.3473C25.8749 29.1062 25.5809 29.1323 25.2026 29.3587C24.0909 30.0232 22.9643 30.6632 21.8279 31.2837C21.438 31.4954 21.2695 31.743 21.2827 32.1941C21.3141 33.2723 21.2761 34.3521 21.2976 35.4302C21.3059 35.8423 21.1836 36.1077 20.8037 36.3146C19.7019 36.9139 18.6133 37.5393 17.5347 38.1761C17.1531 38.4008 16.831 38.409 16.4461 38.181C15.3674 37.5426 14.2772 36.9204 13.1738 36.3243C12.7938 36.1191 12.6617 35.8634 12.67 35.4481C12.6931 34.3293 12.7013 33.2088 12.6551 32.0899C12.6452 31.844 12.4536 31.5101 12.2421 31.3814C11.0478 30.6583 9.82876 29.9694 8.59647 29.3098C8.39825 29.204 8.03815 29.2203 7.83332 29.3277C6.83229 29.8538 5.85274 30.4189 4.87979 30.9955C4.49822 31.2218 4.1728 31.2218 3.78792 30.9955C2.68943 30.3489 1.56452 29.7479 0.475943 29.0851C0.25955 28.9532 0.0448083 28.6291 0.0382009 28.3864C-0.00474738 27.0444 -0.00474745 25.6991 0.0348971 24.3572C0.0415046 24.1129 0.249639 23.7855 0.46438 23.6536C1.42411 23.0575 2.41192 22.5038 3.40634 21.9663C3.75818 21.7758 3.9052 21.5592 3.89694 21.1536C3.87051 19.81 3.87547 18.4664 3.89364 17.1244C3.89859 16.771 3.77305 16.5707 3.46415 16.4013C2.47139 15.859 1.5034 15.2727 0.508981 14.7368C0.130705 14.5333 -0.00474695 14.2792 0.00186048 13.8623C0.0233346 12.5805 0.0200306 11.2972 0.000208272 10.0154C-0.00639916 9.61641 0.14392 9.38678 0.492462 9.1946C1.61077 8.58223 2.71751 7.95032 3.816 7.30376C4.17941 7.09041 4.48665 7.08552 4.85006 7.3005C5.82301 7.87704 6.81742 8.41774 7.79037 8.99265C8.0844 9.16528 8.31566 9.20437 8.63282 9.01708C9.8172 8.31514 11.0164 7.63763 12.224 6.97315C12.5576 6.78911 12.6766 6.56599 12.6683 6.19466C12.6468 5.07579 12.6733 3.95529 12.6518 2.83642C12.6435 2.44392 12.7707 2.19963 13.1259 2.00419C14.2607 1.38043 15.3691 0.706174 16.5155 0.105209C16.7583 -0.0218245 17.1812 -0.0397395 17.4174 0.0840365C18.6001 0.704545 19.7614 1.37066 20.8995 2.06771C21.1093 2.19637 21.286 2.54164 21.2943 2.79408C21.3356 3.91132 21.3257 5.03182 21.3042 6.15232C21.296 6.53993 21.3984 6.78911 21.7618 6.9878C22.9709 7.64903 24.1504 8.35911 25.3645 9.01056C25.5644 9.11805 25.9245 9.11642 26.1276 9.01056C27.1287 8.48614 28.1115 7.92264 29.0828 7.3461C29.4627 7.12135 29.7815 7.09855 30.1697 7.32982C31.2649 7.97964 32.375 8.60829 33.4916 9.22391C33.8187 9.40469 33.969 9.62293 33.9541 9.99914C33.931 10.649 33.9475 11.302 33.9475 11.9535C33.9459 11.9519 33.9442 11.9519 33.9442 11.9519ZM21.3026 18.5885C21.3026 19.4696 21.2613 20.0641 21.3224 20.6471C21.3488 20.8996 21.5256 21.2269 21.737 21.3556C22.9296 22.0803 24.1471 22.7692 25.376 23.4354C25.566 23.538 25.903 23.5542 26.0896 23.4565C27.018 22.9712 27.9348 22.4582 28.8202 21.9012C29.03 21.7676 29.215 21.4272 29.2232 21.1764C29.2612 19.8344 29.2629 18.4908 29.215 17.1505C29.205 16.8915 28.9837 16.5462 28.7541 16.4046C27.8324 15.8264 26.8825 15.2889 25.9179 14.7857C25.4504 14.5414 25.2918 14.2287 25.3083 13.7189C25.343 12.6424 25.343 11.5626 25.2984 10.4861C25.2885 10.2402 25.0985 9.90631 24.8887 9.77928C23.6945 9.05617 22.4754 8.37051 21.2464 7.70603C21.0597 7.60506 20.7228 7.60343 20.5344 7.70277C19.6243 8.17833 18.7257 8.67995 17.8568 9.22717C17.6487 9.35909 17.4636 9.69296 17.457 9.93888C17.4174 11.2809 17.4537 12.6245 17.4257 13.9665C17.4174 14.3753 17.571 14.5984 17.9245 14.7759C18.4201 15.0251 18.8694 15.3736 19.3781 15.5821C20.8979 16.1977 21.8345 17.113 21.3026 18.5885ZM25.3232 26.6666C25.3232 25.9109 25.3678 25.3979 25.305 24.8962C25.2736 24.6405 25.1134 24.3083 24.9036 24.1829C23.7093 23.4582 22.4902 22.7709 21.258 22.1113C21.0581 22.0038 20.698 22.0087 20.4948 22.1162C19.5301 22.621 18.5803 23.1601 17.6503 23.7252C17.1911 24.0054 16.8095 24.0249 16.3404 23.7366C15.412 23.1683 14.4606 22.6324 13.4959 22.1276C13.2894 22.0201 12.9293 22.0022 12.7311 22.108C11.4988 22.7676 10.2814 23.4582 9.08708 24.1829C8.87729 24.3099 8.69063 24.6454 8.67907 24.893C8.63282 25.8669 8.67576 26.8457 8.65099 27.8229C8.64107 28.1975 8.77157 28.4157 9.10194 28.5981C10.3078 29.2642 11.507 29.9434 12.6914 30.6453C13.0086 30.8342 13.2398 30.7935 13.5339 30.6209C14.4721 30.0688 15.4385 29.5606 16.3685 28.9939C16.8161 28.7203 17.1812 28.7365 17.6222 29.0036C18.5522 29.5688 19.5169 30.0785 20.4535 30.6355C20.7541 30.8147 20.9887 30.831 21.296 30.6437C22.069 30.1746 22.8289 29.66 23.6581 29.3147C25.0077 28.7512 25.7494 27.9353 25.3232 26.6666ZM16.4709 11.9893C16.494 11.9893 16.5171 11.9893 16.5403 11.9893C16.5403 11.2972 16.5716 10.6034 16.5237 9.91608C16.5072 9.67993 16.3503 9.36561 16.1554 9.24509C15.2667 8.69298 14.3499 8.18159 13.4232 7.693C13.2498 7.6018 12.9376 7.60017 12.7641 7.69463C11.5186 8.37214 10.283 9.06919 9.06891 9.79882C8.87233 9.91771 8.69559 10.2304 8.68733 10.46C8.64603 11.5366 8.64107 12.6164 8.67907 13.6929C8.69889 14.2271 8.53866 14.5512 8.0431 14.8069C7.07511 15.3069 6.13356 15.8557 5.20852 16.429C5.00864 16.5528 4.81537 16.8557 4.80711 17.0821C4.76417 18.4648 4.75921 19.8475 4.78894 21.2302C4.7939 21.4582 4.97725 21.7693 5.17548 21.893C6.04601 22.437 6.93966 22.9451 7.85149 23.4174C8.05467 23.5233 8.41312 23.5217 8.61465 23.4142C9.82876 22.7644 11.0115 22.0608 12.2173 21.3947C12.5428 21.2155 12.6931 21.0022 12.6766 20.6227C12.6468 19.9533 12.7592 19.2661 12.6485 18.613C12.3991 17.1472 12.9623 16.258 14.3466 15.7108C15.0998 15.4111 16.053 15.0512 16.3932 14.4372C16.7451 13.7955 16.4709 12.8183 16.4709 11.9893ZM20.475 32.0655C19.3963 32.686 18.4779 33.212 17.5628 33.7462C17.5 33.782 17.4356 33.8749 17.4356 33.9416C17.4273 35.0068 17.4306 36.0735 17.4306 37.2787C18.4548 36.6908 19.36 36.1794 20.252 35.6436C20.366 35.5752 20.4634 35.3814 20.4667 35.2446C20.4832 34.2511 20.475 33.2593 20.475 32.0655ZM29.2496 30.1062C29.2496 29.3505 29.177 28.7626 29.2645 28.1975C29.4479 27.0249 29.0349 26.2659 27.9001 25.8457C27.4623 25.6829 27.0775 25.3865 26.6612 25.1617C26.5323 25.0917 26.382 25.0558 26.1508 24.9728C26.1508 26.064 26.1442 27.0558 26.159 28.0493C26.1607 28.1747 26.2334 28.3538 26.3308 28.4124C27.2393 28.9548 28.1594 29.4776 29.2496 30.1062ZM13.5141 32.0818C13.5141 33.2821 13.5108 34.3081 13.5207 35.3358C13.5207 35.4237 13.5818 35.5507 13.6545 35.5931C14.5762 36.1403 15.5062 36.6745 16.5634 37.2885C16.5634 36.0898 16.57 35.0621 16.5535 34.0345C16.5518 33.9189 16.4428 33.7609 16.3387 33.699C15.4583 33.1811 14.5663 32.6811 13.5141 32.0818ZM26.1838 10.491C26.1838 11.6864 26.1821 12.7287 26.1888 13.7727C26.1888 13.8427 26.2449 13.9421 26.3044 13.9763C27.2278 14.5186 28.1545 15.0528 29.2034 15.6603C29.2034 14.4616 29.2084 13.4339 29.1951 12.4063C29.1935 12.3053 29.1026 12.1669 29.0118 12.1131C28.1198 11.5903 27.2179 11.0806 26.1838 10.491ZM4.77573 30.0427C5.41335 29.686 5.88743 29.3408 6.41768 29.1388C7.56076 28.704 8.02658 27.9646 7.82506 26.7529C7.7309 26.1926 7.80854 25.6047 7.80854 24.8881C6.75465 25.4907 5.86265 25.9939 4.98221 26.5151C4.8798 26.5754 4.78564 26.7415 4.78399 26.8604C4.76912 27.8717 4.77573 28.8831 4.77573 30.0427ZM32.702 24.1536C31.6481 23.5591 30.7297 23.0347 29.8014 22.5266C29.7122 22.4777 29.5453 22.4875 29.4528 22.538C28.5427 23.0412 27.6407 23.5575 26.5984 24.1503C27.654 24.7497 28.5707 25.2757 29.4958 25.7904C29.5718 25.8327 29.7122 25.8327 29.7865 25.792C30.7148 25.2806 31.6382 24.7562 32.702 24.1536ZM13.9501 31.3538C14.9941 31.9466 15.8993 32.4645 16.8095 32.9726C16.8888 33.0166 17.0276 33.0426 17.0969 33.0036C18.0385 32.484 18.9734 31.9531 20.0323 31.3554C18.985 30.7626 18.0831 30.2447 17.168 29.7463C17.0655 29.6909 16.8739 29.704 16.7666 29.7626C15.8713 30.2544 14.9859 30.7642 13.9501 31.3538ZM30.0822 30.0834C31.1311 29.4792 32.0479 28.9548 32.9597 28.4206C33.0341 28.3766 33.1067 28.2577 33.1084 28.173C33.1183 27.1291 33.115 26.0835 33.115 24.8734C32.0628 25.476 31.1443 25.9988 30.2342 26.5314C30.1598 26.5754 30.0904 26.6959 30.0904 26.7806C30.0789 27.8261 30.0822 28.8717 30.0822 30.0834ZM32.6756 9.74833C31.6349 9.1604 30.7148 8.63761 29.7898 8.12622C29.7138 8.08387 29.5734 8.07899 29.4991 8.12133C28.5757 8.63435 27.6573 9.1604 26.6215 9.74833C27.6606 10.3395 28.5658 10.8591 29.4776 11.3623C29.5652 11.4112 29.7303 11.4047 29.8195 11.3558C30.7314 10.8525 31.6366 10.3363 32.6756 9.74833ZM30.0871 15.6554C31.1245 15.0593 32.0413 14.5381 32.9515 14.0039C33.0258 13.96 33.0985 13.8411 33.1001 13.758C33.11 12.7173 33.1067 11.675 33.1067 10.4812C32.0644 11.0806 31.1625 11.5936 30.2705 12.1196C30.1813 12.1717 30.0971 12.3134 30.0971 12.4144C30.0822 13.4421 30.0871 14.4697 30.0871 15.6554ZM20.4535 17.6879C19.4227 18.2775 18.5489 18.771 17.6833 19.2807C17.5743 19.3442 17.4488 19.4908 17.4471 19.6016C17.429 20.6325 17.4372 21.665 17.4372 22.8523C18.4729 22.2562 19.3914 21.7302 20.3048 21.1927C20.3792 21.1488 20.4469 21.0266 20.4469 20.9403C20.4585 19.911 20.4535 18.8817 20.4535 17.6879ZM13.9716 16.9485C15.0106 17.5381 15.8993 18.0462 16.793 18.5462C16.8739 18.5918 17.011 18.6276 17.0788 18.5918C18.0187 18.0739 18.9503 17.5413 20.0009 16.9469C18.9668 16.3606 18.0798 15.8492 17.1812 15.359C17.0788 15.302 16.8871 15.3052 16.7831 15.3622C15.8878 15.8541 15.0024 16.3638 13.9716 16.9485ZM1.32995 24.1519C2.3475 24.7317 3.23124 25.2415 4.1249 25.7333C4.22896 25.7904 4.41728 25.8034 4.51639 25.748C5.42656 25.2496 6.32517 24.7317 7.34767 24.1519C6.32517 23.5722 5.42656 23.0559 4.51639 22.5575C4.41562 22.5021 4.22566 22.5135 4.11994 22.5722C3.22629 23.0657 2.34419 23.5754 1.32995 24.1519ZM13.519 17.6895C13.519 18.8736 13.5124 19.867 13.5273 20.8589C13.5289 20.9794 13.6115 21.152 13.7106 21.2123C14.6026 21.7432 15.5062 22.2546 16.5303 22.8425C16.5303 21.652 16.5337 20.6064 16.5237 19.5608C16.5221 19.4794 16.4395 19.367 16.3635 19.3214C15.4649 18.7986 14.563 18.2856 13.519 17.6895ZM0.877345 24.906C0.877345 26.0868 0.874041 27.1112 0.883952 28.1372C0.883952 28.2235 0.946723 28.3489 1.0194 28.3913C1.92958 28.9271 2.84801 29.4499 3.88373 30.046C3.88373 28.8701 3.88703 27.8441 3.87877 26.818C3.87877 26.7301 3.82095 26.603 3.74992 26.5607C2.8381 26.0265 1.92132 25.5053 0.877345 24.906ZM13.5355 3.31035C13.5355 4.47808 13.5322 5.50575 13.5421 6.53342C13.5438 6.61973 13.6132 6.74025 13.6875 6.78423C14.5977 7.31842 15.5145 7.84121 16.537 8.42914C16.537 7.27933 16.5436 6.28586 16.5287 5.29077C16.527 5.16699 16.4577 4.98785 16.3619 4.92921C15.4666 4.40154 14.5597 3.89503 13.5355 3.31035ZM20.4535 3.2957C19.4211 3.88526 18.5357 4.38688 17.6569 4.90153C17.5644 4.95527 17.457 5.08393 17.4554 5.1784C17.4405 6.21746 17.4471 7.25653 17.4471 8.43077C18.4647 7.84772 19.3534 7.34936 20.2272 6.8282C20.3412 6.7598 20.4419 6.56925 20.4453 6.43407C20.4618 5.44386 20.4535 4.45528 20.4535 3.2957ZM0.878996 10.5138C0.878996 11.6701 0.872389 12.6636 0.887256 13.6554C0.888907 13.7759 0.969849 13.9469 1.06896 14.0072C1.95931 14.5381 2.86288 15.0495 3.87877 15.6326C3.87877 14.4763 3.88538 13.4681 3.87051 12.46C3.86886 12.3427 3.7747 12.1783 3.67394 12.118C2.79515 11.5985 1.90645 11.0985 0.878996 10.5138ZM13.9914 2.54164C14.7711 2.98789 15.45 3.29895 16.0364 3.73054C16.7203 4.23379 17.2885 4.19307 17.9576 3.71751C18.5588 3.29081 19.2344 2.96834 19.986 2.53838C18.9586 1.95696 18.0715 1.4472 17.1746 0.958611C17.0738 0.903238 16.8855 0.911381 16.7814 0.968383C15.8878 1.4586 15.0024 1.96836 13.9914 2.54164ZM4.7972 15.6147C5.30432 15.3297 5.67104 15.056 6.08235 14.9078C7.49303 14.3997 8.09101 13.4746 7.80689 11.9893C7.72429 11.5529 7.79367 11.0887 7.79367 10.5056C6.76622 11.0936 5.89404 11.5854 5.03342 12.0936C4.9277 12.1571 4.80877 12.3053 4.80711 12.4177C4.7906 13.4388 4.7972 14.4616 4.7972 15.6147ZM1.34317 9.74833C2.35906 10.3265 3.22959 10.8281 4.11003 11.3134C4.21575 11.3721 4.40571 11.3949 4.50317 11.3411C5.415 10.8411 6.31526 10.3216 7.3262 9.74671C6.32187 9.17668 5.43482 8.66692 4.53621 8.17345C4.43379 8.11645 4.24383 8.11156 4.14307 8.16856C3.24611 8.66041 2.35906 9.1718 1.34317 9.74833Z" fill="white"/>
</svg>
