<svg width="18" height="22" viewBox="0 0 18 22" fill="none" xmlns="http://www.w3.org/2000/svg">
<path d="M8.46318 19.4599L17.7768 10.1511H11.0046L5.07812 16.0753L8.46318 19.4599Z" fill="white"/>
<path d="M0 10.9989L11.0072 0H17.7795L3.38717 14.3836L0 10.9989Z" fill="white"/>
<path d="M11.0063 21.9986H17.7785L11.852 16.0765L8.46484 19.4612L11.0063 21.9986Z" fill="white"/>
<path d="M11.852 16.0765L8.46484 19.4612L13.4884 17.7222L11.852 16.0765Z" fill="white"/>
<path d="M5.07812 16.0738L8.46538 12.6891L11.8529 16.0738L8.46538 19.4585L5.07812 16.0738Z" fill="white"/>
<path d="M17.7795 10.1517L11.853 16.0759L17.7795 22H11.0072L5.07864 16.0759L11.0072 10.1517H17.7795ZM11.0072 0L0 10.9989L3.38717 14.3836L17.7795 0H11.0072V0Z" fill="white"/>
</svg>
