<svg width="62" height="74" viewBox="0 0 62 74" fill="none" xmlns="http://www.w3.org/2000/svg">
<path d="M59.7569 57.2149C58.661 59.7462 57.3639 62.0762 55.8611 64.2184C53.8125 67.1387 52.1352 69.1601 50.8426 70.2827C48.8387 72.1252 46.6917 73.0688 44.3928 73.1225C42.7423 73.1225 40.7518 72.6529 38.435 71.7003C36.1104 70.7522 33.9742 70.2826 32.0209 70.2826C29.9724 70.2826 27.7753 70.7522 25.4253 71.7003C23.0717 72.6529 21.1757 73.1493 19.726 73.1985C17.5214 73.2924 15.3239 72.3219 13.1304 70.2826C11.7304 69.0617 9.97934 66.9687 7.88153 64.0037C5.63082 60.8374 3.78045 57.1657 2.33078 52.9797C0.778271 48.4585 0 44.0802 0 39.8415C0 34.986 1.04933 30.7982 3.15111 27.2889C4.80293 24.4701 7.00041 22.2465 9.75076 20.6142C12.501 18.9819 15.4728 18.15 18.6731 18.0968C20.4243 18.0968 22.7206 18.6384 25.5742 19.7028C28.4199 20.7708 30.247 21.3123 31.0481 21.3123C31.647 21.3123 33.6768 20.679 37.1177 19.4166C40.3717 18.2458 43.118 17.7609 45.3678 17.9519C51.4643 18.4438 56.0444 20.8467 59.0904 25.1758C53.6381 28.479 50.9409 33.1054 50.9946 39.0405C51.0438 43.6634 52.7211 47.5103 56.0176 50.5649C57.5115 51.9825 59.1798 53.0782 61.0361 53.8564C60.6335 55.0236 60.2086 56.1417 59.7569 57.215V57.2149ZM45.7749 2.20263C45.7749 5.82601 44.4509 9.20919 41.8119 12.3406C38.6273 16.0633 34.7753 18.2144 30.5981 17.875C30.5422 17.4194 30.5141 16.9609 30.514 16.502C30.514 13.0235 32.0285 9.30085 34.7181 6.25711C36.0608 4.71599 37.7685 3.43459 39.8394 2.41239C41.9058 1.40543 43.8605 0.84856 45.6988 0.753174C45.7525 1.23755 45.7749 1.72198 45.7749 2.20257V2.20263Z" fill="#828282"/>
</svg>
