<svg width="28" height="23" viewBox="0 0 28 23" fill="none" xmlns="http://www.w3.org/2000/svg">
<path d="M10.5451 14.1333C11.5989 13.5224 12.6481 12.9069 13.7019 12.3007C14.9096 11.6013 16.1173 10.9065 17.3297 10.2071C17.4322 10.1465 17.5068 10.0952 17.5022 9.94597C17.4929 8.70564 17.4975 7.46064 17.4975 6.2203C17.4975 6.19233 17.4929 6.15969 17.4929 6.13171C17.3996 6.11772 17.3436 6.183 17.2784 6.2203C15.1148 7.4653 12.9558 8.71496 10.7922 9.96463C10.699 10.0159 10.6011 10.0625 10.5078 10.1092C10.5078 8.76159 10.5078 7.41867 10.5078 6.07109C13.8231 4.1593 17.1431 2.24284 20.4585 0.32638C20.631 0.228458 20.8175 0.158515 20.9527 0.00463867C20.9667 0.00463867 20.9854 0.00463867 20.9994 0.00463867C20.9994 3.97278 20.9994 7.94558 21.004 11.9137C21.004 12.1002 20.9388 12.1842 20.7895 12.2728C19.7637 12.8556 18.7472 13.4525 17.726 14.04C16.5043 14.7441 15.278 15.4482 14.0516 16.1477C13.963 16.143 13.8884 16.1057 13.8138 16.0637C13.119 15.6627 12.4196 15.271 11.7295 14.8607C11.3331 14.6136 10.9042 14.427 10.5451 14.1333Z" fill="white"/>
<path d="M10.5028 6.06645C10.5028 7.41404 10.5028 8.75696 10.5028 10.1045C9.71012 9.6942 8.95473 9.22325 8.18068 8.78027C6.70254 7.93162 5.22439 7.07364 3.74625 6.22033C3.68097 6.18303 3.61102 6.14572 3.5131 6.09443C3.5131 8.78493 3.5131 11.4475 3.5131 14.1146C3.39187 14.1286 3.33125 14.0587 3.26131 14.0214C2.24945 13.4339 1.23294 12.8463 0.221084 12.2635C0.155804 12.2262 0.0998486 12.1655 0.0112532 12.1702C0.0112532 8.18342 0.0112532 4.19662 0.0159161 0.209831C0.0159161 0.139887 -0.0400389 0.0512921 0.0578823 0C0.076534 0.0792696 0.155804 0.0932589 0.211759 0.125899C3.64366 2.10298 7.07091 4.08471 10.5028 6.06645Z" fill="white"/>
<path d="M17.4971 18.1854C19.7586 16.8798 22.0201 15.5695 24.2863 14.2685C24.4402 14.18 24.4961 14.0867 24.4961 13.9095C24.4868 12.7158 24.4961 11.5174 24.4868 10.3237C24.4868 10.1605 24.5381 10.0766 24.678 9.99732C25.7038 9.41445 26.7203 8.82226 27.7415 8.23474C27.8208 8.18811 27.8907 8.11816 27.9886 8.11816C27.9886 10.8087 27.9886 13.4945 27.9886 16.185C24.5614 18.1621 21.1388 20.1392 17.7116 22.1162C17.6463 22.1535 17.5857 22.2095 17.5017 22.2048C17.5017 20.8619 17.4971 19.5237 17.4971 18.1854Z" fill="white"/>
<path d="M17.5027 22.2001C17.5027 22.2141 17.498 22.2281 17.498 22.2421C17.484 22.2421 17.4654 22.2421 17.4514 22.2421C17.1157 21.9763 16.7286 21.7991 16.3649 21.5846C14.4811 20.4935 12.5926 19.4024 10.7042 18.3206C10.5596 18.2367 10.499 18.1527 10.499 17.9802C10.5083 16.7678 10.5037 15.5602 10.5037 14.3478C10.5037 14.2779 10.4617 14.1939 10.5456 14.1333C10.9047 14.4317 11.3337 14.6136 11.7253 14.8514C12.4155 15.2664 13.1149 15.6534 13.8097 16.0544C13.8843 16.0964 13.9589 16.1384 14.0475 16.1384C14.0801 16.2409 14.1827 16.2596 14.2573 16.3062C15.3344 16.931 16.4162 17.5559 17.498 18.1807C17.498 19.5236 17.5027 20.8619 17.5027 22.2001Z" fill="white"/>
<path d="M27.9892 4.10334C27.8866 4.08935 27.8166 4.16862 27.742 4.21059C26.7208 4.79812 25.6997 5.39031 24.6785 5.97783C24.6272 6.00581 24.5806 6.0571 24.492 6.04778C24.492 5.97317 24.492 5.89856 24.492 5.82396C24.492 4.63491 24.4966 3.44587 24.4873 2.26149C24.4873 2.09362 24.5339 2.00037 24.6831 1.91643C25.7136 1.32891 26.7395 0.736716 27.7653 0.139863C27.826 0.10256 27.9145 0.0932341 27.9425 0.00463867C28.0404 0.0466049 27.9845 0.130537 27.9845 0.191155C27.9892 1.49211 27.9892 2.79772 27.9892 4.10334Z" fill="white"/>
</svg>
