<svg width="151" height="144" viewBox="0 0 151 144" fill="none" xmlns="http://www.w3.org/2000/svg">
<path d="M7.91242 126.868C7.91242 127.889 7.54827 128.773 6.81243 129.518C6.07911 130.262 5.1889 130.636 4.14449 130.636C3.12401 130.636 2.2556 130.262 1.54409 129.518C0.832381 128.773 0.477875 127.889 0.477875 126.868C0.477875 125.819 0.832381 124.933 1.54409 124.199C2.2556 123.463 3.12401 123.098 4.14449 123.098C5.1889 123.098 6.07911 123.468 6.81243 124.213C7.54827 124.959 7.91242 125.845 7.91242 126.868Z" fill="#828282"/>
<path d="M54.579 129.869H47.7813L23.1065 91.7418C22.5299 90.8246 22.033 89.8278 21.6109 88.7393H21.4081C21.5837 89.7602 21.6737 91.9517 21.6737 95.309V129.869H16.0699V82.0345H23.3429L47.2796 119.56C48.2325 121.05 48.8836 122.116 49.2142 122.758H49.3473C49.1254 121.383 49.0098 119.037 49.0098 115.725V82.0345H54.5796V129.869H54.579Z" fill="#828282"/>
<path d="M90.5033 129.869H65.165V82.0345H89.4033V87.1029H70.764V103.015H88.0357V108.086H70.764V124.798H90.5033V129.869Z" fill="#828282"/>
<path d="M128.937 87.1035H115.166V129.869H109.564V87.1035H95.7663V82.0328H128.937V87.1035Z" fill="#828282"/>
<path fill-rule="evenodd" clip-rule="evenodd" d="M107.482 56.6513L107.438 56.6721C107.64 56.5763 107.842 56.4757 108.044 56.3727C114.994 52.4876 119.72 42.6756 126.752 28.0746C130.597 20.0896 135.133 10.6724 141.099 0.00897855H136.385L136.391 0.00663582H130.133H129.511H128.923H128.9C128.78 0.0122752 128.662 0.0174572 128.544 0.0226012L128.544 0.0226022L128.544 0.0226082C128.263 0.0349063 127.987 0.0469879 127.713 0.0645824L127.706 0.0799883C115.925 0.792383 110.417 6.79317 107.644 15.6778C106.786 18.425 105.987 21.0011 105.238 23.4162L105.238 23.4169L105.237 23.4177C101.757 34.6428 99.355 42.3889 97.0268 47.6643L97.0237 47.6673C97.0237 47.6834 97.0237 47.6859 97.0123 47.6935V47.6796C95.688 48.9466 94.3661 50.1077 93.0465 51.1574C92.3566 51.7054 91.6692 52.2242 90.9745 52.7143C91.5558 53.4094 92.1469 54.061 92.7692 54.6548C93.7147 55.5716 94.7252 56.3441 95.8275 56.9401L95.8231 56.9423C94.721 56.346 93.7103 55.5738 92.7648 54.6567C92.1425 54.0631 91.5516 53.4115 90.9703 52.7165L90.9707 52.7162C91.6654 52.2263 92.3528 51.7073 93.0403 51.1594C91.0091 46.6573 89.4321 40.4697 87.7788 33.9829L87.7788 33.9828L87.7788 33.9827C86.1523 27.6013 84.4521 20.9304 82.1732 15.2898C84.4534 20.9315 86.1545 27.6039 87.7816 33.9864C89.435 40.4718 91.0121 46.6579 93.043 51.1593C94.3624 50.1096 95.6844 48.9485 97.0087 47.6815C95.6807 43.7012 94.5588 38.9337 93.3961 33.9923L93.3961 33.9923L93.3961 33.9922L93.396 33.992L93.396 33.9918L93.3959 33.9916L93.3959 33.9916C89.7496 18.4956 85.7011 1.29048 73.6316 1.29048C72.5325 1.29048 71.4244 1.38942 70.3182 1.58732C71.4245 1.3871 72.5327 1.28813 73.632 1.28813L67.4639 1.26552C68.4233 1.27257 69.333 1.39016 70.1975 1.60974L70.195 1.61022C69.3039 1.38391 68.3647 1.2662 67.3726 1.2662L67.2734 1.26646H60.9116C60.7209 1.26646 60.5329 1.26794 60.3473 1.27102C60.5329 1.26794 60.721 1.26643 60.9117 1.26643H42.2978C42.122 1.25849 41.9448 1.25409 41.7664 1.25409C28.0311 1.25409 9.10697 26.7532 0.582092 59.7755H2.22483C4.95308 54.9075 7.40393 50.3024 9.64491 45.9796C15.6152 22.5899 27.7754 6.63863 38.5774 2.41259L38.5768 2.41519C27.7772 6.64391 15.6147 22.595 9.64435 45.9824C11.8147 41.7978 13.7871 37.8795 15.6196 34.2393C24.3617 16.8727 29.9179 5.83515 38.5768 2.41519L38.5765 2.41637C38.5808 2.41637 38.5857 2.4104 38.59 2.40514C38.5934 2.40097 38.5964 2.39724 38.5985 2.39724C38.6081 2.39724 38.6229 2.39724 38.6277 2.37812H38.643C38.6838 2.36425 38.7228 2.34881 38.7623 2.33323L38.7623 2.33321L38.7624 2.33316C38.7882 2.32298 38.8141 2.31273 38.8408 2.30282C38.858 2.30282 38.867 2.30282 38.8795 2.28369C38.8887 2.28369 38.8978 2.27819 38.9068 2.27273C38.9146 2.268 38.9224 2.26329 38.9302 2.26218C38.9968 2.24106 39.0634 2.21629 39.1263 2.19291L39.1425 2.18688H39.154C39.2689 2.1526 39.3776 2.11245 39.4872 2.072C39.5318 2.05552 39.5766 2.03899 39.6219 2.02279C39.6324 2.02279 39.6428 2.01843 39.6537 2.01388C39.6656 2.00889 39.678 2.00367 39.6918 2.00367L39.7251 1.99284L39.7251 1.99283C39.7799 1.97493 39.836 1.9566 39.892 1.94381C39.9123 1.93149 39.9325 1.92711 39.952 1.92287C39.9628 1.92052 39.9734 1.91822 39.9837 1.91464C40.0045 1.90837 40.0252 1.90188 40.0456 1.89545C40.0937 1.88034 40.1407 1.86559 40.1863 1.85478C40.2029 1.85478 40.2186 1.8486 40.233 1.84291C40.244 1.8386 40.2542 1.83457 40.2635 1.83375C40.4878 1.77198 40.7098 1.71403 40.9341 1.65995C40.9503 1.65995 40.9652 1.6549 40.9804 1.64972C40.9947 1.64484 41.0094 1.63985 41.0258 1.63892C41.0908 1.61979 41.1512 1.60975 41.2212 1.60019C41.2406 1.58744 41.262 1.58319 41.2841 1.5788C41.2952 1.5766 41.3064 1.57437 41.3177 1.57103C41.3547 1.56015 41.3909 1.55484 41.4282 1.54938C41.4564 1.54524 41.4853 1.54102 41.5155 1.53421H41.5613C41.6487 1.51659 41.7371 1.50076 41.8251 1.485L41.8252 1.48499L41.8253 1.48497C41.8734 1.47636 41.9214 1.46777 41.969 1.45891H42.051C42.0928 1.44663 42.1316 1.44145 42.1713 1.43615C42.1935 1.43319 42.2159 1.4302 42.2392 1.42592C42.2574 1.42592 42.2757 1.421 42.2938 1.41615C42.3114 1.41144 42.3287 1.4068 42.3453 1.4068C42.3836 1.4068 42.4219 1.39908 42.4602 1.39137C42.4822 1.38694 42.5042 1.38251 42.5262 1.37954C42.5577 1.37954 42.5889 1.37954 42.6252 1.36042C42.7306 1.34624 42.8388 1.33837 42.9486 1.33038L43.0043 1.32629L43.0635 1.33159C43.406 1.30263 43.7437 1.29056 44.0815 1.29056C46.9978 1.29056 49.5259 2.19322 51.7572 3.77408L51.7571 3.77415C52.1938 4.08294 52.6214 4.41961 53.0383 4.78121C52.6213 4.41983 52.1934 4.08335 51.7556 3.77468L51.7378 3.78851C49.5114 2.21408 46.9898 1.31684 44.0822 1.31684C43.7889 1.31684 43.4955 1.33127 43.1991 1.35167C43.1798 1.35112 43.1605 1.35112 43.1413 1.35112C43.1149 1.332 43.0909 1.332 43.0641 1.332L43.0643 1.3593C42.9686 1.37101 42.8759 1.37851 42.7848 1.38588L42.7847 1.38589C42.7351 1.3899 42.6859 1.39388 42.637 1.39848L42.6243 1.37271C42.6043 1.37271 42.5869 1.37783 42.5701 1.38277C42.5544 1.38738 42.5393 1.39184 42.523 1.39184C42.4792 1.4063 42.434 1.40982 42.3885 1.41337C42.3738 1.41452 42.3591 1.41566 42.3445 1.41718C42.3086 1.41718 42.2746 1.41718 42.2383 1.4363C42.1972 1.44836 42.1581 1.45357 42.1191 1.45877C42.0962 1.46183 42.0734 1.46487 42.0502 1.46929C42.021 1.46929 41.9923 1.46929 41.9682 1.48842C41.8906 1.50134 41.8139 1.51503 41.7376 1.52865L41.7375 1.52866C41.6784 1.53922 41.6194 1.54974 41.5605 1.55984H41.5146C41.4447 1.57897 41.3818 1.58901 41.3168 1.59857C41.2929 1.61204 41.2692 1.61602 41.2462 1.61987C41.2366 1.62149 41.2271 1.62308 41.2178 1.62535C41.1693 1.6396 41.1208 1.64774 41.0732 1.65571L41.0732 1.65573C41.0569 1.65845 41.0408 1.66115 41.0248 1.66407C40.9936 1.68167 40.9689 1.68308 40.9406 1.68468L40.9331 1.68511C40.7088 1.73918 40.4869 1.79713 40.2625 1.8589C40.25 1.8589 40.2374 1.86415 40.224 1.86969C40.2119 1.87474 40.1992 1.88003 40.1854 1.88185C40.1178 1.90097 40.0526 1.92058 39.9827 1.94171C39.9623 1.95513 39.9397 1.95913 39.918 1.96297C39.9087 1.9646 39.8997 1.9662 39.891 1.96848C39.8235 1.98761 39.756 2.00721 39.6908 2.02834C39.6774 2.02834 39.6651 2.03333 39.6531 2.03821C39.6416 2.04289 39.6303 2.04747 39.6185 2.04747L39.5851 2.05998L39.5851 2.06L39.585 2.06002C39.4421 2.11369 39.3006 2.1668 39.1529 2.2116C39.107 2.2259 39.0588 2.24306 39.01 2.26046C38.987 2.26866 38.9638 2.27691 38.9407 2.28494C38.921 2.29786 38.9025 2.30401 38.8823 2.31077L38.8823 2.31078L38.8822 2.31079C38.8725 2.31404 38.8624 2.31742 38.8515 2.32176C38.7864 2.34202 38.7214 2.36805 38.6606 2.39236L38.6537 2.39515C38.6389 2.40695 38.624 2.4122 38.6108 2.41685C38.6026 2.41973 38.5951 2.42238 38.5886 2.42622C29.9297 5.84618 24.3735 16.8838 15.6314 34.2503L15.6312 34.2506L15.6312 34.2508C13.7988 37.8909 11.8264 41.8091 9.65615 45.9934C8.54411 50.3427 7.64434 54.9525 7.01474 59.7868H7.68535C8.59661 59.7868 9.19232 59.7824 9.80892 59.7778C10.4704 59.7728 11.1558 59.7677 12.2807 59.7677H12.3916H12.7149H12.8258H12.8573H12.9682H13.031H13.0744H13.1612H13.4314H13.7016H13.9283H13.9886H14.3866C14.4794 59.7558 14.574 59.7513 14.67 59.7468C14.7286 59.744 14.7878 59.7412 14.8473 59.7366H14.8763C14.9092 59.7366 14.9421 59.7318 14.9746 59.7269C14.9863 59.7252 14.998 59.7235 15.0095 59.722L15.1043 59.7175H15.115C15.1329 59.7175 15.1516 59.7162 15.1706 59.7142C27.2616 59.1054 32.8614 52.8351 35.6722 43.832C36.566 40.9763 37.3945 38.3046 38.1692 35.8064L38.1701 35.8037C39.2891 32.1949 40.2959 28.9484 41.2252 26.0321L41.2239 26.0339C43.1403 20.0155 44.7237 15.3995 46.2765 11.8779L46.2798 11.8747C44.728 15.3979 43.141 20.0197 41.2252 26.0416C45.0582 20.6376 48.8792 15.9819 52.6785 12.2096L52.6784 12.2092C52.7526 12.1365 52.8269 12.064 52.901 11.9917C52.827 12.064 52.7529 12.1367 52.6787 12.2096C53.9565 16.1194 55.0467 20.7536 56.1754 25.5513L56.1754 25.5513L56.1754 25.5514C59.8215 41.0502 63.8691 58.2555 75.9399 58.2555C76.6225 58.2555 77.3088 58.2176 77.9978 58.1424C77.309 58.2179 76.6228 58.2558 75.9404 58.2558L88.4963 58.2558L88.4878 58.2562H100.736C100.63 58.2371 100.526 58.2371 100.427 58.2371H100.389C100.169 58.2217 99.9593 58.2021 99.747 58.1811C98.2998 58.0096 97.0068 57.5824 95.8225 56.9429L95.8226 56.9429C97.0071 57.5823 98.2997 58.0095 99.7469 58.1807C99.959 58.2018 100.169 58.2214 100.389 58.2367H100.427C100.526 58.2367 100.63 58.2367 100.736 58.2559H100.779H101.095L101.104 58.2558L101.108 58.2788L105.744 58.2596C105.09 58.2596 104.485 58.1509 103.904 57.9362L103.868 57.9449C102.218 57.3321 100.836 55.9021 99.6445 53.8692L99.6512 53.8432L99.6542 53.8395C100.848 55.872 102.237 57.3014 103.887 57.9079C103.919 57.8954 103.946 57.891 103.973 57.8867C103.988 57.8845 104.002 57.8822 104.017 57.8787H104.044C104.058 57.8787 104.073 57.8741 104.088 57.8694C104.104 57.8646 104.12 57.8596 104.136 57.8596C104.166 57.851 104.197 57.8439 104.229 57.8367C104.267 57.8279 104.306 57.8191 104.343 57.8075C104.369 57.796 104.393 57.7907 104.417 57.7853C104.433 57.7817 104.449 57.7781 104.466 57.7726C104.507 57.7602 104.548 57.75 104.588 57.7402L104.589 57.74L104.591 57.7396C104.608 57.7355 104.624 57.7315 104.64 57.7274C104.624 57.7323 104.607 57.7369 104.591 57.7414L104.568 57.7472L104.54 57.7544C104.517 57.7601 104.494 57.7659 104.472 57.7721C104.433 57.7892 104.4 57.796 104.36 57.8041L104.346 57.807C104.281 57.8261 104.209 57.8438 104.144 57.8591L104.062 57.8772C104.007 57.8896 103.953 57.9015 103.897 57.9132C104.479 58.1281 105.084 58.2366 105.738 58.2366C117.934 58.2366 130.232 36.3675 150.579 0H142.59L142.593 0.00663582H141.104C135.137 10.6717 130.601 20.0902 126.755 28.076L126.755 28.0761C119.725 42.675 115 52.4856 108.052 56.3703C107.895 56.4502 107.738 56.5283 107.581 56.6038L107.482 56.6513ZM88.4963 58.2558C87.6109 58.2558 86.7666 58.1708 85.9537 58.0048C85.334 57.8791 84.7346 57.7077 84.153 57.4931C84.7345 57.7075 85.3342 57.8788 85.9551 58.0044C86.7679 58.1705 87.6099 58.2554 88.4951 58.2554C91.3316 58.2554 93.602 57.935 95.5428 57.0721C93.6036 57.9352 91.3308 58.2558 88.4963 58.2558ZM43.1991 1.35167C43.2449 1.35297 43.2908 1.35735 43.3367 1.37216H43.4019C43.4691 1.38304 43.5363 1.39098 43.604 1.39897L43.6041 1.39897C43.6554 1.40503 43.7069 1.41112 43.7589 1.41854C43.7809 1.41854 43.8 1.41854 43.8191 1.43766C43.9179 1.45679 44.0193 1.47256 44.1206 1.48786C44.1314 1.48786 44.1437 1.49243 44.1564 1.4971C44.1696 1.50198 44.1832 1.50699 44.1955 1.50699C44.4271 1.55336 44.6635 1.6016 44.8903 1.66146C44.9013 1.66146 44.9125 1.66651 44.9233 1.67142C44.9336 1.67607 44.9436 1.68059 44.953 1.68059C45.0151 1.69536 45.0732 1.71271 45.1325 1.73041L45.1325 1.73042L45.1326 1.73043C45.1653 1.74021 45.1984 1.7501 45.2328 1.75971C45.2493 1.75971 45.2634 1.76588 45.2773 1.772C45.2879 1.77666 45.2985 1.78128 45.31 1.78314C45.4234 1.81231 45.5295 1.84109 45.6405 1.87776C45.6446 1.87776 45.6502 1.87776 45.66 1.89022H45.6544C45.5689 1.86185 45.4848 1.83938 45.3988 1.81641L45.3215 1.7956C45.2991 1.77933 45.2799 1.7769 45.2584 1.77418L45.2468 1.77265C45.2024 1.76042 45.1604 1.74828 45.1192 1.73635L45.119 1.7363C45.0684 1.72165 45.0188 1.7073 44.967 1.69348C44.9544 1.69348 44.9423 1.68815 44.9309 1.68312C44.9207 1.67862 44.911 1.67435 44.902 1.67435C44.6752 1.61449 44.4412 1.56625 44.2048 1.52184C44.1926 1.52184 44.1805 1.51703 44.1685 1.51224C44.1565 1.50747 44.1445 1.50271 44.1325 1.50271C44.0312 1.48359 43.9323 1.4659 43.831 1.45442C43.8066 1.4353 43.7922 1.4353 43.7707 1.4353C43.6501 1.41617 43.5319 1.40231 43.4137 1.38892H43.351C43.2862 1.37607 43.2247 1.37099 43.1642 1.366L43.1641 1.366C43.1394 1.36395 43.1149 1.36193 43.0903 1.35939L43.1991 1.35167ZM127.151 1.26653C123.155 2.52417 120.192 4.6776 117.974 7.52828C120.193 4.67931 123.157 2.52626 127.151 1.26748L127.151 1.26653ZM63.7315 1.61402C64.2869 1.50968 64.8418 1.42834 65.3948 1.37067C64.8417 1.42863 64.2864 1.5106 63.7301 1.61627C60.5315 2.21964 57.2823 3.59769 54.0065 5.683L54.0065 5.68305L54.0058 5.68348L54.0055 5.68316C57.2837 3.59791 60.5305 2.21739 63.7315 1.61402ZM52.9822 6.35442C53.2602 6.16611 53.5376 5.9825 53.8154 5.80489C53.5376 5.98326 53.2602 6.16653 52.9822 6.35442ZM52.3713 6.7745L52.3715 6.77432C53.2199 7.82109 54.001 8.98834 54.7387 10.2545C54.6678 10.319 54.597 10.3837 54.5263 10.4486C54.5967 10.3837 54.6672 10.3191 54.7377 10.2548C54.002 8.9901 53.2204 7.82194 52.3713 6.7745ZM52.3713 6.7745L52.3708 6.77489L52.3708 6.77481L52.3713 6.7745ZM47.4739 2.65479C48.3556 3.40155 49.1463 4.42344 49.8691 5.64229L49.8721 5.63873L49.8717 5.63819L49.872 5.63789C49.1574 4.43329 48.3793 3.42211 47.5132 2.67519L47.4739 2.65479ZM107.014 56.8554H107.014C106.785 56.9593 106.558 57.0541 106.333 57.1463L106.391 57.122L106.391 57.1219C106.595 57.0369 106.804 56.9498 107.014 56.8554ZM106.319 57.1521L106.324 57.15C106.318 57.1533 106.313 57.1562 106.308 57.1586C106.302 57.1612 106.297 57.1633 106.291 57.1653C106.284 57.1677 106.277 57.1698 106.271 57.1718L106.271 57.1718C106.26 57.1751 106.249 57.1783 106.24 57.1828C106.205 57.1968 106.172 57.2092 106.138 57.2215L106.133 57.2234C106.167 57.2108 106.201 57.1981 106.235 57.1832C106.252 57.1697 106.271 57.1648 106.292 57.1595C106.301 57.1573 106.31 57.1551 106.319 57.1521ZM106.037 57.2605L106.041 57.2588C106.031 57.2647 106.021 57.2694 106.012 57.2734C106.001 57.2781 105.99 57.2818 105.979 57.2854L105.976 57.2865C105.983 57.2837 105.989 57.2803 105.996 57.277C106.009 57.2702 106.023 57.2633 106.037 57.2605ZM105.947 57.2935C105.951 57.2935 105.954 57.2931 105.957 57.2926L105.962 57.2915L105.953 57.2949C105.915 57.3084 105.877 57.3212 105.84 57.3339C105.77 57.3577 105.701 57.3812 105.632 57.4089L105.616 57.4153C105.608 57.4184 105.6 57.4213 105.592 57.4241C105.583 57.4273 105.574 57.4303 105.565 57.4333L105.544 57.4404L105.543 57.4405C105.529 57.4453 105.514 57.4501 105.499 57.4552C105.451 57.4744 105.395 57.492 105.34 57.5074L105.323 57.5138C105.315 57.5167 105.307 57.5196 105.299 57.5224C105.287 57.5266 105.275 57.5307 105.262 57.5349C105.237 57.543 105.212 57.5514 105.186 57.5614C105.163 57.5707 105.141 57.5774 105.118 57.584C105.106 57.5876 105.094 57.5911 105.082 57.5951L105.071 57.5989C105.063 57.6016 105.056 57.6045 105.048 57.6078L104.993 57.6236C105.009 57.6186 105.026 57.6135 105.043 57.6083C105.086 57.5891 105.132 57.5734 105.18 57.5619C105.198 57.5556 105.215 57.5499 105.233 57.5442C105.268 57.5326 105.302 57.5213 105.335 57.5059C105.357 57.4981 105.38 57.4917 105.402 57.4856L105.403 57.4855C105.435 57.4767 105.465 57.4681 105.494 57.4557C105.501 57.4524 105.509 57.4493 105.517 57.4464L105.536 57.4393L105.565 57.4292L105.565 57.4292C105.577 57.425 105.589 57.4209 105.601 57.4165C105.609 57.4136 105.617 57.4106 105.624 57.4074C105.664 57.3931 105.704 57.3796 105.744 57.3662C105.811 57.3432 105.879 57.3203 105.947 57.2935ZM104.769 57.6909C104.789 57.6843 104.809 57.6782 104.829 57.6722C104.811 57.6781 104.792 57.6842 104.773 57.6908L104.769 57.6909ZM104.656 57.7223C104.678 57.7119 104.7 57.7055 104.722 57.7005C104.715 57.7028 104.708 57.7053 104.701 57.7079C104.687 57.713 104.673 57.7182 104.657 57.7219L104.656 57.7223ZM96.8596 56.3659C96.765 56.4255 96.6695 56.4834 96.5732 56.5397C96.3569 56.666 96.1348 56.7865 95.9121 56.8984C96.1345 56.7875 96.3532 56.668 96.5701 56.542C96.6674 56.485 96.7639 56.4263 96.8596 56.3659ZM102.861 58.1306H102.894C102.886 58.131 102.878 58.131 102.87 58.131L102.851 58.134L102.83 58.1371L102.804 58.1406L102.772 58.1448L102.772 58.1448L102.772 58.1448L102.772 58.1448L102.772 58.1448L102.772 58.1448L102.772 58.1449L102.772 58.1449C102.715 58.1522 102.658 58.1597 102.602 58.1717C102.59 58.1717 102.577 58.1764 102.565 58.1812C102.554 58.1852 102.544 58.1892 102.533 58.1904C102.531 58.1907 102.529 58.1908 102.527 58.1908H102.506C102.475 58.1937 102.443 58.1982 102.412 58.2027L102.412 58.2027C102.359 58.2101 102.307 58.2176 102.258 58.2176H102.252C102.299 58.217 102.35 58.2098 102.401 58.2025C102.433 58.1979 102.465 58.1934 102.497 58.1904H102.516C102.528 58.1904 102.541 58.1856 102.554 58.1808C102.562 58.178 102.569 58.1753 102.576 58.1735C102.582 58.1721 102.587 58.1712 102.593 58.1712C102.651 58.1587 102.711 58.1509 102.769 58.1433L102.8 58.1392L102.822 58.1362L102.84 58.1337L102.861 58.1306ZM102.132 58.2176H102.143C102.072 58.2348 102 58.2365 101.932 58.2367C101.997 58.2364 102.065 58.234 102.132 58.2176ZM106.066 57.2486C106.077 57.2443 106.088 57.2402 106.099 57.236L106.11 57.2321C106.095 57.2375 106.081 57.2429 106.066 57.2486ZM101.9 58.2367H101.909C101.872 58.2554 101.834 58.2558 101.794 58.2558C101.829 58.2557 101.865 58.2539 101.9 58.2367ZM82.9738 56.9883L82.9744 56.9886C82.2629 57.237 81.5524 57.4532 80.8429 57.6304C81.5522 57.4527 82.2625 57.2366 82.9738 56.9883ZM62.307 29.9436C66.3242 42.8706 70.3243 55.7423 79.5758 57.9043L79.5757 57.9044C70.3242 55.7423 66.3241 42.8706 62.3069 29.9436C60.0864 22.7985 57.8607 15.6364 54.74 10.2567L54.7401 10.2566C57.8608 15.6364 60.0865 22.7984 62.307 29.9436ZM50.9892 7.79301L50.9887 7.7934C50.9252 7.65479 50.8614 7.51815 50.7972 7.38347C50.8611 7.51807 50.9246 7.65452 50.9877 7.7928L50.9876 7.79282C51.3382 8.55868 51.6742 9.37867 51.9965 10.2458C51.6749 9.37873 51.3397 8.55875 50.9892 7.79301ZM50.4038 5.02923C50.2747 5.16738 50.1481 5.30989 50.0217 5.45872C50.1475 5.30978 50.2745 5.16686 50.4038 5.02923ZM55.7081 9.39829C55.9067 9.22599 56.1052 9.05632 56.3035 8.88963C56.1052 9.05673 55.9067 9.22634 55.7081 9.39829ZM69.4663 1.75982C68.4745 1.98118 67.4835 2.27495 66.4911 2.64459C65.0325 3.18691 63.5716 3.88931 62.1074 4.74343C63.5719 3.88869 65.0333 3.18547 66.4922 2.6419C67.485 2.27401 68.4748 1.97917 69.4663 1.75982ZM70.1999 1.60928L70.1995 1.60919L70.1993 1.60923V1.6094L70.1999 1.60928ZM9.64357 45.983C7.40269 50.3058 4.95185 54.9109 2.2235 59.7789H7.00225C7.63427 54.9444 8.53162 50.3346 9.64357 45.9853V45.983ZM125.144 54.1217H123.808V58.2778H123.263V54.1217H121.921V53.627H125.144V54.1217ZM130.073 58.277H130.616H130.62V53.6262H129.935L128.48 56.8579C128.428 56.9834 128.35 57.1741 128.256 57.43H128.235C128.2 57.3045 128.133 57.1162 128.025 56.8724L126.599 53.6262H125.88V58.277H126.401V55.1613C126.401 54.7413 126.395 54.4386 126.376 54.2512H126.395C126.445 54.4733 126.492 54.6331 126.538 54.7316L128.125 58.277H128.391L129.973 54.705C130.015 54.611 130.062 54.4637 130.118 54.2512C130.092 54.6061 130.073 54.9077 130.073 55.1539V58.277Z" fill="#828282"/>
</svg>
