<svg width="36" height="11" viewBox="0 0 36 11" fill="none" xmlns="http://www.w3.org/2000/svg">
<path fill-rule="evenodd" clip-rule="evenodd" d="M7.72424 5.83222C7.72424 5.70953 7.64617 5.60356 7.51789 5.54779L4.07126 3.98064C4.00991 3.95275 3.94857 3.93602 3.88164 3.93602H3.8426C3.77568 3.93602 3.70875 3.95275 3.65298 3.98064L0.206352 5.54779C0.078079 5.60356 0 5.71511 0 5.83222L0.00557707 10.0596C0.00557707 10.1154 0.0446166 10.1712 0.111541 10.1991C0.172889 10.227 0.250968 10.227 0.317893 10.1991L2.37026 9.27885C2.49853 9.21751 2.57661 9.11154 2.57661 8.99442V7.02014C2.57661 6.90302 2.65469 6.79148 2.78296 6.73571L3.65856 6.33974C3.72548 6.31185 3.79241 6.29512 3.86491 6.29512C3.93741 6.29512 4.00991 6.31185 4.07126 6.33974L4.94686 6.73571C5.07514 6.79148 5.15321 6.90302 5.15321 7.02014V8.99442C5.15321 9.11154 5.23129 9.22308 5.35957 9.27885L7.41193 10.2046C7.47885 10.2325 7.55693 10.2325 7.61828 10.2046C7.67963 10.1768 7.72424 10.121 7.72424 10.0652L7.72982 5.83222H7.72424ZM23.9926 8.03517C23.9926 8.06305 23.9758 8.09094 23.9368 8.10767L22.7545 8.64865C22.7266 8.66538 22.682 8.66538 22.6485 8.64865L21.4662 8.10767C21.4383 8.09094 21.4104 8.06305 21.4104 8.03517V6.95322C21.4104 6.92533 21.4271 6.89744 21.4606 6.88071L22.6429 6.33974C22.6708 6.32301 22.7154 6.32301 22.7489 6.33974L23.9312 6.88071C23.9591 6.89744 23.987 6.92533 23.987 6.95322L23.9926 8.03517ZM24.3105 0.020914C24.2435 -0.00697134 24.171 -0.00697134 24.1041 0.020914C24.0428 0.0487994 23.9981 0.10457 23.9981 0.160341V4.34872C23.9981 4.39334 23.9703 4.4268 23.9256 4.44911C23.881 4.46584 23.8253 4.46584 23.7806 4.44911L22.9218 4.05871C22.7935 4.00294 22.6373 4.00294 22.5091 4.05871L19.0624 5.63145C18.9342 5.68722 18.8561 5.79876 18.8561 5.91588V9.06693C18.8561 9.18404 18.9342 9.29559 19.0624 9.35136L22.5091 10.9241C22.6373 10.9799 22.7935 10.9799 22.9218 10.9241L26.3684 9.35136C26.4967 9.29559 26.5747 9.18404 26.5747 9.06693V1.21998C26.5747 1.09729 26.4967 0.985748 26.3628 0.929977L24.3105 0.020914ZM35.7936 6.92533C35.9219 6.86956 36 6.75802 36 6.6409V5.87684C36 5.75972 35.9219 5.64818 35.7936 5.59241L32.3693 4.01968C32.2411 3.9639 32.0849 3.9639 31.9566 4.01968L28.51 5.59241C28.3817 5.64818 28.3036 5.75972 28.3036 5.87684V9.02789C28.3036 9.15058 28.3817 9.25655 28.51 9.31232L31.9343 10.8572C32.0626 10.9129 32.2132 10.9129 32.3414 10.8572L34.4105 9.94253C34.4775 9.91464 34.5165 9.85887 34.5165 9.79752C34.5165 9.74175 34.4719 9.6804 34.4105 9.65252L30.9472 8.08536C30.8802 8.05748 30.8412 8.0017 30.8412 7.94593V6.95322C30.8412 6.89744 30.8802 6.84167 30.9472 6.80821L32.0291 6.31743C32.096 6.28954 32.1686 6.28954 32.2355 6.31743L33.3174 6.80821C33.3844 6.8361 33.4234 6.89187 33.4234 6.94764V7.72285C33.4234 7.77862 33.468 7.83439 33.5294 7.86786C33.5963 7.89574 33.6744 7.89574 33.7357 7.86786L35.7992 6.91418L35.7936 6.92533Z" fill="#828282"/>
<path fill-rule="evenodd" clip-rule="evenodd" d="M32.107 6.78022C32.1293 6.76906 32.1628 6.76906 32.1851 6.78022L32.8432 7.08696C32.8655 7.09811 32.8878 7.12042 32.8878 7.14273V7.74505C32.8878 7.76736 32.8766 7.78967 32.8432 7.80082L32.1851 8.10756C32.1628 8.11871 32.1293 8.11871 32.107 8.10756L31.4489 7.80082C31.4266 7.78967 31.4043 7.76736 31.4043 7.74505V7.14273C31.4043 7.12042 31.4155 7.09811 31.4489 7.08696L32.107 6.78022Z" fill="#828282"/>
<path fill-rule="evenodd" clip-rule="evenodd" d="M13.0777 4.03632L9.64776 5.60347C9.51949 5.65924 9.44141 5.77079 9.44141 5.8879V9.02222C9.44141 9.13934 9.51949 9.25088 9.64776 9.30665L13.0777 10.8738C13.2059 10.9296 13.3621 10.9296 13.4904 10.8738L16.9203 9.30665C17.0485 9.25088 17.1266 9.13934 17.1266 9.02222V5.8879C17.1266 5.77079 17.0485 5.65924 16.9203 5.60347L13.4904 4.03632C13.4234 4.00843 13.3565 3.9917 13.284 3.9917C13.245 3.9917 13.2115 3.9917 13.178 4.00285C13.1446 4.00843 13.1111 4.01958 13.0777 4.03632Z" fill="#828282"/>
</svg>
