<svg width="180" height="93" viewBox="0 0 180 93" fill="none" xmlns="http://www.w3.org/2000/svg">
<path fill-rule="evenodd" clip-rule="evenodd" d="M89.9996 92.933C40.7198 92.933 0.769012 72.144 0.769012 46.5001C0.769012 20.8565 40.7198 0.0671768 89.9996 0.0671768C139.279 0.0671768 179.231 20.8565 179.231 46.5001C179.231 72.144 139.279 92.933 89.9996 92.933ZM175.745 46.5C175.745 70.2402 137.355 89.4852 89.9999 89.4852V89.4858C42.6449 89.4858 4.25485 70.2402 4.25485 46.4997C4.25485 22.7598 42.6449 3.51448 89.9999 3.51448C137.355 3.51448 175.745 22.7598 175.745 46.5Z" fill="#828282"/>
<path d="M49.249 51.8295C53.1429 51.8295 56.0498 51.1191 57.889 49.7192C59.7086 48.3329 60.9654 45.9318 61.6241 42.5824C62.2383 39.4518 62.0043 37.2658 60.9289 36.0861C59.8293 34.8812 57.4521 34.2702 53.8632 34.2702H47.6408L44.1908 51.8295H49.249ZM28.8962 73.4594C28.7534 73.4594 28.6123 73.4282 28.4832 73.368C28.354 73.3077 28.2399 73.22 28.1491 73.111C28.0583 73.0019 27.9929 72.8744 27.9578 72.7375C27.9227 72.6005 27.9187 72.4576 27.9461 72.319L37.0886 25.7868C37.1314 25.5685 37.2497 25.3718 37.4231 25.2304C37.5965 25.089 37.8143 25.0116 38.039 25.0116H57.7435C63.9362 25.0116 68.5455 26.675 71.4428 29.956C74.3555 33.2543 75.2549 37.8647 74.116 43.659C73.6525 46.0196 72.8554 48.2119 71.7471 50.1751C70.6369 52.1398 69.17 53.9583 67.3863 55.5801C65.251 57.5567 62.8344 58.9902 60.2099 59.8336C57.627 60.666 54.3102 61.0883 50.3509 61.0883H42.3721L40.0936 72.6842C40.0508 72.9024 39.9325 73.0991 39.7592 73.2405C39.5858 73.3819 39.3682 73.4593 39.1435 73.4594H28.8962Z" fill="#828282"/>
<path d="M48.4389 35.2279H53.8635C58.1947 35.2279 59.6996 36.1681 60.2108 36.7284C61.059 37.6588 61.2191 39.6203 60.6739 42.4007C60.0614 45.5135 58.926 47.7206 57.2987 48.9599C55.6328 50.2287 52.9244 50.8717 49.2493 50.8717H45.3652L48.4389 35.2279ZM57.7435 24.0538H38.039C37.5896 24.0538 37.1541 24.2084 36.8073 24.4912C36.4604 24.774 36.2239 25.1674 36.1381 25.6038L26.9962 72.136C26.9418 72.4133 26.95 72.6991 27.0203 72.9729C27.0906 73.2467 27.2213 73.5017 27.4029 73.7197C27.5846 73.9377 27.8127 74.1132 28.071 74.2337C28.3292 74.3542 28.6113 74.4168 28.8968 74.4168H39.1438C39.5932 74.4168 40.0286 74.2622 40.3754 73.9795C40.7222 73.6968 40.9589 73.3035 41.0447 72.8671L43.1709 62.0458H50.3515C54.4122 62.0458 57.8306 61.6078 60.511 60.7442C63.2671 59.8582 65.8035 58.3561 68.0482 56.2796C69.9046 54.5901 71.4337 52.6937 72.5923 50.6424C73.751 48.5906 74.5836 46.3024 75.0671 43.8416C76.2661 37.7424 75.292 32.8584 72.1721 29.3261C69.0832 25.8276 64.2286 24.0538 57.7441 24.0538H57.7435ZM43.0166 52.7872H49.2497C53.3807 52.7872 56.4583 52.0175 58.48 50.4777C60.5026 48.9376 61.8665 46.3672 62.5752 42.7653C63.2529 39.3071 62.9444 36.8667 61.6486 35.4447C60.3512 34.0233 57.7564 33.312 53.8638 33.312H46.843L43.0166 52.7869V52.7872ZM57.7441 25.969C63.6719 25.969 67.9962 27.5079 70.7143 30.5862C73.4318 33.6639 74.2506 37.9605 73.1662 43.4763C72.7198 45.7485 71.9649 47.8259 70.9022 49.708C69.8381 51.5913 68.4487 53.3134 66.7317 54.8749C64.6856 56.7691 62.4125 58.1186 59.9113 58.9228C57.4101 59.7289 54.2243 60.1302 50.3515 60.1302H41.5743L39.1438 72.5016H28.8968L38.039 25.9694H57.7438" fill="white"/>
<path d="M97.6109 61.088C97.3217 61.088 97.0477 60.9603 96.8641 60.7394C96.7731 60.6305 96.7077 60.503 96.6725 60.3661C96.6372 60.2292 96.6331 60.0863 96.6605 59.9476L100.705 39.3588C101.089 37.4008 100.995 35.9954 100.438 35.4016C100.097 35.0386 99.0732 34.4298 96.0463 34.4298H88.7195L83.6347 60.3128C83.5919 60.5311 83.4736 60.7278 83.3002 60.8692C83.1268 61.0107 82.909 61.088 82.6843 61.088H72.518C72.3752 61.0881 72.2341 61.057 72.1049 60.9967C71.9757 60.9365 71.8615 60.8488 71.7707 60.7397C71.6798 60.6307 71.6145 60.5032 71.5794 60.3662C71.5442 60.2292 71.5402 60.0863 71.5676 59.9476L80.7101 13.4154C80.7529 13.1972 80.8712 13.0005 81.0446 12.859C81.218 12.7176 81.4358 12.6403 81.6606 12.6403H91.8268C91.9696 12.6403 92.1106 12.6715 92.2398 12.7318C92.3689 12.792 92.483 12.8798 92.5739 12.9888C92.6647 13.0977 92.73 13.2253 92.7652 13.3622C92.8004 13.4991 92.8045 13.642 92.7773 13.7807L90.571 25.0116H98.4529C104.457 25.0116 108.529 26.0588 110.901 28.2131C113.318 30.4109 114.072 33.925 113.143 38.6593L108.889 60.3128C108.846 60.5311 108.728 60.7278 108.554 60.8692C108.381 61.0107 108.163 61.088 107.939 61.088H97.6109Z" fill="#828282"/>
<path d="M91.827 11.6825H81.6607C81.2113 11.6824 80.7758 11.8371 80.429 12.1199C80.0822 12.4027 79.8456 12.796 79.7598 13.2325L70.6173 59.7647C70.5627 60.042 70.5708 60.3279 70.641 60.6018C70.7113 60.8757 70.8419 61.1309 71.0237 61.3489C71.2054 61.567 71.4336 61.7425 71.692 61.863C71.9504 61.9835 72.2325 62.0459 72.5182 62.0458H82.6845C83.1339 62.0458 83.5694 61.8911 83.9162 61.6083C84.263 61.3256 84.4996 60.9322 84.5854 60.4958L89.5178 35.3875H96.0468C99.0683 35.3875 99.7024 36.0261 99.7279 36.0535C99.9113 36.2483 100.152 37.1518 99.7544 39.1759L95.7105 59.765C95.6559 60.0423 95.6641 60.3282 95.7343 60.602C95.8046 60.8759 95.9353 61.131 96.117 61.349C96.2987 61.567 96.5269 61.7426 96.7853 61.863C97.0437 61.9835 97.3258 62.0459 97.6114 62.0458H107.939C108.389 62.0458 108.824 61.8911 109.171 61.6083C109.518 61.3256 109.754 60.9322 109.84 60.4958L114.093 38.8419C115.091 33.759 114.237 29.9461 111.556 27.5082C108.997 25.1837 104.711 24.0538 98.4531 24.0538H91.7453L93.7279 13.9636C93.7824 13.6862 93.7741 13.4004 93.7038 13.1266C93.6335 12.8527 93.5028 12.5977 93.3211 12.3797C93.1394 12.1617 92.9113 11.9861 92.653 11.8656C92.3947 11.745 92.1126 11.6825 91.827 11.6825ZM91.827 13.598L89.3968 25.9694H98.4531C104.152 25.9694 108.082 26.9533 110.246 28.9187C112.409 30.8853 113.057 34.0716 112.192 38.4767L107.939 60.1302H97.6111L101.655 39.5418C102.116 37.1997 101.946 35.6021 101.147 34.7503C100.348 33.8985 98.6474 33.472 96.0465 33.472H87.9215L82.6848 60.1302H72.5185L81.6611 13.598H91.8273" fill="white"/>
<path d="M129.229 51.8295C133.123 51.8295 136.029 51.1191 137.868 49.7192C139.688 48.3336 140.945 45.9321 141.604 42.5824C142.218 39.4518 141.984 37.2658 140.909 36.0861C139.809 34.8812 137.432 34.2702 133.843 34.2702H127.62L124.17 51.8295H129.229ZM108.876 73.4594C108.733 73.4594 108.592 73.4282 108.463 73.368C108.334 73.3077 108.22 73.22 108.129 73.111C108.038 73.002 107.973 72.8744 107.938 72.7375C107.903 72.6006 107.898 72.4576 107.926 72.319L117.068 25.7868C117.111 25.5685 117.23 25.3718 117.403 25.2304C117.576 25.089 117.794 25.0117 118.019 25.0116H137.723C143.916 25.0116 148.525 26.675 151.423 29.956C154.335 33.254 155.234 37.8644 154.096 43.659C153.632 46.0196 152.835 48.2119 151.726 50.1751C150.616 52.1398 149.15 53.9583 147.366 55.5801C145.231 57.5567 142.814 58.9902 140.19 59.8336C137.607 60.666 134.29 61.0883 130.331 61.0883H122.351L120.074 72.6842C120.031 72.9025 119.912 73.0992 119.739 73.2406C119.565 73.382 119.348 73.4594 119.123 73.4594H108.876Z" fill="#828282"/>
<path d="M128.419 35.2279H133.843C138.174 35.2279 139.679 36.1681 140.19 36.7284C141.039 37.6588 141.199 39.6203 140.653 42.4004C140.041 45.5132 138.905 47.7206 137.278 48.9599C135.612 50.2287 132.904 50.8717 129.229 50.8717H125.345L128.419 35.2279ZM137.723 24.0538H118.019C117.569 24.0539 117.134 24.2085 116.787 24.4913C116.44 24.7741 116.204 25.1674 116.118 25.6038L106.976 72.136C106.921 72.4133 106.93 72.6991 107 72.9729C107.07 73.2467 107.201 73.5017 107.383 73.7197C107.564 73.9377 107.792 74.1132 108.051 74.2337C108.309 74.3542 108.591 74.4168 108.877 74.4168H119.123C119.573 74.4168 120.008 74.2622 120.355 73.9795C120.702 73.6968 120.939 73.3035 121.024 72.8671L123.15 62.0458H130.331C134.392 62.0458 137.81 61.6078 140.49 60.7442C143.247 59.8582 145.784 58.3558 148.028 56.279C149.885 54.5898 151.413 52.6937 152.572 50.6424C153.731 48.5906 154.563 46.3024 155.046 43.8416C156.245 37.7421 155.271 32.858 152.152 29.3257C149.063 25.8276 144.208 24.0538 137.723 24.0538H137.723ZM122.996 52.7872H129.229C133.36 52.7872 136.438 52.0175 138.46 50.4777C140.482 48.9376 141.846 46.3672 142.555 42.7653C143.233 39.3071 142.924 36.8667 141.628 35.4447C140.331 34.0233 137.736 33.312 133.843 33.312H126.822L122.996 52.7869V52.7872ZM137.723 25.969C143.651 25.969 147.976 27.5079 150.694 30.5862C153.412 33.6639 154.23 37.9605 153.146 43.4763C152.699 45.7485 151.944 47.8259 150.882 49.708C149.817 51.5913 148.428 53.3134 146.711 54.8749C144.665 56.7691 142.392 58.1186 139.891 58.9228C137.389 59.7289 134.204 60.1302 130.331 60.1302H121.554L119.123 72.5016H108.877L118.019 25.9694H137.723" fill="white"/>
</svg>
