<svg width="32" height="16" viewBox="0 0 32 16" fill="none" xmlns="http://www.w3.org/2000/svg">
<path fill-rule="evenodd" clip-rule="evenodd" d="M16 16C7.16359 16 0 12.4182 0 8C0 3.58182 7.16359 1.90735e-06 16 1.90735e-06C24.8364 1.90735e-06 32 3.58182 32 8C32 12.4182 24.8364 16 16 16ZM31.376 7.99997C31.376 12.0902 24.4923 15.406 16.001 15.406V15.4061C7.50977 15.4061 0.626042 12.0902 0.626042 7.99992C0.626042 3.90973 7.50977 0.593925 16.001 0.593925C24.4923 0.593925 31.376 3.90973 31.376 7.99997Z" fill="white"/>
<path d="M8.69317 8.91825C9.39137 8.91825 9.91261 8.79586 10.2424 8.55466C10.5687 8.31583 10.794 7.90213 10.9121 7.32506C11.0223 6.78567 10.9803 6.40905 10.7875 6.2058C10.5903 5.99821 10.1641 5.89293 9.52054 5.89293H8.4048L7.78617 8.91825H8.69317ZM5.0437 12.6449C5.01809 12.6449 4.9928 12.6395 4.96964 12.6292C4.94647 12.6188 4.92602 12.6037 4.90973 12.5849C4.89344 12.5661 4.88173 12.5441 4.87544 12.5205C4.86915 12.4969 4.86842 12.4723 4.87333 12.4484L6.51267 4.43131C6.52036 4.39371 6.54157 4.35982 6.57266 4.33545C6.60376 4.31108 6.6428 4.29776 6.6831 4.29776H10.2163C11.3267 4.29776 12.1532 4.58434 12.6727 5.14963C13.195 5.7179 13.3563 6.51224 13.1521 7.51054C13.069 7.91725 12.926 8.29498 12.7273 8.63321C12.5282 8.97172 12.2652 9.28503 11.9454 9.56446C11.5625 9.905 11.1292 10.152 10.6586 10.2973C10.1954 10.4407 9.60069 10.5135 8.89074 10.5135H7.46007L7.0515 12.5113C7.04382 12.5489 7.02262 12.5828 6.99154 12.6072C6.96046 12.6316 6.92142 12.6449 6.88113 12.6449H5.0437Z" fill="white"/>
<path d="M8.54854 6.0579H9.52122C10.2978 6.0579 10.5677 6.21989 10.6594 6.31642C10.8114 6.47671 10.8401 6.81467 10.7424 7.29371C10.6326 7.83002 10.429 8.21028 10.1372 8.42381C9.83847 8.6424 9.35282 8.75318 8.69385 8.75318H7.99738L8.54854 6.0579ZM10.2169 4.13269H6.68373C6.60313 4.13269 6.52505 4.15933 6.46286 4.20806C6.40067 4.25678 6.35825 4.32455 6.34287 4.39974L4.70364 12.4169C4.69387 12.4646 4.69535 12.5139 4.70796 12.561C4.72056 12.6082 4.74399 12.6522 4.77656 12.6897C4.80913 12.7273 4.85004 12.7575 4.89635 12.7783C4.94266 12.799 4.99323 12.8098 5.04443 12.8098H6.88182C6.9624 12.8098 7.04048 12.7832 7.10267 12.7345C7.16485 12.6858 7.20728 12.618 7.22267 12.5428L7.60392 10.6784H8.89148C9.6196 10.6784 10.2326 10.6029 10.7132 10.4541C11.2074 10.3015 11.6622 10.0427 12.0647 9.68493C12.3976 9.39384 12.6717 9.0671 12.8795 8.71369C13.0872 8.36017 13.2366 7.96594 13.3232 7.54196C13.5382 6.49112 13.3636 5.64964 12.8041 5.04106C12.2503 4.4383 11.3798 4.13269 10.2171 4.13269H10.2169ZM7.57626 9.08322H8.69391C9.43465 9.08322 9.9865 8.9506 10.349 8.68531C10.7117 8.41996 10.9562 7.97711 11.0833 7.35653C11.2048 6.76071 11.1495 6.34024 10.9172 6.09525C10.6845 5.85036 10.2193 5.72781 9.52128 5.72781H8.26237L7.57626 9.08317V9.08322ZM10.2171 4.46267C11.28 4.46267 12.0554 4.7278 12.5427 5.25817C13.03 5.78842 13.1768 6.52869 12.9824 7.47903C12.9024 7.87051 12.767 8.22843 12.5764 8.55269C12.3856 8.87717 12.1365 9.17387 11.8286 9.4429C11.4617 9.76925 11.0541 10.0018 10.6057 10.1403C10.1572 10.2792 9.58592 10.3484 8.89148 10.3484H7.31764L6.88182 12.4798H5.04443L6.68373 4.46273H10.217" fill="white"/>
<path d="M17.3645 10.5134C17.3126 10.5134 17.2635 10.4914 17.2305 10.4534C17.2142 10.4346 17.2025 10.4126 17.1962 10.389C17.1899 10.3655 17.1891 10.3408 17.194 10.3169L17.9192 6.76967C17.9882 6.43232 17.9712 6.19019 17.8713 6.08788C17.8102 6.02533 17.6267 5.92044 17.0839 5.92044H15.7701L14.8584 10.3799C14.8507 10.4175 14.8295 10.4514 14.7984 10.4757C14.7673 10.5001 14.7283 10.5134 14.688 10.5134H12.865C12.8394 10.5134 12.8141 10.5081 12.791 10.4977C12.7678 10.4873 12.7473 10.4722 12.731 10.4534C12.7147 10.4346 12.703 10.4127 12.6967 10.3891C12.6904 10.3655 12.6897 10.3408 12.6946 10.3169L14.334 2.29984C14.3416 2.26224 14.3629 2.22835 14.394 2.20398C14.425 2.17961 14.4641 2.16628 14.5044 2.16629H16.3273C16.3529 2.16629 16.3782 2.17167 16.4014 2.18205C16.4245 2.19243 16.445 2.20755 16.4613 2.22633C16.4776 2.24511 16.4893 2.26708 16.4956 2.29067C16.5019 2.31425 16.5026 2.33888 16.4977 2.36277L16.1021 4.29776H17.5154C18.5921 4.29776 19.3222 4.47818 19.7474 4.84936C20.1809 5.22802 20.3161 5.83347 20.1495 6.64915L19.3867 10.3799C19.3791 10.4175 19.3578 10.4514 19.3267 10.4757C19.2957 10.5001 19.2566 10.5134 19.2163 10.5134H17.3645Z" fill="white"/>
<path d="M16.3271 2.00117H14.5042C14.4236 2.00116 14.3455 2.02781 14.2833 2.07653C14.2211 2.12526 14.1787 2.19303 14.1633 2.26822L12.524 10.2853C12.5142 10.3331 12.5156 10.3824 12.5282 10.4296C12.5408 10.4768 12.5643 10.5207 12.5969 10.5583C12.6294 10.5958 12.6704 10.6261 12.7167 10.6469C12.763 10.6676 12.8136 10.6784 12.8648 10.6783H14.6878C14.7683 10.6783 14.8464 10.6517 14.9086 10.603C14.9708 10.5543 15.0132 10.4865 15.0286 10.4113L15.913 6.08535H17.0838C17.6255 6.08535 17.7393 6.19537 17.7438 6.2001C17.7767 6.23365 17.8199 6.38932 17.7486 6.73805L17.0235 10.2854C17.0137 10.3332 17.0151 10.3824 17.0277 10.4296C17.0403 10.4768 17.0638 10.5207 17.0963 10.5583C17.1289 10.5959 17.1699 10.6261 17.2162 10.6469C17.2625 10.6676 17.3131 10.6784 17.3643 10.6783H19.2162C19.2968 10.6783 19.3748 10.6517 19.437 10.603C19.4992 10.5543 19.5416 10.4865 19.557 10.4113L20.3196 6.68052C20.4986 5.80477 20.3455 5.14783 19.8648 4.72781C19.4059 4.32731 18.6374 4.13265 17.5152 4.13265H16.3125L16.668 2.39419C16.6777 2.3464 16.6762 2.29715 16.6636 2.24998C16.651 2.2028 16.6276 2.15885 16.595 2.12129C16.5624 2.08373 16.5215 2.05348 16.4752 2.03272C16.4289 2.01195 16.3783 2.00118 16.3271 2.00117V2.00117ZM16.3271 2.3312L15.8913 4.46268H17.5152C18.5371 4.46268 19.2419 4.63221 19.6298 4.97083C20.0177 5.30966 20.1339 5.85862 19.9788 6.61759L19.2161 10.3483H17.3643L18.0894 6.80109C18.172 6.39757 18.1416 6.12232 17.9983 5.97556C17.855 5.82881 17.5501 5.75532 17.0837 5.75532H15.6268L14.6878 10.3483H12.8649L14.5042 2.3312H16.3272" fill="white"/>
<path d="M23.033 8.91825C23.7312 8.91825 24.2524 8.79586 24.5822 8.55466C24.9085 8.31594 25.1339 7.90218 25.252 7.32506C25.3622 6.78567 25.3202 6.40905 25.1273 6.2058C24.9302 5.99821 24.5039 5.89293 23.8604 5.89293H22.7446L22.1259 8.91825H23.033ZM19.3836 12.6449C19.358 12.6449 19.3327 12.6395 19.3095 12.6292C19.2864 12.6188 19.2659 12.6037 19.2496 12.5849C19.2333 12.5661 19.2216 12.5441 19.2153 12.5205C19.209 12.4969 19.2083 12.4723 19.2132 12.4484L20.8525 4.43131C20.8602 4.39371 20.8814 4.35982 20.9125 4.33546C20.9436 4.31109 20.9827 4.29777 21.023 4.29776H24.5561C25.6666 4.29776 26.4931 4.58434 27.0126 5.14963C27.5349 5.71785 27.6961 6.51219 27.492 7.51054C27.4087 7.91725 27.2659 8.29498 27.0671 8.63321C26.868 8.97172 26.605 9.28503 26.2852 9.56446C25.9023 9.905 25.469 10.152 24.9984 10.2973C24.5353 10.4407 23.9405 10.5135 23.2306 10.5135H21.7998L21.3914 12.5113C21.3837 12.549 21.3625 12.5828 21.3314 12.6072C21.3003 12.6316 21.2612 12.6449 21.2209 12.6449H19.3836Z" fill="white"/>
<path d="M22.8874 6.0579H23.86C24.6367 6.0579 24.9065 6.21989 24.9982 6.31642C25.1504 6.47671 25.179 6.81467 25.0812 7.29366C24.9714 7.82997 24.7677 8.21028 24.476 8.42381C24.1773 8.6424 23.6916 8.75318 23.0327 8.75318H22.3363L22.8874 6.0579ZM24.5558 4.13269H21.0226C20.942 4.1327 20.8639 4.15935 20.8018 4.20807C20.7396 4.2568 20.6972 4.32456 20.6818 4.39974L19.0425 12.4169C19.0327 12.4646 19.0342 12.5139 19.0468 12.561C19.0594 12.6082 19.0829 12.6522 19.1154 12.6897C19.148 12.7273 19.1889 12.7575 19.2352 12.7783C19.2815 12.799 19.3321 12.8098 19.3833 12.8098H21.2207C21.3013 12.8098 21.3793 12.7832 21.4415 12.7345C21.5037 12.6858 21.5461 12.618 21.5615 12.5428L21.9427 10.6784H23.2303C23.9584 10.6784 24.5714 10.6029 25.052 10.4541C25.5463 10.3015 26.0011 10.0426 26.4036 9.68482C26.7365 9.39378 27.0105 9.0671 27.2183 8.71369C27.4261 8.36017 27.5754 7.96594 27.662 7.54196C27.877 6.49107 27.7024 5.64959 27.143 5.041C26.5891 4.4383 25.7186 4.13269 24.5559 4.13269H24.5558ZM21.9151 9.08322H23.0327C23.7735 9.08322 24.3253 8.9506 24.6879 8.68531C25.0505 8.41996 25.295 7.97711 25.4221 7.35653C25.5438 6.76071 25.4884 6.34024 25.256 6.09525C25.0234 5.85036 24.5581 5.72781 23.8601 5.72781H22.6012L21.9151 9.08317V9.08322ZM24.5559 4.46267C25.6188 4.46267 26.3942 4.7278 26.8816 5.25817C27.3689 5.78842 27.5156 6.52869 27.3212 7.47903C27.2412 7.87051 27.1058 8.22843 26.9152 8.55269C26.7244 8.87717 26.4753 9.17387 26.1674 9.4429C25.8005 9.76925 25.393 10.0018 24.9445 10.1403C24.496 10.2792 23.9248 10.3484 23.2303 10.3484H21.6564L21.2207 12.4798H19.3833L21.0226 4.46273H24.5559" fill="white"/>
</svg>
