<svg width="53" height="55" viewBox="0 0 53 55" fill="none" xmlns="http://www.w3.org/2000/svg">
<path d="M25.9278 0.499951C23.7638 0.510138 21.6972 0.697099 19.8789 1.02305C14.5222 1.98172 13.5496 3.98831 13.5496 7.68881V12.576H26.2081V14.2051H13.5496H8.799C5.12009 14.2051 1.89873 16.4452 0.891127 20.7065C-0.271126 25.5909 -0.322679 28.6389 0.891127 33.7391C1.79094 37.5354 3.93981 40.2404 7.61872 40.2404H11.971V34.3817C11.971 30.1492 15.586 26.4157 19.8789 26.4157H32.5226C36.0422 26.4157 38.8519 23.4801 38.8518 19.8994V7.68881C38.8518 4.2136 35.9578 1.60305 32.5226 1.02305C30.3481 0.656354 28.0918 0.489765 25.9278 0.499951ZM19.0822 4.43066C20.3897 4.43066 21.4575 5.53001 21.4575 6.88174C21.4575 8.22869 20.3897 9.31789 19.0822 9.31789C17.77 9.31788 16.7069 8.22869 16.7069 6.88174C16.7069 5.53001 17.77 4.43066 19.0822 4.43066Z" fill="#828282"/>
<path d="M40.4304 14.2052V19.8995C40.4304 24.3142 36.7357 28.0299 32.5225 28.0299H19.8788C16.4154 28.0299 13.5495 31.0327 13.5495 34.5462V46.7568C13.5495 50.232 16.5326 52.2761 19.8788 53.2731C23.8857 54.4667 27.7282 54.6824 32.5225 53.2731C35.7093 52.3384 38.8518 50.4573 38.8518 46.7568V41.8696H26.208V40.2405H38.8518H45.181C48.8599 40.2405 50.2308 37.641 51.5102 33.7392C52.8318 29.7223 52.7756 25.8594 51.5102 20.7066C50.6011 16.9965 48.8646 14.2052 45.181 14.2052H40.4304ZM33.3192 45.1278C34.6314 45.1278 35.6945 46.217 35.6945 47.5639C35.6945 48.9156 34.6314 50.015 33.3192 50.015C32.0117 50.015 30.9439 48.9156 30.9439 47.5639C30.9439 46.217 32.0117 45.1278 33.3192 45.1278Z" fill="#828282"/>
</svg>
