<svg width="28" height="28" viewBox="0 0 28 28" fill="none" xmlns="http://www.w3.org/2000/svg">
<path d="M13.7156 0.000234276C12.5708 0.00566212 11.4776 0.105287 10.5157 0.278975C7.68211 0.78982 7.16763 1.85906 7.16763 3.83093V6.43516H13.8639V7.30324H7.16763H4.65459C2.70848 7.30324 1.00441 8.49688 0.471398 10.7676C-0.143424 13.3704 -0.170694 14.9945 0.471398 17.7122C0.94739 19.7352 2.08412 21.1766 4.03023 21.1766H6.33255V18.0547C6.33255 15.7993 8.24487 13.8099 10.5157 13.8099H17.2042C19.066 13.8099 20.5523 12.2455 20.5523 10.3375V3.83093C20.5523 1.97911 19.0214 0.588036 17.2042 0.278975C16.0539 0.0835761 14.8603 -0.00519357 13.7156 0.000234276ZM10.0943 2.09477C10.786 2.09477 11.3508 2.68058 11.3508 3.40087C11.3508 4.11861 10.786 4.69901 10.0943 4.69901C9.40015 4.69901 8.83778 4.11861 8.83778 3.40087C8.83778 2.68058 9.40015 2.09477 10.0943 2.09477Z" fill="white"/>
<path d="M21.625 6.66101V9.6953C21.625 12.0477 19.6705 14.0277 17.4418 14.0277H10.7534C8.92132 14.0277 7.40527 15.6278 7.40527 17.5V24.0067C7.40527 25.8585 8.9833 26.9477 10.7534 27.479C12.873 28.115 14.9057 28.2299 17.4418 27.479C19.1276 26.9809 20.7899 25.9785 20.7899 24.0067V21.4024H14.1015V20.5343H20.7899H24.138C26.0842 20.5343 26.8094 19.1491 27.4862 17.07C28.1853 14.9295 28.1555 12.8712 27.4862 10.1254C27.0052 8.14839 26.0866 6.66101 24.138 6.66101H21.625ZM17.8633 23.1386C18.5574 23.1386 19.1198 23.719 19.1198 24.4367C19.1198 25.157 18.5574 25.7428 17.8633 25.7428C17.1716 25.7428 16.6067 25.157 16.6067 24.4367C16.6067 23.719 17.1716 23.1386 17.8633 23.1386Z" fill="white"/>
</svg>
