<svg width="70" height="63" viewBox="0 0 70 63" fill="none" xmlns="http://www.w3.org/2000/svg">
<path d="M35.3064 37.7563C38.7935 37.7563 41.6204 34.9294 41.6204 31.4423C41.6204 27.9552 38.7935 25.1284 35.3064 25.1284C31.8193 25.1284 28.9925 27.9552 28.9925 31.4423C28.9925 34.9294 31.8193 37.7563 35.3064 37.7563Z" fill="#828282"/>
<path fill-rule="evenodd" clip-rule="evenodd" d="M35.3067 18.6046C43.784 18.6046 51.6593 19.821 57.5971 21.8652C64.7515 24.3283 69.1502 28.0616 69.1502 31.4422C69.1502 34.965 64.4884 38.9312 56.8056 41.4767C50.9972 43.401 43.3538 44.4056 35.3067 44.4056C27.0562 44.4056 19.2433 43.4627 13.3695 41.4555C5.93807 38.9154 1.46204 34.8979 1.46204 31.4422C1.46204 28.0891 5.66194 24.3845 12.7157 21.9253C18.6757 19.8473 26.7454 18.6046 35.3056 18.6046H35.3067Z" stroke="#828282" stroke-width="1.66272"/>
<path fill-rule="evenodd" clip-rule="evenodd" d="M24.131 25.0605C28.3662 17.7169 33.354 11.5025 38.0913 7.37983C43.799 2.41269 49.2306 0.46742 52.159 2.15607C55.2108 3.91595 56.3176 9.93589 54.6846 17.8627C53.4512 23.8559 50.5018 30.9787 46.4816 37.9498C42.3598 45.097 37.6401 51.394 32.9673 55.4784C27.0545 60.6471 21.338 62.5176 18.3444 60.7912C15.4396 59.1173 14.3288 53.6273 15.7223 46.2882C16.8997 40.0871 19.8545 32.4758 24.1296 25.0603L24.131 25.0605Z" stroke="#828282" stroke-width="1.66272"/>
<path fill-rule="evenodd" clip-rule="evenodd" d="M24.1416 37.9685C19.8945 30.6332 17.0029 23.207 15.7959 17.0439C14.343 9.61824 15.3703 3.94076 18.296 2.2472C21.3448 0.48216 27.113 2.52963 33.1649 7.90329C37.7406 11.966 42.4392 18.0773 46.4711 25.0418C50.6048 32.1822 53.7029 39.4162 54.9081 45.5042C56.4332 53.2084 55.1989 59.0949 52.2081 60.8262C49.3062 62.5062 43.9958 60.7276 38.3334 55.8548C33.5492 51.738 28.4306 45.3767 24.1416 37.9684V37.9685Z" stroke="#828282" stroke-width="1.66272"/>
</svg>
