<svg width="34" height="30" viewBox="0 0 34 30" fill="none" xmlns="http://www.w3.org/2000/svg">
<path d="M16.8243 17.9245C18.4548 17.9245 19.7765 16.6027 19.7765 14.9722C19.7765 13.3418 18.4548 12.02 16.8243 12.02C15.1938 12.02 13.8721 13.3418 13.8721 14.9722C13.8721 16.6027 15.1938 17.9245 16.8243 17.9245Z" fill="white"/>
<path fill-rule="evenodd" clip-rule="evenodd" d="M16.8248 8.96973C20.7885 8.96973 24.4708 9.53849 27.2472 10.4943C30.5923 11.646 32.649 13.3916 32.649 14.9722C32.649 16.6194 30.4693 18.4738 26.8771 19.664C24.1612 20.5638 20.5874 21.0335 16.8248 21.0335C12.9671 21.0335 9.31403 20.5927 6.5676 19.6541C3.09287 18.4665 1 16.588 1 14.9722C1 13.4044 2.96375 11.6723 6.26188 10.5224C9.04863 9.55079 12.8218 8.96973 16.8243 8.96973H16.8248Z" stroke="white"/>
<path fill-rule="evenodd" clip-rule="evenodd" d="M11.5989 11.9883C13.5791 8.55465 15.9113 5.64898 18.1263 3.72136C20.7951 1.39887 23.3348 0.489313 24.704 1.27888C26.1309 2.10175 26.6484 4.9165 25.8849 8.62286C25.3082 11.4251 23.9291 14.7555 22.0494 18.015C20.1221 21.3568 17.9153 24.3011 15.7305 26.2108C12.9658 28.6276 10.293 29.5022 8.89326 28.695C7.53505 27.9123 7.01566 25.3454 7.66722 21.9138C8.21775 19.0143 9.59932 15.4555 11.5983 11.9883L11.5989 11.9883Z" stroke="white"/>
<path fill-rule="evenodd" clip-rule="evenodd" d="M11.6044 18.0237C9.61855 14.5939 8.26652 11.1216 7.70217 8.23993C7.02283 4.76791 7.50315 2.11328 8.87113 1.32142C10.2967 0.496139 12.9937 1.45348 15.8234 3.96605C17.9629 5.86566 20.1598 8.72313 22.045 11.9795C23.9778 15.3182 25.4264 18.7006 25.9899 21.5471C26.703 25.1494 26.1259 27.9018 24.7275 28.7113C23.3706 29.4968 20.8876 28.6652 18.2401 26.3868C16.0031 24.4619 13.6098 21.4875 11.6044 18.0236V18.0237Z" stroke="white"/>
</svg>
