<svg width="191" height="67" viewBox="0 0 191 67" fill="none" xmlns="http://www.w3.org/2000/svg">
<path d="M81.7402 56.0692C81.7402 56.0692 90.1596 55.3492 90.1596 44.5002C90.1596 33.6512 79.9601 32.6431 79.9601 32.6431H61.5818V66.8702H70.8191V58.6135L78.8055 66.8702H92.4689L81.7402 56.0692ZM78.18 49.0606H70.8191V41.2359H78.2281C78.2281 41.2359 80.2969 42.0039 80.2969 45.1242C80.2969 48.2445 78.18 49.0606 78.18 49.0606ZM112.964 32.8831H103.583C96.8951 32.8831 94.6339 38.9317 94.6339 41.8119V66.8702H104.016V60.8697H112.82V66.8702H121.913V41.8119C121.913 34.5152 115.273 32.8831 112.964 32.8831ZM112.82 51.1728H103.967V42.868C103.967 42.868 103.967 40.9958 106.902 40.9958H110.126C112.724 40.9958 112.772 42.868 112.772 42.868V51.1728H112.82ZM126.195 32.8831H135.961V66.8702H126.195V32.8831ZM149.673 58.0854V32.8831H139.954V58.0854V66.8702H149.673H162.807V58.0854H149.673ZM166.03 58.1814V66.8702H181.763C184.986 66.8702 190.519 64.518 190.711 57.9414V54.5811C190.711 48.9646 186.093 45.6523 181.763 45.6523H173.921V41.6199H189.46V32.8831H174.546C170.697 32.8831 165.549 36.0514 165.549 41.9559V44.9802C165.549 50.8848 170.649 53.909 174.546 53.909C185.371 53.9571 171.948 53.909 181.955 53.909V58.1334L166.03 58.1814Z" fill="#828282"/>
<path d="M3.36776 66.8222H41.3753C41.3753 66.8222 34.1106 33.7472 58.166 20.3539C63.4101 17.8097 80.1045 8.30478 107.431 28.4667C108.297 27.7466 109.115 27.1705 109.115 27.1705C109.115 27.1705 84.0977 2.25621 56.2416 5.04047C42.2413 6.28859 25.0176 19.0098 14.9144 35.8113C4.81108 52.6129 3.36776 66.8222 3.36776 66.8222ZM82.5582 7.72872L82.7506 4.51242C82.3176 4.2724 81.1149 3.69635 78.0839 2.83226L77.8914 6.00056C79.4791 6.52861 81.0186 7.10466 82.5582 7.72872ZM77.9877 17.9057L77.7952 20.93C79.3829 20.978 80.9705 21.17 82.5582 21.506L82.7506 18.5297C81.1149 18.1937 79.5272 18.0017 77.9877 17.9057ZM60.1866 2.92827H60.6678L59.7055 0C58.2141 0 56.6746 0.096009 55.0869 0.288027L56.001 3.12029C57.3962 2.97628 58.7914 2.92827 60.1866 2.92827ZM62.496 20.5939L63.6025 23.9062C64.9977 23.2342 66.3929 22.6581 67.7882 22.2261L66.7297 19.0578C65.094 19.5378 63.6987 20.0659 62.496 20.5939ZM40.6537 7.96874L38.4887 4.65643C37.2859 5.28049 36.035 5.95256 34.736 6.72063L36.9491 10.0809C38.2 9.31287 39.4028 8.5928 40.6537 7.96874ZM50.5164 29.5708L52.8257 33.0271C53.6436 31.827 54.6058 30.7229 55.6642 29.6188L53.4992 26.3545C52.3927 27.3626 51.3824 28.4667 50.5164 29.5708ZM43.5403 45.0282L47.4373 48.1005C47.6297 46.2283 47.9665 44.3561 48.4476 42.484L44.9836 39.7477C44.3582 41.5239 43.9252 43.3 43.5403 45.0282ZM22.4678 22.2261L19.0519 19.2498C17.801 20.4499 16.5982 21.65 15.4917 22.8501L19.1962 26.0184C20.2065 24.7223 21.3131 23.4262 22.4678 22.2261ZM7.93829 43.6841L2.40554 41.6679C1.49144 43.7321 0.481108 46.1323 0 47.4284L5.53275 49.4446C6.15819 47.8125 7.16851 45.4602 7.93829 43.6841ZM42.8186 57.2213C42.9149 59.7656 43.1554 61.8298 43.396 63.2699L49.1693 65.3341C48.7363 63.4619 48.3033 61.3497 48.0146 59.0935L42.8186 57.2213Z" fill="#828282"/>
</svg>
