<svg width="30" height="11" viewBox="0 0 30 11" fill="none" xmlns="http://www.w3.org/2000/svg">
<path d="M12.8585 8.81994C12.8585 8.81994 14.1829 8.70667 14.1829 7.00007C14.1829 5.29347 12.5785 5.13489 12.5785 5.13489H9.6875V10.519H11.1406V9.22016L12.3969 10.519H14.5462L12.8585 8.81994ZM12.2985 7.71744H11.1406V6.48658H12.3061C12.3061 6.48658 12.6315 6.6074 12.6315 7.09823C12.6315 7.58907 12.2985 7.71744 12.2985 7.71744ZM17.7702 5.17264H16.2944C15.2425 5.17264 14.8868 6.12411 14.8868 6.57719V10.519H16.3625V9.57507H17.7475V10.519H19.1779V6.57719C19.1779 5.42939 18.1335 5.17264 17.7702 5.17264ZM17.7475 8.0497H16.355V6.74332C16.355 6.74332 16.355 6.44882 16.8166 6.44882H17.3237C17.7324 6.44882 17.7399 6.74332 17.7399 6.74332V8.0497H17.7475ZM19.8514 5.17264H21.3877V10.519H19.8514V5.17264ZM23.5446 9.1371V5.17264H22.0159V9.1371V10.519H23.5446H25.6107V9.1371H23.5446ZM26.1178 9.1522V10.519H28.5925C29.0996 10.519 29.9699 10.149 30.0002 9.11444V8.58585C30.0002 7.70234 29.2737 7.1813 28.5925 7.1813H27.3589V6.54699H29.8034V5.17264H27.4573C26.8519 5.17264 26.0421 5.67103 26.0421 6.59985V7.07558C26.0421 8.00439 26.8443 8.48013 27.4573 8.48013C29.1601 8.48768 27.0486 8.48013 28.6228 8.48013V9.14465L26.1178 9.1522Z" fill="white"/>
<path d="M0.529765 10.5115H6.50854C6.50854 10.5115 5.36576 5.30859 9.14979 3.20177C9.97471 2.80155 12.6008 1.30638 16.8995 4.47794C17.0357 4.36467 17.1644 4.27406 17.1644 4.27406C17.1644 4.27406 13.229 0.354913 8.84707 0.79289C6.64476 0.989225 3.9354 2.99033 2.3461 5.6333C0.756807 8.27627 0.529765 10.5115 0.529765 10.5115ZM12.9868 1.21577L13.0171 0.709826C12.949 0.672069 12.7598 0.581453 12.283 0.445529L12.2527 0.943917C12.5024 1.02698 12.7446 1.1176 12.9868 1.21577ZM12.2678 2.81665L12.2376 3.29238C12.4873 3.29993 12.7371 3.33014 12.9868 3.383L13.0171 2.91482C12.7598 2.86196 12.51 2.83175 12.2678 2.81665ZM9.46765 0.460632H9.54333L9.39197 0C9.15736 0 8.91518 0.0151027 8.66544 0.045308L8.80923 0.490837C9.02871 0.468183 9.24818 0.460632 9.46765 0.460632ZM9.83092 3.23952L10.005 3.76057C10.2245 3.65485 10.4439 3.56423 10.6634 3.49627L10.4969 2.99788C10.2396 3.07339 10.0201 3.15646 9.83092 3.23952ZM6.39502 1.25352L6.05445 0.73248C5.86525 0.830647 5.66848 0.936366 5.46415 1.05719L5.81228 1.58578C6.00905 1.46496 6.19825 1.35169 6.39502 1.25352ZM7.94647 4.65162L8.30974 5.19532C8.4384 5.00654 8.58976 4.83286 8.75626 4.65918L8.41569 4.14568C8.24163 4.30426 8.0827 4.47794 7.94647 4.65162ZM6.8491 7.08315L7.46212 7.56644C7.49239 7.27194 7.54536 6.97744 7.62104 6.68293L7.07614 6.25251C6.97776 6.53191 6.90965 6.81131 6.8491 7.08315ZM3.53429 3.49627L2.99696 3.02809C2.80019 3.21687 2.61098 3.40565 2.43692 3.59444L3.01966 4.09283C3.17859 3.88894 3.35265 3.68505 3.53429 3.49627ZM1.24873 6.87172L0.378403 6.55456C0.23461 6.87927 0.0756807 7.25684 0 7.46072L0.870328 7.77788C0.968713 7.52113 1.12764 7.15112 1.24873 6.87172ZM6.73558 9.0012C6.75072 9.40142 6.78856 9.72612 6.8264 9.95266L7.73457 10.2774C7.66645 9.98287 7.59834 9.65061 7.55293 9.2957L6.73558 9.0012Z" fill="white"/>
</svg>
