<svg width="446" height="313" viewBox="0 0 446 313" fill="none" xmlns="http://www.w3.org/2000/svg">
<g clip-path="url(#clip0_5649_7290)">
<path d="M185.56 34.04C199.94 19.06 219.96 9.77 242.1 9.77C271.54 9.77 297.22 26.18 310.89 50.55C322.78 45.24 335.93 42.29 349.77 42.29C402.86 42.29 445.91 85.71 445.91 139.26C445.91 192.81 402.87 236.24 349.77 236.24C343.29 236.24 336.96 235.58 330.83 234.35C318.79 255.83 295.84 270.34 269.49 270.34C258.47 270.34 248.04 267.8 238.75 263.26C226.55 291.98 198.1 312.12 164.95 312.12C131.8 312.12 101 290.28 89.71 259.64C84.78 260.68 79.66 261.23 74.41 261.23C33.32 261.23 0 227.56 0 186.03C0 158.19 14.96 133.89 37.21 120.89C32.63 110.35 30.09 98.72 30.09 86.49C30.09 38.73 68.87 0 116.69 0C144.77 0 169.73 13.35 185.56 34.04Z" fill="#139CD8"/>
<path d="M64.5798 161.85C64.2998 162.58 64.6798 162.73 64.7698 162.86C65.6098 163.47 66.4498 163.91 67.3098 164.4C71.8598 166.81 76.1598 167.51 80.6498 167.51C89.7998 167.51 95.4798 162.65 95.4798 154.82V154.67C95.4798 147.43 89.0598 144.79 83.0498 142.89L82.2598 142.64C77.7198 141.17 73.8098 139.89 73.8098 136.91V136.76C73.8098 134.2 76.0998 132.32 79.6398 132.32C83.5798 132.32 88.2498 133.63 91.2598 135.3C91.2598 135.3 92.1498 135.87 92.4698 135.01C92.6498 134.54 94.1698 130.45 94.3298 130C94.4998 129.52 94.1998 129.16 93.8798 128.97C90.4398 126.88 85.6898 125.45 80.7698 125.45H79.8598C71.4798 125.45 65.6398 130.52 65.6398 137.76V137.91C65.6398 145.54 72.0898 148.03 78.1298 149.75L79.0998 150.05C83.4998 151.4 87.2998 152.57 87.2998 155.66V155.82C87.2998 158.65 84.8298 160.76 80.8598 160.76C79.3098 160.76 74.3898 160.73 69.0798 157.37C68.4398 156.99 68.0698 156.72 67.5698 156.42C67.3098 156.26 66.6498 155.97 66.3598 156.83L64.5598 161.84L64.5798 161.85Z" fill="white"/>
<path d="M198.49 161.85C198.21 162.58 198.59 162.73 198.68 162.86C199.52 163.47 200.36 163.91 201.22 164.4C205.77 166.81 210.07 167.51 214.56 167.51C223.71 167.51 229.39 162.65 229.39 154.82V154.67C229.39 147.43 222.97 144.79 216.96 142.89L216.17 142.64C211.63 141.17 207.72 139.89 207.72 136.91V136.76C207.72 134.2 210.01 132.32 213.55 132.32C217.49 132.32 222.16 133.63 225.17 135.3C225.17 135.3 226.06 135.87 226.38 135.01C226.56 134.54 228.08 130.45 228.24 130C228.41 129.52 228.11 129.16 227.79 128.97C224.35 126.88 219.6 125.45 214.68 125.45H213.77C205.39 125.45 199.55 130.52 199.55 137.76V137.91C199.55 145.54 206.01 148.03 212.04 149.75L213.01 150.05C217.41 151.4 221.22 152.57 221.22 155.66V155.82C221.22 158.65 218.75 160.76 214.77 160.76C213.22 160.76 208.31 160.73 202.99 157.37C202.35 156.99 201.97 156.73 201.48 156.42C201.32 156.32 200.54 156.01 200.28 156.83L198.47 161.84L198.49 161.85Z" fill="white"/>
<path d="M297.539 138.31C296.789 135.77 295.619 133.54 294.069 131.68C292.519 129.81 290.539 128.31 288.199 127.22C285.869 126.13 283.109 125.58 280.019 125.58C276.929 125.58 274.159 126.14 271.829 127.22C269.499 128.3 267.519 129.81 265.969 131.68C264.409 133.54 263.239 135.78 262.499 138.31C261.749 140.83 261.369 143.59 261.369 146.51C261.369 149.43 261.749 152.2 262.499 154.72C263.249 157.25 264.409 159.48 265.969 161.35C267.519 163.22 269.499 164.71 271.839 165.77C274.179 166.83 276.929 167.37 280.029 167.37C283.129 167.37 285.869 166.83 288.209 165.77C290.539 164.71 292.519 163.21 294.079 161.35C295.629 159.49 296.809 157.25 297.549 154.72C298.299 152.2 298.679 149.44 298.679 146.51C298.679 143.58 298.299 140.83 297.549 138.31M289.919 146.51C289.919 150.93 289.089 154.43 287.469 156.89C285.859 159.33 283.429 160.52 280.039 160.52C276.649 160.52 274.229 159.33 272.639 156.89C271.029 154.43 270.219 150.93 270.219 146.51C270.219 142.09 271.029 138.61 272.629 136.17C274.219 133.76 276.639 132.58 280.039 132.58C283.439 132.58 285.859 133.75 287.469 136.17C289.099 138.61 289.919 142.09 289.919 146.51Z" fill="white"/>
<path fill-rule="evenodd" clip-rule="evenodd" d="M360.24 159.34C359.99 158.6 359.26 158.88 359.26 158.88C358.15 159.31 356.97 159.69 355.71 159.89C354.44 160.09 353.04 160.19 351.53 160.19C347.84 160.19 344.9 159.09 342.79 156.92C340.69 154.74 339.5 151.23 339.51 146.48C339.52 142.16 340.57 138.91 342.44 136.43C344.3 133.97 347.14 132.7 350.91 132.7C354.06 132.7 356.46 133.07 358.98 133.85C358.98 133.85 359.58 134.11 359.86 133.33C360.54 131.47 361.03 130.15 361.74 128.11C361.94 127.53 361.45 127.28 361.26 127.21C360.27 126.82 357.94 126.19 356.17 125.92C354.53 125.67 352.59 125.54 350.44 125.54C347.24 125.54 344.38 126.09 341.93 127.18C339.49 128.26 337.42 129.76 335.78 131.63C334.14 133.5 332.9 135.73 332.07 138.26C331.24 140.78 330.82 143.55 330.82 146.48C330.82 152.81 332.52 157.93 335.9 161.67C339.28 165.44 344.35 167.35 350.97 167.35C354.88 167.35 358.89 166.56 361.78 165.42C361.78 165.42 362.33 165.15 362.09 164.51L360.22 159.33L360.24 159.34Z" fill="white"/>
<path fill-rule="evenodd" clip-rule="evenodd" d="M399.3 136.87C398.65 134.42 397.05 131.95 396 130.82C394.34 129.02 392.7 127.77 391.09 127.08C388.99 126.18 386.46 125.58 383.68 125.58C380.46 125.58 377.53 126.12 375.15 127.24C372.77 128.35 370.77 129.88 369.2 131.78C367.63 133.67 366.45 135.93 365.7 138.49C364.95 141.03 364.57 143.8 364.57 146.73C364.57 149.66 364.96 152.49 365.74 154.98C366.53 157.5 367.78 159.71 369.48 161.55C371.18 163.4 373.37 164.84 375.98 165.86C378.58 166.86 381.74 167.39 385.36 167.37C392.82 167.35 396.76 165.69 398.38 164.79C398.67 164.63 398.94 164.35 398.6 163.55L396.9 158.82C396.64 158.12 395.93 158.37 395.93 158.37C394.08 159.06 391.45 160.29 385.32 160.28C381.31 160.28 378.34 159.09 376.48 157.24C374.57 155.35 373.63 152.57 373.47 148.65L399.31 148.67C399.31 148.67 399.99 148.67 400.06 147.99C400.09 147.71 400.94 142.68 399.29 136.86M373.59 142.26C373.96 139.8 374.63 137.76 375.68 136.17C377.26 133.75 379.67 132.41 383.07 132.41C386.47 132.41 388.7 133.75 390.31 136.17C391.38 137.77 391.84 139.89 392.03 142.27H373.59V142.26Z" fill="white"/>
<path fill-rule="evenodd" clip-rule="evenodd" d="M192.31 136.87C191.66 134.42 190.06 131.95 189.01 130.82C187.35 129.02 185.72 127.77 184.1 127.08C181.99 126.18 179.47 125.58 176.7 125.58C173.47 125.58 170.54 126.12 168.16 127.24C165.78 128.35 163.78 129.88 162.21 131.78C160.64 133.67 159.46 135.93 158.71 138.49C157.96 141.03 157.58 143.8 157.58 146.73C157.58 149.66 157.97 152.49 158.75 154.98C159.54 157.5 160.79 159.71 162.49 161.55C164.19 163.4 166.38 164.84 168.99 165.86C171.59 166.86 174.75 167.39 178.37 167.37C185.83 167.35 189.77 165.69 191.39 164.79C191.68 164.63 191.95 164.35 191.61 163.55L189.91 158.82C189.65 158.12 188.94 158.37 188.94 158.37C187.09 159.06 184.46 160.29 178.33 160.28C174.33 160.28 171.35 159.09 169.49 157.24C167.58 155.35 166.64 152.57 166.48 148.65L192.32 148.67C192.32 148.67 193 148.67 193.07 147.99C193.1 147.71 193.95 142.68 192.3 136.86M166.6 142.26C166.97 139.8 167.64 137.76 168.68 136.17C170.27 133.75 172.68 132.41 176.07 132.41C179.46 132.41 181.71 133.75 183.32 136.17C184.38 137.77 184.85 139.89 185.03 142.27H166.59L166.6 142.26Z" fill="white"/>
<path d="M121.02 141.04C119.97 140.96 118.61 140.92 116.99 140.92C114.77 140.92 112.63 141.2 110.62 141.74C108.6 142.28 106.79 143.12 105.23 144.24C103.66 145.37 102.4 146.8 101.48 148.51C100.56 150.22 100.1 152.22 100.1 154.46C100.1 156.7 100.49 158.74 101.29 160.36C102.08 161.99 103.21 163.36 104.66 164.4C106.1 165.45 107.87 166.22 109.92 166.68C111.95 167.15 114.25 167.38 116.77 167.38C119.42 167.38 122.06 167.16 124.62 166.72C127.16 166.29 130.26 165.66 131.13 165.46C131.99 165.26 132.94 165 132.94 165C133.58 164.84 133.53 164.15 133.53 164.15V140.52C133.52 135.33 132.13 131.49 129.41 129.1C126.7 126.73 122.7 125.53 117.53 125.53C115.59 125.53 112.48 125.79 110.6 126.17C110.6 126.17 104.96 127.26 102.64 129.09C102.64 129.09 102.13 129.4 102.4 130.12L104.23 135.04C104.46 135.68 105.08 135.46 105.08 135.46C105.08 135.46 105.28 135.38 105.51 135.24C110.48 132.54 116.77 132.62 116.77 132.62C119.56 132.62 121.71 133.19 123.16 134.29C124.57 135.38 125.28 137 125.28 140.45V141.54C123.06 141.22 121.02 141.04 121.02 141.04ZM110.74 159.2C109.72 158.39 109.59 158.19 109.25 157.67C108.73 156.88 108.47 155.75 108.47 154.31C108.47 152.04 109.22 150.4 110.78 149.31C110.77 149.31 113.01 147.37 118.28 147.44C121.98 147.49 125.3 148.04 125.3 148.04V159.79C125.3 159.79 122.02 160.49 118.32 160.71C113.06 161.03 110.72 159.2 110.74 159.2Z" fill="white"/>
<path fill-rule="evenodd" clip-rule="evenodd" d="M329.489 127.72C329.689 127.14 329.269 126.86 329.099 126.79C328.659 126.63 326.459 126.16 324.769 126.05C321.519 125.85 319.719 126.4 318.099 127.12C316.489 127.84 314.719 129.01 313.739 130.34V127.19C313.739 126.76 313.429 126.41 312.989 126.41H306.359C305.929 126.41 305.619 126.76 305.619 127.19V165.75C305.619 166.18 305.969 166.53 306.409 166.53H313.199C313.629 166.53 313.979 166.18 313.979 165.75V146.49C313.979 143.9 314.269 141.33 314.839 139.71C315.399 138.1 316.159 136.83 317.099 135.91C318.039 134.99 319.119 134.35 320.299 133.99C321.499 133.62 322.829 133.5 323.759 133.5C325.119 133.5 326.599 133.85 326.599 133.85C327.099 133.9 327.379 133.59 327.549 133.15C327.989 131.97 329.249 128.43 329.489 127.72Z" fill="white"/>
<path fill-rule="evenodd" clip-rule="evenodd" d="M265.751 109.85C264.921 109.59 264.181 109.42 263.191 109.25C262.191 109.07 261.011 108.97 259.681 108.97C255.011 108.97 251.321 110.29 248.741 112.9C246.171 115.49 244.421 119.43 243.541 124.62L243.231 126.37H237.361C237.361 126.37 236.641 126.34 236.491 127.12L235.531 132.49C235.461 133 235.681 133.32 236.371 133.32H242.081L236.281 165.67C235.831 168.27 235.311 170.41 234.731 172.04C234.171 173.65 233.611 174.84 232.931 175.72C232.271 176.56 231.651 177.19 230.561 177.55C229.671 177.84 228.641 177.98 227.521 177.98C226.901 177.98 226.071 177.88 225.451 177.75C224.831 177.63 224.511 177.49 224.051 177.3C224.051 177.3 223.381 177.04 223.111 177.71C222.901 178.26 221.381 182.45 221.201 182.97C221.021 183.48 221.271 183.88 221.601 184C222.361 184.27 222.921 184.45 223.961 184.69C225.401 185.03 226.611 185.05 227.751 185.05C230.131 185.05 232.301 184.72 234.091 184.07C235.901 183.41 237.471 182.27 238.871 180.74C240.371 179.08 241.321 177.33 242.231 174.95C243.131 172.6 243.891 169.67 244.501 166.27L250.321 133.32H258.831C258.831 133.32 259.551 133.35 259.701 132.57L260.661 127.2C260.731 126.69 260.511 126.37 259.821 126.37H251.561C251.601 126.19 251.971 123.28 252.921 120.54C253.331 119.37 254.091 118.43 254.741 117.78C255.371 117.14 256.101 116.69 256.901 116.43C257.721 116.17 258.651 116.04 259.671 116.04C260.451 116.04 261.211 116.13 261.791 116.25C262.591 116.42 262.901 116.51 263.111 116.57C263.951 116.83 264.061 116.58 264.231 116.18L266.201 110.75C266.401 110.17 265.911 109.92 265.731 109.85" fill="white"/>
<path fill-rule="evenodd" clip-rule="evenodd" d="M150.279 165.75C150.279 166.18 149.969 166.54 149.539 166.54H142.679C142.249 166.54 141.939 166.19 141.939 165.75V110.59C141.939 110.16 142.249 109.81 142.679 109.81H149.539C149.969 109.81 150.279 110.16 150.279 110.59V165.75Z" fill="white"/>
</g>
<defs>
<clipPath id="clip0_5649_7290">
<rect width="445.92" height="312.12" fill="white"/>
</clipPath>
</defs>
</svg>
