<svg width="446" height="314" viewBox="0 0 446 314" fill="none" xmlns="http://www.w3.org/2000/svg">
<g clip-path="url(#clip0_1704_7305)">
<mask id="mask0_1704_7305" style="mask-type:luminance" maskUnits="userSpaceOnUse" x="0" y="0" width="446" height="313">
<path d="M445.92 0.5H0V312.62H445.92V0.5Z" fill="white"/>
</mask>
<g mask="url(#mask0_1704_7305)">
<path d="M185.56 34.54C199.94 19.56 219.96 10.27 242.1 10.27C271.54 10.27 297.22 26.68 310.89 51.05C322.78 45.74 335.93 42.79 349.77 42.79C402.86 42.79 445.91 86.21 445.91 139.76C445.91 193.31 402.87 236.74 349.77 236.74C343.29 236.74 336.96 236.08 330.83 234.85C318.79 256.33 295.84 270.84 269.49 270.84C258.47 270.84 248.04 268.3 238.75 263.76C226.55 292.48 198.1 312.62 164.95 312.62C131.8 312.62 101 290.78 89.71 260.14C84.78 261.18 79.66 261.73 74.41 261.73C33.32 261.73 0 228.06 0 186.53C0 158.69 14.96 134.39 37.21 121.39C32.63 110.85 30.09 99.22 30.09 86.99C30.09 39.23 68.87 0.5 116.69 0.5C144.77 0.5 169.73 13.85 185.56 34.54Z" fill="#A3A3A3"/>
<path d="M64.5798 162.35C64.2998 163.08 64.6798 163.23 64.7698 163.36C65.6098 163.97 66.4498 164.41 67.3098 164.9C71.8598 167.31 76.1598 168.01 80.6498 168.01C89.7998 168.01 95.4798 163.15 95.4798 155.32V155.17C95.4798 147.93 89.0598 145.29 83.0498 143.39L82.2598 143.14C77.7198 141.67 73.8098 140.39 73.8098 137.41V137.26C73.8098 134.7 76.0998 132.82 79.6398 132.82C83.5798 132.82 88.2498 134.13 91.2598 135.8C91.2598 135.8 92.1498 136.37 92.4698 135.51C92.6498 135.04 94.1698 130.95 94.3298 130.5C94.4998 130.02 94.1998 129.66 93.8798 129.47C90.4398 127.38 85.6898 125.95 80.7698 125.95H79.8598C71.4798 125.95 65.6398 131.02 65.6398 138.26V138.41C65.6398 146.04 72.0898 148.53 78.1298 150.25L79.0998 150.55C83.4998 151.9 87.2998 153.07 87.2998 156.16V156.32C87.2998 159.15 84.8298 161.26 80.8598 161.26C79.3098 161.26 74.3898 161.23 69.0798 157.87C68.4398 157.49 68.0698 157.22 67.5698 156.92C67.3098 156.76 66.6498 156.47 66.3598 157.33L64.5598 162.34L64.5798 162.35Z" fill="white"/>
<path d="M198.49 162.35C198.21 163.08 198.59 163.23 198.68 163.36C199.52 163.97 200.36 164.41 201.22 164.9C205.77 167.31 210.07 168.01 214.56 168.01C223.71 168.01 229.39 163.15 229.39 155.32V155.17C229.39 147.93 222.97 145.29 216.96 143.39L216.17 143.14C211.63 141.67 207.72 140.39 207.72 137.41V137.26C207.72 134.7 210.01 132.82 213.55 132.82C217.49 132.82 222.16 134.13 225.17 135.8C225.17 135.8 226.06 136.37 226.38 135.51C226.56 135.04 228.08 130.95 228.24 130.5C228.41 130.02 228.11 129.66 227.79 129.47C224.35 127.38 219.6 125.95 214.68 125.95H213.77C205.39 125.95 199.55 131.02 199.55 138.26V138.41C199.55 146.04 206.01 148.53 212.04 150.25L213.01 150.55C217.41 151.9 221.22 153.07 221.22 156.16V156.32C221.22 159.15 218.75 161.26 214.77 161.26C213.22 161.26 208.31 161.23 202.99 157.87C202.35 157.49 201.97 157.23 201.48 156.92C201.32 156.82 200.54 156.51 200.28 157.33L198.47 162.34L198.49 162.35Z" fill="white"/>
<path d="M297.539 138.81C296.789 136.27 295.619 134.04 294.069 132.18C292.519 130.31 290.539 128.81 288.199 127.72C285.869 126.63 283.109 126.08 280.019 126.08C276.929 126.08 274.159 126.64 271.829 127.72C269.499 128.8 267.519 130.31 265.969 132.18C264.409 134.04 263.239 136.28 262.499 138.81C261.749 141.33 261.369 144.09 261.369 147.01C261.369 149.93 261.749 152.7 262.499 155.22C263.249 157.75 264.409 159.98 265.969 161.85C267.519 163.72 269.499 165.21 271.839 166.27C274.179 167.33 276.929 167.87 280.029 167.87C283.129 167.87 285.869 167.33 288.209 166.27C290.539 165.21 292.519 163.71 294.079 161.85C295.629 159.99 296.809 157.75 297.549 155.22C298.299 152.7 298.679 149.94 298.679 147.01C298.679 144.08 298.299 141.33 297.549 138.81M289.919 147.01C289.919 151.43 289.089 154.93 287.469 157.39C285.859 159.83 283.429 161.02 280.039 161.02C276.649 161.02 274.229 159.83 272.639 157.39C271.029 154.93 270.219 151.43 270.219 147.01C270.219 142.59 271.029 139.11 272.629 136.67C274.219 134.26 276.639 133.08 280.039 133.08C283.439 133.08 285.859 134.25 287.469 136.67C289.099 139.11 289.919 142.59 289.919 147.01Z" fill="white"/>
<path fill-rule="evenodd" clip-rule="evenodd" d="M360.24 159.84C359.99 159.1 359.26 159.38 359.26 159.38C358.15 159.81 356.97 160.19 355.71 160.39C354.44 160.59 353.04 160.69 351.53 160.69C347.84 160.69 344.9 159.59 342.79 157.42C340.69 155.24 339.5 151.73 339.51 146.98C339.52 142.66 340.57 139.41 342.44 136.93C344.3 134.47 347.14 133.2 350.91 133.2C354.06 133.2 356.46 133.57 358.98 134.35C358.98 134.35 359.58 134.61 359.86 133.83C360.54 131.97 361.03 130.65 361.74 128.61C361.94 128.03 361.45 127.78 361.26 127.71C360.27 127.32 357.94 126.69 356.17 126.42C354.53 126.17 352.59 126.04 350.44 126.04C347.24 126.04 344.38 126.59 341.93 127.68C339.49 128.76 337.42 130.26 335.78 132.13C334.14 134 332.9 136.23 332.07 138.76C331.24 141.28 330.82 144.05 330.82 146.98C330.82 153.31 332.52 158.43 335.9 162.17C339.28 165.94 344.35 167.85 350.97 167.85C354.88 167.85 358.89 167.06 361.78 165.92C361.78 165.92 362.33 165.65 362.09 165.01L360.22 159.83L360.24 159.84Z" fill="white"/>
<path fill-rule="evenodd" clip-rule="evenodd" d="M399.3 137.37C398.65 134.92 397.05 132.45 396 131.32C394.34 129.52 392.7 128.27 391.09 127.58C388.99 126.68 386.46 126.08 383.68 126.08C380.46 126.08 377.53 126.62 375.15 127.74C372.77 128.85 370.77 130.38 369.2 132.28C367.63 134.17 366.45 136.43 365.7 138.99C364.95 141.53 364.57 144.3 364.57 147.23C364.57 150.16 364.96 152.99 365.74 155.48C366.53 158 367.78 160.21 369.48 162.05C371.18 163.9 373.37 165.34 375.98 166.36C378.58 167.36 381.74 167.89 385.36 167.87C392.82 167.85 396.76 166.19 398.38 165.29C398.67 165.13 398.94 164.85 398.6 164.05L396.9 159.32C396.64 158.62 395.93 158.87 395.93 158.87C394.08 159.56 391.45 160.79 385.32 160.78C381.31 160.78 378.34 159.59 376.48 157.74C374.57 155.85 373.63 153.07 373.47 149.15L399.31 149.17C399.31 149.17 399.99 149.17 400.06 148.49C400.09 148.21 400.94 143.18 399.29 137.36M373.59 142.76C373.96 140.3 374.63 138.26 375.68 136.67C377.26 134.25 379.67 132.91 383.07 132.91C386.47 132.91 388.7 134.25 390.31 136.67C391.38 138.27 391.84 140.39 392.03 142.77H373.59V142.76Z" fill="white"/>
<path fill-rule="evenodd" clip-rule="evenodd" d="M192.31 137.37C191.66 134.92 190.06 132.45 189.01 131.32C187.35 129.52 185.72 128.27 184.1 127.58C181.99 126.68 179.47 126.08 176.7 126.08C173.47 126.08 170.54 126.62 168.16 127.74C165.78 128.85 163.78 130.38 162.21 132.28C160.64 134.17 159.46 136.43 158.71 138.99C157.96 141.53 157.58 144.3 157.58 147.23C157.58 150.16 157.97 152.99 158.75 155.48C159.54 158 160.79 160.21 162.49 162.05C164.19 163.9 166.38 165.34 168.99 166.36C171.59 167.36 174.75 167.89 178.37 167.87C185.83 167.85 189.77 166.19 191.39 165.29C191.68 165.13 191.95 164.85 191.61 164.05L189.91 159.32C189.65 158.62 188.94 158.87 188.94 158.87C187.09 159.56 184.46 160.79 178.33 160.78C174.33 160.78 171.35 159.59 169.49 157.74C167.58 155.85 166.64 153.07 166.48 149.15L192.32 149.17C192.32 149.17 193 149.17 193.07 148.49C193.1 148.21 193.95 143.18 192.3 137.36M166.6 142.76C166.97 140.3 167.64 138.26 168.68 136.67C170.27 134.25 172.68 132.91 176.07 132.91C179.46 132.91 181.71 134.25 183.32 136.67C184.38 138.27 184.85 140.39 185.03 142.77H166.59L166.6 142.76Z" fill="white"/>
<path d="M121.02 141.54C119.97 141.46 118.61 141.42 116.99 141.42C114.77 141.42 112.63 141.7 110.62 142.24C108.6 142.78 106.79 143.62 105.23 144.74C103.66 145.87 102.4 147.3 101.48 149.01C100.56 150.72 100.1 152.72 100.1 154.96C100.1 157.2 100.49 159.24 101.29 160.86C102.08 162.49 103.21 163.86 104.66 164.9C106.1 165.95 107.87 166.72 109.92 167.18C111.95 167.65 114.25 167.88 116.77 167.88C119.42 167.88 122.06 167.66 124.62 167.22C127.16 166.79 130.26 166.16 131.13 165.96C131.99 165.76 132.94 165.5 132.94 165.5C133.58 165.34 133.53 164.65 133.53 164.65V141.02C133.52 135.83 132.13 131.99 129.41 129.6C126.7 127.23 122.7 126.03 117.53 126.03C115.59 126.03 112.48 126.29 110.6 126.67C110.6 126.67 104.96 127.76 102.64 129.59C102.64 129.59 102.13 129.9 102.4 130.62L104.23 135.54C104.46 136.18 105.08 135.96 105.08 135.96C105.08 135.96 105.28 135.88 105.51 135.74C110.48 133.04 116.77 133.12 116.77 133.12C119.56 133.12 121.71 133.69 123.16 134.79C124.57 135.88 125.28 137.5 125.28 140.95V142.04C123.06 141.72 121.02 141.54 121.02 141.54ZM110.74 159.7C109.72 158.89 109.59 158.69 109.25 158.17C108.73 157.38 108.47 156.25 108.47 154.81C108.47 152.54 109.22 150.9 110.78 149.81C110.77 149.81 113.01 147.87 118.28 147.94C121.98 147.99 125.3 148.54 125.3 148.54V160.29C125.3 160.29 122.02 160.99 118.32 161.21C113.06 161.53 110.72 159.7 110.74 159.7Z" fill="white"/>
<path fill-rule="evenodd" clip-rule="evenodd" d="M329.489 128.22C329.689 127.64 329.269 127.36 329.099 127.29C328.659 127.13 326.459 126.66 324.769 126.55C321.519 126.35 319.719 126.9 318.099 127.62C316.489 128.34 314.719 129.51 313.739 130.84V127.69C313.739 127.26 313.429 126.91 312.989 126.91H306.359C305.929 126.91 305.619 127.26 305.619 127.69V166.25C305.619 166.68 305.969 167.03 306.409 167.03H313.199C313.629 167.03 313.979 166.68 313.979 166.25V146.99C313.979 144.4 314.269 141.83 314.839 140.21C315.399 138.6 316.159 137.33 317.099 136.41C318.039 135.49 319.119 134.85 320.299 134.49C321.499 134.12 322.829 134 323.759 134C325.119 134 326.599 134.35 326.599 134.35C327.099 134.4 327.379 134.09 327.549 133.65C327.989 132.47 329.249 128.93 329.489 128.22Z" fill="white"/>
<path fill-rule="evenodd" clip-rule="evenodd" d="M265.751 110.35C264.921 110.09 264.181 109.92 263.191 109.75C262.191 109.57 261.011 109.47 259.681 109.47C255.011 109.47 251.321 110.79 248.741 113.4C246.171 115.99 244.421 119.93 243.541 125.12L243.231 126.87H237.361C237.361 126.87 236.641 126.84 236.491 127.62L235.531 132.99C235.461 133.5 235.681 133.82 236.371 133.82H242.081L236.281 166.17C235.831 168.77 235.311 170.91 234.731 172.54C234.171 174.15 233.611 175.34 232.931 176.22C232.271 177.06 231.651 177.69 230.561 178.05C229.671 178.34 228.641 178.48 227.521 178.48C226.901 178.48 226.071 178.38 225.451 178.25C224.831 178.13 224.511 177.99 224.051 177.8C224.051 177.8 223.381 177.54 223.111 178.21C222.901 178.76 221.381 182.95 221.201 183.47C221.021 183.98 221.271 184.38 221.601 184.5C222.361 184.77 222.921 184.95 223.961 185.19C225.401 185.53 226.611 185.55 227.751 185.55C230.131 185.55 232.301 185.22 234.091 184.57C235.901 183.91 237.471 182.77 238.871 181.24C240.371 179.58 241.321 177.83 242.231 175.45C243.131 173.1 243.891 170.17 244.501 166.77L250.321 133.82H258.831C258.831 133.82 259.551 133.85 259.701 133.07L260.661 127.7C260.731 127.19 260.511 126.87 259.821 126.87H251.561C251.601 126.69 251.971 123.78 252.921 121.04C253.331 119.87 254.091 118.93 254.741 118.28C255.371 117.64 256.101 117.19 256.901 116.93C257.721 116.67 258.651 116.54 259.671 116.54C260.451 116.54 261.211 116.63 261.791 116.75C262.591 116.92 262.901 117.01 263.111 117.07C263.951 117.33 264.061 117.08 264.231 116.68L266.201 111.25C266.401 110.67 265.911 110.42 265.731 110.35" fill="white"/>
<path fill-rule="evenodd" clip-rule="evenodd" d="M150.279 166.25C150.279 166.68 149.969 167.04 149.539 167.04H142.679C142.249 167.04 141.939 166.69 141.939 166.25V111.09C141.939 110.66 142.249 110.31 142.679 110.31H149.539C149.969 110.31 150.279 110.66 150.279 111.09V166.25Z" fill="white"/>
</g>
</g>
<defs>
<clipPath id="clip0_1704_7305">
<rect width="446" height="313" fill="white" transform="translate(0 0.5)"/>
</clipPath>
</defs>
</svg>
