<svg width="247" height="37" viewBox="0 0 247 37" fill="none" xmlns="http://www.w3.org/2000/svg">
<path d="M11.8322 11.8848C15.3688 11.8848 18.3045 13.6782 19.702 15.6126V12.3611H25.0907V36.4944H21.2131C21.0107 36.4953 20.8102 36.4567 20.623 36.381C20.4359 36.3052 20.2658 36.1938 20.1226 36.0532C19.9795 35.9125 19.866 35.7454 19.7889 35.5614C19.7117 35.3775 19.6724 35.1803 19.6731 34.9813V33.243C18.3045 35.2057 15.3679 36.9991 11.8331 36.9991C5.10277 36.9991 0 31.337 0 24.442C0 17.547 5.10367 11.8848 11.8322 11.8848ZM12.802 16.7062C8.43996 16.7062 5.47447 20.0978 5.47447 24.442C5.47447 28.787 8.41109 32.1786 12.802 32.1786C17.1641 32.1786 20.1296 28.787 20.1296 24.442C20.1296 20.0978 17.193 16.7062 12.802 16.7062ZM31.2211 12.3611H36.6378V15.641C38.121 13.2303 40.9142 11.8848 44.108 11.8848C49.8098 11.8848 53.4889 15.837 53.4889 21.9754V36.4944H49.6113C49.4089 36.4953 49.2083 36.4567 49.0212 36.381C48.834 36.3052 48.6639 36.1938 48.5208 36.0532C48.3776 35.9125 48.2642 35.7454 48.187 35.5614C48.1099 35.3775 48.0705 35.1803 48.0713 34.9813V22.8446C48.0713 19.0326 46.1045 16.7062 42.9676 16.7062C39.3751 16.7062 36.6378 19.453 36.6378 24.6105V36.4953H32.7602C32.5578 36.496 32.3573 36.4574 32.1702 36.3815C31.9831 36.3057 31.8131 36.1942 31.67 36.0534C31.5269 35.9127 31.4136 35.7455 31.3365 35.5615C31.2595 35.3775 31.2203 35.1803 31.2211 34.9813V12.3611ZM69.5975 11.8848C73.134 11.8848 76.0697 13.6782 77.4672 15.6126V0.308653H82.856V36.5228H78.9784C78.7759 36.5237 78.5753 36.4851 78.3881 36.4093C78.2008 36.3335 78.0307 36.222 77.8876 36.0812C77.7444 35.9405 77.631 35.7732 77.5539 35.5892C77.4768 35.4051 77.4375 35.2079 77.4384 35.0088V33.2714C76.0697 35.2049 73.1052 36.9991 69.5695 36.9991C62.841 36.9991 57.7373 31.337 57.7373 24.442C57.7653 17.547 62.8689 11.8848 69.5975 11.8848ZM70.5673 16.7062C66.2052 16.7062 63.2397 20.0978 63.2397 24.442C63.2397 28.787 66.1764 32.1786 70.5673 32.1786C74.9294 32.1786 77.8949 28.787 77.8949 24.442C77.8949 20.0978 74.9294 16.7062 70.5673 16.7062ZM88.9864 12.3611H94.3751V16.6494C94.8478 15.3299 95.7229 14.1859 96.8812 13.3732C98.0395 12.5606 99.4245 12.1189 100.847 12.1084C101.555 12.1075 102.262 12.1731 102.957 12.3053V17.7705C102.084 17.4813 101.17 17.3301 100.248 17.3226C97.1403 17.3226 94.3463 19.8734 94.3463 24.7222V36.4944H90.4687C90.2663 36.4953 90.0657 36.4567 89.8785 36.381C89.6914 36.3052 89.5213 36.1938 89.3782 36.0532C89.235 35.9125 89.1216 35.7454 89.0444 35.5614C88.9673 35.3775 88.9279 35.1803 88.9286 34.9813V12.3611H88.9864ZM117.555 37C110.284 37 104.696 31.4496 104.696 24.442C104.696 17.4352 110.284 11.8848 117.555 11.8848C124.826 11.8848 130.414 17.4344 130.414 24.442C130.414 31.4487 124.826 36.9991 117.555 36.9991M117.555 32.066C121.889 32.066 124.911 28.7312 124.911 24.442C124.911 20.1537 121.86 16.8179 117.555 16.8179C113.193 16.8179 110.142 20.1528 110.142 24.442C110.142 28.7303 113.193 32.066 117.555 32.066ZM137.484 7.09188C136.526 7.0856 135.609 6.70848 134.931 6.04216C134.253 5.37583 133.87 4.47393 133.864 3.53175C133.881 2.59535 134.269 1.70239 134.945 1.04281C135.621 0.38323 136.533 0.00909373 137.485 0C138.442 0 139.359 0.373586 140.036 1.03858C140.712 1.70357 141.092 2.6055 141.092 3.54594C141.092 4.48639 140.712 5.38831 140.036 6.0533C139.359 6.71829 138.442 7.09188 137.485 7.09188M134.806 12.3611H140.194V36.4944H136.345C136.143 36.4953 135.942 36.4567 135.755 36.381C135.568 36.3052 135.398 36.1938 135.254 36.0532C135.111 35.9125 134.998 35.7454 134.921 35.5614C134.844 35.3775 134.804 35.1803 134.805 34.9813L134.806 12.3611ZM156.475 11.8848C160.009 11.8848 162.946 13.6782 164.343 15.6126V0.308653H169.732V36.5228H165.855C165.652 36.5237 165.451 36.4851 165.264 36.4093C165.077 36.3335 164.907 36.222 164.764 36.0812C164.621 35.9405 164.507 35.7732 164.43 35.5892C164.353 35.4051 164.314 35.2079 164.315 35.0088V33.2714C162.946 35.2049 159.981 36.9991 156.446 36.9991C149.717 36.9991 144.613 31.337 144.613 24.442C144.641 17.547 149.745 11.8848 156.475 11.8848ZM157.472 16.7062C153.109 16.7062 150.145 20.0978 150.145 24.442C150.145 28.787 153.081 32.1786 157.472 32.1786C161.834 32.1786 164.8 28.787 164.8 24.442C164.8 20.0978 161.834 16.7062 157.472 16.7062Z" fill="black"/>
<path d="M229.35 27.3848C228.987 27.3913 228.625 27.3265 228.288 27.1942C227.95 27.0619 227.642 26.8647 227.383 26.6143C227.123 26.3638 226.917 26.065 226.777 25.7353C226.636 25.4057 226.563 25.0518 226.563 24.6943C226.563 24.3368 226.636 23.9829 226.777 23.6532C226.917 23.3236 227.123 23.0248 227.383 22.7743C227.642 22.5238 227.95 22.3267 228.288 22.1944C228.625 22.0621 228.987 21.9973 229.35 22.0038C230.068 22.0166 230.751 22.3057 231.254 22.8088C231.756 23.312 232.038 23.9891 232.038 24.6943C232.038 25.3995 231.756 26.0765 231.254 26.5797C230.751 27.0829 230.068 27.372 229.35 27.3848ZM199.214 27.3848C198.85 27.3913 198.489 27.3265 198.151 27.1942C197.813 27.0619 197.506 26.8647 197.246 26.6143C196.987 26.3638 196.781 26.065 196.64 25.7353C196.499 25.4057 196.427 25.0518 196.427 24.6943C196.427 24.3368 196.499 23.9829 196.64 23.6532C196.781 23.3236 196.987 23.0248 197.246 22.7743C197.506 22.5238 197.813 22.3267 198.151 22.1944C198.489 22.0621 198.85 21.9973 199.214 22.0038C199.931 22.0166 200.614 22.3057 201.117 22.8088C201.62 23.312 201.901 23.9891 201.901 24.6943C201.901 25.3995 201.62 26.0765 201.117 26.5797C200.614 27.0829 199.931 27.372 199.214 27.3848ZM230.32 11.24L235.795 1.96274C235.868 1.83579 235.915 1.69593 235.933 1.55116C235.951 1.40639 235.94 1.25954 235.9 1.11899C235.86 0.978446 235.793 0.84696 235.701 0.732036C235.61 0.617112 235.497 0.521003 235.367 0.449197C235.238 0.377391 235.096 0.331294 234.949 0.313538C234.802 0.295782 234.652 0.306716 234.509 0.345713C234.366 0.38471 234.232 0.451006 234.116 0.540818C233.999 0.630631 233.901 0.742201 233.828 0.869157L228.296 10.2591C223.903 8.28549 219.126 7.2718 214.296 7.28786C209.461 7.2761 204.678 8.2794 200.268 10.2307L194.738 0.840777C194.665 0.713705 194.567 0.602018 194.45 0.512097C194.333 0.422177 194.199 0.355784 194.056 0.316704C193.913 0.277625 193.764 0.266624 193.616 0.284336C193.469 0.302047 193.327 0.348122 193.197 0.419928C193.068 0.491733 192.955 0.587866 192.863 0.702834C192.772 0.817802 192.704 0.949355 192.664 1.08998C192.625 1.23061 192.613 1.37756 192.631 1.52244C192.649 1.66732 192.696 1.80729 192.769 1.93436L198.216 11.2116C193.507 13.7362 189.513 17.3755 186.596 21.8001C183.678 26.2246 181.929 31.2947 181.507 36.5512H247C246.591 31.2985 244.85 26.2302 241.937 21.8088C239.023 17.3875 235.029 13.754 230.32 11.24Z" fill="#3DDC84"/>
</svg>
