<svg width="251" height="63" viewBox="0 0 251 63" fill="none" xmlns="http://www.w3.org/2000/svg">
<path d="M68.5851 20.8462L84.2324 40.2689V20.8462H87.3603V44.9568H84.0529L68.4071 25.3635V44.9568H65.2773V20.8462H68.5851Z" fill="#CCCCCC"/>
<path d="M112.751 44.0125C110.689 44.7556 108.465 45.1258 106.081 45.1258C96.8199 45.1258 92.1874 40.9392 92.1874 32.5646C92.1874 24.6399 96.6578 20.677 105.597 20.677C108.162 20.677 110.547 21.0152 112.75 21.6905V24.3879C110.546 23.6009 108.28 23.2069 105.955 23.2069C98.9821 23.2069 95.4967 26.3273 95.4967 32.5646C95.4967 39.2521 98.9276 42.5976 105.796 42.5976C106.891 42.5976 108.107 42.4621 109.443 42.1913V33.9979H112.751V44.0125Z" fill="#CCCCCC"/>
<path d="M118.026 35.6499V20.8473H121.332V35.6496C121.332 40.2806 123.776 42.5986 128.664 42.5986C133.551 42.5986 135.996 40.2802 135.996 35.6496V20.8473H139.303V35.6496C139.303 41.969 135.757 45.1268 128.664 45.1268C121.572 45.1271 118.026 41.969 118.026 35.6499Z" fill="#CCCCCC"/>
<path d="M161.889 42.4286V44.9568H145.206V20.8462H148.511V42.4286H161.889Z" fill="#CCCCCC"/>
<path d="M175.942 17.6659L188.655 44.9575H184.99L181.681 37.3689H173.225L174.137 34.8428H180.574L175.799 23.9155L166.662 44.9575H163.229L175.942 17.6659Z" fill="#CCCCCC"/>
<path d="M192.142 44.9568V20.8462H203.05C207.914 20.8462 210.345 22.7747 210.345 26.6289C210.345 29.766 207.969 32.0874 203.211 33.5919L211.99 44.9568H207.627L199.493 34.116V32.0776C204.379 31.3451 206.822 29.5749 206.822 26.7658C206.822 24.5411 205.464 23.4265 202.747 23.4265H195.45V44.9578H192.142L192.142 44.9568Z" fill="#CCCCCC"/>
<path d="M224.382 20.8462V38.0108C224.382 42.6415 221.491 44.9565 215.709 44.9565V42.4279C219.286 42.4279 221.074 40.9537 221.074 38.0105V20.8462H224.382Z" fill="#CCCCCC"/>
<path d="M230.283 44.1136V41.247C232.966 42.146 235.862 42.5972 238.974 42.5972C243.372 42.5972 245.573 41.0794 245.573 38.0421C245.573 35.4608 243.95 34.1651 240.708 34.1651H237.417C232.066 34.1651 229.387 31.9747 229.387 27.5906C229.387 22.9827 232.816 20.6763 239.672 20.6763C242.652 20.6763 245.423 21.0161 247.987 21.6897V24.556C245.422 23.656 242.652 23.2061 239.672 23.2061C235.023 23.2061 232.698 24.6681 232.698 27.5906C232.698 30.1746 234.271 31.4677 237.417 31.4677H240.708C246.154 31.4677 248.88 33.6611 248.88 38.0421C248.88 42.7648 245.578 45.1257 238.973 45.1257C235.862 45.1257 232.966 44.7872 230.283 44.1136Z" fill="#CCCCCC"/>
<path d="M69.4216 20.0586L85.0673 39.4817V20.0586H88.1971V44.1692H84.8893L69.2424 24.5759V44.1692H66.1141V20.0586H69.4216Z" fill="black"/>
<path d="M113.587 43.2248C111.526 43.9679 109.303 44.3377 106.918 44.3377C97.6564 44.3377 93.0246 40.1514 93.0246 31.7768C93.0246 23.8521 97.4949 19.8889 106.436 19.8889C108.999 19.8889 111.384 20.2274 113.587 20.9024V23.5994C111.383 22.8125 109.117 22.4185 106.793 22.4185C99.8204 22.4185 96.3342 25.5388 96.3342 31.7762C96.3342 38.464 99.7666 41.8095 106.633 41.8095C107.729 41.8095 108.946 41.6747 110.282 41.4032V33.2095H113.588L113.587 43.2248Z" fill="black"/>
<path d="M118.862 34.8615V20.0571H122.168V34.8611C122.168 39.4918 124.613 41.8085 129.501 41.8085C134.388 41.8085 136.832 39.4914 136.832 34.8611V20.0571H140.14V34.8611C140.14 41.1802 136.594 44.3366 129.501 44.3366C122.409 44.3366 118.862 41.1809 118.862 34.8615Z" fill="black"/>
<path d="M162.724 41.6396V44.1677H146.042V20.0571H149.348V41.6396H162.724Z" fill="black"/>
<path d="M176.779 16.8759L189.492 44.1688H185.825L182.517 36.5809H174.06L174.974 34.0527H181.409L176.636 23.1255L167.498 44.1688H164.066L176.779 16.8759Z" fill="black"/>
<path d="M192.979 44.1692V20.0586H203.886C208.751 20.0586 211.18 21.9857 211.18 25.8417C211.18 28.977 208.805 31.2998 204.047 32.804L212.827 44.1692H208.462L200.329 33.3281V31.2876C205.215 30.5551 207.66 28.7866 207.66 25.9758C207.66 23.7511 206.3 22.6382 203.582 22.6382H196.286V44.1692H192.979Z" fill="black"/>
<path d="M225.219 20.0571V37.2221C225.219 41.8541 222.328 44.1677 216.546 44.1677V41.6396C220.122 41.6396 221.911 40.165 221.911 37.2217V20.0571H225.219Z" fill="#A6120D"/>
<path d="M231.119 43.3246V40.4586C233.802 41.3573 236.697 41.8088 239.809 41.8088C244.208 41.8088 246.408 40.2904 246.408 37.2548C246.408 34.6721 244.786 33.3777 241.543 33.3777H238.252C232.901 33.3777 230.223 31.186 230.223 26.8016C230.223 22.1937 233.651 19.8876 240.508 19.8876C243.487 19.8876 246.258 20.2274 248.822 20.901V23.7677C246.257 22.8673 243.487 22.4174 240.508 22.4174C235.858 22.4174 233.534 23.8794 233.534 26.8019C233.534 29.3859 235.105 30.679 238.252 30.679H241.543C246.989 30.679 249.715 32.8714 249.715 37.2548C249.715 41.9764 246.414 44.337 239.809 44.337C236.698 44.3367 233.802 43.9982 231.119 43.3246Z" fill="#A6120D"/>
<path d="M6.18327 48.2924L31.3591 61.3399L56.6646 48.1157L61.382 11.2242L31.3273 1.48987L1.46411 11.3996L6.18327 48.2924Z" fill="#B3B3B3"/>
<path d="M31.2577 58.2225L54.007 46.3506L58.4032 13.3563L31.2577 4.62756V58.2225Z" fill="#A6120D"/>
<path d="M31.2572 58.2226V4.62659L4.81519 13.5137L8.85899 46.5083L31.2572 58.2226Z" fill="#DD1B16"/>
<path d="M38.7299 33.1588L31.2577 36.4536H23.3821L19.6799 45.185L12.7938 45.3052L31.2577 6.57385L38.7299 33.1588ZM38.0076 31.5001L31.3071 18.9923L25.8112 31.2848H31.2573L38.0076 31.5001Z" fill="#F2F2F2"/>
<path d="M37.5432 31.2944H31.2714L31.2573 36.4457L39.9296 36.4536L43.9828 45.3066L50.5717 45.4217L31.2573 6.57385L31.3068 18.9923L37.5432 31.2944Z" fill="#B3B3B3"/>
</svg>
