<svg width="196" height="158" viewBox="0 0 196 158" fill="none" xmlns="http://www.w3.org/2000/svg">
<g clip-path="url(#clip0_4749_9069)">
<path d="M146 34.322C146 31.3342 143.569 28.9028 140.581 28.9028C139.959 28.9028 139.37 29.0292 138.814 29.2225L130.72 19.1047C131.236 18.2756 131.549 17.3055 131.549 16.2578C131.549 13.27 129.117 10.8385 126.129 10.8385C124.61 10.8385 123.241 11.4708 122.256 12.4788L108.016 5.907C108.031 5.74442 108.065 5.58727 108.065 5.41927C108.065 2.43144 105.634 0 102.646 0C100.294 0 98.3069 1.51559 97.559 3.61284H77.0236C76.2757 1.51559 74.2887 0 71.9367 0C68.9489 0 66.5174 2.43144 66.5174 5.41927C66.5174 5.64326 66.5572 5.85823 66.5843 6.07681L57.6244 10.5567C56.649 9.61739 55.3303 9.03211 53.8725 9.03211C50.8847 9.03211 48.4532 11.4636 48.4532 14.4514C48.4532 15.4991 48.7657 16.4692 49.2824 17.2983L41.1878 27.4161C40.6314 27.2228 40.0425 27.0963 39.4211 27.0963C36.4333 27.0963 34.0018 29.5278 34.0018 32.5156C34.0018 34.8676 35.5174 36.8546 37.6147 37.6025V49.1076C35.5174 49.8536 34.0018 51.8407 34.0018 54.1927C34.0018 57.1805 36.4333 59.6119 39.4211 59.6119C41.428 59.6119 43.1622 58.5028 44.0997 56.8788L53.961 58.6708C54.3783 61.2468 56.6002 63.2248 59.2917 63.2248C59.364 63.2248 59.4326 63.2067 59.5049 63.2031L62.9516 71.8215C61.8244 72.8151 61.0982 74.253 61.0982 75.8697C61.0982 78.8576 63.5296 81.289 66.5174 81.289C68.3347 81.289 69.937 80.3822 70.9197 79.0075L86.4224 83.4368C86.5615 85.6371 88.0066 87.4706 90.0009 88.1823V101.494C87.9037 102.242 86.3881 104.229 86.3881 106.581C86.3881 109.569 88.8195 112 91.8074 112C94.7952 112 97.2266 109.569 97.2266 106.581C97.2266 104.229 95.711 102.242 93.6138 101.494V88.1823C95.711 87.4345 97.2266 85.4474 97.2266 83.0954C97.2266 81.3649 96.3957 79.8384 95.1294 78.8449L97.2862 72.3725L113.495 77.7755C113.539 80.0823 115.031 82.0242 117.097 82.7612V101.492C115 102.24 113.484 104.227 113.484 106.579C113.484 109.567 115.916 111.998 118.904 111.998C121.892 111.998 124.323 109.567 124.323 106.579C124.323 104.227 122.807 102.24 120.71 101.492V82.7631C122.807 82.0152 124.323 80.0281 124.323 77.6762C124.323 77.0168 124.187 76.3918 123.971 75.8065L137.831 64.2562C138.639 64.7368 139.573 65.0312 140.581 65.0312C143.569 65.0312 146 62.5998 146 59.6119C146 57.26 144.484 55.2729 142.387 54.5251V39.4071C144.484 38.6611 146 36.674 146 34.322ZM126.129 14.4514C127.125 14.4514 127.936 15.2607 127.936 16.2578C127.936 17.2549 127.125 18.0642 126.129 18.0642C125.134 18.0642 124.323 17.2549 124.323 16.2578C124.323 15.2607 125.134 14.4514 126.129 14.4514ZM123.561 20.9997C124.328 21.4188 125.195 21.6771 126.129 21.6771C126.751 21.6771 127.338 21.5506 127.894 21.3573L135.989 31.4769C135.474 32.3061 135.161 33.2743 135.161 34.322C135.161 34.6129 135.203 34.8929 135.248 35.1729L122.452 42.1529L113.132 34.3871C113.349 33.8 113.484 33.1749 113.484 32.5156C113.484 31.7822 113.334 31.0813 113.069 30.4436L123.561 20.9997ZM100.839 50.5798C100.005 50.5798 99.2245 50.784 98.5182 51.1236L90.8644 43.4697L104.376 36.4626C105.346 37.3695 106.636 37.9349 108.065 37.9349C109.073 37.9349 110.005 37.6404 110.815 37.1599L119.039 44.0135L104.438 51.978C103.479 51.1181 102.227 50.5798 100.839 50.5798ZM102.646 55.9991C102.646 56.9962 101.835 57.8055 100.839 57.8055C99.8441 57.8055 99.033 56.9962 99.033 55.9991C99.033 55.0019 99.8441 54.1927 100.839 54.1927C101.835 54.1927 102.646 55.0019 102.646 55.9991ZM75.3346 36.105L78.3676 45.8777L62.9805 53.8567C62.3356 53.2551 61.5462 52.818 60.6682 52.585L58.1645 33.3863L70.5421 32.7667C71.3279 34.6707 73.1705 36.0183 75.3346 36.105ZM73.7431 30.7092C73.7431 29.712 74.5542 28.9028 75.5495 28.9028C76.5449 28.9028 77.356 29.712 77.356 30.7092C77.356 31.7063 76.5449 32.5156 75.5495 32.5156C74.5542 32.5156 73.7431 31.7063 73.7431 30.7092ZM79.4532 49.3858L84.0343 64.1497L64.7002 57.7044C64.6966 57.4876 64.664 57.278 64.6351 57.0685L79.4532 49.3858ZM79.4406 37.1563L84.8201 42.534L81.6245 44.1905L79.4406 37.1563ZM80.4269 33.0304C80.7647 32.3241 80.9688 31.5438 80.9688 30.7092C80.9688 29.9396 80.8026 29.2099 80.5136 28.5469L89.0905 20.5408L102.917 30.9097C102.756 31.4227 102.646 31.9538 102.646 32.5156C102.646 32.7685 102.687 33.0088 102.72 33.2526L88.1837 40.789L80.4269 33.0304ZM106.259 32.5156C106.259 31.5185 107.07 30.7092 108.065 30.7092C109.06 30.7092 109.872 31.5185 109.872 32.5156C109.872 33.5128 109.06 34.322 108.065 34.322C107.07 34.322 106.259 33.5128 106.259 32.5156ZM122.025 46.5009L134.968 57.2871L106.924 54.7382L122.025 46.5009ZM102.646 3.61284C103.641 3.61284 104.452 4.42212 104.452 5.41927C104.452 6.41641 103.641 7.22569 102.646 7.22569C101.651 7.22569 100.839 6.41641 100.839 5.41927C100.839 4.42212 101.651 3.61284 102.646 3.61284ZM100.164 10.2081C100.91 10.5965 101.746 10.8385 102.646 10.8385C104.165 10.8385 105.534 10.2063 106.521 9.1965L120.759 15.7683C120.744 15.9326 120.71 16.0898 120.71 16.2578C120.71 16.993 120.86 17.6921 121.126 18.3316L110.634 27.7737C109.866 27.3547 108.999 27.0963 108.065 27.0963C106.956 27.0963 105.925 27.4341 105.065 28.0086L91.773 18.0389L100.164 10.2081ZM97.559 7.22569C97.6024 7.34311 97.6331 7.46594 97.6818 7.57975L88.8358 15.8351L77.356 7.22569H97.559ZM71.9367 3.61284C72.932 3.61284 73.7431 4.42212 73.7431 5.41927C73.7431 6.41641 72.932 7.22569 71.9367 7.22569C70.9414 7.22569 70.1303 6.41641 70.1303 5.41927C70.1303 4.42212 70.9414 3.61284 71.9367 3.61284ZM59.2917 14.4514C59.2917 14.2274 59.252 14.0124 59.2249 13.7956L68.1848 9.31572C69.1602 10.2533 70.4789 10.8385 71.9367 10.8385C73.0458 10.8385 74.0773 10.5007 74.9372 9.92629L86.1533 18.3388L78.0316 25.9185C77.2855 25.5302 76.4491 25.2899 75.5495 25.2899C73.1037 25.2899 71.0552 26.9283 70.3832 29.1575L57.6949 29.7915L56.322 19.2583C58.076 18.3605 59.2917 16.5541 59.2917 14.4514ZM53.8725 12.645C54.8678 12.645 55.6789 13.4542 55.6789 14.4514C55.6789 15.4485 54.8678 16.2578 53.8725 16.2578C52.8771 16.2578 52.0661 15.4485 52.0661 14.4514C52.0661 13.4542 52.8771 12.645 53.8725 12.645ZM52.1058 19.5509C52.3153 19.6232 52.5213 19.7008 52.7399 19.7478L54.073 29.974L44.4285 30.4563C44.3147 30.1799 44.1684 29.9216 44.0112 29.6687L52.1058 19.5509ZM39.4211 30.7092C40.4164 30.7092 41.2275 31.5185 41.2275 32.5156C41.2275 33.5128 40.4164 34.322 39.4211 34.322C38.4258 34.322 37.6147 33.5128 37.6147 32.5156C37.6147 31.5185 38.4258 30.7092 39.4211 30.7092ZM39.4211 55.9991C38.4258 55.9991 37.6147 55.1898 37.6147 54.1927C37.6147 53.1955 38.4258 52.3863 39.4211 52.3863C40.4164 52.3863 41.2275 53.1955 41.2275 54.1927C41.2275 55.1898 40.4164 55.9991 39.4211 55.9991ZM54.6131 55.1194L44.7537 53.3274C44.4339 51.3602 43.061 49.7597 41.2275 49.1058V37.6007C42.8407 37.0244 44.0907 35.7148 44.5875 34.0655L54.5445 33.5669L57.0626 52.8776C56.0257 53.3491 55.1785 54.1385 54.6131 55.1194ZM59.2917 59.6119C58.2964 59.6119 57.4853 58.8027 57.4853 57.8055C57.4853 56.8084 58.2964 55.9991 59.2917 55.9991C60.2871 55.9991 61.0982 56.8084 61.0982 57.8055C61.0982 58.8027 60.2871 59.6119 59.2917 59.6119ZM66.5174 77.6762C65.5221 77.6762 64.711 76.8669 64.711 75.8697C64.711 74.8726 65.5221 74.0633 66.5174 74.0633C67.5128 74.0633 68.3239 74.8726 68.3239 75.8697C68.3239 76.8669 67.5128 77.6762 66.5174 77.6762ZM87.4069 79.9577L71.9042 75.5283C71.7217 72.7013 69.3896 70.4505 66.5174 70.4505C66.4452 70.4505 66.3765 70.4685 66.3043 70.4722L62.8576 61.8537C63.1087 61.6315 63.3363 61.3895 63.5441 61.1257L85.3548 68.3966L88.5757 78.7727C88.1295 79.1087 87.7321 79.5043 87.4069 79.9577ZM91.8074 108.385C90.812 108.385 90.0009 107.576 90.0009 106.579C90.0009 105.582 90.812 104.773 91.8074 104.773C92.8027 104.773 93.6138 105.582 93.6138 106.579C93.6138 107.576 92.8027 108.385 91.8074 108.385ZM91.8074 84.9019C90.812 84.9019 90.0009 84.0926 90.0009 83.0954C90.0009 82.0983 90.812 81.289 91.8074 81.289C92.8027 81.289 93.6138 82.0983 93.6138 83.0954C93.6138 84.0926 92.8027 84.9019 91.8074 84.9019ZM91.8688 77.1993L89.5728 69.8038L93.8576 71.2327L91.8688 77.1993ZM95.0011 67.8041L88.2559 65.5551L82.7138 47.6968L87.5008 45.2148L95.9639 53.6778C95.6243 54.3842 95.4202 55.1645 95.4202 55.9991C95.4202 57.7296 96.2512 59.2579 97.5193 60.2496L95.0011 67.8041ZM118.904 108.385C117.908 108.385 117.097 107.576 117.097 106.579C117.097 105.582 117.908 104.773 118.904 104.773C119.899 104.773 120.71 105.582 120.71 106.579C120.71 107.576 119.899 108.385 118.904 108.385ZM118.904 79.4826C117.908 79.4826 117.097 78.6733 117.097 77.6762C117.097 76.679 117.908 75.8697 118.904 75.8697C119.899 75.8697 120.71 76.679 120.71 77.6762C120.71 78.6733 119.899 79.4826 118.904 79.4826ZM121.653 73.0301C120.844 72.5514 119.912 72.2569 118.904 72.2569C117.173 72.2569 115.645 73.0878 114.653 74.356L98.4279 68.9475L100.941 61.4075C103.076 61.3678 104.902 60.0888 105.748 58.2589L135.348 60.9487C135.395 61.1293 135.449 61.3064 135.514 61.4798L121.653 73.0301ZM125.438 44.6385L136.982 38.3413C137.501 38.8074 138.106 39.1687 138.776 39.4071V54.5251C138.444 54.6443 138.129 54.7906 137.831 54.9676L125.438 44.6385ZM140.581 61.4184C139.585 61.4184 138.774 60.6091 138.774 59.6119C138.774 58.6148 139.585 57.8055 140.581 57.8055C141.576 57.8055 142.387 58.6148 142.387 59.6119C142.387 60.6091 141.576 61.4184 140.581 61.4184ZM140.581 36.1284C139.585 36.1284 138.774 35.3192 138.774 34.322C138.774 33.3249 139.585 32.5156 140.581 32.5156C141.576 32.5156 142.387 33.3249 142.387 34.322C142.387 35.3192 141.576 36.1284 140.581 36.1284Z" fill="#333333"/>
<path d="M41.2266 0H37.6138V3.61285H41.2266V0Z" fill="#333333"/>
<path d="M41.2266 7.22571H37.6138V10.8386H41.2266V7.22571Z" fill="#333333"/>
<path d="M44.8394 3.61328H41.2266V7.22613H44.8394V3.61328Z" fill="#333333"/>
<path d="M37.6138 3.61328H34.001V7.22613H37.6138V3.61328Z" fill="#333333"/>
<path d="M131.548 83.0957H127.935V86.7085H131.548V83.0957Z" fill="#333333"/>
<path d="M131.548 90.321H127.935V93.9339H131.548V90.321Z" fill="#333333"/>
<path d="M135.161 86.708H131.548V90.3209H135.161V86.708Z" fill="#333333"/>
<path d="M127.935 86.708H124.322V90.3209H127.935V86.708Z" fill="#333333"/>
<path d="M142.386 7.22571H138.773V10.8386H142.386V7.22571Z" fill="#333333"/>
<path d="M142.386 14.4514H138.773V18.0643H142.386V14.4514Z" fill="#333333"/>
<path d="M145.999 10.8389H142.386V14.4517H145.999V10.8389Z" fill="#333333"/>
<path d="M138.773 10.8389H135.161V14.4517H138.773V10.8389Z" fill="#333333"/>
<path d="M59.2911 86.708H55.6782V90.3209H59.2911V86.708Z" fill="#333333"/>
<path d="M59.2911 93.9336H55.6782V97.5464H59.2911V93.9336Z" fill="#333333"/>
<path d="M62.9037 90.321H59.2909V93.9339H62.9037V90.321Z" fill="#333333"/>
<path d="M55.6782 90.321H52.0653V93.9339H55.6782V90.321Z" fill="#333333"/>
<path d="M48.4522 66.8379H44.8394V70.4507H48.4522V66.8379Z" fill="#333333"/>
<path d="M48.4523 74.0634H44.8395V77.6762H48.4523V74.0634Z" fill="#333333"/>
<path d="M52.065 70.4502H48.4521V74.063H52.065V70.4502Z" fill="#333333"/>
<path d="M44.8394 70.4502H41.2266V74.063H44.8394V70.4502Z" fill="#333333"/>
</g>
<path d="M11.46 153L9.98 148.62H3.72L2.24 153H0.4L5.34 138.72H8.38L13.34 153H11.46ZM6.44 140.56L4.26 146.98H9.42L7.24 140.56H6.44ZM21.1305 142.92V144.52H20.2905C19.2771 144.52 18.4838 144.82 17.9105 145.42C17.3505 146.02 17.0705 146.867 17.0705 147.96V153H15.3705V142.92H17.0105V144.12H17.4505C18.0905 143.32 19.0638 142.92 20.3705 142.92H21.1305ZM26.3433 142.92H28.8833V144.4H26.3433V149.94C26.3433 150.473 26.4766 150.867 26.7433 151.12C27.0233 151.36 27.4899 151.48 28.1433 151.48H28.8833V153H28.1033C26.9566 153 26.0899 152.787 25.5033 152.36C24.9299 151.933 24.6433 151.207 24.6433 150.18V144.4H22.9033V142.92H24.6433V139.88H26.3433V142.92ZM33.4791 140.3H31.6791V138.46H33.4791V140.3ZM33.4191 142.92V153H31.7191V142.92H33.4191ZM41.8372 144.4H39.0972V153H37.3972V144.4H35.6572V142.92H37.3972V141.76C37.3972 139.56 38.5505 138.46 40.8572 138.46H41.8372V139.94H40.8772C39.6905 139.94 39.0972 140.567 39.0972 141.82V142.92H41.8372V144.4ZM45.6772 140.3H43.8772V138.46H45.6772V140.3ZM45.6172 142.92V153H43.9172V142.92H45.6172ZM55.7842 149.96H57.4842C57.2842 150.973 56.8109 151.78 56.0642 152.38C55.3309 152.967 54.3909 153.26 53.2442 153.26C51.7242 153.26 50.5242 152.767 49.6442 151.78C48.7776 150.78 48.3442 149.507 48.3442 147.96C48.3442 146.4 48.7776 145.127 49.6442 144.14C50.5109 143.153 51.7109 142.66 53.2442 142.66C54.4042 142.66 55.3442 142.953 56.0642 143.54C56.7976 144.113 57.2509 144.88 57.4242 145.84H55.7242C55.3642 144.707 54.5376 144.14 53.2442 144.14C52.1642 144.14 51.3576 144.5 50.8242 145.22C50.3042 145.927 50.0442 146.827 50.0442 147.92C50.0442 149.027 50.3109 149.947 50.8442 150.68C51.3776 151.413 52.1776 151.78 53.2442 151.78C54.6576 151.78 55.5042 151.173 55.7842 149.96ZM61.8189 140.3H60.0189V138.46H61.8189V140.3ZM61.7589 142.92V153H60.0589V142.92H61.7589ZM71.517 153V151.94H71.077C70.3837 152.82 69.337 153.26 67.937 153.26C66.8304 153.26 65.9504 152.94 65.297 152.3C64.6437 151.66 64.317 150.887 64.317 149.98C64.317 149.06 64.637 148.273 65.277 147.62C65.917 146.967 66.8837 146.64 68.177 146.64H71.457V146.24C71.457 145.6 71.257 145.093 70.857 144.72C70.457 144.333 69.837 144.14 68.997 144.14C67.5304 144.14 66.7504 144.627 66.657 145.6H64.957C65.0237 144.68 65.417 143.96 66.137 143.44C66.8704 142.92 67.8104 142.66 68.957 142.66C70.2504 142.66 71.2637 142.96 71.997 143.56C72.7437 144.16 73.117 145.02 73.117 146.14V153H71.517ZM68.357 151.78C69.197 151.78 69.9237 151.507 70.537 150.96C71.1504 150.4 71.457 149.72 71.457 148.92V148H68.437C66.8237 148 66.017 148.64 66.017 149.92C66.017 150.493 66.217 150.947 66.617 151.28C67.0304 151.613 67.6104 151.78 68.357 151.78ZM76.2298 138.46H77.9298V153H76.2298V138.46ZM87.0767 138.72H88.8767V153H87.0767V138.72ZM101.42 153H99.7203V146.96C99.7203 145.107 98.867 144.18 97.1603 144.18C96.2803 144.18 95.5603 144.513 95.0003 145.18C94.4403 145.833 94.1603 146.62 94.1603 147.54V153H92.4603V142.92H94.1003V144H94.5403C94.8336 143.6 95.247 143.28 95.7803 143.04C96.3136 142.787 96.9136 142.66 97.5803 142.66C98.807 142.66 99.7536 143.013 100.42 143.72C101.087 144.413 101.42 145.373 101.42 146.6V153ZM106.871 142.92H109.411V144.4H106.871V149.94C106.871 150.473 107.004 150.867 107.271 151.12C107.551 151.36 108.017 151.48 108.671 151.48H109.411V153H108.631C107.484 153 106.617 152.787 106.031 152.36C105.457 151.933 105.171 151.207 105.171 150.18V144.4H103.431V142.92H105.171V139.88H106.871V142.92ZM120.79 147.36V147.94H113.11C113.137 149.153 113.423 150.1 113.97 150.78C114.517 151.447 115.303 151.78 116.33 151.78C117.717 151.78 118.57 151.26 118.89 150.22H120.61C120.437 151.127 119.977 151.86 119.23 152.42C118.497 152.98 117.53 153.26 116.33 153.26C114.797 153.26 113.597 152.76 112.73 151.76C111.863 150.76 111.43 149.46 111.43 147.86C111.43 146.287 111.863 145.027 112.73 144.08C113.597 143.133 114.783 142.66 116.29 142.66C117.717 142.66 118.817 143.113 119.59 144.02C120.363 144.913 120.763 146.027 120.79 147.36ZM116.25 144.14C115.383 144.14 114.69 144.367 114.17 144.82C113.65 145.26 113.33 145.827 113.21 146.52H119.03C118.977 145.84 118.703 145.273 118.21 144.82C117.717 144.367 117.063 144.14 116.25 144.14ZM123.437 138.46H125.137V153H123.437V138.46ZM128.417 138.46H130.117V153H128.417V138.46ZM135.198 140.3H133.398V138.46H135.198V140.3ZM135.138 142.92V153H133.438V142.92H135.138ZM145.856 142.92H147.496V152.5C147.496 153.927 147.076 155.053 146.236 155.88C145.409 156.72 144.263 157.14 142.796 157.14C141.489 157.14 140.436 156.873 139.636 156.34C138.849 155.807 138.383 155.047 138.236 154.06H139.916C140.183 155.153 141.136 155.7 142.776 155.7C143.789 155.7 144.543 155.413 145.036 154.84C145.543 154.267 145.796 153.46 145.796 152.42V151.62H145.356C144.663 152.513 143.656 152.96 142.336 152.96C140.976 152.96 139.889 152.48 139.076 151.52C138.263 150.56 137.856 149.327 137.856 147.82C137.856 146.313 138.263 145.08 139.076 144.12C139.889 143.147 140.976 142.66 142.336 142.66C143.696 142.66 144.723 143.107 145.416 144H145.856V142.92ZM142.656 151.48C143.683 151.48 144.469 151.127 145.016 150.42C145.563 149.713 145.836 148.847 145.836 147.82C145.836 146.78 145.563 145.907 145.016 145.2C144.469 144.493 143.683 144.14 142.656 144.14C141.683 144.14 140.923 144.473 140.376 145.14C139.829 145.807 139.556 146.7 139.556 147.82C139.556 148.927 139.829 149.813 140.376 150.48C140.923 151.147 141.683 151.48 142.656 151.48ZM159.521 147.36V147.94H151.841C151.867 149.153 152.154 150.1 152.701 150.78C153.247 151.447 154.034 151.78 155.061 151.78C156.447 151.78 157.301 151.26 157.621 150.22H159.341C159.167 151.127 158.707 151.86 157.961 152.42C157.227 152.98 156.261 153.26 155.061 153.26C153.527 153.26 152.327 152.76 151.461 151.76C150.594 150.76 150.161 149.46 150.161 147.86C150.161 146.287 150.594 145.027 151.461 144.08C152.327 143.133 153.514 142.66 155.021 142.66C156.447 142.66 157.547 143.113 158.321 144.02C159.094 144.913 159.494 146.027 159.521 147.36ZM154.981 144.14C154.114 144.14 153.421 144.367 152.901 144.82C152.381 145.26 152.061 145.827 151.941 146.52H157.761C157.707 145.84 157.434 145.273 156.941 144.82C156.447 144.367 155.794 144.14 154.981 144.14ZM171.127 153H169.427V146.96C169.427 145.107 168.574 144.18 166.867 144.18C165.987 144.18 165.267 144.513 164.707 145.18C164.147 145.833 163.867 146.62 163.867 147.54V153H162.167V142.92H163.807V144H164.247C164.541 143.6 164.954 143.28 165.487 143.04C166.021 142.787 166.621 142.66 167.287 142.66C168.514 142.66 169.461 143.013 170.127 143.72C170.794 144.413 171.127 145.373 171.127 146.6V153ZM181.058 149.96H182.758C182.558 150.973 182.084 151.78 181.338 152.38C180.604 152.967 179.664 153.26 178.518 153.26C176.998 153.26 175.798 152.767 174.918 151.78C174.051 150.78 173.618 149.507 173.618 147.96C173.618 146.4 174.051 145.127 174.918 144.14C175.784 143.153 176.984 142.66 178.518 142.66C179.678 142.66 180.618 142.953 181.338 143.54C182.071 144.113 182.524 144.88 182.698 145.84H180.998C180.638 144.707 179.811 144.14 178.518 144.14C177.438 144.14 176.631 144.5 176.098 145.22C175.578 145.927 175.318 146.827 175.318 147.92C175.318 149.027 175.584 149.947 176.118 150.68C176.651 151.413 177.451 151.78 178.518 151.78C179.931 151.78 180.778 151.173 181.058 149.96ZM194.032 147.36V147.94H186.352C186.379 149.153 186.666 150.1 187.212 150.78C187.759 151.447 188.546 151.78 189.572 151.78C190.959 151.78 191.812 151.26 192.132 150.22H193.852C193.679 151.127 193.219 151.86 192.472 152.42C191.739 152.98 190.772 153.26 189.572 153.26C188.039 153.26 186.839 152.76 185.972 151.76C185.106 150.76 184.672 149.46 184.672 147.86C184.672 146.287 185.106 145.027 185.972 144.08C186.839 143.133 188.026 142.66 189.532 142.66C190.959 142.66 192.059 143.113 192.832 144.02C193.606 144.913 194.006 146.027 194.032 147.36ZM189.492 144.14C188.626 144.14 187.932 144.367 187.412 144.82C186.892 145.26 186.572 145.827 186.452 146.52H192.272C192.219 145.84 191.946 145.273 191.452 144.82C190.959 144.367 190.306 144.14 189.492 144.14Z" fill="#333333"/>
<defs>
<clipPath id="clip0_4749_9069">
<rect width="112" height="112" fill="white" transform="translate(34)"/>
</clipPath>
</defs>
</svg>
