<svg width="225" height="61" viewBox="0 0 225 61" fill="none" xmlns="http://www.w3.org/2000/svg">
<g clip-path="url(#clip0_4765_10066)">
<path d="M19.0493 49.9677H21.506V51.9012H19.0493V49.9677ZM31.7109 45.4183L34.1677 45.5699V47.5792C33.2984 47.5792 32.618 47.4276 31.7109 47.4276V45.4183ZM25.3612 45.0771L27.8179 45.1529V47.1622L25.3612 47.0106V45.0771ZM12.7373 44.9254H15.1941V46.8589H12.7373V44.9254ZM44.0702 41.3238C44.3348 41.4375 45.9601 41.5134 46.4514 41.6271V43.9397L44.0702 43.6364V41.3238ZM15.2318 41.7408V39.8073C15.572 39.8073 15.5342 39.7315 15.8744 39.7315H17.6886V41.665H15.8744C15.5342 41.665 15.572 41.7408 15.2318 41.7408ZM31.7109 43.826L27.4778 43.6743C26.9486 43.6364 26.1549 43.5985 25.588 43.5227C25.2856 43.4848 24.9076 43.5227 24.5675 43.5227C24.1895 43.5227 24.0761 43.4469 23.6226 43.4469V33.8931C26.0415 33.8931 31.1818 33.931 33.4118 34.4618C34.47 34.7272 35.2638 34.9925 36.0953 35.675C36.2465 35.7887 36.2843 35.7887 36.3976 35.9403C37.4937 36.964 37.6449 38.4804 37.6449 39.959C37.6827 43.4469 34.659 43.826 31.7109 43.826ZM15.2318 37.1914H17.6886V39.1249H15.2318V37.1914ZM17.7642 29.4953H20.2209V31.5047H17.7642V29.4953ZM18.0288 21.8372H20.4855V23.7707H18.0288V21.8372ZM44.0702 22.6333V20.3207C44.4482 20.3207 46.2624 20.207 46.4514 20.0932V22.4817C45.6577 22.4817 44.9018 22.6333 44.0702 22.6333ZM23.6604 27.2585V17.5152H24.7565L31.144 17.2119C31.7109 17.1361 33.6007 17.2878 34.1677 17.4773C36.2465 18.1597 36.3976 19.5245 36.2843 21.913C36.1331 25.1355 33.0338 26.7278 30.0857 26.8794C29.7455 26.9173 29.481 26.9173 29.0652 26.9552C27.629 27.069 26.1927 27.1827 24.7565 27.1827C24.2651 27.1827 24.0005 27.2206 23.6604 27.2585ZM14.5137 19.335H16.9705V21.2685H14.5137V19.335ZM44.0702 16.6433V14.3306C44.9018 14.3306 45.5821 14.0273 46.4514 14.0273V16.34C45.8845 16.4158 44.5616 16.6433 44.0702 16.6433ZM15.8744 16.0746C15.8744 13.4587 15.5342 14.1032 17.613 14.0653C17.9532 14.0653 17.9532 13.9894 18.2555 13.9894V15.9988H16.9705C16.4791 15.9988 16.3279 16.0746 15.8744 16.0746ZM19.2004 15.9229H18.9737V13.9894L21.4304 13.8378V15.8471C20.5989 15.8471 20.0319 15.9229 19.2004 15.9229ZM28.3849 5.76258V10.8807L27.0242 10.9565C26.3061 11.0323 23.3202 11.0702 22.9045 11.146V9.09881C23.6226 9.09881 24.6809 9.09881 25.2856 8.94717V5.91423L16.8193 6.40708C16.4791 6.40708 15.7232 6.25543 15.7232 6.63455V11.5252H9.63803C9.48685 11.5252 9.41125 11.5631 9.41125 11.7526V13.9894C9.41125 14.1411 9.44905 14.2169 9.63803 14.2169H11.9436V16.1504H9.41125V18.5388C9.41125 18.6905 9.44905 18.7663 9.63803 18.7663H12.5861V26.7657C12.5861 26.9173 12.6239 26.9932 12.8129 26.9932H15.0429V28.9267H12.8129C12.6617 28.9267 12.5861 28.9646 12.5861 29.1541V31.8838C12.5861 32.0354 12.6239 32.1112 12.8129 32.1112H15.0429V34.0447H12.8129C12.6617 34.0447 12.5861 34.0827 12.5861 34.2722V42.2716H9.63803C9.48685 42.2716 9.41125 42.3095 9.41125 42.4991V47.3139C9.41125 47.7309 10.4317 47.4655 11.2633 47.4655H11.8302V49.2853C11.8302 49.4369 11.868 49.5127 12.057 49.5127H15.7232V54.4034C15.7232 54.7066 16.2901 54.6308 17.1594 54.7066C17.802 54.7446 19.654 54.7446 20.4855 54.8583C20.7501 54.8962 21.0524 54.8583 21.317 54.8583C21.6194 54.8962 21.7706 54.9341 22.1863 54.9341V53.0006C23.0934 53.0006 23.736 53.1523 24.6431 53.1523V49.8919L26.4951 50.0435C27.0998 50.0435 27.7423 50.1951 28.3471 50.1951V55.5407C29.1786 55.5407 31.7487 55.9198 32.807 56.0715L37.1158 56.716V51.2188C39.5347 51.2188 41.5379 51.7495 44.2592 50.6501C46.4514 49.7781 48.0766 48.3754 48.7948 46.1386C49.5885 43.7881 49.7019 40.9447 49.1727 38.4804C48.9837 37.5326 48.6436 36.5848 48.19 35.7887L47.7743 35.1063C47.5853 34.8788 47.3207 34.8409 46.8672 34.8409C45.8467 34.8409 45.0152 34.7651 43.9947 34.7651V31.9596C43.9947 31.9596 42.445 31.353 41.6513 31.1635C41.0466 31.0118 39.6859 30.6706 38.9678 30.6706V28.8508C39.7237 28.6613 41.8025 27.8651 42.5206 27.5239C43.6545 26.9552 43.2765 27.1069 44.0325 26.5761C47.8121 23.9602 48.757 19.1454 47.5475 14.7856C47.2073 13.5345 47.3207 14.3685 46.9805 13.4208C46.6404 12.3971 44.9774 11.1081 43.8057 10.6532C42.1804 10.0087 41.2355 9.93287 39.4969 9.93287C38.8166 9.93287 37.6449 9.97078 37.1158 10.0845V9.51584C36.3221 9.51584 35.4527 9.81914 34.659 9.81914V7.58234C34.9992 7.58234 35.4905 7.46861 35.8685 7.4307C36.2087 7.39279 36.7378 7.31696 37.1158 7.24114V4.43567C36.889 4.43567 30.3503 5.45929 28.7628 5.57302C28.5739 5.57302 28.3849 5.4972 28.3849 5.76258ZM208.823 39.087C208.823 39.2387 208.861 39.3145 209.05 39.3145H213.359C213.699 39.3145 213.586 38.7458 213.586 38.3667V29.9882C213.812 30.1398 213.888 30.2915 214.039 30.519L220.653 39.0112C220.767 39.1249 220.767 39.2766 220.994 39.2766H224.811C224.962 39.2766 225.038 39.2387 225.038 39.0491V22.0646H220.276V31.0118L214.077 23.1262C213.888 22.8987 213.359 22.0646 213.132 22.0646H208.823V39.087ZM70.9433 35.4096H67.6928V32.3008H71.5858C72.6819 32.3008 73.5134 32.7937 73.5134 33.8931C73.5512 35.1442 72.2283 35.4096 70.9433 35.4096ZM70.4519 28.9267H67.7306V25.9695C69.0157 25.9695 71.2834 25.78 72.1905 26.2728C72.4173 26.3866 72.4929 26.4245 72.6063 26.652C72.8331 27.0311 72.8331 27.1827 72.8331 27.5997C72.8331 28.6613 71.5858 28.9267 70.4519 28.9267ZM62.9683 22.2921V39.087C62.9683 39.2387 63.0061 39.3145 63.1951 39.3145H70.9433C72.9464 39.3145 74.7985 39.087 76.0457 38.3667C77.3686 37.6084 78.3513 36.4332 78.3513 34.386C78.3513 33.2107 77.9355 32.2629 77.3308 31.6563C76.6883 31.0497 76.4993 30.8981 75.6678 30.519C75.4032 30.4052 75.1764 30.4052 75.0252 30.2157C76.1591 29.9503 77.5576 28.358 77.5576 26.7657C77.5576 25.0976 77.2552 24.074 75.819 23.0882C74.9118 22.4817 73.589 22.0646 72.0771 22.0646H63.1573C63.0061 22.0646 62.9683 22.1025 62.9683 22.2921ZM98.8368 30.6327C98.8368 28.2063 100.575 26.0833 102.805 26.0833C103.826 26.0833 104.166 26.0454 105.149 26.5382C106.472 27.2206 107.454 28.775 107.454 30.2536C107.454 31.77 107.265 32.9074 106.207 33.9689C103.712 36.5848 98.8368 35.0305 98.8368 30.6327ZM93.9611 30.2157C93.9611 31.9217 94.0744 33.0211 94.7926 34.5755C95.0194 35.0684 95.3217 35.5233 95.6241 35.9024C97.0981 38.0255 100.008 39.5799 102.73 39.5799C104.998 39.5799 106.812 39.2007 108.588 37.9497C110.629 36.509 112.179 34.0827 112.368 31.5805C112.368 31.3909 112.368 31.2393 112.406 31.0118C112.67 29.192 111.801 26.9552 110.78 25.4388C109.382 23.3536 106.434 21.6855 103.259 21.6855C101.407 21.6855 99.4793 22.2542 98.0808 23.1262L96.8336 24.1119C96.4178 24.5289 96.1154 24.7943 95.7753 25.2871C94.7548 26.652 93.9611 28.3959 93.9611 30.2157ZM162.826 22.2921V39.087C162.826 39.2387 162.863 39.3145 163.052 39.3145H167.663V32.7178H173.711V39.0491C173.711 39.2007 173.749 39.2766 173.938 39.2766H178.322C178.473 39.2766 178.549 39.2387 178.549 39.0491V22.2921C178.549 22.1405 178.511 22.0646 178.322 22.0646H173.711V28.4717H167.663V22.0646H163.052C162.863 22.0646 162.826 22.1025 162.826 22.2921ZM189.623 27.6756C189.699 28.0547 189.925 28.4717 190.039 28.8129C190.228 29.2679 191.399 32.1871 191.399 32.4145H187.733C187.771 32.1112 188.905 29.3816 189.132 28.8129C189.207 28.5855 189.245 28.4338 189.358 28.2442L189.623 27.6756ZM180.287 39.3145H184.898C185.201 39.3145 185.503 38.2529 185.692 37.798C185.805 37.5326 185.919 37.2672 186.032 36.964C186.221 36.509 186.221 36.2057 186.486 36.2057H192.722C192.949 36.2057 192.911 36.2815 192.987 36.4711L193.818 38.5183C193.932 38.8216 194.007 39.087 194.196 39.3145H199.185C199.148 38.8974 198.505 37.5705 198.316 37.0777L196.955 33.8173C196.804 33.4382 196.653 33.097 196.502 32.7178C196.162 31.9596 195.897 31.2772 195.595 30.5569L193.743 26.1591C193.44 25.4388 193.138 24.7185 192.836 23.9602L192.155 22.33C192.08 22.1025 192.042 21.8751 191.815 21.8751H187.582C187.28 21.8751 187.166 22.4058 187.015 22.785L183.689 30.5948C182.668 33.0211 181.346 35.9782 180.438 38.2909C180.212 38.8974 179.909 39.3145 180.287 39.3145ZM114.22 30.4431C114.22 33.0211 114.976 35.2579 116.714 37.0398C118.188 38.4804 120.418 39.6178 122.61 39.6178C124.727 39.6178 126.126 39.4661 127.826 38.4425C128.469 38.0634 130.548 36.3195 130.585 35.675C130.396 35.637 130.321 35.5233 130.132 35.4096C129.981 35.2958 129.867 35.22 129.716 35.1063L127.07 33.2486C126.012 33.9689 125.823 35.2579 122.988 35.2579C120.834 35.2579 119.171 33.1728 119.171 31.0118C119.171 29.5332 119.398 28.5096 120.305 27.4481C121.817 25.7042 124.614 25.8179 126.201 27.4102L126.919 28.1684L128.242 27.1448C128.431 26.9932 128.507 26.9173 128.696 26.8036C128.998 26.5382 129.3 26.3866 129.603 26.1212C129.792 25.9695 130.321 25.5146 130.51 25.4388C130.321 25.0976 130.17 24.9459 129.905 24.6805C129.338 24.036 129.149 23.8844 128.469 23.3536C127.675 22.747 126.617 22.33 125.634 22.0646C123.669 21.5718 121.325 21.6855 119.549 22.4817C118.982 22.7091 118.566 22.9366 118.113 23.2778C117.886 23.4295 117.697 23.5811 117.47 23.7327C117.054 24.074 116.11 25.0217 115.807 25.4767C114.938 26.6899 114.22 28.6234 114.22 30.4431ZM152.81 39.5799C154.813 39.5799 156.287 39.4661 158.063 38.3667C158.744 37.9497 158.706 37.9117 159.197 37.4947C159.877 36.926 160.293 36.4711 160.822 35.675C160.369 35.3717 157.496 33.2107 157.232 33.1349C157.005 33.2865 156.892 33.514 156.551 33.8552C156.325 34.0827 156.098 34.2722 155.795 34.4618C153.112 36.2815 149.295 34.6134 149.295 30.6327C149.295 29.3816 149.786 28.1305 150.391 27.486C151.865 25.9316 153.679 25.7042 155.569 26.7278C155.758 26.8415 155.833 26.9173 155.984 27.0311C156.136 27.1448 156.249 27.2206 156.4 27.3723L157.081 28.1305C157.874 27.5997 158.933 26.6899 159.764 26.0833C160.104 25.8558 160.331 25.6283 160.671 25.4009C160.558 24.9838 159.764 24.2635 159.462 23.9223C157.08 21.5339 152.923 21.1927 149.824 22.4438C149.295 22.6712 148.841 22.8987 148.35 23.202C146.951 24.1119 146.006 25.2492 145.25 26.7278C144.986 27.2206 144.797 27.7514 144.646 28.358C144.305 29.6849 144.268 30.8602 144.494 32.2629C144.608 32.8695 144.797 33.514 144.986 34.0068C145.175 34.5376 145.439 35.0305 145.742 35.4854C146.535 36.8123 147.82 37.9497 149.219 38.6321C150.126 39.087 151.6 39.5799 152.81 39.5799Z" fill="#039BD3"/>
<path d="M132.626 39.087C132.626 39.2386 132.664 39.3144 132.853 39.3144H137.238C137.578 39.3144 137.464 38.1771 137.464 37.4947C137.464 36.8123 137.464 36.0919 137.464 35.4095C137.464 34.6513 137.426 34.8029 138.145 34.0447L139.127 32.9453L143.436 39.2765H146.535C146.46 39.049 146.422 39.0111 146.233 38.8595C144.797 37.798 143.36 35.3716 142.945 33.5898C142.718 32.7557 142.529 31.8458 142.529 30.8222C142.529 29.7228 142.642 29.0783 142.869 28.0546L143.474 26.2349C143.587 26.0074 143.625 25.8178 143.738 25.6283C144.154 24.8701 144.457 24.3772 145.024 23.6569L145.817 22.7849C146.006 22.6333 146.573 22.1404 146.687 21.9888H143.247C143.172 22.2541 143.096 22.2162 142.945 22.4058C142.794 22.5953 142.718 22.6712 142.567 22.8228L141.131 24.5288C140.866 24.8321 140.639 25.0596 140.412 25.4008L137.88 28.3958C137.729 28.5475 137.615 28.6991 137.502 28.8129V22.6712C137.502 22.33 137.615 21.9509 137.275 21.9509H132.664V39.087H132.626ZM80.43 39.087C80.43 39.2386 80.4678 39.3144 80.6568 39.3144H93.3185C93.4697 39.3144 93.5453 39.2765 93.5453 39.087V35.0304H85.2679V22.0646H80.4678V39.087H80.43ZM200.924 39.087C200.924 39.2386 200.962 39.3144 201.151 39.3144H205.762V22.0646H200.962V39.087H200.924ZM40.8198 0.568624V3.14662C41.2733 3.03289 41.7269 2.95706 42.1804 2.84333C43.73 2.46421 43.3899 3.22245 43.3899 -0.0379639C43.1631 -5.21168e-05 41.0087 0.492801 40.8198 0.568624ZM40.8198 60.2796C40.8198 60.545 41.0843 60.545 41.3111 60.5829C41.878 60.6967 42.9741 61 43.3899 61C43.3899 58.1187 43.5789 58.422 42.8607 58.2703C42.1804 58.1566 41.4623 57.8912 40.782 57.8912V60.2796H40.8198ZM37.7205 59.8626L40.2528 60.3555V58.2703C40.2528 57.8912 40.3284 57.8154 40.1016 57.7016L37.7583 57.2467L37.7205 59.8626ZM31.4841 58.5357C31.4841 58.839 32.1267 58.839 32.6558 58.9148C33.1094 58.9906 33.6385 59.1044 34.0543 59.1044C34.0543 56.1093 34.3944 56.678 32.8826 56.4505C32.3912 56.3747 31.9755 56.2989 31.4841 56.2989V58.5357ZM37.7205 1.21312V3.75321C38.4008 3.67739 39.6103 3.33618 40.2528 3.33618V0.682359C39.8371 0.834006 38.1362 1.02357 37.7205 1.21312ZM34.659 1.74389V4.28398C34.848 4.28398 36.9268 3.94277 37.0023 3.90486C37.2669 3.75321 37.1535 3.41201 37.1535 2.65377C37.1535 2.19883 37.1535 1.74389 37.1535 1.28895C36.7756 1.36477 36.3598 1.44059 35.9441 1.51642C35.5661 1.59224 35.0747 1.74389 34.659 1.74389ZM25.2478 3.03289V5.42133C26.1549 5.42133 26.9486 5.19386 27.8179 5.19386V2.72959L25.2478 3.03289ZM22.0729 3.44992C22.0729 5.99 21.9217 5.6488 22.4887 5.61089L24.643 5.45924V3.10871C24.1139 3.10871 23.7737 3.14662 23.2824 3.18453C22.4887 3.22245 22.0729 3.18454 22.0729 3.44992ZM28.3848 58.3461L30.9172 58.7252V56.1852C30.577 56.1852 28.5738 55.9577 28.3848 55.8819V58.3461ZM18.898 3.44992V5.83836L20.8256 5.76253C21.0902 5.76253 21.1658 5.68671 21.4682 5.68671V3.29827C21.128 3.29827 21.1658 3.33618 20.9012 3.37409C20.6744 3.37409 20.4099 3.37409 20.1831 3.37409C19.7673 3.41201 19.4272 3.44992 18.898 3.44992ZM18.898 57.55C19.7673 57.55 20.6367 57.7016 21.4682 57.7016V55.3132C20.6367 55.3132 19.7295 55.1615 18.898 55.1615V57.55ZM12.5861 3.67739V4.89056C12.5861 6.21747 12.0947 5.99 15.1562 5.99V3.60156C14.0223 3.60156 13.6822 3.56365 12.5861 3.67739ZM28.3848 2.65377V5.11803C29.1786 5.04221 30.0857 4.81474 30.9172 4.81474V2.31256C30.766 2.38839 28.6872 2.65377 28.3848 2.65377ZM12.5861 55.2374V57.1709C12.5861 57.3225 12.6239 57.3983 12.8129 57.3983H15.194V55.0099H12.8129C12.6239 55.0099 12.5861 55.0478 12.5861 55.2374ZM22.0729 57.55C22.0729 57.8154 22.2997 57.7775 22.5643 57.7775C23.0934 57.7775 23.8115 57.9291 24.643 57.9291V55.5407C23.7359 55.5407 23.0178 55.389 22.0729 55.389V57.55ZM9.41122 3.82903V5.76253C9.41122 5.91418 9.44902 5.99 9.638 5.99H12.0191V3.67739C11.7924 3.67739 11.7546 3.60156 11.5278 3.60156H9.67579C9.44902 3.60156 9.41122 3.63948 9.41122 3.82903ZM40.8198 52.3561C40.8198 54.972 40.4796 54.4033 42.1426 54.7066C43.73 55.0099 43.3899 55.4269 43.3899 52.7731C43.3899 52.5077 43.0875 52.5077 42.8229 52.4698L41.3489 52.2044C41.0465 52.1665 40.8198 52.0528 40.8198 52.3561ZM40.8198 6.55868V8.8713C41.2355 8.83339 41.7269 8.71965 42.1804 8.64383C42.3694 8.60592 42.6718 8.568 42.8607 8.53009C43.6167 8.41636 43.4277 8.53009 43.4277 6.14165C42.8985 6.14165 41.3489 6.44494 40.8198 6.55868ZM43.919 5.99V8.30262C44.4104 8.30262 44.7883 8.18889 45.2419 8.11306C46.7537 7.80977 46.4514 8.41636 46.4514 5.49715L43.919 5.99ZM15.761 57.3983L18.3311 57.4742V55.1615C17.9531 55.1615 17.9531 55.0857 17.5374 55.0857H15.7232V57.3983H15.761ZM43.919 3.26036C43.919 5.57298 43.7678 5.49715 44.4104 5.3455L46.4136 4.92848V2.54004C46.0356 2.54004 44.9395 2.84333 44.4482 2.95706C44.2214 2.99498 43.919 2.99498 43.919 3.26036ZM43.919 54.8582C43.919 55.1615 44.486 55.1236 45.0907 55.2753C45.4687 55.3511 46.0734 55.5027 46.4136 55.5027V53.1143C45.96 53.0006 44.297 52.6973 43.8812 52.6973V54.8582H43.919ZM37.7205 56.7538C38.0606 56.7917 38.6276 56.9055 38.9677 56.9813C39.3457 57.0571 39.8749 57.2088 40.2528 57.2088V54.8962C39.6481 54.8962 38.552 54.517 37.7205 54.517V56.7538ZM37.7205 53.9484L40.2528 54.3654V52.0528C39.5725 52.0149 38.3252 51.6737 37.7205 51.6737V53.9484ZM37.7205 4.24606V6.48286C38.6276 6.48286 39.6859 6.14165 40.2528 6.10374V3.79112C39.6103 3.86695 38.363 4.24606 37.7205 4.24606ZM37.7205 7.05153V9.28833L40.2528 8.90921V6.59659L37.7205 7.05153ZM9.41122 29.6469V31.3909C9.41122 31.5425 9.44902 31.6183 9.638 31.6183H12.0191V29.5332C11.7924 29.5332 11.7546 29.4574 11.5278 29.4574H9.67579C9.44902 29.4195 9.41122 29.4574 9.41122 29.6469ZM25.2478 55.0857C25.5879 55.1615 26.2305 55.1995 26.6084 55.2374C28.1203 55.3132 27.8179 55.9956 27.8179 53.228C27.2132 53.228 26.3061 53.0006 25.2478 53.0006V55.0857ZM0 26.3107C0.415757 26.3107 0.491349 26.3865 0.944902 26.3865H2.60793V24.453C2.60793 24.3014 2.57013 24.2256 2.38115 24.2256H0L0 26.3107ZM0 34.6892V36.7743H2.38115C2.53234 36.7743 2.60793 36.7364 2.60793 36.5469C2.60793 34.4617 2.75911 34.5755 2.11658 34.5755L0 34.6892ZM25.2478 52.5077C26.0793 52.5077 27.0242 52.7352 27.8179 52.7352V50.5742C26.9108 50.5742 26.1927 50.4226 25.2478 50.4226V52.5077ZM0 13.1174C0 13.4965 0.529145 13.2691 1.20947 13.3449C1.62523 13.3828 2.07878 13.3828 2.60793 13.3828V11.2976C1.73862 11.2976 0.86931 11.146 0.0377961 11.146V13.1174H0ZM0.226776 37.2672H0V39.3523H2.38115C2.53234 39.3523 2.60793 39.3144 2.60793 39.1249V37.1914C1.70082 37.1914 1.09609 37.2672 0.226776 37.2672ZM0 21.1168L2.57013 21.1926V19.1075C2.07878 19.1075 1.85201 19.0316 1.36066 19.0316H0L0 21.1168ZM6.23635 19.4108C6.23635 21.6476 5.93398 21.3063 7.44583 21.2684C8.01277 21.2684 8.35293 21.3443 8.80648 21.3443V19.2591C8.57971 19.2591 8.54191 19.1833 8.31514 19.1833H6.46313C6.31194 19.1833 6.23635 19.2212 6.23635 19.4108ZM0 47.7308V49.816L2.57013 49.6643V47.5792C1.70082 47.5792 0.831514 47.655 0 47.7308ZM0 16.5674V18.5009C0.944902 18.5009 1.62523 18.5767 2.57013 18.5767V16.4916L0.491349 16.4157C0.264572 16.4157 0 16.2641 0 16.5674H0ZM0 50.3088V52.394C0.907106 52.394 1.73862 52.2423 2.57013 52.2423V50.1572L0.642533 50.233C0.377961 50.2709 0.340165 50.3088 0 50.3088H0ZM6.23635 24.5288V26.3865H7.59701C8.12615 26.3865 8.31514 26.4623 8.80648 26.4623V24.3014H6.42533C6.31194 24.3014 6.23635 24.3393 6.23635 24.5288ZM6.23635 52.7731C6.23635 55.3511 5.70721 54.5929 8.80648 54.5929V52.5077L6.7277 52.5835C6.50092 52.5456 6.23635 52.5077 6.23635 52.7731ZM3.17487 29.6469V31.5804H5.66941V29.4195H3.36385C3.21267 29.4195 3.17487 29.4574 3.17487 29.6469ZM6.23635 11.6768V13.5344C6.6899 13.5344 6.84109 13.6103 7.33244 13.6103H8.84428V11.5251C8.27734 11.5251 7.48362 11.563 6.95448 11.4872C6.65211 11.4493 6.23635 11.3735 6.23635 11.6768ZM6.23635 16.7949V18.5388C6.23635 18.6904 6.27415 18.7663 6.46313 18.7663H8.84428V16.6811H6.99227C6.61431 16.6432 6.23635 16.4157 6.23635 16.7949ZM9.41122 9.2125C9.41122 10.274 9.26004 11.0702 9.638 11.0702H12.0191V8.98503H9.638C9.44902 9.02294 9.41122 9.06086 9.41122 9.2125ZM9.41122 32.2249C9.41122 33.2865 9.26004 34.0826 9.638 34.0826H12.0191V31.9975H9.638C9.44902 31.9975 9.41122 32.0733 9.41122 32.2249ZM9.41122 37.343C9.41122 38.4045 9.26004 39.2007 9.638 39.2007H12.0191V37.1156H9.638C9.44902 37.1156 9.41122 37.1914 9.41122 37.343ZM12.5861 9.2125C12.5861 10.274 12.4349 11.0702 12.8129 11.0702H15.194V8.98503H12.8129C12.6239 9.02294 12.5861 9.06086 12.5861 9.2125ZM6.23635 34.8408C6.23635 35.9024 6.08517 36.6985 6.46313 36.6985H8.84428V34.6134H6.46313C6.31194 34.6134 6.23635 34.6513 6.23635 34.8408ZM6.23635 39.9589C6.23635 41.0205 6.08517 41.8166 6.46313 41.8166H8.84428V39.7315H6.46313C6.31194 39.7315 6.23635 39.7694 6.23635 39.9589ZM9.41122 21.9888C9.41122 23.0503 9.26004 23.8464 9.638 23.8464H12.0191V21.7613H9.638C9.44902 21.7613 9.41122 21.8371 9.41122 21.9888ZM9.41122 27.1068C9.41122 28.1684 9.26004 28.9645 9.638 28.9645H12.0191V26.8794H9.638C9.44902 26.8794 9.41122 26.9552 9.41122 27.1068ZM12.5861 50.1193C12.5861 51.1808 12.4349 51.977 12.8129 51.977H15.194V49.8918H12.8129C12.6239 49.8918 12.5861 49.9297 12.5861 50.1193ZM6.23635 27.1068C6.23635 28.1684 6.08517 28.9645 6.46313 28.9645H8.84428V26.8794H6.46313C6.31194 26.8794 6.23635 26.9552 6.23635 27.1068ZM6.23635 47.655C6.23635 49.6643 6.08517 49.5506 6.7277 49.5506L8.80648 49.4748V47.3896L7.14346 47.4275C6.80329 47.4655 6.23635 47.3138 6.23635 47.655ZM6.23635 50.1951C6.23635 52.6215 6.16076 52.0528 6.65211 52.0528H8.80648V49.9676H6.42533C6.31194 49.9676 6.23635 50.0055 6.23635 50.1951ZM9.41122 39.7315C9.41122 42.4232 9.26004 41.7408 10.1293 41.7408H11.9814V39.6556H10.3183C9.90257 39.6556 9.82698 39.7315 9.41122 39.7315ZM9.41122 21.1168C9.41122 21.2684 9.44902 21.3443 9.638 21.3443H12.0191V19.2591H9.44902V21.1168H9.41122ZM6.23635 32.2249V34.1205H8.80648V32.0354H6.42533C6.31194 31.9975 6.23635 32.0733 6.23635 32.2249ZM9.41122 50.1193V51.977H11.9814V49.8918H9.6002C9.44902 49.8918 9.41122 49.9297 9.41122 50.1193ZM6.23635 45.077V46.9347H8.80648V44.8495H6.42533C6.31194 44.8495 6.23635 44.8875 6.23635 45.077ZM13.2286 6.48286H12.5861V8.34053C12.5861 8.60592 12.7373 8.568 13.0774 8.568C13.8712 8.568 14.3625 8.49218 15.1562 8.49218V6.40703C14.4381 6.40703 13.9845 6.48286 13.2286 6.48286ZM12.5861 54.517C12.9641 54.517 12.9641 54.5929 13.3798 54.5929H15.194V52.5077H12.6239V54.517H12.5861ZM3.17487 14.141C3.17487 16.1124 3.02369 16.0745 3.59063 16.1124L5.66941 16.1883V14.1031C4.98908 13.9515 4.19536 14.1031 3.59063 13.9894C3.43944 13.9515 3.17487 13.7998 3.17487 14.141ZM3.17487 45.0012V47.0863L5.66941 47.0105V44.9254C5.21586 44.9254 3.51503 44.8495 3.17487 45.0012ZM3.17487 23.8085H4.15757C4.7623 23.8085 5.06467 23.8843 5.66941 23.8843V21.7234H3.17487V23.8085ZM3.17487 39.8073V41.8924H4.61112C5.10247 41.8924 5.21586 41.8166 5.70721 41.8166V39.7315C4.7623 39.7315 4.08198 39.8073 3.17487 39.8073ZM3.17487 42.3853V44.4704C4.08198 44.4704 4.7623 44.3946 5.70721 44.3946V42.3095H4.42214C3.8552 42.3095 3.66622 42.3853 3.17487 42.3853ZM3.17487 13.4965C4.11977 13.4965 4.7623 13.5724 5.70721 13.5724V11.4872C5.06467 11.4872 4.72451 11.4114 4.04418 11.4114H3.17487V13.4965ZM3.17487 50.1193V52.2044H3.59063C4.38434 52.2044 4.87569 52.1286 5.66941 52.1286V50.0435C4.7623 50.0435 4.08198 50.1193 3.17487 50.1193ZM3.17487 39.3144H5.66941V37.2293H3.17487V39.3144ZM3.17487 36.6985H5.66941V34.6134H3.17487V36.6985ZM3.17487 26.3865H5.66941V24.3014H3.17487V26.3865Z" fill="#039BD3"/>
</g>
<defs>
<clipPath id="clip0_4765_10066">
<rect width="225" height="61" fill="white"/>
</clipPath>
</defs>
</svg>
