<svg width="156" height="72" viewBox="0 0 156 72" fill="none" xmlns="http://www.w3.org/2000/svg">
<g clip-path="url(#clip0_4765_10055)">
<path d="M140.635 60.8199C136.652 60.8199 132.16 59.8682 129.719 58.5266L129.39 58.3469L129.523 58.0029L131.151 52.6938L131.331 52.1128L131.912 52.4186C134.733 53.8264 137.905 54.5744 141.135 54.5934C145.255 54.5934 147.713 52.9766 147.713 50.2667C147.713 47.9007 145.931 46.4444 141.131 44.8734C133.741 42.5151 130.147 39.0368 130.147 34.2437C130.147 28.0287 136.075 23.6866 144.563 23.6866C149.226 23.6866 152.363 24.6766 154.166 25.506L154.547 25.6818L154.427 26.0641L152.743 31.2127L152.564 31.7554L152.008 31.4955C149.651 30.419 147.039 29.8657 144.392 29.8825C140.007 29.8825 138.451 31.9045 138.451 33.6322C138.451 36.086 140.588 37.2174 145.623 38.9833C152.79 41.3761 156.021 44.7205 156.021 49.7965C156.021 54.8725 152 60.8199 140.665 60.8199H140.635ZM106.841 60.8199C95.8823 60.8199 88.2277 53.2901 88.2277 42.5113C88.2277 31.3961 96.1217 23.6293 107.422 23.6293C118.586 23.6293 126.086 30.968 126.086 41.8882C126.086 53.3894 118.53 60.8199 106.854 60.8199H106.841ZM107.187 29.7067C100.891 29.7067 96.8226 34.6756 96.8226 42.3546C96.8226 49.7659 100.99 54.7425 107.187 54.7425C113.384 54.7425 117.492 49.6627 117.492 42.0946C117.492 36.1281 114.269 29.7067 107.187 29.7067ZM83.2527 60.2466H75.0895V33.9838H83.2784V60.2466H83.2527ZM79.1284 31.2662C78.5454 31.2848 77.9643 31.1976 77.4201 31.0097C76.8759 30.8219 76.3799 30.5374 75.9621 30.1734C75.5443 29.8094 75.2133 29.3734 74.9891 28.8918C74.7649 28.4102 74.6522 27.8929 74.6578 27.3713C74.6578 25.0779 76.564 23.4229 79.1882 23.4229C79.7788 23.401 80.3683 23.487 80.9205 23.6757C81.4727 23.8643 81.9762 24.1516 82.4001 24.52C82.8241 24.8884 83.1597 25.3303 83.3863 25.8185C83.613 26.3068 83.7261 26.8312 83.7186 27.3598C83.7186 29.6302 81.791 31.2662 79.1284 31.2662Z" fill="url(#paint0_linear_4765_10055)"/>
<path d="M79.2139 23.8854C76.829 23.8854 75.2006 25.3951 75.2006 27.3713C75.1925 27.8331 75.2901 28.2916 75.4873 28.7186C75.6846 29.1455 75.9773 29.5319 76.3475 29.854C76.7177 30.1762 77.1576 30.4272 77.6402 30.5919C78.1228 30.7565 78.638 30.8311 79.154 30.8113C81.6543 30.8113 83.2271 29.2518 83.2271 27.3713C83.2384 26.9019 83.1413 26.4355 82.9421 26.0012C82.7429 25.5669 82.4457 25.1739 82.0692 24.8468C81.6926 24.5198 81.2447 24.2656 80.7535 24.1002C80.2622 23.9347 79.7381 23.8616 79.2139 23.8854ZM75.6066 59.7841H82.7613V34.4463H75.6066V59.7841ZM107.431 24.0918C96.3739 24.0918 88.7534 31.6904 88.7534 42.5112C88.7534 52.7626 95.737 60.3574 106.845 60.3574C117.611 60.3574 125.578 53.6455 125.578 41.8882C125.578 31.8471 118.838 24.0918 107.431 24.0918ZM107.196 55.205C100.332 55.205 96.3183 49.5327 96.3183 42.3545C96.3183 35.1763 100.096 29.2442 107.196 29.2442C114.295 29.2442 118.017 35.4859 118.017 42.0946C118.017 49.4296 114.136 55.205 107.196 55.205ZM145.418 39.3885C140.182 37.5691 137.913 36.3306 137.913 33.613C137.913 31.5337 139.832 29.4085 144.371 29.4085C147.098 29.3962 149.79 29.9662 152.222 31.0712L153.91 25.9226C151.876 24.9862 148.781 24.1529 144.542 24.1529C135.994 24.1529 130.638 28.4721 130.638 34.2475C130.638 39.2929 134.771 42.3622 141.285 44.4415C146.23 46.0583 148.209 47.6178 148.209 50.2704C148.209 53.1333 145.644 55.0559 141.11 55.0559C137.789 55.0396 134.527 54.2703 131.63 52.8199L130.001 58.1252C132.138 59.3254 136.459 60.365 140.644 60.365C150.709 60.365 155.483 55.4725 155.483 49.8041C155.483 44.7473 152.222 41.678 145.418 39.3885Z" fill="url(#paint1_linear_4765_10055)"/>
<path opacity="0.8" d="M75.6066 51.1496C77.9117 50.3673 80.2965 49.613 82.7612 48.8868V34.4463H75.6066V51.1496ZM144.541 24.1453C135.994 24.1453 130.638 28.4645 130.638 34.2399C130.605 36.1815 131.327 38.0733 132.681 39.5911C136.217 39.2394 139.807 38.9336 143.452 38.6737C139.605 37.2021 137.895 35.9523 137.895 33.613C137.895 31.5337 139.814 29.4086 144.353 29.4086C147.081 29.3946 149.773 29.9647 152.205 31.0712L153.893 25.9227C151.876 24.9786 148.79 24.1453 144.541 24.1453ZM107.431 24.0918C96.3738 24.0918 88.7533 31.6904 88.7533 42.5113C88.7479 44.0513 88.9154 45.5879 89.2534 47.098C91.6297 46.4813 94.0658 45.8927 96.5618 45.3321C96.3955 44.3492 96.3127 43.3563 96.3139 42.3622C96.3139 35.1305 100.096 29.2518 107.195 29.2518C114.094 29.2518 117.748 35.054 118 41.3952C120.47 41.0359 122.984 40.7033 125.522 40.3937C124.881 31.0827 118.257 24.0918 107.431 24.0918ZM79.2223 23.8854C76.8375 23.8854 75.2091 25.3952 75.2091 27.3713C75.201 27.8332 75.2986 28.2916 75.4958 28.7186C75.693 29.1455 75.9857 29.5319 76.3559 29.8541C76.7262 30.1762 77.1661 30.4273 77.6487 30.5919C78.1313 30.7565 78.6465 30.8312 79.1625 30.8113C81.6628 30.8113 83.2356 29.2518 83.2356 27.3713C83.2469 26.9013 83.1497 26.4342 82.9499 25.9993C82.7502 25.5645 82.4522 25.1711 82.0748 24.8439C81.6973 24.5168 81.2483 24.2628 80.7561 24.0978C80.2638 23.9329 79.7387 23.8606 79.2138 23.8854H79.2223Z" fill="white"/>
<path d="M22.0879 72C16.8865 72 11.9628 68.2886 7.04777 60.6479C2.36777 53.2289 0.0213623 45.9589 0.0213623 39.0368C0.0213623 32.4701 1.88054 26.9928 5.54761 22.7501C9.21468 18.5074 14.0101 16.3402 19.6816 16.3402C22.058 16.3402 24.8702 16.7645 28.2894 17.6397C29.9263 18.064 31.1658 18.3469 32.1018 18.5342V18.1214C32.2001 13.7793 33.4951 9.97229 35.9484 6.80745C38.4016 3.64262 42.5987 1.40659 48.3173 0.210226L49.3216 0L49.5482 0.902055C49.5824 1.04348 49.6165 1.17344 49.6507 1.28428C49.7063 1.48686 49.7576 1.66651 49.7918 1.86527V1.93789V2.01434C49.7918 2.129 49.7918 2.23985 49.7918 2.36598C49.7918 2.49212 49.8174 2.67559 49.8174 2.85523C49.7605 4.93372 49.2751 6.98497 48.3856 8.90588C47.3323 11.2032 45.766 13.2841 43.7826 15.0215C42.5117 16.2288 41.0073 17.2206 39.3419 17.9494C39.8249 17.8156 40.3463 17.6589 40.9147 17.483C44.2613 16.4854 47.0265 16 49.3857 16C53.1695 15.9585 56.874 16.971 59.9852 18.8973C61.9112 20.1322 63.6297 21.6072 65.0883 23.2776L65.7209 23.9732L64.9558 24.5504C62.5325 26.3851 60.84 27.9522 59.7758 29.3359C57.8774 31.728 56.8601 34.5898 56.8652 37.5232C56.8288 40.6882 57.8987 43.7844 59.9254 46.3794C61.9427 48.9632 64.2592 50.6297 66.815 51.3254L67.8066 51.5967L67.4946 52.4759C66.0972 56.2886 64.1074 59.9068 61.5837 63.2241C57.3738 68.9575 53.0357 71.8739 48.6464 71.8739C46.971 71.8739 44.7699 71.4305 41.7268 70.4749C39.5715 69.6993 37.2826 69.2622 34.9611 69.183C33.1917 69.183 31.076 69.6264 28.6698 70.5017C26.0285 71.4955 23.8103 72 22.0879 72Z" fill="url(#paint2_linear_4765_10055)"/>
<path d="M60.746 62.7157C56.7028 68.2274 52.6596 70.9604 48.6592 70.9604C47.0607 70.9604 44.8981 70.4979 42.0773 69.6149C39.2564 68.732 36.9058 68.2695 34.9739 68.2695C33.0421 68.2695 30.8367 68.732 28.298 69.657C25.7592 70.582 23.6436 71.0865 22.0879 71.0865C17.2455 71.0865 12.5911 67.4286 7.9325 60.1931C3.37217 52.9575 1.02148 45.936 1.02148 39.0368C1.02148 32.6039 2.808 27.3865 6.33403 23.3082C9.86006 19.2298 14.2836 17.2499 19.6902 17.2499C21.9939 17.2499 24.7249 17.6703 28.0159 18.5151C31.3069 19.3598 33.4225 19.7764 34.5038 19.7764C35.8672 19.7764 38.1281 19.3139 41.231 18.3469C44.3339 17.3799 47.0607 16.9135 49.3516 16.9135C52.9282 16.8702 56.4307 17.827 59.3698 19.6503C61.2153 20.8376 62.8629 22.2532 64.2635 23.8548C61.8145 25.7048 60.0279 27.3445 58.8996 28.8237C56.8924 31.3709 55.8241 34.4147 55.8437 37.5308C55.8074 40.8873 56.9462 44.1697 59.1005 46.9183C61.2631 49.6933 63.7549 51.4592 66.5329 52.216C65.1647 55.9415 63.2166 59.4761 60.746 62.7157ZM47.4967 8.58865C46.4976 10.7695 45.0096 12.7441 43.1244 14.3908C41.4319 15.9045 39.7394 16.9148 38.0469 17.4219C36.4463 17.8052 34.807 18.0446 33.1532 18.1367C33.2472 13.9704 34.4696 10.3545 36.8246 7.3273C39.1795 4.30006 43.1244 2.23604 48.578 1.10083C48.672 1.48306 48.766 1.77355 48.813 2.02582C48.8601 2.27809 48.8601 2.5724 48.8601 2.86671C48.7962 4.83321 48.3297 6.77258 47.4838 8.58865H47.4967Z" fill="url(#paint3_linear_4765_10055)"/>
<path opacity="0.8" d="M56.8054 25.9532C58.3782 25.9532 59.9339 26.0181 61.4726 26.1366C62.2846 25.4155 63.2192 24.6511 64.2763 23.8433C62.8758 22.2417 61.2281 20.8261 59.3826 19.6388C56.4435 17.8155 52.941 16.8587 49.3644 16.902C47.0607 16.902 44.3339 17.4066 41.2438 18.3354C38.1538 19.2642 35.8672 19.7802 34.5038 19.7802C33.421 19.7802 31.2584 19.3598 28.0159 18.5189C24.7249 17.6741 21.9939 17.2537 19.6902 17.2537C14.2836 17.2537 9.86006 19.2757 6.33403 23.312C2.808 27.3483 1.02148 32.6077 1.02148 39.0406C1.02148 45.2785 2.94477 51.6159 6.6845 58.1213C10.2274 48.7451 16.9687 40.5985 25.9597 34.828C34.9507 29.0574 45.7387 25.9536 56.8054 25.9532Z" fill="url(#paint4_linear_4765_10055)"/>
<path d="M22.0878 71.0865C23.6436 71.0865 25.7122 70.624 28.2979 69.657C30.8837 68.6899 33.0933 68.2695 34.9739 68.2695C36.8544 68.2695 39.3034 68.6899 42.0772 69.6149C44.851 70.5399 47.0607 70.9604 48.6591 70.9604C52.6596 70.9604 56.7028 68.2275 60.7459 62.7157C63.218 59.4714 65.1661 55.9316 66.5329 52.2007C63.7591 51.4362 61.2631 49.678 59.1004 46.903C56.9519 44.1554 55.8177 40.8758 55.8565 37.5232C55.836 34.4082 56.9044 31.3653 58.9124 28.8199C59.6745 27.8602 60.5328 26.9646 61.4768 26.1443C59.9381 26.022 58.3824 25.957 56.8096 25.957C45.7427 25.9564 34.9541 29.0593 25.9623 34.8292C16.9706 40.599 10.2283 48.7453 6.68445 58.1214C7.0805 58.8094 7.49651 59.5 7.93245 60.1931C12.5911 67.4286 17.2454 71.0865 22.0878 71.0865Z" fill="url(#paint5_linear_4765_10055)"/>
</g>
<defs>
<linearGradient id="paint0_linear_4765_10055" x1="115.342" y1="23.4229" x2="115.342" y2="60.8199" gradientUnits="userSpaceOnUse">
<stop stop-color="#666666"/>
<stop offset="0.5" stop-color="#CCCCCC"/>
<stop offset="0.59" stop-color="#C0C0C0"/>
<stop offset="0.75" stop-color="#A2A2A2"/>
<stop offset="0.96" stop-color="#707070"/>
<stop offset="1" stop-color="#666666"/>
</linearGradient>
<linearGradient id="paint1_linear_4765_10055" x1="115.342" y1="60.3574" x2="115.342" y2="23.8854" gradientUnits="userSpaceOnUse">
<stop offset="0.05" stop-color="#CCCCCC"/>
<stop offset="0.06" stop-color="#C4C4C4"/>
<stop offset="0.13" stop-color="#9C9C9C"/>
<stop offset="0.2" stop-color="#797979"/>
<stop offset="0.28" stop-color="#5D5D5D"/>
<stop offset="0.36" stop-color="#474747"/>
<stop offset="0.45" stop-color="#373737"/>
<stop offset="0.55" stop-color="#2E2E2E"/>
<stop offset="0.69" stop-color="#2B2B2B"/>
</linearGradient>
<linearGradient id="paint2_linear_4765_10055" x1="33.9097" y1="8.33636" x2="33.9097" y2="163.031" gradientUnits="userSpaceOnUse">
<stop stop-color="#666666"/>
<stop offset="0.5" stop-color="#CCCCCC"/>
<stop offset="0.59" stop-color="#C0C0C0"/>
<stop offset="0.75" stop-color="#A2A2A2"/>
<stop offset="0.96" stop-color="#707070"/>
<stop offset="1" stop-color="#666666"/>
</linearGradient>
<linearGradient id="paint3_linear_4765_10055" x1="33.7772" y1="71.5528" x2="33.7772" y2="-13.4696" gradientUnits="userSpaceOnUse">
<stop offset="0.05" stop-color="#CCCCCC"/>
<stop offset="0.06" stop-color="#C4C4C4"/>
<stop offset="0.13" stop-color="#9C9C9C"/>
<stop offset="0.2" stop-color="#797979"/>
<stop offset="0.28" stop-color="#5D5D5D"/>
<stop offset="0.36" stop-color="#474747"/>
<stop offset="0.45" stop-color="#373737"/>
<stop offset="0.55" stop-color="#2E2E2E"/>
<stop offset="0.69" stop-color="#2B2B2B"/>
</linearGradient>
<linearGradient id="paint4_linear_4765_10055" x1="38.9103" y1="46.5628" x2="8.49011" y2="-15.2417" gradientUnits="userSpaceOnUse">
<stop offset="0.23" stop-color="#CCCCCC"/>
<stop offset="0.24" stop-color="#CECECE"/>
<stop offset="0.39" stop-color="#E4E4E4"/>
<stop offset="0.55" stop-color="#F3F3F3"/>
<stop offset="0.74" stop-color="#FCFCFC"/>
<stop offset="1" stop-color="white"/>
</linearGradient>
<linearGradient id="paint5_linear_4765_10055" x1="36.6065" y1="71.5528" x2="36.6065" y2="-13.4696" gradientUnits="userSpaceOnUse">
<stop offset="0.05" stop-color="#CCCCCC"/>
<stop offset="0.06" stop-color="#C4C4C4"/>
<stop offset="0.13" stop-color="#9C9C9C"/>
<stop offset="0.2" stop-color="#797979"/>
<stop offset="0.28" stop-color="#5D5D5D"/>
<stop offset="0.36" stop-color="#474747"/>
<stop offset="0.45" stop-color="#373737"/>
<stop offset="0.55" stop-color="#2E2E2E"/>
<stop offset="0.69" stop-color="#2B2B2B"/>
</linearGradient>
<clipPath id="clip0_4765_10055">
<rect width="156" height="72" fill="white"/>
</clipPath>
</defs>
</svg>
