<svg width="178" height="92" viewBox="0 0 178 92" fill="none" xmlns="http://www.w3.org/2000/svg">
<path d="M2.50281 46C2.50281 70.0803 41.2297 89.6017 88.9998 89.6017C136.77 89.6017 175.497 70.0803 175.497 46C175.497 21.92 136.77 2.39839 88.9998 2.39839C41.2297 2.39839 2.50281 21.92 2.50281 46Z" fill="url(#paint0_radial_4765_10013)"/>
<path d="M88.9998 86.3644C134.904 86.3644 172.118 68.2925 172.118 45.9999C172.118 23.7076 134.904 5.63541 88.9998 5.63541C43.0955 5.63541 5.88159 23.7076 5.88159 45.9999C5.88159 68.2925 43.0955 86.3644 88.9998 86.3644Z" fill="#777BB3"/>
<path d="M49.4976 51.0047C53.2721 51.0047 56.09 50.3376 57.8729 49.0227C59.6368 47.7213 60.855 45.4666 61.4935 42.3215C62.0889 39.3817 61.8621 37.329 60.8196 36.2213C59.7538 35.0898 57.4493 34.516 53.9704 34.516H47.9383L44.5943 51.0047H49.4976ZM29.7683 71.3157C29.4883 71.3157 29.2223 71.1958 29.0443 70.9883C28.866 70.7811 28.7937 70.5083 28.8472 70.2448L37.7097 26.5496C37.7954 26.1272 38.1818 25.822 38.631 25.822H57.7318C63.7348 25.822 68.2029 27.3839 71.0114 30.4649C73.8349 33.5621 74.7068 37.8914 73.6027 43.3324C73.1535 45.549 72.3807 47.6077 71.3061 49.4508C70.2302 51.2961 68.8083 53.0034 67.0792 54.5263C65.0093 56.3827 62.6667 57.7287 60.1226 58.5208C57.6189 59.3024 54.4034 59.6987 50.5656 59.6987H42.8313L40.6226 70.5878C40.5369 71.0105 40.1508 71.3157 39.7016 71.3157H29.7683Z" fill="black"/>
<path d="M48.712 35.4152H53.9704C58.1692 35.4152 59.6277 36.2981 60.1233 36.8242C60.9454 37.6978 61.1006 39.5398 60.5722 42.1507C59.9784 45.0736 58.8778 47.1461 57.3004 48.3099C55.6855 49.5013 53.06 50.1051 49.4976 50.1051H45.7327L48.712 35.4152ZM57.7318 24.9224H38.6307C37.7322 24.9224 36.9598 25.5328 36.7883 26.3779L27.9259 70.0731C27.8189 70.6005 27.9634 71.1458 28.3198 71.5604C28.6764 71.975 29.2076 72.2148 29.7683 72.2148H39.7013C40.6001 72.2148 41.3725 71.6045 41.544 70.7593L43.605 60.5978H50.5657C54.5019 60.5978 57.8157 60.1865 60.4139 59.3756C63.086 58.5437 65.5443 57.1331 67.7202 55.1833C69.5197 53.5968 71.002 51.816 72.1252 49.8898C73.2486 47.9631 74.0558 45.8144 74.5241 43.5036C75.6863 37.7764 74.7422 33.1901 71.7181 29.8732C68.7235 26.5881 64.0176 24.9224 57.7318 24.9224ZM43.4555 51.9038H49.4976C53.5024 51.9038 56.4854 51.181 58.4454 49.7351C60.4058 48.2889 61.7279 45.8753 62.4149 42.493C63.0722 39.2457 62.7728 36.954 61.5167 35.6191C60.259 34.2841 57.744 33.6164 53.9704 33.6164H47.1647L43.4555 51.9038ZM57.7318 26.7212C63.478 26.7212 67.6698 28.1662 70.3047 31.0565C72.9392 33.9468 73.7326 37.9811 72.6814 43.1607C72.2487 45.2943 71.517 47.2451 70.4868 49.0123C69.4553 50.7808 68.1085 52.3979 66.4441 53.8642C64.4606 55.6429 62.2572 56.9104 59.8326 57.6653C57.408 58.4222 54.3199 58.7991 50.5657 58.7991H42.0574L39.7013 70.4161H29.7683L38.6307 26.7212H57.7318Z" fill="white"/>
<path d="M96.3778 59.6986C96.0974 59.6986 95.8318 59.5787 95.6538 59.3712C95.4752 59.1641 95.4029 58.8916 95.4564 58.6277L99.3768 39.2944C99.7497 37.4557 99.6577 36.136 99.118 35.5784C98.7877 35.2376 97.7953 34.6659 94.8611 34.6659H87.7587L82.8298 58.9707C82.744 59.3934 82.3577 59.6986 81.9084 59.6986H72.0536C71.7733 59.6986 71.5077 59.5787 71.3293 59.3712C71.151 59.1641 71.0788 58.8913 71.1323 58.6277L79.9947 14.9326C80.0804 14.5102 80.4668 14.205 80.916 14.205H90.7708C91.0512 14.205 91.3168 14.3249 91.4951 14.532C91.6734 14.7395 91.7457 15.012 91.6922 15.2758L89.5535 25.822H97.194C103.015 25.822 106.962 26.8053 109.26 28.8283C111.604 30.8921 112.335 34.1919 111.434 38.6372L107.31 58.9707C107.225 59.3934 106.839 59.6986 106.389 59.6986H96.3778Z" fill="black"/>
<path d="M90.771 13.3055H80.9162C80.0174 13.3055 79.2449 13.9159 79.0735 14.761L70.211 58.4562C70.104 58.9835 70.2486 59.5288 70.6052 59.9435C70.9619 60.3581 71.4931 60.5979 72.0537 60.5979H81.9085C82.807 60.5979 83.5798 59.9875 83.7512 59.1424L88.5325 35.5652H94.8612C97.7904 35.5652 98.4052 36.1647 98.4299 36.1905C98.6076 36.3737 98.8413 37.2221 98.4555 39.1228L94.5352 58.4562C94.4282 58.9835 94.5727 59.5288 94.9294 59.9435C95.286 60.3581 95.8173 60.5979 96.3779 60.5979H106.389C107.288 60.5979 108.06 59.9875 108.232 59.1424L112.355 38.8089C113.323 34.0359 112.495 30.4555 109.896 28.1663C107.415 25.9835 103.261 24.9225 97.1941 24.9225H90.6918L92.6137 15.4475C92.7204 14.9202 92.5761 14.3746 92.2195 13.9602C91.8628 13.5456 91.3316 13.3055 90.771 13.3055ZM90.771 15.1043L88.4149 26.7212H97.1941C102.718 26.7212 106.528 27.6452 108.625 29.4907C110.722 31.3375 111.351 34.3297 110.513 38.466L106.389 58.7991H96.3779L100.298 39.4661C100.744 37.2668 100.58 35.7666 99.8058 34.9668C99.0309 34.1669 97.3825 33.7664 94.8612 33.7664H86.9849L81.9085 58.7991H72.0537L80.9162 15.1043H90.771Z" fill="white"/>
<path d="M127.027 51.0047C130.801 51.0047 133.619 50.3376 135.402 49.0227C137.166 47.7216 138.384 45.4669 139.023 42.3215C139.618 39.3817 139.392 37.329 138.349 36.2213C137.283 35.0898 134.979 34.516 131.5 34.516H125.468L122.124 51.0047H127.027ZM107.298 71.3157C107.018 71.3157 106.752 71.1958 106.574 70.9883C106.396 70.7811 106.323 70.5083 106.376 70.2448L115.239 26.5496C115.325 26.1272 115.711 25.822 116.161 25.822H135.261C141.264 25.822 145.732 27.3839 148.541 30.4649C151.364 33.5618 152.236 37.8911 151.132 43.3324C150.682 45.549 149.91 47.6077 148.835 49.4508C147.759 51.2961 146.338 53.0034 144.608 54.5263C142.539 56.3827 140.196 57.7287 137.652 58.5208C135.148 59.3024 131.933 59.6987 128.095 59.6987H120.36L118.153 70.5878C118.066 71.0105 117.68 71.3157 117.231 71.3157H107.298Z" fill="black"/>
<path d="M126.241 35.4152H131.5C135.699 35.4152 137.157 36.2981 137.653 36.8242C138.475 37.6978 138.63 39.5398 138.102 42.1504C137.508 45.0737 136.407 47.1461 134.83 48.3099C133.215 49.5013 130.589 50.1051 127.027 50.1051H123.262L126.241 35.4152ZM135.261 24.9224H116.16C115.262 24.9224 114.489 25.5328 114.318 26.3779L105.456 70.0731C105.349 70.6005 105.493 71.1458 105.849 71.5604C106.206 71.975 106.737 72.2148 107.298 72.2148H117.231C118.129 72.2148 118.902 71.6045 119.074 70.7593L121.134 60.5978H128.095C132.031 60.5978 135.345 60.1865 137.943 59.3756C140.615 58.5437 143.074 57.1328 145.25 55.1827C147.05 53.5965 148.531 51.816 149.655 49.8898C150.778 47.9631 151.585 45.8144 152.053 43.5036C153.216 37.7761 152.272 33.1898 149.247 29.8729C146.253 26.5881 141.547 24.9224 135.261 24.9224ZM120.985 51.9038H127.027C131.032 51.9038 134.015 51.181 135.975 49.7351C137.935 48.2889 139.257 45.8753 139.944 42.493C140.602 39.2457 140.302 36.954 139.046 35.6191C137.788 34.2841 135.273 33.6164 131.5 33.6164H124.694L120.985 51.9038ZM135.261 26.7212C141.007 26.7212 145.199 28.1662 147.834 31.0565C150.469 33.9468 151.262 37.9811 150.211 43.1607C149.778 45.2943 149.046 47.2451 148.016 49.0123C146.985 50.7808 145.638 52.3979 143.973 53.8642C141.99 55.6429 139.787 56.9104 137.362 57.6653C134.937 58.4222 131.849 58.7991 128.095 58.7991H119.587L117.231 70.4161H107.298L116.16 26.7212H135.261Z" fill="white"/>
<defs>
<radialGradient id="paint0_radial_4765_10013" cx="0" cy="0" r="1" gradientUnits="userSpaceOnUse" gradientTransform="translate(54.4361 17.7274) scale(113.583 108.842)">
<stop stop-color="#AEB2D5"/>
<stop offset="0.3" stop-color="#AEB2D5"/>
<stop offset="0.75" stop-color="#484C89"/>
<stop offset="1" stop-color="#484C89"/>
</radialGradient>
</defs>
</svg>
