<svg width="224" height="66" viewBox="0 0 224 66" fill="none" xmlns="http://www.w3.org/2000/svg">
<path d="M79.7654 26.6568C79.7654 20.3897 77.9713 17.17 74.3814 16.9935C72.9538 16.9264 71.5594 17.153 70.2035 17.6775C69.1211 18.0635 68.3926 18.4454 68.0093 18.8311V33.793C70.3046 35.228 72.3432 35.8948 74.1192 35.7902C77.8801 35.5427 79.7624 32.5008 79.7624 26.6564L79.7654 26.6568ZM84.1901 26.9169C84.1901 30.1013 83.4404 32.745 81.9328 34.8455C80.2524 37.2245 77.9234 38.4496 74.9458 38.5167C72.701 38.588 70.3871 37.8874 68.0106 36.4188V50.0162L64.161 48.6483V18.4662C64.7927 17.6944 65.6055 17.0311 66.5911 16.469C68.8821 15.1389 71.6683 14.455 74.9436 14.4214L74.9984 14.4759C77.9928 14.4382 80.3002 15.6631 81.9206 18.1471C83.4325 20.4254 84.1908 23.3468 84.1908 26.9151L84.1901 26.9169Z" fill="#646464"/>
<path d="M107.722 35.8423C107.722 40.1135 107.293 43.0693 106.433 44.7179C105.57 46.3626 103.927 47.6758 101.503 48.6533C99.5361 49.4251 97.4093 49.8448 95.1252 49.9162L94.4892 47.4998C96.81 47.1851 98.4442 46.8705 99.3935 46.5558C101.259 45.9265 102.54 44.9615 103.243 43.6693C103.807 42.6161 104.085 40.6068 104.085 37.6303V36.6317C101.453 37.8232 98.6926 38.415 95.8105 38.415C93.9153 38.415 92.2431 37.8236 90.8025 36.6317C89.1852 35.3353 88.3767 33.6906 88.3767 31.6989V15.7384L92.2263 14.4252V30.489C92.2263 32.2051 92.7824 33.5266 93.8942 34.4537C95.006 35.3809 96.4466 35.8255 98.2113 35.792C99.976 35.7542 101.867 35.0744 103.876 33.7444V15.0032H107.726V35.8406L107.722 35.8423Z" fill="#646464"/>
<path d="M122.759 38.3086C122.3 38.3464 121.879 38.3632 121.491 38.3632C119.314 38.3632 117.617 37.8471 116.406 36.811C115.197 35.7745 114.59 34.3442 114.59 32.5192V17.4152H111.954V15.0026H114.59V8.59775L118.436 7.23413V15.0035H122.761V17.4161H118.436V32.4167C118.436 33.8557 118.823 34.8754 119.598 35.4711C120.263 35.9618 121.321 36.2429 122.761 36.3143V38.3115L122.759 38.3086Z" fill="#646464"/>
<path d="M146.049 37.9945H142.2V23.1918C142.2 21.6857 141.846 20.3892 141.143 19.3067C140.33 18.0817 139.201 17.4692 137.752 17.4692C135.988 17.4692 133.78 18.3963 131.133 20.2506V37.9932H127.283V2.61143L131.133 1.4032V17.5187C133.592 15.7354 136.279 14.8418 139.2 14.8418C141.238 14.8418 142.889 15.5258 144.152 16.8894C145.419 18.253 146.051 19.9519 146.051 21.9814V37.9893L146.049 37.9945Z" fill="#646464"/>
<path d="M166.531 26.0542C166.531 23.6459 166.072 21.6595 165.158 20.0841C164.071 18.1669 162.382 17.1558 160.098 17.0508C155.877 17.2941 153.772 20.3066 153.772 26.0813C153.772 28.7285 154.21 30.9409 155.095 32.7143C156.223 34.9758 157.917 36.0915 160.176 36.0541C164.413 36.0205 166.532 32.6894 166.532 26.0551L166.531 26.0542ZM170.747 26.0794C170.747 29.5069 169.867 32.3594 168.11 34.6364C166.177 37.1872 163.508 38.4669 160.099 38.4669C156.721 38.4669 154.089 37.1872 152.187 34.6364C150.465 32.3581 149.606 29.5056 149.606 26.0794C149.606 22.8572 150.536 20.148 152.398 17.9399C154.365 15.5987 156.952 14.4241 160.145 14.4241C163.342 14.4241 165.944 15.5987 167.949 17.9399C169.811 20.1467 170.741 22.8554 170.741 26.0794H170.747Z" fill="#646464"/>
<path d="M192.802 37.9944H188.953V22.3524C188.953 20.6363 188.435 19.2981 187.399 18.333C186.362 17.3723 184.981 16.9066 183.259 16.9445C181.431 16.978 179.691 17.5738 178.039 18.7277V37.994H174.189V18.2543C176.405 16.6475 178.443 15.5985 180.304 15.1078C182.06 14.6507 183.61 14.4238 184.944 14.4238C185.858 14.4238 186.718 14.5119 187.526 14.6882C189.038 15.0364 190.268 15.6825 191.215 16.6307C192.273 17.6797 192.799 18.9383 192.799 20.4108V37.994L192.802 37.9944Z" fill="#646464"/>
<path d="M26.1463 2.75394C24.1656 2.76311 22.2743 2.93136 20.6111 3.22483C15.7068 4.08786 14.8167 5.89353 14.8167 9.22509V13.6241H26.4013V15.0902H14.8167H10.4698C7.10287 15.0902 4.1525 17.1064 3.23213 20.9398C2.1683 25.3345 2.12121 28.0807 3.23213 32.6692C4.05571 36.0859 6.02263 38.5188 9.38954 38.5188H13.3731V33.2459C13.3731 29.4366 16.6816 26.0749 20.6107 26.0749H32.1823C35.4036 26.0749 37.9768 23.4329 37.9768 20.2124V9.22337C37.9768 6.09583 35.328 3.74824 32.1823 3.22311C30.1921 2.8931 28.1271 2.74318 26.1459 2.75222L26.1463 2.75394ZM19.8809 6.29168C21.0778 6.29168 22.0548 7.28125 22.0548 8.49766C22.0548 9.70976 21.0774 10.6903 19.8809 10.6903C18.6801 10.6903 17.707 9.71019 17.707 8.49766C17.707 7.28125 18.6801 6.29168 19.8809 6.29168Z" fill="url(#paint0_linear_4765_9758)"/>
<path d="M39.4204 15.0868V20.2133C39.4204 24.1866 36.0387 27.5307 32.1827 27.5307H20.6111C17.4412 27.5307 14.8167 30.2329 14.8167 33.3932V44.3822C14.8167 47.5097 17.5471 49.3494 20.6111 50.2447C24.2783 51.3191 27.7969 51.5132 32.1827 50.2447C35.0994 49.4036 37.9771 47.7103 37.9771 44.3822V39.9831H26.4055V38.5171H37.9771H43.7716C47.1385 38.5171 48.395 36.1777 49.566 32.6675C50.7755 29.0522 50.7241 25.5739 49.566 20.9381C48.7338 17.5992 47.1446 15.0885 43.7716 15.0885H39.4247L39.4204 15.0868ZM32.9129 42.9187C34.1137 42.9187 35.0868 43.8988 35.0868 45.1113C35.0868 46.3277 34.1137 47.3173 32.9129 47.3173C31.716 47.3173 30.7391 46.3277 30.7391 45.1113C30.7391 43.8992 31.7165 42.9187 32.9129 42.9187Z" fill="url(#paint1_linear_4765_9758)"/>
<path d="M200.321 11.5831H200.996V7.36652H202.595V6.86377H198.722V7.36652H200.321V11.5831ZM203.193 11.5831H203.77V7.73196L205.021 11.5826H205.663L206.967 7.74487V11.5831H207.596V6.86549H206.764L205.339 10.9086L204.123 6.86549H203.193V11.5831Z" fill="#646464"/>
<path opacity="0.4438" d="M42.0726 57.7242C42.0726 58.5196 40.4367 59.2824 37.5248 59.8448C34.6129 60.4072 30.6635 60.7232 26.5454 60.7232C22.4274 60.7232 18.478 60.4072 15.5661 59.8448C12.6542 59.2824 11.0183 58.5196 11.0183 57.7242C11.0183 56.9288 12.6542 56.166 15.5661 55.6036C18.478 55.0412 22.4274 54.7252 26.5454 54.7252C30.6635 54.7252 34.6129 55.0412 37.5248 55.6036C40.4367 56.166 42.0726 56.9288 42.0726 57.7242Z" fill="url(#paint2_radial_4765_9758)"/>
<defs>
<linearGradient id="paint0_linear_4765_9758" x1="2.41574" y1="2.75299" x2="29.0532" y2="25.5312" gradientUnits="userSpaceOnUse">
<stop stop-color="#5A9FD4"/>
<stop offset="1" stop-color="#306998"/>
</linearGradient>
<linearGradient id="paint1_linear_4765_9758" x1="32.6396" y1="44.7559" x2="23.0862" y2="31.3376" gradientUnits="userSpaceOnUse">
<stop stop-color="#FFD43B"/>
<stop offset="1" stop-color="#FFE873"/>
</linearGradient>
<radialGradient id="paint2_radial_4765_9758" cx="0" cy="0" r="1" gradientUnits="userSpaceOnUse" gradientTransform="translate(26.5661 57.7122) rotate(-90) scale(2.99916 13.2371)">
<stop stop-color="#B8B8B8" stop-opacity="0.498"/>
<stop offset="1" stop-color="#7F7F7F" stop-opacity="0"/>
</radialGradient>
</defs>
</svg>
