<svg width="191" height="67" viewBox="0 0 191 67" fill="none" xmlns="http://www.w3.org/2000/svg">
<g clip-path="url(#clip0_4749_9011)">
<path fill-rule="evenodd" clip-rule="evenodd" d="M154.251 58.2881V67H170.027C173.259 67 178.807 64.6415 179 58.0474V54.6782C179 49.0467 174.369 45.7256 170.027 45.7256H162.163V41.6825H177.746V32.9224H162.79C158.93 32.9224 153.768 36.0991 153.768 42.0194V45.0517C153.768 50.972 158.882 54.0043 162.79 54.0043C173.645 54.0524 160.185 54.0043 170.219 54.0043V58.2399M69.7262 56.1703C69.7262 56.1703 78.169 55.4483 78.169 44.5704C78.169 33.6925 67.9411 32.6818 67.9411 32.6818H49.5117V67H58.7747V58.7213L66.7833 67H80.4847L69.7262 56.1703ZM66.1561 49.143H58.7747V41.2974H66.2043C66.2043 41.2974 68.2788 42.0675 68.2788 45.1961C68.2788 48.3247 66.1561 49.143 66.1561 49.143ZM101.037 32.9224H91.6292C84.9232 32.9224 82.6557 38.9871 82.6557 41.875V67H92.0634V60.9835H100.892V67H110.01V41.875C110.01 34.5589 103.353 32.9224 101.037 32.9224ZM100.892 51.2608H92.0151V42.9339C92.0151 42.9339 92.0151 41.0568 94.958 41.0568H98.1904C100.796 41.0568 100.844 42.9339 100.844 42.9339V51.2608H100.892ZM114.304 32.9224H124.098V67H114.304V32.9224ZM128.102 32.9224V67H151.018V58.1918H137.847V32.9224H128.102Z" fill="#CC0000"/>
<path fill-rule="evenodd" clip-rule="evenodd" d="M-8.62305 67H29.4901C29.4901 67 22.2052 33.8369 46.3274 20.408C51.5861 17.857 68.327 8.32686 95.7298 28.5424C96.5982 27.8204 97.4184 27.2428 97.4184 27.2428C97.4184 27.2428 72.3312 2.26221 44.3977 5.05387C30.3585 6.30531 13.087 19.0603 2.95564 35.9066C-7.17571 52.7529 -8.62305 67 -8.62305 67Z" fill="#CC0000"/>
<path fill-rule="evenodd" clip-rule="evenodd" d="M-8.62305 67H29.4901C29.4901 67 22.2052 33.8369 46.3274 20.408C51.5861 17.857 68.327 8.32686 95.7298 28.5424C96.5982 27.8204 97.4184 27.2428 97.4184 27.2428C97.4184 27.2428 72.3312 2.26221 44.3977 5.05387C30.3585 6.30531 13.087 19.0603 2.95564 35.9066C-7.17571 52.7529 -8.62305 67 -8.62305 67Z" fill="#CC0000"/>
<path fill-rule="evenodd" clip-rule="evenodd" d="M-8.62305 67H29.4901C29.4901 67 22.2052 33.837 46.3274 20.4081C51.5861 17.8571 68.327 8.32691 95.7298 28.5424C96.5982 27.8204 97.4184 27.2429 97.4184 27.2429C97.4184 27.2429 72.3312 2.26226 44.3977 5.05392C30.3103 6.30536 13.0387 19.0604 2.90739 35.9067C-7.22396 52.7529 -8.62305 67 -8.62305 67ZM70.7874 7.74933L70.9804 4.52447C70.5462 4.28381 69.3401 3.70622 66.3007 2.83984L66.1077 6.01657C67.6998 6.54602 69.2436 7.12361 70.7874 7.74933Z" fill="#CC0000"/>
<path fill-rule="evenodd" clip-rule="evenodd" d="M66.2043 17.9533L66.0114 20.9856C67.6034 21.0338 69.1955 21.2263 70.7876 21.5632L70.9806 18.579C69.3402 18.2421 67.7482 18.0496 66.2043 17.9533ZM48.3539 2.93606H48.8363L47.8714 0C46.3759 0 44.832 0.0962644 43.24 0.288793L44.1566 3.12859C45.5557 2.9842 46.9548 2.93606 48.3539 2.93606ZM50.6696 20.6487L51.7792 23.9698C53.1783 23.296 54.5774 22.7184 55.9765 22.2852L54.9151 19.1085C53.2748 19.5898 51.8757 20.1193 50.6696 20.6487ZM28.7666 7.98994L26.5956 4.66882C25.3895 5.29454 24.1351 5.96839 22.8325 6.73851L25.0518 10.1078C26.3061 9.33764 27.5122 8.61566 28.7666 7.98994ZM38.6567 29.6494L40.9725 33.1149C41.7926 31.9116 42.7575 30.8046 43.8189 29.6976L41.6479 26.4246C40.5383 27.4353 39.5251 28.5424 38.6567 29.6494ZM31.6613 45.148L35.5691 48.2284C35.7621 46.3513 36.0998 44.4741 36.5822 42.597L33.1086 39.8535C32.4814 41.6343 32.0472 43.4152 31.6613 45.148ZM10.5302 22.2852L7.10482 19.301C5.85047 20.5043 4.64436 21.7076 3.53473 22.9109L7.24956 26.0876C8.26269 24.7881 9.37232 23.4885 10.5302 22.2852ZM-4.03966 43.8003L-9.58777 41.7787C-10.5044 43.8484 -11.5176 46.255 -12 47.5546L-6.45188 49.5761C-5.8247 47.9397 -4.81157 45.5812 -4.03966 43.8003ZM30.9376 57.3736C31.0341 59.9246 31.2753 61.9943 31.5165 63.4382L37.3059 65.5079C36.8717 63.6307 36.4375 61.5129 36.148 59.2507L30.9376 57.3736Z" fill="#CC0000"/>
</g>
<defs>
<clipPath id="clip0_4749_9011">
<rect width="191" height="67" fill="white"/>
</clipPath>
</defs>
</svg>
