<svg width="184" height="143" viewBox="0 0 184 143" fill="none" xmlns="http://www.w3.org/2000/svg">
<path d="M2.73 113.696H12.21C14.47 113.696 16.21 114.246 17.43 115.346C18.65 116.426 19.26 117.956 19.26 119.936C19.26 122.636 18.17 124.466 15.99 125.426L19.41 135.116H16.62L13.41 126.056C12.85 126.116 12.27 126.146 11.67 126.146H5.43V135.116H2.73V113.696ZM5.43 123.746H11.82C14.96 123.746 16.53 122.476 16.53 119.936C16.53 118.676 16.16 117.726 15.42 117.086C14.68 116.426 13.48 116.096 11.82 116.096H5.43V123.746ZM36.8395 126.656V127.526H25.3195C25.3595 129.346 25.7895 130.766 26.6095 131.786C27.4295 132.786 28.6095 133.286 30.1495 133.286C32.2295 133.286 33.5095 132.506 33.9895 130.946H36.5695C36.3095 132.306 35.6195 133.406 34.4995 134.246C33.3995 135.086 31.9495 135.506 30.1495 135.506C27.8495 135.506 26.0495 134.756 24.7495 133.256C23.4495 131.756 22.7995 129.806 22.7995 127.406C22.7995 125.046 23.4495 123.156 24.7495 121.736C26.0495 120.316 27.8295 119.606 30.0895 119.606C32.2295 119.606 33.8795 120.286 35.0395 121.646C36.1995 122.986 36.7995 124.656 36.8395 126.656ZM30.0295 121.826C28.7295 121.826 27.6895 122.166 26.9095 122.846C26.1295 123.506 25.6495 124.356 25.4695 125.396H34.1995C34.1195 124.376 33.7095 123.526 32.9695 122.846C32.2295 122.166 31.2495 121.826 30.0295 121.826ZM50.4396 135.116V133.526H49.7796C48.7396 134.846 47.1696 135.506 45.0696 135.506C43.4096 135.506 42.0896 135.026 41.1096 134.066C40.1296 133.106 39.6396 131.946 39.6396 130.586C39.6396 129.206 40.1196 128.026 41.0796 127.046C42.0396 126.066 43.4896 125.576 45.4296 125.576H50.3496V124.976C50.3496 124.016 50.0496 123.256 49.4496 122.696C48.8496 122.116 47.9196 121.826 46.6596 121.826C44.4596 121.826 43.2896 122.556 43.1496 124.016H40.5996C40.6996 122.636 41.2896 121.556 42.3696 120.776C43.4696 119.996 44.8796 119.606 46.5996 119.606C48.5396 119.606 50.0596 120.056 51.1596 120.956C52.2796 121.856 52.8396 123.146 52.8396 124.826V135.116H50.4396ZM45.6996 133.286C46.9596 133.286 48.0496 132.876 48.9696 132.056C49.8896 131.216 50.3496 130.196 50.3496 128.996V127.616H45.8196C43.3996 127.616 42.1896 128.576 42.1896 130.496C42.1896 131.356 42.4896 132.036 43.0896 132.536C43.7096 133.036 44.5796 133.286 45.6996 133.286ZM67.7388 130.556H70.2888C69.9888 132.076 69.2788 133.286 68.1588 134.186C67.0588 135.066 65.6488 135.506 63.9288 135.506C61.6488 135.506 59.8488 134.766 58.5288 133.286C57.2288 131.786 56.5788 129.876 56.5788 127.556C56.5788 125.216 57.2288 123.306 58.5288 121.826C59.8288 120.346 61.6288 119.606 63.9288 119.606C65.6688 119.606 67.0788 120.046 68.1588 120.926C69.2588 121.786 69.9388 122.936 70.1988 124.376H67.6488C67.1088 122.676 65.8688 121.826 63.9288 121.826C62.3088 121.826 61.0988 122.366 60.2988 123.446C59.5188 124.506 59.1288 125.856 59.1288 127.496C59.1288 129.156 59.5288 130.536 60.3288 131.636C61.1288 132.736 62.3288 133.286 63.9288 133.286C66.0488 133.286 67.3188 132.376 67.7388 130.556ZM77.6009 119.996H81.4109V122.216H77.6009V130.526C77.6009 131.326 77.8009 131.916 78.2009 132.296C78.6209 132.656 79.3209 132.836 80.3009 132.836H81.4109V135.116H80.2409C78.5209 135.116 77.2209 134.796 76.3409 134.156C75.4809 133.516 75.0509 132.426 75.0509 130.886V122.216H72.4409V119.996H75.0509V115.436H77.6009V119.996ZM109.104 113.696H111.744V135.116H107.484L97.5241 117.206H96.8641V135.116H94.2241V113.696H98.4841L108.444 131.606H109.104V113.696ZM126.553 135.116V133.526H125.893C124.853 134.846 123.283 135.506 121.183 135.506C119.523 135.506 118.203 135.026 117.223 134.066C116.243 133.106 115.753 131.946 115.753 130.586C115.753 129.206 116.233 128.026 117.193 127.046C118.153 126.066 119.603 125.576 121.543 125.576H126.463V124.976C126.463 124.016 126.163 123.256 125.563 122.696C124.963 122.116 124.033 121.826 122.773 121.826C120.573 121.826 119.403 122.556 119.263 124.016H116.713C116.813 122.636 117.403 121.556 118.483 120.776C119.583 119.996 120.993 119.606 122.713 119.606C124.653 119.606 126.173 120.056 127.273 120.956C128.393 121.856 128.953 123.146 128.953 124.826V135.116H126.553ZM121.813 133.286C123.073 133.286 124.163 132.876 125.083 132.056C126.003 131.216 126.463 130.196 126.463 128.996V127.616H121.933C119.513 127.616 118.303 128.576 118.303 130.496C118.303 131.356 118.603 132.036 119.203 132.536C119.823 133.036 120.693 133.286 121.813 133.286ZM137.132 119.996H140.942V122.216H137.132V130.526C137.132 131.326 137.332 131.916 137.732 132.296C138.152 132.656 138.852 132.836 139.832 132.836H140.942V135.116H139.772C138.052 135.116 136.752 134.796 135.872 134.156C135.012 133.516 134.582 132.426 134.582 130.886V122.216H131.972V119.996H134.582V115.436H137.132V119.996ZM147.836 116.066H145.136V113.306H147.836V116.066ZM147.746 119.996V135.116H145.196V119.996H147.746ZM155.963 135.116L150.953 119.996H153.593L157.823 132.716H159.053L163.133 119.996H165.803L160.733 135.116H155.963ZM181.8 126.656V127.526H170.28C170.32 129.346 170.75 130.766 171.57 131.786C172.39 132.786 173.57 133.286 175.11 133.286C177.19 133.286 178.47 132.506 178.95 130.946H181.53C181.27 132.306 180.58 133.406 179.46 134.246C178.36 135.086 176.91 135.506 175.11 135.506C172.81 135.506 171.01 134.756 169.71 133.256C168.41 131.756 167.76 129.806 167.76 127.406C167.76 125.046 168.41 123.156 169.71 121.736C171.01 120.316 172.79 119.606 175.05 119.606C177.19 119.606 178.84 120.286 180 121.646C181.16 122.986 181.76 124.656 181.8 126.656ZM174.99 121.826C173.69 121.826 172.65 122.166 171.87 122.846C171.09 123.506 170.61 124.356 170.43 125.396H179.16C179.08 124.376 178.67 123.526 177.93 122.846C177.19 122.166 176.21 121.826 174.99 121.826Z" fill="#00D8FF"/>
<path d="M83.8439 54.261C88.975 54.261 93.1345 50.1014 93.1345 44.9703C93.1345 39.8393 88.975 35.6797 83.8439 35.6797C78.7128 35.6797 74.5532 39.8393 74.5532 44.9703C74.5532 50.1014 78.7128 54.261 83.8439 54.261Z" fill="#00D8FF"/>
<path fill-rule="evenodd" clip-rule="evenodd" d="M83.8446 26.0809C96.3185 26.0809 107.907 27.8708 116.644 30.8788C127.171 34.503 133.644 39.9964 133.644 44.9708C133.644 50.1544 126.784 55.9904 115.479 59.7359C106.932 62.5676 95.6855 64.0458 83.8446 64.0458C71.7043 64.0458 60.2082 62.6583 51.5652 59.7048C40.6302 55.9672 34.0439 50.0557 34.0439 44.9708C34.0439 40.0368 40.2239 34.5858 50.6031 30.9671C59.373 27.9095 71.2471 26.0809 83.8429 26.0809H83.8446Z" stroke="#00D8FF" stroke-width="1.66272"/>
<path fill-rule="evenodd" clip-rule="evenodd" d="M67.4005 35.5802C73.6323 24.7745 80.9715 15.6303 87.9422 9.56412C96.3408 2.25523 104.333 -0.607132 108.642 1.87762C113.133 4.4672 114.761 13.3252 112.358 24.9891C110.544 33.8077 106.204 44.2886 100.288 54.5462C94.2231 65.063 87.2783 74.3287 80.4026 80.3386C71.7022 87.9441 63.2906 90.6965 58.8858 88.1562C54.6115 85.6931 52.977 77.6149 55.0274 66.8157C56.7599 57.6912 61.1078 46.4915 67.3984 35.5801L67.4005 35.5802Z" stroke="#00D8FF" stroke-width="1.66272"/>
<path fill-rule="evenodd" clip-rule="evenodd" d="M67.4158 54.5737C61.1664 43.7801 56.9116 32.8527 55.1356 23.7841C52.9977 12.8577 54.5093 4.50355 58.8143 2.01158C63.3004 -0.585592 71.7881 2.42715 80.6932 10.3342C87.4261 16.3123 94.3398 25.3048 100.272 35.5527C106.355 46.0593 110.914 56.7038 112.687 65.662C114.931 76.9983 113.115 85.66 108.714 88.2076C104.444 90.6795 96.6302 88.0624 88.2984 80.8924C81.2586 74.8347 73.7269 65.4744 67.4158 54.5735V54.5737Z" stroke="#00D8FF" stroke-width="1.66272"/>
</svg>
