<svg width="25" height="25" viewBox="0 0 25 25" fill="none" xmlns="http://www.w3.org/2000/svg">
<path d="M19.8918 10.7027C19.8918 16.7568 12.108 21.946 12.108 21.946C12.108 21.946 4.32422 16.7568 4.32422 10.7027C4.32422 8.63834 5.14429 6.65851 6.60404 5.19876C8.06378 3.73902 10.0436 2.91895 12.108 2.91895C14.1724 2.91895 16.1522 3.73902 17.612 5.19876C19.0717 6.65851 19.8918 8.63834 19.8918 10.7027Z" stroke="#828282" stroke-linecap="round" stroke-linejoin="round"/>
<path d="M12.108 13.2973C13.541 13.2973 14.7026 12.1357 14.7026 10.7027C14.7026 9.26977 13.541 8.10813 12.108 8.10813C10.675 8.10813 9.51341 9.26977 9.51341 10.7027C9.51341 12.1357 10.675 13.2973 12.108 13.2973Z" stroke="#828282" stroke-linecap="round" stroke-linejoin="round"/>
</svg>
