<svg width="24" height="24" viewBox="0 0 24 24" fill="none" xmlns="http://www.w3.org/2000/svg">
<path d="M15.8818 14.6172L15.882 14.6172L15.8854 14.6061C16.1475 13.7562 17.2992 13.4492 18.0004 14.1489L20.6612 16.8042L21.0144 16.4502L20.6612 16.8042C21.1157 17.2576 21.1499 18.0862 20.6486 18.6693L18.8556 20.4585L19.2088 20.8125L18.8556 20.4585C18.4998 20.8136 17.9711 21.012 17.2524 21.0133C16.5296 21.0147 15.649 20.8146 14.6587 20.4091C12.6797 19.5986 10.3576 18.0065 8.1583 15.8118C5.9606 13.6187 4.38886 11.3024 3.58821 9.32781C3.18755 8.3397 2.98902 7.45939 2.98636 6.7356C2.98371 6.01695 3.17254 5.48869 3.50663 5.13508L5.30737 3.33812C5.7624 2.88405 6.59446 2.84999 7.17944 3.35069L9.82771 5.99339C10.5272 6.69137 10.2223 7.83924 9.36892 8.10126L9.36888 8.10113L9.35788 8.10479C8.29252 8.45912 7.5236 9.64998 7.89395 10.8022C8.16748 11.9208 8.99581 13.1057 9.96064 14.0563C10.9318 15.0132 12.1246 15.8146 13.1959 16.0819L13.1958 16.082L13.2086 16.0849C14.2893 16.3246 15.5079 15.7367 15.8818 14.6172Z" stroke="#828282"/>
</svg>
