<svg width="465" height="242" viewBox="0 0 465 242" fill="none" xmlns="http://www.w3.org/2000/svg">
<g clip-path="url(#clip0_6926_12015)">
<path d="M435.835 67.0111C435.835 67.0111 430.224 66.6054 430.742 79.2143C431.26 91.8233 432.542 98.5401 432.542 98.5401C432.542 98.5401 432.376 101.333 430.211 100.788C428.046 100.243 423.983 97.5159 421.978 99.5509C419.972 101.586 420.65 104.871 423.399 108.708C426.147 112.546 431.911 121.091 432.422 121.863C432.933 122.634 433.139 124.057 431.605 123.924C430.072 123.791 419.727 120.273 418.326 125.254C416.925 130.235 426.393 139.619 427.409 140.663C428.425 141.707 428.471 142.365 428.073 142.991C427.675 143.616 424.302 142.113 421.314 141.235C418.326 140.357 414.72 139.865 414.169 142.824C413.618 145.784 417.781 154.449 433.352 163.553L440.841 167.297L447.932 162.769C462.54 152.128 465.787 143.117 464.944 140.224C464.1 137.331 460.561 138.189 457.68 139.36C454.798 140.53 451.598 142.372 451.126 141.78C450.655 141.188 450.648 140.537 451.551 139.399C452.454 138.262 460.907 128.014 459.047 123.159C457.188 118.305 447.242 122.834 445.728 123.159C444.214 123.485 444.281 122.009 444.706 121.164C445.131 120.32 450.017 111.235 452.375 107.199C454.732 103.162 455.157 99.8369 452.873 97.9482C450.588 96.0595 446.897 99.2384 444.799 100.003C442.7 100.768 442.262 98.0081 442.262 98.0081C442.262 98.0081 442.866 91.1915 442.123 78.5959C441.379 66.0002 435.702 67.0177 435.702 67.0177" fill="#7EAE6C"/>
<path d="M436.28 78.3033C436.28 78.3033 436.28 78.3897 436.28 78.5626L436.34 79.3407C436.386 80.0057 436.459 81.0365 436.545 82.3134C436.718 84.9003 436.937 88.6445 437.209 93.2731C437.727 102.53 438.325 115.319 438.942 129.444C439.56 143.569 440.124 156.364 440.589 165.621C440.821 170.237 441.014 173.981 441.14 176.581C441.207 177.865 441.26 178.869 441.293 179.56C441.293 179.893 441.293 180.152 441.293 180.339C441.293 180.525 441.293 180.605 441.293 180.605C441.288 180.516 441.288 180.427 441.293 180.339C441.293 180.152 441.293 179.893 441.233 179.567C441.187 178.869 441.12 177.871 441.034 176.588C440.861 174.001 440.642 170.257 440.37 165.635C439.859 156.378 439.254 143.589 438.644 129.457C438.033 115.325 437.455 102.537 436.997 93.2864C436.758 88.6644 436.572 84.927 436.439 82.32C436.373 81.0365 436.326 80.039 436.293 79.3407C436.293 79.0082 436.293 78.7555 436.293 78.5693C436.284 78.4809 436.28 78.3921 436.28 78.3033Z" fill="#216C1A"/>
<path d="M427.515 103.588C427.687 103.695 427.843 103.825 427.98 103.973C428.266 104.239 428.644 104.638 429.169 105.117C430.158 106.101 431.486 107.491 432.92 109.048L436.585 113.038L437.701 114.248C437.85 114.387 437.981 114.543 438.093 114.714C437.92 114.606 437.761 114.476 437.621 114.328C437.336 114.069 436.957 113.663 436.439 113.177C435.463 112.186 434.148 110.783 432.714 109.187L429.023 105.197L427.9 103.993C427.635 103.767 427.495 103.601 427.515 103.588Z" fill="#216C1A"/>
<path d="M438.836 114.494C438.776 114.434 441.492 111.561 444.951 108.077C448.411 104.592 451.219 101.805 451.272 101.859C451.325 101.912 448.616 104.791 445.157 108.276C441.698 111.761 438.889 114.547 438.836 114.494Z" fill="#216C1A"/>
<path d="M438.803 136.234C438.965 136.103 439.141 135.992 439.327 135.901L440.788 135.077C442.03 134.378 443.73 133.414 445.575 132.284C447.421 131.153 449.055 130.069 450.223 129.278L451.624 128.347C451.786 128.218 451.965 128.113 452.155 128.034C452.018 128.188 451.862 128.324 451.691 128.44C451.379 128.686 450.914 129.032 450.363 129.444C449.207 130.282 447.587 131.393 445.715 132.523C443.843 133.654 442.143 134.605 440.881 135.256C440.217 135.582 439.732 135.835 439.367 136.001C439.189 136.102 439 136.18 438.803 136.234Z" fill="#216C1A"/>
<path d="M426.393 128.626C426.577 128.679 426.751 128.76 426.911 128.865C427.236 129.038 427.701 129.298 428.272 129.624C429.414 130.289 430.975 131.186 432.694 132.21C434.414 133.235 435.968 134.206 437.077 134.871C437.634 135.216 438.086 135.502 438.405 135.702C438.723 135.901 438.876 136.028 438.863 136.048C438.682 135.984 438.508 135.902 438.345 135.802C438.019 135.629 437.561 135.369 437.017 135.043C435.875 134.378 434.308 133.481 432.588 132.457C430.868 131.432 429.321 130.461 428.206 129.796C427.648 129.451 427.203 129.131 426.878 128.965C426.706 128.868 426.543 128.755 426.393 128.626Z" fill="#216C1A"/>
<path d="M423.936 147.812C424.166 147.901 424.388 148.007 424.6 148.131L426.34 149.096C427.807 149.92 429.826 151.091 432.037 152.367C434.248 153.644 436.253 154.841 437.694 155.693L439.394 156.737C439.606 156.857 439.808 156.995 439.998 157.149C439.765 157.07 439.542 156.963 439.334 156.83L437.594 155.865C436.127 155.041 434.115 153.87 431.897 152.594C429.68 151.317 427.681 150.12 426.24 149.268L424.541 148.224C424.323 148.112 424.12 147.974 423.936 147.812Z" fill="#216C1A"/>
<path d="M439.639 156.836C439.848 156.674 440.07 156.529 440.303 156.404L442.123 155.294C443.663 154.356 445.781 153.052 448.099 151.549C450.416 150.047 452.448 148.637 453.922 147.613L455.675 146.389C455.883 146.229 456.105 146.089 456.339 145.97C456.159 146.163 455.959 146.334 455.741 146.482C455.349 146.795 454.765 147.24 454.041 147.772C452.594 148.849 450.562 150.286 448.258 151.762C445.954 153.239 443.816 154.549 442.282 155.44C441.499 155.885 440.861 156.238 440.416 156.471C440.173 156.624 439.912 156.747 439.639 156.836Z" fill="#216C1A"/>
<path d="M450.927 169.785H430.204L436.97 221.058H444.168L450.927 169.785Z" fill="#A15621"/>
<path d="M431.28 176.089C431.28 176.089 431.28 176.162 431.386 176.269C431.524 176.426 431.697 176.549 431.891 176.628C432.251 176.754 432.635 176.796 433.014 176.75C433.393 176.703 433.756 176.571 434.075 176.362C434.912 175.896 435.642 174.992 436.764 174.586C438.009 174.191 439.349 174.219 440.576 174.666C441.823 175.093 443.014 175.671 444.121 176.388C445.05 176.967 446.015 177.484 447.01 177.938C447.685 178.244 448.401 178.452 449.134 178.556C449.335 178.583 449.537 178.596 449.739 178.596C449.878 178.596 449.944 178.596 449.951 178.596C448.966 178.446 448.007 178.158 447.103 177.738C446.134 177.257 445.192 176.724 444.281 176.142C443.16 175.396 441.948 174.797 440.675 174.36C439.378 173.889 437.958 173.875 436.652 174.32C436.098 174.544 435.586 174.862 435.138 175.258C434.761 175.585 434.366 175.892 433.956 176.175C433.668 176.374 433.342 176.508 432.998 176.569C432.654 176.629 432.302 176.615 431.964 176.528C431.708 176.43 431.475 176.281 431.28 176.089Z" fill="#D4DDD1"/>
<path d="M432.037 185.532C432.037 185.532 432.196 185.32 432.522 184.981C432.993 184.518 433.556 184.16 434.175 183.93C435.098 183.596 436.077 183.45 437.057 183.498C438.267 183.588 439.471 183.752 440.662 183.99C441.878 184.223 443.122 184.275 444.354 184.143C445.359 184.014 446.34 183.733 447.262 183.311C447.88 183.03 448.465 182.682 449.008 182.274C449.217 182.138 449.403 181.97 449.559 181.775C448.796 182.276 447.997 182.721 447.169 183.105C446.259 183.484 445.3 183.732 444.321 183.843C443.117 183.958 441.903 183.9 440.715 183.67C439.512 183.43 438.294 183.272 437.07 183.198C436.05 183.163 435.035 183.342 434.089 183.724C433.448 183.981 432.877 184.387 432.422 184.907C432.307 185.052 432.203 185.206 432.11 185.366C432.05 185.466 432.024 185.526 432.037 185.532Z" fill="#D4DDD1"/>
<path d="M448.577 190.587C448.404 190.458 448.211 190.359 448.006 190.294C447.453 190.087 446.874 189.962 446.286 189.922C445.417 189.869 444.546 189.921 443.69 190.075C442.727 190.228 441.698 190.494 440.602 190.74C439.591 190.98 438.554 191.099 437.515 191.092C436.672 191.068 435.841 190.888 435.065 190.56C434.358 190.229 433.726 189.759 433.206 189.177C433.288 189.377 433.407 189.56 433.557 189.715C433.952 190.16 434.43 190.521 434.965 190.78C435.761 191.152 436.623 191.365 437.501 191.405C438.567 191.43 439.631 191.319 440.669 191.072C441.771 190.839 442.8 190.567 443.743 190.407C444.576 190.245 445.424 190.171 446.273 190.188C447.053 190.232 447.826 190.365 448.577 190.587Z" fill="#D4DDD1"/>
<path d="M433.863 197.729C434.49 197.457 435.186 197.385 435.855 197.523C436.584 197.704 437.29 197.967 437.96 198.308C438.82 198.72 439.746 198.977 440.695 199.066C442.426 199.216 444.16 198.813 445.649 197.915C446.094 197.645 446.508 197.326 446.884 196.964C447.136 196.698 447.269 196.539 447.249 196.525C446.697 196.951 446.123 197.346 445.529 197.709C444.061 198.513 442.389 198.867 440.722 198.727C438.73 198.614 437.256 197.443 435.895 197.29C435.372 197.199 434.834 197.245 434.334 197.423C434.153 197.481 433.99 197.587 433.863 197.729Z" fill="#D4DDD1"/>
<path d="M434.992 207.545C435.586 207.56 436.175 207.442 436.718 207.199C437.76 206.853 439.048 206.049 440.556 205.45C441.257 205.164 442.004 205.009 442.76 204.991C443.372 204.989 443.976 205.128 444.526 205.397C445.029 205.667 445.466 206.044 445.808 206.501C445.808 206.501 445.808 206.328 445.615 206.062C445.362 205.698 445.028 205.397 444.639 205.184C444.066 204.864 443.423 204.69 442.767 204.679C441.968 204.68 441.176 204.836 440.436 205.137C438.876 205.756 437.628 206.581 436.632 206.98C435.636 207.379 434.992 207.492 434.992 207.545Z" fill="#D4DDD1"/>
<path d="M436.034 212.12C436.452 212.332 436.9 212.478 437.362 212.553C438.442 212.808 439.538 212.992 440.642 213.105C441.745 213.213 442.855 213.244 443.962 213.198C444.425 213.207 444.888 213.153 445.336 213.038C445.336 212.932 443.238 213.038 440.689 212.765C438.139 212.493 436.061 212.021 436.034 212.12Z" fill="#D4DDD1"/>
<path d="M457.142 221.743C457.142 221.836 354.796 221.916 228.581 221.916C102.365 221.916 -0.00012207 221.836 -0.00012207 221.743C-0.00012207 221.65 102.319 221.57 228.581 221.57C354.843 221.57 457.142 221.67 457.142 221.743Z" fill="#263238"/>
<path d="M238.68 14.0682C238.68 14.3541 227.173 14.5869 212.984 14.5869C198.795 14.5869 187.281 14.3541 187.281 14.0682C187.281 13.7822 198.782 13.5494 212.984 13.5494C227.187 13.5494 238.68 13.7822 238.68 14.0682Z" fill="#455A64"/>
<path d="M333.39 32.4496H68.1108C62.7679 32.4496 58.4366 36.7877 58.4366 42.139V211.276C58.4366 216.627 62.7679 220.965 68.1108 220.965H333.39C338.733 220.965 343.064 216.627 343.064 211.276V42.139C343.064 36.7877 338.733 32.4496 333.39 32.4496Z" fill="#263238"/>
<path d="M46.9366 207.026H355.301V211.681C355.301 214.821 354.056 217.832 351.839 220.052C349.623 222.272 346.617 223.519 343.482 223.519H58.7487C55.6142 223.519 52.608 222.272 50.3916 220.052C48.1751 217.832 46.9299 214.821 46.9299 211.681V207.026H46.9366Z" fill="#263238"/>
<path d="M335.023 39.9378H66.4773V199.139H335.023V39.9378Z" fill="#455A64"/>
<path d="M173.086 207.039H173.384H174.287H177.793L190.807 206.986L234.311 206.893H234.636L234.47 207.172L232.744 210.138L230.918 213.271L230.865 213.357H230.759L176.917 213.257H176.87V213.218C175.642 211.222 174.699 209.68 174.048 208.629L173.345 207.465L173.112 207.079C173.112 207.079 173.212 207.219 173.384 207.485L174.135 208.649L177.01 213.131L176.943 213.091L230.785 212.991L230.626 213.085L232.452 209.952L234.178 206.986L234.338 207.266L191.013 207.172L177.913 207.039H174.347H173.418H173.086Z" fill="#455A64"/>
<path d="M343.057 207.039C343.057 207.133 279.315 207.212 200.754 207.212C122.192 207.212 58.4366 207.133 58.4366 207.039C58.4366 206.946 122.178 206.867 200.754 206.867C279.329 206.867 343.057 206.933 343.057 207.039Z" fill="#455A64"/>
<path d="M270.418 8.14941C272.531 8.14941 274.558 8.9902 276.052 10.4868C277.546 11.9834 278.386 14.0132 278.386 16.1298V32.4695H254.596V17.38C254.596 14.9319 255.566 12.5841 257.295 10.853C259.023 9.12192 261.367 8.14941 263.812 8.14941H270.418Z" fill="#263238"/>
<path d="M270.418 8.1494C270.418 8.2425 247.989 8.30236 220.328 8.27575C192.666 8.24915 170.224 8.15605 170.224 8.06295C170.224 7.96984 192.653 7.90334 220.328 7.92994C248.002 7.95654 270.418 8.04964 270.418 8.1494Z" fill="#263238"/>
<path d="M270.212 8.12946L260.299 8.06296L245.897 8.14941H140.099C135.785 8.14941 131.647 9.86601 128.596 12.9216C125.546 15.9771 123.832 20.1214 123.832 24.4426V199.525H260.844V17.0807C261.249 8.14941 270.212 8.12946 270.212 8.12946Z" fill="white"/>
<path d="M270.212 8.12947L187.593 8.30902H146.287H141.122C140.258 8.30902 139.409 8.30903 138.565 8.38883C137.718 8.47807 136.879 8.63147 136.056 8.8477C133.575 9.48634 131.285 10.7143 129.379 12.4276C127.473 14.1409 126.008 16.2891 125.107 18.6901C124.947 19.0832 124.809 19.4851 124.695 19.8938L124.376 21.1308C124.217 21.9672 124.117 22.8139 124.077 23.6645C124.004 27.0894 124.077 30.5542 124.077 33.9924L124.184 199.491L123.858 199.159L260.87 199.245L260.631 199.491L260.697 101.067L260.777 51.8551L260.824 27.249V21.1042V18.0517C260.806 17.5387 260.828 17.0251 260.89 16.5155C260.919 16.0034 260.999 15.4955 261.129 14.9992C261.555 12.9642 262.743 11.1699 264.449 9.9849C265.291 9.39701 266.221 8.94797 267.204 8.65484C268.18 8.34805 269.191 8.1714 270.212 8.12947ZM270.212 8.12947C269.188 8.17305 268.175 8.35194 267.198 8.66149C266.219 8.95539 265.293 9.40443 264.456 9.99154C262.763 11.1779 261.588 12.9668 261.169 14.9926C261.045 15.4897 260.967 15.9973 260.936 16.5088C260.877 17.0163 260.857 17.5278 260.877 18.0384V21.1175V27.269L260.923 51.875L261.003 101.087L261.069 199.511V199.751H260.824L123.812 199.844H123.48V199.511L123.586 34.0257C123.586 30.5742 123.586 27.1426 123.626 23.6778C123.667 22.8046 123.771 21.9356 123.938 21.0776L124.263 19.8074C124.382 19.3875 124.524 18.9745 124.688 18.5704C125.615 16.1094 127.121 13.9086 129.077 12.1546C131.034 10.4007 133.385 9.14537 135.929 8.49523C136.773 8.27357 137.632 8.11793 138.499 8.02971C139.369 7.98316 140.239 7.93661 141.095 7.94991H146.261H187.567L270.212 8.12947Z" fill="#263238"/>
<path d="M144.468 39.6518H168.371L168.411 47.6721H167.276C166.9 44.7991 165.826 42.8572 164.056 41.8464C162.659 41.1994 161.132 40.8852 159.594 40.9287V61.8837C159.594 63.3468 159.853 64.3177 160.364 64.7965C160.875 65.2754 161.937 65.5214 163.551 65.5214V66.5323H149.395V65.5214C150.949 65.5214 151.978 65.2754 152.489 64.7899C153 64.3044 153.253 63.3335 153.253 61.8837V40.9287C151.724 40.8975 150.208 41.2112 148.817 41.8464C146.918 42.8838 145.847 44.8257 145.604 47.6721H144.455L144.468 39.6518Z" fill="#E8505B"/>
<path d="M242.046 41.4474C242.046 41.7333 228.853 41.9661 212.592 41.9661C196.331 41.9661 183.132 41.7333 183.132 41.4474C183.132 41.1614 196.318 40.922 212.592 40.922C228.866 40.922 242.046 41.1681 242.046 41.4474Z" fill="#E8505B"/>
<path d="M207.095 50.8841C207.095 51.1701 201.995 51.4029 195.701 51.4029C189.406 51.4029 184.314 51.1701 184.314 50.8841C184.314 50.5982 189.413 50.3654 195.701 50.3654C201.989 50.3654 207.095 50.5982 207.095 50.8841Z" fill="#455A64"/>
<path d="M178.384 79.6466C178.384 79.9326 168.697 80.1653 156.752 80.1653C144.807 80.1653 135.119 79.9326 135.119 79.6466C135.119 79.3606 144.807 79.1212 156.752 79.1212C168.697 79.1212 178.384 79.354 178.384 79.6466Z" fill="#455A64"/>
<path d="M227.366 79.6466C227.366 79.9326 217.685 80.1653 205.74 80.1653C193.795 80.1653 184.108 79.9326 184.108 79.6466C184.108 79.3606 193.788 79.1212 205.74 79.1212C217.692 79.1212 227.366 79.354 227.366 79.6466Z" fill="#E8505B"/>
<path d="M178.384 87.3343C178.384 87.6269 168.697 87.8531 156.752 87.8531C144.807 87.8531 135.119 87.6269 135.119 87.3343C135.119 87.0417 144.833 86.8023 156.785 86.8023C168.737 86.8023 178.384 87.0351 178.384 87.3343Z" fill="#455A64"/>
<path d="M178.384 95.0022C178.384 95.2881 168.697 95.5209 156.752 95.5209C144.807 95.5209 135.119 95.2881 135.119 95.0022C135.119 94.7162 144.807 94.4834 156.752 94.4834C168.697 94.4834 178.384 94.7162 178.384 95.0022Z" fill="#E8505B"/>
<path d="M207.095 66.5256C207.095 66.8182 201.995 67.051 195.701 67.051C189.406 67.051 184.314 66.8182 184.314 66.5256C184.314 66.233 189.413 66.0069 195.701 66.0069C201.989 66.0069 207.095 66.2397 207.095 66.5256Z" fill="#455A64"/>
<path d="M246.595 79.6466C246.595 79.9326 243.195 80.1653 239.005 80.1653C234.816 80.1653 231.409 79.9326 231.409 79.6466C231.409 79.3606 234.809 79.1212 239.005 79.1212C243.202 79.1212 246.595 79.354 246.595 79.6466Z" fill="#455A64"/>
<path d="M250.658 50.8841C250.658 51.1701 241.907 51.4029 231.117 51.4029C220.328 51.4029 211.576 51.1701 211.576 50.8841C211.576 50.5982 220.321 50.3654 231.117 50.3654C241.914 50.3654 250.658 50.5982 250.658 50.8841Z" fill="#455A64"/>
<path d="M248.899 58.3724C248.899 58.6583 234.437 58.8911 216.609 58.8911C198.782 58.8911 184.314 58.6583 184.314 58.3724C184.314 58.0864 198.768 57.8536 216.609 57.8536C234.45 57.8536 248.899 58.0731 248.899 58.3724Z" fill="#455A64"/>
<path d="M246.595 87.3343C246.595 87.6269 232.605 87.8531 215.388 87.8531C198.171 87.8531 184.141 87.6269 184.141 87.3343C184.141 87.0417 198.131 86.8156 215.388 86.8156C232.644 86.8156 246.595 87.0351 246.595 87.3343Z" fill="#455A64"/>
<path d="M246.595 109.56C246.595 109.846 233.468 110.078 217.28 110.078C201.092 110.078 187.959 109.846 187.959 109.56C187.959 109.274 201.086 109.041 217.28 109.041C233.474 109.041 246.595 109.28 246.595 109.56Z" fill="#E8505B"/>
<path d="M246.595 117.035C246.595 117.321 233.468 117.553 217.28 117.553C201.092 117.553 187.959 117.321 187.959 117.035C187.959 116.749 201.086 116.516 217.28 116.516C233.474 116.516 246.595 116.749 246.595 117.035Z" fill="#455A64"/>
<path d="M246.595 124.509C246.595 124.795 233.468 125.028 217.28 125.028C201.092 125.028 187.992 124.795 187.992 124.509C187.992 124.223 201.119 123.991 217.313 123.991C233.508 123.991 246.595 124.223 246.595 124.509Z" fill="#455A64"/>
<path d="M246.595 131.984C246.595 132.27 233.468 132.503 217.28 132.503C201.092 132.503 187.959 132.27 187.959 131.984C187.959 131.698 201.086 131.459 217.28 131.459C233.474 131.459 246.595 131.692 246.595 131.984Z" fill="#455A64"/>
<path d="M221.715 139.459C221.715 139.599 219.83 139.732 216.775 139.825C213.721 139.918 209.472 139.978 204.824 139.978C200.176 139.978 195.946 139.918 192.872 139.825C189.798 139.732 187.926 139.599 187.926 139.459C187.926 139.32 189.818 139.18 192.872 139.087C195.926 138.994 200.176 138.934 204.824 138.934C209.472 138.934 213.708 138.994 216.775 139.087C219.843 139.18 221.715 139.313 221.715 139.459Z" fill="#455A64"/>
<path d="M235.971 95.4078C235.971 95.6938 224.683 95.9265 210.74 95.9265C196.796 95.9265 185.509 95.6938 185.509 95.4078C185.509 95.1218 196.796 94.8891 210.74 94.8891C224.683 94.8891 235.971 95.1218 235.971 95.4078Z" fill="#455A64"/>
<path d="M177.362 110.398L180.476 168.095L124.144 175.158L124.104 109.912L177.362 110.398Z" fill="#E0E0E0"/>
<path d="M104.452 106.396L104.057 167.604L180.493 168.098L180.887 106.89L104.452 106.396Z" fill="#D4DDD1"/>
<path d="M107.056 110.271L106.711 163.771L177.775 164.231L178.12 110.73L107.056 110.271Z" fill="#E8505B"/>
<g opacity="0.2">
<path d="M106.694 163.766L131.733 130.674L146.971 151.576L157.475 140.523L177.76 164.225L106.694 163.766Z" fill="black"/>
</g>
<g opacity="0.2">
<path d="M153.658 126.744C153.651 127.853 153.316 128.935 152.696 129.853C152.075 130.771 151.197 131.484 150.172 131.903C149.146 132.321 148.02 132.425 146.936 132.202C145.851 131.98 144.857 131.44 144.079 130.651C143.301 129.863 142.774 128.86 142.564 127.772C142.355 126.683 142.472 125.556 142.902 124.535C143.332 123.513 144.054 122.641 144.978 122.031C145.902 121.42 146.986 121.098 148.093 121.104C148.828 121.109 149.556 121.258 150.233 121.544C150.91 121.83 151.525 122.246 152.042 122.77C152.558 123.294 152.967 123.914 153.244 124.596C153.522 125.278 153.662 126.008 153.658 126.744Z" fill="black"/>
</g>
<path d="M187.833 182.54C187.833 182.774 187.763 183.003 187.633 183.197C187.504 183.392 187.319 183.544 187.103 183.633C186.887 183.723 186.649 183.747 186.42 183.701C186.191 183.655 185.98 183.542 185.815 183.377C185.65 183.211 185.537 183 185.492 182.771C185.446 182.541 185.469 182.303 185.559 182.087C185.648 181.871 185.8 181.686 185.994 181.556C186.188 181.426 186.417 181.356 186.651 181.356C186.964 181.356 187.265 181.481 187.486 181.703C187.708 181.925 187.833 182.226 187.833 182.54Z" fill="#263238"/>
<path d="M194.844 182.54C194.844 182.774 194.775 183.003 194.645 183.197C194.515 183.392 194.331 183.544 194.115 183.633C193.899 183.723 193.661 183.747 193.432 183.701C193.202 183.655 192.992 183.542 192.827 183.377C192.661 183.211 192.549 183 192.503 182.771C192.458 182.541 192.481 182.303 192.57 182.087C192.66 181.871 192.811 181.686 193.006 181.556C193.2 181.426 193.429 181.356 193.662 181.356C193.976 181.356 194.276 181.481 194.498 181.703C194.72 181.925 194.844 182.226 194.844 182.54Z" fill="#263238"/>
<path d="M201.856 182.54C201.856 182.774 201.786 183.003 201.657 183.197C201.527 183.392 201.342 183.544 201.126 183.633C200.91 183.723 200.673 183.747 200.443 183.701C200.214 183.655 200.003 183.542 199.838 183.377C199.673 183.211 199.56 183 199.515 182.771C199.469 182.541 199.493 182.303 199.582 182.087C199.671 181.871 199.823 181.686 200.017 181.556C200.212 181.426 200.44 181.356 200.674 181.356C200.987 181.356 201.288 181.481 201.51 181.703C201.731 181.925 201.856 182.226 201.856 182.54Z" fill="#263238"/>
<path d="M227.698 155.034C227.698 155.32 218.01 155.553 206.065 155.553C194.12 155.553 184.44 155.32 184.44 155.034C184.44 154.748 194.12 154.516 206.065 154.516C218.01 154.516 227.698 154.748 227.698 155.034Z" fill="#E8505B"/>
<path d="M246.927 162.715C246.927 163.001 232.937 163.234 215.72 163.234C198.503 163.234 184.473 163.001 184.473 162.715C184.473 162.429 198.456 162.19 215.72 162.19C232.983 162.19 246.927 162.423 246.927 162.715Z" fill="#455A64"/>
<path d="M387.278 176.248L386.91 213.117L432.95 213.578L433.318 176.709L387.278 176.248Z" fill="white"/>
<path d="M386.007 177.842L385.799 210.069L428.605 210.346L428.812 178.119L386.007 177.842Z" fill="#E8505B"/>
<path opacity="0.2" d="M385.771 210.065L400.85 190.128L410.033 202.717L416.36 196.06L428.578 210.338L385.771 210.065Z" fill="black"/>
<g opacity="0.2">
<path d="M414.056 187.754C414.052 188.423 413.85 189.076 413.474 189.63C413.099 190.184 412.568 190.614 411.948 190.865C411.328 191.116 410.648 191.177 409.993 191.04C409.339 190.903 408.74 190.575 408.273 190.096C407.805 189.617 407.49 189.01 407.368 188.352C407.245 187.694 407.321 187.014 407.585 186.399C407.849 185.784 408.289 185.261 408.85 184.897C409.412 184.533 410.068 184.345 410.736 184.355C411.626 184.368 412.474 184.732 413.096 185.369C413.718 186.005 414.063 186.863 414.056 187.754Z" fill="black"/>
</g>
<path d="M377.685 171.662L377.448 208.53L423.487 208.828L423.725 171.96L377.685 171.662Z" fill="white"/>
<path d="M379.25 173.993L379.043 206.22L421.848 206.497L422.056 174.27L379.25 173.993Z" fill="#E8505B"/>
<path opacity="0.2" d="M379.018 206.215L394.097 186.277L403.28 198.866L409.608 192.209L421.825 206.487L379.018 206.215Z" fill="black"/>
<g opacity="0.2">
<path d="M407.304 183.91C407.3 184.579 407.097 185.233 406.722 185.787C406.346 186.341 405.815 186.77 405.195 187.021C404.575 187.272 403.895 187.333 403.241 187.196C402.586 187.059 401.987 186.731 401.52 186.252C401.052 185.774 400.737 185.167 400.615 184.508C400.492 183.85 400.568 183.17 400.832 182.555C401.096 181.94 401.537 181.417 402.098 181.053C402.659 180.69 403.315 180.501 403.984 180.511C404.873 180.525 405.72 180.89 406.342 181.527C406.963 182.163 407.309 183.019 407.304 183.91Z" fill="black"/>
</g>
<path d="M371.664 168.476L371.426 205.344L417.466 205.642L417.703 168.774L371.664 168.476Z" fill="white"/>
<path d="M373.242 170.814L373.035 203.04L415.84 203.317L416.048 171.091L373.242 170.814Z" fill="#E8505B"/>
<path opacity="0.2" d="M373.009 203.029L388.088 183.092L397.271 195.687L403.592 189.03L415.816 203.309L373.009 203.029Z" fill="black"/>
<g opacity="0.2">
<path d="M401.295 180.731C401.291 181.4 401.088 182.054 400.713 182.608C400.337 183.162 399.806 183.592 399.186 183.843C398.566 184.094 397.886 184.154 397.232 184.017C396.577 183.881 395.978 183.552 395.511 183.073C395.043 182.595 394.728 181.988 394.606 181.33C394.483 180.671 394.559 179.991 394.823 179.376C395.087 178.761 395.528 178.239 396.089 177.875C396.65 177.511 397.306 177.322 397.975 177.333C398.864 177.347 399.711 177.711 400.333 178.348C400.954 178.984 401.3 179.841 401.295 180.731Z" fill="black"/>
</g>
<path d="M367.688 173.165L367.32 210.034L413.361 210.495L413.729 173.626L367.688 173.165Z" fill="white"/>
<path d="M366.486 174.776L366.278 207.003L409.084 207.28L409.292 175.053L366.486 174.776Z" fill="#455A64"/>
<path opacity="0.2" d="M366.257 206.993L381.336 187.055L390.518 199.644L396.839 192.987L409.063 207.266L366.257 206.993Z" fill="black"/>
<g opacity="0.2">
<path d="M394.542 184.688C394.538 185.357 394.335 186.011 393.96 186.565C393.585 187.119 393.053 187.548 392.434 187.799C391.814 188.05 391.134 188.111 390.479 187.974C389.825 187.837 389.226 187.509 388.758 187.03C388.291 186.552 387.976 185.945 387.853 185.286C387.731 184.628 387.806 183.948 388.07 183.333C388.334 182.718 388.775 182.195 389.336 181.832C389.897 181.468 390.554 181.279 391.222 181.29C392.11 181.305 392.957 181.671 393.578 182.307C394.199 182.943 394.546 183.798 394.542 184.688Z" fill="black"/>
</g>
<path d="M437.508 186.144H410.929V221.743H437.508V186.144Z" fill="#263238"/>
<path d="M360.015 186.144V221.743H413.18V186.144H360.015ZM392.251 194.57H380.964C380.632 194.588 380.3 194.537 379.988 194.422C379.676 194.306 379.391 194.129 379.15 193.899C378.908 193.67 378.716 193.394 378.585 193.088C378.454 192.782 378.386 192.453 378.386 192.12C378.386 191.787 378.454 191.457 378.585 191.151C378.716 190.845 378.908 190.569 379.15 190.34C379.391 190.111 379.676 189.933 379.988 189.817C380.3 189.702 380.632 189.652 380.964 189.669H392.251C392.583 189.652 392.916 189.702 393.227 189.817C393.539 189.933 393.825 190.111 394.066 190.34C394.307 190.569 394.499 190.845 394.63 191.151C394.761 191.457 394.829 191.787 394.829 192.12C394.829 192.453 394.761 192.782 394.63 193.088C394.499 193.394 394.307 193.67 394.066 193.899C393.825 194.129 393.539 194.306 393.227 194.422C392.916 194.537 392.583 194.588 392.251 194.57Z" fill="#E8505B"/>
<path d="M280.803 133.594C280.928 133.66 281.044 133.743 281.148 133.84L282.084 134.611L285.404 137.411L285.51 137.511L285.417 137.617C284.189 139.093 282.821 140.942 281.287 142.877C280.935 143.31 280.59 143.742 280.252 144.134L279.973 144.474V144.035C279.833 140.916 279.727 138.162 279.667 136.181C279.641 135.236 279.621 134.458 279.607 133.846C279.575 133.564 279.575 133.278 279.607 132.995C279.665 133.273 279.698 133.556 279.707 133.84C279.747 134.452 279.8 135.23 279.866 136.167C279.986 138.162 280.139 140.902 280.285 144.021L279.986 143.915L281.009 142.658C282.542 140.736 283.93 138.894 285.192 137.431V137.637L281.978 134.738L281.095 133.886C280.889 133.713 280.789 133.607 280.803 133.594Z" fill="#455A64"/>
</g>
<defs>
<clipPath id="clip0_6926_12015">
<rect width="465" height="242" fill="white"/>
</clipPath>
</defs>
</svg>
