<svg width="129" height="125" viewBox="0 0 129 125" fill="none" xmlns="http://www.w3.org/2000/svg">
<path d="M123.987 116.596C123.987 120.597 97.3519 123.828 64.4905 123.828C31.6489 123.828 5.01367 120.597 5.01367 116.596C5.01367 112.595 31.6489 109.348 64.4905 109.348C97.3519 109.348 123.987 112.595 123.987 116.596Z" fill="#DAE8F0"/>
<path d="M64.5005 67.3262V122.511H18.8643V85.2098H48.4718L64.5005 67.3262Z" fill="white"/>
<path d="M110.136 85.2098V122.511H64.5V67.3262L80.5287 85.2098H110.136Z" fill="white"/>
<path d="M64.4999 67.3262L48.4712 85.2098H2.83496L18.8637 67.3262H64.4999Z" fill="#DAE8F0"/>
<path d="M126.165 85.2098H80.5287L64.5 67.3262H110.136L126.165 85.2098Z" fill="#DAE8F0"/>
<path d="M127.647 83.8836L111.619 66.0003C111.24 65.5788 110.702 65.3379 110.137 65.3379C38.3744 65.3379 90.6146 65.3379 18.8632 65.3379C18.298 65.3379 17.7599 65.5788 17.3811 66.0003L1.35293 83.8836C0.830367 84.4664 0.698285 85.3055 1.0188 86.0224C1.33936 86.7372 2.05034 87.1995 2.83513 87.1995H16.8741V122.512C16.8741 123.611 17.7638 124.501 18.8633 124.501H64.5H110.137C111.236 124.501 112.126 123.611 112.126 122.512V87.1995H126.165C126.95 87.1995 127.661 86.7372 127.981 86.0223C128.302 85.3055 128.17 84.4664 127.647 83.8836ZM19.751 69.3163H60.0457L47.5841 83.2212C38.2641 83.2212 16.6734 83.2212 7.28944 83.2212L19.751 69.3163ZM20.8524 87.1995H48.4719C49.0372 87.1995 49.5753 86.9587 49.9541 86.5371L62.5108 72.5273V120.522H20.8524V87.1995ZM108.148 120.522H66.4892V72.5273L79.0459 86.5371C79.4247 86.9587 79.9628 87.1996 80.5281 87.1996H108.148L108.148 120.522ZM81.4159 83.2212L68.9543 69.3163H109.249L121.711 83.2212C112.313 83.2212 90.7252 83.2212 81.4159 83.2212Z" fill="#626975"/>
<path d="M36.1443 37.774L41.9992 38.753C42.2323 39.3805 42.4887 39.9943 42.7665 40.5926L39.3049 45.4316C38.7396 46.2242 38.8289 47.3081 39.5166 47.9977L47.0188 55.4902C47.7123 56.1818 48.7924 56.2653 49.583 55.7L54.418 52.2422C55.0163 52.522 55.6302 52.7784 56.2518 53.0057L57.2309 58.8703C57.3902 59.8299 58.2197 60.5331 59.1929 60.5331H69.7954C70.7687 60.5331 71.5981 59.8299 71.7574 58.8703L72.7345 53.0057C73.3581 52.7784 73.9719 52.522 74.5703 52.2422L79.4053 55.7C80.1998 56.2653 81.2779 56.1779 81.9695 55.4902L89.4717 47.9977C90.1593 47.3081 90.2487 46.2242 89.6834 45.4316L86.2256 40.5985C86.5073 39.9982 86.7637 39.3824 86.9949 38.7511L92.8537 37.774C93.8133 37.6147 94.5165 36.7852 94.5165 35.812V25.2211C94.5165 24.2498 93.8133 23.4184 92.8556 23.2591L86.9949 22.28C86.7637 21.6506 86.5073 21.0329 86.2256 20.4327L89.6834 15.5996C90.2487 14.807 90.1593 13.7211 89.4717 13.0334L81.9695 5.54291C81.2779 4.85525 80.1998 4.76977 79.4053 5.33311L74.5702 8.79088C73.97 8.50921 73.3581 8.25473 72.7345 8.02745L71.7574 2.16284C71.5981 1.20322 70.7686 0.5 69.7954 0.5H59.1929C58.2196 0.5 57.3902 1.20322 57.2309 2.16089L56.2518 8.02745C55.6302 8.25473 55.0163 8.50921 54.418 8.79088L49.583 5.33311C48.7924 4.76977 47.7123 4.85525 47.0188 5.54291L39.5166 13.0335C38.8289 13.7211 38.7396 14.807 39.3049 15.5996L42.7665 20.4385C42.4887 21.0368 42.2323 21.6507 41.9992 22.2801L36.1443 23.2591C35.1866 23.4204 34.4834 24.2499 34.4834 25.2211V35.812C34.4834 36.7833 35.1866 37.6147 36.1443 37.774ZM38.4618 26.9053L43.8233 26.0079C44.5595 25.8855 45.1656 25.3591 45.3909 24.6481C45.7775 23.4301 46.2651 22.2665 46.8362 21.1864C47.1917 20.5201 47.1373 19.7101 46.6983 19.0962L43.5222 14.6575L48.6389 9.5485L53.0796 12.7246C53.6973 13.1656 54.5093 13.218 55.1795 12.8586C56.2635 12.2759 57.4135 11.796 58.5965 11.4367C59.3191 11.2152 59.8553 10.6053 59.9796 9.86126L60.877 4.47842H68.1092L69.0067 9.85933C69.131 10.6053 69.6672 11.2152 70.3898 11.4367C71.5747 11.7961 72.7248 12.2759 73.8087 12.8587C74.4789 13.22 75.2889 13.1656 75.9086 12.7246L80.3493 9.54852L85.466 14.6575L82.29 19.0962C81.847 19.7159 81.7965 20.5318 82.1579 21.2001C82.7367 22.2704 83.2204 23.4262 83.5934 24.6326C83.8149 25.3513 84.4229 25.8836 85.1649 26.0079L90.5381 26.9054V34.1279L85.1669 35.0234C84.4229 35.1477 83.8148 35.68 83.5934 36.3987C83.2204 37.6051 82.7367 38.7609 82.1578 39.8313C81.7965 40.4995 81.847 41.3154 82.2899 41.9351L85.466 46.3738L80.3493 51.4828L75.9086 48.3067C75.287 47.8619 74.4711 47.8133 73.8067 48.1746C72.7228 48.7593 71.5747 49.2372 70.3917 49.5946C69.6671 49.8141 69.131 50.426 69.0066 51.172L68.1092 56.5548H60.877L59.9795 51.172C59.8552 50.426 59.3191 49.8141 58.5945 49.5946C57.4115 49.2352 56.2634 48.7574 55.1814 48.1746C54.5151 47.8152 53.7012 47.8638 53.0795 48.3067L48.6388 51.4828L43.5221 46.3738L46.6982 41.9351C47.1372 41.3212 47.1916 40.5112 46.8361 39.8449C46.265 38.7648 45.7774 37.6012 45.3909 36.3832C45.1655 35.6722 44.5595 35.1458 43.8232 35.0234L38.4617 34.1279L38.4618 26.9053Z" fill="#626975"/>
<path d="M78.4857 30.5203C78.4857 38.2465 72.2211 44.5112 64.4949 44.5112C56.7687 44.5112 50.5039 38.2465 50.5039 30.5203C50.5039 22.794 56.7687 16.5293 64.4949 16.5293C72.2211 16.5293 78.4857 22.794 78.4857 30.5203Z" fill="#F69A8B"/>
</svg>
