<svg width="33" height="32" viewBox="0 0 33 32" fill="none" xmlns="http://www.w3.org/2000/svg">
<g clip-path="url(#clip0_6439_1562)">
<path fill-rule="evenodd" clip-rule="evenodd" d="M24.5784 11.4159C24.5811 11.3208 24.5792 11.2229 24.5793 11.1278C24.5796 10.8912 24.5798 10.6546 24.5798 10.4181C24.5798 9.7162 24.5798 9.01432 24.5798 8.31245C24.5794 7.2739 24.5789 6.23532 24.5783 5.1967C24.5783 3.80482 22.2859 2.99182 21.2304 2.67301C20.0928 2.32926 18.8978 2.10426 17.7217 1.94295C16.3825 1.76244 15.0346 1.65501 13.6838 1.62113C13.3233 1.61138 12.9628 1.60649 12.6022 1.60645C12.2466 1.60645 11.8911 1.61122 11.5357 1.62076C10.1831 1.65411 8.83326 1.76115 7.49229 1.94138C6.31454 2.10238 5.11766 2.32763 3.97866 2.67126C2.92241 2.99001 0.625977 3.80326 0.625977 5.1967V25.2361C0.625977 26.6299 2.9221 27.4428 3.97873 27.7615C5.11766 28.1053 6.3146 28.3303 7.49229 28.4912C8.83338 28.6714 10.1833 28.7785 11.536 28.8118C11.8914 28.8213 12.2469 28.8261 12.6025 28.8261C12.9092 28.8261 13.2159 28.8217 13.5226 28.8149L13.65 28.8124V29.0531C13.6505 29.4085 13.7919 29.7491 14.0431 30.0004C14.2944 30.2517 14.635 30.3931 14.9904 30.3936H31.0341C31.3895 30.3932 31.7301 30.2518 31.9814 30.0005C32.2327 29.7492 32.3741 29.4085 32.3745 29.0531V25.1203C32.3745 24.932 32.3348 24.7459 32.2581 24.5741C32.1814 24.4022 32.0694 24.2484 31.9293 24.1227L31.8264 24.0299L31.929 23.9374C32.0691 23.8117 32.1811 23.6579 32.2578 23.486C32.3345 23.3141 32.3742 23.128 32.3742 22.9398V19.0069C32.3742 18.8187 32.3346 18.6326 32.2579 18.4607C32.1812 18.2888 32.0691 18.135 31.929 18.0093L31.826 17.9165L31.929 17.8237C32.0691 17.6979 32.1811 17.5441 32.2579 17.3721C32.3346 17.2002 32.3742 17.014 32.3742 16.8258V12.8936C32.3738 12.5383 32.2325 12.1975 31.9812 11.9463C31.7299 11.695 31.3892 11.5536 31.0338 11.5532H24.5563L24.5785 11.416L24.5784 11.4159ZM31.0338 24.4049C31.2236 24.405 31.4055 24.4804 31.5398 24.6145C31.6741 24.7486 31.7497 24.9305 31.75 25.1203V29.0528C31.7497 29.2426 31.6741 29.4246 31.5397 29.5587C31.4054 29.6928 31.2234 29.7681 31.0335 29.7681H14.9898C14.8 29.7681 14.6179 29.6928 14.4836 29.5587C14.3493 29.4246 14.2736 29.2426 14.2733 29.0528V25.1203C14.2736 24.9304 14.3493 24.7485 14.4836 24.6144C14.6179 24.4803 14.8 24.405 14.9898 24.4049H31.0338ZM19.027 25.8391C19.2737 25.8391 19.5149 25.9122 19.7201 26.0493C19.9253 26.1863 20.0852 26.3812 20.1796 26.6091C20.274 26.8371 20.2988 27.0879 20.2506 27.3299C20.2025 27.5719 20.0837 27.7942 19.9092 27.9686C19.7348 28.1431 19.5125 28.2619 19.2705 28.31C19.0285 28.3582 18.7777 28.3335 18.5497 28.239C18.3218 28.1446 18.1269 27.9847 17.9899 27.7795C17.8528 27.5743 17.7797 27.3331 17.7797 27.0864C17.7803 26.7558 17.9118 26.4388 18.1456 26.205C18.3794 25.9712 18.6963 25.8397 19.027 25.8391ZM16.3762 25.8391C16.623 25.8391 16.8642 25.9123 17.0693 26.0493C17.2745 26.1864 17.4344 26.3812 17.5288 26.6092C17.6232 26.8371 17.648 27.0879 17.5998 27.3299C17.5517 27.5719 17.4329 27.7942 17.2584 27.9687C17.0839 28.1431 16.8616 28.2619 16.6196 28.3101C16.3777 28.3582 16.1268 28.3335 15.8989 28.239C15.6709 28.1446 15.4761 27.9847 15.3391 27.7795C15.202 27.5743 15.1289 27.3331 15.1289 27.0864C15.1294 26.7557 15.261 26.4388 15.4948 26.205C15.7286 25.9712 16.0456 25.8396 16.3762 25.8391ZM21.6778 25.8391C21.9245 25.8391 22.1657 25.9122 22.3709 26.0493C22.5761 26.1863 22.736 26.3812 22.8304 26.6091C22.9249 26.8371 22.9496 27.0879 22.9015 27.3299C22.8533 27.5719 22.7345 27.7942 22.56 27.9686C22.3856 28.1431 22.1633 28.2619 21.9213 28.31C21.6793 28.3582 21.4285 28.3335 21.2005 28.239C20.9726 28.1446 20.7777 27.9847 20.6407 27.7795C20.5036 27.5743 20.4305 27.3331 20.4305 27.0864C20.4311 26.7558 20.5626 26.4388 20.7964 26.205C21.0302 25.9712 21.3472 25.8397 21.6778 25.8391ZM24.1104 27.0864C24.1109 26.7558 24.2425 26.4388 24.4763 26.205C24.7101 25.9712 25.027 25.8396 25.3577 25.8391H29.6479C29.9772 25.8415 30.2922 25.9739 30.5243 26.2076C30.7563 26.4413 30.8865 26.7572 30.8865 27.0865C30.8865 27.4159 30.7563 27.7318 30.5243 27.9655C30.2922 28.1992 29.9772 28.3316 29.6479 28.3339H25.3577C25.027 28.3334 24.71 28.2018 24.4762 27.9679C24.2424 27.7341 24.1109 27.4171 24.1104 27.0864ZM31.0338 18.2916C31.2236 18.2917 31.4055 18.367 31.5398 18.5011C31.6741 18.6352 31.7497 18.8171 31.75 19.0069V22.9394C31.7496 23.1292 31.674 23.3111 31.5397 23.4452C31.4054 23.5793 31.2233 23.6547 31.0335 23.6548H14.9898C14.8 23.6547 14.618 23.5793 14.4837 23.4452C14.3493 23.3111 14.2737 23.1292 14.2733 22.9394V19.0069C14.2736 18.8171 14.3493 18.6352 14.4836 18.501C14.6179 18.3669 14.8 18.2916 14.9898 18.2916H31.0338ZM21.6775 19.7258C21.9243 19.7257 22.1655 19.7989 22.3706 19.9359C22.5758 20.073 22.7357 20.2678 22.8302 20.4957C22.9246 20.7237 22.9493 20.9745 22.9012 21.2165C22.8531 21.4585 22.7343 21.6808 22.5598 21.8553C22.3853 22.0297 22.163 22.1485 21.921 22.1967C21.679 22.2448 21.4282 22.2201 21.2003 22.1256C20.9723 22.0312 20.7775 21.8713 20.6404 21.6661C20.5034 21.4609 20.4303 21.2197 20.4303 20.973C20.4308 20.6424 20.5624 20.3254 20.7962 20.0917C21.03 19.8579 21.3469 19.7263 21.6775 19.7258ZM19.0267 19.7258C19.2735 19.7257 19.5147 19.7989 19.7198 19.9359C19.925 20.073 20.0849 20.2678 20.1794 20.4957C20.2738 20.7237 20.2985 20.9745 20.2504 21.2165C20.2023 21.4585 20.0835 21.6808 19.909 21.8553C19.7345 22.0297 19.5122 22.1485 19.2702 22.1967C19.0282 22.2448 18.7774 22.2201 18.5495 22.1256C18.3215 22.0312 18.1267 21.8713 17.9896 21.6661C17.8526 21.4609 17.7794 21.2197 17.7795 20.973C17.78 20.6424 17.9116 20.3254 18.1454 20.0917C18.3792 19.8579 18.6961 19.7263 19.0267 19.7258ZM16.376 19.7258C16.6227 19.7257 16.8639 19.7989 17.0691 19.9359C17.2742 20.073 17.4341 20.2678 17.5286 20.4958C17.623 20.7237 17.6477 20.9746 17.5996 21.2166C17.5514 21.4585 17.4326 21.6808 17.2582 21.8553C17.0837 22.0298 16.8614 22.1486 16.6194 22.1967C16.3774 22.2448 16.1266 22.2201 15.8986 22.1256C15.6707 22.0312 15.4759 21.8713 15.3388 21.6661C15.2018 21.4609 15.1286 21.2197 15.1287 20.973C15.1292 20.6424 15.2608 20.3254 15.4946 20.0916C15.7284 19.8578 16.0453 19.7263 16.376 19.7258ZM24.1104 20.973C24.1109 20.6424 24.2425 20.3254 24.4763 20.0916C24.7101 19.8578 25.027 19.7263 25.3577 19.7258H29.6479C29.9772 19.7281 30.2922 19.8605 30.5243 20.0942C30.7563 20.3279 30.8865 20.6439 30.8865 20.9732C30.8865 21.3025 30.7563 21.6184 30.5243 21.8521C30.2922 22.0858 29.9772 22.2182 29.6479 22.2206H25.3577C25.027 22.22 24.71 22.0884 24.4762 21.8546C24.2424 21.6207 24.1109 21.3037 24.1104 20.973ZM14.9904 17.5414C14.8005 17.5413 14.6185 17.4659 14.4841 17.3317C14.3498 17.1976 14.2742 17.0156 14.2739 16.8258V12.8936C14.2742 12.7038 14.3498 12.5219 14.4842 12.3878C14.6185 12.2537 14.8005 12.1784 14.9904 12.1783H31.0341C31.2238 12.1785 31.4057 12.2539 31.5399 12.388C31.6741 12.5221 31.7497 12.7039 31.75 12.8936V16.8259C31.7497 17.0157 31.6741 17.1977 31.5398 17.3318C31.4054 17.466 31.2234 17.5414 31.0335 17.5415L14.9904 17.5414ZM20.2743 14.8596C20.2743 15.1063 20.2012 15.3475 20.0641 15.5526C19.9271 15.7577 19.7323 15.9176 19.5043 16.012C19.2764 16.1065 19.0256 16.1312 18.7837 16.083C18.5417 16.0349 18.3195 15.9161 18.145 15.7417C17.9706 15.5673 17.8518 15.345 17.8036 15.1031C17.7555 14.8611 17.7802 14.6103 17.8746 14.3824C17.969 14.1545 18.1289 13.9597 18.334 13.8226C18.5391 13.6855 18.7803 13.6124 19.027 13.6124C19.3576 13.6129 19.6746 13.7445 19.9084 13.9783C20.1422 14.2121 20.2737 14.529 20.2743 14.8596ZM17.6235 14.8596C17.6235 15.1063 17.5503 15.3475 17.4133 15.5526C17.2762 15.7578 17.0814 15.9176 16.8535 16.012C16.6256 16.1065 16.3748 16.1312 16.1328 16.083C15.8909 16.0349 15.6686 15.9161 15.4942 15.7417C15.3197 15.5672 15.2009 15.345 15.1528 15.103C15.1047 14.8611 15.1294 14.6103 15.2238 14.3823C15.3182 14.1544 15.4781 13.9596 15.6832 13.8226C15.8884 13.6855 16.1295 13.6124 16.3762 13.6124C16.7069 13.6129 17.0238 13.7445 17.2576 13.9783C17.4914 14.2121 17.6229 14.529 17.6235 14.8596ZM22.9251 14.8596C22.9251 15.1063 22.852 15.3475 22.7149 15.5526C22.5779 15.7577 22.3831 15.9176 22.1552 16.012C21.9272 16.1065 21.6764 16.1312 21.4345 16.083C21.1925 16.0349 20.9703 15.9161 20.7958 15.7417C20.6214 15.5673 20.5026 15.345 20.4544 15.1031C20.4063 14.8611 20.431 14.6103 20.5254 14.3824C20.6198 14.1545 20.7797 13.9597 20.9848 13.8226C21.1899 13.6855 21.4311 13.6124 21.6778 13.6124C22.0084 13.6129 22.3253 13.7445 22.5591 13.9783C22.7929 14.2121 22.9245 14.529 22.925 14.8596H22.9251ZM25.3577 16.1072C25.0284 16.1049 24.7133 15.9724 24.4813 15.7387C24.2493 15.5051 24.1191 15.1891 24.1191 14.8598C24.1191 14.5305 24.2493 14.2145 24.4813 13.9808C24.7133 13.7472 25.0284 13.6147 25.3577 13.6124H29.6479C29.9772 13.6147 30.2922 13.7472 30.5243 13.9808C30.7563 14.2145 30.8865 14.5305 30.8865 14.8598C30.8865 15.1891 30.7563 15.5051 30.5243 15.7387C30.2922 15.9724 29.9772 16.1049 29.6479 16.1072H25.3577ZM12.602 22.2713C12.9086 22.2713 13.2182 22.2669 13.5249 22.2601V22.9394C13.5248 23.1455 13.5684 23.3492 13.6527 23.5371C13.7371 23.7251 13.8604 23.893 14.0144 24.0299C13.8604 24.1667 13.7371 24.3347 13.6527 24.5226C13.5684 24.7105 13.5248 24.9142 13.5249 25.1203V28.1898C13.2182 28.1965 12.9086 28.2013 12.602 28.2013C9.50298 28.2013 6.59266 27.8589 4.41366 27.2371C2.46166 26.6816 1.25004 25.9149 1.25004 25.2361V19.9153C3.07816 21.4543 7.95523 22.2716 12.6022 22.2716L12.602 22.2713ZM12.602 25.5378C12.5278 25.5379 12.4552 25.5159 12.3935 25.4748C12.3318 25.4337 12.2836 25.3751 12.2552 25.3066C12.2267 25.2381 12.2192 25.1627 12.2336 25.0899C12.248 25.0171 12.2837 24.9503 12.3361 24.8978C12.3886 24.8453 12.4554 24.8095 12.5281 24.795C12.6009 24.7805 12.6763 24.7879 12.7449 24.8163C12.8134 24.8446 12.872 24.8927 12.9132 24.9544C12.9545 25.016 12.9765 25.0886 12.9765 25.1628C12.9765 25.2621 12.937 25.3574 12.8668 25.4277C12.7966 25.4981 12.7013 25.5376 12.602 25.5378ZM12.602 15.5915C12.9086 15.5915 13.2182 15.5868 13.5249 15.5803V16.8258C13.5247 17.0318 13.5683 17.2356 13.6527 17.4236C13.7371 17.6116 13.8603 17.7796 14.0144 17.9165C13.8603 18.0533 13.7371 18.2213 13.6527 18.4092C13.5683 18.5972 13.5247 18.8009 13.5249 19.0069V21.5099C13.2182 21.5168 12.9086 21.5211 12.602 21.5211C9.50298 21.5211 6.59266 21.1788 4.41366 20.5573C2.46166 20.0018 1.25004 19.2351 1.25004 18.5561V13.2356C3.07816 14.7744 7.95523 15.5918 12.6022 15.5918L12.602 15.5915ZM12.602 18.8579C12.5278 18.858 12.4552 18.8361 12.3935 18.795C12.3318 18.7538 12.2836 18.6953 12.2552 18.6268C12.2267 18.5583 12.2192 18.4829 12.2336 18.4101C12.248 18.3373 12.2837 18.2705 12.3361 18.218C12.3886 18.1655 12.4554 18.1297 12.5281 18.1152C12.6009 18.1007 12.6763 18.1081 12.7449 18.1364C12.8134 18.1648 12.872 18.2129 12.9132 18.2746C12.9545 18.3362 12.9765 18.4088 12.9765 18.4829C12.9765 18.5823 12.937 18.6776 12.8668 18.7479C12.7966 18.8182 12.7013 18.8578 12.602 18.8579ZM1.25004 11.8762V6.55576C3.07816 8.09432 7.95523 8.91138 12.6022 8.91138C17.2492 8.91138 22.1263 8.09432 23.9515 6.55576V11.4281H14.9904C14.6018 11.4285 14.2294 11.5831 13.9547 11.8579C13.68 12.1326 13.5255 12.5051 13.525 12.8936V14.8303C13.2184 14.8371 12.9088 14.8415 12.6022 14.8415C9.50316 14.8415 6.59285 14.4991 4.41385 13.8776C2.46166 13.3219 1.25004 12.555 1.25004 11.8762ZM12.6022 12.1782C12.528 12.1783 12.4555 12.1564 12.3938 12.1152C12.332 12.0741 12.2839 12.0156 12.2554 11.947C12.227 11.8785 12.2195 11.8031 12.2339 11.7303C12.2483 11.6576 12.284 11.5907 12.3364 11.5382C12.3888 11.4857 12.4556 11.4499 12.5284 11.4354C12.6011 11.4209 12.6766 11.4283 12.7451 11.4567C12.8137 11.4851 12.8723 11.5331 12.9135 11.5948C12.9547 11.6565 12.9767 11.729 12.9767 11.8032C12.9767 11.9026 12.9373 11.998 12.867 12.0683C12.7967 12.1386 12.7014 12.1781 12.602 12.1782H12.6022Z" fill="#F7B319"/>
<path fill-rule="evenodd" clip-rule="evenodd" d="M16.3761 26.589C16.4744 26.5892 16.5705 26.6185 16.6521 26.6733C16.7338 26.7281 16.7974 26.8058 16.8349 26.8967C16.8724 26.9876 16.882 27.0876 16.8627 27.184C16.8434 27.2804 16.7959 27.3689 16.7263 27.4384C16.6567 27.5078 16.5681 27.5551 16.4716 27.5742C16.3752 27.5933 16.2752 27.5833 16.1844 27.5456C16.0936 27.5079 16.016 27.4442 15.9614 27.3624C15.9069 27.2806 15.8778 27.1845 15.8778 27.0861C15.8782 26.9542 15.9309 26.8278 16.0243 26.7346C16.1177 26.6415 16.2442 26.5891 16.3761 26.589ZM16.3761 28.3337C16.6228 28.3337 16.864 28.2606 17.0692 28.1235C17.2743 27.9865 17.4342 27.7917 17.5287 27.5637C17.6231 27.3358 17.6478 27.085 17.5997 26.843C17.5516 26.601 17.4328 26.3787 17.2584 26.2043C17.084 26.0298 16.8617 25.911 16.6197 25.8628C16.3777 25.8147 16.1269 25.8393 15.899 25.9337C15.671 26.0281 15.4762 26.188 15.3391 26.3931C15.202 26.5982 15.1288 26.8394 15.1288 27.0861C15.1292 27.4168 15.2608 27.7339 15.4946 27.9677C15.7284 28.2016 16.0454 28.3332 16.3761 28.3337ZM19.0269 26.589C19.1252 26.5892 19.2212 26.6185 19.3029 26.6733C19.3846 26.7281 19.4481 26.8058 19.4856 26.8967C19.5231 26.9876 19.5328 27.0876 19.5135 27.184C19.4942 27.2804 19.4467 27.3689 19.3771 27.4384C19.3075 27.5078 19.2189 27.5551 19.1224 27.5742C19.0259 27.5933 18.926 27.5833 18.8352 27.5456C18.7444 27.5079 18.6668 27.4442 18.6122 27.3624C18.5576 27.2806 18.5285 27.1845 18.5285 27.0861C18.5289 26.9542 18.5816 26.8278 18.675 26.7346C18.7684 26.6415 18.8949 26.5891 19.0269 26.589ZM19.0269 28.3337C19.2736 28.3337 19.5148 28.2606 19.7199 28.1236C19.9251 27.9865 20.085 27.7917 20.1795 27.5638C20.2739 27.3359 20.2986 27.085 20.2505 26.8431C20.2024 26.6011 20.0837 26.3788 19.9092 26.2043C19.7348 26.0298 19.5125 25.911 19.2706 25.8628C19.0286 25.8147 18.7778 25.8393 18.5498 25.9337C18.3218 26.0281 18.127 26.188 17.9899 26.3931C17.8528 26.5982 17.7796 26.8394 17.7796 27.0861C17.7801 27.4168 17.9116 27.7338 18.1454 27.9677C18.3792 28.2015 18.6962 28.3332 19.0269 28.3337ZM21.6777 26.589C21.776 26.5892 21.8721 26.6185 21.9537 26.6733C22.0354 26.7281 22.099 26.8058 22.1365 26.8967C22.174 26.9876 22.1837 27.0876 22.1644 27.184C22.1451 27.2804 22.0976 27.3689 22.028 27.4384C21.9584 27.5078 21.8698 27.5551 21.7733 27.5742C21.6768 27.5933 21.5769 27.5833 21.4861 27.5456C21.3953 27.5079 21.3177 27.4442 21.2631 27.3624C21.2085 27.2806 21.1794 27.1845 21.1794 27.0861C21.1793 27.0207 21.1921 26.9559 21.2171 26.8955C21.2421 26.835 21.2788 26.7801 21.3251 26.7339C21.3714 26.6877 21.4264 26.6511 21.4869 26.6262C21.5474 26.6014 21.6123 26.5887 21.6777 26.589ZM21.6777 28.3337C21.9244 28.3337 22.1656 28.2606 22.3707 28.1236C22.5759 27.9865 22.7358 27.7917 22.8303 27.5638C22.9247 27.3359 22.9495 27.085 22.9014 26.8431C22.8533 26.6011 22.7345 26.3788 22.56 26.2043C22.3856 26.0298 22.1633 25.911 21.9214 25.8628C21.6794 25.8147 21.4286 25.8393 21.2006 25.9337C20.9727 26.0281 20.7778 26.188 20.6407 26.3931C20.5036 26.5982 20.4304 26.8394 20.4304 27.0861C20.4309 27.4168 20.5624 27.7338 20.7962 27.9677C21.03 28.2015 21.347 28.3332 21.6777 28.3337ZM25.3575 26.589H29.6478C29.7136 26.5883 29.7788 26.6006 29.8398 26.6252C29.9008 26.6499 29.9563 26.6864 30.003 26.7327C30.0498 26.7789 30.0869 26.834 30.1123 26.8947C30.1376 26.9554 30.1507 27.0205 30.1507 27.0863C30.1507 27.1521 30.1376 27.2172 30.1123 27.2779C30.0869 27.3386 30.0498 27.3937 30.003 27.4399C29.9563 27.4862 29.9008 27.5227 29.8398 27.5473C29.7788 27.572 29.7136 27.5843 29.6478 27.5836H25.3575C25.2918 27.5843 25.2265 27.572 25.1655 27.5473C25.1045 27.5227 25.0491 27.4862 25.0023 27.4399C24.9555 27.3937 24.9184 27.3386 24.893 27.2779C24.8677 27.2172 24.8547 27.1521 24.8547 27.0863C24.8547 27.0205 24.8677 26.9554 24.893 26.8947C24.9184 26.834 24.9555 26.7789 25.0023 26.7327C25.0491 26.6864 25.1045 26.6499 25.1655 26.6252C25.2265 26.6006 25.2918 26.5883 25.3575 26.589ZM25.3575 28.3337H29.6478C29.9771 28.3314 30.2921 28.1989 30.5242 27.9652C30.7562 27.7316 30.8864 27.4156 30.8864 27.0863C30.8864 26.757 30.7562 26.441 30.5242 26.2073C30.2921 25.9737 29.9771 25.8412 29.6478 25.8389H25.3575C25.0282 25.8412 24.7132 25.9737 24.4812 26.2073C24.2492 26.441 24.1189 26.757 24.1189 27.0863C24.1189 27.4156 24.2492 27.7316 24.4812 27.9652C24.7132 28.1989 25.0282 28.3314 25.3575 28.3337ZM16.3763 20.4756C16.4746 20.4758 16.5707 20.5052 16.6523 20.5599C16.734 20.6147 16.7976 20.6925 16.8351 20.7834C16.8725 20.8743 16.8822 20.9742 16.8629 21.0706C16.8436 21.1671 16.7961 21.2556 16.7265 21.325C16.6569 21.3945 16.5683 21.4417 16.4718 21.4608C16.3754 21.4799 16.2754 21.47 16.1846 21.4323C16.0938 21.3946 16.0162 21.3308 15.9616 21.249C15.9071 21.1672 15.8779 21.0711 15.878 20.9728C15.8784 20.8408 15.931 20.7144 16.0244 20.6213C16.1178 20.5281 16.2444 20.4757 16.3763 20.4756ZM16.3763 22.2203C16.623 22.2203 16.8642 22.1472 17.0694 22.0102C17.2745 21.8731 17.4344 21.6783 17.5289 21.4504C17.6233 21.2224 17.648 20.9716 17.5999 20.7296C17.5518 20.4877 17.433 20.2654 17.2586 20.0909C17.0841 19.9164 16.8619 19.7976 16.6199 19.7494C16.3779 19.7013 16.1271 19.726 15.8992 19.8204C15.6712 19.9147 15.4764 20.0746 15.3393 20.2797C15.2022 20.4849 15.129 20.726 15.129 20.9728C15.1294 21.3035 15.261 21.6205 15.4948 21.8543C15.7286 22.0882 16.0456 22.2198 16.3763 22.2203ZM19.027 20.4756C19.1254 20.4758 19.2214 20.5052 19.3031 20.5599C19.3847 20.6147 19.4483 20.6925 19.4858 20.7834C19.5233 20.8743 19.533 20.9742 19.5137 21.0706C19.4943 21.1671 19.4469 21.2556 19.3773 21.325C19.3077 21.3945 19.219 21.4417 19.1226 21.4608C19.0261 21.4799 18.9262 21.47 18.8354 21.4323C18.7446 21.3946 18.667 21.3308 18.6124 21.249C18.5578 21.1672 18.5287 21.0711 18.5287 20.9728C18.5291 20.8408 18.5818 20.7144 18.6752 20.6213C18.7686 20.5281 18.8951 20.4757 19.027 20.4756ZM19.027 22.2203C19.2738 22.2204 19.515 22.1472 19.7201 22.0102C19.9253 21.8731 20.0852 21.6783 20.1796 21.4504C20.2741 21.2225 20.2988 20.9717 20.2507 20.7297C20.2026 20.4877 20.0839 20.2654 19.9094 20.0909C19.735 19.9164 19.5127 19.7976 19.2707 19.7494C19.0288 19.7013 18.7779 19.726 18.55 19.8203C18.322 19.9147 18.1272 20.0746 17.9901 20.2797C17.853 20.4849 17.7798 20.726 17.7798 20.9728C17.7803 21.3034 17.9118 21.6204 18.1456 21.8543C18.3794 22.0882 18.6964 22.2198 19.027 22.2203ZM21.6779 20.4756C21.7762 20.4758 21.8722 20.5051 21.9539 20.5599C22.0356 20.6147 22.0992 20.6924 22.1367 20.7833C22.1742 20.8742 22.1839 20.9742 22.1645 21.0706C22.1452 21.167 22.0978 21.2555 22.0282 21.325C21.9586 21.3944 21.8699 21.4417 21.7735 21.4608C21.677 21.4799 21.5771 21.47 21.4863 21.4323C21.3954 21.3946 21.3178 21.3308 21.2633 21.249C21.2087 21.1672 21.1796 21.0711 21.1796 20.9728C21.1795 20.9073 21.1923 20.8425 21.2173 20.7821C21.2423 20.7216 21.279 20.6667 21.3253 20.6205C21.3716 20.5743 21.4266 20.5377 21.4871 20.5129C21.5476 20.488 21.6124 20.4753 21.6779 20.4756ZM21.6779 22.2203C21.9246 22.2204 22.1658 22.1472 22.3709 22.0102C22.5761 21.8731 22.736 21.6783 22.8305 21.4504C22.9249 21.2225 22.9496 20.9717 22.9015 20.7297C22.8534 20.4877 22.7347 20.2654 22.5602 20.0909C22.3858 19.9164 22.1635 19.7976 21.9216 19.7494C21.6796 19.7013 21.4288 19.726 21.2008 19.8203C20.9728 19.9147 20.778 20.0746 20.6409 20.2797C20.5038 20.4849 20.4306 20.726 20.4306 20.9728C20.4311 21.3034 20.5626 21.6204 20.7964 21.8543C21.0302 22.0882 21.3472 22.2198 21.6779 22.2203ZM25.3577 20.4756H29.648C29.7138 20.4749 29.779 20.4872 29.84 20.5119C29.901 20.5365 29.9565 20.573 30.0032 20.6193C30.05 20.6655 30.0871 20.7206 30.1125 20.7813C30.1378 20.842 30.1509 20.9071 30.1509 20.9729C30.1509 21.0387 30.1378 21.1038 30.1125 21.1645C30.0871 21.2252 30.05 21.2803 30.0032 21.3265C29.9565 21.3728 29.901 21.4093 29.84 21.434C29.779 21.4586 29.7138 21.4709 29.648 21.4702H25.3575C25.2918 21.4709 25.2265 21.4586 25.1655 21.434C25.1045 21.4093 25.0491 21.3728 25.0023 21.3265C24.9555 21.2803 24.9184 21.2252 24.893 21.1645C24.8677 21.1038 24.8547 21.0387 24.8547 20.9729C24.8547 20.9071 24.8677 20.842 24.893 20.7813C24.9184 20.7206 24.9555 20.6655 25.0023 20.6193C25.0491 20.573 25.1045 20.5365 25.1655 20.5119C25.2265 20.4872 25.2918 20.4749 25.3575 20.4756H25.3577ZM25.3577 22.2203H29.648C29.9773 22.218 30.2923 22.0855 30.5243 21.8519C30.7564 21.6182 30.8866 21.3022 30.8866 20.9729C30.8866 20.6436 30.7564 20.3277 30.5243 20.094C30.2923 19.8603 29.9773 19.7278 29.648 19.7255H25.3575C25.0282 19.7278 24.7132 19.8603 24.4812 20.094C24.2492 20.3277 24.1189 20.6436 24.1189 20.9729C24.1189 21.3022 24.2492 21.6182 24.4812 21.8519C24.7132 22.0855 25.0282 22.218 25.3575 22.2203H25.3577ZM16.3761 14.3621C16.4744 14.3623 16.5705 14.3917 16.6521 14.4464C16.7338 14.5012 16.7974 14.579 16.8349 14.6699C16.8724 14.7608 16.882 14.8607 16.8627 14.9571C16.8434 15.0536 16.7959 15.1421 16.7263 15.2115C16.6567 15.281 16.5681 15.3282 16.4716 15.3473C16.3752 15.3664 16.2752 15.3565 16.1844 15.3188C16.0936 15.2811 16.016 15.2173 15.9614 15.1355C15.9069 15.0537 15.8778 14.9576 15.8778 14.8593C15.8782 14.7273 15.9309 14.6009 16.0243 14.5078C16.1177 14.4146 16.2442 14.3622 16.3761 14.3621ZM16.3761 16.1068C16.6228 16.1068 16.864 16.0337 17.0692 15.8967C17.2743 15.7596 17.4342 15.5648 17.5287 15.3369C17.6231 15.1089 17.6478 14.8581 17.5997 14.6161C17.5516 14.3742 17.4328 14.1519 17.2584 13.9774C17.084 13.8029 16.8617 13.6841 16.6197 13.6359C16.3777 13.5878 16.1269 13.6125 15.899 13.7069C15.671 13.8012 15.4762 13.9611 15.3391 14.1662C15.202 14.3714 15.1288 14.6125 15.1288 14.8593C15.1292 15.19 15.2608 15.507 15.4946 15.7408C15.7284 15.9747 16.0454 16.1063 16.3761 16.1068ZM19.0269 14.3621C19.1252 14.3623 19.2212 14.3917 19.3029 14.4464C19.3846 14.5012 19.4481 14.579 19.4856 14.6699C19.5231 14.7608 19.5328 14.8607 19.5135 14.9571C19.4942 15.0536 19.4467 15.1421 19.3771 15.2115C19.3075 15.281 19.2189 15.3282 19.1224 15.3473C19.0259 15.3664 18.926 15.3565 18.8352 15.3188C18.7444 15.2811 18.6668 15.2173 18.6122 15.1355C18.5576 15.0537 18.5285 14.9576 18.5285 14.8593C18.5289 14.7273 18.5816 14.6009 18.675 14.5078C18.7684 14.4146 18.8949 14.3622 19.0269 14.3621ZM19.0269 16.1068C19.2736 16.1069 19.5148 16.0337 19.7199 15.8967C19.9251 15.7596 20.085 15.5648 20.1795 15.3369C20.2739 15.109 20.2986 14.8582 20.2505 14.6162C20.2024 14.3742 20.0837 14.1519 19.9092 13.9774C19.7348 13.8029 19.5125 13.6841 19.2706 13.6359C19.0286 13.5878 18.7778 13.6125 18.5498 13.7068C18.3218 13.8012 18.127 13.9611 17.9899 14.1662C17.8528 14.3714 17.7796 14.6125 17.7796 14.8593C17.7801 15.1899 17.9116 15.5069 18.1454 15.7408C18.3792 15.9747 18.6962 16.1063 19.0269 16.1068ZM21.6777 14.3621C21.776 14.3623 21.8721 14.3916 21.9537 14.4464C22.0354 14.5012 22.099 14.5789 22.1365 14.6698C22.174 14.7607 22.1837 14.8607 22.1644 14.9571C22.1451 15.0535 22.0976 15.142 22.028 15.2115C21.9584 15.2809 21.8698 15.3282 21.7733 15.3473C21.6768 15.3664 21.5769 15.3565 21.4861 15.3188C21.3953 15.2811 21.3177 15.2173 21.2631 15.1355C21.2085 15.0537 21.1794 14.9576 21.1794 14.8593C21.1793 14.7938 21.1921 14.729 21.2171 14.6686C21.2421 14.6081 21.2788 14.5532 21.3251 14.507C21.3714 14.4608 21.4264 14.4242 21.4869 14.3994C21.5474 14.3745 21.6123 14.3618 21.6777 14.3621ZM21.6777 16.1068C21.9244 16.1069 22.1656 16.0337 22.3707 15.8967C22.5759 15.7596 22.7358 15.5648 22.8303 15.3369C22.9247 15.109 22.9495 14.8582 22.9014 14.6162C22.8533 14.3742 22.7345 14.1519 22.56 13.9774C22.3856 13.8029 22.1633 13.6841 21.9214 13.6359C21.6794 13.5878 21.4286 13.6125 21.2006 13.7068C20.9727 13.8012 20.7778 13.9611 20.6407 14.1662C20.5036 14.3714 20.4304 14.6125 20.4304 14.8593C20.4309 15.1899 20.5624 15.5069 20.7962 15.7408C21.03 15.9747 21.347 16.1063 21.6777 16.1068ZM25.3575 14.3621H29.6478C29.7136 14.3614 29.7788 14.3737 29.8398 14.3984C29.9008 14.423 29.9563 14.4595 30.003 14.5058C30.0498 14.552 30.0869 14.6071 30.1123 14.6678C30.1376 14.7285 30.1507 14.7936 30.1507 14.8594C30.1507 14.9252 30.1376 14.9903 30.1123 15.051C30.0869 15.1117 30.0498 15.1668 30.003 15.213C29.9563 15.2593 29.9008 15.2958 29.8398 15.3205C29.7788 15.3451 29.7136 15.3574 29.6478 15.3567H25.3575C25.2918 15.3574 25.2265 15.3451 25.1655 15.3205C25.1045 15.2958 25.0491 15.2593 25.0023 15.213C24.9555 15.1668 24.9184 15.1117 24.893 15.051C24.8677 14.9903 24.8547 14.9252 24.8547 14.8594C24.8547 14.7936 24.8677 14.7285 24.893 14.6678C24.9184 14.6071 24.9555 14.552 25.0023 14.5058C25.0491 14.4595 25.1045 14.423 25.1655 14.3984C25.2265 14.3737 25.2918 14.3614 25.3575 14.3621ZM25.3575 16.1068H29.6478C29.9771 16.1045 30.2921 15.972 30.5242 15.7384C30.7562 15.5047 30.8864 15.1887 30.8864 14.8594C30.8864 14.5301 30.7562 14.2142 30.5242 13.9805C30.2921 13.7468 29.9771 13.6143 29.6478 13.612H25.3575C25.0282 13.6143 24.7132 13.7468 24.4812 13.9805C24.2492 14.2142 24.1189 14.5301 24.1189 14.8594C24.1189 15.1887 24.2492 15.5047 24.4812 15.7384C24.7132 15.972 25.0282 16.1045 25.3575 16.1068ZM12.9763 11.8028C12.9762 11.8768 12.9541 11.9492 12.9129 12.0107C12.8717 12.0722 12.8132 12.1201 12.7448 12.1484C12.6763 12.1767 12.601 12.184 12.5284 12.1695C12.4558 12.155 12.3891 12.1193 12.3368 12.0669C12.2845 12.0145 12.2489 11.9478 12.2345 11.8751C12.22 11.8025 12.2275 11.7272 12.2558 11.6588C12.2842 11.5904 12.3322 11.532 12.3938 11.4908C12.4554 11.4497 12.5277 11.4278 12.6018 11.4278C12.7012 11.4279 12.7964 11.4675 12.8666 11.5378C12.9369 11.6081 12.9763 11.7034 12.9763 11.8028ZM12.9763 18.4826C12.9762 18.5566 12.9541 18.629 12.9129 18.6905C12.8717 18.752 12.8132 18.7999 12.7448 18.8282C12.6763 18.8565 12.601 18.8638 12.5284 18.8493C12.4558 18.8348 12.3891 18.7991 12.3368 18.7467C12.2845 18.6943 12.2489 18.6276 12.2345 18.5549C12.22 18.4823 12.2275 18.407 12.2558 18.3386C12.2842 18.2702 12.3322 18.2118 12.3938 18.1707C12.4554 18.1295 12.5277 18.1076 12.6018 18.1076C12.7012 18.1077 12.7964 18.1473 12.8666 18.2176C12.9369 18.2879 12.9763 18.3832 12.9763 18.4826ZM12.9763 25.1623C12.9762 25.2364 12.9541 25.3087 12.9129 25.3702C12.8717 25.4318 12.8132 25.4797 12.7448 25.508C12.6763 25.5362 12.601 25.5436 12.5284 25.5291C12.4558 25.5146 12.3891 25.4789 12.3368 25.4265C12.2845 25.3741 12.2489 25.3073 12.2345 25.2347C12.22 25.1621 12.2275 25.0868 12.2558 25.0184C12.2842 24.95 12.3322 24.8915 12.3938 24.8504C12.4554 24.8093 12.5277 24.7873 12.6018 24.7873C12.7012 24.7875 12.7964 24.827 12.8666 24.8973C12.9369 24.9676 12.9763 25.063 12.9763 25.1623ZM4.41942 3.19701C6.60436 2.57426 9.51173 2.23132 12.6019 2.23132C15.692 2.23132 18.5964 2.57426 20.7843 3.19701C23.1195 3.86251 23.9511 4.66632 23.9511 5.19645C23.9511 5.72657 23.1195 6.52982 20.7843 7.19532C18.5964 7.81838 15.692 8.16132 12.6019 8.16132C9.51173 8.16132 6.60436 7.81838 4.41942 7.19532C2.08117 6.52982 1.24992 5.72632 1.24992 5.19645C1.24992 4.66657 2.08117 3.86251 4.41942 3.19701ZM14.9902 11.4278H23.9511V6.55551C22.1261 8.09407 17.2489 8.91113 12.6019 8.91113C7.95486 8.91113 3.0778 8.09407 1.24992 6.55551V11.8759C1.24992 12.5548 2.46179 13.3217 4.41379 13.8772C6.59279 14.4988 9.50311 14.8411 12.6021 14.8411C12.9087 14.8411 13.2184 14.8367 13.525 14.8299V12.8934C13.5254 12.5049 13.68 12.1324 13.9547 11.8576C14.2295 11.5829 14.602 11.4284 14.9905 11.4279L14.9902 11.4278ZM31.7499 12.8934C31.7496 12.7036 31.6739 12.5217 31.5396 12.3875C31.4053 12.2534 31.2232 12.1781 31.0334 12.1781H14.9897C14.8 12.1783 14.6181 12.2537 14.4838 12.3877C14.3496 12.5218 14.2741 12.7037 14.2737 12.8934V16.8256C14.2741 17.0155 14.3497 17.1974 14.484 17.3316C14.6183 17.4658 14.8004 17.5412 14.9902 17.5413H31.034C31.2238 17.541 31.4057 17.4655 31.5399 17.3314C31.6741 17.1972 31.7496 17.0153 31.7499 16.8255V12.8934ZM31.7499 19.0068C31.7496 18.8169 31.6739 18.635 31.5396 18.5009C31.4053 18.3668 31.2232 18.2915 31.0334 18.2914H14.9897C14.7999 18.2915 14.6178 18.3668 14.4835 18.5009C14.3492 18.635 14.2735 18.8169 14.2732 19.0068V22.9393C14.2736 23.1291 14.3492 23.311 14.4835 23.4451C14.6179 23.5792 14.7999 23.6546 14.9897 23.6546H31.0334C31.2232 23.6546 31.4053 23.5792 31.5396 23.4451C31.6739 23.3109 31.7496 23.129 31.7499 22.9392V19.0066V19.0068ZM31.7499 25.1201C31.7496 24.9303 31.6739 24.7484 31.5396 24.6143C31.4053 24.4802 31.2232 24.4049 31.0334 24.4048H14.9897C14.7999 24.4049 14.6178 24.4802 14.4835 24.6143C14.3492 24.7484 14.2735 24.9303 14.2732 25.1201V29.0527C14.2735 29.2425 14.3492 29.4244 14.4835 29.5585C14.6178 29.6926 14.7999 29.768 14.9897 29.768H31.0334C31.2233 29.768 31.4053 29.6926 31.5396 29.5585C31.674 29.4244 31.7496 29.2424 31.7499 29.0526V25.12V25.1201ZM14.0142 17.9163C13.8602 17.7794 13.7369 17.6114 13.6526 17.4234C13.5682 17.2353 13.5246 17.0316 13.5247 16.8255V15.5801C13.2181 15.5863 12.9085 15.5913 12.6019 15.5913C7.95486 15.5913 3.0778 14.7742 1.24967 13.235V18.5559C1.24967 19.2347 2.46154 20.0013 4.41354 20.5568C6.59254 21.1784 9.50286 21.5207 12.6019 21.5207C12.9085 21.5207 13.2181 21.5163 13.5247 21.5095V19.0066C13.5246 18.8006 13.5682 18.5969 13.6526 18.409C13.7369 18.221 13.8602 18.0531 14.0142 17.9163ZM12.6017 28.201C12.9084 28.201 13.218 28.1963 13.5246 28.1895V25.12C13.5245 24.914 13.5681 24.7103 13.6525 24.5224C13.7369 24.3344 13.8601 24.1665 14.0141 24.0296C13.8601 23.8928 13.7369 23.7248 13.6525 23.5369C13.5681 23.3489 13.5245 23.1452 13.5246 22.9392V22.2598C13.218 22.2666 12.9084 22.2711 12.6017 22.2711C7.95473 22.2711 3.07767 21.454 1.24954 19.9148V25.2359C1.24954 25.9146 2.46142 26.6813 4.41342 27.2368C6.59242 27.8587 9.50273 28.201 12.6017 28.201ZM12.6017 28.951C12.9084 28.951 13.218 28.9466 13.5246 28.9398V29.0527C13.525 29.4413 13.6796 29.8138 13.9544 30.0886C14.2291 30.3634 14.6017 30.5179 14.9902 30.5184H31.034C31.4225 30.5179 31.795 30.3633 32.0697 30.0886C32.3444 29.8139 32.4989 29.4414 32.4994 29.0529V25.12C32.4993 24.9143 32.4559 24.7108 32.372 24.523C32.2881 24.3351 32.1656 24.167 32.0124 24.0296C32.1655 23.8922 32.2879 23.7241 32.3717 23.5362C32.4555 23.3483 32.4989 23.1449 32.4989 22.9392V19.0066C32.4989 18.8009 32.4556 18.5975 32.3718 18.4096C32.2879 18.2218 32.1655 18.0537 32.0124 17.9163C32.1655 17.7788 32.288 17.6106 32.3718 17.4227C32.4556 17.2347 32.4989 17.0313 32.4989 16.8255V12.8934C32.4985 12.5049 32.344 12.1324 32.0692 11.8576C31.7945 11.5829 31.422 11.4284 31.0335 11.4279H24.703C24.7059 11.4096 24.703 5.21432 24.703 5.1967C24.703 2.78357 18.4667 1.48145 12.6019 1.48145C6.73411 1.4812 0.500732 2.78332 0.500732 5.19645V25.2359C0.500732 27.649 6.73411 28.9509 12.6019 28.9509L12.6017 28.951Z" fill="#242222"/>
</g>
<defs>
<clipPath id="clip0_6439_1562">
<rect width="32" height="32" fill="white" transform="translate(0.5)"/>
</clipPath>
</defs>
</svg>
