<svg width="32" height="32" viewBox="0 0 32 32" fill="none" xmlns="http://www.w3.org/2000/svg">
<path fill-rule="evenodd" clip-rule="evenodd" d="M24.212 30.6251C27.0811 30.6251 29.4069 28.3947 29.4069 25.6435V9.00293H1.65798C1.29448 9.00293 0.998047 9.28718 0.998047 9.63581V29.9922C0.998047 30.3408 1.29448 30.6251 1.65798 30.6251H24.212Z" fill="#ECEFF1"/>
<path fill-rule="evenodd" clip-rule="evenodd" d="M29.407 25.644V7.94348C29.407 5.19223 27.0811 2.96191 24.2121 2.96191C23.4168 2.96191 22.6633 3.13335 21.9896 3.43966C21.7537 3.54691 21.6123 3.76116 21.6123 4.01154V20.8125C21.6123 20.9232 21.6663 21.0183 21.7632 21.0784C21.8602 21.1383 21.9728 21.1465 22.078 21.1009C22.729 20.8192 23.4514 20.6624 24.2121 20.6624C27.0812 20.6624 29.407 22.8927 29.407 25.644Z" fill="#D1D1D6"/>
<path fill-rule="evenodd" clip-rule="evenodd" d="M29.4067 25.644V7.94348C29.4067 5.19223 27.0808 2.96191 24.2118 2.96191C24.1 2.96191 23.989 2.96535 23.8789 2.97204C26.5956 3.13398 28.7468 5.2976 28.7468 7.94348V23.2129C29.1669 23.932 29.4067 24.761 29.4067 25.644Z" fill="#B1B1B5"/>
<path fill-rule="evenodd" clip-rule="evenodd" d="M2.87967 9.00293H1.65798C1.29448 9.00293 0.998047 9.28724 0.998047 9.63574V29.9922C0.998047 30.3407 1.29448 30.6251 1.65798 30.6251H2.87967V9.00293Z" fill="#D1D1D6"/>
<path fill-rule="evenodd" clip-rule="evenodd" d="M8.42536 25.8555H10.7442V27.0348C10.7442 27.4215 10.4278 27.7379 10.041 27.7379H9.12848C8.74173 27.7379 8.42529 27.4215 8.42529 27.0348V25.8555H8.42536Z" fill="#B1B1B5"/>
<path fill-rule="evenodd" clip-rule="evenodd" d="M7.70459 24.1572H11.4658V25.6283C11.4658 26.0151 11.1494 26.3315 10.7627 26.3315H8.40784C8.02103 26.3315 7.70459 26.0151 7.70459 25.6283V24.1572Z" fill="#D1D1D6"/>
<path fill-rule="evenodd" clip-rule="evenodd" d="M10.6465 23.9438V25.6283C10.6465 26.013 10.3322 26.3315 9.94336 26.3315H10.7624C11.1492 26.3315 11.4655 26.0151 11.4655 25.6283V23.9434C11.198 23.9522 10.9157 23.9438 10.6465 23.9438Z" fill="#B1B1B5"/>
<path fill-rule="evenodd" clip-rule="evenodd" d="M7.00146 22.8164H12.169V24.222C12.169 24.6087 11.8527 24.9251 11.4659 24.9251H7.70465C7.3179 24.9251 7.00153 24.6087 7.00153 24.222L7.00146 22.8164Z" fill="#ECEFF1"/>
<path fill-rule="evenodd" clip-rule="evenodd" d="M11.3496 23.5186V24.1572V24.2219C11.3496 24.6086 11.0332 24.925 10.6465 24.925H11.4655C11.4734 24.925 11.4812 24.9249 11.489 24.9246C11.865 24.9121 12.1687 24.6007 12.1687 24.2218V23.5186L11.3496 23.5186Z" fill="#D1D1D6"/>
<path fill-rule="evenodd" clip-rule="evenodd" d="M9.585 13.3896C11.9749 13.3896 13.9123 15.327 13.9123 17.7169C13.9123 20.1201 12.377 19.9765 12.1688 23.519H7.00125C6.79306 19.9765 5.25781 20.1201 5.25781 17.7169C5.25781 15.327 7.19519 13.3896 9.585 13.3896Z" fill="#FFE177"/>
<path fill-rule="evenodd" clip-rule="evenodd" d="M9.17529 13.4088C11.3731 13.6151 13.093 15.4651 13.093 17.7169C13.093 19.9492 11.7684 19.9841 11.4131 22.8166C11.3859 23.0336 11.3644 23.267 11.3495 23.519H12.1686C12.3768 19.9765 13.912 20.1201 13.912 17.7169C13.912 15.327 11.9747 13.3896 9.58486 13.3896C9.44667 13.3896 9.31011 13.3961 9.17529 13.4088Z" fill="#FFD064"/>
<path fill-rule="evenodd" clip-rule="evenodd" d="M21.2469 13.4544L30.4752 4.22602C30.9754 3.72577 30.9754 2.90971 30.4752 2.4094L30.1119 2.04609C29.6116 1.54584 28.7956 1.54584 28.2952 2.04609L19.0669 11.2745L18.3461 13.9649C18.3297 14.0258 18.3459 14.0862 18.3905 14.1308C18.4351 14.1755 18.4955 14.1916 18.5564 14.1753L21.2469 13.4544Z" fill="#E3A76F"/>
<path fill-rule="evenodd" clip-rule="evenodd" d="M30.5949 2.54748C30.5588 2.49936 30.519 2.45317 30.4752 2.40942L30.1119 2.04611C29.6116 1.54586 28.7956 1.5458 28.2953 2.04611L19.0669 11.2744L18.3461 13.9649C18.3297 14.0259 18.3459 14.0862 18.3905 14.1308C18.4351 14.1754 18.4955 14.1916 18.5564 14.1753L19.1174 14.025L19.688 11.8955L28.9164 2.66711C29.3729 2.21055 30.0924 2.17073 30.5949 2.54748Z" fill="#C48958"/>
<path fill-rule="evenodd" clip-rule="evenodd" d="M18.5564 14.1753L21.2469 13.4544L19.0669 11.2744L18.3461 13.9649C18.3297 14.0258 18.3459 14.0862 18.3905 14.1308C18.4351 14.1754 18.4954 14.1916 18.5564 14.1753Z" fill="#837683"/>
<path fill-rule="evenodd" clip-rule="evenodd" d="M18.5564 14.1752L19.1174 14.0249L19.6879 11.8954L19.0669 11.2744L18.3461 13.9649C18.3297 14.0258 18.3459 14.0862 18.3905 14.1307C18.4351 14.1754 18.4955 14.1915 18.5564 14.1752Z" fill="#685E68"/>
<path fill-rule="evenodd" clip-rule="evenodd" d="M29.7127 4.98852L30.4752 4.22596C30.9755 3.72571 30.9755 2.90965 30.4752 2.4094L30.1119 2.04609C29.6117 1.54584 28.7956 1.54584 28.2953 2.04609L27.5327 2.80865L29.7127 4.98852Z" fill="#837683"/>
<path fill-rule="evenodd" clip-rule="evenodd" d="M30.5948 2.54746C30.5588 2.49927 30.519 2.45315 30.4752 2.4094L30.1119 2.04609C29.6117 1.54584 28.7956 1.54584 28.2953 2.04609L27.5327 2.80865L28.1538 3.42965L28.9163 2.66709C29.3728 2.21059 30.0923 2.17071 30.5948 2.54746Z" fill="#685E68"/>
<path fill-rule="evenodd" clip-rule="evenodd" d="M30.2692 3.73946L29.5579 4.45077L28.0761 2.96902L28.7874 2.25715C29.0954 1.94946 29.5967 1.94946 29.9047 2.25715L30.2692 2.62196C30.4181 2.77084 30.4999 2.96909 30.4999 3.1809C30.4999 3.39265 30.4181 3.59096 30.2692 3.73946ZM28.936 7.84946V22.3563C27.9449 20.9536 26.311 20.0364 24.4674 20.0364C23.7849 20.0364 23.1103 20.1638 22.4805 20.4094V12.9425L28.7736 6.6494C28.8816 7.03696 28.936 7.43821 28.936 7.84946ZM24.4674 29.9745C26.9311 29.9745 28.936 27.9696 28.936 25.5058C28.936 23.0415 26.9311 21.0364 24.4674 21.0364C23.6804 21.0364 22.9073 21.2432 22.231 21.635C22.076 21.7245 21.8854 21.725 21.7303 21.6356C21.5762 21.5465 21.4806 21.3814 21.4806 21.2026V13.8457L18.4929 14.6461C18.4505 14.6576 18.4067 14.6632 18.3634 14.6632C18.3134 14.6632 18.264 14.6556 18.2166 14.6406C18.3428 14.8495 18.3011 15.1245 18.1081 15.2845C17.0322 16.1744 16.8811 17.0313 17.6186 18.0619C18.4311 19.085 18.9136 20.6907 16.631 22.5487C16.5386 22.6243 16.4266 22.6614 16.3159 22.6614C16.1703 22.6614 16.0268 22.5981 15.9279 22.477C15.7534 22.2625 15.7861 21.9477 15.9997 21.7733C17.7742 20.3288 17.3747 19.359 16.8293 18.6756C16.8237 18.6688 16.8184 18.6626 16.8137 18.6556C16.2854 17.9213 16.0768 17.1888 16.1936 16.4781C16.3081 15.7815 16.7372 15.1201 17.4704 14.5138C17.6048 14.4026 17.7804 14.3738 17.9361 14.4215C17.8666 14.3065 17.8449 14.167 17.8805 14.0337L18.6818 11.0431C18.7051 10.9584 18.7492 10.8807 18.8118 10.8189L20.2236 9.40627H1.94675C1.7005 9.40627 1.49994 9.6069 1.49994 9.85315V29.5276C1.49994 29.7738 1.70056 29.9745 1.94675 29.9745H24.4674ZM22.4805 3.84509V7.14934L25.9847 3.64509C25.5005 3.47065 24.986 3.38034 24.4674 3.38034C23.7755 3.38027 23.0947 3.54002 22.4805 3.84509ZM19.4237 12.1383L20.3886 13.1033L19.0704 13.4566L19.4237 12.1383ZM21.3541 12.6546L28.8509 5.15834L27.3686 3.67565L19.8723 11.1725L21.3541 12.6546ZM31.4997 3.18084C31.4997 2.7019 31.3141 2.25271 30.9767 1.91496L30.6116 1.55015C29.9135 0.851773 28.778 0.851773 28.0799 1.55015L26.7511 2.87952C26.0386 2.55184 25.2567 2.38002 24.4674 2.38002C23.5048 2.38002 22.5588 2.6339 21.7297 3.11371C21.5753 3.20315 21.4806 3.36815 21.4806 3.54615V8.14946L21.2234 8.40627H1.94675C1.14925 8.40627 0.5 9.05584 0.5 9.85302V29.5275C0.5 30.3256 1.14925 30.9743 1.94675 30.9743H24.4674C27.483 30.9743 29.9362 28.5214 29.9362 25.5057V7.84946C29.9362 7.16021 29.8102 6.49271 29.5629 5.86084L30.9767 4.44702C31.3141 4.10959 31.4997 3.65946 31.4997 3.18084ZM16.1492 15.0745L15.2755 15.5788C15.1967 15.6243 15.1111 15.6458 15.026 15.6458C14.853 15.6458 14.6854 15.5564 14.5924 15.3958C14.4541 15.1563 14.5367 14.8506 14.7756 14.7127L15.6491 14.2082C15.8879 14.0708 16.1942 14.1526 16.3324 14.3915C16.4698 14.6306 16.3881 14.9363 16.1492 15.0745ZM12.2286 12.5313L12.7331 11.6582C12.8705 11.4188 13.1768 11.337 13.4153 11.4752C13.6547 11.6131 13.7366 11.9188 13.5986 12.1583L13.0941 13.0314C13.0017 13.192 12.8334 13.282 12.6611 13.282C12.5761 13.282 12.4904 13.26 12.4116 13.2143C12.1724 13.0765 12.0904 12.7708 12.2286 12.5313ZM4.27163 15.3958C4.17869 15.5564 4.011 15.6458 3.838 15.6458C3.753 15.6458 3.66738 15.6243 3.58856 15.5788L2.71487 15.0745C2.47631 14.9363 2.39419 14.6306 2.53188 14.3915C2.66988 14.152 2.97613 14.0702 3.21469 14.2082L4.08869 14.7127C4.32725 14.8506 4.40931 15.1563 4.27163 15.3958ZM5.26538 12.1583C5.12744 11.9189 5.20919 11.6132 5.44869 11.4753C5.68725 11.337 5.99294 11.4188 6.13119 11.6583L6.63544 12.5314C6.77369 12.7708 6.69194 13.0765 6.45244 13.2145C6.37362 13.2601 6.288 13.2816 6.203 13.2816C6.03062 13.2816 5.86237 13.1921 5.77 13.0315L5.26538 12.1583ZM8.93175 11.9162V10.9075C8.93175 10.6312 9.15625 10.4076 9.43188 10.4076C9.70781 10.4076 9.93169 10.6312 9.93169 10.9075V11.9162C9.93169 12.1925 9.70781 12.4163 9.43188 12.4163C9.15619 12.4163 8.93175 12.1925 8.93175 11.9162ZM10.6718 18.172V17.6768C10.6718 17.4038 10.8936 17.182 11.1666 17.182C11.4391 17.182 11.6617 17.4038 11.6617 17.6768C11.6617 17.9501 11.4391 18.172 11.1666 18.172H10.6718ZM12.5822 19.6952C12.1836 20.3765 11.695 21.2108 11.5267 22.8871H10.6719V19.1719H11.1667C11.9913 19.1719 12.6617 18.5015 12.6617 17.6768C12.6617 16.8525 11.9913 16.1818 11.1667 16.1818C10.3424 16.1818 9.67169 16.8526 9.67169 17.6768V18.172H9.19244V17.6768C9.19244 16.8525 8.52169 16.1818 7.69744 16.1818C6.87313 16.1818 6.20237 16.8526 6.20237 17.6768C6.20237 18.5014 6.87313 19.1719 7.69744 19.1719H8.19225V22.8871H7.33738C7.16937 21.2108 6.6805 20.3766 6.28188 19.6952C5.92913 19.0913 5.65056 18.615 5.65056 17.6456C5.65056 15.5602 7.34681 13.864 9.43194 13.864C11.5174 13.864 13.2136 15.5602 13.2136 17.6456C13.2136 18.615 12.9346 19.0913 12.5822 19.6952ZM9.88375 27.0612H8.98063C8.87413 27.0612 8.78469 26.9721 8.78469 26.8659V26.6703H10.0791V26.8659C10.0791 26.9721 9.98994 27.0612 9.88375 27.0612ZM10.5974 25.67H8.26688C8.161 25.67 8.07094 25.58 8.07094 25.4738V25.2781H10.793V25.4738C10.793 25.58 10.703 25.67 10.5974 25.67ZM11.4885 23.887V24.0826C11.4885 24.1888 11.3994 24.2783 11.2929 24.2783H7.57119C7.46469 24.2783 7.37556 24.1888 7.37556 24.0826V23.887H11.4885ZM9.67163 22.8871H9.19238V19.1719H9.67163V22.8871ZM8.19219 18.172H7.69738C7.42469 18.172 7.20225 17.9501 7.20225 17.6768C7.20225 17.4038 7.42463 17.182 7.69738 17.182C7.97038 17.182 8.19219 17.4038 8.19219 17.6768V18.172ZM9.43188 12.8638C12.0686 12.8638 14.2134 15.009 14.2134 17.6456C14.2134 18.8862 13.8231 19.5537 13.4453 20.2C13.0261 20.9158 12.5937 21.6562 12.4886 23.4033V24.0826C12.4886 24.5633 12.203 24.9775 11.7929 25.1675V25.4738C11.7929 25.9618 11.499 26.3819 11.0792 26.5675V26.8658C11.0792 27.5251 10.5429 28.0614 9.88363 28.0614H8.9805C8.32094 28.0614 7.78463 27.5251 7.78463 26.8658V26.5675C7.3645 26.3813 7.07094 25.9618 7.07094 25.4738V25.1675C6.66088 24.9775 6.3755 24.5633 6.3755 24.0826V23.4033C6.2705 21.6562 5.83775 20.9157 5.41856 20.2C5.04112 19.5537 4.65044 18.8862 4.65044 17.6456C4.65056 15.009 6.79544 12.8638 9.43188 12.8638Z" fill="#242222"/>
</svg>
