<svg width="32" height="32" viewBox="0 0 32 32" fill="none" xmlns="http://www.w3.org/2000/svg">
<path opacity="0.4" d="M29.1582 23.4766H2.84082C1.81095 23.4766 0.976074 22.6417 0.976074 21.6119V3.82569C0.976074 2.79581 1.81095 1.96094 2.84082 1.96094H29.1591C30.1889 1.96094 31.0237 2.79581 31.0237 3.82569V21.6318C31.0238 22.6471 30.1904 23.4766 29.1582 23.4766Z" fill="#FFB300"/>
<path d="M4.6857 23.4766H2.84082C1.81095 23.4766 0.976074 22.6417 0.976074 21.6119V3.82569C0.976074 2.79581 1.81095 1.96094 2.84082 1.96094H4.6857C3.65932 1.96094 2.83095 2.79044 2.83095 3.81806V21.6194C2.83095 22.6471 3.65945 23.4766 4.6857 23.4766Z" fill="#FFB300"/>
<path d="M29.1588 1.96094C30.1887 1.96094 31.0235 2.79581 31.0235 3.82569V21.6318C31.0235 22.6471 30.195 23.4766 29.1687 23.4766H27.314C28.3402 23.4766 29.1687 22.6471 29.1687 21.6318V3.81806C29.1687 2.79044 28.3402 1.96094 27.314 1.96094H29.1588Z" fill="#FFB300"/>
<path d="M31.0238 18.9766V21.6308C31.0238 22.6472 30.1911 23.4763 29.1579 23.4763H2.8402C1.81082 23.4763 0.976074 22.6417 0.976074 21.6122V18.9766H31.0238Z" fill="#EFD189"/>
<path d="M29.1687 18.9766V21.6308C29.1687 22.6472 28.3396 23.4763 27.314 23.4763H29.1687C29.23 23.4763 29.2893 23.4726 29.3486 23.4671C29.4357 23.4578 29.5211 23.4448 29.6027 23.4244C29.7678 23.3854 29.9236 23.3243 30.0682 23.2427C30.1406 23.2037 30.2111 23.1573 30.276 23.1092C30.3483 23.0573 30.4151 22.9998 30.4781 22.9348C30.543 22.8736 30.6005 22.8049 30.6543 22.7346C30.8862 22.4267 31.0235 22.0446 31.0235 21.6309V18.9767L29.1687 18.9766Z" fill="#FFB300"/>
<path d="M2.83095 21.6197V18.9766H0.976074V21.6122C0.976074 22.6416 1.8107 23.4763 2.8402 23.4763H4.6857C3.66007 23.4763 2.83095 22.6472 2.83095 21.6197Z" fill="#FFB300"/>
<path d="M13.2671 23.4766H18.7323V30.0399H13.2671V23.4766Z" fill="#929292"/>
<path d="M13.2681 23.4766H16.0503V30.0407H13.2681V23.4766Z" fill="#D9D9D9"/>
<path d="M16.0001 12.4992C17.6675 12.4992 19.0192 11.1475 19.0192 9.48006C19.0192 7.81265 17.6675 6.46094 16.0001 6.46094C14.3327 6.46094 12.981 7.81265 12.981 9.48006C12.981 11.1475 14.3327 12.4992 16.0001 12.4992Z" fill="#929292"/>
<path d="M29.1597 1.46094H2.8402C1.5367 1.46094 0.476074 2.52144 0.476074 3.82506V21.6126C0.476074 22.9161 1.53657 23.9766 2.8402 23.9766H12.7673V29.5399H8.89295C8.61682 29.5399 8.39295 29.7638 8.39295 30.0399C8.39295 30.3161 8.61682 30.5399 8.89295 30.5399H23.1068C23.3829 30.5399 23.6068 30.3161 23.6068 30.0399C23.6068 29.7638 23.3829 29.5399 23.1068 29.5399H19.2324V23.9766H29.1577C30.4623 23.9766 31.5237 22.9244 31.5237 21.6311C31.5237 19.0408 31.5237 6.11219 31.5237 3.82506C31.5237 2.52144 30.4632 1.46094 29.1597 1.46094ZM1.4762 3.82506C1.4762 3.07294 2.0882 2.46094 2.84032 2.46094H29.1598C29.9119 2.46094 30.5238 3.07294 30.5238 3.82506V18.4768H1.4762V3.82506ZM18.2324 29.5399H13.7673V23.9766H18.2324V29.5399ZM30.5237 21.6309C30.5237 22.3729 29.9109 22.9764 29.1577 22.9764C23.5616 22.9764 7.74882 22.9764 2.84007 22.9764C2.08795 22.9764 1.47595 22.3646 1.47595 21.6124V19.4768H30.5237V21.6309Z" fill="#242222"/>
<path d="M16.0001 12.9991C17.9405 12.9991 19.5191 11.4204 19.5191 9.47994C19.5191 7.53944 17.9405 5.96094 16.0001 5.96094C14.0597 5.96094 12.481 7.53956 12.481 9.47994C12.481 11.4203 14.0597 12.9991 16.0001 12.9991ZM16.0001 6.96094C17.3891 6.96094 18.5191 8.09106 18.5191 9.47994C18.5191 10.8689 17.3891 11.9991 16.0001 11.9991C14.6111 11.9991 13.481 10.8689 13.481 9.47994C13.481 8.09106 14.6111 6.96094 16.0001 6.96094Z" fill="#242222"/>
<path d="M21.2008 14.7314H10.7993C10.5232 14.7314 10.2993 14.9553 10.2993 15.2314C10.2993 15.5076 10.5232 15.7314 10.7993 15.7314H21.2008C21.4769 15.7314 21.7008 15.5076 21.7008 15.2314C21.7008 14.9553 21.4769 14.7314 21.2008 14.7314Z" fill="#242222"/>
<path d="M13.4966 21.7266H16.1216C16.3977 21.7266 16.6216 21.5027 16.6216 21.2266C16.6216 20.9504 16.3978 20.7266 16.1216 20.7266H13.4966C13.2205 20.7266 12.9966 20.9504 12.9966 21.2266C12.9966 21.5027 13.2205 21.7266 13.4966 21.7266Z" fill="#242222"/>
<path d="M17.9966 21.7266H18.5028C18.779 21.7266 19.0028 21.5027 19.0028 21.2266C19.0028 20.9504 18.779 20.7266 18.5028 20.7266H17.9966C17.7205 20.7266 17.4966 20.9504 17.4966 21.2266C17.4966 21.5027 17.7205 21.7266 17.9966 21.7266Z" fill="#242222"/>
</svg>
