<svg width="33" height="32" viewBox="0 0 33 32" fill="none" xmlns="http://www.w3.org/2000/svg">
<g clip-path="url(#clip0_6439_1348)">
<path fill-rule="evenodd" clip-rule="evenodd" d="M14.6575 23.4609H27.0305V20.6621L32.0879 25.0266L27.0305 29.3842V26.5923H14.6575V23.4609Z" fill="#FFEDC4"/>
<path fill-rule="evenodd" clip-rule="evenodd" d="M14.6575 4.57617C20.7401 4.57617 25.6658 9.50185 25.6658 15.5845C25.6658 21.6671 20.7401 26.5928 14.6575 26.5928C8.58177 26.5928 3.64917 21.6671 3.64917 15.5845C3.64917 9.50185 8.58177 4.57617 14.6575 4.57617ZM14.6575 7.73526C18.9943 7.73526 22.4998 11.2477 22.4998 15.5775C22.4998 19.9074 18.9874 23.4198 14.6575 23.4198C10.3276 23.4198 6.81518 19.9074 6.81518 15.5775C6.81518 11.2546 10.3276 7.73526 14.6575 7.73526Z" fill="#FFEDC4"/>
<path fill-rule="evenodd" clip-rule="evenodd" d="M14.4773 4.57581L14.214 2.61523L10.1751 7.15295L15.2532 10.4783L14.8583 7.73489L15.8767 7.83188C19.6316 8.42074 22.4997 11.663 22.4997 15.5841C22.4997 19.8586 19.0773 23.3363 14.8236 23.4264C12.2257 23.4818 9.55851 23.4264 6.9398 23.4264H0.912598V26.5855H14.6574C20.7331 26.5855 25.6657 21.6598 25.6657 15.5772C25.6657 9.49455 20.74 4.56888 14.6574 4.56888C14.595 4.57581 14.5327 4.57581 14.4773 4.57581Z" fill="#F7B319"/>
<path d="M11.9487 17.2334C12.1289 17.3719 12.1635 17.6352 12.025 17.8153C11.8864 17.9954 11.6231 18.0301 11.443 17.8915L8.86587 15.9171C8.64418 15.7508 8.65111 15.4183 8.8728 15.252L11.4499 13.2776C11.6301 13.139 11.8933 13.1737 12.0319 13.3538C12.1704 13.5339 12.1358 13.7972 11.9557 13.9357L9.80805 15.5845L11.9487 17.2334ZM15.5997 13.1182C15.7106 12.9243 15.9669 12.855 16.1678 12.9658C16.3687 13.0767 16.431 13.333 16.3202 13.527L13.7153 18.037C13.6045 18.2379 13.3482 18.3072 13.1473 18.1894C12.9464 18.0716 12.8771 17.8222 12.9948 17.6213L15.5997 13.1182ZM17.8651 17.8915C17.685 18.0301 17.4217 17.9954 17.2832 17.8153C17.1446 17.6352 17.1792 17.3719 17.3594 17.2334L19.5139 15.5845L17.3594 13.9357C17.1792 13.7972 17.1446 13.5339 17.2832 13.3538C17.4217 13.1737 17.685 13.139 17.8651 13.2776L20.4422 15.252C20.657 15.4183 20.6709 15.7439 20.4492 15.9171L17.8651 17.8915ZM14.0687 4.63167L13.9301 3.56479L10.8126 7.06333L14.7199 9.62662L14.4566 7.79768C14.422 7.53443 14.6367 7.29195 14.9346 7.33352C15.184 7.36123 15.7729 7.39587 15.9669 7.43051C17.9482 7.74226 19.701 8.76065 20.948 10.2224C23.726 13.4716 23.5598 18.3072 20.567 21.3623C19.1052 22.8518 17.0823 23.794 14.8376 23.8425C12.0804 23.9049 9.80805 23.8494 6.93994 23.8494H1.32841V26.1772H14.6575C20.5046 26.1772 25.2502 21.4385 25.2502 15.5845C25.2502 9.66126 20.4007 4.90186 14.4843 4.99192C14.2696 4.99192 14.0894 4.8395 14.0687 4.63167ZM14.6229 2.56025L14.8376 4.16058C21.0658 4.25757 26.0815 9.33566 26.0815 15.5845C26.0815 18.4388 25.0354 21.0437 23.3104 23.0458H26.6149V20.6696C26.6149 20.3232 27.0306 20.1015 27.3216 20.3786L32.3581 24.7154C32.5521 24.8817 32.5451 25.1796 32.3512 25.3458L27.3008 29.6965C27.0306 29.9321 26.6149 29.7381 26.6149 29.3848V27.0085H0.912739C0.684121 27.0085 0.49707 26.8215 0.49707 26.5928V23.4268C0.49707 23.1982 0.684121 23.0112 0.912739 23.0112H5.9839C2.423 18.8614 2.30523 12.7511 5.72757 8.45582C7.29326 6.49525 9.48938 5.06812 12.0042 4.4654L13.9024 2.33164C14.1379 2.08223 14.5813 2.20001 14.6229 2.56025ZM22.5137 23.8771C21.4814 24.854 20.276 25.6368 18.9389 26.1772H27.0306C27.2592 26.1772 27.4463 26.3642 27.4463 26.5928V28.4772L31.4505 25.0202L27.4463 21.5702V23.4545C27.4463 23.6832 27.2592 23.8702 27.0306 23.8702H22.5137V23.8771ZM7.10621 23.0181L11.0897 23.0389C6.53813 20.8497 4.97244 15.0927 7.85441 10.9083C8.65111 9.75133 9.73185 8.80914 10.9927 8.18564L9.89812 7.46515C9.72492 7.31274 9.71106 7.04948 9.86348 6.87628L10.9442 5.66392C6.84988 7.19496 4.0649 11.123 4.0649 15.5915C4.0649 18.3972 5.16642 21.0437 7.10621 23.0181ZM14.6991 23.0181H14.8169C18.8489 22.935 22.0911 19.6373 22.0911 15.5845C22.0911 13.7417 21.4191 12.0583 20.3106 10.7628C19.1883 9.4465 17.6157 8.53203 15.8283 8.24799L15.3503 8.19949L15.669 10.4025C15.7313 10.7766 15.3295 11.0191 15.0316 10.8251L11.8102 8.71908C9.05985 9.86217 7.22398 12.5502 7.22398 15.5845C7.22398 19.6858 10.5493 23.0181 14.6506 23.0181H14.6991Z" fill="#242222"/>
</g>
<defs>
<clipPath id="clip0_6439_1348">
<rect width="32" height="32" fill="white" transform="translate(0.5)"/>
</clipPath>
</defs>
</svg>
