<svg width="180" height="244" viewBox="0 0 180 244" fill="none" xmlns="http://www.w3.org/2000/svg">
<g opacity="0.2">
<circle cx="6.09575" cy="6.09575" r="6.09575" transform="matrix(1 0 0 -1 0 244)" fill="#64A3EF"/>
<circle cx="6.09575" cy="6.09575" r="6.09575" transform="matrix(1 0 0 -1 22.3512 244)" fill="#64A3EF"/>
<circle cx="6.09575" cy="6.09575" r="6.09575" transform="matrix(1 0 0 -1 67.0535 244)" fill="#64A3EF"/>
<circle cx="6.09575" cy="6.09575" r="6.09575" transform="matrix(1 0 0 -1 44.7024 201.33)" fill="#64A3EF"/>
<circle cx="6.09575" cy="6.09575" r="6.09575" transform="matrix(1 0 0 -1 44.7024 181.01)" fill="#64A3EF"/>
<circle cx="6.09575" cy="6.09575" r="6.09575" transform="matrix(1 0 0 -1 44.7024 32.6807)" fill="#64A3EF"/>
<circle cx="6.09575" cy="6.09575" r="6.09575" transform="matrix(1 0 0 -1 67.0535 223.681)" fill="#64A3EF"/>
<circle cx="6.09575" cy="6.09575" r="6.09575" transform="matrix(1 0 0 -1 89.4041 244)" fill="#64A3EF"/>
<circle cx="6.09575" cy="6.09575" r="6.09575" transform="matrix(1 0 0 -1 89.4041 201.33)" fill="#64A3EF"/>
<circle cx="6.09575" cy="6.09575" r="6.09575" transform="matrix(1 0 0 -1 89.4041 181.01)" fill="#64A3EF"/>
<circle cx="6.09575" cy="6.09575" r="6.09575" transform="matrix(1 0 0 -1 89.4041 32.6807)" fill="#64A3EF"/>
<circle cx="6.09575" cy="6.09575" r="6.09575" transform="matrix(1 0 0 -1 89.4041 52.999)" fill="#64A3EF"/>
<circle cx="6.09575" cy="6.09575" r="6.09575" transform="matrix(1 0 0 -1 89.4041 160.691)" fill="#64A3EF"/>
<circle cx="6.09575" cy="6.09575" r="6.09575" transform="matrix(1 0 0 -1 89.4041 140.372)" fill="#64A3EF"/>
<circle cx="6.09575" cy="6.09575" r="6.09575" transform="matrix(1 0 0 -1 69.085 140.372)" fill="#64A3EF"/>
<circle cx="6.09575" cy="6.09575" r="6.09575" transform="matrix(1 0 0 -1 67.0535 181.01)" fill="#64A3EF"/>
<circle cx="6.09575" cy="6.09575" r="6.09575" transform="matrix(1 0 0 -1 67.0535 32.6807)" fill="#64A3EF"/>
<circle cx="6.09575" cy="6.09575" r="6.09575" transform="matrix(1 0 0 -1 67.0535 52.999)" fill="#64A3EF"/>
<circle cx="6.09575" cy="6.09575" r="6.09575" transform="matrix(1 0 0 -1 111.755 244)" fill="#64A3EF"/>
<circle cx="6.09575" cy="6.09575" r="6.09575" transform="matrix(1 0 0 -1 111.755 201.33)" fill="#64A3EF"/>
<circle cx="6.09575" cy="6.09575" r="6.09575" transform="matrix(1 0 0 -1 111.755 181.01)" fill="#64A3EF"/>
<circle cx="6.09575" cy="6.09575" r="6.09575" transform="matrix(1 0 0 -1 111.755 32.6807)" fill="#64A3EF"/>
<circle cx="6.09575" cy="6.09575" r="6.09575" transform="matrix(1 0 0 -1 111.755 52.999)" fill="#64A3EF"/>
<circle cx="6.09575" cy="6.09575" r="6.09575" transform="matrix(1 0 0 -1 111.755 160.691)" fill="#64A3EF"/>
<circle cx="6.09575" cy="6.09575" r="6.09575" transform="matrix(1 0 0 -1 111.755 140.372)" fill="#64A3EF"/>
<circle cx="6.09575" cy="6.09575" r="6.09575" transform="matrix(1 0 0 -1 111.755 223.681)" fill="#64A3EF"/>
<circle cx="6.09575" cy="6.09575" r="6.09575" transform="matrix(1 0 0 -1 134.106 244)" fill="#64A3EF"/>
<circle cx="6.09575" cy="6.09575" r="6.09575" transform="matrix(1 0 0 -1 134.106 201.33)" fill="#64A3EF"/>
<circle cx="6.09575" cy="6.09575" r="6.09575" transform="matrix(1 0 0 -1 134.106 181.01)" fill="#64A3EF"/>
<circle cx="6.09575" cy="6.09575" r="6.09575" transform="matrix(1 0 0 -1 134.106 32.6807)" fill="#64A3EF"/>
<circle cx="6.09575" cy="6.09575" r="6.09575" transform="matrix(1 0 0 -1 134.106 52.999)" fill="#64A3EF"/>
<circle cx="6.09575" cy="6.09575" r="6.09575" transform="matrix(1 0 0 -1 134.106 160.691)" fill="#64A3EF"/>
<circle cx="6.09575" cy="6.09575" r="6.09575" transform="matrix(1 0 0 -1 134.106 140.372)" fill="#64A3EF"/>
<circle cx="6.09575" cy="6.09575" r="6.09575" transform="matrix(1 0 0 -1 134.106 115.989)" fill="#64A3EF"/>
<circle cx="6.09575" cy="6.09575" r="6.09575" transform="matrix(1 0 0 -1 134.106 95.6699)" fill="#64A3EF"/>
<circle cx="6.09575" cy="6.09575" r="6.09575" transform="matrix(1 0 0 -1 134.106 75.3516)" fill="#64A3EF"/>
<circle cx="6.09575" cy="6.09575" r="6.09575" transform="matrix(1 0 0 -1 113.787 75.3516)" fill="#64A3EF"/>
<circle cx="6.09575" cy="6.09575" r="6.09575" transform="matrix(1 0 0 -1 134.106 223.681)" fill="#64A3EF"/>
<circle cx="6.09575" cy="6.09575" r="6.09575" transform="matrix(1 0 0 -1 156.458 244)" fill="#64A3EF"/>
<circle cx="6.09575" cy="6.09575" r="6.09575" transform="matrix(1 0 0 -1 156.458 201.33)" fill="#64A3EF"/>
<circle cx="6.09575" cy="6.09575" r="6.09575" transform="matrix(1 0 0 -1 156.458 181.01)" fill="#64A3EF"/>
<circle cx="6.09575" cy="6.09575" r="6.09575" transform="matrix(1 0 0 -1 156.458 32.6807)" fill="#64A3EF"/>
<circle cx="6.09575" cy="6.09575" r="6.09575" transform="matrix(1 0 0 -1 156.458 12.3613)" fill="#64A3EF"/>
<circle cx="6.09575" cy="6.09575" r="6.09575" transform="matrix(1 0 0 -1 156.458 52.999)" fill="#64A3EF"/>
<circle cx="6.09575" cy="6.09575" r="6.09575" transform="matrix(1 0 0 -1 156.458 160.691)" fill="#64A3EF"/>
<circle cx="6.09575" cy="6.09575" r="6.09575" transform="matrix(1 0 0 -1 156.458 140.372)" fill="#64A3EF"/>
<circle cx="6.09575" cy="6.09575" r="6.09575" transform="matrix(1 0 0 -1 156.458 115.989)" fill="#64A3EF"/>
<circle cx="6.09575" cy="6.09575" r="6.09575" transform="matrix(1 0 0 -1 156.458 95.6699)" fill="#64A3EF"/>
<circle cx="6.09575" cy="6.09575" r="6.09575" transform="matrix(1 0 0 -1 156.458 75.3516)" fill="#64A3EF"/>
<circle cx="6.09575" cy="6.09575" r="6.09575" transform="matrix(1 0 0 -1 156.458 223.681)" fill="#64A3EF"/>
<circle cx="6.09575" cy="6.09575" r="6.09575" transform="matrix(1 0 0 -1 178.809 244)" fill="#64A3EF"/>
<circle cx="6.09575" cy="6.09575" r="6.09575" transform="matrix(1 0 0 -1 178.809 201.33)" fill="#64A3EF"/>
<circle cx="6.09575" cy="6.09575" r="6.09575" transform="matrix(1 0 0 -1 178.809 181.01)" fill="#64A3EF"/>
<circle cx="6.09575" cy="6.09575" r="6.09575" transform="matrix(1 0 0 -1 178.809 32.6807)" fill="#64A3EF"/>
<circle cx="6.09575" cy="6.09575" r="6.09575" transform="matrix(1 0 0 -1 178.809 12.3613)" fill="#64A3EF"/>
<circle cx="6.09575" cy="6.09575" r="6.09575" transform="matrix(1 0 0 -1 178.809 52.999)" fill="#64A3EF"/>
<circle cx="6.09575" cy="6.09575" r="6.09575" transform="matrix(1 0 0 -1 178.809 160.691)" fill="#64A3EF"/>
<circle cx="6.09575" cy="6.09575" r="6.09575" transform="matrix(1 0 0 -1 178.809 140.372)" fill="#64A3EF"/>
<circle cx="6.09575" cy="6.09575" r="6.09575" transform="matrix(1 0 0 -1 178.809 115.989)" fill="#64A3EF"/>
<circle cx="6.09575" cy="6.09575" r="6.09575" transform="matrix(1 0 0 -1 178.809 95.6699)" fill="#64A3EF"/>
<circle cx="6.09575" cy="6.09575" r="6.09575" transform="matrix(1 0 0 -1 178.809 75.3516)" fill="#64A3EF"/>
<circle cx="6.09575" cy="6.09575" r="6.09575" transform="matrix(1 0 0 -1 178.809 223.681)" fill="#64A3EF"/>
</g>
</svg>
