<svg width="191" height="244" viewBox="0 0 191 244" fill="none" xmlns="http://www.w3.org/2000/svg">
<g opacity="0.2">
<circle cx="184.904" cy="237.734" r="6.09575" transform="rotate(180 184.904 237.734)" fill="#64A3EF"/>
<circle cx="162.553" cy="237.734" r="6.09575" transform="rotate(180 162.553 237.734)" fill="#64A3EF"/>
<circle cx="117.851" cy="237.734" r="6.09575" transform="rotate(180 117.851 237.734)" fill="#64A3EF"/>
<circle cx="140.202" cy="195.064" r="6.09575" transform="rotate(180 140.202 195.064)" fill="#64A3EF"/>
<circle cx="140.202" cy="174.744" r="6.09575" transform="rotate(180 140.202 174.744)" fill="#64A3EF"/>
<circle cx="140.202" cy="26.415" r="6.09575" transform="rotate(180 140.202 26.415)" fill="#64A3EF"/>
<circle cx="117.851" cy="217.415" r="6.09575" transform="rotate(180 117.851 217.415)" fill="#64A3EF"/>
<circle cx="95.5002" cy="237.734" r="6.09575" transform="rotate(180 95.5002 237.734)" fill="#64A3EF"/>
<circle cx="95.5002" cy="195.064" r="6.09575" transform="rotate(180 95.5002 195.064)" fill="#64A3EF"/>
<circle cx="95.5002" cy="174.744" r="6.09575" transform="rotate(180 95.5002 174.744)" fill="#64A3EF"/>
<circle cx="95.5002" cy="26.415" r="6.09575" transform="rotate(180 95.5002 26.415)" fill="#64A3EF"/>
<circle cx="95.5002" cy="46.7334" r="6.09575" transform="rotate(180 95.5002 46.7334)" fill="#64A3EF"/>
<circle cx="95.5002" cy="154.426" r="6.09575" transform="rotate(180 95.5002 154.426)" fill="#64A3EF"/>
<circle cx="95.5002" cy="134.106" r="6.09575" transform="rotate(180 95.5002 134.106)" fill="#64A3EF"/>
<circle cx="115.819" cy="134.106" r="6.09575" transform="rotate(180 115.819 134.106)" fill="#64A3EF"/>
<circle cx="117.851" cy="174.744" r="6.09575" transform="rotate(180 117.851 174.744)" fill="#64A3EF"/>
<circle cx="117.851" cy="26.415" r="6.09575" transform="rotate(180 117.851 26.415)" fill="#64A3EF"/>
<circle cx="117.851" cy="46.7334" r="6.09575" transform="rotate(180 117.851 46.7334)" fill="#64A3EF"/>
<circle cx="73.1491" cy="237.734" r="6.09575" transform="rotate(180 73.1491 237.734)" fill="#64A3EF"/>
<circle cx="73.1491" cy="195.064" r="6.09575" transform="rotate(180 73.1491 195.064)" fill="#64A3EF"/>
<circle cx="73.1491" cy="174.744" r="6.09575" transform="rotate(180 73.1491 174.744)" fill="#64A3EF"/>
<circle cx="73.1491" cy="26.415" r="6.09575" transform="rotate(180 73.1491 26.415)" fill="#64A3EF"/>
<circle cx="73.1491" cy="46.7334" r="6.09575" transform="rotate(180 73.1491 46.7334)" fill="#64A3EF"/>
<circle cx="73.1491" cy="154.426" r="6.09575" transform="rotate(180 73.1491 154.426)" fill="#64A3EF"/>
<circle cx="73.1491" cy="134.106" r="6.09575" transform="rotate(180 73.1491 134.106)" fill="#64A3EF"/>
<circle cx="73.1491" cy="217.415" r="6.09575" transform="rotate(180 73.1491 217.415)" fill="#64A3EF"/>
<circle cx="50.7979" cy="237.734" r="6.09575" transform="rotate(180 50.7979 237.734)" fill="#64A3EF"/>
<circle cx="50.7978" cy="195.064" r="6.09575" transform="rotate(180 50.7978 195.064)" fill="#64A3EF"/>
<circle cx="50.7978" cy="174.744" r="6.09575" transform="rotate(180 50.7978 174.744)" fill="#64A3EF"/>
<circle cx="50.7978" cy="26.415" r="6.09575" transform="rotate(180 50.7978 26.415)" fill="#64A3EF"/>
<circle cx="50.7978" cy="46.7334" r="6.09575" transform="rotate(180 50.7978 46.7334)" fill="#64A3EF"/>
<circle cx="50.7979" cy="154.426" r="6.09575" transform="rotate(180 50.7979 154.426)" fill="#64A3EF"/>
<circle cx="50.7979" cy="134.106" r="6.09575" transform="rotate(180 50.7979 134.106)" fill="#64A3EF"/>
<circle cx="50.7979" cy="109.724" r="6.09575" transform="rotate(180 50.7979 109.724)" fill="#64A3EF"/>
<circle cx="50.7979" cy="89.4043" r="6.09575" transform="rotate(180 50.7979 89.4043)" fill="#64A3EF"/>
<circle cx="50.7978" cy="69.0859" r="6.09575" transform="rotate(180 50.7978 69.0859)" fill="#64A3EF"/>
<circle cx="71.1169" cy="69.0859" r="6.09575" transform="rotate(180 71.1169 69.0859)" fill="#64A3EF"/>
<circle cx="50.7978" cy="217.415" r="6.09575" transform="rotate(180 50.7978 217.415)" fill="#64A3EF"/>
<circle cx="28.4468" cy="237.734" r="6.09575" transform="rotate(180 28.4468 237.734)" fill="#64A3EF"/>
<circle cx="28.4467" cy="195.064" r="6.09575" transform="rotate(180 28.4467 195.064)" fill="#64A3EF"/>
<circle cx="28.4467" cy="174.744" r="6.09575" transform="rotate(180 28.4467 174.744)" fill="#64A3EF"/>
<circle cx="28.4467" cy="26.415" r="6.09575" transform="rotate(180 28.4467 26.415)" fill="#64A3EF"/>
<circle cx="28.4468" cy="6.09566" r="6.09575" transform="rotate(180 28.4468 6.09566)" fill="#64A3EF"/>
<circle cx="28.4467" cy="46.7334" r="6.09575" transform="rotate(180 28.4467 46.7334)" fill="#64A3EF"/>
<circle cx="28.4468" cy="154.426" r="6.09575" transform="rotate(180 28.4468 154.426)" fill="#64A3EF"/>
<circle cx="28.4468" cy="134.106" r="6.09575" transform="rotate(180 28.4468 134.106)" fill="#64A3EF"/>
<circle cx="28.4468" cy="109.724" r="6.09575" transform="rotate(180 28.4468 109.724)" fill="#64A3EF"/>
<circle cx="28.4468" cy="89.4043" r="6.09575" transform="rotate(180 28.4468 89.4043)" fill="#64A3EF"/>
<circle cx="28.4467" cy="69.0859" r="6.09575" transform="rotate(180 28.4467 69.0859)" fill="#64A3EF"/>
<circle cx="28.4467" cy="217.415" r="6.09575" transform="rotate(180 28.4467 217.415)" fill="#64A3EF"/>
<circle cx="6.09562" cy="237.734" r="6.09575" transform="rotate(180 6.09562 237.734)" fill="#64A3EF"/>
<circle cx="6.09566" cy="195.064" r="6.09575" transform="rotate(180 6.09566 195.064)" fill="#64A3EF"/>
<circle cx="6.09566" cy="174.744" r="6.09575" transform="rotate(180 6.09566 174.744)" fill="#64A3EF"/>
<circle cx="6.09566" cy="26.415" r="6.09575" transform="rotate(180 6.09566 26.415)" fill="#64A3EF"/>
<circle cx="6.09562" cy="6.09566" r="6.09575" transform="rotate(180 6.09562 6.09566)" fill="#64A3EF"/>
<circle cx="6.09566" cy="46.7334" r="6.09575" transform="rotate(180 6.09566 46.7334)" fill="#64A3EF"/>
<circle cx="6.09562" cy="154.426" r="6.09575" transform="rotate(180 6.09562 154.426)" fill="#64A3EF"/>
<circle cx="6.09562" cy="134.106" r="6.09575" transform="rotate(180 6.09562 134.106)" fill="#64A3EF"/>
<circle cx="6.09562" cy="109.724" r="6.09575" transform="rotate(180 6.09562 109.724)" fill="#64A3EF"/>
<circle cx="6.09562" cy="89.4043" r="6.09575" transform="rotate(180 6.09562 89.4043)" fill="#64A3EF"/>
<circle cx="6.09566" cy="69.0859" r="6.09575" transform="rotate(180 6.09566 69.0859)" fill="#64A3EF"/>
<circle cx="6.09566" cy="217.415" r="6.09575" transform="rotate(180 6.09566 217.415)" fill="#64A3EF"/>
</g>
</svg>
