<svg width="32" height="32" viewBox="0 0 32 32" fill="none" xmlns="http://www.w3.org/2000/svg">
<g clip-path="url(#clip0_6292_1029)">
<rect x="1" y="4" width="28" height="18" fill="#FFB300"/>
<rect x="20" y="20" width="9" height="8" fill="#FF5D5D"/>
<path d="M28.6667 14.667C28.2987 14.667 28 14.3683 28 14.0003V4.66699C28 4.29899 27.7 4.00033 27.3333 4.00033H24.6667C24.2987 4.00033 24 3.70166 24 3.33366C24 2.96566 24.2987 2.66699 24.6667 2.66699H27.3333C28.436 2.66699 29.3333 3.56433 29.3333 4.66699V14.0003C29.3333 14.3683 29.0347 14.667 28.6667 14.667Z" fill="#242222"/>
<path d="M12.6667 22.667H2C0.897333 22.667 0 21.7697 0 20.667V4.66699C0 3.58433 0.892 2.68699 1.988 2.66699H4.66667C5.03467 2.66699 5.33333 2.96566 5.33333 3.33366C5.33333 3.70166 5.03467 4.00033 4.66667 4.00033H2C1.63867 4.00699 1.33333 4.30566 1.33333 4.66699V20.667C1.33333 21.035 1.63333 21.3337 2 21.3337H12.6667C13.0347 21.3337 13.3333 21.6323 13.3333 22.0003C13.3333 22.3683 13.0347 22.667 12.6667 22.667Z" fill="#242222"/>
<path d="M25.9997 32C25.6317 32 25.333 31.7013 25.333 31.3333V28.6667C25.333 28.2987 25.6317 28 25.9997 28C26.3677 28 26.6663 28.2987 26.6663 28.6667V31.3333C26.6663 31.7013 26.3677 32 25.9997 32Z" fill="#242222"/>
<path d="M21.9997 32C21.6317 32 21.333 31.7013 21.333 31.3333V28.6667C21.333 28.2987 21.6317 28 21.9997 28C22.3677 28 22.6663 28.2987 22.6663 28.6667V31.3333C22.6663 31.7013 22.3677 32 21.9997 32Z" fill="#242222"/>
<path d="M25.9997 20C25.6317 20 25.333 19.7013 25.333 19.3333V16.6667C25.333 16.2987 25.6317 16 25.9997 16C26.3677 16 26.6663 16.2987 26.6663 16.6667V19.3333C26.6663 19.7013 26.3677 20 25.9997 20Z" fill="#242222"/>
<path d="M21.9997 20C21.6317 20 21.333 19.7013 21.333 19.3333V16.6667C21.333 16.2987 21.6317 16 21.9997 16C22.3677 16 22.6663 16.2987 22.6663 16.6667V19.3333C22.6663 19.7013 22.3677 20 21.9997 20Z" fill="#242222"/>
<path d="M19.3333 26.6663H16.6667C16.2987 26.6663 16 26.3677 16 25.9997C16 25.6317 16.2987 25.333 16.6667 25.333H19.3333C19.7013 25.333 20 25.6317 20 25.9997C20 26.3677 19.7013 26.6663 19.3333 26.6663Z" fill="#242222"/>
<path d="M19.3333 22.6663H16.6667C16.2987 22.6663 16 22.3677 16 21.9997C16 21.6317 16.2987 21.333 16.6667 21.333H19.3333C19.7013 21.333 20 21.6317 20 21.9997C20 22.3677 19.7013 22.6663 19.3333 22.6663Z" fill="#242222"/>
<path d="M31.3333 26.6663H28.6667C28.2987 26.6663 28 26.3677 28 25.9997C28 25.6317 28.2987 25.333 28.6667 25.333H31.3333C31.7013 25.333 32 25.6317 32 25.9997C32 26.3677 31.7013 26.6663 31.3333 26.6663Z" fill="#242222"/>
<path d="M31.3333 22.6663H28.6667C28.2987 22.6663 28 22.3677 28 21.9997C28 21.6317 28.2987 21.333 28.6667 21.333H31.3333C31.7013 21.333 32 21.6317 32 21.9997C32 22.3677 31.7013 22.6663 31.3333 22.6663Z" fill="#242222"/>
<path d="M8.49962 18.9998C10.8996 19.3997 13.833 21.1664 14.9996 21.9998C16.9996 19.9998 19.9996 19.9998 22.4996 19.4998C24.4996 19.0998 24.6663 17.6664 24.4996 16.9998V5.99976C25.333 4.16642 26.0996 0.499751 22.4996 0.499751C18.8996 0.499751 15.9996 2.49975 14.9996 3.49976C13.6663 2.66642 10.2996 0.899751 7.49962 0.499751C4.69962 0.0997506 4.33296 1.66642 4.49962 2.49975V15.9998C4.49962 20.4998 5.49962 18.4998 8.49962 18.9998Z" fill="#FFEEC5"/>
<path d="M27.3337 29.3337H20.667C19.5643 29.3337 18.667 28.4363 18.667 27.3337V20.667C18.667 19.5643 19.5643 18.667 20.667 18.667H27.3337C28.4363 18.667 29.3337 19.5643 29.3337 20.667V27.3337C29.3337 28.4363 28.4363 29.3337 27.3337 29.3337ZM20.667 20.0003C20.3003 20.0003 20.0003 20.299 20.0003 20.667V27.3337C20.0003 27.7017 20.3003 28.0003 20.667 28.0003H27.3337C27.7003 28.0003 28.0003 27.7017 28.0003 27.3337V20.667C28.0003 20.299 27.7003 20.0003 27.3337 20.0003H20.667Z" fill="#242222"/>
<path d="M25.9997 26.6663H21.9997C21.6317 26.6663 21.333 26.3677 21.333 25.9997V21.9997C21.333 21.6317 21.6317 21.333 21.9997 21.333H25.9997C26.3677 21.333 26.6663 21.6317 26.6663 21.9997V25.9997C26.6663 26.3677 26.3677 26.6663 25.9997 26.6663ZM22.6663 25.333H25.333V22.6663H22.6663V25.333Z" fill="#242222"/>
<path d="M12.9067 21.3336C12.7853 21.3336 12.6627 21.3016 12.552 21.2323C10.5533 19.9816 8.49067 19.4976 6.248 19.7563C5.67067 19.8256 5.092 19.6443 4.66133 19.2603C4.24133 18.8856 4 18.3483 4 17.787V2.12031C4 1.12298 4.74667 0.265643 5.73467 0.126977C8.91467 -0.345023 11.9213 0.541643 14.6667 2.76964C17.412 0.542977 20.4213 -0.342357 23.604 0.12831C24.5867 0.265643 25.3333 1.12298 25.3333 2.12031V12.667C25.3333 13.035 25.0347 13.3336 24.6667 13.3336C24.2987 13.3336 24 13.035 24 12.667V2.12031C24 1.78431 23.748 1.49364 23.4147 1.44698C20.4107 0.997643 17.6947 1.88431 15.1067 4.14298C14.8547 4.36164 14.4813 4.36164 14.2293 4.14298C11.6387 1.88431 8.92933 1.00431 5.924 1.44564C5.58533 1.49364 5.33333 1.78298 5.33333 2.12031V17.787C5.33333 17.971 5.40933 18.1403 5.54667 18.263C5.69333 18.3936 5.896 18.4536 6.09467 18.431C8.62133 18.1403 11.0253 18.7043 13.26 20.1016C13.5707 20.2963 13.6667 20.7083 13.4707 21.0203C13.3453 21.223 13.128 21.3336 12.9067 21.3336Z" fill="#242222"/>
<path d="M14.6667 18.667C14.2987 18.667 14 18.3683 14 18.0003V3.33366C14 2.96566 14.2987 2.66699 14.6667 2.66699C15.0347 2.66699 15.3333 2.96566 15.3333 3.33366V18.0003C15.3333 18.3683 15.0347 18.667 14.6667 18.667Z" fill="#242222"/>
</g>
<defs>
<clipPath id="clip0_6292_1029">
<rect width="32" height="32" fill="white"/>
</clipPath>
</defs>
</svg>
