<svg width="33" height="32" viewBox="0 0 33 32" fill="none" xmlns="http://www.w3.org/2000/svg">
<g clip-path="url(#clip0_6439_1395)">
<mask id="mask0_6439_1395" style="mask-type:luminance" maskUnits="userSpaceOnUse" x="0" y="0" width="33" height="32">
<path d="M0.5 1.90735e-06H32.5V32H0.5V1.90735e-06Z" fill="white"/>
</mask>
<g mask="url(#mask0_6439_1395)">
<path d="M31.1028 13.7171L27.6916 13.129C27.4441 13.0863 27.2415 12.9086 27.1667 12.6688C26.9654 12.0231 26.7073 11.4024 26.3979 10.8129C26.281 10.5903 26.2984 10.3213 26.4434 10.1159L28.4397 7.28788C28.7533 6.84356 28.7015 6.23794 28.317 5.85338L26.6456 4.18213C26.2611 3.79756 25.6555 3.74575 25.2112 4.05938L22.3831 6.05563C22.1777 6.20063 21.9088 6.218 21.6861 6.10119C21.0966 5.79175 20.476 5.53363 19.8303 5.33232C19.5905 5.25756 19.4127 5.05494 19.37 4.80744L18.7819 1.39625C18.6895 0.860313 18.2246 0.468752 17.6808 0.468752H15.3173C14.7734 0.468752 14.3085 0.860313 14.2161 1.39625L13.628 4.80744C13.5853 5.05494 13.4076 5.25756 13.1678 5.33232C12.5221 5.53363 11.9015 5.79175 11.3119 6.10119C11.0893 6.218 10.8203 6.20063 10.6149 6.05563L7.7869 4.05938C7.34259 3.74575 6.73696 3.79756 6.3524 4.18213L4.68115 5.85338C4.29659 6.23794 4.24477 6.84356 4.5584 7.28788L6.55465 10.1159C6.69965 10.3213 6.71702 10.5903 6.60021 10.8129C6.29077 11.4024 6.03265 12.0231 5.83134 12.6688C5.75659 12.9086 5.55396 13.0863 5.3064 13.129L1.89527 13.7171C1.35934 13.8095 0.967773 14.2744 0.967773 14.8183V17.1818C0.967773 17.7256 1.35934 18.1905 1.89527 18.2829L5.3064 18.8711C5.55396 18.9137 5.75659 19.0914 5.83134 19.3313C6.03265 19.9769 6.29077 20.5976 6.60021 21.1871C6.71702 21.4097 6.69965 21.6787 6.55465 21.8841L4.5584 24.7122C4.24477 25.1565 4.29659 25.7621 4.68115 26.1466L6.3524 27.8179C6.73696 28.2025 7.34259 28.2543 7.7869 27.9407L10.6149 25.9444C10.8203 25.7994 11.0893 25.782 11.3119 25.8989C11.9015 26.2083 12.5221 26.4664 13.1678 26.6678C13.4076 26.7425 13.5853 26.9451 13.628 27.1926L14.2161 30.6038C14.3085 31.1397 14.7734 31.5312 15.3173 31.5312H17.6808C18.2246 31.5312 18.6895 31.1397 18.7819 30.6038L19.37 27.1926C19.4127 26.9451 19.5905 26.7425 19.8303 26.6678C20.476 26.4664 21.0966 26.2083 21.6861 25.8989C21.9088 25.782 22.1777 25.7994 22.3831 25.9444L25.2112 27.9407C25.6555 28.2543 26.2611 28.2025 26.6456 27.8179L28.317 26.1466C28.7015 25.7621 28.7533 25.1565 28.4397 24.7122L26.4434 21.8841C26.2984 21.6787 26.281 21.4097 26.3979 21.1871C26.7073 20.5976 26.9654 19.9769 27.1667 19.3313C27.2415 19.0914 27.4441 18.9137 27.6916 18.8711L31.1028 18.2829C31.6387 18.1905 32.0303 17.7256 32.0303 17.1818V14.8183C32.0303 14.2744 31.6387 13.8095 31.1028 13.7171Z" fill="#FFEDC4"/>
<path d="M31.1027 13.7171L27.6915 13.129C27.444 13.0863 27.2414 12.9086 27.1666 12.6688C26.9653 12.0231 26.7072 11.4024 26.3978 10.8129C26.2809 10.5903 26.2983 10.3213 26.4433 10.1159L28.4396 7.28788C28.7532 6.84356 28.7014 6.23794 28.3169 5.85338L26.6455 4.18213C26.261 3.79756 25.6554 3.74575 25.2111 4.05938L23.6905 5.13269C24.3289 6.72756 24.6807 8.46812 24.6807 10.2911C24.6807 17.9621 18.462 24.1808 10.791 24.1808C8.96798 24.1808 7.22735 23.829 5.63235 23.1906L4.55829 24.7122C4.24466 25.1565 4.29648 25.7621 4.68104 26.1466L6.35229 27.8179C6.73685 28.2025 7.34248 28.2543 7.78679 27.9407L10.6148 25.9444C10.8202 25.7994 11.0892 25.782 11.3118 25.8989C11.9014 26.2083 12.522 26.4664 13.1677 26.6678C13.4075 26.7425 13.5852 26.9451 13.6279 27.1926L14.216 30.6038C14.3084 31.1397 14.7733 31.5312 15.3172 31.5312H17.6807C18.2245 31.5312 18.6894 31.1397 18.7818 30.6038L19.3699 27.1926C19.4126 26.9451 19.5904 26.7425 19.8302 26.6678C20.4759 26.4664 21.0965 26.2083 21.686 25.8989C21.9087 25.782 22.1776 25.7994 22.383 25.9444L25.2111 27.9407C25.6554 28.2543 26.261 28.2025 26.6455 27.8179L28.3169 26.1466C28.7014 25.7621 28.7532 25.1565 28.4396 24.7122L26.4433 21.8841C26.2983 21.6787 26.2809 21.4097 26.3978 21.1871C26.7072 20.5976 26.9653 19.9769 27.1666 19.3313C27.2414 19.0914 27.444 18.9137 27.6915 18.8711L31.1027 18.2829C31.6386 18.1905 32.0302 17.7256 32.0302 17.1818V14.8183C32.0302 14.2744 31.6386 13.8095 31.1027 13.7171Z" fill="#FFEDC4"/>
<path d="M23.0662 20.4189H9.93407C9.2367 20.4189 8.67139 19.8536 8.67139 19.1563V12.8428C8.67139 12.1454 9.2367 11.58 9.93407 11.58H23.0662C23.7636 11.58 24.3289 12.1454 24.3289 12.8428V19.1563C24.3289 19.8536 23.7636 20.4189 23.0662 20.4189Z" fill="#F7B319"/>
<path d="M6.3194 4.215L6.35253 4.18188C6.7369 3.7975 7.34253 3.74563 7.7869 4.05938L10.615 6.05563C10.82 6.20063 11.0894 6.21813 11.3119 6.10125C11.9013 5.79188 12.5219 5.53375 13.1675 5.3325C13.4075 5.2575 13.585 5.055 13.6282 4.8075L14.2163 1.39625C14.3088 0.860627 14.7732 0.468752 15.3175 0.468752H17.6807C18.2244 0.468752 18.6894 0.860627 18.7819 1.39625L19.37 4.8075C19.4125 5.055 19.5907 5.2575 19.83 5.3325C20.4763 5.53375 21.0969 5.79188 21.6863 6.10125C21.9088 6.21813 22.1775 6.20063 22.3832 6.05563L25.2113 4.05938C25.6557 3.74563 26.2613 3.7975 26.6457 4.18188L28.3169 5.85313C28.7013 6.23813 28.7532 6.84375 28.4394 7.28813L26.4432 10.1156C26.2982 10.3213 26.2813 10.59 26.3982 10.8131C26.7075 11.4025 26.9657 12.0231 27.1669 12.6688C27.2413 12.9088 27.4444 13.0863 27.6919 13.1288L31.1025 13.7169C31.6388 13.8094 32.03 14.2744 32.03 14.8181V17.1819C32.03 17.7256 31.6388 18.1906 31.1025 18.2831L27.6919 18.8713C27.4444 18.9138 27.2413 19.0913 27.1669 19.3313C26.9657 19.9769 26.7075 20.5975 26.3982 21.1869C26.2813 21.41 26.2982 21.6788 26.4432 21.8844L28.4394 24.7119C28.7532 25.1563 28.7013 25.7619 28.3169 26.1469L26.6457 27.8181C26.2613 28.2025 25.6557 28.2544 25.2113 27.9406L22.3832 25.9444C22.1775 25.7994 21.9088 25.7819 21.6863 25.8988C21.0969 26.2081 20.4763 26.4662 19.83 26.6675C19.5907 26.7425 19.4125 26.945 19.37 27.1925L18.7819 30.6038C18.6894 31.1394 18.2244 31.5312 17.6807 31.5312H15.3175C14.7732 31.5312 14.3088 31.1394 14.2163 30.6038L13.6282 27.1925C13.585 26.945 13.4075 26.7425 13.1675 26.6675C12.5219 26.4662 11.9013 26.2081 11.3119 25.8988C11.0894 25.7819 10.82 25.7994 10.615 25.9444L7.7869 27.9406C7.34253 28.2544 6.7369 28.2025 6.35253 27.8181L4.68128 26.1469C4.29628 25.7619 4.24503 25.1563 4.55815 24.7119L6.5544 21.8844C6.6994 21.6788 6.7169 21.41 6.60003 21.1869C6.29065 20.5975 6.03253 19.9769 5.83128 19.3313C5.75628 19.0913 5.55378 18.9138 5.30628 18.8713L1.89503 18.2831C1.3594 18.1906 0.967529 17.7256 0.967529 17.1819V14.8181C0.967529 14.2744 1.3594 13.8094 1.89503 13.7169L5.30628 13.1288C5.55378 13.0863 5.75628 12.9088 5.83128 12.6688C6.03253 12.0231 6.29065 11.4025 6.60003 10.8131C6.7169 10.59 6.6994 10.3213 6.5544 10.1156L4.55815 7.28813C4.24503 6.84375 4.29628 6.23813 4.68128 5.85313L4.77315 5.76125" stroke="#242222" stroke-width="0.9375" stroke-miterlimit="10" stroke-linecap="round" stroke-linejoin="round"/>
<path d="M10.7564 11.5802H9.93389C9.23701 11.5802 8.67139 12.1452 8.67139 12.8427V19.1564C8.67139 19.8539 9.23701 20.4189 9.93389 20.4189H19.4833" stroke="#242222" stroke-width="0.9375" stroke-miterlimit="10" stroke-linecap="round" stroke-linejoin="round"/>
<path d="M12.9438 11.5802H23.0663C23.7638 11.5802 24.3288 12.1452 24.3288 12.8427V19.1564C24.3288 19.8539 23.7638 20.4189 23.0663 20.4189H21.6707" stroke="#242222" stroke-width="0.9375" stroke-miterlimit="10" stroke-linecap="round" stroke-linejoin="round"/>
<path d="M12.9141 13.4746H10.7859V18.5254H12.9141" stroke="#242222" stroke-width="0.9375" stroke-miterlimit="10" stroke-linecap="round" stroke-linejoin="round"/>
<path d="M12.7572 16H10.7859" stroke="#242222" stroke-width="0.9375" stroke-miterlimit="10" stroke-linecap="round" stroke-linejoin="round"/>
<path d="M15.4434 16.1148L17.565 18.5254" stroke="#242222" stroke-width="0.9375" stroke-miterlimit="10" stroke-linecap="round" stroke-linejoin="round"/>
<path d="M14.8345 16.1057V18.5254" stroke="#242222" stroke-width="0.9375" stroke-miterlimit="10" stroke-linecap="round" stroke-linejoin="round"/>
<path d="M17.5652 14.787C17.5652 15.512 16.9295 16.0997 16.1783 16.0997C15.8057 16.0997 14.8345 16.1055 14.8345 16.1055L14.8361 13.4744H16.1783C16.9295 13.4744 17.5652 14.0621 17.5652 14.787Z" stroke="#242222" stroke-width="0.9375" stroke-miterlimit="10" stroke-linecap="round" stroke-linejoin="round"/>
<path d="M19.4834 16.1057V18.5254" stroke="#242222" stroke-width="0.9375" stroke-miterlimit="10" stroke-linecap="round" stroke-linejoin="round"/>
<path d="M22.2141 14.787C22.2141 15.512 21.5785 16.0997 20.8272 16.0997C20.4546 16.0997 19.4834 16.1055 19.4834 16.1055L19.485 13.4744H20.8272C21.5785 13.4744 22.2141 14.0621 22.2141 14.787Z" stroke="#242222" stroke-width="0.9375" stroke-miterlimit="10" stroke-linecap="round" stroke-linejoin="round"/>
</g>
</g>
<defs>
<clipPath id="clip0_6439_1395">
<rect width="32" height="32" fill="white" transform="translate(0.5)"/>
</clipPath>
</defs>
</svg>
