<svg width="32" height="32" viewBox="0 0 32 32" fill="none" xmlns="http://www.w3.org/2000/svg">
<g clip-path="url(#clip0_6292_205)">
<path d="M15.9995 14.625C19.9345 14.625 23.1245 11.435 23.1245 7.5C23.1245 3.56497 19.9345 0.375 15.9995 0.375C12.0645 0.375 8.87451 3.56497 8.87451 7.5C8.87451 11.435 12.0645 14.625 15.9995 14.625Z" fill="#E0E0E0"/>
<path d="M16.5774 3.19455L17.9839 4.8958L20.0367 5.7078C20.1395 5.74841 20.232 5.81122 20.3077 5.89176C20.3833 5.97229 20.4403 6.06855 20.4744 6.17365C20.5085 6.27875 20.519 6.3901 20.5051 6.49973C20.4912 6.60935 20.4532 6.71455 20.3939 6.8078L19.2104 8.67105L19.0727 10.8748C19.0658 10.9851 19.0347 11.0925 18.9815 11.1893C18.9283 11.2861 18.8544 11.37 18.765 11.435C18.6756 11.4999 18.573 11.5443 18.4645 11.565C18.3559 11.5856 18.2442 11.5821 18.1372 11.5545L15.9994 11.0035L13.8617 11.5535C13.7548 11.5811 13.6431 11.5847 13.5346 11.564C13.4262 11.5434 13.3236 11.4991 13.2342 11.4343C13.1449 11.3695 13.0709 11.2857 13.0177 11.189C12.9644 11.0923 12.9332 10.985 12.9262 10.8748L12.7884 8.6718L11.6049 6.8073C11.5456 6.71405 11.5077 6.60885 11.4938 6.49923C11.4798 6.3896 11.4903 6.27825 11.5245 6.17315C11.5586 6.06805 11.6155 5.97179 11.6912 5.89126C11.7669 5.81072 11.8594 5.74791 11.9622 5.7073L14.0149 4.8953L15.4214 3.1953C15.4917 3.11015 15.58 3.04157 15.6799 2.99448C15.7798 2.94738 15.8888 2.92292 15.9993 2.92285C16.1097 2.92278 16.2188 2.9471 16.3187 2.99406C16.4187 3.04103 16.507 3.10949 16.5774 3.19455Z" fill="#FFC107"/>
<path d="M26.9264 2.76266L25.5122 4.17691C25.3715 4.31757 25.2925 4.50835 25.2925 4.70728C25.2925 4.90621 25.3715 5.09699 25.5122 5.23766C25.6528 5.37832 25.8436 5.45735 26.0425 5.45735C26.2415 5.45735 26.4323 5.37832 26.5729 5.23766L27.9872 3.82341C28.0568 3.75376 28.1121 3.67107 28.1498 3.58007C28.1875 3.48907 28.2069 3.39153 28.2069 3.29303C28.2069 3.19453 28.1875 3.097 28.1498 3.006C28.1121 2.91499 28.0568 2.83231 27.9872 2.76266C27.9175 2.69301 27.8348 2.63776 27.7438 2.60006C27.6528 2.56237 27.5553 2.54297 27.4568 2.54297C27.3583 2.54297 27.2608 2.56237 27.1698 2.60006C27.0788 2.63776 26.9961 2.69301 26.9264 2.76266Z" fill="#FFC107"/>
<path d="M26.9264 11.7377L25.5122 10.3234C25.3715 10.1827 25.2925 9.99196 25.2925 9.79303C25.2925 9.5941 25.3715 9.40332 25.5122 9.26266C25.6528 9.12199 25.8436 9.04297 26.0425 9.04297C26.2415 9.04297 26.4323 9.12199 26.5729 9.26266L27.9872 10.6769C28.0568 10.7466 28.1121 10.8292 28.1498 10.9202C28.1875 11.0112 28.2069 11.1088 28.2069 11.2073C28.2069 11.3058 28.1875 11.4033 28.1498 11.4943C28.1121 11.5853 28.0568 11.668 27.9872 11.7377C27.9175 11.8073 27.8348 11.8626 27.7438 11.9003C27.6528 11.9379 27.5553 11.9573 27.4568 11.9573C27.3583 11.9573 27.2608 11.9379 27.1698 11.9003C27.0788 11.8626 26.9961 11.8073 26.9264 11.7377Z" fill="#FFC107"/>
<path d="M5.07292 2.76266L6.48717 4.17691C6.62783 4.31757 6.70686 4.50835 6.70686 4.70728C6.70686 4.90621 6.62783 5.09699 6.48717 5.23766C6.34651 5.37832 6.15572 5.45735 5.95679 5.45735C5.75787 5.45735 5.56708 5.37832 5.42642 5.23766L4.01217 3.82341C3.8715 3.68274 3.79248 3.49196 3.79248 3.29303C3.79248 3.0941 3.8715 2.90332 4.01217 2.76266C4.15283 2.62199 4.34361 2.54297 4.54254 2.54297C4.74147 2.54297 4.93225 2.62199 5.07292 2.76266Z" fill="#FFC107"/>
<path d="M5.07292 11.7377L6.48717 10.3234C6.55682 10.2538 6.61207 10.1711 6.64976 10.0801C6.68746 9.98907 6.70686 9.89153 6.70686 9.79303C6.70686 9.69453 6.68746 9.597 6.64976 9.506C6.61207 9.41499 6.55682 9.33231 6.48717 9.26266C6.41752 9.19301 6.33483 9.13776 6.24383 9.10006C6.15283 9.06237 6.05529 9.04297 5.95679 9.04297C5.85829 9.04297 5.76076 9.06237 5.66976 9.10006C5.57876 9.13776 5.49607 9.19301 5.42642 9.26266L4.01217 10.6769C3.94252 10.7466 3.88727 10.8292 3.84958 10.9202C3.81188 11.0112 3.79248 11.1088 3.79248 11.2073C3.79248 11.3058 3.81188 11.4033 3.84958 11.4943C3.88727 11.5853 3.94252 11.668 4.01217 11.7377C4.08182 11.8073 4.16451 11.8626 4.25551 11.9003C4.34651 11.9379 4.44404 11.9573 4.54254 11.9573C4.64104 11.9573 4.73858 11.9379 4.82958 11.9003C4.92058 11.8626 5.00327 11.8073 5.07292 11.7377Z" fill="#FFC107"/>
<path d="M3.24951 17.375V29.375C3.24951 29.9717 3.48656 30.544 3.90852 30.966C4.33048 31.3879 4.90277 31.625 5.49951 31.625H26.4995C27.0962 31.625 27.6685 31.3879 28.0905 30.966C28.5125 30.544 28.7495 29.9717 28.7495 29.375V17.375C28.7495 17.1761 28.6705 16.9853 28.5298 16.8447C28.3892 16.704 28.1984 16.625 27.9995 16.625H3.99951C3.8006 16.625 3.60983 16.704 3.46918 16.8447C3.32853 16.9853 3.24951 17.1761 3.24951 17.375Z" fill="#FFC107"/>
<path d="M19.9995 16.625V31.625H26.4995C27.0962 31.625 27.6685 31.3879 28.0905 30.966C28.5125 30.544 28.7495 29.9717 28.7495 29.375V17.375C28.7495 17.1761 28.6705 16.9853 28.5298 16.8447C28.3892 16.704 28.1984 16.625 27.9995 16.625H19.9995Z" fill="#FFB300"/>
<path d="M0.704207 19.6413L2.79971 17.1575C2.94051 16.9907 3.11603 16.8566 3.31401 16.7646C3.51199 16.6727 3.72766 16.625 3.94596 16.625H19.9997L17.0872 20.0763C16.876 20.3265 16.6127 20.5276 16.3157 20.6656C16.0187 20.8035 15.6952 20.875 15.3677 20.875H1.27721C1.13427 20.875 0.994313 20.8341 0.873826 20.7572C0.753338 20.6803 0.657336 20.5706 0.597127 20.4409C0.536918 20.3113 0.515008 20.1671 0.533979 20.0255C0.55295 19.8838 0.612012 19.7505 0.704207 19.6413Z" fill="#FFD54F"/>
<path d="M31.295 19.6413L29.1995 17.1575C29.0587 16.9907 28.8832 16.8566 28.6852 16.7646C28.4872 16.6727 28.2716 16.625 28.0533 16.625H19.9995L22.912 20.0763C23.1232 20.3265 23.3865 20.5276 23.6835 20.6656C23.9805 20.8035 24.304 20.875 24.6315 20.875H30.722C30.865 20.875 31.0049 20.8341 31.1254 20.7572C31.2459 20.6803 31.3419 20.5706 31.4021 20.4409C31.4623 20.3113 31.4842 20.1671 31.4652 20.0255C31.4463 19.8838 31.3872 19.7505 31.295 19.6413Z" fill="#FFC107"/>
<path d="M9.12451 27.375H5.87451C5.6674 27.375 5.49951 27.5429 5.49951 27.75V29C5.49951 29.2071 5.6674 29.375 5.87451 29.375H9.12451C9.33162 29.375 9.49951 29.2071 9.49951 29V27.75C9.49951 27.5429 9.33162 27.375 9.12451 27.375Z" fill="white"/>
<path d="M23.5 7.5C23.5 6.01664 23.0601 4.5666 22.236 3.33323C21.4119 2.09986 20.2406 1.13856 18.8701 0.570907C17.4997 0.00324965 15.9917 -0.145275 14.5368 0.144114C13.082 0.433503 11.7456 1.14781 10.6967 2.1967C9.64781 3.2456 8.9335 4.58197 8.64411 6.03683C8.35472 7.49168 8.50325 8.99968 9.07091 10.3701C9.63856 11.7406 10.5999 12.9119 11.8332 13.736C13.0666 14.5601 14.5166 15 16 15C17.9884 14.9978 19.8948 14.2069 21.3008 12.8008C22.7069 11.3948 23.4978 9.48844 23.5 7.5ZM9.25 7.5C9.25 6.16498 9.64588 4.85994 10.3876 3.7499C11.1293 2.63987 12.1835 1.77471 13.4169 1.26382C14.6503 0.752925 16.0075 0.619253 17.3169 0.879703C18.6262 1.14015 19.829 1.78303 20.773 2.72703C21.717 3.67104 22.3599 4.87377 22.6203 6.18314C22.8808 7.49252 22.7471 8.84972 22.2362 10.0831C21.7253 11.3165 20.8601 12.3707 19.7501 13.1124C18.6401 13.8541 17.335 14.25 16 14.25C14.2104 14.248 12.4947 13.5362 11.2292 12.2708C9.96378 11.0053 9.25199 9.28961 9.25 7.5Z" fill="black"/>
<path d="M18.0447 11.9163C18.2052 11.9575 18.3727 11.9628 18.5355 11.9318C18.6982 11.9007 18.8521 11.8341 18.9861 11.7367C19.1201 11.6393 19.2309 11.5136 19.3107 11.3684C19.3904 11.2232 19.4371 11.0621 19.4475 10.8968L19.579 8.79006L20.7107 7.00806C20.7997 6.8682 20.8566 6.71041 20.8775 6.54597C20.8984 6.38154 20.8826 6.21453 20.8315 6.05687C20.7803 5.89922 20.6949 5.75483 20.5814 5.63403C20.4679 5.51322 20.3291 5.41898 20.175 5.35806L18.212 4.58131L16.8672 2.95431C16.7617 2.82656 16.6292 2.72371 16.4793 2.65311C16.3293 2.58251 16.1657 2.5459 16 2.5459C15.8343 2.5459 15.6706 2.58251 15.5207 2.65311C15.3707 2.72371 15.2383 2.82656 15.1327 2.95431L13.788 4.58131L11.825 5.35906C11.6708 5.41996 11.532 5.51417 11.4185 5.63497C11.305 5.75576 11.2195 5.90015 11.1683 6.05781C11.1171 6.21546 11.1014 6.38248 11.1222 6.54693C11.1431 6.71138 11.2 6.86918 11.289 7.00906L12.421 8.79131L12.5525 10.8981C12.5628 11.0634 12.6095 11.2245 12.6893 11.3697C12.7691 11.5149 12.8799 11.6407 13.014 11.7381C13.148 11.8355 13.3019 11.9021 13.4646 11.9331C13.6274 11.9641 13.795 11.9588 13.9555 11.9176L16 11.3903L18.0447 11.9163ZM13.7697 11.1898C13.7161 11.2039 13.6599 11.206 13.6054 11.1958C13.5509 11.1856 13.4993 11.1634 13.4543 11.1309C13.4094 11.0983 13.3722 11.0562 13.3455 11.0075C13.3188 10.9589 13.3033 10.9049 13.3 10.8496L13.1622 8.64681C13.1585 8.58371 13.1387 8.52261 13.1047 8.46931L11.921 6.60556C11.8913 6.55893 11.8723 6.50632 11.8654 6.4515C11.8584 6.39668 11.8637 6.341 11.8808 6.28845C11.8979 6.2359 11.9263 6.18777 11.9642 6.14751C12.002 6.10725 12.0483 6.07585 12.0997 6.05556L14.1525 5.24356C14.2113 5.22032 14.2634 5.18257 14.3037 5.13381L15.71 3.43381C15.7452 3.39125 15.7893 3.357 15.8393 3.33348C15.8892 3.30997 15.9437 3.29777 15.999 3.29777C16.0542 3.29777 16.1087 3.30997 16.1587 3.33348C16.2086 3.357 16.2528 3.39125 16.288 3.43381L17.6942 5.13506C17.7342 5.18365 17.7858 5.22139 17.8442 5.24481L19.9 6.05631C19.9513 6.07662 19.9976 6.10804 20.0354 6.14832C20.0732 6.18859 20.1017 6.23672 20.1187 6.28927C20.1358 6.34182 20.141 6.39749 20.1341 6.45229C20.1271 6.5071 20.1081 6.55969 20.0785 6.60631L18.8942 8.46956C18.8602 8.52286 18.8404 8.58396 18.8367 8.64706L18.7 10.8496C18.6965 10.9047 18.681 10.9584 18.6544 11.0068C18.6278 11.0552 18.5909 11.0971 18.5462 11.1296C18.5016 11.1621 18.4503 11.1843 18.3961 11.1947C18.3418 11.205 18.286 11.2033 18.2325 11.1896L16.0945 10.6396C16.0331 10.6238 15.9688 10.6238 15.9075 10.6396L13.7697 11.1898Z" fill="black"/>
<path d="M26.8385 5.50235L28.253 4.0881C28.3575 3.9836 28.4404 3.85954 28.497 3.72301C28.5535 3.58647 28.5826 3.44014 28.5826 3.29235C28.5826 3.14457 28.5535 2.99823 28.497 2.8617C28.4404 2.72516 28.3575 2.6011 28.253 2.4966C28.1485 2.3921 28.0244 2.30921 27.8879 2.25266C27.7514 2.1961 27.605 2.16699 27.4573 2.16699C27.3095 2.16699 27.1631 2.1961 27.0266 2.25266C26.8901 2.30921 26.766 2.3921 26.6615 2.4966L25.247 3.91085C25.1425 4.01535 25.0596 4.13941 25.0031 4.27594C24.9466 4.41247 24.9175 4.55879 24.9175 4.70657C24.9175 4.85434 24.9466 5.00066 25.0032 5.13718C25.0597 5.2737 25.1426 5.39774 25.2471 5.50223C25.3516 5.60671 25.4757 5.68959 25.6122 5.74613C25.7487 5.80267 25.8951 5.83176 26.0428 5.83175C26.1906 5.83174 26.3369 5.80262 26.4735 5.74606C26.61 5.6895 26.734 5.60685 26.8385 5.50235ZM25.7775 4.4416L27.192 3.02735C27.2268 2.99252 27.2682 2.96489 27.3137 2.94603C27.3591 2.92717 27.4079 2.91746 27.4572 2.91745C27.5064 2.91743 27.5552 2.92712 27.6007 2.94596C27.6462 2.9648 27.6875 2.99241 27.7224 3.02723C27.7572 3.06204 27.7848 3.10338 27.8037 3.14888C27.8226 3.19437 27.8323 3.24314 27.8323 3.29239C27.8323 3.34164 27.8226 3.39041 27.8038 3.43591C27.7849 3.48142 27.7573 3.52277 27.7225 3.5576L26.308 4.97185C26.2732 5.00669 26.2318 5.03432 26.1864 5.05318C26.1409 5.07204 26.0921 5.08175 26.0428 5.08176C25.9936 5.08177 25.9448 5.07208 25.8993 5.05325C25.8538 5.03441 25.8125 5.00679 25.7776 4.97198C25.7428 4.93716 25.7152 4.89582 25.6963 4.85033C25.6774 4.80483 25.6677 4.75607 25.6677 4.70682C25.6677 4.65757 25.6774 4.6088 25.6962 4.56329C25.7151 4.51779 25.7427 4.47644 25.7775 4.4416Z" fill="black"/>
<path d="M25.2471 10.589L26.6614 12.0032C26.7659 12.1077 26.8899 12.1906 27.0264 12.2472C27.1629 12.3037 27.3092 12.3328 27.457 12.3328C27.6048 12.3328 27.7511 12.3037 27.8876 12.2472C28.0241 12.1906 28.1481 12.1077 28.2526 12.0032C28.3571 11.8988 28.44 11.7747 28.4965 11.6382C28.5531 11.5017 28.5822 11.3554 28.5822 11.2076C28.5822 11.0599 28.5531 10.9135 28.4965 10.777C28.44 10.6405 28.3571 10.5165 28.2526 10.412L26.8384 8.99749C26.7339 8.89301 26.6098 8.81013 26.4733 8.75359C26.3368 8.69705 26.1904 8.66796 26.0427 8.66797C25.8949 8.66798 25.7486 8.6971 25.612 8.75366C25.4755 8.81022 25.3515 8.89312 25.247 8.99762C25.1425 9.10212 25.0596 9.22617 25.0031 9.3627C24.9466 9.49923 24.9175 9.64556 24.9175 9.79333C24.9175 9.9411 24.9466 10.0874 25.0032 10.2239C25.0597 10.3605 25.1426 10.4845 25.2471 10.589ZM25.7774 9.52824C25.8122 9.49339 25.8536 9.46575 25.8991 9.44689C25.9446 9.42803 25.9934 9.41832 26.0426 9.41832C26.0919 9.41832 26.1407 9.42803 26.1862 9.44689C26.2317 9.46575 26.2731 9.49339 26.3079 9.52824L27.7221 10.9427C27.7579 10.9773 27.7865 11.0187 27.8062 11.0645C27.8258 11.1102 27.8362 11.1594 27.8366 11.2092C27.837 11.259 27.8275 11.3084 27.8087 11.3545C27.7898 11.4006 27.762 11.4424 27.7268 11.4776C27.6916 11.5128 27.6497 11.5407 27.6036 11.5595C27.5575 11.5784 27.5081 11.5879 27.4584 11.5875C27.4086 11.587 27.3594 11.5767 27.3136 11.557C27.2678 11.5374 27.2265 11.5088 27.1919 11.473L25.7776 10.0587C25.7428 10.0239 25.7151 9.98259 25.6962 9.93709C25.6773 9.89159 25.6676 9.84281 25.6676 9.79354C25.6676 9.74428 25.6772 9.69549 25.6961 9.64997C25.7149 9.60445 25.7425 9.56308 25.7774 9.52824Z" fill="black"/>
<path d="M3.74678 2.49767C3.53621 2.70892 3.41797 2.99503 3.41797 3.2933C3.41797 3.59157 3.53621 3.87767 3.74678 4.08892L5.16103 5.50342C5.26553 5.60791 5.38958 5.69078 5.52611 5.74732C5.66264 5.80386 5.80897 5.83296 5.95674 5.83294C6.10451 5.83293 6.25084 5.80382 6.38736 5.74725C6.52388 5.69069 6.64792 5.6078 6.7524 5.5033C6.85688 5.3988 6.93976 5.27474 6.9963 5.13821C7.05284 5.00168 7.08194 4.85536 7.08192 4.70758C7.08191 4.55981 7.0528 4.41349 6.99623 4.27697C6.93967 4.14045 6.85678 4.01641 6.75228 3.91192L5.33828 2.49767C5.12695 2.28715 4.84082 2.16895 4.54253 2.16895C4.24424 2.16895 3.9581 2.28715 3.74678 2.49767ZM6.22178 4.44242C6.25661 4.47724 6.28424 4.51858 6.3031 4.56407C6.32196 4.60957 6.33167 4.65833 6.33168 4.70758C6.3317 4.75683 6.32201 4.8056 6.30317 4.85111C6.28433 4.89661 6.25672 4.93796 6.2219 4.9728C6.18709 5.00763 6.14575 5.03527 6.10025 5.05412C6.05476 5.07298 6.00599 5.08269 5.95674 5.0827C5.90749 5.08272 5.85872 5.07303 5.81322 5.05419C5.76771 5.03535 5.72636 5.00774 5.69153 4.97292L4.27728 3.55842C4.20897 3.4877 4.17117 3.39297 4.17202 3.29465C4.17288 3.19632 4.21232 3.10227 4.28185 3.03274C4.35137 2.96321 4.44543 2.92377 4.54375 2.92292C4.64208 2.92207 4.7368 2.95986 4.80753 3.02817L6.22178 4.44242Z" fill="black"/>
<path d="M3.74729 12.0031C3.95857 12.2136 4.24466 12.3318 4.54291 12.3318C4.84116 12.3318 5.12726 12.2136 5.33854 12.0031L6.75304 10.5889C6.85752 10.4844 6.9404 10.3603 6.99694 10.2238C7.05348 10.0873 7.08257 9.94092 7.08256 9.79315C7.08255 9.64538 7.05343 9.49906 6.99687 9.36254C6.94031 9.22602 6.85741 9.10197 6.75291 8.99749C6.64841 8.89301 6.52436 8.81013 6.38783 8.75359C6.2513 8.69705 6.10497 8.66796 5.9572 8.66797C5.80943 8.66798 5.6631 8.6971 5.52658 8.75366C5.39006 8.81022 5.26602 8.89312 5.16154 8.99762L3.74704 10.4119C3.53656 10.6232 3.41841 10.9093 3.41846 11.2075C3.4185 11.5058 3.53675 11.7919 3.74729 12.0031ZM4.27754 10.9421L5.69204 9.52787C5.76235 9.45752 5.85773 9.41798 5.9572 9.41796C6.05666 9.41793 6.15206 9.45742 6.22241 9.52774C6.29276 9.59806 6.3323 9.69344 6.33232 9.7929C6.33234 9.89237 6.29285 9.98777 6.22254 10.0581L4.80804 11.4724C4.77322 11.5072 4.73188 11.5348 4.68639 11.5537C4.64089 11.5725 4.59213 11.5823 4.54288 11.5823C4.49363 11.5823 4.44486 11.5726 4.39935 11.5538C4.35385 11.5349 4.3125 11.5073 4.27766 11.4725C4.24283 11.4377 4.21519 11.3963 4.19634 11.3508C4.17748 11.3053 4.16777 11.2566 4.16776 11.2073C4.16774 11.1581 4.17743 11.1093 4.19627 11.0638C4.21511 11.0183 4.24272 10.9769 4.27754 10.9421Z" fill="black"/>
<path d="M2.51385 16.9155L0.4176 19.4C0.279486 19.5639 0.191055 19.7638 0.162713 19.9762C0.134372 20.1887 0.167299 20.4048 0.257621 20.5991C0.347942 20.7935 0.4919 20.958 0.672552 21.0733C0.853205 21.1886 1.06303 21.2499 1.27735 21.25H2.87485V29.375C2.87564 30.071 3.15246 30.7382 3.64457 31.2303C4.13668 31.7224 4.8039 31.9992 5.49985 32H26.4998C27.1958 31.9992 27.863 31.7224 28.3551 31.2303C28.8472 30.7382 29.1241 30.071 29.1248 29.375V21.25H30.7223C30.9367 21.2499 31.1465 21.1886 31.3271 21.0733C31.5078 20.958 31.6518 20.7935 31.7421 20.5991C31.8324 20.4048 31.8653 20.1887 31.837 19.9762C31.8086 19.7638 31.7202 19.5639 31.5821 19.4L29.4858 16.916C29.3101 16.7072 29.0907 16.5394 28.8432 16.4243C28.5957 16.3093 28.326 16.2498 28.0531 16.25H3.9466C3.6737 16.2497 3.40405 16.3092 3.15654 16.4241C2.90904 16.5391 2.68968 16.7068 2.51385 16.9155ZM28.0531 17C28.2169 16.9999 28.3787 17.0356 28.5272 17.1047C28.6757 17.1738 28.8072 17.2746 28.9126 17.4L31.0089 19.8838C31.0548 19.9384 31.0841 20.005 31.0935 20.0757C31.1029 20.1464 31.0919 20.2184 31.0618 20.2831C31.0317 20.3478 30.9838 20.4026 30.9237 20.441C30.8635 20.4794 30.7937 20.4999 30.7223 20.5H24.6318C24.3591 20.5001 24.0895 20.4406 23.8422 20.3256C23.5948 20.2106 23.3756 20.0429 23.1999 19.8343L20.8071 17H28.0531ZM20.3748 17.65L22.6248 20.317C22.871 20.6096 23.1782 20.8448 23.5249 21.0059C23.8717 21.1671 24.2495 21.2504 24.6318 21.25H28.3748V29.375C28.3743 29.8721 28.1766 30.3487 27.8251 30.7002C27.4736 31.0518 26.997 31.2495 26.4998 31.25H20.3748V17.65ZM19.6248 31.25H5.49985C5.00273 31.2495 4.52613 31.0518 4.17461 30.7002C3.82309 30.3487 3.62538 29.8721 3.62485 29.375V21.25H15.3679C15.7501 21.2506 16.1279 21.1674 16.4746 21.0064C16.8214 20.8454 17.1286 20.6104 17.3748 20.318L19.6248 17.651V31.25ZM3.9466 17H19.1926L16.7998 19.8343C16.6241 20.0429 16.4049 20.2106 16.1575 20.3256C15.9102 20.4406 15.6406 20.5001 15.3679 20.5H1.27735C1.2059 20.5 1.13595 20.4795 1.07573 20.4411C1.01551 20.4026 0.967528 20.3478 0.937428 20.283C0.907328 20.2182 0.896365 20.1461 0.905829 20.0753C0.915293 20.0045 0.944791 19.9379 0.99085 19.8833L3.0871 17.4C3.19246 17.2746 3.324 17.1738 3.4725 17.1047C3.62099 17.0356 3.78282 16.9999 3.9466 17Z" fill="black"/>
<path d="M17.875 28.875H15.625C15.5255 28.875 15.4302 28.9145 15.3598 28.9848C15.2895 29.0552 15.25 29.1505 15.25 29.25C15.25 29.3495 15.2895 29.4448 15.3598 29.5152C15.4302 29.5855 15.5255 29.625 15.625 29.625H17.875C17.9745 29.625 18.0698 29.5855 18.1402 29.5152C18.2105 29.4448 18.25 29.3495 18.25 29.25C18.25 29.1505 18.2105 29.0552 18.1402 28.9848C18.0698 28.9145 17.9745 28.875 17.875 28.875Z" fill="black"/>
<path d="M15.25 27.25C15.25 27.3495 15.2895 27.4448 15.3598 27.5152C15.4302 27.5855 15.5255 27.625 15.625 27.625H17.875C17.9745 27.625 18.0698 27.5855 18.1402 27.5152C18.2105 27.4448 18.25 27.3495 18.25 27.25C18.25 27.1505 18.2105 27.0552 18.1402 26.9848C18.0698 26.9145 17.9745 26.875 17.875 26.875H15.625C15.5255 26.875 15.4302 26.9145 15.3598 26.9848C15.2895 27.0552 15.25 27.1505 15.25 27.25Z" fill="black"/>
<path d="M9.125 27H5.875C5.67609 27 5.48532 27.079 5.34467 27.2197C5.20402 27.3603 5.125 27.5511 5.125 27.75V29C5.125 29.1989 5.20402 29.3897 5.34467 29.5303C5.48532 29.671 5.67609 29.75 5.875 29.75H9.125C9.32391 29.75 9.51468 29.671 9.65533 29.5303C9.79598 29.3897 9.875 29.1989 9.875 29V27.75C9.875 27.5511 9.79598 27.3603 9.65533 27.2197C9.51468 27.079 9.32391 27 9.125 27ZM5.875 29V27.75H9.125V29H5.875Z" fill="black"/>
</g>
<defs>
<clipPath id="clip0_6292_205">
<rect width="32" height="32" fill="white"/>
</clipPath>
</defs>
</svg>
