<svg width="32" height="32" viewBox="0 0 32 32" fill="none" xmlns="http://www.w3.org/2000/svg">
<g clip-path="url(#clip0_6292_718)">
<path d="M21.3231 27.6487L20.0637 21.2869C19.9806 20.8619 19.7856 20.4881 19.5056 20.1919C19.2275 19.8962 18.8662 19.68 18.4444 19.57L14.8694 18.6325C14.7544 18.6025 14.6531 18.5619 14.5612 18.5087C14.4706 18.4556 14.3856 18.3862 14.3025 18.3L13.4838 17.4494V16.9462C13.7569 16.7675 14.01 16.5637 14.2419 16.3369C14.775 15.8212 15.195 15.1887 15.4606 14.4837H16.1731C16.0687 14.8044 15.9356 15.1144 15.7762 15.4087C15.5138 15.8975 15.1812 16.3444 14.795 16.7356C14.5981 16.9337 14.5981 17.2531 14.7969 17.4512C14.995 17.6481 15.3162 17.6462 15.5125 17.4494C15.9694 16.9869 16.3594 16.4625 16.6694 15.8869C16.9212 15.4175 17.1213 14.9125 17.2575 14.3812C17.4575 14.3031 17.6381 14.1844 17.7887 14.0337C18.0669 13.7575 18.2388 13.375 18.2388 12.9512V11.0062C18.2388 10.5844 18.0669 10.2019 17.7887 9.92374C17.6275 9.76249 17.4325 9.63874 17.2131 9.56062V8.05624C17.2131 6.85124 16.7794 5.98874 16.065 5.39874C15.5975 5.01249 15.0144 4.75749 14.3625 4.61062C14.6156 4.37687 14.8056 4.11812 14.9362 3.79187C15.0512 3.53874 14.94 3.23937 14.6881 3.12249C14.2238 2.90999 13.6075 2.70249 12.9219 2.55187C11.8075 2.30562 10.4856 2.20437 9.29875 2.45812C8.04437 2.72562 6.94062 3.37749 6.35625 4.64812C6.28687 4.79874 6.225 4.95812 6.17188 5.12499C5.58875 5.16062 5.13563 5.41187 4.80438 5.78562C4.4675 6.16624 4.27125 6.66812 4.2075 7.17999C4.19312 7.30749 4.18437 7.43312 4.18437 7.55937V9.56124C3.96625 9.63937 3.77 9.76312 3.60875 9.92437C3.3325 10.2025 3.16062 10.585 3.16062 11.0069V12.9519C3.16062 13.375 3.3325 13.7581 3.60875 14.0344C3.88688 14.3125 4.26937 14.4844 4.69125 14.4844H5.93687C6.20437 15.1894 6.62437 15.8219 7.15562 16.3375C7.3875 16.5644 7.64313 16.7681 7.91375 16.9469V17.45L7.095 18.3006C7.01187 18.3875 6.92687 18.4562 6.83625 18.5094C6.74563 18.5625 6.645 18.6031 6.53 18.6331L2.955 19.5706C2.53312 19.6806 2.17188 19.8969 1.89188 20.1925C1.61188 20.4881 1.41875 20.8625 1.33375 21.2875L0.07375 27.6487C0.045625 27.7975 0.03125 27.9431 0.03125 28.0844C0.03125 28.6106 0.21875 29.1012 0.53625 29.4856C0.853125 29.8719 1.3 30.15 1.81687 30.2525C1.96062 30.2806 2.1075 30.295 2.25813 30.295H5.06625L4.07062 22.0362C4.05312 21.8837 4.09562 21.7437 4.19812 21.6287C4.3025 21.5137 4.43563 21.4531 4.59125 21.4531H16.8069C16.9613 21.4531 17.0956 21.5131 17.1981 21.6287C17.3006 21.7444 17.345 21.8837 17.3256 22.0362L16.3319 30.2956H19.1381C19.2887 30.2956 19.4356 30.2812 19.5794 30.2531C20.0969 30.1506 20.5431 29.8725 20.86 29.4862C21.1788 29.1019 21.3669 28.6112 21.3669 28.085C21.3675 27.9425 21.3531 27.7975 21.3231 27.6487ZM15.7794 12.8887C15.7831 12.8694 15.7831 12.85 15.7831 12.83V10.4881H16.7062C16.8481 10.4881 16.9775 10.5469 17.0713 10.6406C17.165 10.7344 17.2237 10.8637 17.2237 11.0056V12.9506C17.2237 13.0925 17.165 13.2219 17.0713 13.3175C16.9775 13.4112 16.8481 13.47 16.7062 13.47H15.7262C15.7544 13.2787 15.7744 13.0856 15.7794 12.8887ZM4.69063 13.47C4.54875 13.47 4.41937 13.4112 4.32562 13.3175C4.23187 13.2219 4.17312 13.0925 4.17312 12.9506V11.0056C4.17312 10.8637 4.23187 10.7344 4.32562 10.6406C4.41937 10.5469 4.54875 10.4881 4.69063 10.4881H5.63688C5.62063 10.5362 5.61375 10.5856 5.61375 10.6369V12.83H5.61562V12.8406C5.62063 13.0531 5.64062 13.2637 5.6725 13.4694L4.69063 13.47ZM6.79688 13.8725C6.79125 13.8456 6.7825 13.8212 6.77375 13.7962C6.75062 13.7131 6.57 12.8306 6.62875 12.8306V10.8694C6.82375 10.6956 7.00062 10.5187 7.16 10.3362C7.17562 10.32 7.19 10.3044 7.20437 10.285C7.39187 10.0637 7.55312 9.83124 7.68437 9.58499C7.81187 9.34249 7.90938 9.08687 7.97125 8.81624C8.7225 9.29124 9.8175 9.69499 10.9881 9.91812C12.2512 10.1594 13.6244 10.2069 14.7688 9.92187V9.98187V12.8306C14.7688 13.1406 14.7069 13.4987 14.6219 13.7962C14.6131 13.8212 14.6062 13.8475 14.6006 13.8725C14.08 15.5894 12.4838 16.7637 10.6975 16.7637C8.9125 16.7637 7.31625 15.5887 6.79688 13.8725ZM12.4681 17.8531C12.4681 18.3406 12.2713 18.78 11.9525 19.0987C11.6319 19.4156 11.1888 19.6144 10.6981 19.6144C10.2075 19.6144 9.76438 19.4162 9.44563 19.0987C9.125 18.78 8.92813 18.3406 8.92813 17.8531V17.46C9.48063 17.6656 10.0763 17.7787 10.6981 17.7787C11.32 17.7787 11.9169 17.6656 12.4681 17.46V17.8531ZM11.6656 25.875C11.6656 26.405 11.2319 26.8369 10.6981 26.8369C10.1669 26.8369 9.73063 26.4044 9.73063 25.875C9.73063 25.3437 10.1663 24.9112 10.6981 24.9112C11.2319 24.9112 11.6656 25.3437 11.6656 25.875ZM8.80812 11.8862C8.78 11.8862 8.755 11.89 8.7375 11.8987C8.71813 11.9094 8.69875 11.9256 8.6825 11.9469C8.51062 12.1681 8.19187 12.2094 7.97 12.0375C7.74875 11.8656 7.70937 11.5469 7.88125 11.325C7.9875 11.1869 8.12937 11.0719 8.2925 10.9919C8.45187 10.9137 8.6275 10.8712 8.80812 10.8712C8.99062 10.8712 9.16437 10.9137 9.32375 10.9919C9.48687 11.0719 9.62875 11.1869 9.735 11.325C9.90687 11.5462 9.86812 11.8656 9.64625 12.0375C9.425 12.2094 9.1075 12.1687 8.93563 11.9469C8.91813 11.9256 8.89812 11.9094 8.87875 11.8987C8.86125 11.89 8.83625 11.8862 8.80812 11.8862ZM11.6619 11.3244C11.77 11.1862 11.91 11.0712 12.0744 10.9912C12.2319 10.9131 12.4075 10.8706 12.5881 10.8706C12.7706 10.8706 12.9462 10.9131 13.1038 10.9912C13.2669 11.0712 13.4087 11.1862 13.5162 11.3244C13.6881 11.5456 13.6475 11.865 13.4256 12.0369C13.2056 12.2087 12.8869 12.1681 12.715 11.9462C12.6975 11.925 12.6794 11.9087 12.6581 11.8981C12.6406 11.8894 12.6175 11.8856 12.5875 11.8856C12.5594 11.8856 12.5363 11.8894 12.5169 11.8981C12.4975 11.9087 12.4781 11.925 12.4619 11.9462C12.29 12.1675 11.9713 12.2087 11.7494 12.0369C11.5312 11.865 11.49 11.5462 11.6619 11.3244ZM10.6981 15.69C10.3438 15.69 10.0056 15.6069 9.70063 15.4581C9.385 15.3037 9.1125 15.0825 8.90312 14.8131C8.73125 14.5919 8.77 14.2725 8.99187 14.1006C9.21312 13.9287 9.5325 13.9694 9.70438 14.1894C9.82312 14.3437 9.97375 14.4675 10.1438 14.5506C10.3088 14.6306 10.4963 14.6762 10.6981 14.6762C10.9 14.6762 11.0881 14.63 11.2525 14.5506C11.4244 14.4675 11.575 14.3431 11.6938 14.1894C11.8656 13.9694 12.1825 13.9287 12.4044 14.1006C12.6256 14.2725 12.6669 14.5912 12.495 14.8131C12.2844 15.0825 12.0112 15.3037 11.6962 15.4581C11.3931 15.6069 11.0525 15.69 10.6981 15.69Z" fill="#242222"/>
<path d="M22.5326 17.3929H20.2595C19.967 16.7566 19.7795 16.0641 19.7207 15.3341H22.2738C22.3038 16.0591 22.3926 16.7516 22.5326 17.3929ZM31.9682 14.3191C31.9082 13.591 31.722 12.8966 31.4295 12.2622H29.1545C29.2945 12.9016 29.3851 13.5947 29.4132 14.3191H31.9682ZM20.8495 11.2472H22.8126C22.9313 10.891 23.0676 10.5597 23.2201 10.2566C23.4913 9.71285 23.8138 9.25723 24.1751 8.9116C22.8176 9.29473 21.652 10.131 20.8495 11.2472ZM22.8126 18.406H20.8495C21.652 19.5222 22.8176 20.3604 24.1751 20.741C23.8138 20.3972 23.4913 19.9403 23.2201 19.3979C23.0676 19.0954 22.9313 18.7622 22.8126 18.406ZM26.352 17.3929H28.1163C28.2688 16.7641 28.3682 16.0697 28.3982 15.3341H26.352V17.3929ZM28.117 12.2622H26.3526V14.3191H28.3988C28.3682 13.5841 28.2688 12.8891 28.117 12.2622ZM26.352 9.31035V11.2466H27.8032C27.7288 11.0572 27.6488 10.8766 27.5657 10.7079C27.222 10.021 26.802 9.5266 26.352 9.31035ZM28.877 11.2472H30.8382C30.0376 10.131 28.872 9.29473 27.5126 8.91223C27.8738 9.25785 28.1963 9.71285 28.4695 10.2572C28.6201 10.5597 28.7563 10.891 28.877 11.2472ZM22.5326 12.2622H20.2595C19.967 12.8966 19.7795 13.591 19.7207 14.3191H22.2738C22.3038 13.5947 22.3926 12.9016 22.5326 12.2622ZM29.1551 17.3929H31.1676H31.4301C31.7226 16.7566 31.9082 16.0641 31.9688 15.3341H29.4138C29.3851 16.0591 29.2951 16.7516 29.1551 17.3929ZM24.1232 10.7085C24.0382 10.8766 23.9582 11.0572 23.8857 11.2472H25.337V9.31098C24.8851 9.5266 24.467 10.021 24.1232 10.7085ZM28.4695 19.3985C28.1963 19.9404 27.8745 20.3979 27.5126 20.7416C28.8695 20.361 30.037 19.5229 30.8382 18.4066H28.877C28.7563 18.7622 28.6201 19.0954 28.4695 19.3985ZM27.8032 18.406H26.352V20.3422C26.802 20.126 27.222 19.6316 27.5657 18.946C27.6488 18.7766 27.7288 18.596 27.8032 18.406ZM23.2888 14.3191H25.337V12.2622H23.5707C23.4182 12.8891 23.3207 13.5841 23.2888 14.3191ZM23.5707 17.3929H25.337V15.3341H23.2888C23.3207 16.0697 23.4182 16.7641 23.5707 17.3929ZM24.1232 18.9466C24.467 19.6322 24.8851 20.1266 25.337 20.3429V18.4066H23.8857C23.9588 18.596 24.0382 18.7766 24.1232 18.9466ZM20.6226 4.42785C21.367 3.88223 22.1995 3.44785 23.0938 3.15598C23.9582 2.87223 24.8813 2.72035 25.8432 2.72035C26.8051 2.72035 27.7301 2.87285 28.5926 3.15598C29.4888 3.44848 30.322 3.88223 31.0657 4.42785C31.2907 4.5941 31.6076 4.54473 31.7726 4.31973C31.9376 4.09473 31.8895 3.77785 31.6645 3.61098C30.8338 3.0016 29.9051 2.51973 28.9057 2.1916C27.9401 1.87598 26.9107 1.7041 25.8426 1.7041C24.7763 1.7041 23.747 1.87598 22.7813 2.1916C21.782 2.5191 20.852 3.00098 20.0226 3.61098C19.7976 3.77723 19.7482 4.09473 19.9126 4.31973C20.0807 4.54473 20.3957 4.59473 20.6226 4.42785ZM25.8438 4.93973C26.5332 4.93973 27.1957 5.0441 27.8157 5.23723C28.4626 5.4391 29.0645 5.7366 29.607 6.11223C29.8376 6.2716 30.1526 6.21348 30.3101 5.98473C30.4695 5.7541 30.4113 5.4391 30.1826 5.2816C29.5557 4.84598 28.8595 4.50223 28.117 4.26973C27.3976 4.04473 26.6338 3.9241 25.8438 3.9241C25.0557 3.9241 24.2901 4.04473 23.5707 4.26973C22.8282 4.5016 22.1338 4.84535 21.507 5.2816C21.2763 5.4391 21.2201 5.75473 21.3776 5.98473C21.537 6.21348 21.8526 6.2716 22.0807 6.11223C22.6245 5.7366 23.227 5.4391 23.872 5.23723C24.4938 5.04473 25.1545 4.93973 25.8438 4.93973ZM28.1501 7.8116C28.3876 7.95848 28.6995 7.8841 28.8463 7.6466C28.9932 7.4091 28.9188 7.09723 28.6813 6.95035C28.2595 6.6916 27.8026 6.48598 27.3188 6.34973C26.8476 6.21535 26.3532 6.1441 25.8432 6.1441C25.3345 6.1441 24.8407 6.21473 24.3695 6.34973C23.8857 6.48598 23.427 6.6916 23.007 6.95035C22.7695 7.09723 22.6951 7.4091 22.842 7.6466C22.9888 7.8841 23.2988 7.95848 23.5363 7.8116C23.8763 7.60285 24.247 7.43598 24.642 7.3241C25.0226 7.21598 25.4251 7.1591 25.8432 7.1591C26.2632 7.1591 26.6651 7.21598 27.0445 7.3241C27.4401 7.43598 27.812 7.60285 28.1501 7.8116Z" fill="#242222"/>
<path d="M8.82804 17.8184H7.81278C7.32109 18.484 6.28501 19.0084 5.82844 19.1489C5.63666 19.2009 4.88012 19.404 3.3882 19.8008C1.89628 20.1976 1.36458 21.1433 1.28522 21.5665C1.16619 22.1022 0.817022 23.7965 0.372648 26.2883C-0.595513 29.7641 1.64898 30.6463 2.89225 30.6529C7.27013 30.6463 16.6092 30.6371 18.9423 30.6529C21.2754 30.6688 21.409 28.7682 21.1841 27.8159C20.9328 26.6057 20.3549 23.7369 20.0533 21.9435C19.6763 19.7016 16.2793 19.4767 15.0682 19.1489C14.0993 18.8868 13.5246 18.1527 13.3584 17.8184C13.2682 17.8439 12.9452 17.8951 12.3753 17.8951C12.0475 20.3886 11.4776 19.8614 10.1525 19.9469C9.09241 20.0153 8.82782 18.5564 8.82804 17.8184Z" fill="#F7B319" stroke="#242222" stroke-width="0.5" stroke-linecap="round"/>
<path d="M4.04615 22.153L5.08069 30.2945H16.3258C16.6331 27.8355 17.2703 22.7647 17.3603 22.153C17.4503 21.5413 16.7831 21.4333 16.4382 21.4558C13.0647 21.4633 6.07025 21.4738 5.08069 21.4558C4.09114 21.4378 3.97868 21.9131 4.04615 22.153Z" fill="#D9D9D9" stroke="#242222" stroke-width="0.5" stroke-linecap="round"/>
<circle cx="10.6995" cy="25.8733" r="0.94458" fill="#242222"/>
</g>
<defs>
<clipPath id="clip0_6292_718">
<rect width="32" height="32" fill="white"/>
</clipPath>
</defs>
</svg>
