<svg width="32" height="32" viewBox="0 0 32 32" fill="none" xmlns="http://www.w3.org/2000/svg">
<path d="M27.0173 24.4828C27.2886 24.3689 27.5385 24.2642 27.7705 24.1729C27.6945 23.9062 27.6979 23.8049 27.2819 23.7676C25.8154 24.0096 24.1116 24.9675 22.3018 25.3787C22.3425 25.6247 22.3573 25.8743 22.3458 26.1233C23.9411 25.692 25.5025 25.1436 27.0173 24.4828Z" fill="#FEDCC5"/>
<path d="M7.09488 22.7312V22.8978C6.85959 22.9039 6.63518 22.9982 6.46605 23.1619C6.29693 23.3256 6.19543 23.5468 6.18164 23.7817V28.7812C6.18113 28.9783 6.24595 29.17 6.36596 29.3263C6.48596 29.4826 6.6544 29.5947 6.84491 29.6451C13.6242 31.5969 23.0859 30.9237 28.7526 26.1435C29.0112 25.9839 29.2154 25.7499 29.3386 25.4722C29.3257 25.451 29.3103 25.4315 29.2926 25.4142C26.5489 26.3041 24.893 27.4074 20.5761 28.2253C18.5197 28.8992 15.922 28.6312 13.3509 28.3179C13.1438 28.289 12.9553 28.1829 12.8232 28.0209C12.6911 27.8588 12.6252 27.6528 12.6386 27.4442C12.652 27.2355 12.7438 27.0397 12.8955 26.8958C13.0473 26.752 13.2478 26.6709 13.4569 26.6688C15.6087 26.9454 18.6044 27.212 20.0809 26.6488L20.0955 26.6434L20.1209 26.6334C20.4788 26.4921 20.6755 26.3188 20.6881 26.1268C20.7384 25.8119 20.6638 25.4897 20.4802 25.2289C19.9975 24.867 19.7022 25.0756 19.241 25.0249C15.3454 25.0249 14.5528 24.5537 13.6355 24.0084C12.8483 23.5418 11.9637 23.0178 7.11755 22.8952L7.10621 22.7285L7.09488 22.7312Z" fill="#FEDCC5"/>
<path d="M2.24525 29.6692H4.45102C4.47088 29.669 4.48987 29.661 4.50385 29.6469C4.51783 29.6328 4.52568 29.6137 4.52568 29.5938V22.9692C4.52568 22.9494 4.51781 22.9304 4.50381 22.9164C4.48981 22.9024 4.47082 22.8945 4.45102 22.8945H2.24525C2.22538 22.8945 2.20633 22.9024 2.19222 22.9164C2.17811 22.9303 2.1701 22.9493 2.16992 22.9692V29.5972C2.17094 29.6165 2.1793 29.6347 2.1933 29.6481C2.2073 29.6615 2.22588 29.669 2.24525 29.6692ZM3.34913 27.6134C3.56455 27.6195 3.7691 27.7094 3.91931 27.8639C4.06952 28.0184 4.15356 28.2254 4.15356 28.441C4.15356 28.6565 4.06952 28.8635 3.91931 29.018C3.7691 29.1725 3.56455 29.2624 3.34913 29.2685C3.13369 29.2628 2.92899 29.1732 2.77852 29.0189C2.62806 28.8646 2.54369 28.6578 2.54334 28.4422C2.54299 28.2267 2.6267 28.0196 2.77667 27.8648C2.92663 27.71 3.13105 27.6198 3.34647 27.6134H3.34913Z" fill="#A780BA"/>
<path d="M11.2336 21.5316C15.8237 22.2536 13.3867 23.3681 18.9661 23.3715C41.4551 6.80251 23.0197 -4.71629 16.9663 4.75272C16.8888 4.871 16.7831 4.96813 16.6587 5.03535C16.5343 5.10257 16.3951 5.13777 16.2537 5.13777C16.1123 5.13777 15.9731 5.10257 15.8487 5.03535C15.7243 4.96813 15.6186 4.871 15.5411 4.75272C9.64972 -4.43299 -7.59048 6.13324 11.2336 21.5316ZM5.64481 13.2372C5.64516 13.0178 5.73252 12.8075 5.88773 12.6524C6.04294 12.4973 6.25332 12.4101 6.47272 12.4099H11.4455L13.3613 7.35245C13.4277 7.20244 13.5362 7.07493 13.6736 6.98542C13.8111 6.89591 13.9716 6.84826 14.1356 6.84826C14.2996 6.84826 14.4601 6.89591 14.5976 6.98542C14.735 7.07493 14.8435 7.20244 14.9098 7.35245L18.3768 16.4928L19.7213 12.9445C19.7815 12.788 19.8877 12.6533 20.0258 12.5581C20.1639 12.463 20.3275 12.4118 20.4953 12.4113H26.0407C26.2603 12.4113 26.4708 12.4985 26.6261 12.6537C26.7814 12.809 26.8686 13.0196 26.8686 13.2392C26.8686 13.4587 26.7814 13.6693 26.6261 13.8246C26.4708 13.9799 26.2603 14.0671 26.0407 14.0671H21.0679L19.1521 19.1246C19.0925 19.2817 18.9866 19.4171 18.8483 19.5126C18.71 19.6081 18.5459 19.6593 18.3778 19.6593C18.2097 19.6593 18.0456 19.6081 17.9073 19.5126C17.769 19.4171 17.6631 19.2817 17.6036 19.1246L14.1373 9.98284L12.7934 13.5325C12.7332 13.689 12.6271 13.8237 12.489 13.9189C12.3509 14.014 12.1872 14.0652 12.0195 14.0658H6.47472C6.3658 14.0659 6.25791 14.0446 6.15723 14.0031C6.05655 13.9615 5.96505 13.9005 5.88796 13.8235C5.81088 13.7466 5.74973 13.6552 5.70801 13.5546C5.66628 13.4539 5.64481 13.3461 5.64481 13.2372Z" fill="#FFB300"/>
<path d="M12.4825 13.4131L14.1376 9.04218L17.9106 19.0051C17.9475 19.0975 18.0113 19.1767 18.0937 19.2325C18.1761 19.2882 18.2733 19.318 18.3728 19.318C18.4723 19.318 18.5696 19.2882 18.652 19.2325C18.7344 19.1767 18.7982 19.0975 18.8351 19.0051L20.8349 13.7324H26.0384C26.1696 13.7324 26.2954 13.6803 26.3881 13.5875C26.4809 13.4947 26.533 13.3689 26.533 13.2377C26.533 13.1066 26.4809 12.9808 26.3881 12.888C26.2954 12.7952 26.1696 12.7431 26.0384 12.7431H20.4923C20.392 12.7431 20.294 12.7737 20.2115 12.8307C20.129 12.8878 20.0658 12.9686 20.0303 13.0624L18.3772 17.4333L14.6002 7.47101C14.5581 7.38426 14.4924 7.31112 14.4106 7.25995C14.3289 7.20878 14.2344 7.18164 14.138 7.18164C14.0415 7.18164 13.947 7.20878 13.8653 7.25995C13.7835 7.31112 13.7178 7.38426 13.6757 7.47101L11.6759 12.7431H6.47508C6.3439 12.7431 6.2181 12.7952 6.12534 12.888C6.03258 12.9808 5.98047 13.1066 5.98047 13.2377C5.98047 13.3689 6.03258 13.4947 6.12534 13.5875C6.2181 13.6803 6.3439 13.7324 6.47508 13.7324H12.0198C12.1202 13.7323 12.2182 13.7017 12.3008 13.6447C12.3835 13.5877 12.4468 13.5069 12.4825 13.4131Z" fill="#242222"/>
<path d="M30.0933 24.355C29.9532 24.2431 29.7896 24.1641 29.6148 24.1239C29.44 24.0838 29.2584 24.0835 29.0834 24.1231C29.0757 23.8935 29.0226 23.6677 28.927 23.4588C28.8315 23.2499 28.6955 23.0621 28.5269 22.9061C28.3582 22.7501 28.1604 22.6291 27.9447 22.5502C27.729 22.4712 27.4998 22.4357 27.2703 22.4459C25.3791 22.6632 23.6627 23.8064 21.3656 24.2524C21.1463 24.0497 20.8847 23.8985 20.5996 23.8098C42.926 6.89419 24.1013 -6.57108 16.2568 3.42788C8.64622 -6.23778 -8.84262 6.02761 9.34415 21.6733C8.2656 21.6826 6.54444 21.2067 5.59254 22.1679C5.46465 21.9835 5.29411 21.8326 5.09543 21.7282C4.89675 21.6237 4.67579 21.5688 4.45133 21.568H2.24556C1.87429 21.568 1.51823 21.7155 1.25571 21.978C0.993187 22.2405 0.845703 22.5966 0.845703 22.9678L0.845703 29.5972C0.845703 29.9684 0.993187 30.3245 1.25571 30.587C1.51823 30.8495 1.87429 30.997 2.24556 30.997H4.45133C4.67132 30.9964 4.88805 30.9438 5.08384 30.8435C5.27962 30.7432 5.44891 30.598 5.57788 30.4197C5.84104 30.6632 6.15986 30.8386 6.50645 30.9304C9.19633 31.6357 11.9648 31.9972 14.7456 32.0062C20.0793 32.1266 25.2962 30.4346 29.544 27.2067C30.1153 26.8594 31.3979 25.4323 30.0933 24.355ZM4.85928 29.5972C4.85929 29.7054 4.81633 29.8092 4.73984 29.8859C4.66335 29.9625 4.55959 30.0056 4.45133 30.0058H2.24556C2.13724 30.0056 2.0334 29.9625 1.95681 29.8859C1.88022 29.8093 1.83711 29.7055 1.83693 29.5972V22.9692C1.83711 22.8609 1.88024 22.7572 1.95685 22.6807C2.03346 22.6042 2.1373 22.5612 2.24556 22.5612H4.45133C4.55952 22.5612 4.66329 22.6042 4.7398 22.6807C4.8163 22.7572 4.85928 22.861 4.85928 22.9692V29.5972ZM25.2825 24.0364C26.5177 23.5891 28.0655 22.7872 28.1142 24.4004C26.121 25.2923 24.0578 26.0189 21.9455 26.5728C22.0541 26.0998 22.0401 25.607 21.9048 25.141C23.0531 24.8437 24.1813 24.4737 25.2825 24.0331V24.0364ZM2.29022 8.26938C2.33955 0.892813 12.0479 -1.74891 15.8308 4.57976C15.8779 4.64933 15.9413 4.70629 16.0155 4.74567C16.0897 4.78505 16.1724 4.80564 16.2564 4.80564C16.3404 4.80564 16.4232 4.78505 16.4974 4.74567C16.5716 4.70629 16.635 4.64933 16.6821 4.57976C23.0521 -5.34787 42.1561 6.77953 19.0818 23.7018C13.2757 23.7178 15.7601 22.5686 11.0953 21.846C7.07372 18.471 2.29022 13.3835 2.29022 8.26938ZM28.9588 26.4055C20.847 32.7708 10.732 31.017 6.76109 29.9671C6.4987 29.8979 6.26681 29.7433 6.10195 29.5278C5.93709 29.3122 5.84864 29.0479 5.85052 28.7766V23.7771C5.86384 23.4482 6.00469 23.1374 6.24322 22.9106C6.48175 22.6837 6.79923 22.5587 7.12838 22.5619C12.0612 22.6865 12.9871 23.2352 13.8024 23.7184C14.7256 24.267 15.5155 24.7417 19.9111 24.687C20.5523 24.6563 21.1369 25.1896 21.0229 26.1488C20.7643 27.5074 17.5033 27.5127 13.529 27.0074C13.3992 26.9897 13.2676 27.0244 13.1633 27.1037C13.059 27.183 12.9905 27.3005 12.9728 27.4304C12.9551 27.5602 12.9897 27.6918 13.069 27.7961C13.1484 27.9004 13.2659 27.969 13.3957 27.9867C15.9288 28.2946 18.4732 28.5673 20.4963 27.9013C22.9152 27.4308 25.2743 26.693 27.5303 25.7016C28.3522 25.3569 29.2821 24.9636 29.4521 25.1103C30.03 25.5742 29.2927 26.1308 28.9588 26.4055Z" fill="#242222"/>
<path d="M3.34658 27.9463C3.21863 27.951 3.09748 28.0051 3.00863 28.0973C2.91977 28.1895 2.87012 28.3125 2.87012 28.4406C2.87012 28.5686 2.91977 28.6917 3.00863 28.7838C3.09748 28.876 3.21863 28.9302 3.34658 28.9349C3.47453 28.9302 3.59567 28.876 3.68453 28.7838C3.77339 28.6917 3.82304 28.5686 3.82304 28.4406C3.82304 28.3125 3.77339 28.1895 3.68453 28.0973C3.59567 28.0051 3.47453 27.951 3.34658 27.9463Z" fill="#242222"/>
</svg>
