<svg width="32" height="32" viewBox="0 0 32 32" fill="none" xmlns="http://www.w3.org/2000/svg">
<g clip-path="url(#clip0_6292_412)">
<rect x="8.40039" y="4.88672" width="16.6913" height="9.74854" fill="#242222"/>
<path fill-rule="evenodd" clip-rule="evenodd" d="M24.7499 16.8905H7.25001C6.31877 16.8905 5.5625 16.1342 5.5625 15.2031V2.26563C5.5625 1.3344 6.31877 0.578125 7.25001 0.578125H11.875C12.8062 0.578125 13.5625 1.3344 13.5625 2.26563V3.01563H24.7499C25.6812 3.01563 26.4374 3.77191 26.4374 4.70314V15.2032C26.4374 16.1344 25.6812 16.8905 24.7499 16.8905ZM16.4374 9.51562H16.4354H16.4333L16.4313 9.51555H16.4292H16.4281L16.4272 9.51548H16.4251L16.423 9.5154L16.4211 9.51533L16.419 9.51526H16.4188L16.4169 9.51518L16.4149 9.51503L16.4129 9.51496L16.4108 9.51481L16.4095 9.51474H16.4087C16.3748 9.5126 16.3407 9.5064 16.3062 9.49687C16.1363 9.44638 16.0204 9.29793 16.0006 9.13361C15.8546 8.65681 15.1297 8.21833 14.8751 8.1031C14.6563 7.99687 14.5626 7.74057 14.6688 7.52185C14.775 7.30312 15.0313 7.20937 15.2501 7.3156C15.3516 7.36417 16.0021 7.68418 16.4545 8.21811C16.931 7.68292 17.589 7.35856 17.6874 7.3094C17.9061 7.20317 18.1686 7.29692 18.2687 7.51565C18.3749 7.73437 18.2811 7.99687 18.0624 8.0969C17.8053 8.21929 17.0448 8.67749 16.8667 9.17185C16.8351 9.33662 16.7085 9.474 16.5375 9.51563C16.5175 9.51231 16.4993 9.51253 16.482 9.51342L16.4811 9.51349H16.4805L16.4789 9.51364C16.4696 9.51452 16.4601 9.51504 16.4507 9.51534L16.4492 9.51541L16.4462 9.51548V9.51556H16.4447H16.4433H16.4418L16.4404 9.51563H16.4389L16.4374 9.51562ZM22.1249 14.0781H9.94279H9.93755H9.93231L9.92699 14.0779H9.92618L9.92175 14.0778L9.91643 14.0776L9.91481 14.0775L9.91119 14.0773L9.90595 14.0769C9.67726 14.061 9.50002 13.8737 9.50002 13.6406V6.45306C9.50002 6.20931 9.6938 6.01554 9.93755 6.01554L22.1249 6.01561C22.3687 6.01561 22.5624 6.20938 22.5624 6.45314V13.6406C22.5624 13.8844 22.3687 14.0781 22.1249 14.0781ZM10.9937 13.2031H21.6874V12.215C21.6467 12.1948 21.6087 12.1679 21.5751 12.1344L19.1875 9.75938L16.6187 12.3281C16.4499 12.4969 16.1687 12.4969 15.9999 12.3281L13.9375 10.2594L10.9937 13.2031ZM21.6874 11.0092V6.89062H10.375V12.5844L13.6313 9.32806C13.8 9.1593 14.0813 9.1593 14.25 9.32806L16.3187 11.3968L18.8875 8.82808C19.0562 8.65933 19.3375 8.65933 19.5062 8.82808L21.6874 11.0092Z" fill="#FFEDC4"/>
<path fill-rule="evenodd" clip-rule="evenodd" d="M31.5624 25.8281H0.437526C0.193776 25.8281 0 25.6343 0 25.3906V5.51565C0 5.2719 0.193775 5.07812 0.437526 5.07812L4.68751 5.0782V7.70321L3.06253 7.70313C2.81878 7.70313 2.62501 7.89691 2.62501 8.14066V22.7031C2.62501 22.9468 2.81878 23.1406 3.06253 23.1406H28.9374C29.1812 23.1406 29.3749 22.9468 29.3749 22.7032V8.14073C29.3749 7.89698 29.1812 7.70321 28.9374 7.70321L27.3124 7.70313V5.07813L31.5624 5.0782C31.8062 5.0782 31.9999 5.27197 31.9999 5.51573V25.3907C31.9999 25.6344 31.8062 25.8281 31.5624 25.8281ZM18.3125 24.9219H17.8749C17.6312 24.9219 17.4374 24.7281 17.4374 24.4844C17.4374 24.2406 17.6312 24.0469 17.8749 24.0469H18.3125C18.5562 24.0469 18.75 24.2406 18.75 24.4844C18.75 24.7281 18.5562 24.9219 18.3125 24.9219ZM16.25 24.9219H15.75C15.5062 24.9219 15.3125 24.7281 15.3125 24.4844C15.3125 24.2406 15.5062 24.0469 15.75 24.0469H16.25C16.4937 24.0469 16.6875 24.2406 16.6875 24.4844C16.6875 24.7281 16.4937 24.9219 16.25 24.9219ZM14.125 24.9219H13.6875C13.4437 24.9219 13.2499 24.7281 13.2499 24.4844C13.2499 24.2406 13.4437 24.0469 13.6875 24.0469H14.125C14.3688 24.0469 14.5625 24.2406 14.5625 24.4844C14.5625 24.7281 14.3688 24.9219 14.125 24.9219ZM4.6875 8.57822H3.49997V22.2656H28.4999V8.57822H27.3124V15.2033C27.3124 16.6174 26.164 17.7656 24.7499 17.7656H7.24996C5.83581 17.7656 4.68748 16.6174 4.68748 15.2032L4.6875 8.57822Z" fill="#F7B319"/>
<path fill-rule="evenodd" clip-rule="evenodd" d="M13.625 29.7657C13.3813 29.7657 13.1875 29.5719 13.1875 29.3281V26.7031H18.8124V29.3281C18.8124 29.5719 18.6187 29.7657 18.3749 29.7657C18.1707 29.7657 15.0525 29.6296 14.0479 29.442C13.9984 29.6296 13.8293 29.7657 13.625 29.7657Z" fill="#C7C7C6"/>
<path fill-rule="evenodd" clip-rule="evenodd" d="M21.6812 31.422H10.3125C10.0688 31.422 9.875 31.2282 9.875 30.9844V29.3282C9.875 29.0844 10.0688 28.8906 10.3125 28.8906L21.6812 28.8907C21.925 28.8907 22.1187 29.0845 22.1187 29.3282V30.9845C22.1187 31.2282 21.9187 31.422 21.6812 31.422Z" fill="#242222"/>
<path d="M4.60813 8.14258H3.58496C3.30882 8.14258 3.08496 8.36644 3.08496 8.64258V22.0993C3.08496 22.3754 3.30882 22.5993 3.58496 22.5993H28.3581C28.6342 22.5993 28.8581 22.3754 28.8581 22.0993V8.64258C28.8581 8.36644 28.6342 8.14258 28.3581 8.14258H27.1746M13.4263 24.5376H14.2279M15.3865 24.5376H16.3084M17.4746 24.5376H18.4767" stroke="#242222" stroke-linecap="round"/>
</g>
<defs>
<clipPath id="clip0_6292_412">
<rect width="32" height="32" fill="white"/>
</clipPath>
</defs>
</svg>
