<svg width="32" height="32" viewBox="0 0 32 32" fill="none" xmlns="http://www.w3.org/2000/svg">
<path d="M4.92969 27.998C3.20656 27.998 1.80469 26.5961 1.80469 24.873V5.75586C1.80469 4.03273 3.20656 2.63086 4.92969 2.63086H27.0703C28.7934 2.63086 30.1953 4.03273 30.1953 5.75586V24.873C30.1953 26.5961 28.7934 27.998 27.0703 27.998H4.92969Z" fill="#C2C2C2"/>
<path d="M3.63794 24.873V5.75586C3.63794 4.03273 5.03981 2.63086 6.76294 2.63086H4.92969C3.20656 2.63086 1.80469 4.03273 1.80469 5.75586V24.873C1.80469 26.5961 3.20656 27.998 4.92969 27.998H6.76306C5.03981 27.998 3.63794 26.5961 3.63794 24.873Z" fill="#808080"/>
<path d="M28.3623 24.873V5.75586C28.3623 4.03273 26.9604 2.63086 25.2373 2.63086H27.0707C28.7938 2.63086 30.1957 4.03273 30.1957 5.75586V24.873C30.1957 26.5961 28.7938 27.998 27.0707 27.998H25.2373C26.9604 27.998 28.3623 26.5961 28.3623 24.873Z" fill="#E2E2E2"/>
<path d="M27.0704 22.0689H4.92969C4.23931 22.0689 3.67969 21.5092 3.67969 20.8189V5.75586C3.67969 5.06548 4.23931 4.50586 4.92969 4.50586H27.0704C27.7608 4.50586 28.3204 5.06548 28.3204 5.75586V20.819C28.3204 21.5092 27.7608 22.0689 27.0704 22.0689Z" fill="#FFEDC4"/>
<path d="M5.51306 20.8189V5.75586C5.51306 5.06548 6.07269 4.50586 6.76306 4.50586H4.92969C4.23931 4.50586 3.67969 5.06548 3.67969 5.75586V20.8189C3.67969 21.5092 4.23931 22.0689 4.92969 22.0689H6.76306C6.07269 22.0689 5.51306 21.5092 5.51306 20.8189Z" fill="#F7B319"/>
<path d="M26.4873 20.8189V5.75586C26.4873 5.06548 25.9277 4.50586 25.2373 4.50586H27.0707C27.7611 4.50586 28.3207 5.06548 28.3207 5.75586V20.8189C28.3207 21.5092 27.7611 22.0689 27.0707 22.0689H25.2373C25.9277 22.0689 26.4873 21.5092 26.4873 20.8189Z" fill="#F7B319"/>
<path d="M11.8742 11.9742H11.0138C10.7844 11.9742 10.5985 11.7883 10.5985 11.559V10.6985C10.5985 10.4691 10.4126 10.2832 10.1832 10.2832H8.3875C8.15812 10.2832 7.97225 10.4691 7.97225 10.6985V11.559C7.97225 11.7883 7.78637 11.9742 7.557 11.9742H6.6965C6.46712 11.9742 6.28125 12.1601 6.28125 12.3895V14.1852C6.28125 14.4146 6.46712 14.6005 6.6965 14.6005H7.557C7.78637 14.6005 7.97225 14.7863 7.97225 15.0157V15.8762C7.97225 16.1056 8.15812 16.2915 8.3875 16.2915H10.1832C10.4126 16.2915 10.5985 16.1056 10.5985 15.8762V15.0157C10.5985 14.7863 10.7844 14.6005 11.0138 14.6005H11.8742C12.1036 14.6005 12.2895 14.4146 12.2895 14.1852V12.3895C12.2895 12.1601 12.1036 11.9742 11.8742 11.9742Z" fill="#FF5151"/>
<path d="M6.74295 26.2281C7.40245 26.2281 7.93708 25.6935 7.93708 25.034C7.93708 24.3745 7.40245 23.8398 6.74295 23.8398C6.08346 23.8398 5.54883 24.3745 5.54883 25.034C5.54883 25.6935 6.08346 26.2281 6.74295 26.2281Z" fill="#F8AF23"/>
<path d="M10.615 26.2281C11.2745 26.2281 11.8091 25.6935 11.8091 25.034C11.8091 24.3745 11.2745 23.8398 10.615 23.8398C9.95553 23.8398 9.4209 24.3745 9.4209 25.034C9.4209 25.6935 9.95553 26.2281 10.615 26.2281Z" fill="#F8AF23"/>
<path d="M14.4871 26.2281C15.1466 26.2281 15.6812 25.6935 15.6812 25.034C15.6812 24.3745 15.1466 23.8398 14.4871 23.8398C13.8276 23.8398 13.293 24.3745 13.293 25.034C13.293 25.6935 13.8276 26.2281 14.4871 26.2281Z" fill="#F8AF23"/>
<path d="M28.5078 20.8189V5.75586C28.5078 4.96323 27.8629 4.31836 27.0703 4.31836H4.92969C4.13706 4.31836 3.49219 4.96323 3.49219 5.75586V20.8189C3.49219 21.6115 4.13706 22.2564 4.92969 22.2564H27.0703C27.8628 22.2564 28.5078 21.6115 28.5078 20.8189ZM3.86719 20.8189V5.75586C3.86719 5.16998 4.34381 4.69336 4.92969 4.69336H27.0703C27.6562 4.69336 28.1328 5.16998 28.1328 5.75586V20.8189C28.1328 21.4047 27.6562 21.8814 27.0703 21.8814H4.92969C4.34381 21.8814 3.86719 21.4046 3.86719 20.8189Z" fill="#242222"/>
<path d="M3.41541 29.1816H1.16504C1.06154 29.1816 0.977539 29.2656 0.977539 29.3691C0.977539 29.4726 1.06154 29.5566 1.16504 29.5566H3.41541C3.51891 29.5566 3.60291 29.4726 3.60291 29.3691C3.60291 29.2656 3.51891 29.1816 3.41541 29.1816Z" fill="#242222"/>
<path d="M30.8353 29.1816H28.585C28.4815 29.1816 28.3975 29.2656 28.3975 29.3691C28.3975 29.4726 28.4815 29.5566 28.585 29.5566H30.8353C30.9388 29.5566 31.0228 29.4726 31.0228 29.3691C31.0228 29.2656 30.9388 29.1816 30.8353 29.1816Z" fill="#242222"/>
<path d="M27.3102 29.1816H4.69043C4.58693 29.1816 4.50293 29.2656 4.50293 29.3691C4.50293 29.4726 4.58693 29.5566 4.69043 29.5566H27.3103C27.4138 29.5566 27.4978 29.4726 27.4978 29.3691C27.4978 29.2656 27.4138 29.1816 27.3102 29.1816Z" fill="#242222"/>
<path d="M1.16504 28.1855H4.92966H27.0703H30.8349C30.9384 28.1855 31.0224 28.1015 31.0224 27.998C31.0224 27.8945 30.9384 27.8105 30.8349 27.8105H28.5984C29.6577 27.2572 30.3828 26.1485 30.3828 24.873V5.75586C30.3828 3.92936 28.8968 2.44336 27.0703 2.44336H4.92979C3.10329 2.44336 1.61729 3.92936 1.61729 5.75586V24.8731C1.61729 26.1486 2.34241 27.2574 3.40166 27.8106H1.16504C1.06154 27.8106 0.977539 27.8946 0.977539 27.9981C0.977539 28.1016 1.06154 28.1855 1.16504 28.1855ZM1.99229 24.873V5.75586C1.99229 4.13611 3.31004 2.81836 4.92979 2.81836H27.0704C28.6902 2.81836 30.0079 4.13611 30.0079 5.75586V24.8731C30.0079 26.4929 28.6902 27.8106 27.0704 27.8106H4.92979C3.30991 27.8105 1.99229 26.4927 1.99229 24.873Z" fill="#242222"/>
<path d="M25.7188 13.3783H22.0844L21.1364 11.3794C21.1076 11.3184 21.0479 11.2777 20.9806 11.2727C20.9136 11.2672 20.8484 11.2996 20.8111 11.3557L20.0248 12.5351L19.6106 10.7689C19.5919 10.6891 19.5233 10.6307 19.4414 10.6248C19.3602 10.6176 19.2833 10.6669 19.2534 10.7434L17.7642 14.5471L17.0219 8.89757C17.0101 8.80745 16.9353 8.7387 16.8444 8.7347C16.7567 8.72932 16.6731 8.79219 16.6531 8.88094L15.7409 12.9463H14.6221C14.5186 12.9463 14.4346 13.0303 14.4346 13.1338C14.4346 13.2373 14.5186 13.3213 14.6221 13.3213H15.8911C15.9788 13.3213 16.0548 13.2606 16.0741 13.1748L16.7877 9.99382L17.4872 15.3182C17.4983 15.4031 17.5654 15.4696 17.6504 15.4799C17.6582 15.4808 17.6657 15.4813 17.6733 15.4813C17.7496 15.4813 17.8194 15.4347 17.8478 15.3622L19.3831 11.4411L19.7587 13.0418C19.7757 13.1146 19.8343 13.1702 19.9078 13.1836C19.9817 13.1963 20.0558 13.1651 20.0972 13.1029L20.9396 11.8393L21.7966 13.6463C21.8276 13.7117 21.8936 13.7534 21.9659 13.7534H25.7188C25.8223 13.7534 25.9063 13.6694 25.9063 13.5659C25.9063 13.4624 25.8223 13.3783 25.7188 13.3783Z" fill="#242222"/>
<path d="M11.874 11.7866H11.0134C10.8879 11.7866 10.7858 11.6845 10.7858 11.559V10.6983C10.7858 10.3661 10.5154 10.0957 10.183 10.0957H8.38737C8.055 10.0957 7.78463 10.3661 7.78463 10.6983V11.559C7.78463 11.6845 7.6825 11.7866 7.557 11.7866H6.69637C6.36412 11.7866 6.09375 12.057 6.09375 12.3893V14.185C6.09375 14.5173 6.36412 14.7877 6.69637 14.7877H7.557C7.6825 14.7877 7.78463 14.8898 7.78463 15.0153V15.876C7.78463 16.2082 8.055 16.4786 8.38737 16.4786H10.183C10.5154 16.4786 10.7858 16.2082 10.7858 15.876V15.0153C10.7858 14.8898 10.8879 14.7877 11.0134 14.7877H11.874C12.2062 14.7877 12.4766 14.5173 12.4766 14.185V12.3893C12.4767 12.057 12.2062 11.7866 11.874 11.7866ZM12.1018 14.185C12.1018 14.3106 11.9996 14.4127 11.8741 14.4127H11.0135C10.6813 14.4127 10.4109 14.6831 10.4109 15.0153V15.876C10.4109 16.0015 10.3087 16.1036 10.1831 16.1036H8.38737C8.26175 16.1036 8.15963 16.0015 8.15963 15.876V15.0153C8.15963 14.6831 7.88925 14.4127 7.557 14.4127H6.69637C6.57087 14.4127 6.46875 14.3106 6.46875 14.185V12.3893C6.46875 12.2637 6.57087 12.1616 6.69637 12.1616H7.557C7.88925 12.1616 8.15963 11.8912 8.15963 11.559V10.6983C8.15963 10.5728 8.26175 10.4707 8.38737 10.4707H10.183C10.3086 10.4707 10.4108 10.5728 10.4108 10.6983V11.559C10.4108 11.8912 10.6811 12.1616 11.0134 12.1616H11.874C11.9995 12.1616 12.1016 12.2637 12.1016 12.3893V14.185H12.1018Z" fill="#242222"/>
<path d="M6.74308 23.6514C5.9812 23.6514 5.36133 24.2712 5.36133 25.0331C5.36133 25.795 5.9812 26.4149 6.74308 26.4149C7.50495 26.4149 8.1247 25.7949 8.1247 25.0331C8.1247 24.2714 7.50495 23.6514 6.74308 23.6514ZM6.74308 26.0397C6.18808 26.0397 5.73633 25.5881 5.73633 25.033C5.73633 24.4779 6.18795 24.0262 6.74308 24.0262C7.2982 24.0262 7.7497 24.478 7.7497 25.0331C7.7497 25.5882 7.2982 26.0397 6.74308 26.0397Z" fill="#242222"/>
<path d="M10.616 23.6514C9.85413 23.6514 9.23438 24.2712 9.23438 25.0331C9.23438 25.795 9.85413 26.4149 10.616 26.4149C11.3779 26.4149 11.9977 25.795 11.9977 25.0331C11.9977 24.2712 11.3779 23.6514 10.616 23.6514ZM10.616 26.0397C10.061 26.0397 9.60938 25.5881 9.60938 25.033C9.60938 24.4779 10.0609 24.0262 10.616 24.0262C11.1711 24.0262 11.6227 24.4779 11.6227 25.033C11.6227 25.5881 11.171 26.0397 10.616 26.0397Z" fill="#242222"/>
<path d="M14.4872 23.6514C13.7253 23.6514 13.1055 24.2712 13.1055 25.0331C13.1055 25.795 13.7253 26.4149 14.4872 26.4149C15.2491 26.4149 15.869 25.795 15.869 25.0331C15.869 24.2712 15.2491 23.6514 14.4872 23.6514ZM14.4872 26.0397C13.9322 26.0397 13.4805 25.5881 13.4805 25.033C13.4805 24.4779 13.9321 24.0262 14.4872 24.0262C15.0423 24.0262 15.494 24.4779 15.494 25.033C15.494 25.5881 15.0423 26.0397 14.4872 26.0397Z" fill="#242222"/>
</svg>
