<svg width="32" height="32" viewBox="0 0 32 32" fill="none" xmlns="http://www.w3.org/2000/svg">
<g clip-path="url(#clip0_6292_814)">
<path d="M18.0019 13.7646H13.998V16.5042H18.0019V13.7646Z" fill="#A780BA"/>
<path d="M18.7166 16.249H15.9149L15.0091 16.5875L14.4966 17.3063L14.2383 18.1813V19.1409L14.378 19.2819L14.1953 19.5276V19.801H20.3633L20.8358 19.2819C20.8358 18.792 20.8358 18.4555 20.8358 18.3681C20.8358 17.2026 19.8822 16.249 18.7166 16.249Z" fill="#A780BA"/>
<path d="M14.378 18.3681C14.378 17.2026 15.3316 16.249 16.4971 16.249H13.2832C12.1178 16.249 11.1641 17.2026 11.1641 18.3681C11.1641 18.4313 11.1641 18.773 11.1641 19.282L11.7852 19.8011H14.9991L14.378 19.282C14.378 18.773 14.378 18.4313 14.378 18.3681Z" fill="#A780BA"/>
<path d="M14.378 19.2822L14.1953 19.5279V25.0359L15.7383 25.3482L20.5196 24.192L20.8358 23.0958C20.8358 21.7749 20.8358 20.3992 20.8358 19.2822H14.378Z" fill="#FFEDC4"/>
<path d="M14.378 19.2822H11.1641C11.1641 20.3961 11.1641 21.7722 11.1641 23.0958L11.9751 24.5865L14.378 25.0729C14.378 23.0895 14.378 21.1057 14.378 19.2822Z" fill="#FFEDC4"/>
<path d="M30.2197 20.8263L28.5811 19.8802C28.2709 19.7012 28.1184 19.3388 28.2035 18.9909C28.4378 18.0323 28.5626 17.0308 28.5626 16C28.5626 14.9692 28.4378 13.9677 28.2035 13.0091C28.1184 12.6612 28.2709 12.2988 28.5811 12.1198L30.2197 11.1737C30.604 10.9518 30.7357 10.4605 30.5138 10.0762L28.387 6.39255C28.1651 6.00829 27.6738 5.87661 27.2895 6.09848L25.6487 7.0458C25.3385 7.22493 24.9482 7.17587 24.6896 6.92799C23.2487 5.5476 21.4796 4.50734 19.5111 3.93546C19.1673 3.83559 18.9301 3.52196 18.9301 3.16396V1.27219C18.9301 0.82844 18.5704 0.46875 18.1268 0.46875H13.8732C13.4295 0.46875 13.0698 0.82844 13.0698 1.27219V3.16402C13.0698 3.52196 12.8326 3.83565 12.4888 3.93553C12.1506 4.03378 11.8186 4.1469 11.4928 4.27215L10.7383 4.66847L8.55081 6.56692L6.16666 10.442L5.45703 13.7637V18.2364L7.33205 23.4889L10.5039 27.1686L11.4928 27.7279C11.8187 27.8532 12.1506 27.9663 12.4889 28.0645C12.8327 28.1644 13.0698 28.478 13.0698 28.836V30.7279C13.0698 31.1716 13.4295 31.5313 13.8733 31.5313H18.1268C18.5706 31.5313 18.9302 31.1716 18.9302 30.7279V28.836C18.9302 28.4781 19.1674 28.1644 19.5111 28.0645C21.4797 27.4926 23.2488 26.4525 24.6896 25.072C24.9483 24.8242 25.3385 24.7751 25.6488 24.9542L27.2895 25.9015C27.6738 26.1234 28.1651 25.9917 28.387 25.6074L30.5138 21.9238C30.7357 21.5395 30.604 21.0481 30.2197 20.8263ZM16 24.5866C11.2578 24.5866 7.41342 20.7422 7.41342 16C7.41342 11.2578 11.2578 7.41343 16 7.41343C20.7422 7.41343 24.5866 11.2578 24.5866 16C24.5866 20.7422 20.7422 24.5866 16 24.5866Z" fill="#F7B319"/>
<path d="M6.14324 16.0004C6.14324 11.3181 8.21539 7.12005 11.4924 4.27246C9.92209 4.87622 8.50314 5.78516 7.30988 6.92836C7.05119 7.17617 6.661 7.22523 6.35075 7.04617L4.70998 6.09885C4.32573 5.87697 3.83435 6.00866 3.61247 6.39292L1.48571 10.0766C1.26383 10.4608 1.39552 10.9522 1.77977 11.1741L3.41841 12.1201C3.7286 12.2992 3.8811 12.6616 3.79604 13.0095C3.56166 13.968 3.43691 14.9695 3.43691 16.0004C3.43691 17.0312 3.56166 18.0327 3.79604 18.9913C3.8811 19.3392 3.7286 19.7015 3.41841 19.8806L1.77977 20.8267C1.39552 21.0485 1.26383 21.5399 1.48571 21.9242L3.61247 25.6078C3.83429 25.9921 4.32573 26.1238 4.70998 25.9019L6.35075 24.9546C6.66094 24.7754 7.05119 24.8245 7.30988 25.0724C8.50314 26.2156 9.92202 27.1245 11.4923 27.7282C8.21539 24.8807 6.14324 20.6826 6.14324 16.0004Z" fill="#F7B319"/>
<path d="M18.522 10.5176H15.8798L15.7227 10.5822L15.418 11.0197V13.5353L15.6445 13.8869L15.9608 14.0275H18.522C18.9025 14.0275 19.2138 13.7162 19.2138 13.3358V11.2094C19.2138 10.8289 18.9025 10.5176 18.522 10.5176Z" fill="#FFEDC4"/>
<path d="M15.5143 13.3357V11.2093C15.5143 10.8288 15.8257 10.5176 16.2061 10.5176H13.4769C13.0965 10.5176 12.7852 10.8289 12.7852 11.2093V13.3357C12.7852 13.7162 13.0965 14.0275 13.4769 14.0275H16.2061C15.8257 14.0275 15.5143 13.7162 15.5143 13.3357Z" fill="#FFEDC4"/>
<path d="M18.5221 10.5176H13.4779C13.0974 10.5176 12.7861 10.8289 12.7861 11.2093V13.3357C12.7861 13.7162 13.0974 14.0275 13.4779 14.0275H18.5221C18.9026 14.0275 19.2139 13.7161 19.2139 13.3357V11.2093C19.2139 10.8289 18.9026 10.5176 18.5221 10.5176Z" stroke="#242222" stroke-width="0.937507" stroke-miterlimit="10" stroke-linecap="round" stroke-linejoin="round"/>
<path d="M18.0019 14.0283H13.998V16.2498H18.0019V14.0283Z" stroke="#242222" stroke-width="0.937507" stroke-miterlimit="10" stroke-linecap="round" stroke-linejoin="round"/>
<path d="M20.8358 18.3682C20.8358 17.2027 19.8823 16.249 18.7167 16.249H13.2832C12.1178 16.249 11.1641 17.2027 11.1641 18.3682C11.1641 18.5469 11.1641 20.9504 11.1641 23.0956C12.5414 24.036 14.2063 24.5863 16 24.5863C17.7936 24.5863 19.4586 24.0361 20.8359 23.0956C20.8358 20.9862 20.8358 18.6222 20.8358 18.3682Z" stroke="#242222" stroke-width="0.937507" stroke-miterlimit="10" stroke-linecap="round" stroke-linejoin="round"/>
<path d="M14.9062 19.2822H11.1641C11.1641 20.3961 11.1641 21.7722 11.1641 23.0958C12.5414 24.0363 14.2063 24.5866 16 24.5866C17.7936 24.5866 19.4586 24.0363 20.8359 23.0958C20.8359 21.7749 20.8359 20.3992 20.8359 19.2822H17.0938" stroke="#242222" stroke-width="0.937507" stroke-miterlimit="10" stroke-linecap="round" stroke-linejoin="round"/>
<path d="M24.5171 17.0938C23.9799 21.3195 20.3713 24.5866 15.9996 24.5866C11.2573 24.5866 7.413 20.7422 7.413 16C7.413 11.2578 11.2573 7.41343 15.9996 7.41343C20.3713 7.41343 23.9799 10.6805 24.5171 14.9062M30.2193 20.8263L28.5807 19.8802C28.2705 19.7012 28.118 19.3388 28.203 18.9909C28.4374 18.0323 28.5622 17.0308 28.5622 16C28.5622 14.9692 28.4374 13.9677 28.203 13.0091C28.118 12.6612 28.2705 12.2988 28.5807 12.1198L30.2193 11.1737C30.6036 10.9518 30.7353 10.4605 30.5134 10.0762L28.3866 6.39255C28.1647 6.00829 27.6734 5.8766 27.2891 6.09848L25.6483 7.0458C25.338 7.22493 24.9478 7.17587 24.6891 6.92799C23.2483 5.5476 21.4792 4.50734 19.5107 3.93546C19.1669 3.83559 18.9297 3.52196 18.9297 3.16396V1.27219C18.9297 0.82844 18.57 0.46875 18.1263 0.46875H13.8728C13.4291 0.46875 13.0694 0.82844 13.0694 1.27219V3.16402C13.0694 3.52196 12.8322 3.83565 12.4884 3.93553C10.5199 4.50734 8.75077 5.5476 7.30988 6.92805C7.05119 7.17587 6.661 7.22493 6.35075 7.04586L4.70998 6.09848C4.32573 5.8766 3.83435 6.00829 3.61247 6.39255L1.48571 10.0762C1.26383 10.4605 1.39552 10.9518 1.77977 11.1737L3.41841 12.1198C3.7286 12.2988 3.8811 12.6612 3.79604 13.0091C3.56166 13.9677 3.43691 14.9692 3.43691 16C3.43691 17.0308 3.56166 18.0323 3.79604 18.9909C3.8811 19.3388 3.7286 19.7012 3.41841 19.8802L1.77977 20.8263C1.39552 21.0482 1.26383 21.5395 1.48571 21.9238L3.61247 25.6074C3.83435 25.9917 4.32573 26.1234 4.70998 25.9015L6.35075 24.9542C6.661 24.7751 7.05119 24.8241 7.30988 25.072C8.75077 26.4525 10.5199 27.4926 12.4884 28.0645C12.8322 28.1644 13.0694 28.478 13.0694 28.836V30.7279C13.0694 31.1716 13.4291 31.5313 13.8728 31.5313H18.1263C18.5701 31.5313 18.9298 31.1716 18.9298 30.7279V28.836C18.9298 28.4781 19.167 28.1644 19.5107 28.0645C21.4792 27.4926 23.2484 26.4525 24.6892 25.072C24.9479 24.8242 25.3381 24.7751 25.6483 24.9542L27.2891 25.9015C27.6734 26.1234 28.1647 25.9917 28.3866 25.6074L30.5134 21.9238C30.7353 21.5395 30.6036 21.0481 30.2193 20.8263Z" stroke="#242222" stroke-width="0.937507" stroke-miterlimit="10" stroke-linecap="round" stroke-linejoin="round"/>
</g>
<defs>
<clipPath id="clip0_6292_814">
<rect width="32" height="32" fill="white"/>
</clipPath>
</defs>
</svg>
