<svg width="32" height="32" viewBox="0 0 32 32" fill="none" xmlns="http://www.w3.org/2000/svg">
<g clip-path="url(#clip0_6292_774)">
<path d="M26.5 10.5H23.5V8.5H21.5V5.5H23.5V3.5H26.5V5.5H28.5V8.5H26.5V10.5Z" fill="#F7B319"/>
<path d="M3 18H6V23H3V18Z" fill="#F7B319"/>
<path d="M17.5 29.5004H7.5V28.6319C7.5 27.7434 8.0965 26.9529 8.9505 26.7089L11 26.1234V25.9904C10.377 25.5209 10 24.7824 10 24.0009V23.0009C10 22.3024 10.2955 21.6304 10.811 21.1579C11.3255 20.6859 12.0225 20.4479 12.722 20.5109C13.9995 20.6209 15 21.7604 15 23.1044V24.0004C15 24.7819 14.623 25.5209 14 25.9899V26.1229L16.0495 26.7084C16.9035 26.9524 17.5 27.7434 17.5 28.6319V29.5004Z" fill="#F7B319"/>
<path d="M20.5 23H27.5V27.5H20.5V23Z" fill="#F7B319"/>
<path d="M30 16.5H26.5V13.3185C29.362 12.6385 31.5 10.0675 31.5 7C31.5 3.416 28.584 0.5 25 0.5C21.416 0.5 18.5 3.416 18.5 7C18.5 8.289 18.8815 9.4885 19.5315 10.5H11.5C11.3435 10.5 11.194 10.4255 11.1 10.3L10.2 9.0995C9.918 8.724 9.4695 8.5 9 8.5H2C1.173 8.5 0.5 9.173 0.5 10V24C0.5 24.827 1.173 25.5 2 25.5H5.5V30C5.5 30.827 6.173 31.5 7 31.5H30C30.827 31.5 31.5 30.827 31.5 30V18C31.5 17.173 30.827 16.5 30 16.5ZM30.5 18V18.5H6.5V16C6.5 15.7245 6.7245 15.5 7 15.5H14C14.1565 15.5 14.306 15.5745 14.4 15.7L15.3 16.9005C15.582 17.276 16.0305 17.5 16.5 17.5H30C30.2755 17.5 30.5 17.7245 30.5 18ZM25 1.5C28.0325 1.5 30.5 3.9675 30.5 7C30.5 10.0325 28.0325 12.5 25 12.5C21.9675 12.5 19.5 10.0325 19.5 7C19.5 3.9675 21.9675 1.5 25 1.5ZM2 9.5H9C9.1565 9.5 9.306 9.5745 9.4 9.7L10.3 10.9005C10.582 11.276 11.0305 11.5 11.5 11.5H20.3205C20.6875 11.882 21.1015 12.2165 21.552 12.5H1.5V10C1.5 9.7245 1.7245 9.5 2 9.5ZM2 24.5C1.7245 24.5 1.5 24.2755 1.5 24V13.5H25C25.169 13.5 25.3345 13.4875 25.5 13.4745V16.5H16.5C16.3435 16.5 16.194 16.4255 16.1 16.3L15.2 15.0995C14.918 14.724 14.4695 14.5 14 14.5H7C6.173 14.5 5.5 15.173 5.5 16V17.5H2.5V23.5H5.5V24.5H2ZM5.5 18.5V22.5H3.5V18.5H5.5ZM30 30.5H7C6.7245 30.5 6.5 30.2755 6.5 30V19.5H30.5V30C30.5 30.2755 30.2755 30.5 30 30.5Z" fill="#242222"/>
<path d="M7.5 16.5H8.5V17.5H7.5V16.5Z" fill="#242222"/>
<path d="M9.5 16.5H10.5V17.5H9.5V16.5Z" fill="#242222"/>
<path d="M11.5 16.5H12.5V17.5H11.5V16.5Z" fill="#242222"/>
<path d="M2.5 10.5H3.5V11.5H2.5V10.5Z" fill="#242222"/>
<path d="M4.5 10.5H5.5V11.5H4.5V10.5Z" fill="#242222"/>
<path d="M6.5 10.5H7.5V11.5H6.5V10.5Z" fill="#242222"/>
<path d="M18.5 29.5H29.5V20.5H18.5V29.5ZM19.5 21.5H28.5V28.5H19.5V21.5Z" fill="#242222"/>
<path d="M20.5 22.5H27.5V23.5H20.5V22.5Z" fill="#242222"/>
<path d="M20.5 24.5H27.5V25.5H20.5V24.5Z" fill="#242222"/>
<path d="M20.5 26.5H21.5V27.5H20.5V26.5Z" fill="#242222"/>
<path d="M22.5 26.5H27.5V27.5H22.5V26.5Z" fill="#242222"/>
<path d="M7.5 20.5H8.5V21.5H7.5V20.5Z" fill="#242222"/>
<path d="M7.5 22.5H8.5V23.5H7.5V22.5Z" fill="#242222"/>
<path d="M7.5 24.5H8.5V25.5H7.5V24.5Z" fill="#242222"/>
<path d="M23.5 14.5H24.5V15.5H23.5V14.5Z" fill="#242222"/>
<path d="M21.5 14.5H22.5V15.5H21.5V14.5Z" fill="#242222"/>
<path d="M19.5 14.5H20.5V15.5H19.5V14.5Z" fill="#242222"/>
</g>
<defs>
<clipPath id="clip0_6292_774">
<rect width="32" height="32" fill="white"/>
</clipPath>
</defs>
</svg>
