<svg width="32" height="32" viewBox="0 0 32 32" fill="none" xmlns="http://www.w3.org/2000/svg">
<path fill-rule="evenodd" clip-rule="evenodd" d="M3.16825 20.6486L9.205 19.0213C10.338 18.7158 11.4431 18.5802 12.4274 19.2187C13.5247 19.9305 15.263 21.2932 17.1677 22.1905C17.8461 22.6304 18.1099 23.4983 17.7056 24.1984C17.3014 24.8986 16.5597 25.1167 15.6976 24.7366L16.3672 25.0361C17.1346 25.3791 17.9003 25.4666 18.7115 25.2461L24.5197 23.666C29.0345 22.438 28.6706 26.0908 27.1578 26.5423L16.536 29.7135C15.5591 30.005 14.6092 29.8796 13.7264 29.3698L7.588 25.8258L4.76 26.5835C4.21625 26.7292 3.65394 26.4046 3.50825 25.8608L2.44694 21.8999C2.30144 21.3566 2.62525 20.7949 3.16825 20.6486Z" fill="#F6DCCD"/>
<path fill-rule="evenodd" clip-rule="evenodd" d="M17.5023 24.4794C17.0768 24.9503 16.4307 25.06 15.6973 24.7366C14.6908 24.1599 13.6875 23.5763 12.6828 22.9963C12.4137 22.8409 12.3215 22.4968 12.4768 22.2277C12.6322 21.9586 12.9763 21.8664 13.2454 22.0218L17.5023 24.4794Z" fill="#F1CBBC"/>
<path fill-rule="evenodd" clip-rule="evenodd" d="M3.16821 20.6486L9.20502 19.0213C10.338 18.7158 11.4431 18.5802 12.4274 19.2187C13.0145 19.5995 13.7851 20.1666 14.6665 20.7491L2.97777 23.8811L2.44696 21.9C2.3014 21.3567 2.62521 20.795 3.16821 20.6486Z" fill="#F1CBBC"/>
<path fill-rule="evenodd" clip-rule="evenodd" d="M4.1306 19.1393L6.31278 27.5724C6.41828 27.9801 6.17097 28.4001 5.76322 28.5056L4.13978 28.9257C3.73203 29.0312 3.3121 28.784 3.20653 28.3762L1.02435 19.9431C0.918846 19.5353 1.16616 19.1154 1.57391 19.0099L3.19735 18.5898C3.60516 18.4842 4.0251 18.7315 4.1306 19.1393Z" fill="#A780BA"/>
<path fill-rule="evenodd" clip-rule="evenodd" d="M4.96179 24.7545L5.34804 26.2471L5.72998 27.7231C5.83529 28.13 5.58923 28.5491 5.18291 28.6557L5.76285 28.5056C6.1706 28.4001 6.41791 27.9801 6.31235 27.5724L5.9291 26.0914L5.1596 23.1175L4.38923 20.1404L4.13016 19.1392C4.03879 18.786 3.71135 18.5532 3.36035 18.5659L3.80891 20.2993L4.57841 23.2731L4.96166 24.7541L4.96179 24.7545Z" fill="#B1B1B5"/>
<path fill-rule="evenodd" clip-rule="evenodd" d="M23.2262 3.74137C24.0832 3.94531 24.9018 4.28513 25.6519 4.747L27.2282 4.04694L29.0859 5.90469L28.386 7.48044C28.8481 8.23069 29.1879 9.04956 29.3919 9.90681L31 10.5258V13.1531L29.3915 13.7722C29.1875 14.6293 28.8477 15.4478 28.3859 16.1979L29.0859 17.7741L27.2282 19.6319L25.6524 18.932C24.9022 19.3941 24.0833 19.7338 23.226 19.9378L22.607 21.5459H19.9798L19.3607 19.9374C18.5036 19.7334 17.6851 19.3936 16.935 18.9317L15.3587 19.6318L13.501 17.7741L14.2009 16.1983C13.7388 15.4481 13.399 14.6292 13.195 13.7719L11.5869 13.1529V10.5257L13.1953 9.90662C13.3993 9.0495 13.739 8.23088 14.201 7.48075L13.501 5.90469L15.3587 4.04687L16.935 4.74694C17.6851 4.28506 18.5037 3.94525 19.3607 3.74131L19.9799 2.13281H22.607L23.2262 3.74137Z" fill="#F7B319"/>
<path fill-rule="evenodd" clip-rule="evenodd" d="M16.9352 18.9318L15.359 19.6318L15.1163 19.3891L16.5941 18.7328C16.7063 18.8018 16.82 18.8682 16.9352 18.9318ZM23.2264 3.74131C24.0834 3.94525 24.902 4.28506 25.6521 4.74694L25.204 4.94594C24.4539 4.48406 23.2942 3.94531 22.4372 3.74131L21.8181 2.13281H22.6073L23.2264 3.74131ZM25.6526 18.9319C24.9024 19.394 24.0835 19.7337 23.2263 19.9377L22.6073 21.5459H21.8181L22.4371 19.9377C23.2943 19.7337 24.4543 19.195 25.2045 18.7329L25.6526 18.9319ZM15.1162 4.28956L15.3589 4.04688L16.9351 4.74694C16.82 4.8105 16.7062 4.87681 16.594 4.94594L15.1162 4.28956ZM26.6819 4.28956L27.2283 4.04688L29.0861 5.90463L28.3862 7.48038C28.8483 8.23063 29.1881 9.0495 29.392 9.90675L31.0001 10.5258V13.153L29.3916 13.7721C29.1877 14.6292 28.8479 15.4477 28.386 16.1978L29.0861 17.7741L27.2283 19.6318L26.6819 19.3891L28.297 17.7741L27.5969 16.1978C28.0588 15.4477 28.3986 14.6292 28.6025 13.7721L30.211 13.153V10.5258L28.6029 9.90675C28.399 9.0495 28.0591 8.23063 27.5971 7.48038L28.297 5.90463L26.6819 4.28956Z" fill="#F7B319"/>
<path d="M23.7139 15.7366C25.8673 14.4057 26.5339 11.5811 25.203 9.42773C23.872 7.27439 21.0474 6.60773 18.8941 7.9387C16.7407 9.26967 16.0741 12.0943 17.4051 14.2476C18.736 16.4009 21.5606 17.0676 23.7139 15.7366Z" fill="#ECEFF1"/>
<path fill-rule="evenodd" clip-rule="evenodd" d="M21.2935 7.25781C18.763 7.25781 16.7119 9.30887 16.7119 11.8395C16.7119 14.37 18.763 16.4211 21.2935 16.4211C21.4162 16.4211 21.5377 16.4161 21.6579 16.4066C19.2978 16.2209 17.4407 14.2473 17.4407 11.8394C17.4407 9.4315 19.2978 7.45788 21.6579 7.27219C21.5377 7.26281 21.4161 7.25781 21.2935 7.25781Z" fill="#D1D1D6"/>
<path fill-rule="evenodd" clip-rule="evenodd" d="M20.1404 9.16992H22.4466V10.6863H23.963V12.9925H22.4466V14.5089H20.1404V12.9925H18.624V10.6863H20.1404V9.16992Z" fill="#FE646F"/>
<path fill-rule="evenodd" clip-rule="evenodd" d="M21.752 9.16992H22.4466V10.6863H21.752V9.16992ZM23.2683 10.6863H23.963V12.9925H23.2683V10.6863ZM22.4466 12.9925V14.5089H21.752V12.9925H22.4466Z" fill="#FD4755"/>
<path fill-rule="evenodd" clip-rule="evenodd" d="M23.463 12.4923H22.4468C22.1706 12.4923 21.9468 12.7166 21.9468 12.9923V14.0092H20.6405V12.9922C20.6405 12.7166 20.4161 12.4923 20.1404 12.4923H19.1236V11.1859H20.1404C20.4161 11.1859 20.6405 10.9621 20.6405 10.6859V9.66963H21.9468V10.6859C21.9468 10.9621 22.1706 11.1859 22.4468 11.1859H23.463V12.4923ZM22.9468 10.1859V9.16981C22.9468 8.8935 22.7224 8.66975 22.4468 8.66975H20.1405C19.8643 8.66975 19.6404 8.89344 19.6404 9.16981V10.1859H18.6236C18.3475 10.1859 18.1236 10.4103 18.1236 10.686V12.9923C18.1236 13.2686 18.3475 13.4923 18.6236 13.4923H19.6404V14.5091C19.6404 14.7847 19.8643 15.0091 20.1405 15.0091H22.4468C22.7225 15.0091 22.9468 14.7847 22.9468 14.5091V13.4923H23.9628C24.2393 13.4923 24.4628 13.2685 24.4628 12.9923V10.686C24.4628 10.4104 24.2392 10.1859 23.9628 10.1859H22.9468ZM30.4997 12.8098V10.8691L29.2123 10.3734C29.0578 10.3141 28.9437 10.1829 28.9055 10.0222C28.7136 9.2165 28.3955 8.44969 27.9598 7.74287C27.8736 7.60225 27.8618 7.42781 27.9292 7.27719L28.4893 6.01537L27.1174 4.6435L25.8546 5.20406C25.704 5.27094 25.5299 5.25906 25.3899 5.17281C24.6822 4.73725 23.9154 4.41906 23.1103 4.22781C22.9497 4.18975 22.8186 4.07475 22.7591 3.92106L22.2635 2.63294H20.3228L19.8271 3.92106C19.768 4.07481 19.6366 4.18981 19.476 4.22781C18.6709 4.41912 17.9041 4.73725 17.1966 5.17281C17.0566 5.25906 16.8822 5.27094 16.7316 5.20406L15.4692 4.6435L14.0973 6.01537L14.658 7.27787C14.7247 7.4285 14.713 7.60281 14.6265 7.74287C14.1911 8.44969 13.8729 9.21656 13.6817 10.0222C13.6435 10.1828 13.5285 10.314 13.375 10.3734L12.0866 10.8691V12.8098L13.3741 13.3053C13.5285 13.3648 13.643 13.4961 13.6811 13.656C13.8729 14.4622 14.1912 15.2292 14.6259 15.936C14.713 16.0766 14.7247 16.2504 14.6574 16.401L14.0973 17.6635L15.4692 19.0354L16.7316 18.4748C16.8822 18.4079 17.0567 18.4198 17.1966 18.506C17.9041 18.9416 18.6709 19.259 19.476 19.4509C19.6366 19.4891 19.768 19.6041 19.8271 19.7578L20.3228 21.0459H22.2635L22.7591 19.7578C22.8186 19.6041 22.9497 19.4897 23.1098 19.4516C23.916 19.2598 24.6828 18.9416 25.3899 18.506C25.5305 18.4197 25.704 18.4079 25.8555 18.4748L27.1174 19.0354L28.4893 17.6635L27.9286 16.401C27.8619 16.2498 27.8736 16.0759 27.9598 15.9353C28.3955 15.2285 28.7131 14.4617 28.9049 13.6567C28.9428 13.4961 29.0578 13.3647 29.2117 13.3054L30.4997 12.8098ZM31.1791 10.0591L29.8123 9.53287C29.6154 8.8035 29.3254 8.10344 28.9478 7.44725L29.5428 6.10787C29.6266 5.9185 29.5854 5.69725 29.439 5.55094L27.5818 3.6935C27.4353 3.54725 27.2141 3.506 27.0247 3.58963L25.6849 4.18469C25.0284 3.80712 24.3292 3.51725 23.5998 3.32031L23.0736 1.95337C22.9992 1.76044 22.8136 1.63281 22.6068 1.63281H19.9799C19.7731 1.63281 19.5875 1.76044 19.5131 1.95337L18.9866 3.32031C18.2574 3.51725 17.5579 3.80712 16.9017 4.18469L15.5616 3.58963C15.3725 3.50594 15.151 3.54719 15.0048 3.6935L13.1473 5.55094C13.0011 5.69725 12.96 5.9185 13.0435 6.10787L13.6386 7.44725C13.2612 8.10413 12.9712 8.8035 12.7741 9.53287L11.4075 10.0591C11.2143 10.1334 11.0866 10.3191 11.0866 10.5259V13.1529C11.0866 13.3598 11.2143 13.5453 11.4075 13.6198L12.7741 14.146C12.9711 14.8759 13.2612 15.5753 13.6386 16.2316L13.0435 17.571C12.96 17.7603 13.0011 17.9816 13.1473 18.1279L15.0048 19.9853C15.151 20.1316 15.3725 20.1728 15.5616 20.0884L16.9017 19.4934C17.5579 19.8709 18.2574 20.1609 18.9866 20.3584L19.5131 21.7253C19.5875 21.9184 19.7731 22.0459 19.9799 22.0459H22.6068C22.8136 22.0459 22.9992 21.9184 23.0736 21.7253L23.5998 20.3584C24.3299 20.1615 25.029 19.8715 25.6855 19.4941L27.0247 20.0884C27.2141 20.1728 27.4353 20.1315 27.5818 19.9853L29.439 18.1272C29.5855 17.9809 29.6266 17.7603 29.5428 17.571L28.9472 16.2309C29.3249 15.5748 29.6149 14.8754 29.8123 14.146L31.1791 13.6198C31.3724 13.5453 31.4998 13.3598 31.4998 13.1529V10.5259C31.4998 10.3191 31.3724 10.1334 31.1791 10.0591ZM21.2929 15.9209C23.5442 15.9209 25.3749 14.0904 25.3749 11.8391C25.3749 9.5885 23.5442 7.75725 21.2929 7.75725C19.0424 7.75725 17.2117 9.5885 17.2117 11.8391C17.2117 14.0904 19.0424 15.9209 21.2929 15.9209ZM21.2929 6.75731C18.4909 6.75731 16.2116 9.03725 16.2116 11.8391C16.2116 14.6416 18.4909 16.9211 21.2929 16.9211C24.0954 16.9211 26.3747 14.6416 26.3747 11.8391C26.3747 9.03719 24.0954 6.75731 21.2929 6.75731ZM3.34283 20.5584C3.30989 20.8447 3.05101 21.0492 2.76483 21.0159C2.4792 20.9823 2.27483 20.7235 2.30801 20.4372C2.34151 20.1516 2.60039 19.9471 2.88595 19.9804C3.17226 20.0141 3.37664 20.2729 3.34283 20.5584ZM27.0141 26.0648L16.3905 29.2366C15.5586 29.4847 14.7453 29.3848 13.9735 28.9391L7.83401 25.3947C7.71989 25.3278 7.58314 25.3104 7.45489 25.3447L6.33101 25.6454L5.0412 20.6597L9.33176 19.5047C10.2913 19.2466 11.2966 19.0841 12.1523 19.6391C12.4305 19.8198 12.7485 20.0409 13.1161 20.2973C14.1724 21.0335 15.4843 21.9479 16.9193 22.6278C17.3761 22.9409 17.5279 23.5041 17.2705 23.9498C16.9323 24.5359 16.3822 24.4734 15.9743 24.3128C15.2766 23.9635 14.628 23.5747 13.9423 23.1635C13.6158 22.9678 13.2785 22.766 12.9305 22.5648C12.6911 22.4267 12.3855 22.5085 12.2472 22.7472C12.109 22.9866 12.191 23.2922 12.4305 23.4303C12.7716 23.6278 13.1055 23.8278 13.4279 24.021C14.1368 24.446 14.806 24.8472 15.5448 25.2166C15.5474 25.2179 15.5598 25.2236 15.563 25.2254L16.161 25.4941C17.0635 25.8979 17.9403 25.9748 18.8403 25.7304L24.6498 24.1499C26.2991 23.7011 27.4179 23.9042 27.643 24.6923C27.7966 25.2334 27.4798 25.926 27.0141 26.0648ZM5.80039 27.8978C5.82101 27.8622 5.85308 27.7884 5.8292 27.6972L3.6467 19.2628C3.62289 19.1709 3.55995 19.1222 3.52345 19.1009C3.49726 19.0853 3.44933 19.0635 3.38783 19.0635C3.36783 19.0635 3.34608 19.066 3.32283 19.0716L1.6992 19.4923C1.55976 19.5278 1.47239 19.6766 1.50801 19.8159L3.69051 28.2503C3.7267 28.3897 3.87495 28.4771 4.01495 28.4409L5.63858 28.0209C5.72976 27.9972 5.7792 27.9341 5.80039 27.8978ZM24.3872 23.1847C27.716 22.2797 28.4566 23.8997 28.6043 24.4178C28.9093 25.4866 28.2872 26.7284 27.2998 27.0234L16.6767 30.1947C16.2893 30.3104 15.8993 30.3678 15.5131 30.3678C14.8116 30.3678 14.1218 30.1791 13.4735 29.8047L7.5137 26.3641L6.58158 26.6135L6.7972 27.4466C6.88164 27.7728 6.8337 28.1134 6.66189 28.4053C6.48983 28.6972 6.21539 28.9047 5.8892 28.9891L4.26558 29.4091C4.15908 29.4365 4.05289 29.4498 3.94851 29.4498C3.38551 29.4498 2.86989 29.0709 2.72258 28.5009L0.540576 20.0666C0.365576 19.391 0.772951 18.6992 1.44858 18.5241L3.0722 18.1035C3.39839 18.0191 3.73933 18.0672 4.03108 18.2391C4.32283 18.4109 4.5302 18.6854 4.61495 19.0123L4.79026 19.6916L9.07176 18.5391C10.198 18.236 11.5093 18.0298 12.6967 18.7997C12.9885 18.9897 13.3285 19.2259 13.688 19.4767C14.7213 20.1972 16.0072 21.0935 17.3785 21.7391C17.3991 21.7491 17.4185 21.7597 17.4373 21.7722C18.3536 22.366 18.6603 23.5421 18.1368 24.4498C18.045 24.6084 17.9391 24.7484 17.8218 24.8697H17.823C18.0724 24.8697 18.3224 24.8347 18.578 24.7654L24.3872 23.1847Z" fill="#242222"/>
</svg>
