<svg width="32" height="32" viewBox="0 0 32 32" fill="none" xmlns="http://www.w3.org/2000/svg">
<g clip-path="url(#clip0_6292_799)">
<path d="M13.933 30.6663H3.13301C2.13301 30.6663 1.33301 29.8663 1.33301 28.8663V3.13301C1.33301 2.13301 2.13301 1.33301 3.13301 1.33301H13.933C14.933 1.33301 15.733 2.13301 15.733 3.13301V28.933C15.6663 29.8663 14.8663 30.6663 13.933 30.6663Z" fill="#F7B319"/>
<path d="M13.933 31.6663H3.13301C1.59967 31.6663 0.333008 30.3997 0.333008 28.8663V3.13301C0.333008 1.59967 1.59967 0.333008 3.13301 0.333008H13.933C15.4663 0.333008 16.733 1.59967 16.733 3.13301V28.933C16.6663 30.3997 15.4663 31.6663 13.933 31.6663ZM3.13301 2.33301C2.66634 2.33301 2.33301 2.66634 2.33301 3.13301V28.933C2.33301 29.333 2.66634 29.733 3.13301 29.733H13.933C14.333 29.733 14.733 29.3997 14.733 28.933V3.13301C14.733 2.73301 14.3997 2.33301 13.933 2.33301H3.13301Z" fill="#242222"/>
<path d="M28.7327 5.33301H17.5993C16.5327 5.33301 15.666 6.19967 15.666 7.26634V16.133C15.666 17.1997 16.5327 18.0663 17.5993 18.0663H28.7327C29.7993 18.0663 30.666 17.1997 30.666 16.133V7.26634C30.666 6.19967 29.7993 5.33301 28.7327 5.33301Z" fill="#FFEDC4"/>
<path d="M28.7327 19.0663H17.5993C15.9993 19.0663 14.666 17.733 14.666 16.133V7.26634C14.666 5.66634 15.9993 4.33301 17.5993 4.33301H28.7327C30.3327 4.33301 31.666 5.66634 31.666 7.26634V16.133C31.666 17.733 30.3327 19.0663 28.7327 19.0663ZM17.5993 6.33301C17.066 6.33301 16.666 6.73301 16.666 7.26634V16.133C16.666 16.6663 17.066 17.0663 17.5993 17.0663H28.7327C29.266 17.0663 29.666 16.6663 29.666 16.133V7.26634C29.666 6.73301 29.266 6.33301 28.7327 6.33301H17.5993Z" fill="#242222"/>
<path d="M8.53268 17.3329C11.2205 17.3329 13.3993 15.1541 13.3993 12.4663C13.3993 9.77849 11.2205 7.59961 8.53268 7.59961C5.8449 7.59961 3.66602 9.77849 3.66602 12.4663C3.66602 15.1541 5.8449 17.3329 8.53268 17.3329Z" fill="white"/>
<path d="M8.53268 18.3329C5.33268 18.3329 2.66602 15.7329 2.66602 12.4663C2.66602 9.26628 5.26602 6.59961 8.53268 6.59961C11.7993 6.59961 14.3993 9.19961 14.3993 12.4663C14.3993 15.6663 11.7327 18.3329 8.53268 18.3329ZM8.53268 8.59961C6.39935 8.59961 4.66602 10.3329 4.66602 12.4663C4.66602 14.5996 6.39935 16.3329 8.53268 16.3329C10.666 16.3329 12.3993 14.5996 12.3993 12.4663C12.3993 10.3329 10.666 8.59961 8.53268 8.59961Z" fill="#242222"/>
<path d="M7.19922 22.9326H9.86589V24.9326H7.19922V22.9326Z" fill="#242222"/>
</g>
<defs>
<clipPath id="clip0_6292_799">
<rect width="32" height="32" fill="white"/>
</clipPath>
</defs>
</svg>
