<svg width="32" height="32" viewBox="0 0 32 32" fill="none" xmlns="http://www.w3.org/2000/svg">
<g clip-path="url(#clip0_6292_743)">
<path fill-rule="evenodd" clip-rule="evenodd" d="M19.3395 4.18956C20.0297 4.4015 20.691 4.67869 21.3179 5.01206L24.6622 3.04456L28.0066 6.39075L26.0409 9.73331C26.3743 10.3602 26.6515 11.0232 26.8634 11.7135L30.6155 12.6882V17.4186L26.8616 18.3914C26.6497 19.0817 26.3742 19.7429 26.0409 20.3716L28.0066 23.716L24.6622 27.0604L16.1201 20.4333L7.33698 27.0604L3.9926 23.7161L5.95829 20.3717C5.62491 19.7448 5.34954 19.0818 5.1376 18.3915L1.38379 17.4186V12.6882L5.1376 11.7136C5.34954 11.0233 5.62679 10.3621 5.95829 9.73519L3.9926 6.39081L7.33698 3.04463L10.6814 5.01213C11.3082 4.67875 11.9713 4.40156 12.6615 4.18962L13.6344 0.4375H18.3648L19.3395 4.18956Z" fill="#FFEDC4"/>
<path fill-rule="evenodd" clip-rule="evenodd" d="M14.0131 22.0239L7.33698 27.0604L3.9926 23.716L5.95829 20.3716C5.62491 19.7448 5.34954 19.0817 5.1376 18.3914L1.38379 17.4186V12.6882L5.1376 11.7135C5.34954 11.0232 5.62679 10.362 5.95829 9.73512L3.9926 6.39075L7.33698 3.04456L10.6814 5.01206C11.3082 4.67869 11.9713 4.4015 12.6615 4.18956L13.6344 0.4375H17.4045C14.1634 3.93044 12.1814 8.60644 12.1814 13.7481C12.1814 16.7066 12.8373 19.5092 14.0131 22.0239Z" fill="#FFEDC4"/>
<path fill-rule="evenodd" clip-rule="evenodd" d="M16.0001 23.1758C14.8025 23.1758 13.8242 24.1559 13.8242 25.3535V29.3863C13.8242 30.5821 14.8025 31.5622 16.0001 31.5622C17.1958 31.5622 18.176 30.5821 18.176 29.3863V25.3535C18.176 24.1559 17.1958 23.1758 16.0001 23.1758Z" fill="#7CA1B1"/>
<path fill-rule="evenodd" clip-rule="evenodd" d="M19.959 24.7773H12.04V27.5384C12.04 28.1544 12.5437 28.658 13.1597 28.658H18.8394C19.4554 28.658 19.959 28.1543 19.959 27.5384V24.7773Z" fill="#FFEDC4"/>
<path fill-rule="evenodd" clip-rule="evenodd" d="M16.0007 8.00684C11.6037 8.00684 8.04004 11.7679 8.04004 16.4059C8.04004 21.4153 11.0874 21.4008 11.0874 24.4806C11.0874 25.0024 11.4914 25.4281 11.9842 25.4281H20.0154C20.51 25.4281 20.914 25.0024 20.914 24.4806C20.914 21.4008 23.9613 21.4153 23.9613 16.4059C23.9613 11.768 20.3959 8.00684 16.0007 8.00684Z" fill="#F7B319"/>
<path fill-rule="evenodd" clip-rule="evenodd" d="M13.8242 28.4043V29.3862C13.8242 30.582 14.8025 31.5621 16.0001 31.5621C16.2392 31.5621 16.4693 31.5222 16.6849 31.4498C15.8207 31.1617 15.1939 30.3429 15.1939 29.3863V28.658H14.5308C14.2627 28.658 14.0162 28.5637 13.8242 28.4043Z" fill="#678D98"/>
<path fill-rule="evenodd" clip-rule="evenodd" d="M12.502 24.7773H12.04V27.5384C12.04 28.1544 12.5437 28.658 13.1597 28.658H14.5311C13.9151 28.658 13.4115 28.1543 13.4115 27.5384V25.4278H13.3553C12.9604 25.4277 12.6216 25.1542 12.502 24.7773Z" fill="#FFEDC4"/>
<path fill-rule="evenodd" clip-rule="evenodd" d="M16.0007 8.00684C11.6037 8.00684 8.04004 11.7679 8.04004 16.4059C8.04004 21.4153 11.0874 21.4008 11.0874 24.4806C11.0874 25.0024 11.4914 25.4281 11.9842 25.4281H13.3556C12.861 25.4281 12.457 25.0024 12.457 24.4806C12.457 21.4008 9.41154 21.4153 9.41154 16.4059C9.41154 12.0107 12.611 8.40546 16.6855 8.03765C16.459 8.01771 16.2308 8.00684 16.0007 8.00684Z" fill="#FAC600"/>
<path fill-rule="evenodd" clip-rule="evenodd" d="M12.9093 12.7751H14.9221C14.6993 12.5288 14.5634 12.2026 14.5634 11.8439C14.5634 11.0794 15.1848 10.458 15.9493 10.458C16.7157 10.458 17.3371 11.0794 17.3371 11.8439C17.3371 12.2026 17.2012 12.5288 16.9784 12.7751H19.089C19.5365 12.7751 19.9025 13.1411 19.9025 13.5886V15.6503C19.6561 15.4274 19.33 15.2916 18.9713 15.2916C18.2049 15.2916 17.5835 15.9112 17.5835 16.6775C17.5835 17.4439 18.205 18.0634 18.9713 18.0634C19.33 18.0634 19.6561 17.9276 19.9025 17.7048V19.7683C19.9025 20.2139 19.5365 20.5799 19.089 20.5799H16.9784C17.2012 20.8263 17.3371 21.1524 17.3371 21.5111C17.3371 22.2774 16.7157 22.897 15.9493 22.897C15.1848 22.897 14.5634 22.2774 14.5634 21.5111C14.5634 21.1524 14.6993 20.8263 14.9221 20.5799H12.9093C12.4636 20.5799 12.0977 20.2139 12.0977 19.7683V17.7048C12.344 17.9276 12.6702 18.0634 13.0288 18.0634C13.7934 18.0634 14.4148 17.4438 14.4148 16.6775C14.4148 15.9111 13.7933 15.2916 13.0288 15.2916C12.6702 15.2916 12.344 15.4274 12.0977 15.6503V13.5886C12.0977 13.1411 12.4636 12.7751 12.9093 12.7751Z" fill="white"/>
<path fill-rule="evenodd" clip-rule="evenodd" d="M12.9093 12.7751H14.9221C14.6993 12.5288 14.5634 12.2026 14.5634 11.8439C14.5634 11.0794 15.1848 10.458 15.9493 10.458C16.3352 10.458 16.6831 10.6156 16.9349 10.8693C16.8462 10.8511 16.7537 10.8421 16.6595 10.8421C15.8932 10.8421 15.2736 11.4617 15.2736 12.228C15.2736 12.5867 15.4095 12.9128 15.6323 13.1592H13.6195C13.172 13.1592 12.806 13.5251 12.806 13.9708V15.3097C12.5361 15.3532 12.2915 15.4746 12.0977 15.6503V13.5886C12.0977 13.1411 12.4636 12.7751 12.9093 12.7751Z" fill="white"/>
<path d="M31.0247 12.6967V17.4149C31.0247 17.6183 30.8872 17.796 30.6904 17.847L27.1845 18.7556C27.0058 19.2948 26.7847 19.8279 26.5249 20.346L28.361 23.4699C28.464 23.6452 28.4356 23.8679 28.2918 24.0117L24.956 27.3476C24.8695 27.4342 24.7551 27.4783 24.6403 27.4783C24.5442 27.4783 24.4478 27.4474 24.3668 27.3846L21.8208 25.4095C21.626 25.2584 21.5906 24.978 21.7417 24.7833C21.8928 24.5886 22.1731 24.5531 22.368 24.7042L24.6031 26.4381L27.4166 23.6247L25.6309 20.5866C25.5525 20.4533 25.5488 20.2889 25.6209 20.1521C25.9448 19.5381 26.2095 18.8995 26.4076 18.2542C26.4531 18.1061 26.5722 17.9921 26.7223 17.9533L30.1321 17.0695V13.042L26.7221 12.1566C26.5721 12.1176 26.4531 12.0037 26.4076 11.8556C26.2057 11.1983 25.9413 10.5603 25.6216 9.95906C25.5487 9.82206 25.5522 9.657 25.6309 9.52331L27.4165 6.48688L24.569 3.63788L21.531 5.42513C21.3972 5.50381 21.2321 5.50744 21.0951 5.43444C20.4886 5.11187 19.8506 4.84688 19.1986 4.64669C19.0505 4.60119 18.9365 4.48206 18.8976 4.33206L18.0139 0.924H13.9863L13.1009 4.33225C13.0619 4.48219 12.948 4.60119 12.7999 4.64669C12.1533 4.84519 11.5156 5.10981 10.9043 5.43313C10.7674 5.50537 10.603 5.50181 10.4694 5.42338L7.43127 3.63769L4.58209 6.48694L6.36934 9.52506C6.44802 9.65888 6.45159 9.82387 6.37871 9.96087C6.05809 10.5638 5.79365 11.2013 5.59271 11.8556C5.54721 12.0037 5.42821 12.1176 5.27821 12.1566L1.86821 13.042V17.0695L5.27627 17.9533C5.42634 17.9922 5.5454 18.1061 5.5909 18.2542C5.79027 18.9036 6.0549 19.542 6.3774 20.1517C6.44977 20.2885 6.44609 20.4531 6.36765 20.5866L4.58202 23.6246L7.40077 26.4419L9.6479 24.7458C9.84465 24.5974 10.1245 24.6364 10.273 24.8331C10.4215 25.0299 10.3824 25.3097 10.1856 25.4583L7.62871 27.3882C7.45109 27.5223 7.20177 27.505 7.04427 27.3476L3.70671 24.0118C3.5629 23.8681 3.5344 23.6453 3.63746 23.4699L5.47346 20.3463C5.21446 19.8306 4.9934 19.2974 4.81396 18.7556L1.3099 17.8469C1.11302 17.7959 0.975586 17.6182 0.975586 17.4149V12.6967C0.975586 12.4934 1.11296 12.3157 1.30971 12.2646L4.81565 11.3544C4.99596 10.8094 5.21696 10.2767 5.4749 9.76506L3.63752 6.64181C3.5344 6.46656 3.56284 6.24369 3.70665 6.09987L7.04421 2.76231C7.18796 2.61856 7.41065 2.59006 7.58596 2.69313L10.7096 4.52913C11.2261 4.26956 11.7587 4.0485 12.2986 3.86963L13.209 0.365375C13.2601 0.168625 13.4377 0.03125 13.641 0.03125H18.3591C18.5625 0.03125 18.7402 0.168687 18.7912 0.365562L19.6998 3.86963C20.2436 4.04975 20.7769 4.27131 21.2909 4.53056L24.4141 2.69319C24.5894 2.59013 24.8123 2.6185 24.9561 2.76244L28.292 6.1C28.4356 6.24375 28.4641 6.4665 28.361 6.64175L26.5254 9.76331C26.7828 10.2742 27.0038 10.8075 27.1847 11.3544L30.6906 12.2647C30.8873 12.3158 31.0247 12.4934 31.0247 12.6967ZM22.4973 21.7837C21.8542 22.6096 21.3462 23.2619 21.3462 24.4587C21.3462 25.0846 20.9453 25.6152 20.3957 25.7895V27.509C20.3957 28.3708 19.6945 29.0721 18.8326 29.0721H18.6158V29.3521C18.6158 30.7949 17.442 31.9688 15.9992 31.9688C14.5564 31.9688 13.3826 30.7949 13.3826 29.3521V29.0721H13.1676C12.3057 29.0721 11.6045 28.3708 11.6045 27.509V25.79C11.054 25.6163 10.6522 25.0853 10.6522 24.4587C10.6522 23.2619 10.1443 22.6096 9.50115 21.7837C8.65984 20.7032 7.61277 19.3586 7.61277 16.4048C7.61277 11.5394 11.3749 7.581 15.9992 7.581C20.6235 7.581 24.3856 11.5394 24.3856 16.4048C24.3856 19.3586 23.3386 20.7033 22.4973 21.7837ZM17.7231 29.0721H14.2753V29.3521C14.2753 30.3027 15.0487 31.076 15.9992 31.076C16.9497 31.076 17.7231 30.3027 17.7231 29.3521V29.0721H17.7231ZM19.5031 27.509V25.8502H12.4972V27.509C12.4972 27.8787 12.798 28.1794 13.1676 28.1794H18.8327C19.2023 28.1794 19.5031 27.8787 19.5031 27.509ZM21.793 21.2353C22.6288 20.1619 23.493 19.052 23.493 16.4048C23.493 12.0316 20.1313 8.47381 15.9992 8.47381C11.8671 8.47381 8.50546 12.0316 8.50546 16.4048C8.50546 19.0521 9.36971 20.1619 10.2055 21.2353C10.8943 22.1198 11.5448 22.9553 11.5448 24.4587C11.5448 24.7337 11.7467 24.9574 11.9948 24.9574H20.0036C20.2516 24.9574 20.4535 24.7337 20.4535 24.4587C20.4536 22.9553 21.1041 22.1198 21.793 21.2353ZM20.3379 13.5949V15.6512C20.3379 15.8277 20.234 15.9876 20.0726 16.0592C19.9113 16.1308 19.723 16.1005 19.5921 15.9823C19.4192 15.8259 19.1957 15.7398 18.9627 15.7398C18.4466 15.7398 18.0266 16.1596 18.0266 16.6758C18.0266 17.1919 18.4465 17.6119 18.9627 17.6119C19.1957 17.6119 19.4192 17.5258 19.5921 17.3694C19.723 17.2511 19.9113 17.2207 20.0726 17.2924C20.2339 17.364 20.3378 17.5239 20.3378 17.7004V19.7586C20.3378 20.4511 19.7745 21.0146 19.082 21.0146H17.7146C17.7571 21.1704 17.7791 21.3325 17.7791 21.497C17.7791 22.5053 16.9587 23.3257 15.9504 23.3257C14.9421 23.3257 14.1217 22.5053 14.1217 21.497C14.1217 21.3324 14.1437 21.1704 14.1862 21.0146H12.9183C12.2248 21.0146 11.6606 20.4512 11.6606 19.7586V17.7004C11.6606 17.5239 11.7645 17.364 11.9258 17.2924C12.0871 17.2209 12.2755 17.2511 12.4063 17.3694C12.5792 17.5258 12.8027 17.6119 13.0357 17.6119C13.5528 17.6119 13.9736 17.192 13.9736 16.6758C13.9736 16.1597 13.5529 15.7398 13.0357 15.7398C12.8027 15.7398 12.5792 15.8259 12.4063 15.9823C12.2754 16.1007 12.0871 16.1309 11.9258 16.0592C11.7645 15.9876 11.6605 15.8277 11.6605 15.6512V13.5949C11.6605 12.9014 12.2247 12.3372 12.9182 12.3372H14.1862C14.1436 12.1813 14.1217 12.0192 14.1217 11.8547C14.1217 10.8464 14.9421 10.026 15.9504 10.026C16.9587 10.026 17.7791 10.8464 17.7791 11.8547C17.7791 12.0193 17.7571 12.1814 17.7146 12.3372H19.082C19.7745 12.3372 20.3379 12.9014 20.3379 13.5949ZM19.4453 13.5949C19.4453 13.3971 19.279 13.2299 19.082 13.2299H16.975C16.7986 13.2299 16.6386 13.1259 16.5671 12.9646C16.4955 12.8033 16.5256 12.615 16.644 12.4841C16.8004 12.3112 16.8865 12.0877 16.8865 11.8547C16.8865 11.3386 16.4666 10.9186 15.9505 10.9186C15.4343 10.9186 15.0144 11.3385 15.0144 11.8547C15.0144 12.0877 15.1005 12.3112 15.2569 12.4841C15.3753 12.6151 15.4054 12.8034 15.3338 12.9646C15.2622 13.1259 15.1023 13.2299 14.9258 13.2299H12.9183C12.717 13.2299 12.5533 13.3936 12.5533 13.5949V14.9117C12.7091 14.8692 12.8712 14.8471 13.0357 14.8471C14.0451 14.8471 14.8662 15.6675 14.8662 16.6758C14.8662 17.6842 14.045 18.5046 13.0357 18.5046C12.8712 18.5046 12.7091 18.4825 12.5533 18.44V19.7586C12.5533 19.9556 12.7204 20.1218 12.9183 20.1218H14.9259C15.1023 20.1218 15.2623 20.2257 15.3338 20.3871C15.4054 20.5483 15.3753 20.7366 15.257 20.8676C15.1006 21.0405 15.0145 21.2641 15.0145 21.497C15.0145 22.0131 15.4343 22.433 15.9505 22.433C16.4666 22.433 16.8866 22.0132 16.8866 21.497C16.8866 21.264 16.8005 21.0405 16.6441 20.8676C16.5257 20.7367 16.4956 20.5484 16.5671 20.3871C16.6387 20.2257 16.7986 20.1218 16.9751 20.1218H19.0821C19.279 20.1218 19.4453 19.9556 19.4453 19.7586V18.44C19.2895 18.4825 19.1274 18.5046 18.9629 18.5046C17.9545 18.5046 17.1342 17.6842 17.1342 16.6758C17.1342 15.6675 17.9546 14.8471 18.9629 14.8471C19.1274 14.8471 19.2895 14.8692 19.4453 14.9117L19.4453 13.5949Z" fill="#242222"/>
</g>
<defs>
<clipPath id="clip0_6292_743">
<rect width="32" height="32" fill="white"/>
</clipPath>
</defs>
</svg>
