<svg width="32" height="32" viewBox="0 0 32 32" fill="none" xmlns="http://www.w3.org/2000/svg">
<path fill-rule="evenodd" clip-rule="evenodd" d="M28.3014 2.14746H14.7514C13.8195 2.14746 13.0576 2.90934 13.0576 3.84121V27.1631C13.0576 28.0931 13.8195 28.8568 14.7514 28.8568H28.3007C29.2326 28.8568 29.9945 28.0931 29.9945 27.1631V3.84121C29.9951 2.90934 29.2332 2.14746 28.3014 2.14746Z" fill="#F7B319"/>
<path fill-rule="evenodd" clip-rule="evenodd" d="M25.8089 2.14746H14.7514C13.8195 2.14746 13.0576 2.90934 13.0576 3.84121V27.1631C13.0576 28.0931 13.8195 28.8568 14.7514 28.8568H25.8082C26.7401 28.8568 27.502 28.0931 27.502 27.1631V3.84121C27.502 2.90934 26.7407 2.14746 25.8089 2.14746Z" fill="#FFEDC4"/>
<path fill-rule="evenodd" clip-rule="evenodd" d="M26.4057 2.14746H16.6494L17.2732 3.70121C17.4538 4.15121 17.8294 4.42434 18.2669 4.42434H24.7863C25.2257 4.42434 25.6013 4.15121 25.7819 3.70121L26.4057 2.14746Z" fill="#8D8D8D"/>
<path fill-rule="evenodd" clip-rule="evenodd" d="M13.0576 25.1699V27.163C13.0576 28.093 13.8195 28.8568 14.7514 28.8568H28.3007C29.2326 28.8568 29.9945 28.093 29.9945 27.163V25.1699H13.0576Z" fill="#808080"/>
<path fill-rule="evenodd" clip-rule="evenodd" d="M13.0576 25.1699V27.163C13.0576 28.093 13.8195 28.8568 14.7514 28.8568H25.8082C26.7401 28.8568 27.502 28.093 27.502 27.163V25.1699H13.0576Z" fill="#8D8D8D"/>
<path fill-rule="evenodd" clip-rule="evenodd" d="M25.4259 7.04968C26.4784 8.19781 26.4784 10.0597 25.4259 11.2078L21.6172 15.3659L21.6103 15.3572L21.6084 15.3553L17.6278 11.0109C16.5772 9.86281 16.5772 8.00093 17.6278 6.85281C18.7547 5.62531 20.5972 5.72593 21.6084 7.05843C22.6603 5.90718 24.3647 5.89281 25.4259 7.04968Z" fill="#FF61A7"/>
<path fill-rule="evenodd" clip-rule="evenodd" d="M25.4251 7.04898C26.4776 8.19711 26.4776 10.059 25.4251 11.2071L22.3551 14.559L19.1038 11.0102C18.0513 9.86211 18.0513 8.00023 19.1038 6.85211C19.3676 6.56523 19.6707 6.28898 20.0001 6.03711C20.6057 6.15398 21.1801 6.49586 21.607 7.05773C22.6595 5.90648 24.3638 5.89211 25.4251 7.04898Z" fill="#FF7BAE"/>
<path fill-rule="evenodd" clip-rule="evenodd" d="M5.41861 28.9414L6.59174 27.9602H12.4311L13.6024 28.9414C15.7336 30.7308 17.3124 27.2564 17.0855 25.3964C16.7155 22.3721 16.0686 18.6377 11.698 18.6377H7.32486C3.14174 18.6377 2.46861 22.0783 1.93736 24.9714C1.47299 27.4977 3.49799 30.5533 5.41861 28.9414Z" fill="#CC8D00"/>
<path fill-rule="evenodd" clip-rule="evenodd" d="M5.41887 28.9414L6.59199 27.9601H12.4314L13.6026 28.9414C15.3051 30.3714 16.6551 28.4401 17.0132 26.6576C16.6232 23.7539 15.8014 20.4639 11.6982 20.4639H7.32512C3.21324 20.4639 2.49199 23.7907 1.96387 26.6539C2.35699 28.6132 3.91949 30.2007 5.41887 28.9414Z" fill="#F7B319"/>
<path fill-rule="evenodd" clip-rule="evenodd" d="M9.51586 11.5898C11.6527 11.5898 13.3834 13.3223 13.3834 15.4573C13.3834 17.5942 11.6527 19.3267 9.51586 19.3267C7.37898 19.3267 5.64648 17.5942 5.64648 15.4573C5.64648 13.323 7.37961 11.5898 9.51586 11.5898Z" fill="#EAAC9D"/>
<path fill-rule="evenodd" clip-rule="evenodd" d="M9.51621 11.5898C11.6531 11.5898 13.3837 13.3223 13.3837 15.4573C13.3837 16.3911 13.0543 17.2467 12.5031 17.9148C11.9362 18.2411 11.2787 18.4286 10.5775 18.4286C8.44059 18.4286 6.70996 16.6961 6.70996 14.5592C6.70996 13.6273 7.03934 12.7717 7.59059 12.1017C8.15746 11.7761 8.81496 11.5898 9.51621 11.5898Z" fill="#FFCBBE"/>
<path d="M16.9945 17.7381C16.7538 17.7381 16.557 17.5431 16.557 17.3006C16.557 17.0593 16.7538 16.8631 16.9945 16.8631H18.7663C19.0088 16.8631 19.2038 17.06 19.2038 17.3006C19.2038 17.5431 19.0088 17.7381 18.7663 17.7381H16.9945ZM21.3351 17.7381C21.0945 17.7381 20.8976 17.5431 20.8976 17.3006C20.8976 17.0593 21.0945 16.8631 21.3351 16.8631H27.7095C27.9501 16.8631 28.147 17.06 28.147 17.3006C28.147 17.5431 27.9501 17.7381 27.7095 17.7381H21.3351ZM21.2145 22.8331C20.9732 22.8331 20.7788 22.6362 20.7788 22.3956C20.7788 22.1543 20.9738 21.9581 21.2145 21.9581H22.5751C22.8157 21.9581 23.0126 22.155 23.0126 22.3956C23.0126 22.6362 22.8157 22.8331 22.5751 22.8331H21.2145ZM24.6482 22.8331C24.4057 22.8331 24.2107 22.6362 24.2107 22.3956C24.2107 22.1543 24.4057 21.9581 24.6482 21.9581H27.7095C27.9501 21.9581 28.147 22.155 28.147 22.3956C28.147 22.6362 27.9501 22.8331 27.7095 22.8331H24.6482ZM18.952 20.2856C18.7113 20.2856 18.5145 20.0906 18.5145 19.8481C18.5145 19.6075 18.7113 19.4106 18.952 19.4106H23.957C24.1976 19.4106 24.3945 19.6075 24.3945 19.8481C24.3945 20.0906 24.1976 20.2856 23.957 20.2856H18.952ZM26.3132 20.2856C26.0707 20.2856 25.8757 20.0906 25.8757 19.8481C25.8757 19.6075 26.0707 19.4106 26.3132 19.4106H27.7095C27.9501 19.4106 28.147 19.6075 28.147 19.8481C28.147 20.0906 27.9501 20.2856 27.7095 20.2856H26.3132ZM9.51633 11.1525C10.7351 11.1525 11.8357 11.6575 12.6201 12.4743V3.84121C12.6201 2.66809 13.5788 1.70996 14.7513 1.70996H28.3007C29.4738 1.70996 30.432 2.66871 30.432 3.84121V27.1612C30.432 28.3343 29.4732 29.2925 28.3007 29.2925H16.1445C16.1038 29.3087 14.9113 30.6106 13.322 29.2768L12.2713 28.3962H6.74883L5.70008 29.2768C4.8282 30.0087 3.80946 30.0031 2.95196 29.3037C1.78071 28.3487 1.22821 26.4212 1.50821 24.8943C1.78133 23.41 2.08946 21.785 2.88821 20.4956C3.58071 19.3743 4.61883 18.5306 6.26133 18.2793C4.78196 16.5731 4.87383 14.0112 6.47008 12.415C7.2507 11.6343 8.32758 11.1525 9.51633 11.1525ZM13.4957 13.8118C14.1226 15.3268 13.8307 17.0556 12.7695 18.2781C16.2082 18.8025 17.0513 21.8618 17.4395 24.7325H29.5576V3.84121C29.5576 3.15184 28.9926 2.58496 28.3013 2.58496H26.7001L26.1863 3.86246C25.947 4.45746 25.4263 4.86184 24.787 4.86184H18.2663C17.6282 4.86184 17.1057 4.45809 16.867 3.86246L16.3532 2.58496H14.7513C14.062 2.58496 13.4951 3.15184 13.4951 3.84121V13.8118H13.4957ZM11.8532 19.0737C11.1801 19.5112 10.3776 19.765 9.51633 19.765C8.65383 19.765 7.85071 19.5118 7.17758 19.0737C5.3582 19.1125 4.29508 19.8781 3.63071 20.9518C2.91696 22.105 2.62445 23.6431 2.36571 25.0512C2.21008 25.8981 2.36758 26.8137 2.71321 27.5581C3.17571 28.5468 4.10758 29.4731 5.13883 28.6068L11.9457 22.8987C12.4576 22.47 12.4682 21.7612 11.9295 21.3075C11.352 20.82 10.3651 20.82 9.78195 21.3093L5.37383 25.005C5.18946 25.1593 4.91321 25.1362 4.75883 24.95C4.60445 24.7656 4.62945 24.4893 4.81383 24.335L9.22008 20.6393C10.6801 19.415 13.2063 20.28 13.2063 22.11C13.2063 22.4893 13.0876 22.8662 12.8501 23.1962L14.987 24.9893C15.1713 25.1437 15.1957 25.42 15.042 25.6043C14.8876 25.7906 14.6113 25.815 14.427 25.6593L12.2195 23.8081L10.1907 25.5106L13.8813 28.6075C14.422 29.0612 14.9445 29.1587 15.4776 28.7156C16.3101 28.0243 16.7676 26.4087 16.6507 25.4468C16.2857 22.4525 15.687 19.1606 11.8532 19.0737ZM11.942 13.0325C10.6026 11.6931 8.43071 11.6931 7.08946 13.0325C5.75008 14.3718 5.75008 16.5437 7.08946 17.885C8.43071 19.2243 10.6026 19.2243 11.942 17.885C13.2813 16.5437 13.2813 14.3718 11.942 13.0325ZM11.2295 27.5206L9.5107 26.08L7.79195 27.5206H11.2295ZM17.5401 25.6075C17.5757 26.4793 17.3026 27.5793 16.8226 28.4175H28.3013C28.9926 28.4175 29.5576 27.8525 29.5576 27.1612V25.6075H17.5401ZM15.6107 10.9381C15.3701 10.9381 15.1732 10.7412 15.1732 10.5006C15.1732 10.2581 15.3701 10.0631 15.6107 10.0631H16.5813C15.8513 7.84684 17.4226 5.44434 19.6782 5.55934C20.392 5.59496 21.087 5.89434 21.6357 6.43246C22.892 5.41184 24.6438 5.55184 25.7457 6.75496C26.5482 7.62996 26.8226 8.86684 26.5463 9.98996H27.4407C27.6832 9.98996 27.8782 10.1868 27.8782 10.4275C27.8782 10.67 27.6832 10.865 27.4407 10.865H26.2038C26.0782 11.0918 25.9257 11.3043 25.7451 11.5012L21.9376 15.6581C21.7657 15.8475 21.4701 15.8493 21.2907 15.6531L21.2888 15.655L21.2657 15.6268L17.3063 11.3056C17.2001 11.1887 17.1026 11.0662 17.0138 10.9387H15.6107V10.9381ZM17.5188 10.0631H19.2388L19.8307 8.05559C19.9545 7.63746 20.5588 7.63371 20.6738 8.07496L21.7863 12.0612L22.8545 10.2118C22.9345 10.0718 23.0813 9.99246 23.232 9.99246V9.99059H25.6395C25.9563 9.02309 25.7207 7.89496 24.952 7.19309C24.112 6.42746 22.9126 6.43809 22.082 7.19996L21.917 7.36809C21.7451 7.53809 21.4688 7.53809 21.2988 7.36809V7.36621C21.2863 7.35184 21.2726 7.33809 21.2601 7.32184C20.4201 6.21434 18.8932 6.11684 17.9488 7.14621C17.2338 7.92809 17.087 9.11496 17.5188 10.0631ZM25.1457 10.8656H23.482L22.0326 13.3781C21.8326 13.7431 21.3257 13.6631 21.2245 13.295L20.2376 9.75871L19.9913 10.5931C19.9488 10.79 19.7732 10.9387 19.5626 10.9387H18.1507L21.6163 14.7212L25.1045 10.9137C25.1195 10.8975 25.1338 10.8812 25.1457 10.8656ZM17.2938 2.58496L17.6763 3.53809C17.7807 3.79871 17.9882 3.98621 18.2663 3.98621H24.7857C25.0657 3.98621 25.2713 3.79871 25.3757 3.53809L25.7582 2.58496H17.2938Z" fill="#242222"/>
</svg>
