<svg width="32" height="32" viewBox="0 0 32 32" fill="none" xmlns="http://www.w3.org/2000/svg">
<g clip-path="url(#clip0_6292_683)">
<path fill-rule="evenodd" clip-rule="evenodd" d="M23.9995 7.68652C24.1727 7.68652 24.3132 7.82701 24.3132 8.00025V23.9995C24.3132 24.1727 24.1727 24.3132 23.9995 24.3132H8.00025C7.82701 24.3132 7.68652 24.1727 7.68652 23.9995V8.00025C7.68652 7.82701 7.82701 7.68652 8.00025 7.68652H23.9995ZM16.3113 11.8357C16.2406 11.9441 16.1291 12.0046 16.0002 12.0046C15.8706 12.0046 15.7591 11.9441 15.6892 11.8357C14.9492 10.6974 14.1306 10.1279 12.6742 10.1279C10.8383 10.1279 9.34889 11.4578 9.34889 13.0957C9.34889 15.9898 12.5116 18.8838 15.7528 21.777C15.8942 21.9035 16.1055 21.9035 16.247 21.777C19.4882 18.8838 22.6509 15.9898 22.6509 13.0957C22.6509 11.4578 21.1614 10.1279 19.3256 10.1279C17.8691 10.1279 17.0505 10.6974 16.3113 11.8357Z" fill="#FFEDC4"/>
<path fill-rule="evenodd" clip-rule="evenodd" d="M14.9605 17.1958H13.6917C13.6085 17.1958 13.5286 17.1628 13.4699 17.1039C13.411 17.0451 13.3779 16.9653 13.3779 16.8821C13.3779 16.4901 13.3779 15.8234 13.3779 15.4314C13.3779 15.3482 13.411 15.2684 13.4699 15.2096C13.5286 15.1508 13.6085 15.1177 13.6917 15.1177H14.9605V13.8489C14.9605 13.7657 14.9936 13.6859 15.0524 13.6271C15.1112 13.5682 15.191 13.5352 15.2742 13.5352H16.7249C16.8081 13.5352 16.8879 13.5682 16.9467 13.6271C17.0055 13.6859 17.0386 13.7657 17.0386 13.8489V15.1177H18.3074C18.3906 15.1177 18.4704 15.1508 18.5292 15.2096C18.5881 15.2684 18.6212 15.3482 18.6212 15.4314V16.8821C18.6212 16.9653 18.5881 17.0451 18.5292 17.1039C18.4704 17.1628 18.3906 17.1958 18.3074 17.1958C17.8461 17.1958 17.0386 17.1958 17.0386 17.1958V18.4647C17.0386 18.5479 17.0055 18.6277 16.9467 18.6865C16.8879 18.7453 16.8081 18.7784 16.7249 18.7784C16.3329 18.7784 15.6662 18.7784 15.2742 18.7784C15.191 18.7784 15.1112 18.7453 15.0524 18.6865C14.9936 18.6277 14.9605 18.5479 14.9605 18.4647C14.9605 18.0033 14.9605 17.1958 14.9605 17.1958Z" fill="#F7B319"/>
<path fill-rule="evenodd" clip-rule="evenodd" d="M2.5438 8.08702C1.38365 7.87946 0.501953 6.86424 0.501953 5.64479C0.501953 4.27544 1.61367 3.16366 2.98302 3.16366C4.35237 3.16366 5.46415 4.27544 5.46415 5.64479C5.46415 6.86424 4.58239 7.87946 3.42224 8.08702V12.1698H7.24743V8.00037C7.24743 7.58456 7.58456 7.24743 8.00037 7.24743H12.1698V5.41113C11.0458 5.17483 10.2008 4.17687 10.2008 2.98302C10.2008 1.61367 11.3126 0.501953 12.682 0.501953C14.0513 0.501953 15.163 1.61367 15.163 2.98302C15.163 4.22795 14.2442 5.25998 13.0482 5.43723V7.24743H18.9518V2.98302C18.9518 2.74064 19.1485 2.5438 19.391 2.5438H23.913C24.1205 1.38365 25.1357 0.501953 26.3552 0.501953C27.7245 0.501953 28.8363 1.61367 28.8363 2.98302C28.8363 4.35237 27.7245 5.46415 26.3552 5.46415C25.1357 5.46415 24.1205 4.58239 23.913 3.42224H19.8302V7.24743H23.9996C24.4154 7.24743 24.7526 7.58456 24.7526 8.00037V12.1698H26.5553C26.7087 10.9473 27.7531 10.0003 29.017 10.0003C30.3863 10.0003 31.498 11.112 31.498 12.4814C31.498 13.8508 30.3863 14.9625 29.017 14.9625C27.8426 14.9625 26.8577 14.1448 26.601 13.0482H24.7526V18.9518H29.017C29.2594 18.9518 29.4562 19.1485 29.4562 19.391V23.7124C30.6163 23.92 31.498 24.9352 31.498 26.1547C31.498 27.524 30.3863 28.6358 29.017 28.6358C27.6476 28.6358 26.5358 27.524 26.5358 26.1547C26.5358 24.9352 27.4176 23.92 28.5778 23.7124V19.8302H24.7526V23.9996C24.7526 24.4154 24.4154 24.7526 23.9996 24.7526H19.8302V26.5553C21.0527 26.7087 21.9997 27.7531 21.9997 29.017C21.9997 30.3863 20.888 31.498 19.5186 31.498C18.1492 31.498 17.0375 30.3863 17.0375 29.017C17.0375 27.8426 17.8552 26.8577 18.9518 26.601V24.7526H13.0482V29.017C13.0482 29.2594 12.8514 29.4562 12.609 29.4562H8.28755C8.07999 30.6163 7.06478 31.498 5.84533 31.498C4.47598 31.498 3.3642 30.3863 3.3642 29.017C3.3642 27.6476 4.47598 26.5358 5.84533 26.5358C7.06478 26.5358 8.07999 27.4176 8.28755 28.5778H12.1698V24.7526H8.00037C7.58456 24.7526 7.24743 24.4154 7.24743 23.9996V19.8302H5.41113C5.17483 20.9542 4.17687 21.7991 2.98302 21.7991C1.61367 21.7991 0.501953 20.6874 0.501953 19.318C0.501953 17.9487 1.61367 16.837 2.98302 16.837C4.22795 16.837 5.25998 17.7558 5.43723 18.9518H7.24743V13.0482H2.98302C2.74064 13.0482 2.5438 12.8514 2.5438 12.609V8.08702ZM2.98302 7.24743C3.8676 7.24743 4.58572 6.52931 4.58572 5.64479C4.58572 4.76021 3.8676 4.04209 2.98302 4.04209C2.0985 4.04209 1.38038 4.76021 1.38038 5.64479C1.38038 6.52931 2.0985 7.24743 2.98302 7.24743ZM23.8741 8.12586H8.12586V23.8741H23.8741V8.12586ZM7.44796 29.017C7.44796 28.1324 6.72984 27.4143 5.84533 27.4143C4.96081 27.4143 4.24263 28.1324 4.24263 29.017C4.24263 29.9015 4.96081 30.6196 5.84533 30.6196C6.72984 30.6196 7.44796 29.9015 7.44796 29.017ZM21.1212 29.017C21.1212 28.1324 20.4031 27.4143 19.5186 27.4143C18.634 27.4143 17.9159 28.1324 17.9159 29.017C17.9159 29.9015 18.634 30.6196 19.5186 30.6196C20.4031 30.6196 21.1212 29.9015 21.1212 29.017ZM16.0004 11.5097C16.8144 10.2919 17.7306 9.68878 19.3257 9.68878C21.417 9.68878 23.0902 11.23 23.0902 13.0958C23.0902 14.3359 22.5622 15.5814 21.6895 16.8214C20.4506 18.5816 18.5111 20.345 16.5399 22.1045C16.2309 22.3809 15.7691 22.3809 15.4604 22.1048C13.4889 20.345 11.5494 18.5816 10.3105 16.8214C9.4378 15.5814 8.9098 14.3359 8.9098 13.0958C8.9098 11.23 10.583 9.68878 12.6743 9.68878C14.2694 9.68878 15.1855 10.2919 16.0004 11.5097ZM16 21.4089C17.9024 19.7104 19.7754 18.0147 20.9711 16.3159C21.7277 15.2408 22.2118 14.171 22.2118 13.0958C22.2118 11.6858 20.9062 10.5672 19.3257 10.5672C18.0454 10.5672 17.3296 11.0744 16.6798 12.075L16.6793 12.0757C16.5251 12.3123 16.2815 12.4439 16.0004 12.4439C15.7168 12.4439 15.4731 12.311 15.3211 12.0752C14.6705 11.0745 13.9547 10.5672 12.6743 10.5672C11.0938 10.5672 9.78823 11.6858 9.78823 13.0958C9.78823 14.171 10.2722 15.2408 11.0289 16.3159C12.2246 18.0147 14.0976 19.7104 16 21.4089ZM14.5217 17.6347H13.3784C13.1358 17.6347 12.9392 17.438 12.9392 17.1955V15.1174C12.9392 14.8748 13.1358 14.6781 13.3784 14.6781H14.5217V13.5348C14.5217 13.2922 14.7184 13.0956 14.9609 13.0956H17.0391C17.2816 13.0956 17.4783 13.2922 17.4783 13.5348V14.6781H18.6216C18.8642 14.6781 19.0608 14.8748 19.0608 15.1174V17.1955C19.0608 17.438 18.8642 17.6347 18.6216 17.6347H17.4783V18.778C17.4783 19.0206 17.2816 19.2172 17.0391 19.2172H14.9609C14.7184 19.2172 14.5217 19.0206 14.5217 18.778V17.6347ZM15.4002 17.1955V18.3388H16.5998V17.1955C16.5998 16.9529 16.7965 16.7563 17.0391 16.7563H18.1824V15.5566H17.0391C16.7965 15.5566 16.5998 15.3599 16.5998 15.1174V13.974H15.4002V15.1174C15.4002 15.3599 15.2035 15.5566 14.9609 15.5566H13.8176V16.7563H14.9609C15.2035 16.7563 15.4002 16.9529 15.4002 17.1955ZM29.017 10.8787C28.1324 10.8787 27.4143 11.5969 27.4143 12.4814C27.4143 13.366 28.1324 14.0841 29.017 14.0841C29.9015 14.0841 30.6196 13.366 30.6196 12.4814C30.6196 11.5969 29.9015 10.8787 29.017 10.8787ZM2.98302 17.7154C2.0985 17.7154 1.38038 18.4335 1.38038 19.318C1.38038 20.2026 2.0985 20.9207 2.98302 20.9207C3.8676 20.9207 4.58572 20.2026 4.58572 19.318C4.58572 18.4335 3.8676 17.7154 2.98302 17.7154ZM29.017 24.552C28.1324 24.552 27.4143 25.2701 27.4143 26.1547C27.4143 27.0392 28.1324 27.7574 29.017 27.7574C29.9015 27.7574 30.6196 27.0392 30.6196 26.1547C30.6196 25.2701 29.9015 24.552 29.017 24.552ZM11.0793 2.98302C11.0793 3.8676 11.7974 4.58572 12.682 4.58572C13.5665 4.58572 14.2846 3.8676 14.2846 2.98302C14.2846 2.0985 13.5665 1.38038 12.682 1.38038C11.7974 1.38038 11.0793 2.0985 11.0793 2.98302ZM24.7526 2.98302C24.7526 3.8676 25.4707 4.58572 26.3552 4.58572C27.2398 4.58572 27.9579 3.8676 27.9579 2.98302C27.9579 2.0985 27.2398 1.38038 26.3552 1.38038C25.4707 1.38038 24.7526 2.0985 24.7526 2.98302Z" fill="#242222"/>
</g>
<defs>
<clipPath id="clip0_6292_683">
<rect width="32" height="32" fill="white"/>
</clipPath>
</defs>
</svg>
