<svg width="32" height="32" viewBox="0 0 32 32" fill="none" xmlns="http://www.w3.org/2000/svg">
<path fill-rule="evenodd" clip-rule="evenodd" d="M4.54683 1H16.4478C17.9527 1 19.1801 2.22744 19.1801 3.73237V28.2676C19.1801 29.7726 17.9527 31 16.4478 31H4.54683C3.04189 31 1.81445 29.7726 1.81445 28.2676V3.73237C1.81445 2.22744 3.04189 1 4.54683 1Z" fill="#7A8C98"/>
<path fill-rule="evenodd" clip-rule="evenodd" d="M4.54683 1.875C3.52489 1.875 2.68945 2.71044 2.68945 3.73237V28.2676C2.68945 29.2896 3.52489 30.125 4.54683 30.125H16.4478C17.4697 30.125 18.3051 29.2896 18.3051 28.2676V3.73237C18.3051 2.71044 17.4697 1.875 16.4478 1.875H4.54683Z" fill="#FFEDC4"/>
<path fill-rule="evenodd" clip-rule="evenodd" d="M19.1799 4.99414C19.5664 4.99414 19.9483 5.01427 20.3245 5.05333C20.8976 5.11289 21.338 5.55808 21.3914 6.13183L21.5393 7.72258C21.6199 8.5902 22.6384 9.00733 23.3045 8.44545L24.5251 7.41583C24.9655 7.04433 25.5916 7.03583 26.0419 7.39533C26.6628 7.89095 27.229 8.45252 27.7296 9.0692C28.0929 9.51658 28.0895 10.1428 27.7215 10.5863L26.7015 11.8153C26.145 12.4859 26.5702 13.501 27.4385 13.5747L29.0308 13.7098C29.6053 13.7586 30.0541 14.1958 30.118 14.7688C30.163 15.1731 30.1861 15.584 30.1861 16.0003C30.1861 16.3868 30.166 16.7686 30.127 17.1448C30.0674 17.718 29.6222 18.1584 29.0485 18.2118L27.4577 18.3596C26.5901 18.4403 26.173 19.4588 26.7348 20.1248L27.7645 21.3455C28.136 21.7859 28.1445 22.412 27.785 22.8623C27.2893 23.4832 26.7278 24.0493 26.1111 24.55C25.6637 24.9133 25.0375 24.9099 24.594 24.5418L23.365 23.5218C22.6944 22.9654 21.6793 23.3906 21.6056 24.2588L21.4705 25.8512C21.4217 26.4256 20.9845 26.8745 20.4115 26.9383C20.0072 26.9834 19.5963 27.0065 19.18 27.0065C18.7935 27.0065 18.4116 26.9864 18.0355 26.9473C17.4623 26.8878 17.0219 26.4426 16.9686 25.8688L16.8207 24.2781C16.7401 23.4105 15.7216 22.9933 15.0555 23.5552L13.8349 24.5848C13.3945 24.9563 12.7684 24.9648 12.3181 24.6053C11.6971 24.1097 11.131 23.5481 10.6303 22.9315C10.2671 22.4841 10.2705 21.8578 10.6385 21.4143L11.6585 20.1853C12.215 19.5148 11.7898 18.4997 10.9215 18.426L9.32914 18.2908C8.7547 18.2421 8.30583 17.8049 8.24201 17.2319C8.19695 16.8276 8.17383 16.4167 8.17383 16.0004C8.17383 15.6139 8.19395 15.232 8.23302 14.8558C8.29258 14.2827 8.73776 13.8423 9.31151 13.7889L10.9023 13.641C11.7699 13.5604 12.187 12.5419 11.6251 11.8758L10.5955 10.6552C10.224 10.2148 10.2155 9.5887 10.575 9.13839C11.0706 8.51745 11.6322 7.95133 12.2489 7.45064C12.6963 7.08739 13.3226 7.09077 13.766 7.45883L14.995 8.47883C15.6656 9.03527 16.6806 8.61008 16.7544 7.74183L16.8895 6.14945C16.9383 5.57502 17.3755 5.12614 17.9485 5.06233C18.3526 5.01733 18.7636 4.99414 19.1799 4.99414Z" fill="#F7B319"/>
<path d="M23.8893 17.4823C24.7052 14.8792 23.2563 12.1076 20.6532 11.2917C18.0501 10.4759 15.2785 11.9247 14.4626 14.5279C13.6467 17.131 15.0956 19.9026 17.6987 20.7185C20.3018 21.5343 23.0734 20.0855 23.8893 17.4823Z" fill="#F9F3F1"/>
<path fill-rule="evenodd" clip-rule="evenodd" d="M17.4629 14.4531C17.3164 14.3062 17.079 14.3062 16.9326 14.4531L15.6506 15.7349C15.5041 15.8812 15.5041 16.1187 15.6506 16.2649L16.9326 17.5468C17.0058 17.6206 17.1018 17.6568 17.1977 17.6568C17.2936 17.6568 17.3897 17.6205 17.4629 17.5468C17.6093 17.4005 17.6093 17.163 17.4629 17.0168L16.4461 15.9999L17.4629 14.9831C17.6093 14.8368 17.6093 14.5992 17.4629 14.4531ZM20.1373 12.4274C19.9373 12.3743 19.7316 12.4924 19.6781 12.6924L17.9576 19.113C17.9041 19.3131 18.0229 19.5186 18.223 19.5724C18.2553 19.5812 18.2881 19.5849 18.3202 19.5849C18.4857 19.5849 18.6373 19.4749 18.6821 19.3074L20.4025 12.8868C20.4561 12.6868 20.3374 12.4811 20.1373 12.4274ZM20.8973 14.4531C20.7508 14.5992 20.7508 14.8368 20.8973 14.9831L21.914 16L20.8973 17.0169C20.7508 17.1631 20.7508 17.4006 20.8973 17.5469C20.9705 17.6206 21.0665 17.6569 21.1625 17.6569C21.2585 17.6569 21.3545 17.6206 21.4276 17.5469L22.7096 16.2649C22.856 16.1188 22.856 15.8813 22.7096 15.7349L21.4276 14.4531C21.2812 14.3062 21.0437 14.3062 20.8973 14.4531ZM23.7458 15.9999C23.7458 18.5174 21.6976 20.5656 19.1801 20.5656C16.6626 20.5656 14.6144 18.5174 14.6144 15.9999C14.6144 13.4825 16.6626 11.4343 19.1801 11.4343C21.6976 11.4343 23.7458 13.4825 23.7458 15.9999ZM24.4956 15.9999C24.4956 18.9312 22.1111 21.3155 19.1801 21.3155C16.249 21.3155 13.8645 18.9312 13.8645 15.9999C13.8645 13.0687 16.249 10.6844 19.1801 10.6844C22.1111 10.6844 24.4956 13.0687 24.4956 15.9999ZM29.8113 15.9999C29.8113 16.3687 29.7921 16.7406 29.7541 17.1056C29.7131 17.4999 29.4087 17.8012 29.0138 17.8381L27.4231 17.9856C26.8822 18.0362 26.4186 18.3787 26.2132 18.8806C26.008 19.3819 26.098 19.9512 26.4482 20.3662L27.4779 21.5869C27.7335 21.89 27.7393 22.3181 27.4919 22.6281C27.0138 23.2269 26.4698 23.7756 25.8747 24.2587C25.5668 24.5088 25.1385 24.5062 24.8335 24.2531L23.6044 23.2331C23.1863 22.8862 22.6163 22.8006 22.1165 23.0099C21.6168 23.2193 21.2779 23.6856 21.232 24.2269L21.0968 25.8194C21.0633 26.2144 20.7645 26.5212 20.3701 26.5657C19.6131 26.6494 18.8338 26.6532 18.0743 26.5738C17.6799 26.5331 17.3788 26.2288 17.342 25.8337L17.1941 24.2431C17.1438 23.702 16.8011 23.2388 16.2999 23.0332C16.1218 22.9601 15.9353 22.9244 15.75 22.9244C15.4135 22.9244 15.0816 23.0425 14.8138 23.2682L13.5931 24.2976C13.2901 24.5537 12.8619 24.5594 12.5521 24.3119C11.9531 23.8338 11.4045 23.2894 10.9216 22.6944C10.6715 22.387 10.6738 21.9588 10.9272 21.6538L11.9472 20.4245C12.2941 20.0063 12.3796 19.4364 12.1703 18.9363C11.9609 18.4369 11.4946 18.0982 10.9533 18.052L9.36095 17.9169C8.96552 17.8832 8.65864 17.5844 8.61477 17.1901C8.57102 16.7976 8.54883 16.3976 8.54883 16.0001C8.54883 15.6314 8.56814 15.2595 8.60602 14.8945C8.64702 14.5001 8.95133 14.1989 9.34633 14.162L10.9371 14.0145C11.478 13.9639 11.9415 13.6214 12.1469 13.1201C12.3522 12.6182 12.2622 12.0489 11.9119 11.6338L10.8823 10.4132C10.6266 10.1101 10.6208 9.68194 10.8681 9.372C11.3465 8.77319 11.8905 8.22444 12.4853 7.74125C12.7932 7.49131 13.2215 7.49375 13.5266 7.74687L14.7556 8.76694C15.1736 9.11375 15.7438 9.19944 16.2435 8.99012C16.7431 8.78062 17.0822 8.31444 17.1281 7.77319L17.2632 6.18069C17.2969 5.78562 17.5956 5.47875 17.9901 5.435C18.7469 5.35069 19.5264 5.34694 20.2858 5.42625C20.6803 5.46694 20.9814 5.77125 21.0181 6.16631L21.166 7.75681C21.2163 8.29813 21.559 8.76131 22.0604 8.96688C22.5617 9.17256 23.1311 9.08181 23.5463 8.73188L24.767 7.7025C25.0701 7.44625 25.4982 7.44069 25.8081 7.68819C26.4071 8.16625 26.9558 8.71069 27.4387 9.30569C27.6888 9.61313 27.6863 10.0413 27.4331 10.3469L26.4131 11.5757C26.0661 11.9939 25.9806 12.5639 26.19 13.0638C26.3993 13.5633 26.8656 13.9019 27.4068 13.9482L28.9993 14.0832C29.3948 14.1169 29.7015 14.4157 29.7455 14.8101C29.7891 15.2025 29.8113 15.6031 29.8113 15.9999ZM18.8051 28.2674C18.8051 29.5675 17.7476 30.625 16.4477 30.625H4.54689C3.24695 30.625 2.18939 29.5675 2.18939 28.2674V3.73237C2.18939 2.43244 3.24689 1.37475 4.54689 1.37475H16.4478C17.7476 1.37475 18.8051 2.43244 18.8051 3.73237V4.6255C18.5041 4.63494 18.204 4.65619 17.9071 4.68925C17.1523 4.773 16.5802 5.3605 16.516 6.11737L16.3809 7.70988C16.3583 7.9755 16.1986 8.19556 15.9538 8.298C15.709 8.40056 15.4401 8.36044 15.2347 8.18994L14.0057 7.16988C13.4216 6.68488 12.602 6.6805 12.0126 7.15931C11.3761 7.67613 10.7939 8.263 10.2821 8.90431C9.80864 9.49737 9.81964 10.3168 10.309 10.8968L11.3387 12.1174C11.5108 12.3212 11.5535 12.5899 11.4529 12.8356C11.3523 13.0812 11.1335 13.2425 10.8676 13.2676L9.27689 13.4151C8.5212 13.4857 7.93845 14.0619 7.86014 14.8169C7.81945 15.2075 7.79895 15.6057 7.79895 16.0001C7.79895 16.425 7.82277 16.8531 7.86945 17.2731C7.95352 18.0281 8.54077 18.6001 9.29758 18.6644L10.89 18.7994C11.156 18.8218 11.3759 18.9813 11.4784 19.2263C11.5811 19.4713 11.5405 19.7401 11.37 19.9456L10.35 21.1744C9.8652 21.7588 9.86077 22.5782 10.3393 23.1676C10.8561 23.8044 11.4433 24.3863 12.0842 24.8982C12.6774 25.3713 13.4967 25.3607 14.0767 24.8713L15.2975 23.8412C15.5014 23.6694 15.7699 23.6269 16.0157 23.7276C16.2612 23.8281 16.4227 24.0469 16.4474 24.3124L16.5952 25.9031C16.6655 26.6588 17.2419 27.2412 17.9968 27.3199C18.2641 27.3475 18.5347 27.3657 18.8051 27.3744V28.2674ZM30.5615 15.9999C30.5615 16.3943 30.5406 16.7924 30.5 17.1831C30.4218 17.9381 29.8391 18.5143 29.0833 18.5849L27.4925 18.7324C27.2266 18.7574 27.008 18.9187 26.9074 19.1643C26.8066 19.4099 26.8495 19.6787 27.0216 19.8824L28.0512 21.1031C28.5406 21.683 28.5516 22.5031 28.0781 23.0956C27.5666 23.7367 26.9843 24.3236 26.3476 24.8406C25.7583 25.3194 24.9388 25.3149 24.3546 24.8299L23.1256 23.8099C22.9202 23.6392 22.6515 23.5993 22.4066 23.7019C22.1616 23.8043 22.002 24.0243 21.9795 24.2899L21.8442 25.8825C21.78 26.6394 21.2081 27.2268 20.4531 27.3106C20.1565 27.3437 19.8557 27.3644 19.5551 27.3744V28.2674C19.5551 29.9812 18.1611 31.3749 16.4477 31.3749H4.54689C2.83345 31.3749 1.43945 29.9811 1.43945 28.2674V3.73237C1.43945 2.01869 2.83345 0.625 4.54689 0.625H16.4478C18.1612 0.625 19.5552 2.01869 19.5552 3.73237V4.62612C19.8258 4.635 20.0958 4.65244 20.3634 4.67987C21.1184 4.75869 21.6947 5.34119 21.765 6.09688L21.913 7.68744C21.9375 7.95306 22.099 8.17244 22.3446 8.2725C22.5903 8.37306 22.8588 8.33056 23.0629 8.15875L24.2835 7.12869C24.8636 6.63931 25.6829 6.62875 26.2761 7.10181C26.9171 7.61369 27.5043 8.19625 28.021 8.83244C28.4993 9.42181 28.4949 10.2411 28.0101 10.8256L26.9901 12.0544C26.8197 12.26 26.7791 12.5287 26.8818 12.7737C26.9843 13.0188 27.2043 13.1781 27.4703 13.2006L29.0627 13.3356C29.8196 13.3999 30.4068 13.9719 30.4909 14.7268C30.5376 15.1469 30.5615 15.5749 30.5615 15.9999ZM12.386 28.6825C12.386 28.4749 12.2181 28.3075 12.011 28.3075H9.42102C9.21395 28.3075 9.04608 28.4749 9.04608 28.6825C9.04608 28.8893 9.21395 29.0574 9.42102 29.0574H12.011C12.218 29.0574 12.386 28.8893 12.386 28.6825Z" fill="#242222"/>
</svg>
