<svg width="32" height="27" viewBox="0 0 32 27" fill="none" xmlns="http://www.w3.org/2000/svg">
<path d="M22.5 19H20.5C19.9485 19 19.5 18.5515 19.5 18V17H18.5C17.9485 17 17.5 16.5515 17.5 16V14C17.5 13.4485 17.9485 13 18.5 13H19.5V12C19.5 11.4485 19.9485 11 20.5 11H22.5C23.0515 11 23.5 11.4485 23.5 12V13H24.5C25.0515 13 25.5 13.4485 25.5 14V16C25.5 16.5515 25.0515 17 24.5 17H23.5V18C23.5 18.5515 23.0515 19 22.5 19Z" fill="#FFB300"/>
<path d="M19.5 24H23.5V25H19.5V24Z" fill="#242222"/>
<path d="M30 15H28.5V6C28.5 4.897 27.603 4 26.5 4H16.5C16.4785 4 16.4585 4.0055 16.437 4.0065C16.0815 1.7405 14.1215 0 11.7575 0C10.5355 0 9.3845 0.459 8.5 1.2955C7.6155 0.459 6.4645 0 5.2425 0C2.6275 0 0.5 2.1275 0.5 4.7425C0.5 7.5725 1.889 10.2235 4.216 11.8345L6.393 13.342C7.015 13.7725 7.7435 14 8.5 14C9.2565 14 9.985 13.7725 10.607 13.342L12.784 11.8345C13.4285 11.3885 14 10.847 14.5 10.246V14.0895C14.2465 14.0325 13.9875 14 13.726 14C13.174 14 12.6215 14.1305 12.127 14.3775L8.954 15.964L3.5 14.328V24.172L8.97 22.531L9.546 22.778C11.126 23.455 12.7905 23.851 14.5 23.9635V25C14.5 26.103 15.397 27 16.5 27H26.5C27.603 27 28.5 26.103 28.5 25V23.908C29.0805 23.701 29.5 23.151 29.5 22.5C29.5 22.1145 29.3495 21.766 29.11 21.5C29.35 21.234 29.5 20.8855 29.5 20.5C29.5 20.1145 29.3495 19.766 29.11 19.5C29.35 19.234 29.5 18.8855 29.5 18.5C29.5 18.324 29.464 18.157 29.408 18H30C30.827 18 31.5 17.327 31.5 16.5C31.5 15.673 30.827 15 30 15ZM19.5 5H22.5V6H19.5V5ZM18.5 5V6C18.5 6.5515 18.9485 7 19.5 7H22.5C23.0515 7 23.5 6.5515 23.5 6V5H26.5C27.0515 5 27.5 5.4485 27.5 6V8H15.5V6C15.5 5.4485 15.9485 5 16.5 5H18.5ZM12.215 11.012L10.038 12.5195C9.13 13.148 7.871 13.148 6.963 12.5195L4.785 11.012C2.728 9.588 1.5 7.2445 1.5 4.7425C1.5 2.679 3.1785 1 5.2425 1C6.242 1 7.182 1.3895 7.889 2.096L8.5 2.707L9.111 2.096C9.818 1.3895 10.758 1 11.7575 1C13.6695 1 15.248 2.4415 15.4705 4.294C14.8915 4.645 14.5 5.275 14.5 6V7H11.8775L10.57 2.425L8.006 9.0915L7.09 6.6485C6.944 6.2605 6.568 6 6.1535 6H5.408C5.201 5.4195 4.651 5 4 5C3.173 5 2.5 5.673 2.5 6.5C2.5 7.327 3.173 8 4 8C4.651 8 5.201 7.5805 5.408 7H6.1535L7.9945 11.908L10.43 5.575L10.9155 7.274C11.037 7.7015 11.4325 8 11.877 8H14.5V8.4945C13.936 9.4895 13.1565 10.3605 12.215 11.012ZM4.5 6.5C4.5 6.7755 4.276 7 4 7C3.724 7 3.5 6.7755 3.5 6.5C3.5 6.2245 3.724 6 4 6C4.276 6 4.5 6.2245 4.5 6.5ZM15.5 9H27.5V17H27C26.173 17 25.5 17.673 25.5 18.5C25.5 18.8855 25.6505 19.234 25.89 19.5C25.65 19.766 25.5 20.1145 25.5 20.5C25.5 20.8855 25.6505 21.234 25.89 21.5C25.7595 21.6445 25.6585 21.813 25.592 22H15.5V19.6595C15.817 19.879 16.192 20 16.586 20C17.641 20 18.5 19.141 18.5 18.086C18.5 17.575 18.301 17.094 17.9395 16.7325L16.2545 15.0475C16.03 14.823 15.774 14.6335 15.5 14.477V9ZM28.5 20.5C28.5 20.776 28.276 21 28 21H27C26.724 21 26.5 20.776 26.5 20.5C26.5 20.224 26.724 20 27 20H28C28.276 20 28.5 20.224 28.5 20.5ZM4.5 15.672L8.5 16.872V21.628L4.5 22.828V15.672ZM9.9395 21.859L9.5 21.6705V16.809L12.574 15.272C13.5375 14.791 14.787 14.994 15.547 15.7545L17.232 17.4395C17.4025 17.6095 17.5 17.845 17.5 18.086C17.5 18.59 17.09 19 16.586 19C16.3455 19 16.1095 18.9025 15.9395 18.7325L14.6465 17.4395C14.3635 17.1565 13.9865 17 13.586 17H12.5V18H13.586C13.7175 18 13.8465 18.053 13.9395 18.1465L14.5 18.707V22.9625C12.927 22.851 11.395 22.4825 9.9395 21.859ZM26.5 26H16.5C15.9485 26 15.5 25.5515 15.5 25V23H25.592C25.799 23.5805 26.349 24 27 24H27.5V25C27.5 25.5515 27.0515 26 26.5 26ZM28 23H27C26.724 23 26.5 22.776 26.5 22.5C26.5 22.224 26.724 22 27 22H28C28.276 22 28.5 22.224 28.5 22.5C28.5 22.776 28.276 23 28 23ZM28.5 18.5C28.5 18.776 28.276 19 28 19H27C26.724 19 26.5 18.776 26.5 18.5C26.5 18.224 26.724 18 27 18H28C28.276 18 28.5 18.224 28.5 18.5ZM30 17H28.5V16H30C30.276 16 30.5 16.224 30.5 16.5C30.5 16.776 30.276 17 30 17Z" fill="#242222"/>
</svg>
