<svg width="32" height="32" viewBox="0 0 32 32" fill="none" xmlns="http://www.w3.org/2000/svg">
<path d="M11.5 7L9 4.5L4.55782 8.94218L4.5 9.5L7 11.5L6.5 13H6H3V19L6.5 19.5L7 20.5L4.5 23L9 27.5L11.5 25L13 26V29.5H19V25.5L20.5 25L23 27.5L27.5 23L25 20.5L25.5 19H29V13H25.5L25 11.5L27.5 9L24 5.5L23 4.5L20.5 7L19.5 6.5L19 3H13L12.5 6.5L11.5 7Z" fill="#FFEDC4"/>
<path d="M29.25 12.325H25.935C25.835 12.055 25.735 11.805 25.63 11.575L27.975 9.23C28.17 9.035 28.17 8.72 27.975 8.525L23.48 4.03C23.285 3.835 22.97 3.835 22.775 4.03L20.43 6.375C20.185 6.26 19.935 6.16 19.68 6.065V2.75C19.68 2.475 19.455 2.25 19.18 2.25H12.825C12.55 2.25 12.325 2.475 12.325 2.75V6.065C12.055 6.165 11.805 6.265 11.575 6.37L9.23 4.025C9.035 3.83 8.72 3.83 8.525 4.025L4.03 8.52C3.835 8.715 3.835 9.03 4.03 9.225L6.375 11.57C6.27 11.8 6.165 12.05 6.07 12.32H2.75C2.475 12.32 2.25 12.545 2.25 12.82V19.175C2.25 19.45 2.475 19.675 2.75 19.675H6.065C6.165 19.945 6.265 20.195 6.37 20.425L4.025 22.77C3.83 22.965 3.83 23.28 4.025 23.475L8.52 27.97C8.715 28.165 9.03 28.165 9.225 27.97L11.575 25.62C11.825 25.735 12.075 25.835 12.32 25.93V29.25C12.32 29.525 12.545 29.75 12.82 29.75H19.175C19.45 29.75 19.675 29.525 19.675 29.25V25.935C19.945 25.835 20.195 25.735 20.425 25.63L22.77 27.975C22.965 28.17 23.28 28.17 23.475 27.975L27.97 23.48C28.165 23.285 28.165 22.97 27.97 22.775L25.625 20.43C25.735 20.19 25.835 19.94 25.93 19.68H29.245C29.52 19.68 29.745 19.455 29.745 19.18V12.825C29.75 12.545 29.525 12.325 29.25 12.325ZM28.75 18.675H25.58C25.365 18.675 25.17 18.815 25.105 19.02C24.95 19.495 24.78 19.91 24.58 20.3C24.48 20.495 24.515 20.73 24.67 20.88L26.915 23.125L23.13 26.91L20.885 24.665C20.73 24.51 20.495 24.475 20.305 24.575C19.94 24.765 19.52 24.935 19.025 25.1C18.82 25.17 18.685 25.36 18.685 25.575V28.745H13.325V25.575C13.325 25.36 13.185 25.17 12.985 25.1C12.565 24.96 12.13 24.78 11.695 24.57C11.505 24.475 11.275 24.515 11.125 24.665L8.88 26.91L5.095 23.125L7.34 20.88C7.495 20.725 7.53 20.49 7.43 20.3C7.24 19.935 7.07 19.515 6.905 19.02C6.835 18.815 6.645 18.68 6.43 18.68H3.25V13.325H6.42C6.635 13.325 6.825 13.185 6.895 12.985C7.06 12.49 7.23 12.07 7.42 11.705C7.52 11.51 7.485 11.275 7.33 11.125L5.085 8.88L8.87 5.095L11.115 7.34C11.27 7.495 11.505 7.53 11.695 7.43C12.06 7.24 12.48 7.07 12.975 6.905C13.18 6.835 13.315 6.645 13.315 6.43V3.25H18.67V6.42C18.67 6.635 18.81 6.83 19.015 6.895C19.45 7.035 19.88 7.215 20.3 7.42C20.49 7.515 20.725 7.48 20.875 7.325L23.12 5.08L26.905 8.865L24.66 11.11C24.505 11.265 24.47 11.5 24.57 11.69C24.76 12.055 24.93 12.475 25.095 12.97C25.165 13.175 25.355 13.31 25.57 13.31H28.74V18.675H28.75Z" fill="#242222"/>
<circle cx="16" cy="16" r="8" fill="#F7B319"/>
<path d="M15.9996 7.63965C11.3896 7.63965 7.63965 11.3896 7.63965 15.9996C7.63965 20.6096 11.3896 24.3596 15.9996 24.3596C20.6096 24.3596 24.3596 20.6096 24.3596 15.9996C24.3596 11.3896 20.6096 7.63965 15.9996 7.63965ZM15.9996 23.3596C11.9396 23.3596 8.63965 20.0596 8.63965 15.9996C8.63965 11.9396 11.9396 8.63965 15.9996 8.63965C20.0596 8.63965 23.3596 11.9396 23.3596 15.9996C23.3596 20.0596 20.0596 23.3596 15.9996 23.3596Z" fill="#242222"/>
<path d="M20.5496 15.8346L20.2296 16.7396L19.1196 13.5846C19.0446 13.3796 18.8396 13.2346 18.6296 13.2496C18.4096 13.2596 18.2246 13.4046 18.1646 13.6146L17.1146 17.4296L15.9796 12.3846C15.9296 12.1646 15.7346 12.0046 15.5096 11.9946C15.2896 11.9846 15.0796 12.1346 15.0146 12.3496L13.8196 16.3146L12.7896 14.0346C12.7096 13.8546 12.5296 13.7396 12.3346 13.7396C12.1396 13.7396 11.9596 13.8546 11.8796 14.0346L11.2296 15.4996H9.18457C8.90957 15.4996 8.68457 15.7246 8.68457 15.9996C8.68457 16.2746 8.90957 16.4996 9.18457 16.4996H11.5496C11.7446 16.4996 11.9246 16.3846 12.0046 16.2046L12.3396 15.4646L13.4596 17.9496C13.5446 18.1396 13.7396 18.2546 13.9496 18.2446C14.1596 18.2296 14.3346 18.0896 14.3946 17.8896L15.4246 14.4646L16.5846 19.6046C16.6346 19.8296 16.8296 19.9896 17.0596 19.9946H17.0696C17.2946 19.9946 17.4896 19.8446 17.5496 19.6296L18.7046 15.4246L19.7546 18.4096C19.8246 18.6096 20.0146 18.7446 20.2246 18.7446C20.4346 18.7446 20.6246 18.6096 20.6946 18.4096L21.3796 16.4996H22.8146C23.0896 16.4996 23.3146 16.2746 23.3146 15.9996C23.3146 15.7246 23.0896 15.4996 22.8146 15.4996H21.0246C20.8096 15.4996 20.6246 15.6346 20.5496 15.8346Z" fill="#242222"/>
</svg>
