<svg width="32" height="32" viewBox="0 0 32 32" fill="none" xmlns="http://www.w3.org/2000/svg">
<path d="M10.4563 5.20527H9.31625V4.06527C9.31625 3.85402 9.14569 3.68277 8.93381 3.68277H7.35131C7.13944 3.68277 6.96881 3.85402 6.96881 4.06527V5.20527H5.82813C5.61688 5.20527 5.44563 5.37652 5.44563 5.58777V7.1709C5.44563 7.38215 5.61688 7.5534 5.82813 7.5534H6.96875V8.6934C6.96875 8.90465 7.13938 9.0759 7.35125 9.0759H8.93375C9.14563 9.0759 9.31619 8.90465 9.31619 8.6934V7.5534H10.4562C10.6681 7.5534 10.8393 7.38215 10.8393 7.1709V5.58777C10.8394 5.37652 10.6681 5.20527 10.4563 5.20527ZM10.0744 6.78777H8.93375C8.72244 6.78777 8.55125 6.95965 8.55125 7.1709V8.3109H7.73375V7.1709C7.73375 6.95965 7.5625 6.78777 7.35125 6.78777H6.21063V5.97027H7.35125C7.5625 5.97027 7.73375 5.79902 7.73375 5.58777V4.44777H8.55125V5.58777C8.55125 5.79902 8.72244 5.97027 8.93375 5.97027H10.0744V6.78777ZM15.1375 23.7034H5.82813C5.61688 23.7034 5.44563 23.8746 5.44563 24.0859C5.44563 24.2971 5.61688 24.4684 5.82813 24.4684H15.1375C15.3488 24.4684 15.52 24.2971 15.52 24.0859C15.52 23.8746 15.3488 23.7034 15.1375 23.7034ZM15.1375 20.4703H5.82813C5.61688 20.4703 5.44563 20.6415 5.44563 20.8528C5.44563 21.064 5.61688 21.2353 5.82813 21.2353H15.1375C15.3488 21.2353 15.52 21.064 15.52 20.8528C15.52 20.6415 15.3488 20.4703 15.1375 20.4703ZM15.25 17.2371H5.82813C5.61688 17.2371 5.44563 17.4084 5.44563 17.6196C5.44563 17.8309 5.61688 18.0028 5.82813 18.0028H15.25C15.4613 18.0028 15.6325 17.8309 15.6325 17.6196C15.6325 17.4084 15.4613 17.2371 15.25 17.2371ZM19.2481 22.2334H17.5831C17.3719 22.2334 17.2006 22.4046 17.2006 22.6159C17.2006 22.8271 17.3719 22.9984 17.5831 22.9984H19.2481C19.4601 22.9984 19.6306 22.8271 19.6306 22.6159C19.6306 22.4046 19.46 22.2334 19.2481 22.2334ZM19.8331 13.9965H5.82813C5.61688 13.9965 5.44563 14.1684 5.44563 14.3796C5.44563 14.5909 5.61688 14.7621 5.82813 14.7621H19.8331C20.0444 14.7621 20.2156 14.5909 20.2156 14.3796C20.2156 14.1684 20.0444 13.9965 19.8331 13.9965ZM19.8331 10.764H8.14625C7.935 10.764 7.76375 10.9353 7.76375 11.1465C7.76375 11.3578 7.935 11.529 8.14625 11.529H19.8331C20.0444 11.529 20.2156 11.3578 20.2156 11.1465C20.2156 10.9353 20.0444 10.764 19.8331 10.764ZM21.6181 24.6634H17.5831C17.3719 24.6634 17.2006 24.8346 17.2006 25.0459C17.2006 25.2578 17.3719 25.429 17.5831 25.429H21.6181C21.8301 25.429 22.0006 25.2578 22.0006 25.0459C22.0006 24.8346 21.83 24.6634 21.6181 24.6634ZM21.6181 23.4484H17.5831C17.3719 23.4484 17.2006 23.6196 17.2006 23.8309C17.2006 24.0421 17.3719 24.2134 17.5831 24.2134H21.6181C21.8301 24.2134 22.0006 24.0421 22.0006 23.8309C22.0006 23.6196 21.83 23.4484 21.6181 23.4484ZM27.7844 22.9009H25.2338C24.9056 22.9009 24.6488 23.1546 24.6488 23.4784V25.1884C24.6488 25.5071 24.9113 25.7665 25.2338 25.7665H27.7844C28.1075 25.7665 28.3694 25.5071 28.3694 25.1884V23.4784C28.3694 23.1546 28.1125 22.9009 27.7844 22.9009ZM25.5044 25.0009H25.4138V23.6659H25.5044V25.0009ZM27.605 25.0009H26.2694V24.7159H27.605V25.0009ZM27.605 23.9509H26.2694V23.6659H27.605V23.9509ZM27.7844 22.9009H25.2338C24.9056 22.9009 24.6488 23.1546 24.6488 23.4784V25.1884C24.6488 25.5071 24.9113 25.7665 25.2338 25.7665H27.7844C28.1075 25.7665 28.3694 25.5071 28.3694 25.1884V23.4784C28.3694 23.1546 28.1125 22.9009 27.7844 22.9009ZM25.5044 25.0009H25.4138V23.6659H25.5044V25.0009ZM27.605 25.0009H26.2694V24.7159H27.605V25.0009ZM27.605 23.9509H26.2694V23.6659H27.605V23.9509ZM21.6181 23.4484H17.5831C17.3719 23.4484 17.2006 23.6196 17.2006 23.8309C17.2006 24.0421 17.3719 24.2134 17.5831 24.2134H21.6181C21.8301 24.2134 22.0006 24.0421 22.0006 23.8309C22.0006 23.6196 21.83 23.4484 21.6181 23.4484ZM21.6181 24.6634H17.5831C17.3719 24.6634 17.2006 24.8346 17.2006 25.0459C17.2006 25.2578 17.3719 25.429 17.5831 25.429H21.6181C21.8301 25.429 22.0006 25.2578 22.0006 25.0459C22.0006 24.8346 21.83 24.6634 21.6181 24.6634ZM19.2481 22.2334H17.5831C17.3719 22.2334 17.2006 22.4046 17.2006 22.6159C17.2006 22.8271 17.3719 22.9984 17.5831 22.9984H19.2481C19.4601 22.9984 19.6306 22.8271 19.6306 22.6159C19.6306 22.4046 19.46 22.2334 19.2481 22.2334ZM19.8331 10.764H8.14625C7.935 10.764 7.76375 10.9353 7.76375 11.1465C7.76375 11.3578 7.935 11.529 8.14625 11.529H19.8331C20.0444 11.529 20.2156 11.3578 20.2156 11.1465C20.2156 10.9353 20.0444 10.764 19.8331 10.764ZM19.8331 13.9965H5.82813C5.61688 13.9965 5.44563 14.1684 5.44563 14.3796C5.44563 14.5909 5.61688 14.7621 5.82813 14.7621H19.8331C20.0444 14.7621 20.2156 14.5909 20.2156 14.3796C20.2156 14.1684 20.0444 13.9965 19.8331 13.9965ZM15.25 17.2371H5.82813C5.61688 17.2371 5.44563 17.4084 5.44563 17.6196C5.44563 17.8309 5.61688 18.0028 5.82813 18.0028H15.25C15.4613 18.0028 15.6325 17.8309 15.6325 17.6196C15.6325 17.4084 15.4613 17.2371 15.25 17.2371ZM15.1375 20.4703H5.82813C5.61688 20.4703 5.44563 20.6415 5.44563 20.8528C5.44563 21.064 5.61688 21.2353 5.82813 21.2353H15.1375C15.3488 21.2353 15.52 21.064 15.52 20.8528C15.52 20.6415 15.3488 20.4703 15.1375 20.4703ZM15.1375 23.7034H5.82813C5.61688 23.7034 5.44563 23.8746 5.44563 24.0859C5.44563 24.2971 5.61688 24.4684 5.82813 24.4684H15.1375C15.3488 24.4684 15.52 24.2971 15.52 24.0859C15.52 23.8746 15.3488 23.7034 15.1375 23.7034ZM10.4563 5.20527H9.31625V4.06527C9.31625 3.85402 9.14569 3.68277 8.93381 3.68277H7.35131C7.13944 3.68277 6.96881 3.85402 6.96881 4.06527V5.20527H5.82813C5.61688 5.20527 5.44563 5.37652 5.44563 5.58777V7.1709C5.44563 7.38215 5.61688 7.5534 5.82813 7.5534H6.96875V8.6934C6.96875 8.90465 7.13938 9.0759 7.35125 9.0759H8.93375C9.14563 9.0759 9.31619 8.90465 9.31619 8.6934V7.5534H10.4562C10.6681 7.5534 10.8393 7.38215 10.8393 7.1709V5.58777C10.8394 5.37652 10.6681 5.20527 10.4563 5.20527ZM10.0744 6.78777H8.93375C8.72244 6.78777 8.55125 6.95965 8.55125 7.1709V8.3109H7.73375V7.1709C7.73375 6.95965 7.5625 6.78777 7.35125 6.78777H6.21063V5.97027H7.35125C7.5625 5.97027 7.73375 5.79902 7.73375 5.58777V4.44777H8.55125V5.58777C8.55125 5.79902 8.72244 5.97027 8.93375 5.97027H10.0744V6.78777ZM10.4563 5.20527H9.31625V4.06527C9.31625 3.85402 9.14569 3.68277 8.93381 3.68277H7.35131C7.13944 3.68277 6.96881 3.85402 6.96881 4.06527V5.20527H5.82813C5.61688 5.20527 5.44563 5.37652 5.44563 5.58777V7.1709C5.44563 7.38215 5.61688 7.5534 5.82813 7.5534H6.96875V8.6934C6.96875 8.90465 7.13938 9.0759 7.35125 9.0759H8.93375C9.14563 9.0759 9.31619 8.90465 9.31619 8.6934V7.5534H10.4562C10.6681 7.5534 10.8393 7.38215 10.8393 7.1709V5.58777C10.8394 5.37652 10.6681 5.20527 10.4563 5.20527ZM10.0744 6.78777H8.93375C8.72244 6.78777 8.55125 6.95965 8.55125 7.1709V8.3109H7.73375V7.1709C7.73375 6.95965 7.5625 6.78777 7.35125 6.78777H6.21063V5.97027H7.35125C7.5625 5.97027 7.73375 5.79902 7.73375 5.58777V4.44777H8.55125V5.58777C8.55125 5.79902 8.72244 5.97027 8.93375 5.97027H10.0744V6.78777ZM15.1375 23.7034H5.82813C5.61688 23.7034 5.44563 23.8746 5.44563 24.0859C5.44563 24.2971 5.61688 24.4684 5.82813 24.4684H15.1375C15.3488 24.4684 15.52 24.2971 15.52 24.0859C15.52 23.8746 15.3488 23.7034 15.1375 23.7034ZM15.1375 20.4703H5.82813C5.61688 20.4703 5.44563 20.6415 5.44563 20.8528C5.44563 21.064 5.61688 21.2353 5.82813 21.2353H15.1375C15.3488 21.2353 15.52 21.064 15.52 20.8528C15.52 20.6415 15.3488 20.4703 15.1375 20.4703ZM15.25 17.2371H5.82813C5.61688 17.2371 5.44563 17.4084 5.44563 17.6196C5.44563 17.8309 5.61688 18.0028 5.82813 18.0028H15.25C15.4613 18.0028 15.6325 17.8309 15.6325 17.6196C15.6325 17.4084 15.4613 17.2371 15.25 17.2371ZM19.2481 22.2334H17.5831C17.3719 22.2334 17.2006 22.4046 17.2006 22.6159C17.2006 22.8271 17.3719 22.9984 17.5831 22.9984H19.2481C19.4601 22.9984 19.6306 22.8271 19.6306 22.6159C19.6306 22.4046 19.46 22.2334 19.2481 22.2334ZM19.8331 13.9965H5.82813C5.61688 13.9965 5.44563 14.1684 5.44563 14.3796C5.44563 14.5909 5.61688 14.7621 5.82813 14.7621H19.8331C20.0444 14.7621 20.2156 14.5909 20.2156 14.3796C20.2156 14.1684 20.0444 13.9965 19.8331 13.9965ZM19.8331 10.764H8.14625C7.935 10.764 7.76375 10.9353 7.76375 11.1465C7.76375 11.3578 7.935 11.529 8.14625 11.529H19.8331C20.0444 11.529 20.2156 11.3578 20.2156 11.1465C20.2156 10.9353 20.0444 10.764 19.8331 10.764ZM21.6181 24.6634H17.5831C17.3719 24.6634 17.2006 24.8346 17.2006 25.0459C17.2006 25.2578 17.3719 25.429 17.5831 25.429H21.6181C21.8301 25.429 22.0006 25.2578 22.0006 25.0459C22.0006 24.8346 21.83 24.6634 21.6181 24.6634ZM21.6181 23.4484H17.5831C17.3719 23.4484 17.2006 23.6196 17.2006 23.8309C17.2006 24.0421 17.3719 24.2134 17.5831 24.2134H21.6181C21.8301 24.2134 22.0006 24.0421 22.0006 23.8309C22.0006 23.6196 21.83 23.4484 21.6181 23.4484ZM27.7844 22.9009H25.2338C24.9056 22.9009 24.6488 23.1546 24.6488 23.4784V25.1884C24.6488 25.5071 24.9113 25.7665 25.2338 25.7665H27.7844C28.1075 25.7665 28.3694 25.5071 28.3694 25.1884V23.4784C28.3694 23.1546 28.1125 22.9009 27.7844 22.9009ZM25.5044 25.0009H25.4138V23.6659H25.5044V25.0009ZM27.605 25.0009H26.2694V24.7159H27.605V25.0009ZM27.605 23.9509H26.2694V23.6659H27.605V23.9509ZM27.7844 22.9009H25.2338C24.9056 22.9009 24.6488 23.1546 24.6488 23.4784V25.1884C24.6488 25.5071 24.9113 25.7665 25.2338 25.7665H27.7844C28.1075 25.7665 28.3694 25.5071 28.3694 25.1884V23.4784C28.3694 23.1546 28.1125 22.9009 27.7844 22.9009ZM25.5044 25.0009H25.4138V23.6659H25.5044V25.0009ZM27.605 25.0009H26.2694V24.7159H27.605V25.0009ZM27.605 23.9509H26.2694V23.6659H27.605V23.9509ZM21.6181 23.4484H17.5831C17.3719 23.4484 17.2006 23.6196 17.2006 23.8309C17.2006 24.0421 17.3719 24.2134 17.5831 24.2134H21.6181C21.8301 24.2134 22.0006 24.0421 22.0006 23.8309C22.0006 23.6196 21.83 23.4484 21.6181 23.4484ZM21.6181 24.6634H17.5831C17.3719 24.6634 17.2006 24.8346 17.2006 25.0459C17.2006 25.2578 17.3719 25.429 17.5831 25.429H21.6181C21.8301 25.429 22.0006 25.2578 22.0006 25.0459C22.0006 24.8346 21.83 24.6634 21.6181 24.6634ZM17.5831 22.9984H19.2481C19.4601 22.9984 19.6306 22.8271 19.6306 22.6159C19.6306 22.4046 19.46 22.2334 19.2481 22.2334H17.5831C17.3719 22.2334 17.2006 22.4046 17.2006 22.6159C17.2006 22.8271 17.3719 22.9984 17.5831 22.9984ZM7.76375 11.1465C7.76375 11.3578 7.935 11.529 8.14625 11.529H19.8331C20.0444 11.529 20.2156 11.3578 20.2156 11.1465C20.2156 10.9353 20.0444 10.764 19.8331 10.764H8.14625C7.935 10.764 7.76375 10.9353 7.76375 11.1465ZM19.8331 13.9965H5.82813C5.61688 13.9965 5.44563 14.1684 5.44563 14.3796C5.44563 14.5909 5.61688 14.7621 5.82813 14.7621H19.8331C20.0444 14.7621 20.2156 14.5909 20.2156 14.3796C20.2156 14.1684 20.0444 13.9965 19.8331 13.9965ZM15.25 17.2371H5.82813C5.61688 17.2371 5.44563 17.4084 5.44563 17.6196C5.44563 17.8309 5.61688 18.0028 5.82813 18.0028H15.25C15.4613 18.0028 15.6325 17.8309 15.6325 17.6196C15.6325 17.4084 15.4613 17.2371 15.25 17.2371ZM15.1375 20.4703H5.82813C5.61688 20.4703 5.44563 20.6415 5.44563 20.8528C5.44563 21.064 5.61688 21.2353 5.82813 21.2353H15.1375C15.3488 21.2353 15.52 21.064 15.52 20.8528C15.52 20.6415 15.3488 20.4703 15.1375 20.4703ZM15.1375 23.7034H5.82813C5.61688 23.7034 5.44563 23.8746 5.44563 24.0859C5.44563 24.2971 5.61688 24.4684 5.82813 24.4684H15.1375C15.3488 24.4684 15.52 24.2971 15.52 24.0859C15.52 23.8746 15.3488 23.7034 15.1375 23.7034ZM5.82813 7.5534H6.96875V8.6934C6.96875 8.90465 7.13938 9.0759 7.35125 9.0759H8.93375C9.14563 9.0759 9.31619 8.90465 9.31619 8.6934V7.5534H10.4562C10.6681 7.5534 10.8393 7.38215 10.8393 7.1709V5.58777C10.8393 5.37652 10.6681 5.20527 10.4562 5.20527H9.31625V4.06527C9.31625 3.85402 9.14569 3.68277 8.93381 3.68277H7.35131C7.13944 3.68277 6.96881 3.85402 6.96881 4.06527V5.20527H5.82813C5.61688 5.20527 5.44563 5.37652 5.44563 5.58777V7.1709C5.44563 7.38215 5.61688 7.5534 5.82813 7.5534ZM6.21063 5.97027H7.35125C7.5625 5.97027 7.73375 5.79902 7.73375 5.58777V4.44777H8.55125V5.58777C8.55125 5.79902 8.72244 5.97027 8.93375 5.97027H10.0744V6.78777H8.93375C8.72244 6.78777 8.55125 6.95965 8.55125 7.1709V8.3109H7.73375V7.1709C7.73375 6.95965 7.5625 6.78777 7.35125 6.78777H6.21063V5.97027ZM29.1275 13.794C30.5044 13.794 31.625 12.6771 31.625 11.304V8.5434C31.625 8.33215 31.4538 8.1609 31.2425 8.1609H27.4019V4.00527C27.4019 2.63215 26.2813 1.51465 24.9038 1.51465H4.91313C3.57313 1.51465 2.48313 2.60527 2.48313 3.94527V27.9865C2.48313 28.9359 1.70813 29.7134 0.755002 29.7196C0.544377 29.7209 0.374377 29.8928 0.375002 30.1034C0.375627 30.314 0.546877 30.4846 0.757502 30.4846H20.7481C22.0888 30.4846 23.1788 29.394 23.1788 28.054V27.0865H28.4369C29.1276 27.0865 29.6901 26.5246 29.6901 25.834V25.8115H29.7051C30.3957 25.8115 30.9576 25.2528 30.9576 24.5659V17.0121C30.9576 16.3215 30.3957 15.7596 29.7051 15.7596H23.1788V13.794H29.1275ZM27.4019 8.9259H30.86V11.304C30.86 12.2553 30.0826 13.029 29.1275 13.029C28.1756 13.029 27.4019 12.2553 27.4019 11.304V8.9259ZM23.1788 4.00527C23.1788 3.05402 23.9525 2.27965 24.9038 2.27965C25.8594 2.27965 26.6369 3.05402 26.6369 4.00527V11.304C26.6369 11.9728 26.9018 12.5815 27.3331 13.029H23.1788V4.00527ZM22.4138 28.054C22.4138 28.9721 21.6669 29.7196 20.7481 29.7196H2.54375C2.97938 29.2696 3.2475 28.6578 3.2475 27.9865V3.94527C3.2475 3.02715 3.995 2.27965 4.91313 2.27965H23.1094C22.6788 2.72777 22.4138 3.3359 22.4138 4.00527V15.7596H18.4156C17.7249 15.7596 17.1624 16.3215 17.1624 17.0121V17.0346H17.1475C16.4568 17.0346 15.895 17.5934 15.895 18.2803V25.834C15.895 26.5246 16.4568 27.0865 17.1475 27.0865H22.4138V28.054ZM28.9244 25.834C28.9244 26.1028 28.7056 26.3215 28.4369 26.3215H17.1475C16.8787 26.3215 16.6599 26.1028 16.6599 25.834V21.0184H28.9243V25.834H28.9244ZM28.9244 20.2528H16.66V20.0203H28.9244V20.2528ZM28.9244 19.2553H16.66V18.2803C16.66 18.0153 16.8788 17.8003 17.1476 17.8003H28.4369C28.7057 17.8003 28.9244 18.0153 28.9244 18.2803L28.9244 19.2553ZM29.705 16.5246C29.9738 16.5246 30.1925 16.7434 30.1925 17.0121V24.5659C30.1925 24.8309 29.9738 25.0459 29.705 25.0459H29.69V18.2803C29.69 17.5934 29.1275 17.0346 28.4369 17.0346H17.9275V17.0121C17.9275 16.7434 18.1469 16.5246 18.4157 16.5246H29.705ZM25.2338 25.7665H27.7844C28.1075 25.7665 28.3694 25.5071 28.3694 25.1884V23.4784C28.3694 23.1546 28.1125 22.9009 27.7844 22.9009H25.2338C24.9056 22.9009 24.6488 23.1546 24.6488 23.4784V25.1884C24.6488 25.5071 24.9113 25.7665 25.2338 25.7665ZM26.2694 23.6659H27.605V23.9509H26.2694V23.6659ZM26.2694 24.7159H27.605V25.0009H26.2694V24.7159ZM25.4138 23.6659H25.5044V25.0009H25.4138V23.6659ZM17.5831 24.2134H21.6181C21.8301 24.2134 22.0006 24.0421 22.0006 23.8309C22.0006 23.6196 21.83 23.4484 21.6181 23.4484H17.5831C17.3719 23.4484 17.2006 23.6196 17.2006 23.8309C17.2006 24.0421 17.3719 24.2134 17.5831 24.2134ZM17.5831 25.429H21.6181C21.8301 25.429 22.0006 25.2578 22.0006 25.0459C22.0006 24.8346 21.83 24.6634 21.6181 24.6634H17.5831C17.3719 24.6634 17.2006 24.8346 17.2006 25.0459C17.2006 25.2578 17.3719 25.429 17.5831 25.429ZM7.76375 11.1465C7.76375 11.3578 7.935 11.529 8.14625 11.529H19.8331C20.0444 11.529 20.2156 11.3578 20.2156 11.1465C20.2156 10.9353 20.0444 10.764 19.8331 10.764H8.14625C7.935 10.764 7.76375 10.9353 7.76375 11.1465ZM5.82813 14.7621H19.8331C20.0444 14.7621 20.2156 14.5909 20.2156 14.3796C20.2156 14.1684 20.0444 13.9965 19.8331 13.9965H5.82813C5.61688 13.9965 5.44563 14.1684 5.44563 14.3796C5.44563 14.5909 5.61688 14.7621 5.82813 14.7621ZM17.5831 22.9984H19.2481C19.4601 22.9984 19.6306 22.8271 19.6306 22.6159C19.6306 22.4046 19.46 22.2334 19.2481 22.2334H17.5831C17.3719 22.2334 17.2006 22.4046 17.2006 22.6159C17.2006 22.8271 17.3719 22.9984 17.5831 22.9984ZM15.25 17.2371H5.82813C5.61688 17.2371 5.44563 17.4084 5.44563 17.6196C5.44563 17.8309 5.61688 18.0028 5.82813 18.0028H15.25C15.4613 18.0028 15.6325 17.8309 15.6325 17.6196C15.6325 17.4084 15.4613 17.2371 15.25 17.2371ZM15.1375 20.4703H5.82813C5.61688 20.4703 5.44563 20.6415 5.44563 20.8528C5.44563 21.064 5.61688 21.2353 5.82813 21.2353H15.1375C15.3488 21.2353 15.52 21.064 15.52 20.8528C15.52 20.6415 15.3488 20.4703 15.1375 20.4703ZM15.1375 23.7034H5.82813C5.61688 23.7034 5.44563 23.8746 5.44563 24.0859C5.44563 24.2971 5.61688 24.4684 5.82813 24.4684H15.1375C15.3488 24.4684 15.52 24.2971 15.52 24.0859C15.52 23.8746 15.3488 23.7034 15.1375 23.7034ZM5.82813 7.5534H6.96875V8.6934C6.96875 8.90465 7.13938 9.0759 7.35125 9.0759H8.93375C9.14563 9.0759 9.31619 8.90465 9.31619 8.6934V7.5534H10.4562C10.6681 7.5534 10.8393 7.38215 10.8393 7.1709V5.58777C10.8393 5.37652 10.6681 5.20527 10.4562 5.20527H9.31625V4.06527C9.31625 3.85402 9.14569 3.68277 8.93381 3.68277H7.35131C7.13944 3.68277 6.96881 3.85402 6.96881 4.06527V5.20527H5.82813C5.61688 5.20527 5.44563 5.37652 5.44563 5.58777V7.1709C5.44563 7.38215 5.61688 7.5534 5.82813 7.5534ZM6.21063 5.97027H7.35125C7.5625 5.97027 7.73375 5.79902 7.73375 5.58777V4.44777H8.55125V5.58777C8.55125 5.79902 8.72244 5.97027 8.93375 5.97027H10.0744V6.78777H8.93375C8.72244 6.78777 8.55125 6.95965 8.55125 7.1709V8.3109H7.73375V7.1709C7.73375 6.95965 7.5625 6.78777 7.35125 6.78777H6.21063V5.97027ZM10.4563 5.20527H9.31625V4.06527C9.31625 3.85402 9.14569 3.68277 8.93381 3.68277H7.35131C7.13944 3.68277 6.96881 3.85402 6.96881 4.06527V5.20527H5.82813C5.61688 5.20527 5.44563 5.37652 5.44563 5.58777V7.1709C5.44563 7.38215 5.61688 7.5534 5.82813 7.5534H6.96875V8.6934C6.96875 8.90465 7.13938 9.0759 7.35125 9.0759H8.93375C9.14563 9.0759 9.31619 8.90465 9.31619 8.6934V7.5534H10.4562C10.6681 7.5534 10.8393 7.38215 10.8393 7.1709V5.58777C10.8394 5.37652 10.6681 5.20527 10.4563 5.20527ZM10.0744 6.78777H8.93375C8.72244 6.78777 8.55125 6.95965 8.55125 7.1709V8.3109H7.73375V7.1709C7.73375 6.95965 7.5625 6.78777 7.35125 6.78777H6.21063V5.97027H7.35125C7.5625 5.97027 7.73375 5.79902 7.73375 5.58777V4.44777H8.55125V5.58777C8.55125 5.79902 8.72244 5.97027 8.93375 5.97027H10.0744V6.78777ZM15.1375 23.7034H5.82813C5.61688 23.7034 5.44563 23.8746 5.44563 24.0859C5.44563 24.2971 5.61688 24.4684 5.82813 24.4684H15.1375C15.3488 24.4684 15.52 24.2971 15.52 24.0859C15.52 23.8746 15.3488 23.7034 15.1375 23.7034ZM15.1375 20.4703H5.82813C5.61688 20.4703 5.44563 20.6415 5.44563 20.8528C5.44563 21.064 5.61688 21.2353 5.82813 21.2353H15.1375C15.3488 21.2353 15.52 21.064 15.52 20.8528C15.52 20.6415 15.3488 20.4703 15.1375 20.4703ZM15.25 17.2371H5.82813C5.61688 17.2371 5.44563 17.4084 5.44563 17.6196C5.44563 17.8309 5.61688 18.0028 5.82813 18.0028H15.25C15.4613 18.0028 15.6325 17.8309 15.6325 17.6196C15.6325 17.4084 15.4613 17.2371 15.25 17.2371ZM19.8331 13.9965H5.82813C5.61688 13.9965 5.44563 14.1684 5.44563 14.3796C5.44563 14.5909 5.61688 14.7621 5.82813 14.7621H19.8331C20.0444 14.7621 20.2156 14.5909 20.2156 14.3796C20.2156 14.1684 20.0444 13.9965 19.8331 13.9965ZM19.8331 10.764H8.14625C7.935 10.764 7.76375 10.9353 7.76375 11.1465C7.76375 11.3578 7.935 11.529 8.14625 11.529H19.8331C20.0444 11.529 20.2156 11.3578 20.2156 11.1465C20.2156 10.9353 20.0444 10.764 19.8331 10.764ZM19.2481 22.2334H17.5831C17.3719 22.2334 17.2006 22.4046 17.2006 22.6159C17.2006 22.8271 17.3719 22.9984 17.5831 22.9984H19.2481C19.4601 22.9984 19.6306 22.8271 19.6306 22.6159C19.6306 22.4046 19.46 22.2334 19.2481 22.2334ZM21.6181 24.6634H17.5831C17.3719 24.6634 17.2006 24.8346 17.2006 25.0459C17.2006 25.2578 17.3719 25.429 17.5831 25.429H21.6181C21.8301 25.429 22.0006 25.2578 22.0006 25.0459C22.0006 24.8346 21.83 24.6634 21.6181 24.6634ZM21.6181 23.4484H17.5831C17.3719 23.4484 17.2006 23.6196 17.2006 23.8309C17.2006 24.0421 17.3719 24.2134 17.5831 24.2134H21.6181C21.8301 24.2134 22.0006 24.0421 22.0006 23.8309C22.0006 23.6196 21.83 23.4484 21.6181 23.4484ZM27.7844 22.9009H25.2338C24.9056 22.9009 24.6488 23.1546 24.6488 23.4784V25.1884C24.6488 25.5071 24.9113 25.7665 25.2338 25.7665H27.7844C28.1075 25.7665 28.3694 25.5071 28.3694 25.1884V23.4784C28.3694 23.1546 28.1125 22.9009 27.7844 22.9009ZM25.5044 25.0009H25.4138V23.6659H25.5044V25.0009ZM27.605 25.0009H26.2694V24.7159H27.605V25.0009ZM27.605 23.9509H26.2694V23.6659H27.605V23.9509ZM27.7844 22.9009H25.2338C24.9056 22.9009 24.6488 23.1546 24.6488 23.4784V25.1884C24.6488 25.5071 24.9113 25.7665 25.2338 25.7665H27.7844C28.1075 25.7665 28.3694 25.5071 28.3694 25.1884V23.4784C28.3694 23.1546 28.1125 22.9009 27.7844 22.9009ZM25.5044 25.0009H25.4138V23.6659H25.5044V25.0009ZM27.605 25.0009H26.2694V24.7159H27.605V25.0009ZM27.605 23.9509H26.2694V23.6659H27.605V23.9509ZM21.6181 23.4484H17.5831C17.3719 23.4484 17.2006 23.6196 17.2006 23.8309C17.2006 24.0421 17.3719 24.2134 17.5831 24.2134H21.6181C21.8301 24.2134 22.0006 24.0421 22.0006 23.8309C22.0006 23.6196 21.83 23.4484 21.6181 23.4484ZM21.6181 24.6634H17.5831C17.3719 24.6634 17.2006 24.8346 17.2006 25.0459C17.2006 25.2578 17.3719 25.429 17.5831 25.429H21.6181C21.8301 25.429 22.0006 25.2578 22.0006 25.0459C22.0006 24.8346 21.83 24.6634 21.6181 24.6634ZM19.8331 10.764H8.14625C7.935 10.764 7.76375 10.9353 7.76375 11.1465C7.76375 11.3578 7.935 11.529 8.14625 11.529H19.8331C20.0444 11.529 20.2156 11.3578 20.2156 11.1465C20.2156 10.9353 20.0444 10.764 19.8331 10.764ZM19.8331 13.9965H5.82813C5.61688 13.9965 5.44563 14.1684 5.44563 14.3796C5.44563 14.5909 5.61688 14.7621 5.82813 14.7621H19.8331C20.0444 14.7621 20.2156 14.5909 20.2156 14.3796C20.2156 14.1684 20.0444 13.9965 19.8331 13.9965ZM19.2481 22.2334H17.5831C17.3719 22.2334 17.2006 22.4046 17.2006 22.6159C17.2006 22.8271 17.3719 22.9984 17.5831 22.9984H19.2481C19.4601 22.9984 19.6306 22.8271 19.6306 22.6159C19.6306 22.4046 19.46 22.2334 19.2481 22.2334ZM15.25 17.2371H5.82813C5.61688 17.2371 5.44563 17.4084 5.44563 17.6196C5.44563 17.8309 5.61688 18.0028 5.82813 18.0028H15.25C15.4613 18.0028 15.6325 17.8309 15.6325 17.6196C15.6325 17.4084 15.4613 17.2371 15.25 17.2371ZM15.1375 20.4703H5.82813C5.61688 20.4703 5.44563 20.6415 5.44563 20.8528C5.44563 21.064 5.61688 21.2353 5.82813 21.2353H15.1375C15.3488 21.2353 15.52 21.064 15.52 20.8528C15.52 20.6415 15.3488 20.4703 15.1375 20.4703ZM15.1375 23.7034H5.82813C5.61688 23.7034 5.44563 23.8746 5.44563 24.0859C5.44563 24.2971 5.61688 24.4684 5.82813 24.4684H15.1375C15.3488 24.4684 15.52 24.2971 15.52 24.0859C15.52 23.8746 15.3488 23.7034 15.1375 23.7034ZM10.4563 5.20527H9.31625V4.06527C9.31625 3.85402 9.14569 3.68277 8.93381 3.68277H7.35131C7.13944 3.68277 6.96881 3.85402 6.96881 4.06527V5.20527H5.82813C5.61688 5.20527 5.44563 5.37652 5.44563 5.58777V7.1709C5.44563 7.38215 5.61688 7.5534 5.82813 7.5534H6.96875V8.6934C6.96875 8.90465 7.13938 9.0759 7.35125 9.0759H8.93375C9.14563 9.0759 9.31619 8.90465 9.31619 8.6934V7.5534H10.4562C10.6681 7.5534 10.8393 7.38215 10.8393 7.1709V5.58777C10.8394 5.37652 10.6681 5.20527 10.4563 5.20527ZM10.0744 6.78777H8.93375C8.72244 6.78777 8.55125 6.95965 8.55125 7.1709V8.3109H7.73375V7.1709C7.73375 6.95965 7.5625 6.78777 7.35125 6.78777H6.21063V5.97027H7.35125C7.5625 5.97027 7.73375 5.79902 7.73375 5.58777V4.44777H8.55125V5.58777C8.55125 5.79902 8.72244 5.97027 8.93375 5.97027H10.0744V6.78777ZM19.2481 22.2334H17.5831C17.3719 22.2334 17.2006 22.4046 17.2006 22.6159C17.2006 22.8271 17.3719 22.9984 17.5831 22.9984H19.2481C19.4601 22.9984 19.6306 22.8271 19.6306 22.6159C19.6306 22.4046 19.46 22.2334 19.2481 22.2334ZM21.6181 24.6634H17.5831C17.3719 24.6634 17.2006 24.8346 17.2006 25.0459C17.2006 25.2578 17.3719 25.429 17.5831 25.429H21.6181C21.8301 25.429 22.0006 25.2578 22.0006 25.0459C22.0006 24.8346 21.83 24.6634 21.6181 24.6634ZM21.6181 23.4484H17.5831C17.3719 23.4484 17.2006 23.6196 17.2006 23.8309C17.2006 24.0421 17.3719 24.2134 17.5831 24.2134H21.6181C21.8301 24.2134 22.0006 24.0421 22.0006 23.8309C22.0006 23.6196 21.83 23.4484 21.6181 23.4484ZM27.7844 22.9009H25.2338C24.9056 22.9009 24.6488 23.1546 24.6488 23.4784V25.1884C24.6488 25.5071 24.9113 25.7665 25.2338 25.7665H27.7844C28.1075 25.7665 28.3694 25.5071 28.3694 25.1884V23.4784C28.3694 23.1546 28.1125 22.9009 27.7844 22.9009ZM25.5044 25.0009H25.4138V23.6659H25.5044V25.0009ZM27.605 25.0009H26.2694V24.7159H27.605V25.0009ZM27.605 23.9509H26.2694V23.6659H27.605V23.9509ZM10.4563 5.20527H9.31625V4.06527C9.31625 3.85402 9.14569 3.68277 8.93381 3.68277H7.35131C7.13944 3.68277 6.96881 3.85402 6.96881 4.06527V5.20527H5.82813C5.61688 5.20527 5.44563 5.37652 5.44563 5.58777V7.1709C5.44563 7.38215 5.61688 7.5534 5.82813 7.5534H6.96875V8.6934C6.96875 8.90465 7.13938 9.0759 7.35125 9.0759H8.93375C9.14563 9.0759 9.31619 8.90465 9.31619 8.6934V7.5534H10.4562C10.6681 7.5534 10.8393 7.38215 10.8393 7.1709V5.58777C10.8394 5.37652 10.6681 5.20527 10.4563 5.20527ZM10.0744 6.78777H8.93375C8.72244 6.78777 8.55125 6.95965 8.55125 7.1709V8.3109H7.73375V7.1709C7.73375 6.95965 7.5625 6.78777 7.35125 6.78777H6.21063V5.97027H7.35125C7.5625 5.97027 7.73375 5.79902 7.73375 5.58777V4.44777H8.55125V5.58777C8.55125 5.79902 8.72244 5.97027 8.93375 5.97027H10.0744V6.78777ZM15.1375 23.7034H5.82813C5.61688 23.7034 5.44563 23.8746 5.44563 24.0859C5.44563 24.2971 5.61688 24.4684 5.82813 24.4684H15.1375C15.3488 24.4684 15.52 24.2971 15.52 24.0859C15.52 23.8746 15.3488 23.7034 15.1375 23.7034ZM15.1375 20.4703H5.82813C5.61688 20.4703 5.44563 20.6415 5.44563 20.8528C5.44563 21.064 5.61688 21.2353 5.82813 21.2353H15.1375C15.3488 21.2353 15.52 21.064 15.52 20.8528C15.52 20.6415 15.3488 20.4703 15.1375 20.4703ZM15.25 17.2371H5.82813C5.61688 17.2371 5.44563 17.4084 5.44563 17.6196C5.44563 17.8309 5.61688 18.0028 5.82813 18.0028H15.25C15.4613 18.0028 15.6325 17.8309 15.6325 17.6196C15.6325 17.4084 15.4613 17.2371 15.25 17.2371ZM19.8331 13.9965H5.82813C5.61688 13.9965 5.44563 14.1684 5.44563 14.3796C5.44563 14.5909 5.61688 14.7621 5.82813 14.7621H19.8331C20.0444 14.7621 20.2156 14.5909 20.2156 14.3796C20.2156 14.1684 20.0444 13.9965 19.8331 13.9965ZM19.8331 10.764H8.14625C7.935 10.764 7.76375 10.9353 7.76375 11.1465C7.76375 11.3578 7.935 11.529 8.14625 11.529H19.8331C20.0444 11.529 20.2156 11.3578 20.2156 11.1465C20.2156 10.9353 20.0444 10.764 19.8331 10.764ZM15.1375 23.7034H5.82813C5.61688 23.7034 5.44563 23.8746 5.44563 24.0859C5.44563 24.2971 5.61688 24.4684 5.82813 24.4684H15.1375C15.3488 24.4684 15.52 24.2971 15.52 24.0859C15.52 23.8746 15.3488 23.7034 15.1375 23.7034ZM15.1375 20.4703H5.82813C5.61688 20.4703 5.44563 20.6415 5.44563 20.8528C5.44563 21.064 5.61688 21.2353 5.82813 21.2353H15.1375C15.3488 21.2353 15.52 21.064 15.52 20.8528C15.52 20.6415 15.3488 20.4703 15.1375 20.4703ZM15.25 17.2371H5.82813C5.61688 17.2371 5.44563 17.4084 5.44563 17.6196C5.44563 17.8309 5.61688 18.0028 5.82813 18.0028H15.25C15.4613 18.0028 15.6325 17.8309 15.6325 17.6196C15.6325 17.4084 15.4613 17.2371 15.25 17.2371ZM19.8331 13.9965H5.82813C5.61688 13.9965 5.44563 14.1684 5.44563 14.3796C5.44563 14.5909 5.61688 14.7621 5.82813 14.7621H19.8331C20.0444 14.7621 20.2156 14.5909 20.2156 14.3796C20.2156 14.1684 20.0444 13.9965 19.8331 13.9965ZM19.8331 10.764H8.14625C7.935 10.764 7.76375 10.9353 7.76375 11.1465C7.76375 11.3578 7.935 11.529 8.14625 11.529H19.8331C20.0444 11.529 20.2156 11.3578 20.2156 11.1465C20.2156 10.9353 20.0444 10.764 19.8331 10.764ZM19.2481 22.2334H17.5831C17.3719 22.2334 17.2006 22.4046 17.2006 22.6159C17.2006 22.8271 17.3719 22.9984 17.5831 22.9984H19.2481C19.4601 22.9984 19.6306 22.8271 19.6306 22.6159C19.6306 22.4046 19.46 22.2334 19.2481 22.2334ZM21.6181 23.4484H17.5831C17.3719 23.4484 17.2006 23.6196 17.2006 23.8309C17.2006 24.0421 17.3719 24.2134 17.5831 24.2134H21.6181C21.8301 24.2134 22.0006 24.0421 22.0006 23.8309C22.0006 23.6196 21.83 23.4484 21.6181 23.4484ZM21.6181 24.6634H17.5831C17.3719 24.6634 17.2006 24.8346 17.2006 25.0459C17.2006 25.2578 17.3719 25.429 17.5831 25.429H21.6181C21.8301 25.429 22.0006 25.2578 22.0006 25.0459C22.0006 24.8346 21.83 24.6634 21.6181 24.6634ZM27.7844 22.9009H25.2338C24.9056 22.9009 24.6488 23.1546 24.6488 23.4784V25.1884C24.6488 25.5071 24.9113 25.7665 25.2338 25.7665H27.7844C28.1075 25.7665 28.3694 25.5071 28.3694 25.1884V23.4784C28.3694 23.1546 28.1125 22.9009 27.7844 22.9009ZM25.5044 25.0009H25.4138V23.6659H25.5044V25.0009ZM27.605 25.0009H26.2694V24.7159H27.605V25.0009ZM27.605 23.9509H26.2694V23.6659H27.605V23.9509ZM10.4563 5.20527H9.31625V4.06527C9.31625 3.85402 9.14569 3.68277 8.93381 3.68277H7.35131C7.13944 3.68277 6.96881 3.85402 6.96881 4.06527V5.20527H5.82813C5.61688 5.20527 5.44563 5.37652 5.44563 5.58777V7.1709C5.44563 7.38215 5.61688 7.5534 5.82813 7.5534H6.96875V8.6934C6.96875 8.90465 7.13938 9.0759 7.35125 9.0759H8.93375C9.14563 9.0759 9.31619 8.90465 9.31619 8.6934V7.5534H10.4562C10.6681 7.5534 10.8393 7.38215 10.8393 7.1709V5.58777C10.8394 5.37652 10.6681 5.20527 10.4563 5.20527ZM10.0744 6.78777H8.93375C8.72244 6.78777 8.55125 6.95965 8.55125 7.1709V8.3109H7.73375V7.1709C7.73375 6.95965 7.5625 6.78777 7.35125 6.78777H6.21063V5.97027H7.35125C7.5625 5.97027 7.73375 5.79902 7.73375 5.58777V4.44777H8.55125V5.58777C8.55125 5.79902 8.72244 5.97027 8.93375 5.97027H10.0744V6.78777Z" fill="#242222"/>
<path d="M8.55156 5.58824V4.44824H7.73406V5.58824C7.73406 5.79949 7.56281 5.97074 7.35156 5.97074H6.21094V6.78824H7.35156C7.56281 6.78824 7.73406 6.96012 7.73406 7.17137V8.31137H8.55156V7.17137C8.55156 6.96012 8.72275 6.78824 8.93406 6.78824H10.0747V5.97074H8.93406C8.72281 5.97074 8.55156 5.79949 8.55156 5.58824Z" fill="#F7B319"/>
<path d="M16.6602 20.0205H28.9245V20.253H16.6602V20.0205Z" fill="#F7B319"/>
<path d="M29.7053 16.5254H18.4159C18.1471 16.5254 17.9277 16.7441 17.9277 17.0129V17.0354H28.4371C29.1277 17.0354 29.6902 17.5941 29.6902 18.281V25.0466H29.7052C29.974 25.0466 30.1927 24.8316 30.1927 24.5666V17.0129C30.1928 16.7441 29.974 16.5254 29.7053 16.5254Z" fill="#F7B319"/>
<path d="M26.6368 11.3046V4.0059C26.6368 3.05465 25.8593 2.28027 24.9037 2.28027C23.9525 2.28027 23.1787 3.05465 23.1787 4.0059V13.0296H27.3331C26.9018 12.5821 26.6368 11.9734 26.6368 11.3046Z" fill="#F7B319"/>
</svg>
