<svg width="20" height="18" viewBox="0 0 20 18" fill="none" xmlns="http://www.w3.org/2000/svg">
<path d="M17.2496 2.6497C16.8307 2.21728 16.3334 1.87424 15.786 1.64021C15.2386 1.40617 14.6519 1.28571 14.0593 1.28571C13.4668 1.28571 12.8801 1.40617 12.3327 1.64021C11.7853 1.87424 11.288 2.21728 10.8691 2.6497L9.9998 3.54672L9.13048 2.6497C8.28438 1.77664 7.13682 1.28616 5.94025 1.28616C4.74369 1.28616 3.59613 1.77664 2.75002 2.6497C1.90392 3.52277 1.42859 4.70689 1.42859 5.94159C1.42859 7.17629 1.90392 8.36042 2.75002 9.23348L3.61934 10.1305L9.9998 16.7143L16.3803 10.1305L17.2496 9.23348C17.6686 8.80126 18.0011 8.28807 18.2279 7.72324C18.4547 7.1584 18.5714 6.55299 18.5714 5.94159C18.5714 5.33019 18.4547 4.72478 18.2279 4.15995C18.0011 3.59511 17.6686 3.08193 17.2496 2.6497Z" fill="#D9D9D9" stroke="#DBDBDB" stroke-linecap="round" stroke-linejoin="round"/>
</svg>
