<svg width="32" height="32" viewBox="0 0 32 32" fill="none" xmlns="http://www.w3.org/2000/svg">
<path fill-rule="evenodd" clip-rule="evenodd" d="M14.7438 27.1221V28.7908H13.6738C13.9807 28.2189 14.3401 27.6589 14.7438 27.1221Z" fill="#FFB300"/>
<path fill-rule="evenodd" clip-rule="evenodd" d="M5.03215 8.44629H10.1059C10.5878 8.44629 10.9828 8.84129 10.9828 9.32316C10.9828 9.80691 10.5878 10.2 10.1059 10.2H5.03215C4.55027 10.2 4.15527 9.80691 4.15527 9.32316C4.15527 8.84129 4.55027 8.44629 5.03215 8.44629Z" fill="#FFB300"/>
<path fill-rule="evenodd" clip-rule="evenodd" d="M16.1136 22.6241C16.5848 22.0784 17.3592 22.0784 17.8323 22.6241L18.3604 23.2372L18.8904 22.6241C19.3636 22.0784 20.1361 22.0784 20.6092 22.6241C21.0823 23.1697 21.0823 24.0647 20.6092 24.6116L18.5348 27.0084C18.4392 27.1203 18.2829 27.1203 18.1873 27.0084L16.1142 24.6116C15.6404 24.0647 15.6404 23.1697 16.1136 22.6241Z" fill="#FFB300"/>
<path fill-rule="evenodd" clip-rule="evenodd" d="M17.9868 5.64258L23.0749 8.05883L22.1768 9.61758L17.218 6.75445C17.1137 6.69445 17.053 6.5932 17.048 6.47258C17.0443 6.35195 17.0974 6.24758 17.1968 6.18008L17.9868 5.64258Z" fill="#FFB300"/>
<path fill-rule="evenodd" clip-rule="evenodd" d="M24.0346 8.92859L23.269 13.4961C23.2515 13.6042 23.1909 13.6892 23.0952 13.7405L22.5565 14.0273C22.4465 14.0861 22.3227 14.0823 22.2165 14.0148C22.1102 13.9492 22.0534 13.8392 22.0571 13.7155L22.204 9.83359L16.9934 12.8417C16.5327 13.1073 15.9621 13.008 15.6184 12.6042L13.459 10.0705L14.1659 9.66109L16.5309 10.2761L16.5346 10.2798L24.5902 5.62921C25.8127 4.92421 27.3077 5.79421 27.7809 6.61234L24.0346 8.92859Z" fill="#FFB300"/>
<path fill-rule="evenodd" clip-rule="evenodd" d="M5.31074 19.0645C5.78387 18.5189 6.55637 18.5189 7.02949 19.0645L7.55949 19.6776L8.08949 19.0645C8.56074 18.5189 9.33512 18.5189 9.80824 19.0645C10.2795 19.612 10.2795 20.5064 9.80824 21.052L7.73387 23.4507C7.63824 23.5607 7.48199 23.5607 7.38637 23.4507L5.31199 21.052C4.83762 20.507 4.83762 19.612 5.31074 19.0645Z" fill="#FFB300"/>
<path d="M5.02676 18.822C5.65051 18.1007 6.68863 18.1007 7.31238 18.822L7.55863 19.107C7.67926 18.967 7.84051 18.7688 7.97488 18.6513C9.00926 17.7551 10.5349 18.5732 10.5349 20.0601C10.5349 20.5045 10.3861 20.9532 10.0886 21.297L7.95051 23.7595C7.83551 23.8588 7.69738 23.9082 7.55926 23.9082V23.9063C7.38551 23.9082 7.22113 23.832 7.10238 23.6957L5.02801 21.297C4.43176 20.6095 4.43176 19.5095 5.02676 18.822ZM5.68613 19.217C5.24676 19.5976 5.21488 20.3701 5.59426 20.8082L7.55926 23.0813L9.52426 20.8082C10.0718 20.1757 9.70863 19.0313 8.94863 19.0313C8.72738 19.0313 8.52363 19.1338 8.37113 19.3113L7.80426 19.9613C7.64863 20.0957 7.41301 20.0782 7.27613 19.9226C7.16426 19.7932 6.75176 19.3026 6.65426 19.2176C6.36613 18.9688 5.97301 18.9688 5.68613 19.217ZM13.3768 16.7632V19.6101H15.2549C16.1318 15.617 20.5911 15.617 21.468 19.6101H23.5211C24.563 19.6101 25.413 20.4607 25.413 21.502V27.2738C25.413 28.3157 24.5624 29.1657 23.5211 29.1657H13.1999C12.8099 29.1657 12.4293 29.042 12.1155 28.8201C11.8993 28.8588 11.4993 28.8451 11.2668 28.8451V29.0526C11.2668 30.137 9.94488 30.6982 9.16926 29.9207C8.94613 29.6976 8.80801 29.3907 8.80801 29.0526V28.8451H6.30988V29.0526C6.30988 30.137 4.98801 30.6982 4.21051 29.9207C3.98926 29.6976 3.85113 29.3907 3.85113 29.0526V28.8451H3.27863C2.43176 28.8451 1.73926 28.1545 1.73926 27.3076V15.1088C1.73926 14.262 2.43176 13.5695 3.27863 13.5695H4.78426V10.5526C3.81863 10.3576 3.43426 9.15445 4.14801 8.4407C4.37488 8.21383 4.68676 8.07383 5.03238 8.07383H10.1061C11.2099 8.07383 11.7824 9.41883 10.9905 10.2107C10.8205 10.3807 10.6005 10.5032 10.3543 10.5526V13.5695H11.8386C12.6855 13.5695 13.3761 14.262 13.3761 15.1088V16.7632H13.3768ZM13.3768 20.3613V27.3082C13.3768 27.7263 13.2086 28.107 12.9336 28.3851C13.0186 28.4045 13.1074 28.4151 13.1993 28.4151H14.3686V20.3613H13.3768ZM12.6274 25.0526V17.137H2.48988V25.0526H12.6274ZM5.53363 13.5688H9.60488V10.5763H5.53363V13.5688ZM11.8393 14.3201C8.98488 14.3201 6.13301 14.3201 3.27863 14.3201C2.84613 14.3201 2.49051 14.6763 2.49051 15.1082V16.3876H12.628V15.1082C12.6274 14.6763 12.2711 14.3201 11.8393 14.3201ZM10.5174 28.8457H9.55738C9.55738 29.0582 9.53426 29.2263 9.69926 29.3913C10.0043 29.6963 10.518 29.4713 10.518 29.0532V28.8457H10.5174ZM5.55863 28.8457H4.59988C4.59988 29.0582 4.57676 29.2263 4.74176 29.3913C5.04676 29.6963 5.55863 29.4713 5.55863 29.0532V28.8457ZM12.6274 27.3082V25.8026H2.48988V27.3082C2.48988 27.7407 2.84613 28.0963 3.27801 28.0963H11.8386C12.2711 28.0963 12.6274 27.7407 12.6274 27.3082ZM26.3255 5.89758C25.7624 6.9957 23.8786 8.04508 22.8905 8.29258C22.6905 8.34195 22.4868 8.22008 22.4368 8.01945C22.3874 7.81945 22.5093 7.6157 22.7099 7.5657C23.4718 7.37445 24.9849 6.54508 25.548 5.74445C25.2874 5.74945 25.0255 5.81195 24.7793 5.9532L21.8061 7.6682C21.7936 7.67695 21.7793 7.6857 21.7655 7.6932L20.1374 8.63195C20.1249 8.6407 20.1105 8.6482 20.0968 8.65508L16.7218 10.6038C16.6174 10.6638 16.4986 10.6676 16.3955 10.627L14.2218 10.0638L14.0355 10.1701L15.903 12.3613C16.1299 12.6288 16.5055 12.6926 16.8068 12.517L22.0174 9.5107C22.2693 9.36383 22.5899 9.55133 22.5793 9.84758L22.4343 13.6688L22.9055 13.4188L23.6674 8.8657C23.6849 8.7632 23.7455 8.66883 23.8411 8.6107L27.2411 6.50945C27.013 6.26633 26.6924 6.03945 26.3255 5.89758ZM24.3768 9.15758L23.8699 12.187C23.9268 12.2226 23.9849 12.2045 24.0293 12.1551L28.5805 6.89133C29.5743 5.7432 29.4843 3.76758 28.3305 2.7707C27.4218 1.9857 26.1618 2.11195 25.3755 3.02258L24.1761 4.40258C24.0186 4.53883 23.783 4.52133 23.648 4.36508L22.4855 3.02195C21.2349 1.57445 19.1155 2.26883 18.6711 4.25883C18.5774 4.67883 18.5686 5.12008 18.648 5.5432L21.583 6.93758L24.4055 5.30758H24.4036C25.0486 4.9357 25.7499 4.93008 26.3774 5.1232C27.1393 5.35695 27.8018 5.9007 28.1068 6.42883C28.2061 6.60445 28.1493 6.82758 27.9793 6.93195L24.3768 9.15758ZM23.7443 12.9345C23.5674 13.9901 23.6661 13.8595 22.7324 14.357C22.5036 14.4795 22.2399 14.4701 22.0199 14.332L22.018 14.3338C21.7999 14.1976 21.6743 13.962 21.683 13.7032L21.7874 10.9338L21.5411 10.6488L17.1811 13.1663C16.5649 13.5226 15.7955 13.3895 15.333 12.8476L13.1749 10.3138C13.0224 10.137 13.063 9.86008 13.2918 9.73633L13.9793 9.33945C14.068 9.2882 14.1686 9.27758 14.2593 9.30195L16.4843 9.87758L19.1805 8.32195L17.028 7.0782C16.5724 6.81445 16.5499 6.16758 16.9855 5.87195C17.1186 5.78133 17.7668 5.32445 17.8593 5.2907C17.7636 4.15133 18.1643 2.96258 19.0411 2.20445C20.2674 1.14508 21.993 1.30633 23.0505 2.53195L23.9293 3.54695L24.8099 2.53195C25.9968 1.15883 27.958 1.15883 29.1449 2.53195C30.3055 3.87133 30.3055 6.04008 29.1449 7.37945L24.5936 12.6432C24.3786 12.8938 24.0561 13.0057 23.7443 12.9345ZM19.9318 7.8907L20.7943 7.39133L18.0186 6.0732L17.4518 6.45945L19.9318 7.8907ZM26.2374 19.9663C26.1349 19.7876 26.1949 19.5588 26.3736 19.4545C26.5524 19.352 26.783 19.412 26.8855 19.5907L27.5236 20.6963C29.0861 17.5213 29.1605 13.762 27.7186 10.5288C27.6355 10.3413 27.7205 10.1195 27.908 10.0363C28.0955 9.95133 28.3174 10.0363 28.4024 10.2238C29.9136 13.6182 29.8605 17.537 28.2624 20.8895L29.5736 20.5388C29.7736 20.4857 29.9793 20.6045 30.0324 20.8026C30.0855 21.0026 29.9668 21.2082 29.7686 21.2613L27.6355 21.8338V21.832C27.4655 21.8782 27.2936 21.802 27.2068 21.6445L26.2374 19.9663ZM17.053 3.23508L16.2274 4.66633C16.1249 4.8432 15.8961 4.9057 15.7174 4.8007C15.5386 4.6982 15.4768 4.46945 15.5811 4.2907L16.0843 3.41758C12.8899 3.58945 9.94926 5.0157 7.83176 7.35758C7.69363 7.51008 7.45801 7.52258 7.30363 7.38445C7.15113 7.24633 7.13863 7.0107 7.27676 6.85633C9.48426 4.41695 12.5455 2.9057 15.8674 2.6807L15.2349 2.0482C15.088 1.90133 15.088 1.66383 15.2349 1.51695C15.3818 1.37195 15.6193 1.37195 15.7649 1.51695L17.0049 2.75695C17.1343 2.88445 17.1555 3.08445 17.053 3.23508ZM15.8305 22.3795C16.4543 21.6601 17.4924 21.6601 18.1143 22.3795L18.3605 22.6645C18.4811 22.5263 18.6424 22.3263 18.7768 22.2107C19.813 21.3145 21.3386 22.1326 21.3386 23.6176C21.3386 24.062 21.1899 24.512 20.8924 24.8557L18.7524 27.3182C18.4974 27.5395 18.1268 27.5095 17.9055 27.2545L15.8311 24.8557C15.2355 24.167 15.2355 23.0688 15.8305 22.3795ZM16.4893 22.7763C16.048 23.1557 16.0161 23.9295 16.3955 24.3676L18.3605 26.6388L20.3268 24.3676C20.8743 23.7332 20.5093 22.5907 19.7493 22.5907C19.528 22.5907 19.3261 22.6932 19.1736 22.8688L18.6049 23.5188C18.4493 23.6551 18.2136 23.6376 18.0786 23.4813C17.9668 23.352 17.5543 22.8613 17.4549 22.7763C17.1699 22.5282 16.7768 22.5282 16.4893 22.7763ZM10.1061 8.82258H5.03238C4.59301 8.82258 4.35738 9.35945 4.67801 9.68008C4.83051 9.83258 4.97363 9.82695 5.15801 9.82695H10.1061C10.5455 9.82695 10.7811 9.29008 10.4605 8.97133C10.3705 8.87945 10.2443 8.82258 10.1061 8.82258ZM16.0236 19.6101H20.6993C19.9355 16.6126 16.7874 16.6126 16.0236 19.6101ZM21.6024 20.3613H15.1199V28.4151H21.6024V20.3613ZM23.5211 20.3613H22.3518V28.4151H23.5211C24.148 28.4151 24.6636 27.9013 24.6636 27.2745V21.5026C24.6643 20.8751 24.1486 20.3613 23.5211 20.3613Z" fill="#242222"/>
</svg>
