<svg width="151" height="151" viewBox="0 0 151 151" fill="none" xmlns="http://www.w3.org/2000/svg">
<path d="M129.5 49.5V124.281C129.5 128.268 126.265 131.5 122.274 131.5H28.7265C24.7354 131.5 21.5 128.268 21.5 124.281V49.5H129.5Z" fill="#E6E8E7"/>
<path d="M129.5 49.5V35.5664C129.5 31.6637 126.265 28.5 122.274 28.5H28.7265C24.7354 28.5 21.5 31.6637 21.5 35.5664V49.5H129.5Z" fill="#F69A8B"/>
<path d="M57.7765 61.5H68.9473V72.5421H57.7765V61.5ZM82.0527 61.5H93.2235V72.5421H82.0527V61.5ZM106.329 61.5H117.5V72.5421H106.329V61.5ZM33.5 84.9789H44.6708V96.0211H33.5V84.9789ZM57.7765 84.9789H68.9473V96.0211H57.7765V84.9789ZM82.0527 84.9789H93.2235V96.0211H82.0527V84.9789ZM106.329 84.9789H117.5V96.0211H106.329V84.9789ZM33.5 108.458H44.6708V119.5H33.5V108.458ZM57.7765 108.458H68.9473V119.5H57.7765V108.458ZM82.0527 108.458H93.2235V119.5H82.0527V108.458Z" fill="#DAE8F0"/>
<path d="M29.0265 132.5H121.974C126.675 132.5 130.5 128.675 130.5 123.973V35.4237C130.5 30.7216 126.675 26.8962 121.974 26.8962H117.231C116.566 22.1598 112.499 18.5 107.583 18.5C102.667 18.5 98.6 22.1598 97.9353 26.896H85.1474C84.4829 22.1598 80.416 18.5 75.4999 18.5C70.5838 18.5 66.5168 22.1598 65.8522 26.896H53.0642C52.3998 22.1598 48.3326 18.5 43.4167 18.5C38.5008 18.5 34.4337 22.1598 33.769 26.8962H29.0265C24.325 26.8962 20.5 30.7216 20.5 35.4237V123.973C20.4998 128.674 24.325 132.5 29.0265 132.5ZM127.807 123.972C127.807 127.189 125.19 129.807 121.974 129.807H29.0265C25.8098 129.807 23.1926 127.189 23.1926 123.972V50.929H127.807V123.972ZM107.583 21.1929C111.011 21.1929 113.871 23.6509 114.507 26.896H100.66C101.295 23.6509 104.155 21.1929 107.583 21.1929ZM75.4999 21.1929C78.928 21.1929 81.7877 23.6509 82.4236 26.896H68.5764C69.2121 23.6509 72.0718 21.1929 75.4999 21.1929ZM43.4167 21.1929C46.8448 21.1929 49.7045 23.6509 50.3405 26.896H36.493C37.1289 23.6509 39.9884 21.1929 43.4167 21.1929ZM23.1924 35.4237C23.1924 32.2067 25.8096 29.5891 29.0263 29.5891H34.9486C34.9698 29.59 34.9878 29.6014 35.0092 29.6014C35.0306 29.6014 35.0487 29.59 35.0698 29.5891H50.342C49.7134 32.8304 46.8511 35.2887 43.4165 35.2887C43.0637 35.2951 42.7275 35.4398 42.4803 35.6916C42.233 35.9434 42.0945 36.2822 42.0945 36.6351C42.0945 36.988 42.233 37.3269 42.4803 37.5787C42.7275 37.8305 43.0637 37.9752 43.4165 37.9816C48.3397 37.9816 52.4118 34.3215 53.0673 29.5891H67.0316C67.0527 29.59 67.0708 29.6014 67.0922 29.6014C67.1136 29.6014 67.1316 29.59 67.1528 29.5891H82.425C81.797 32.8304 78.9347 35.2887 75.4999 35.2887C75.1471 35.2951 74.8109 35.4398 74.5636 35.6916C74.3164 35.9434 74.1779 36.2822 74.1779 36.6351C74.1779 36.988 74.3164 37.3269 74.5636 37.5787C74.8109 37.8305 75.1471 37.9752 75.4999 37.9816C80.4231 37.9816 84.4952 34.3215 85.1507 29.5891H99.1149C99.1361 29.59 99.1542 29.6014 99.1756 29.6014C99.1969 29.6014 99.215 29.59 99.2362 29.5891H114.508C113.88 32.8304 111.017 35.2887 107.583 35.2887C107.23 35.2951 106.894 35.4398 106.647 35.6916C106.399 35.9434 106.261 36.2822 106.261 36.6351C106.261 36.988 106.399 37.3269 106.647 37.5787C106.894 37.8305 107.23 37.9752 107.583 37.9816C112.506 37.9816 116.578 34.3215 117.234 29.5891H121.973C125.19 29.5891 127.807 32.2067 127.807 35.4237V48.2361H23.1924V35.4237Z" fill="#626975"/>
<path d="M57.9214 73.2901H69.0007C69.3566 73.2901 69.698 73.1484 69.9497 72.8962C70.2014 72.644 70.3428 72.3021 70.3428 71.9454V60.8447C70.3428 60.4881 70.2014 60.1461 69.9497 59.8939C69.698 59.6417 69.3566 59.5001 69.0007 59.5H57.9214C57.5654 59.5001 57.2241 59.6417 56.9724 59.8939C56.7207 60.1461 56.5793 60.4881 56.5793 60.8447V71.9454C56.5794 72.302 56.7208 72.644 56.9725 72.8962C57.2241 73.1483 57.5654 73.29 57.9214 73.2901ZM59.2635 62.1894H67.6588V70.6007H59.2637V62.1894H59.2635ZM81.9991 73.2901H93.0784C93.4343 73.2901 93.7757 73.1484 94.0274 72.8962C94.279 72.644 94.4205 72.3021 94.4205 71.9454V60.8447C94.4205 60.4881 94.279 60.1461 94.0274 59.8939C93.7757 59.6417 93.4343 59.5001 93.0784 59.5H81.9991C81.6431 59.5001 81.3018 59.6417 81.0501 59.8939C80.7984 60.1461 80.657 60.4881 80.657 60.8447V71.9454C80.6571 72.302 80.7985 72.644 81.0502 72.8962C81.3018 73.1483 81.6431 73.29 81.9991 73.2901ZM83.3412 62.1894H91.7363V70.6007H83.3412V62.1894ZM106.079 73.2901H117.158C117.514 73.2901 117.855 73.1484 118.107 72.8962C118.359 72.644 118.5 72.3021 118.5 71.9454V60.8447C118.5 60.4881 118.359 60.1461 118.107 59.8939C117.855 59.6417 117.514 59.5001 117.158 59.5H106.079C105.723 59.5001 105.381 59.6417 105.13 59.8939C104.878 60.1461 104.736 60.4881 104.736 60.8447V71.9454C104.736 72.3021 104.878 72.644 105.13 72.8962C105.381 73.1484 105.723 73.2901 106.079 73.2901ZM107.421 62.1894H115.816V70.6007H107.421V62.1894ZM33.8421 96.896H44.9215C45.2774 96.8959 45.6187 96.7542 45.8704 96.502C46.1221 96.2499 46.2635 95.9079 46.2636 95.5513V84.4487C46.2635 84.0921 46.1221 83.7501 45.8704 83.498C45.6187 83.2458 45.2774 83.1041 44.9215 83.104H33.8421C33.4862 83.1041 33.1448 83.2458 32.8932 83.498C32.6415 83.7501 32.5001 84.0921 32.5 84.4487V95.5513C32.5001 95.9079 32.6415 96.2499 32.8932 96.502C33.1448 96.7542 33.4862 96.8959 33.8421 96.896ZM35.1842 85.7934H43.5794V94.2066H35.1842V85.7934ZM57.9214 96.896H69.0007C69.3566 96.8959 69.698 96.7542 69.9497 96.502C70.2014 96.2499 70.3428 95.9079 70.3428 95.5513V84.4487C70.3428 84.0921 70.2014 83.7501 69.9497 83.498C69.698 83.2458 69.3566 83.1041 69.0007 83.104H57.9214C57.5654 83.1041 57.2241 83.2458 56.9724 83.498C56.7207 83.7501 56.5793 84.0921 56.5793 84.4487V95.5513C56.5794 95.9079 56.7208 96.2498 56.9725 96.502C57.2241 96.7541 57.5654 96.8958 57.9214 96.896ZM59.2635 85.7934H67.6588V94.2066H59.2637V85.7934H59.2635ZM81.9991 96.896H93.0784C93.4343 96.8959 93.7757 96.7542 94.0274 96.502C94.279 96.2499 94.4205 95.9079 94.4205 95.5513V84.4487C94.4205 84.0921 94.279 83.7501 94.0274 83.498C93.7757 83.2458 93.4343 83.1041 93.0784 83.104H81.9991C81.6431 83.1041 81.3018 83.2458 81.0501 83.498C80.7984 83.7501 80.657 84.0921 80.657 84.4487V95.5513C80.6571 95.9079 80.7985 96.2498 81.0502 96.502C81.3018 96.7541 81.6431 96.8958 81.9991 96.896ZM83.3412 85.7934H91.7363V94.2066H83.3412V85.7934ZM106.079 96.896H117.158C117.514 96.8959 117.855 96.7542 118.107 96.502C118.359 96.2499 118.5 95.9079 118.5 95.5513V84.4487C118.5 84.0921 118.359 83.7501 118.107 83.498C117.855 83.2458 117.514 83.1041 117.158 83.104H106.079C105.723 83.1041 105.381 83.2458 105.13 83.498C104.878 83.7501 104.736 84.0921 104.736 84.4487V95.5513C104.736 95.9079 104.878 96.2499 105.13 96.502C105.381 96.7542 105.723 96.8959 106.079 96.896ZM107.421 85.7934H115.816V94.2066H107.421V85.7934ZM33.8421 120.5H44.9215C45.2774 120.5 45.6187 120.358 45.8704 120.106C46.1221 119.854 46.2635 119.512 46.2636 119.155V108.055C46.2635 107.698 46.1221 107.356 45.8704 107.104C45.6187 106.852 45.2774 106.71 44.9215 106.71H33.8421C33.4862 106.71 33.1448 106.852 32.8932 107.104C32.6415 107.356 32.5001 107.698 32.5 108.055V119.155C32.5001 119.512 32.6415 119.854 32.8932 120.106C33.1448 120.358 33.4862 120.5 33.8421 120.5ZM35.1842 109.399H43.5794V117.811H35.1842V109.399ZM57.9214 120.5H69.0007C69.3566 120.5 69.698 120.358 69.9497 120.106C70.2014 119.854 70.3428 119.512 70.3428 119.155V108.055C70.3428 107.698 70.2014 107.356 69.9497 107.104C69.698 106.852 69.3566 106.71 69.0007 106.71H57.9214C57.5654 106.71 57.2241 106.852 56.9724 107.104C56.7207 107.356 56.5793 107.698 56.5793 108.055V119.155C56.5794 119.512 56.7208 119.854 56.9725 120.106C57.2241 120.358 57.5654 120.5 57.9214 120.5ZM59.2635 109.399H67.6588V117.811H59.2637V109.399H59.2635ZM81.9991 120.5H93.0784C93.4343 120.5 93.7757 120.358 94.0274 120.106C94.279 119.854 94.4205 119.512 94.4205 119.155V108.055C94.4205 107.698 94.279 107.356 94.0274 107.104C93.7757 106.852 93.4343 106.71 93.0784 106.71H81.9991C81.6431 106.71 81.3018 106.852 81.0501 107.104C80.7984 107.356 80.657 107.698 80.657 108.055V119.155C80.6571 119.512 80.7985 119.854 81.0502 120.106C81.3018 120.358 81.6431 120.5 81.9991 120.5ZM83.3412 109.399H91.7363V117.811H83.3412V109.399Z" fill="#626975"/>
</svg>
