<svg width="32" height="32" viewBox="0 0 32 32" fill="none" xmlns="http://www.w3.org/2000/svg">
<path fill-rule="evenodd" clip-rule="evenodd" d="M19.4545 25.4393H19.9374C20.0344 25.4375 20.1309 25.455 20.2211 25.4909C20.3113 25.5268 20.3935 25.5803 20.4628 25.6483C20.5321 25.7163 20.5871 25.7974 20.6247 25.8869C20.6623 25.9764 20.6816 26.0725 20.6816 26.1696C20.6816 26.2667 20.6623 26.3628 20.6247 26.4523C20.5871 26.5418 20.5321 26.623 20.4628 26.691C20.3935 26.759 20.3113 26.8125 20.2211 26.8483C20.1309 26.8842 20.0344 26.9017 19.9374 26.8999H19.1772C19.5635 26.9007 19.9337 27.0549 20.2063 27.3287C20.4789 27.6024 20.6316 27.9732 20.6308 28.3596C20.63 28.7459 20.4758 29.1161 20.202 29.3887C19.9283 29.6613 19.5575 29.814 19.1711 29.8132H17.9357C17.8089 29.5946 17.6274 29.4127 17.4091 29.2854C17.1908 29.1581 16.9432 29.0897 16.6905 29.087H19.1711C19.3648 29.0884 19.5511 29.0128 19.689 28.8768C19.8269 28.7409 19.9051 28.5557 19.9065 28.3621C19.9079 28.1684 19.8323 27.9821 19.6964 27.8442C19.5604 27.7063 19.3753 27.628 19.1816 27.6267H11.376C11.2789 27.6248 11.1824 27.6424 11.0922 27.6782C11.002 27.7141 10.9199 27.7676 10.8506 27.8356C10.7813 27.9036 10.7262 27.9847 10.6887 28.0742C10.6511 28.1638 10.6317 28.2599 10.6317 28.357C10.6317 28.454 10.6511 28.5501 10.6887 28.6397C10.7262 28.7292 10.7813 28.8103 10.8506 28.8783C10.9199 28.9463 11.002 28.9998 11.0922 29.0357C11.1824 29.0715 11.2789 29.0891 11.376 29.0872H13.8443C13.5937 29.092 13.3485 29.1614 13.1324 29.2886C12.9163 29.4158 12.7367 29.5966 12.6109 29.8135H11.376C11.113 29.8135 10.855 29.7424 10.6292 29.6076C10.4034 29.4728 10.2183 29.2794 10.0936 29.0479C9.96886 28.8164 9.90914 28.5555 9.92075 28.2928C9.93237 28.0301 10.0149 27.7754 10.1596 27.5558C9.82954 27.4487 9.54856 27.2274 9.36718 26.9316C9.1858 26.6359 9.11592 26.2851 9.17013 25.9424C9.22434 25.5997 9.39906 25.2876 9.66287 25.0622C9.92668 24.8369 10.2623 24.7131 10.6092 24.7131H10.7161C10.663 23.9561 10.4439 23.2201 10.0744 22.5573C9.70483 21.8945 9.19394 21.3211 8.57794 20.878C6.59449 19.4663 5.10996 17.4619 4.33794 15.1531C3.56592 12.8442 3.54621 10.35 4.28166 8.02921C5.0171 5.70845 6.46977 3.68081 8.43067 2.23801C10.3916 0.795219 12.7596 0.0116485 15.1941 4.15892e-05H15.2743C17.4716 -0.00588934 19.6239 0.622644 21.4727 1.81015V2.68592C19.8625 1.55542 17.9738 0.886842 16.0109 0.752537C14.048 0.618231 12.0858 1.02332 10.3366 1.92395C8.58743 2.82459 7.11786 4.18647 6.08696 5.86221C5.05607 7.53795 4.50311 9.46373 4.48794 11.4311C4.47667 13.1605 4.88058 14.8674 5.66574 16.4083C6.4509 17.9492 7.59438 19.2793 9.00014 20.2866C9.71001 20.7971 10.2975 21.4589 10.7202 22.2243C11.1429 22.9896 11.3902 23.8394 11.4442 24.712H13.4556V25.0759C13.4557 25.1711 13.493 25.2624 13.5596 25.3304C13.6262 25.3983 13.7168 25.4374 13.8119 25.4393H19.4545Z" fill="#666666"/>
<path fill-rule="evenodd" clip-rule="evenodd" d="M23.115 11.3629C22.5515 11.3635 22.0005 11.1969 21.5317 10.8842C21.0629 10.5714 20.6974 10.1267 20.4815 9.60616C20.2656 9.08564 20.2089 8.51277 20.3187 7.96005C20.4285 7.40733 20.6998 6.89961 21.0983 6.50114C21.4968 6.10267 22.0045 5.83137 22.5572 5.72158C23.1099 5.61178 23.6828 5.66842 24.2033 5.88433C24.7238 6.10024 25.1686 6.46572 25.4813 6.93451C25.794 7.40329 25.9607 7.95431 25.9601 8.51783C25.9586 9.27193 25.6583 9.99471 25.1251 10.5279C24.5919 11.0612 23.8691 11.3614 23.115 11.3629ZM23.115 6.39428C22.6954 6.39355 22.2851 6.51727 21.9358 6.74978C21.5866 6.9823 21.3141 7.31316 21.1529 7.70053C20.9917 8.0879 20.949 8.51437 21.0302 8.926C21.1114 9.33764 21.3129 9.71595 21.6091 10.0131C21.9053 10.3102 22.283 10.5128 22.6944 10.5953C23.1058 10.6778 23.5324 10.6364 23.9203 10.4764C24.3081 10.3164 24.6398 10.045 24.8734 9.69643C25.107 9.3479 25.232 8.93792 25.2325 8.51836C25.2321 7.95627 25.0091 7.41723 24.6123 7.01917C24.2154 6.6211 23.6771 6.39642 23.115 6.39428Z" fill="#2B1330"/>
<path fill-rule="evenodd" clip-rule="evenodd" d="M19.9375 27.6265H10.6093C10.2263 27.6213 9.86074 27.4656 9.59172 27.193C9.3227 26.9203 9.17188 26.5527 9.17188 26.1697C9.17188 25.7867 9.3227 25.4191 9.59172 25.1464C9.86074 24.8738 10.2263 24.718 10.6093 24.7129H19.9375C20.3239 24.7129 20.6944 24.8664 20.9677 25.1396C21.2409 25.4128 21.3944 25.7834 21.3944 26.1698C21.3944 26.5562 21.2409 26.9268 20.9677 27.2C20.6944 27.4732 20.3239 27.6265 19.9375 27.6265ZM10.6093 25.4394C10.5122 25.4376 10.4158 25.4551 10.3255 25.491C10.2353 25.5268 10.1532 25.5803 10.0839 25.6483C10.0146 25.7163 9.95955 25.7975 9.92197 25.887C9.8844 25.9765 9.86504 26.0726 9.86504 26.1697C9.86504 26.2668 9.8844 26.3629 9.92197 26.4524C9.95955 26.5419 10.0146 26.623 10.0839 26.691C10.1532 26.759 10.2353 26.8125 10.3255 26.8484C10.4158 26.8843 10.5122 26.9018 10.6093 26.9H19.9375C20.0345 26.9018 20.131 26.8843 20.2212 26.8484C20.3114 26.8125 20.3936 26.759 20.4628 26.691C20.5321 26.623 20.5872 26.5419 20.6248 26.4524C20.6623 26.3629 20.6817 26.2668 20.6817 26.1697C20.6817 26.0726 20.6623 25.9765 20.6248 25.887C20.5872 25.7975 20.5321 25.7163 20.4628 25.6483C20.3936 25.5803 20.3114 25.5268 20.2212 25.491C20.131 25.4551 20.0345 25.4376 19.9375 25.4394H10.6093Z" fill="#2B1330"/>
<path fill-rule="evenodd" clip-rule="evenodd" d="M19.1713 29.8127H11.3761C10.9898 29.8127 10.6193 29.6593 10.3461 29.3861C10.0729 29.1129 9.91943 28.7424 9.91943 28.3561C9.91943 27.9697 10.0729 27.5992 10.3461 27.3261C10.6193 27.0529 10.9898 26.8994 11.3761 26.8994H19.1713C19.5576 26.8994 19.9281 27.0529 20.2013 27.3261C20.4745 27.5992 20.6279 27.9697 20.6279 28.3561C20.6279 28.7424 20.4745 29.1129 20.2013 29.3861C19.9281 29.6593 19.5576 29.8127 19.1713 29.8127ZM11.3761 27.6259C11.279 27.6241 11.1826 27.6416 11.0924 27.6775C11.0021 27.7134 10.92 27.7669 10.8507 27.8349C10.7814 27.9029 10.7264 27.984 10.6888 28.0735C10.6512 28.163 10.6319 28.2591 10.6319 28.3562C10.6319 28.4533 10.6512 28.5494 10.6888 28.6389C10.7264 28.7284 10.7814 28.8096 10.8507 28.8776C10.92 28.9455 11.0021 28.999 11.0924 29.0349C11.1826 29.0708 11.279 29.0883 11.3761 29.0865H19.1713C19.3649 29.0865 19.5506 29.0096 19.6876 28.8726C19.8245 28.7357 19.9014 28.55 19.9014 28.3563C19.9014 28.1627 19.8245 27.977 19.6876 27.84C19.5506 27.7031 19.3649 27.6262 19.1713 27.6262L11.3761 27.6259Z" fill="#2B1330"/>
<path fill-rule="evenodd" clip-rule="evenodd" d="M16.6757 32.0002H13.8717C13.4854 32.0002 13.1149 31.8468 12.8417 31.5736C12.5685 31.3004 12.415 30.9299 12.415 30.5436C12.415 30.1572 12.5685 29.7867 12.8417 29.5136C13.1149 29.2404 13.4854 29.0869 13.8717 29.0869H16.676C17.0623 29.0869 17.4328 29.2404 17.706 29.5136C17.9792 29.7867 18.1327 30.1572 18.1327 30.5436C18.1327 30.9299 17.9792 31.3004 17.706 31.5736C17.4328 31.8468 17.0621 32.0002 16.6757 32.0002ZM13.8717 29.8134C13.6804 29.817 13.4982 29.8956 13.3642 30.0321C13.2302 30.1687 13.1551 30.3524 13.1551 30.5437C13.1551 30.735 13.2302 30.9187 13.3642 31.0553C13.4982 31.1918 13.6804 31.2704 13.8717 31.274H16.676C16.8673 31.2704 17.0495 31.1918 17.1835 31.0553C17.3175 30.9187 17.3926 30.735 17.3926 30.5437C17.3926 30.3524 17.3175 30.1687 17.1835 30.0321C17.0495 29.8956 16.8673 29.817 16.676 29.8134H13.8717Z" fill="#2B1330"/>
<path fill-rule="evenodd" clip-rule="evenodd" d="M19.4547 25.4393H11.0917C11.044 25.4393 10.9967 25.43 10.9526 25.4117C10.9085 25.3935 10.8684 25.3667 10.8346 25.333C10.8008 25.2992 10.774 25.2592 10.7558 25.2151C10.7375 25.1709 10.7281 25.1237 10.7281 25.0759C10.7281 24.2557 10.533 23.4473 10.159 22.7173C9.78502 21.9874 9.24279 21.3568 8.57708 20.8777C6.59367 19.466 5.10921 17.4615 4.33729 15.1526C3.56537 12.8437 3.54578 10.3494 4.28134 8.02867C5.0169 5.70793 6.46969 3.68035 8.43068 2.23765C10.3917 0.794946 12.7598 0.011503 15.1943 3.86298e-05H15.2745C17.7107 -0.00629622 20.0851 0.766655 22.0507 2.20594C22.0906 2.23354 22.1247 2.26885 22.1508 2.30981C22.1768 2.35077 22.1945 2.39654 22.2026 2.44442C22.2107 2.4923 22.2092 2.54132 22.198 2.58859C22.1869 2.63586 22.1664 2.68042 22.1377 2.71964C22.1091 2.75886 22.0729 2.79194 22.0313 2.81694C21.9896 2.84195 21.9434 2.85835 21.8953 2.8652C21.8473 2.87205 21.7983 2.8692 21.7513 2.85682C21.7044 2.84443 21.6604 2.82277 21.6219 2.7931C20.0186 1.62621 18.1247 0.923859 16.1482 0.763231C14.1718 0.602603 12.1893 0.989914 10.4186 1.8826C8.64789 2.7753 7.15755 4.13882 6.11132 5.82334C5.06508 7.50786 4.50345 9.44819 4.48813 11.4311C4.47685 13.1605 4.88076 14.8674 5.66592 16.4083C6.45108 17.9492 7.59457 19.2793 9.00033 20.2866C9.71019 20.7971 10.2977 21.4589 10.7204 22.2243C11.1431 22.9896 11.3904 23.8394 11.4444 24.712H19.1023C19.154 23.8415 19.399 22.9934 19.8195 22.2294C20.2401 21.4654 20.8256 20.8048 21.5336 20.2955C23.84 18.6607 25.4073 16.181 25.8944 13.3962C25.9027 13.3492 25.9201 13.3043 25.9457 13.264C25.9713 13.2237 26.0046 13.1889 26.0437 13.1615C26.0828 13.1341 26.1269 13.1147 26.1735 13.1043C26.2201 13.0939 26.2683 13.0928 26.3153 13.1011C26.3623 13.1094 26.4072 13.1268 26.4475 13.1524C26.4878 13.178 26.5226 13.2113 26.55 13.2504C26.5774 13.2895 26.5969 13.3336 26.6073 13.3802C26.6176 13.4268 26.6187 13.475 26.6104 13.522C26.0908 16.495 24.4178 19.1423 21.9558 20.8879C21.2924 21.366 20.7524 21.9952 20.3807 22.7235C20.0089 23.4518 19.8161 24.2582 19.8181 25.0759C19.8181 25.1237 19.8088 25.1709 19.7905 25.215C19.7723 25.2591 19.7455 25.2992 19.7117 25.333C19.678 25.3667 19.6379 25.3935 19.5938 25.4117C19.5497 25.43 19.5024 25.4393 19.4547 25.4393Z" fill="#2B1330"/>
<path fill-rule="evenodd" clip-rule="evenodd" d="M24.3882 15.9401H21.8362C21.7398 15.9401 21.6474 15.9018 21.5793 15.8337C21.5111 15.7655 21.4728 15.6731 21.4728 15.5767V13.8294C21.1418 13.7266 20.8212 13.5928 20.5152 13.4299L19.2784 14.6664C19.2102 14.7345 19.1178 14.7727 19.0215 14.7727C18.9251 14.7727 18.8327 14.7345 18.7645 14.6664L16.9606 12.8626C16.8926 12.7943 16.8545 12.7019 16.8545 12.6055C16.8545 12.5091 16.8926 12.4167 16.9606 12.3484L18.1961 11.1131C18.0329 10.8068 17.8989 10.4857 17.7959 10.1542H16.0509C16.0031 10.1542 15.9559 10.1448 15.9118 10.1266C15.8677 10.1083 15.8276 10.0815 15.7938 10.0477C15.7601 10.0139 15.7333 9.97385 15.7151 9.92974C15.6968 9.88562 15.6875 9.83834 15.6875 9.79059V7.23909C15.6875 7.14269 15.7258 7.05023 15.7939 6.98204C15.8621 6.91385 15.9545 6.87551 16.0509 6.87544H17.7969C17.8997 6.54445 18.0336 6.22391 18.1967 5.9181L16.9596 4.6813C16.8916 4.61301 16.8534 4.52056 16.8534 4.42419C16.8534 4.32782 16.8916 4.23537 16.9596 4.16708L18.7634 2.36325C18.8316 2.29506 18.9241 2.25676 19.0205 2.25676C19.117 2.25676 19.2095 2.29506 19.2777 2.36325L20.5145 3.60005C20.8204 3.43714 21.1409 3.30331 21.4718 3.20033V1.45322C21.4719 1.35687 21.5102 1.26448 21.5783 1.19635C21.6464 1.12822 21.7388 1.08991 21.8352 1.08984H24.3872C24.4836 1.08984 24.5761 1.12812 24.6442 1.19626C24.7124 1.2644 24.7508 1.35683 24.7508 1.45322V3.19771C25.0822 3.3006 25.4031 3.43461 25.7092 3.59796L26.945 2.36272C26.9787 2.32897 27.0188 2.3022 27.0629 2.28393C27.107 2.26566 27.1542 2.25626 27.202 2.25626C27.2497 2.25626 27.297 2.26566 27.3411 2.28393C27.3851 2.3022 27.4252 2.32897 27.459 2.36272L29.2628 4.16656C29.2965 4.20028 29.3233 4.24032 29.3416 4.28439C29.3598 4.32846 29.3692 4.3757 29.3692 4.42341C29.3692 4.47111 29.3598 4.51835 29.3416 4.56242C29.3233 4.60649 29.2965 4.64653 29.2628 4.68026L28.026 5.91654C28.189 6.22255 28.3227 6.54326 28.4254 6.8744H30.1715C30.2679 6.8744 30.3604 6.91271 30.4286 6.98091C30.4968 7.0491 30.5351 7.1416 30.5351 7.23804V9.78955C30.5351 9.88599 30.4968 9.97849 30.4286 10.0467C30.3604 10.1149 30.2679 10.1532 30.1715 10.1532H28.4294C28.3267 10.4847 28.1928 10.8058 28.0296 11.1121L29.2649 12.3473C29.2987 12.3811 29.3255 12.4211 29.3438 12.4653C29.3622 12.5094 29.3716 12.5567 29.3716 12.6044C29.3716 12.6522 29.3622 12.6995 29.3438 12.7436C29.3255 12.7877 29.2987 12.8278 29.2649 12.8616L27.461 14.6654C27.3928 14.7334 27.3004 14.7716 27.2041 14.7716C27.1077 14.7716 27.0153 14.7334 26.9471 14.6654L25.7118 13.4299C25.4055 13.5932 25.0845 13.7271 24.7529 13.8299V15.5746C24.7529 15.6711 24.7146 15.7636 24.6464 15.8318C24.5782 15.9 24.4857 15.9383 24.3893 15.9383L24.3882 15.9401ZM22.1993 15.2131H24.0249V13.5572C24.0249 13.4764 24.0518 13.3978 24.1014 13.334C24.151 13.2702 24.2205 13.2247 24.2988 13.2048C24.7517 13.0895 25.1853 12.9086 25.5858 12.6678C25.6554 12.6261 25.737 12.6089 25.8175 12.6189C25.8981 12.6289 25.973 12.6655 26.0303 12.723L27.2038 13.8963L28.4945 12.6056L27.3212 11.4323C27.2638 11.375 27.2272 11.3001 27.2173 11.2196C27.2073 11.1391 27.2246 11.0575 27.2663 10.9879C27.5068 10.5874 27.6876 10.1539 27.8027 9.70119C27.8227 9.62285 27.8681 9.55338 27.9319 9.50377C27.9958 9.45415 28.0743 9.42722 28.1551 9.42721H29.8097V7.60194H28.1522C28.0714 7.60196 27.9929 7.57499 27.9291 7.52532C27.8653 7.47564 27.8199 7.4061 27.8001 7.32771C27.6845 6.87551 27.5038 6.44251 27.2637 6.04228C27.222 5.97264 27.2049 5.8911 27.2149 5.81059C27.2248 5.73008 27.2614 5.65521 27.3188 5.59786L28.4937 4.42275L27.2033 3.13236L26.0292 4.30616C25.9718 4.3635 25.8969 4.40002 25.8164 4.40992C25.7359 4.41982 25.6544 4.40253 25.5848 4.36079C25.1845 4.12044 24.7513 3.9398 24.2988 3.82461C24.2205 3.80459 24.1511 3.75906 24.1015 3.69521C24.0518 3.63135 24.0249 3.55281 24.0249 3.47195V1.81608H22.1993V3.47352C22.1992 3.55425 22.1723 3.63266 22.1228 3.69644C22.0733 3.76022 22.0041 3.80577 21.9259 3.82592C21.4735 3.94147 21.0403 4.12217 20.6399 4.36236C20.5704 4.4042 20.4888 4.42153 20.4083 4.41158C20.3277 4.40162 20.2528 4.36497 20.1955 4.30746L19.0207 3.13262L17.7303 4.42328L18.9051 5.59969C18.9626 5.65697 18.9993 5.73185 19.0093 5.81239C19.0193 5.89294 19.002 5.97451 18.9603 6.04411C18.72 6.4444 18.5392 6.87749 18.4236 7.3298C18.4033 7.40769 18.3578 7.47664 18.2941 7.52585C18.2304 7.57505 18.1522 7.60173 18.0717 7.60168H16.4145V9.42721H18.0717C18.1525 9.42723 18.231 9.45418 18.2948 9.50379C18.3585 9.55341 18.404 9.62287 18.4238 9.70119C18.5391 10.1539 18.7199 10.5873 18.9605 10.9877C19.0022 11.0573 19.0194 11.1388 19.0094 11.2194C18.9994 11.2999 18.9628 11.3748 18.9054 11.4321L17.7318 12.6054L19.023 13.896L20.1979 12.7214C20.2551 12.6639 20.33 12.6272 20.4106 12.6172C20.4912 12.6073 20.5727 12.6246 20.6423 12.6665C21.0422 12.906 21.4746 13.0864 21.9261 13.2019C22.0045 13.2219 22.0739 13.2675 22.1235 13.3313C22.1731 13.3952 22.1999 13.4737 22.1999 13.5546V15.2123L22.1993 15.2131Z" fill="#2B1330"/>
<path fill-rule="evenodd" clip-rule="evenodd" d="M16.7275 25.4395C16.6798 25.4395 16.6326 25.4301 16.5885 25.4118C16.5444 25.3935 16.5044 25.3668 16.4707 25.333C16.4369 25.2993 16.4102 25.2592 16.392 25.2151C16.3737 25.171 16.3644 25.1238 16.3644 25.0761V22.169C16.3631 22.1205 16.3715 22.0722 16.3892 22.027C16.4069 21.9818 16.4334 21.9406 16.4673 21.9058C16.5011 21.871 16.5416 21.8434 16.5863 21.8245C16.6311 21.8056 16.6791 21.7959 16.7276 21.7959C16.7762 21.7959 16.8242 21.8056 16.8689 21.8245C16.9137 21.8434 16.9542 21.871 16.988 21.9058C17.0219 21.9406 17.0484 21.9818 17.0661 22.027C17.0838 22.0722 17.0922 22.1205 17.0909 22.169V25.0761C17.0909 25.1238 17.0815 25.1711 17.0633 25.2152C17.045 25.2593 17.0183 25.2993 16.9845 25.3331C16.9508 25.3668 16.9107 25.3936 16.8666 25.4119C16.8225 25.4301 16.7752 25.4395 16.7275 25.4395Z" fill="#2B1330"/>
<path fill-rule="evenodd" clip-rule="evenodd" d="M13.8198 25.4397C13.7721 25.4398 13.7248 25.4304 13.6807 25.4121C13.6366 25.3939 13.5965 25.3671 13.5627 25.3334C13.5289 25.2996 13.5021 25.2596 13.4839 25.2155C13.4656 25.1714 13.4562 25.1241 13.4562 25.0763V22.1693C13.4549 22.1207 13.4633 22.0724 13.481 22.0272C13.4987 21.9819 13.5253 21.9407 13.5591 21.9059C13.593 21.8711 13.6335 21.8434 13.6783 21.8245C13.723 21.8056 13.7711 21.7959 13.8197 21.7959C13.8683 21.7959 13.9164 21.8056 13.9611 21.8245C14.0059 21.8434 14.0464 21.8711 14.0803 21.9059C14.1141 21.9407 14.1407 21.9819 14.1584 22.0272C14.1761 22.0724 14.1845 22.1207 14.1832 22.1693V25.0763C14.1832 25.1727 14.1449 25.2651 14.0768 25.3333C14.0086 25.4014 13.9162 25.4397 13.8198 25.4397Z" fill="#2B1330"/>
<path fill-rule="evenodd" clip-rule="evenodd" d="M29.0833 25.0947C28.5801 25.0947 28.0883 24.9456 27.6699 24.6661C27.2515 24.3866 26.9254 23.9893 26.7328 23.5245C26.5402 23.0597 26.4898 22.5482 26.5879 22.0547C26.686 21.5612 26.9282 21.1079 27.284 20.7521C27.6397 20.3963 28.093 20.154 28.5864 20.0558C29.0799 19.9576 29.5914 20.0079 30.0563 20.2004C30.5211 20.3929 30.9185 20.7189 31.198 21.1372C31.4776 21.5555 31.6269 22.0474 31.6269 22.5505C31.6263 23.225 31.3581 23.8717 30.8812 24.3486C30.4044 24.8256 29.7577 25.0939 29.0833 25.0947ZM29.0833 20.7336C28.7238 20.7336 28.3725 20.8402 28.0737 21.0399C27.7748 21.2395 27.5419 21.5234 27.4044 21.8554C27.2669 22.1875 27.2309 22.5529 27.301 22.9054C27.3712 23.2579 27.5443 23.5817 27.7984 23.8358C28.0526 24.0899 28.3764 24.263 28.7289 24.333C29.0814 24.4031 29.4468 24.3671 29.7788 24.2295C30.1109 24.092 30.3947 23.859 30.5943 23.5601C30.7939 23.2613 30.9005 22.9099 30.9004 22.5505C30.8999 22.0688 30.7082 21.6069 30.3676 21.2663C30.0269 20.9257 29.565 20.7341 29.0833 20.7336Z" fill="#2B1330"/>
<path fill-rule="evenodd" clip-rule="evenodd" d="M3.64426 29.0927C2.99731 29.0927 2.36486 28.9009 1.82692 28.5415C1.28897 28.1821 0.869688 27.6713 0.622085 27.0736C0.374482 26.4759 0.309684 25.8182 0.435886 25.1837C0.562088 24.5491 0.873621 23.9663 1.33109 23.5088C1.78855 23.0514 2.37141 22.7398 3.00593 22.6136C3.64046 22.4874 4.29816 22.5522 4.89586 22.7998C5.49356 23.0474 6.00441 23.4667 6.3638 24.0047C6.7232 24.5426 6.915 25.175 6.91495 25.822C6.91391 26.6891 6.56899 27.5204 5.95584 28.1336C5.34269 28.7467 4.51138 29.0916 3.64426 29.0927ZM3.64426 23.2781C3.14103 23.278 2.64908 23.4271 2.23062 23.7066C1.81215 23.9861 1.48597 24.3834 1.29334 24.8483C1.1007 25.3132 1.05026 25.8248 1.14839 26.3184C1.24652 26.8119 1.48882 27.2653 1.84463 27.6212C2.20045 27.977 2.6538 28.2194 3.14736 28.3176C3.64091 28.4157 4.1525 28.3653 4.61742 28.1728C5.08233 27.9802 5.47969 27.654 5.75924 27.2356C6.03879 26.8172 6.18798 26.3252 6.18793 25.822C6.18723 25.1476 5.91903 24.5009 5.44216 24.024C4.96528 23.5471 4.31869 23.2788 3.64426 23.2781Z" fill="#2B1330"/>
<path fill-rule="evenodd" clip-rule="evenodd" d="M13.1411 30.5439C13.1416 30.7374 13.2187 30.9228 13.3555 31.0597C13.4923 31.1965 13.6778 31.2736 13.8713 31.2741H16.6756C16.8673 31.273 17.0509 31.1965 17.1867 31.0613C17.3226 30.926 17.3998 30.7428 17.4018 30.5511C17.4037 30.3594 17.3302 30.1746 17.1972 30.0366C17.0641 29.8986 16.8821 29.8185 16.6905 29.8135H13.8713C13.6777 29.814 13.4922 29.8911 13.3554 30.028C13.2186 30.1648 13.1415 30.3504 13.1411 30.5439Z" fill="#666666"/>
<path fill-rule="evenodd" clip-rule="evenodd" d="M13.8714 29.0864H19.1712C19.3649 29.0878 19.5512 29.0122 19.6891 28.8763C19.827 28.7403 19.9053 28.5551 19.9066 28.3615C19.908 28.1678 19.8324 27.9816 19.6965 27.8437C19.5605 27.7058 19.3754 27.6275 19.1817 27.6261H11.3761C11.279 27.6243 11.1826 27.6418 11.0923 27.6777C11.0021 27.7136 10.92 27.7671 10.8507 27.835C10.7814 27.903 10.7263 27.9842 10.6888 28.0737C10.6512 28.1632 10.6318 28.2593 10.6318 28.3564C10.6318 28.4535 10.6512 28.5496 10.6888 28.6391C10.7263 28.7286 10.7814 28.8097 10.8507 28.8777C10.92 28.9457 11.0021 28.9992 11.0923 29.0351C11.1826 29.071 11.279 29.0885 11.3761 29.0867L13.8714 29.0864Z" fill="#666666"/>
<path fill-rule="evenodd" clip-rule="evenodd" d="M14.1832 24.7132H16.364V22.1693C16.3627 22.1208 16.3712 22.0725 16.3888 22.0273C16.4065 21.9821 16.4331 21.9409 16.4669 21.9061C16.5008 21.8713 16.5413 21.8437 16.586 21.8248C16.6307 21.8059 16.6788 21.7962 16.7273 21.7962C16.7758 21.7962 16.8239 21.8059 16.8686 21.8248C16.9133 21.8437 16.9538 21.8713 16.9877 21.9061C17.0215 21.9409 17.0481 21.9821 17.0657 22.0273C17.0834 22.0725 17.0918 22.1208 17.0905 22.1693V24.713H19.1022C19.1539 23.8424 19.3989 22.9943 19.8194 22.2303C20.24 21.4664 20.8255 20.8057 21.5335 20.2965C23.7869 18.6991 25.3368 16.2936 25.86 13.5815L25.7108 13.4322C25.4045 13.5955 25.0834 13.7294 24.7519 13.8322V15.5769C24.7519 15.6734 24.7136 15.7659 24.6454 15.8341C24.5772 15.9023 24.4847 15.9406 24.3882 15.9406H21.8362C21.7398 15.9406 21.6474 15.9023 21.5792 15.8342C21.5111 15.766 21.4728 15.6736 21.4728 15.5772V13.8298C21.1418 13.7271 20.8212 13.5933 20.5152 13.4304L19.2784 14.6669C19.2102 14.735 19.1178 14.7732 19.0214 14.7732C18.9251 14.7732 18.8327 14.735 18.7644 14.6669L16.9606 12.8631C16.8926 12.7948 16.8545 12.7024 16.8545 12.606C16.8545 12.5096 16.8926 12.4172 16.9606 12.3489L18.1961 11.1136C18.0329 10.8073 17.8989 10.4862 17.7959 10.1547H16.0509C16.0031 10.1547 15.9558 10.1453 15.9117 10.127C15.8676 10.1088 15.8276 10.082 15.7938 10.0482C15.7601 10.0144 15.7333 9.97435 15.7151 9.93023C15.6968 9.88611 15.6874 9.83883 15.6875 9.79109V7.23958C15.6875 7.14318 15.7258 7.05073 15.7939 6.98254C15.862 6.91435 15.9545 6.87601 16.0509 6.87594H17.7969C17.8997 6.54494 18.0335 6.2244 18.1966 5.9186L16.9596 4.6818C16.8916 4.6135 16.8534 4.52105 16.8534 4.42468C16.8534 4.32832 16.8916 4.23587 16.9596 4.16757L18.7634 2.36374C18.8316 2.29556 18.9241 2.25725 19.0205 2.25725C19.1169 2.25725 19.2094 2.29556 19.2776 2.36374L20.5144 3.60054C20.8203 3.43764 21.1408 3.30381 21.4718 3.20082V2.68634C19.8615 1.55613 17.9729 0.887783 16.0102 0.753629C14.0475 0.619475 12.0855 1.02462 10.3365 1.92522C8.58744 2.82582 7.118 4.18759 6.08716 5.86316C5.05632 7.53873 4.50333 9.46431 4.48802 11.4315C4.47675 13.1609 4.88065 14.8678 5.66582 16.4087C6.45098 17.9497 7.59446 19.2797 9.00022 20.287C9.71009 20.7975 10.2976 21.4593 10.7203 22.2247C11.143 22.99 11.3903 23.8398 11.4443 24.7125H13.4557V22.1693C13.4544 22.1208 13.4628 22.0724 13.4805 22.0272C13.4982 21.9819 13.5248 21.9407 13.5586 21.9059C13.5925 21.8711 13.633 21.8434 13.6778 21.8245C13.7225 21.8056 13.7706 21.7959 13.8192 21.7959C13.8678 21.7959 13.9159 21.8056 13.9606 21.8245C14.0054 21.8434 14.0459 21.8711 14.0798 21.9059C14.1136 21.9407 14.1402 21.9819 14.1579 22.0272C14.1756 22.0724 14.184 22.1208 14.1827 22.1693L14.1832 24.7132Z" fill="#FFB300"/>
<path fill-rule="evenodd" clip-rule="evenodd" d="M6.18792 25.8224C6.18782 25.3194 6.03854 24.8276 5.75898 24.4094C5.47942 23.9912 5.08211 23.6652 4.61731 23.4728C4.15251 23.2803 3.64108 23.23 3.14769 23.3282C2.6543 23.4264 2.20111 23.6687 1.84542 24.0245C1.48974 24.3803 1.24753 24.8335 1.14942 25.3269C1.05132 25.8203 1.10172 26.3317 1.29426 26.7965C1.4868 27.2613 1.81283 27.6585 2.23112 27.938C2.64941 28.2175 3.14119 28.3666 3.64425 28.3666C4.31875 28.3659 4.96542 28.0977 5.44232 27.6207C5.91921 27.1437 6.18737 26.4969 6.18792 25.8224Z" fill="#EFD9DC"/>
<path fill-rule="evenodd" clip-rule="evenodd" d="M22.1999 13.5557V15.2134H24.0254V13.5575C24.0254 13.4767 24.0524 13.3982 24.102 13.3343C24.1516 13.2705 24.2211 13.2251 24.2994 13.2051C24.7523 13.0898 25.1858 12.9089 25.5864 12.6682C25.656 12.6264 25.7376 12.6092 25.8181 12.6192C25.8986 12.6292 25.9735 12.6659 26.0308 12.7233L26.5045 13.197L26.5155 13.2077L27.2043 13.8966L28.495 12.6059L27.3217 11.4327C27.2643 11.3753 27.2278 11.3004 27.2178 11.2199C27.2079 11.1394 27.2251 11.0578 27.2668 10.9882C27.5074 10.5878 27.6881 10.1543 27.8033 9.70151C27.8232 9.62317 27.8687 9.55371 27.9325 9.50409C27.9963 9.45448 28.0748 9.42754 28.1557 9.42754H29.8097V7.60227H28.1523C28.0714 7.60228 27.9929 7.57531 27.9291 7.52564C27.8653 7.47596 27.8199 7.40642 27.8001 7.32803C27.6845 6.87584 27.5038 6.44284 27.2637 6.0426C27.2221 5.97297 27.2049 5.89142 27.2149 5.81091C27.2249 5.7304 27.2615 5.65553 27.3189 5.59818L28.4937 4.42308L27.2033 3.13268L26.0292 4.30648C25.9719 4.36382 25.897 4.40035 25.8164 4.41024C25.7359 4.42014 25.6544 4.40285 25.5848 4.36112C25.1845 4.12076 24.7513 3.94013 24.2989 3.82494C24.2205 3.80491 24.1511 3.75938 24.1015 3.69553C24.0519 3.63168 24.0249 3.55313 24.0249 3.47227V1.81641H22.1994V2.47258C22.2007 2.49051 22.2007 2.50851 22.1994 2.52644V3.47384C22.1993 3.55457 22.1723 3.63298 22.1229 3.69677C22.0734 3.76055 22.0041 3.80609 21.9259 3.82624C21.4735 3.94179 21.0404 4.12249 20.64 4.36269C20.5704 4.40452 20.4888 4.42185 20.4083 4.4119C20.3277 4.40195 20.2528 4.36529 20.1955 4.30779L19.0207 3.13294L17.7303 4.4236L18.9051 5.60001C18.9627 5.65729 18.9993 5.73217 19.0093 5.81272C19.0193 5.89326 19.0021 5.97484 18.9603 6.04443C18.7201 6.44473 18.5393 6.87782 18.4236 7.33012C18.4033 7.40801 18.3578 7.47696 18.2941 7.52617C18.2304 7.57538 18.1522 7.60205 18.0717 7.60201H16.4146V9.42754H18.0717C18.1525 9.42755 18.231 9.4545 18.2948 9.50412C18.3586 9.55373 18.404 9.62319 18.4239 9.70151C18.5391 10.1542 18.7199 10.5876 18.9606 10.988C19.0022 11.0576 19.0194 11.1392 19.0094 11.2197C18.9995 11.3002 18.9628 11.3751 18.9054 11.4324L17.7319 12.6057L19.023 13.8963L20.1979 12.7218C20.2552 12.6642 20.3301 12.6275 20.4106 12.6176C20.4912 12.6076 20.5728 12.625 20.6423 12.6669C21.0422 12.9064 21.4746 13.0867 21.9262 13.2023C22.0045 13.2222 22.0739 13.2678 22.1235 13.3316C22.1731 13.3955 22.2 13.4741 22.1999 13.5549V13.5557ZM23.1149 11.3634C22.5514 11.3639 22.0004 11.1972 21.5316 10.8845C21.0629 10.5717 20.6974 10.127 20.4816 9.60644C20.2657 9.08592 20.2091 8.51306 20.3189 7.96036C20.4287 7.40766 20.7001 6.89996 21.0985 6.50152C21.497 6.10308 22.0047 5.8318 22.5575 5.72202C23.1102 5.61225 23.683 5.6689 24.2035 5.88482C24.724 6.10074 25.1688 6.46622 25.4815 6.935C25.7942 7.40378 25.9608 7.95479 25.9602 8.5183C25.9587 9.2724 25.6585 9.99518 25.1252 10.5284C24.592 11.0616 23.869 11.3619 23.1149 11.3634Z" fill="#E6E6E6"/>
<path fill-rule="evenodd" clip-rule="evenodd" d="M29.0833 20.7344C28.7239 20.7344 28.3725 20.841 28.0737 21.0406C27.7749 21.2403 27.5419 21.5241 27.4044 21.8562C27.2669 22.1883 27.2309 22.5536 27.301 22.9061C27.3712 23.2587 27.5443 23.5824 27.7984 23.8366C28.0526 24.0907 28.3764 24.2637 28.7289 24.3338C29.0814 24.4039 29.4468 24.3679 29.7789 24.2303C30.1109 24.0927 30.3947 23.8598 30.5943 23.5609C30.794 23.262 30.9005 22.9107 30.9004 22.5513C30.8999 22.0695 30.7083 21.6077 30.3676 21.2671C30.0269 20.9264 29.565 20.7349 29.0833 20.7344Z" fill="#EFD9DC"/>
<path fill-rule="evenodd" clip-rule="evenodd" d="M23.1153 10.6369C23.5348 10.6365 23.9449 10.5116 24.2935 10.2781C24.6421 10.0445 24.9136 9.71286 25.0737 9.32501C25.2337 8.93715 25.2752 8.51054 25.1928 8.09912C25.1104 7.6877 24.9078 7.30997 24.6107 7.01369C24.3136 6.71742 23.9353 6.51592 23.5236 6.43467C23.112 6.35343 22.6855 6.3961 22.2981 6.55728C21.9107 6.71846 21.5798 6.99091 21.3472 7.34017C21.1147 7.68943 20.991 8.09981 20.9917 8.51939C20.9925 9.08179 21.2167 9.62082 21.615 10.0179C22.0132 10.415 22.5529 10.6377 23.1153 10.6369Z" fill="#FFB300"/>
</svg>
