<svg width="32" height="32" viewBox="0 0 32 32" fill="none" xmlns="http://www.w3.org/2000/svg">
<path d="M11.9996 4C11.5996 4.8 9.99963 5.16667 8.99963 5.5C8.83298 5.33333 7.89963 5.4 7.49963 5C7.09963 4.6 6.33294 4.5 5.99959 4.5L3.99963 6.5C3.59963 6.9 3.83297 7.66667 3.99963 8L4.99959 9.5L4.49963 11C4.16629 11.6667 3.19959 13 1.99959 13C0.799588 13 0.832921 14.6667 0.999588 15.5V17.5H2.49959L3.99959 18.5L4.99959 20L3.99959 22.5L3.49959 23.5L5.99959 26H6.99959L7.99959 25H8.99959H10.4996L11.9996 26.5L12.4996 28.5H13.4996H16.4996L16.9996 26.5H17.4996L18.9996 28.5L22.4996 30.5L27.4996 29.5L30.4996 26.5L30.9996 23.5L30.4996 21L29.4996 18.5L27.9996 17L27.4996 15V13.5L25.4996 12.5L23.9996 11.5V9L25.4996 7L22.4996 4.5L20.9996 5.5C20.3329 5.83333 18.6996 6.1 17.4996 4.5C15.9996 2.5 15.9996 2 13.9996 2C11.9996 2 12.4996 3 11.9996 4Z" fill="#FFEEC5"/>
<path d="M21 15.2208C21 16.8435 19.443 17.8331 18.5 19.0001C17.2672 20.5257 16.3807 22.0001 14.2769 22.0001C10.5638 22.0001 7.55371 18.9649 7.55371 15.2208C7.55371 11.4766 10.5638 8.44141 14.2769 8.44141C17.9899 8.44141 21 11.4766 21 15.2208Z" fill="#FFB300"/>
<rect x="20.7832" y="19.7881" width="6.26172" height="6.49707" fill="#FFB300"/>
<path fill-rule="evenodd" clip-rule="evenodd" d="M17.2743 26.8016C17.1543 27.0954 17.087 27.4232 17.087 27.7788C17.087 28.5123 16.494 29.1029 15.7629 29.1029H13.0685C12.3374 29.1029 11.7444 28.5123 11.7444 27.7788C11.7444 25.5138 9.00435 24.3792 7.40291 25.9806C6.88608 26.4975 6.04768 26.4975 5.53097 25.9807L3.62421 24.0756C3.10763 23.5589 3.10763 22.7185 3.62421 22.2019C5.22428 20.6018 4.08972 17.8604 1.82606 17.8604C1.09496 17.8604 0.501953 17.2675 0.501953 16.5364V13.8419C0.501953 13.1108 1.09496 12.5178 1.82606 12.5178C4.08972 12.5178 5.22428 9.77641 3.62421 8.17635C3.10738 7.65952 3.10738 6.82118 3.62421 6.30429L5.53085 4.39765C6.04768 3.88082 6.88608 3.88082 7.40291 4.39765C9.00297 5.99771 11.7444 4.86316 11.7444 2.5995C11.7444 1.86839 12.3374 1.27539 13.0685 1.27539H15.7629C16.494 1.27539 17.087 1.86839 17.087 2.5995C17.087 4.86316 19.8284 5.99771 21.4284 4.39765C21.9451 3.88107 22.7855 3.88107 23.3021 4.39765L25.2071 6.30429C25.724 6.82118 25.724 7.65952 25.2071 8.17635C23.6071 9.77641 24.743 12.5178 27.0054 12.5178C27.7388 12.5178 28.3294 13.1108 28.3294 13.8419V16.5364C28.3294 16.6755 28.308 16.8097 28.2682 16.9357C30.2209 18.3079 31.498 20.5777 31.498 23.1434C31.498 27.3281 28.1006 30.7256 23.9159 30.7256C21.0574 30.7256 18.5661 29.1402 17.2743 26.8016ZM27.451 16.4353V13.8419C27.451 13.5958 27.2522 13.3962 27.0054 13.3962C23.9616 13.3962 22.4333 9.70796 24.586 7.55523C24.7599 7.38137 24.7599 7.09933 24.586 6.92546L22.681 5.01883C22.5068 4.84471 22.2237 4.84471 22.0496 5.01883C19.8969 7.17155 16.2086 5.64509 16.2086 2.5995C16.2086 2.35341 16.009 2.15382 15.7629 2.15382H13.0685C12.8224 2.15382 12.6228 2.35341 12.6228 2.5995C12.6228 5.64509 8.93452 7.17155 6.7818 5.01883C6.60793 4.84496 6.32589 4.84496 6.15202 5.01883L4.24539 6.92546C4.07152 7.09933 4.07152 7.38137 4.24539 7.55523C6.39811 9.70796 4.87165 13.3962 1.82606 13.3962C1.57998 13.3962 1.38038 13.5958 1.38038 13.8419V16.5364C1.38038 16.7824 1.57998 16.982 1.82606 16.982C4.87165 16.982 6.39811 20.6703 4.24539 22.8231C4.07127 22.9971 4.07127 23.2803 4.24539 23.4544L6.15202 25.3595C6.32589 25.5333 6.60793 25.5333 6.7818 25.3595C8.93634 23.2049 12.6228 24.7314 12.6228 27.7788C12.6228 28.0256 12.8224 28.2245 13.0685 28.2245H15.7629C16.009 28.2245 16.2086 28.0256 16.2086 27.7788C16.2086 27.0185 16.4398 26.353 16.8188 25.8154C16.5053 24.9843 16.3337 24.0837 16.3337 23.1434C16.3337 22.8419 16.3514 22.5445 16.3857 22.2521C15.7588 22.4266 15.0982 22.5199 14.4157 22.5199C10.3669 22.5199 7.08448 19.2383 7.08448 15.1896C7.08448 11.1408 10.3669 7.85836 14.4157 7.85836C18.4644 7.85836 21.7469 11.1408 21.7469 15.1896C21.7469 15.4246 21.7358 15.657 21.7142 15.8864C22.4111 15.675 23.1503 15.5613 23.9159 15.5613C25.1922 15.5613 26.3952 15.8773 27.451 16.4353ZM16.5661 21.2747C17.1366 19.0277 18.7115 17.1796 20.7839 16.2373C20.8396 15.8963 20.8684 15.5463 20.8684 15.1896C20.8684 11.6259 17.9793 8.73679 14.4157 8.73679C10.8521 8.73679 7.96291 11.6259 7.96291 15.1896C7.96291 18.7532 10.8521 21.6415 14.4157 21.6415C15.1697 21.6415 15.8935 21.5123 16.5661 21.2747ZM13.969 11.7944L13.9563 11.2686C13.9504 11.0263 14.1424 10.8248 14.3847 10.8189C14.6271 10.8131 14.8285 11.005 14.8344 11.2474L14.8479 11.807C15.0984 11.8638 15.3727 11.9621 15.6154 12.0903C15.9079 12.2449 16.152 12.4446 16.2861 12.6488C16.4193 12.8513 16.363 13.1239 16.1604 13.2571C15.9578 13.3902 15.6853 13.3339 15.5521 13.1313C15.485 13.0293 15.3512 12.9442 15.2049 12.867C14.9432 12.7286 14.6295 12.6301 14.4157 12.6301C13.735 12.6301 13.1602 13.0961 13.1602 13.704C13.1602 14.3119 13.735 14.778 14.4157 14.778C15.6074 14.778 16.5496 15.6662 16.5496 16.7305C16.5496 17.6563 15.8352 18.4501 14.8637 18.6398L14.8751 19.1096C14.8811 19.3519 14.6891 19.5534 14.4468 19.5594C14.2044 19.5653 14.0029 19.3733 13.997 19.131L13.9852 18.6493C13.4679 18.5621 13.115 18.307 12.6966 17.9129C12.5202 17.7467 12.5118 17.4685 12.678 17.2921C12.8442 17.1156 13.1224 17.1073 13.2989 17.2735C13.6434 17.5981 13.9086 17.8044 14.4157 17.8044C15.0964 17.8044 15.6712 17.3378 15.6712 16.7305C15.6712 16.1225 15.0964 15.6564 14.4157 15.6564C13.224 15.6564 12.2818 14.7682 12.2818 13.704C12.2818 12.7769 12.9968 11.9834 13.969 11.7944ZM23.9159 16.4397C20.216 16.4397 17.2122 19.4435 17.2122 23.1434C17.2122 26.8433 20.216 29.8471 23.9159 29.8471C27.6157 29.8471 30.6196 26.8433 30.6196 23.1434C30.6196 19.4435 27.6157 16.4397 23.9159 16.4397ZM20.1169 21.729H19.2579C19.0155 21.729 18.8187 21.5321 18.8187 21.2898C18.8187 21.0473 19.0155 20.8505 19.2579 20.8505H20.1169V19.7007C20.1169 19.4582 20.3135 19.2615 20.5561 19.2615H21.623V18.4854C21.623 18.243 21.8199 18.0462 22.0622 18.0462C22.3046 18.0462 22.5015 18.243 22.5015 18.4854V19.2615H23.4767V18.4854C23.4767 18.243 23.6735 18.0462 23.9159 18.0462C24.1583 18.0462 24.3551 18.243 24.3551 18.4854V19.2615H25.3303V18.4854C25.3303 18.243 25.5271 18.0462 25.7695 18.0462C26.012 18.0462 26.2087 18.243 26.2087 18.4854V19.2615H27.2757C27.5182 19.2615 27.7149 19.4582 27.7149 19.7007V20.8505H28.5739C28.8163 20.8505 29.0131 21.0473 29.0131 21.2898C29.0131 21.5321 28.8163 21.729 28.5739 21.729H27.7149V22.7042H28.5739C28.8163 22.7042 29.0131 22.901 29.0131 23.1434C29.0131 23.3858 28.8163 23.5826 28.5739 23.5826H27.7149V24.5578H28.5739C28.8163 24.5578 29.0131 24.7547 29.0131 24.9971C29.0131 25.2394 28.8163 25.4363 28.5739 25.4363H27.7149V26.4204C27.7149 26.6629 27.5182 26.8596 27.2757 26.8596H26.2087V27.8014C26.2087 28.0438 26.012 28.2406 25.7695 28.2406C25.5271 28.2406 25.3303 28.0438 25.3303 27.8014V26.8596H24.3551V27.8014C24.3551 28.0438 24.1583 28.2406 23.9159 28.2406C23.6735 28.2406 23.4767 28.0438 23.4767 27.8014V26.8596H22.5015V27.8014C22.5015 28.0438 22.3046 28.2406 22.0622 28.2406C21.8199 28.2406 21.623 28.0438 21.623 27.8014V26.8596H20.5561C20.3135 26.8596 20.1169 26.6629 20.1169 26.4204V25.4363H19.2579C19.0155 25.4363 18.8187 25.2394 18.8187 24.9971C18.8187 24.7547 19.0155 24.5578 19.2579 24.5578H20.1169V23.5826H19.2579C19.0155 23.5826 18.8187 23.3858 18.8187 23.1434C18.8187 22.901 19.0155 22.7042 19.2579 22.7042H20.1169V21.729ZM26.8364 20.14H20.9953V25.9811H26.8364V20.14ZM23.9159 21.3328C24.8695 21.3328 25.6437 22.107 25.6437 23.0606C25.6437 24.0142 24.8695 24.7884 23.9159 24.7884C22.9623 24.7884 22.1881 24.0142 22.1881 23.0606C22.1881 22.107 22.9623 21.3328 23.9159 21.3328ZM23.9159 22.2112C23.4471 22.2112 23.0665 22.5918 23.0665 23.0606C23.0665 23.5293 23.4471 23.9099 23.9159 23.9099C24.3847 23.9099 24.7652 23.5293 24.7652 23.0606C24.7652 22.5918 24.3847 22.2112 23.9159 22.2112Z" fill="#242222"/>
</svg>
