<svg width="304" height="226" viewBox="0 0 304 226" fill="none" xmlns="http://www.w3.org/2000/svg">
<path d="M97.2666 96.8199C96.4535 96.256 95.6424 95.685 94.8331 95.1069L95.1774 94.6215C95.9843 95.1977 96.7934 95.7673 97.6045 96.3303L97.2666 96.8199ZM92.4259 93.3577C91.6279 92.7673 90.8354 92.1693 90.0483 91.5637L90.4096 91.0911C91.1929 91.6952 91.9821 92.2909 92.7773 92.878L92.4259 93.3577ZM87.7082 89.7201C86.9343 89.0956 86.1689 88.4622 85.412 87.8197L85.7959 87.3649C86.55 88.0049 87.3114 88.6351 88.0801 89.2553L87.7082 89.7201ZM83.1673 85.8612C82.4158 85.1842 81.6827 84.5001 80.9835 83.8288L81.3935 83.3988C82.0871 84.0658 82.8174 84.747 83.5639 85.4176L83.1673 85.8612ZM78.8682 81.724C78.1676 81.0002 77.4825 80.265 76.8328 79.5391L77.2747 79.141C77.9194 79.8613 78.5988 80.5908 79.2938 81.3082L78.8682 81.724ZM74.8886 77.2711C74.2523 76.4905 73.6323 75.7021 73.0505 74.9173L73.5256 74.5625C74.1046 75.3431 74.7182 76.1236 75.3496 76.8936L74.8886 77.2711ZM71.3226 72.4769C70.7662 71.6459 70.2282 70.7951 69.7242 69.9492L70.2339 69.644C70.7288 70.4807 71.2647 71.3216 71.8154 72.1448L71.3226 72.4769ZM68.2685 67.3328C67.8146 66.4528 67.3819 65.5424 66.9825 64.627L67.5262 64.3878C67.9207 65.2912 68.3477 66.1903 68.7987 67.0589L68.2685 67.3328ZM247.911 63.3951C247.283 63.3951 246.654 63.383 246.026 63.3589L246.048 62.7635C247.031 62.8004 248.014 62.8082 248.998 62.7869L249.012 63.3823C248.643 63.3884 248.275 63.3915 247.908 63.3915L247.911 63.3951ZM251.994 63.2184L251.942 62.6251C252.927 62.5385 253.911 62.4179 254.868 62.2703L254.96 62.8593C253.986 63.0048 252.989 63.1275 251.991 63.2148L251.994 63.2184ZM243.049 63.1602C242.078 63.0686 241.081 62.9473 240.087 62.7997L240.174 62.21C241.158 62.3562 242.144 62.4761 243.105 62.5648L243.049 63.1602ZM237.149 62.2894C236.187 62.0978 235.208 61.8807 234.238 61.6416L234.38 61.0625C235.341 61.2995 236.312 61.5152 237.264 61.7012L237.149 62.2894ZM257.894 62.2802L257.757 61.7005C258.708 61.4748 259.662 61.208 260.593 60.9078L260.775 61.4755C259.825 61.7764 258.856 62.0475 257.89 62.2767L257.894 62.2802ZM65.8789 61.8431C65.541 60.905 65.2292 59.9455 64.9542 58.9925L65.524 58.8265C65.7955 59.7674 66.103 60.7141 66.4374 61.6401L65.8789 61.8431ZM231.36 60.8695C230.422 60.597 229.465 60.3018 228.515 59.9824L228.701 59.4147C229.644 59.7284 230.594 60.0243 231.525 60.2947L231.36 60.8695ZM263.586 60.4437L263.361 59.8923C264.268 59.5191 265.169 59.1061 266.038 58.6647L266.306 59.1962C265.417 59.6447 264.502 60.0641 263.581 60.4437H263.586ZM225.705 58.9883C224.889 58.6841 224.078 58.3685 223.274 58.0416L222.932 57.8997L223.156 57.3483L223.497 57.4902C224.298 57.8148 225.103 58.1282 225.911 58.4305L225.705 58.9883ZM220.191 56.7331C219.283 56.3314 218.381 55.9184 217.484 55.494L217.737 54.9547C218.63 55.3767 219.528 55.7878 220.43 56.1881L220.191 56.7331ZM64.2168 56.083C64.0047 55.1016 63.8223 54.1089 63.6795 53.1324L64.2663 53.0451C64.4077 54.0088 64.5859 54.9874 64.7965 55.9546L64.2168 56.083ZM214.806 54.1947C213.918 53.7524 213.034 53.303 212.155 52.8464L212.427 52.3171C213.305 52.7722 214.186 53.2202 215.07 53.6611L214.806 54.1947ZM209.523 51.4584C208.65 50.9915 207.778 50.5184 206.907 50.0391L207.19 49.5161C208.057 49.9916 208.927 50.4628 209.799 50.9297L209.523 51.4584ZM63.3451 50.1498C63.2744 49.1769 63.2369 48.1969 63.2369 47.2404V47.1538H63.8308V47.2404C63.8308 48.1842 63.8669 49.1493 63.9368 50.108L63.3451 50.1498ZM204.304 48.6057C203.438 48.1255 202.573 47.6434 201.708 47.1595L201.997 46.6393C202.861 47.1219 203.726 47.6037 204.591 48.0848L204.304 48.6057ZM199.115 45.7132C198.25 45.2316 197.384 44.7522 196.518 44.2748L196.8 43.7518C197.669 44.2297 198.535 44.7096 199.401 45.1917L199.115 45.7132ZM63.9566 44.201L63.3656 44.1514C63.4483 43.1487 63.5777 42.1459 63.7396 41.1709L64.325 41.271C64.1624 42.2283 64.0387 43.2125 63.9566 44.2003V44.201ZM193.914 42.8527L193.85 42.818C193.002 42.361 192.149 41.9073 191.292 41.4569L191.567 40.9289C192.424 41.3798 193.28 41.8349 194.132 42.2943L194.189 42.3241L193.914 42.8527ZM188.658 40.0909C187.778 39.6395 186.895 39.1934 186.01 38.7525L186.274 38.2189C187.161 38.6612 188.045 39.1083 188.928 39.5601L188.658 40.0909ZM64.9485 38.3878L64.3745 38.2345C64.6318 37.2609 64.94 36.2965 65.2801 35.369L65.8372 35.5769C65.5 36.4852 65.2009 37.4312 64.9485 38.387V38.3878ZM183.348 37.4461C182.458 37.0132 181.566 36.5855 180.672 36.1631L180.925 35.6245C181.821 36.0502 182.714 36.4786 183.606 36.9096L183.348 37.4461ZM177.984 34.9099C177.086 34.4964 176.185 34.0879 175.282 33.6843L175.524 33.1401C176.428 33.5445 177.331 33.954 178.231 34.3684L177.984 34.9099ZM66.9952 32.869L66.4622 32.6064C66.8941 31.7233 67.37 30.8626 67.8881 30.0276L68.424 30.2916L68.3915 30.3448C67.8837 31.1614 67.4177 32.0034 66.9952 32.8676V32.869ZM172.567 32.4872C171.661 32.0931 170.752 31.7038 169.841 31.3192L170.071 30.7699C170.983 31.155 171.894 31.5451 172.803 31.9401L172.567 32.4872ZM167.102 30.1788C166.187 29.8041 165.27 29.4339 164.352 29.0682L164.57 28.514C165.491 28.8802 166.41 29.2513 167.327 29.6274L167.102 30.1788ZM161.587 27.986C160.665 27.6303 159.741 27.2792 158.815 26.9329L159.021 26.3745C159.95 26.7212 160.876 27.073 161.8 27.4297L161.587 27.986ZM70.1045 27.8796L69.6358 27.5134C70.2424 26.7328 70.9006 25.9657 71.5913 25.2362L72.0218 25.6464C71.3481 26.361 70.7026 27.1125 70.108 27.8782L70.1045 27.8796ZM156.03 25.9075C155.1 25.5716 154.168 25.2405 153.235 24.914L153.431 24.3513C154.366 24.6782 155.299 25.0094 156.231 25.3448L156.03 25.9075ZM150.431 23.9482C149.494 23.6318 148.556 23.32 147.616 23.013L147.8 22.4453C148.742 22.7528 149.683 23.0652 150.62 23.3827L150.431 23.9482ZM74.1435 23.6041L73.7532 23.1556C74.4934 22.5063 75.2796 21.8783 76.0862 21.2807L76.4397 21.7619C75.6465 22.3495 74.8738 22.9661 74.1463 23.6041H74.1435ZM144.792 22.1068C143.85 21.8101 142.905 21.5182 141.959 21.2311L142.131 20.6634C143.078 20.9515 144.025 21.2441 144.97 21.5412L144.792 22.1068ZM139.116 20.3845C138.166 20.1077 137.216 19.8357 136.265 19.5684L136.425 18.995C137.378 19.2623 138.331 19.5348 139.282 19.8125L139.116 20.3845ZM78.8816 20.1177L78.572 19.6096C79.4104 19.0937 80.2878 18.6005 81.1786 18.1421L81.4494 18.6729C80.577 19.1235 79.713 19.6096 78.8873 20.1177H78.8816ZM133.407 18.7829C132.451 18.526 131.495 18.2741 130.538 18.0271L130.686 17.4502C131.645 17.6971 132.603 17.9495 133.56 18.2074L133.407 18.7829ZM84.1217 17.4211L83.8899 16.8725C84.7962 16.4865 85.7344 16.1253 86.6789 15.7975L86.8726 16.3609C85.9429 16.6838 85.0175 17.0407 84.1239 17.4211H84.1217ZM127.663 17.3026C126.704 17.066 125.743 16.8364 124.779 16.6135L124.913 16.0331C125.879 16.2568 126.842 16.487 127.804 16.7235L127.663 17.3026ZM121.886 15.9727C120.921 15.7684 119.952 15.5744 118.982 15.3908L119.092 14.8054C120.066 14.9889 121.038 15.1839 122.009 15.3901L121.886 15.9727ZM89.6906 15.4881L89.5337 14.9133C90.4874 14.6514 91.4651 14.4165 92.44 14.2164L92.5595 14.8004C91.5987 14.9984 90.6344 15.2298 89.6927 15.4881H89.6906ZM116.066 14.8792C115.082 14.7195 114.096 14.5741 113.138 14.4485L113.215 13.858C114.18 13.9844 115.17 14.1298 116.161 14.2909L116.066 14.8792ZM95.4652 14.2973L95.3832 13.7069L95.8844 13.6359C96.6911 13.5309 97.5204 13.4429 98.3489 13.3734L98.3984 13.9673C97.5783 14.0383 96.7582 14.1234 95.9608 14.2263L95.4652 14.2973ZM110.2 14.1128C109.205 14.017 108.213 13.9404 107.253 13.8843L107.287 13.2896C108.255 13.3457 109.255 13.423 110.256 13.5203L110.2 14.1128ZM101.347 13.8013L101.327 13.2059C102.321 13.1733 103.315 13.165 104.309 13.1811L104.299 13.7764C103.317 13.7618 102.334 13.7701 101.349 13.8013H101.347Z" fill="black"/>
<path d="M299.734 200.122V208.789C299.734 208.991 299.695 209.191 299.618 209.378C299.541 209.564 299.428 209.734 299.286 209.876C299.144 210.019 298.975 210.132 298.789 210.209C298.604 210.286 298.405 210.326 298.203 210.326H249.229C248.823 210.324 248.434 210.162 248.147 209.874C247.859 209.587 247.696 209.197 247.692 208.789V200.122C247.693 199.714 247.856 199.323 248.144 199.035C248.432 198.747 248.822 198.585 249.229 198.586H298.203C298.32 198.584 298.436 198.598 298.549 198.626C298.886 198.704 299.187 198.895 299.402 199.167C299.617 199.438 299.734 199.775 299.734 200.122Z" fill="#EFC102"/>
<g opacity="0.15">
<path d="M299.734 207.009V208.789C299.734 208.99 299.695 209.19 299.618 209.377C299.541 209.563 299.428 209.733 299.286 209.875C299.144 210.018 298.975 210.131 298.789 210.208C298.604 210.286 298.405 210.325 298.203 210.325H249.229C248.822 210.326 248.432 210.164 248.144 209.876C247.856 209.588 247.693 209.197 247.692 208.789V207.009C247.693 207.417 247.856 207.808 248.144 208.096C248.432 208.384 248.822 208.546 249.229 208.545H298.203C298.404 208.546 298.603 208.506 298.789 208.429C298.975 208.352 299.144 208.239 299.286 208.096C299.428 207.953 299.541 207.784 299.618 207.597C299.695 207.411 299.734 207.211 299.734 207.009Z" fill="black"/>
</g>
<g opacity="0.1">
<path d="M299.734 200.122V202.157L288.257 210.326H249.232C248.826 210.324 248.437 210.162 248.149 209.874C247.862 209.587 247.698 209.197 247.695 208.789V205.722L257.716 198.586H298.203C298.319 198.584 298.436 198.598 298.549 198.626C298.886 198.704 299.187 198.895 299.402 199.167C299.617 199.438 299.734 199.775 299.734 200.122Z" fill="white"/>
</g>
<g opacity="0.15">
<path d="M298.551 198.626L282.107 210.326H271.473L286.104 198.586H298.203C298.32 198.584 298.437 198.597 298.551 198.626Z" fill="white"/>
</g>
<path d="M304 188.723V197.391C304 197.592 303.961 197.792 303.884 197.979C303.807 198.165 303.694 198.335 303.552 198.477C303.41 198.62 303.241 198.733 303.055 198.81C302.869 198.887 302.67 198.927 302.469 198.927H253.495C253.089 198.925 252.7 198.763 252.412 198.475C252.125 198.188 251.962 197.798 251.958 197.391V188.723C251.959 188.315 252.122 187.924 252.41 187.636C252.698 187.348 253.088 187.186 253.495 187.187H302.469C302.586 187.185 302.703 187.199 302.816 187.227C303.153 187.305 303.453 187.496 303.668 187.768C303.883 188.039 304 188.376 304 188.723Z" fill="#EFC102"/>
<g opacity="0.15">
<path d="M304 195.61V197.39C304 197.592 303.961 197.792 303.884 197.978C303.807 198.164 303.694 198.334 303.552 198.477C303.41 198.619 303.241 198.732 303.055 198.81C302.87 198.887 302.67 198.926 302.469 198.926H253.495C253.088 198.927 252.698 198.765 252.41 198.477C252.122 198.189 251.959 197.798 251.958 197.39V195.61C251.959 196.018 252.122 196.409 252.41 196.697C252.698 196.986 253.088 197.147 253.495 197.146H302.469C302.67 197.147 302.87 197.107 303.055 197.03C303.241 196.953 303.41 196.84 303.552 196.697C303.694 196.554 303.807 196.385 303.884 196.198C303.961 196.012 304 195.812 304 195.61Z" fill="black"/>
</g>
<g opacity="0.1">
<path d="M304 188.723V190.758L292.523 198.927H253.498C253.092 198.925 252.703 198.763 252.415 198.475C252.128 198.188 251.964 197.798 251.961 197.391V194.324L261.982 187.187H302.472C302.589 187.185 302.705 187.199 302.819 187.227C303.155 187.306 303.455 187.497 303.669 187.768C303.884 188.04 304 188.377 304 188.723Z" fill="white"/>
</g>
<g opacity="0.15">
<path d="M302.817 187.227L286.373 198.926H275.739L290.369 187.186H302.47C302.587 187.185 302.704 187.199 302.817 187.227Z" fill="white"/>
</g>
<path d="M229.519 32.4709V188.976C229.519 194.488 225.046 198.972 219.554 198.972H95.8548C90.363 198.972 85.8906 194.488 85.8906 188.976V32.4709C85.8906 26.9592 90.363 22.4694 95.8548 22.4694H219.554C225.046 22.4694 229.519 26.962 229.519 32.4709Z" fill="#060405"/>
<path d="M224.779 32.4709V188.976C224.779 189.664 224.644 190.346 224.381 190.982C224.118 191.618 223.733 192.195 223.248 192.682C222.763 193.168 222.187 193.554 221.553 193.817C220.919 194.08 220.24 194.215 219.555 194.215H95.8548C95.1689 194.216 94.4896 194.08 93.8558 193.817C93.222 193.554 92.646 193.169 92.1607 192.682C91.6755 192.196 91.2905 191.618 91.0278 190.982C90.765 190.346 90.6297 189.664 90.6295 188.976V32.4709C90.6297 31.08 91.1803 29.7461 92.1602 28.7627C93.1401 27.7792 94.4691 27.2267 95.8548 27.2267H219.555C220.94 27.2267 222.269 27.7793 223.249 28.7627C224.229 29.7462 224.779 31.0801 224.779 32.4709Z" fill="white"/>
<path d="M166.155 43.4588V93.738C166.155 94.3262 166.04 94.9087 165.815 95.452C165.591 95.9954 165.262 96.4891 164.847 96.9048C164.433 97.3205 163.941 97.6502 163.399 97.8749C162.858 98.0996 162.277 98.2149 161.691 98.2144H104.73C103.547 98.2147 102.412 97.7434 101.575 96.904C100.738 96.0645 100.267 94.9257 100.266 93.738V43.4588C100.267 42.2711 100.738 41.1323 101.575 40.2928C102.412 39.4534 103.547 38.982 104.73 38.9824H161.691C162.277 38.9819 162.858 39.0972 163.399 39.3219C163.941 39.5466 164.433 39.8763 164.847 40.292C165.262 40.7077 165.591 41.2014 165.815 41.7447C166.04 42.2881 166.155 42.8706 166.155 43.4588Z" fill="#FFC9C9"/>
<path d="M134.219 68.733L154.826 62.1334C152.146 53.0913 143.992 46.4173 134.219 45.9851V68.733Z" fill="#FF7545"/>
<path d="M132.205 71.5046L112.601 77.782C115.979 85.4148 123.438 90.8221 132.205 91.2096V71.5046Z" fill="#060405"/>
<path d="M155.765 68.5987C155.769 72.4318 154.799 76.2024 152.946 79.554L151.89 81.2841C149.921 84.2087 147.296 86.6297 144.227 88.3533C141.158 90.0769 137.729 91.0551 134.216 91.2096V71.8105L138.797 74.2658L141.426 73.3781L135.79 70.3558L155.314 64.1025C155.612 65.5827 155.763 67.0887 155.765 68.5987Z" fill="#D07474"/>
<path d="M132.205 69.3793V45.9857C120.218 46.5158 110.661 56.435 110.661 68.598C110.66 71.0794 111.066 73.5441 111.863 75.893L132.205 69.3793Z" fill="#B580D8"/>
<path d="M133.211 82.0562C140.658 82.0562 146.695 75.9965 146.695 68.5214C146.695 61.0464 140.658 54.9867 133.211 54.9867C125.764 54.9867 119.727 61.0464 119.727 68.5214C119.727 75.9965 125.764 82.0562 133.211 82.0562Z" fill="white"/>
<path d="M143.195 68.598C143.195 70.5801 142.609 72.5176 141.512 74.1656C140.415 75.8136 138.856 77.0981 137.031 77.8566C135.207 78.6151 133.2 78.8135 131.263 78.4268C129.326 78.0402 127.547 77.0857 126.151 75.6842C124.755 74.2827 123.804 72.4971 123.419 70.5531C123.033 68.6091 123.231 66.5942 123.987 64.763C124.742 62.9319 126.022 61.3667 127.664 60.2656C129.306 59.1644 131.236 58.5767 133.211 58.5767C134.522 58.5765 135.82 58.8356 137.032 59.3391C138.243 59.8427 139.344 60.5808 140.271 61.5114C141.198 62.442 141.933 63.5469 142.435 64.7628C142.937 65.9787 143.195 67.2819 143.195 68.598Z" fill="#F2CB2A"/>
<path d="M136.309 72.076C136.039 72.4744 135.666 72.7911 135.23 72.9921C134.722 73.2302 134.171 73.3643 133.611 73.3867V74.3369C133.612 74.39 133.603 74.4428 133.584 74.4922C133.564 74.5416 133.535 74.5865 133.498 74.6243C133.417 74.6962 133.313 74.7365 133.206 74.7378C133.098 74.7391 132.993 74.7013 132.911 74.6314C132.872 74.5931 132.842 74.5471 132.823 74.4963C132.803 74.4455 132.795 74.3912 132.798 74.3369V73.3867C131.871 73.3321 130.961 73.1195 130.106 72.7579C129.997 72.7124 129.904 72.6356 129.839 72.5373C129.762 72.4302 129.724 72.2995 129.733 72.1676C129.741 72.0357 129.795 71.911 129.886 71.8149C129.935 71.7602 129.996 71.717 130.064 71.6882C130.132 71.6594 130.205 71.6457 130.279 71.6481C130.366 71.6478 130.452 71.6659 130.532 71.7013C131.246 72.0211 132.013 72.2027 132.794 72.2364V69.1594C132.272 69.0274 131.762 68.853 131.268 68.6379C130.866 68.4586 130.511 68.1856 130.235 67.8416C129.96 67.4991 129.823 67.0644 129.822 66.5373C129.819 66.0866 129.936 65.6432 130.162 65.2536C130.407 64.8431 130.756 64.5057 131.175 64.2765C131.624 64.0182 132.164 63.8623 132.794 63.8088V62.8693C132.792 62.76 132.832 62.654 132.907 62.5748C132.944 62.5356 132.988 62.5046 133.038 62.4839C133.087 62.4633 133.14 62.4534 133.194 62.4549C133.248 62.4543 133.302 62.4646 133.353 62.4852C133.403 62.5058 133.449 62.5363 133.487 62.5749C133.526 62.6135 133.556 62.6594 133.577 62.71C133.597 62.7605 133.608 62.8147 133.607 62.8693V63.7918C134.477 63.8273 135.25 63.9744 135.926 64.2332C136.04 64.2663 136.139 64.3374 136.207 64.4347C136.275 64.532 136.307 64.6497 136.299 64.7682C136.299 64.9113 136.247 65.0492 136.152 65.1564C136.106 65.213 136.046 65.2581 135.979 65.2882C135.913 65.3183 135.84 65.3327 135.766 65.3303C135.693 65.3254 135.621 65.3071 135.554 65.2763C134.928 65.0584 134.272 64.9367 133.609 64.9151V68.0992C134.152 68.2213 134.684 68.3875 135.201 68.596C135.615 68.7684 135.98 69.0421 136.261 69.3922C136.544 69.7446 136.685 70.2106 136.685 70.7902C136.692 71.247 136.561 71.695 136.309 72.076ZM131.485 67.3534C131.783 67.5677 132.22 67.7506 132.798 67.902V64.9591C132.265 65.031 131.838 65.1938 131.518 65.4474C131.365 65.5626 131.242 65.7129 131.158 65.8857C131.075 66.0585 131.034 66.2488 131.038 66.4408C131.038 66.8359 131.187 67.1401 131.485 67.3534ZM135.49 70.7114C135.49 70.3637 135.332 70.094 135.016 69.9024C134.701 69.7108 134.232 69.5301 133.611 69.3602V72.2364C134.864 72.1479 135.49 71.6396 135.49 70.7114Z" fill="white"/>
<path d="M146.125 55.0584C146.047 54.9802 146.003 54.8741 146.003 54.7635C146.003 54.653 146.047 54.5469 146.125 54.4687L149.931 50.6481C150.009 50.57 150.115 50.5261 150.225 50.526H158.779C158.886 50.5304 158.988 50.5763 159.062 50.654C159.136 50.7317 159.178 50.8352 159.178 50.9429C159.178 51.0506 159.136 51.1541 159.062 51.2318C158.988 51.3095 158.886 51.3554 158.779 51.3598H150.394L146.71 55.0584C146.632 55.1358 146.527 55.1793 146.417 55.1793C146.308 55.1793 146.203 55.1358 146.125 55.0584Z" fill="#060405"/>
<path d="M119.709 55.0584L116.025 51.3598H107.639C107.532 51.3554 107.431 51.3095 107.356 51.2318C107.282 51.1541 107.241 51.0506 107.241 50.9429C107.241 50.8352 107.282 50.7317 107.356 50.654C107.431 50.5763 107.532 50.5304 107.639 50.526H116.194C116.304 50.526 116.409 50.5699 116.487 50.6481L120.293 54.4687C120.371 54.5468 120.415 54.6528 120.415 54.7633C120.415 54.8738 120.372 54.9798 120.294 55.058C120.216 55.1362 120.11 55.1802 120 55.1803C119.89 55.1803 119.785 55.1365 119.707 55.0584H119.709Z" fill="#060405"/>
<path d="M116.197 86.6694H107.642C107.535 86.665 107.434 86.6191 107.359 86.5414C107.285 86.4637 107.244 86.3602 107.244 86.2525C107.244 86.1448 107.285 86.0413 107.359 85.9636C107.434 85.8859 107.535 85.84 107.642 85.8356H116.028L119.712 82.137C119.79 82.0589 119.896 82.0151 120.006 82.0151C120.116 82.0152 120.222 82.0592 120.3 82.1374C120.377 82.2156 120.421 82.3216 120.421 82.4321C120.421 82.5426 120.377 82.6486 120.299 82.7267L116.493 86.5473C116.454 86.5864 116.408 86.6173 116.357 86.6382C116.306 86.6592 116.252 86.6698 116.197 86.6694Z" fill="#060405"/>
<path d="M158.782 86.6694H150.228C150.118 86.6693 150.012 86.6254 149.934 86.5473L146.128 82.7267C146.055 82.6476 146.015 82.543 146.017 82.435C146.019 82.327 146.062 82.224 146.138 82.1476C146.214 82.0712 146.317 82.0274 146.425 82.0255C146.532 82.0235 146.636 82.0635 146.715 82.137L150.4 85.8356H158.785C158.892 85.84 158.993 85.8859 159.068 85.9636C159.142 86.0413 159.183 86.1448 159.183 86.2525C159.183 86.3602 159.142 86.4637 159.068 86.5414C158.993 86.6191 158.892 86.6649 158.785 86.6694H158.782Z" fill="#060405"/>
<path d="M179.196 59.6525H172.643C172.105 59.6525 171.668 60.0906 171.668 60.631V67.2086C171.668 67.749 172.105 68.1872 172.643 68.1872H179.196C179.734 68.1872 180.171 67.749 180.171 67.2086V60.631C180.171 60.0906 179.734 59.6525 179.196 59.6525Z" fill="#FFC9C9"/>
<path d="M216.976 61.3826H183.78C183.469 61.3826 183.217 61.6358 183.217 61.9481V62.6024C183.217 62.9148 183.469 63.168 183.78 63.168H216.976C217.287 63.168 217.54 62.9148 217.54 62.6024V61.9481C217.54 61.6358 217.287 61.3826 216.976 61.3826Z" fill="#FFC9C9"/>
<path d="M203.665 65.4615V66.1215C203.665 66.272 203.606 66.4164 203.499 66.5229C203.393 66.6294 203.25 66.6892 203.1 66.6892H183.778C183.628 66.6892 183.484 66.6294 183.378 66.5229C183.272 66.4164 183.212 66.272 183.212 66.1215V65.4615C183.213 65.3875 183.228 65.3142 183.256 65.246C183.285 65.1778 183.327 65.1159 183.379 65.0639C183.432 65.0119 183.494 64.9708 183.563 64.9429C183.631 64.9151 183.704 64.9011 183.778 64.9016H203.1C203.173 64.9011 203.246 64.9151 203.315 64.9429C203.383 64.9708 203.445 65.0119 203.498 65.0639C203.55 65.1159 203.592 65.1778 203.621 65.246C203.65 65.3142 203.665 65.3875 203.665 65.4615Z" fill="#FFC9C9"/>
<path d="M179.196 70.798H172.643C172.105 70.798 171.668 71.2361 171.668 71.7765V78.3541C171.668 78.8946 172.105 79.3327 172.643 79.3327H179.196C179.734 79.3327 180.171 78.8946 180.171 78.3541V71.7765C180.171 71.2361 179.734 70.798 179.196 70.798Z" fill="#FFC9C9"/>
<path d="M216.976 72.5287H183.78C183.469 72.5287 183.217 72.7819 183.217 73.0943V73.7485C183.217 74.0609 183.469 74.3141 183.78 74.3141H216.976C217.287 74.3141 217.54 74.0609 217.54 73.7485V73.0943C217.54 72.7819 217.287 72.5287 216.976 72.5287Z" fill="#FFC9C9"/>
<path d="M203.102 76.047H183.78C183.469 76.047 183.217 76.3002 183.217 76.6126V77.2668C183.217 77.5792 183.469 77.8324 183.78 77.8324H203.102C203.413 77.8324 203.665 77.5792 203.665 77.2668V76.6126C203.665 76.3002 203.413 76.047 203.102 76.047Z" fill="#FFC9C9"/>
<path d="M179.196 81.9441H172.643C172.105 81.9441 171.668 82.3822 171.668 82.9227V89.5002C171.668 90.0407 172.105 90.4788 172.643 90.4788H179.196C179.734 90.4788 180.171 90.0407 180.171 89.5002V82.9227C180.171 82.3822 179.734 81.9441 179.196 81.9441Z" fill="#FFC9C9"/>
<path d="M216.976 83.6741H183.78C183.469 83.6741 183.217 83.9273 183.217 84.2396V84.8939C183.217 85.2063 183.469 85.4595 183.78 85.4595H216.976C217.287 85.4595 217.54 85.2063 217.54 84.8939V84.2396C217.54 83.9273 217.287 83.6741 216.976 83.6741Z" fill="#FFC9C9"/>
<path d="M203.102 87.1931H183.78C183.469 87.1931 183.217 87.4463 183.217 87.7587V88.413C183.217 88.7253 183.469 88.9785 183.78 88.9785H203.102C203.413 88.9785 203.665 88.7253 203.665 88.413V87.7587C203.665 87.4463 203.413 87.1931 203.102 87.1931Z" fill="#FFC9C9"/>
<path d="M217.537 44.6431V54.4133C217.536 54.8993 217.343 55.3651 217 55.7083C216.657 56.0515 216.193 56.244 215.709 56.2434H173.492C173.009 56.2429 172.545 56.0498 172.204 55.7067C171.862 55.3636 171.67 54.8984 171.67 54.4133V44.6431C171.67 44.1581 171.862 43.693 172.204 43.35C172.546 43.007 173.009 42.8141 173.492 42.8137H215.712C216.196 42.8139 216.659 43.0066 217.001 43.3496C217.343 43.6926 217.536 44.1578 217.537 44.6431Z" fill="#FFC9C9"/>
<g opacity="0.05">
<path d="M154.713 111.291V143.037C154.714 143.391 154.646 143.741 154.511 144.067C154.377 144.394 154.18 144.69 153.931 144.94C153.682 145.19 153.386 145.388 153.061 145.523C152.736 145.657 152.387 145.726 152.035 145.725H86.1487V108.603H152.039C152.39 108.603 152.738 108.672 153.063 108.808C153.388 108.943 153.683 109.141 153.931 109.39C154.179 109.64 154.376 109.936 154.511 110.262C154.645 110.589 154.714 110.938 154.713 111.291Z" fill="black"/>
</g>
<path d="M152.257 108.84V140.586C152.257 140.939 152.188 141.289 152.054 141.616C151.92 141.942 151.722 142.239 151.473 142.488C151.225 142.738 150.929 142.936 150.604 143.071C150.279 143.206 149.93 143.275 149.579 143.274H78.9969C78.6451 143.275 78.2968 143.205 77.9718 143.07C77.6468 142.935 77.3515 142.737 77.1027 142.487C76.854 142.238 76.6567 141.941 76.522 141.615C76.3874 141.289 76.3181 140.939 76.3181 140.586V108.84C76.3191 108.128 76.6016 107.444 77.1038 106.94C77.606 106.437 78.2868 106.153 78.9969 106.152H149.579C149.93 106.152 150.279 106.222 150.604 106.357C150.928 106.492 151.224 106.69 151.472 106.939C151.721 107.189 151.918 107.485 152.053 107.812C152.187 108.138 152.257 108.487 152.257 108.84Z" fill="#D07474"/>
<path d="M98.6151 132.031C102.581 128.05 102.581 121.595 98.6151 117.614C94.6488 113.632 88.2181 113.632 84.2517 117.614C80.2854 121.595 80.2854 128.05 84.2518 132.031C88.2181 136.012 94.6488 136.012 98.6151 132.031Z" fill="white"/>
<path d="M147.687 117.623V120.273C147.687 120.581 147.565 120.877 147.348 121.095C147.131 121.313 146.836 121.435 146.529 121.436H107.673C107.365 121.435 107.071 121.313 106.854 121.095C106.637 120.877 106.515 120.581 106.515 120.273V117.623C106.514 117.471 106.544 117.319 106.602 117.178C106.66 117.037 106.745 116.909 106.853 116.801C106.961 116.693 107.088 116.607 107.229 116.549C107.37 116.491 107.52 116.461 107.673 116.462H146.534C146.685 116.462 146.836 116.492 146.976 116.55C147.116 116.609 147.243 116.695 147.351 116.802C147.458 116.91 147.543 117.038 147.6 117.179C147.658 117.32 147.688 117.471 147.687 117.623Z" fill="white"/>
<path d="M146.477 124.71C146.477 124.833 146.428 124.951 146.341 125.038C146.254 125.125 146.137 125.174 146.014 125.175H106.971C106.851 125.17 106.738 125.119 106.655 125.032C106.572 124.945 106.526 124.83 106.526 124.709C106.526 124.589 106.572 124.473 106.655 124.387C106.738 124.3 106.851 124.249 106.971 124.244H146.014C146.075 124.244 146.135 124.256 146.192 124.279C146.248 124.302 146.299 124.337 146.342 124.38C146.385 124.423 146.419 124.475 146.443 124.531C146.466 124.588 146.477 124.649 146.477 124.71Z" fill="white"/>
<path d="M146.477 127.303C146.477 127.427 146.428 127.545 146.341 127.632C146.255 127.719 146.137 127.769 146.014 127.769H106.971C106.849 127.767 106.733 127.717 106.648 127.63C106.562 127.543 106.515 127.426 106.515 127.303C106.514 127.243 106.525 127.183 106.548 127.126C106.571 127.07 106.604 127.019 106.647 126.976C106.689 126.933 106.74 126.898 106.795 126.875C106.851 126.851 106.911 126.839 106.971 126.839H146.014C146.075 126.838 146.135 126.85 146.192 126.873C146.248 126.896 146.299 126.931 146.342 126.974C146.385 127.017 146.419 127.069 146.443 127.125C146.466 127.182 146.477 127.242 146.477 127.303Z" fill="white"/>
<path d="M146.477 129.903C146.477 130.027 146.428 130.145 146.341 130.232C146.254 130.319 146.137 130.368 146.014 130.368H106.971C106.851 130.364 106.738 130.313 106.655 130.226C106.572 130.139 106.526 130.023 106.526 129.903C106.526 129.783 106.572 129.667 106.655 129.58C106.738 129.494 106.851 129.443 106.971 129.438H146.014C146.075 129.438 146.135 129.45 146.192 129.473C146.248 129.496 146.299 129.53 146.342 129.574C146.385 129.617 146.419 129.668 146.443 129.725C146.466 129.782 146.477 129.842 146.477 129.903Z" fill="white"/>
<path d="M136.355 132.5C136.354 132.623 136.306 132.742 136.219 132.829C136.132 132.916 136.014 132.965 135.892 132.966H106.971C106.849 132.964 106.733 132.914 106.648 132.827C106.562 132.74 106.515 132.622 106.515 132.5C106.514 132.439 106.525 132.379 106.548 132.323C106.571 132.267 106.604 132.216 106.647 132.172C106.689 132.129 106.74 132.095 106.795 132.071C106.851 132.048 106.911 132.036 106.971 132.035H135.892C135.952 132.035 136.013 132.047 136.069 132.07C136.126 132.093 136.177 132.127 136.22 132.171C136.263 132.214 136.297 132.265 136.32 132.322C136.343 132.378 136.355 132.439 136.355 132.5Z" fill="white"/>
<path d="M94.9915 128.817C94.6814 129.274 94.2529 129.638 93.7521 129.869C93.1683 130.143 92.5364 130.297 91.8928 130.323V131.414C91.8945 131.475 91.8839 131.535 91.8615 131.592C91.8392 131.649 91.8055 131.7 91.7627 131.744C91.6703 131.826 91.5512 131.873 91.4273 131.874C91.3034 131.876 91.1833 131.832 91.089 131.751C91.0447 131.708 91.0102 131.655 90.9878 131.597C90.9653 131.538 90.9555 131.476 90.9589 131.414V130.323C89.8949 130.26 88.8494 130.016 87.8673 129.601C87.7429 129.548 87.6366 129.46 87.5612 129.347C87.4731 129.224 87.4303 129.074 87.4401 128.923C87.4499 128.771 87.5117 128.628 87.6149 128.518C87.6719 128.455 87.7418 128.405 87.8198 128.372C87.8978 128.339 87.982 128.323 88.0666 128.325C88.1668 128.325 88.2658 128.346 88.3572 128.387C89.1783 128.754 90.0609 128.963 90.9589 129.002V125.468C90.3594 125.317 89.7733 125.116 89.2063 124.869C88.7441 124.663 88.3376 124.35 88.0207 123.955C87.704 123.561 87.5458 123.062 87.5463 122.457C87.5424 121.939 87.6772 121.43 87.9366 120.982C88.218 120.511 88.6194 120.124 89.0995 119.861C89.6147 119.564 90.2345 119.385 90.9589 119.323V118.248C90.9559 118.122 91.0027 118.001 91.089 117.91C91.1306 117.864 91.1815 117.828 91.2384 117.803C91.2952 117.779 91.3566 117.767 91.4184 117.768C91.4808 117.768 91.5427 117.78 91.6005 117.803C91.6583 117.827 91.7108 117.862 91.7549 117.907C91.799 117.951 91.834 118.004 91.8576 118.062C91.8813 118.12 91.8933 118.182 91.8928 118.244V119.305C92.8925 119.346 93.7799 119.515 94.5553 119.811C94.6858 119.849 94.7996 119.931 94.8776 120.043C94.9557 120.154 94.9933 120.29 94.9844 120.426C94.9841 120.59 94.924 120.748 94.8154 120.871C94.7617 120.936 94.6937 120.988 94.6169 121.023C94.54 121.057 94.4563 121.074 94.3722 121.071C94.2874 121.065 94.2044 121.045 94.1268 121.01C93.4074 120.759 92.6541 120.619 91.8928 120.595V124.252C92.5168 124.391 93.1284 124.581 93.7217 124.82C94.197 125.018 94.6152 125.332 94.9385 125.734C95.2641 126.138 95.4272 126.673 95.4277 127.339C95.4341 127.865 95.2821 128.38 94.9915 128.817ZM89.4516 123.394C89.7928 123.641 90.2953 123.851 90.9589 124.024V120.644C90.3462 120.727 89.8565 120.913 89.4898 121.205C89.3139 121.338 89.1722 121.511 89.0764 121.71C88.9807 121.909 88.9336 122.129 88.939 122.35C88.9381 122.8 89.109 123.149 89.4516 123.394ZM94.047 127.25C94.047 126.85 93.866 126.541 93.504 126.321C93.142 126.101 92.6038 125.893 91.8893 125.698V129.002C93.3306 128.899 94.051 128.316 94.0505 127.25H94.047Z" fill="#060405"/>
<g opacity="0.05">
<path d="M229.519 105.634V148.982H163.99C162.876 148.98 161.807 148.535 161.02 147.743C160.232 146.951 159.79 145.878 159.79 144.76V109.847C159.791 108.729 160.234 107.657 161.022 106.867C161.809 106.077 162.877 105.632 163.99 105.631L229.519 105.634Z" fill="black"/>
</g>
<path d="M237.847 108.244V143.154C237.847 143.709 237.738 144.257 237.527 144.769C237.315 145.281 237.005 145.746 236.615 146.137C236.224 146.529 235.761 146.839 235.251 147.051C234.74 147.262 234.194 147.371 233.642 147.37H165.433C164.319 147.37 163.25 146.926 162.463 146.136C161.675 145.345 161.232 144.273 161.232 143.154V108.244C161.232 107.691 161.341 107.142 161.552 106.631C161.763 106.119 162.072 105.654 162.462 105.263C162.852 104.871 163.315 104.561 163.825 104.349C164.335 104.137 164.881 104.028 165.433 104.028H233.642C234.194 104.027 234.74 104.136 235.251 104.347C235.761 104.559 236.225 104.87 236.615 105.261C237.006 105.653 237.316 106.118 237.527 106.63C237.739 107.142 237.847 107.69 237.847 108.244Z" fill="#FFC9C9"/>
<path d="M227.357 139.056H216.693C216.701 136.388 216.085 133.754 214.894 131.368L224.431 126.582C226.366 130.453 227.368 134.726 227.357 139.056Z" fill="#F2CB2A"/>
<g opacity="0.2">
<path d="M227.357 139.056H216.693C216.701 136.388 216.085 133.754 214.894 131.368L224.431 126.582C226.366 130.453 227.368 134.726 227.357 139.056Z" fill="white"/>
</g>
<path d="M214.894 131.369C212.964 127.48 209.64 124.469 205.589 122.939L209.352 112.924C215.915 115.403 221.302 120.282 224.429 126.582L214.894 131.369Z" fill="#F2CB2A"/>
<g opacity="0.1">
<path d="M214.894 131.369C212.964 127.48 209.64 124.469 205.589 122.939L209.352 112.924C215.915 115.403 221.302 120.282 224.429 126.582L214.894 131.369Z" fill="white"/>
</g>
<path d="M205.589 122.939C202.339 121.719 198.799 121.508 195.428 122.334L192.883 111.939C198.345 110.598 204.083 110.941 209.348 112.924L205.589 122.939Z" fill="#FF7545"/>
<g opacity="0.15">
<path d="M205.589 122.939C202.339 121.719 198.799 121.508 195.428 122.334L192.883 111.939C198.345 110.598 204.083 110.941 209.348 112.924L205.589 122.939Z" fill="white"/>
</g>
<path d="M182.386 139.056H171.725C171.725 126.161 180.428 115.011 192.891 111.939L195.436 122.334C191.707 123.248 188.393 125.394 186.026 128.427C183.659 131.46 182.377 135.204 182.386 139.056Z" fill="#FF7545"/>
<path d="M184.177 139.056H169.93C169.917 131.428 172.839 124.089 178.087 118.571L188.409 128.429C185.686 131.291 184.17 135.099 184.177 139.056Z" fill="#060405"/>
<g opacity="0.05">
<path d="M137.567 161.798V179.546C137.567 179.909 137.496 180.268 137.358 180.604C137.22 180.939 137.017 181.244 136.761 181.5C136.506 181.757 136.202 181.96 135.868 182.099C135.534 182.237 135.176 182.309 134.815 182.308H111.29C110.56 182.308 109.861 182.017 109.344 181.499C108.828 180.981 108.538 180.279 108.538 179.546V161.798C108.538 161.065 108.828 160.363 109.344 159.845C109.861 159.327 110.56 159.036 111.29 159.036H134.815C135.176 159.036 135.534 159.107 135.868 159.245C136.202 159.384 136.506 159.587 136.761 159.844C137.017 160.1 137.22 160.405 137.358 160.74C137.496 161.076 137.567 161.435 137.567 161.798Z" fill="black"/>
</g>
<g opacity="0.05">
<path d="M171.959 161.798V179.546C171.96 179.909 171.889 180.268 171.75 180.604C171.612 180.939 171.409 181.243 171.154 181.5C170.898 181.756 170.595 181.96 170.261 182.098C169.927 182.237 169.569 182.308 169.207 182.308H145.682C144.951 182.308 144.251 182.017 143.734 181.5C143.217 180.982 142.926 180.279 142.925 179.546V161.798C142.926 161.065 143.217 160.362 143.734 159.844C144.251 159.327 144.951 159.036 145.682 159.036H169.207C169.569 159.036 169.927 159.107 170.261 159.246C170.595 159.384 170.898 159.588 171.154 159.844C171.409 160.101 171.612 160.405 171.75 160.74C171.889 161.076 171.96 161.435 171.959 161.798Z" fill="black"/>
</g>
<g opacity="0.05">
<path d="M206.346 161.798V179.546C206.346 179.909 206.275 180.268 206.137 180.604C205.999 180.939 205.796 181.244 205.54 181.5C205.285 181.757 204.981 181.96 204.647 182.099C204.313 182.237 203.955 182.309 203.594 182.308H180.067C179.337 182.308 178.637 182.017 178.121 181.499C177.605 180.981 177.315 180.279 177.315 179.546V161.798C177.315 161.065 177.605 160.363 178.121 159.845C178.637 159.327 179.337 159.036 180.067 159.036H203.592C203.953 159.035 204.311 159.106 204.646 159.245C204.98 159.383 205.284 159.587 205.54 159.843C205.796 160.1 205.998 160.404 206.137 160.74C206.275 161.075 206.346 161.435 206.346 161.798Z" fill="black"/>
</g>
<path d="M136.463 159.582V177.332C136.463 177.695 136.392 178.054 136.254 178.389C136.116 178.725 135.913 179.029 135.657 179.286C135.402 179.542 135.099 179.746 134.765 179.884C134.431 180.023 134.073 180.094 133.711 180.094H110.186C109.456 180.094 108.756 179.803 108.24 179.285C107.724 178.767 107.435 178.065 107.434 177.332V159.582C107.435 158.849 107.724 158.147 108.24 157.629C108.756 157.111 109.456 156.82 110.186 156.82H133.711C134.073 156.819 134.431 156.891 134.765 157.029C135.099 157.168 135.402 157.371 135.657 157.628C135.913 157.885 136.116 158.189 136.254 158.524C136.392 158.86 136.463 159.219 136.463 159.582Z" fill="#FFC9C9"/>
<path d="M170.855 159.582V177.332C170.855 177.695 170.784 178.054 170.646 178.389C170.508 178.725 170.305 179.029 170.05 179.286C169.794 179.542 169.491 179.746 169.157 179.884C168.823 180.023 168.465 180.094 168.104 180.094H144.577C143.847 180.094 143.146 179.803 142.629 179.285C142.112 178.768 141.821 178.065 141.82 177.332V159.582C141.821 158.849 142.112 158.146 142.629 157.628C143.146 157.111 143.847 156.82 144.577 156.82H168.102C168.464 156.819 168.822 156.89 169.156 157.029C169.49 157.168 169.794 157.371 170.049 157.628C170.305 157.884 170.508 158.189 170.646 158.524C170.784 158.859 170.855 159.219 170.855 159.582Z" fill="#FFC9C9"/>
<path d="M205.242 159.582V177.332C205.242 177.695 205.171 178.054 205.033 178.389C204.895 178.725 204.692 179.029 204.436 179.286C204.181 179.542 203.877 179.746 203.543 179.884C203.21 180.023 202.852 180.094 202.49 180.094H178.965C178.235 180.094 177.535 179.803 177.019 179.285C176.503 178.767 176.213 178.065 176.213 177.332V159.582C176.213 158.849 176.503 158.147 177.019 157.629C177.535 157.111 178.235 156.82 178.965 156.82H202.49C202.852 156.819 203.21 156.891 203.543 157.029C203.877 157.168 204.181 157.371 204.436 157.628C204.692 157.885 204.895 158.189 205.033 158.524C205.171 158.86 205.242 159.219 205.242 159.582Z" fill="#FFC9C9"/>
<g opacity="0.05">
<path d="M237.848 129.906V143.154C237.847 143.708 237.738 144.257 237.527 144.769C237.315 145.281 237.005 145.746 236.615 146.137C236.224 146.529 235.761 146.839 235.251 147.051C234.74 147.262 234.194 147.371 233.642 147.37H229.519V188.976C229.519 194.488 225.046 198.972 219.554 198.972H218.796V133.653C218.796 133.161 218.892 132.673 219.08 132.219C219.267 131.764 219.542 131.351 219.889 131.003C220.235 130.656 220.647 130.38 221.1 130.191C221.553 130.003 222.038 129.906 222.528 129.906H237.848Z" fill="black"/>
</g>
<path d="M276.228 132.035H224.761C222.753 132.035 221.125 133.669 221.125 135.685V206.858C221.125 208.874 222.753 210.508 224.761 210.508H276.228C278.236 210.508 279.864 208.874 279.864 206.858V135.685C279.864 133.669 278.236 132.035 276.228 132.035Z" fill="#D07474"/>
<g opacity="0.1">
<path d="M236.771 160.829H228.925C228.408 160.829 227.989 161.25 227.989 161.769V169.739C227.989 170.258 228.408 170.679 228.925 170.679H236.771C237.289 170.679 237.708 170.258 237.708 169.739V161.769C237.708 161.25 237.289 160.829 236.771 160.829Z" fill="black"/>
<path d="M249.069 160.829H241.223C240.705 160.829 240.286 161.25 240.286 161.769V169.739C240.286 170.258 240.705 170.679 241.223 170.679H249.069C249.586 170.679 250.005 170.258 250.005 169.739V161.769C250.005 161.25 249.586 160.829 249.069 160.829Z" fill="black"/>
<path d="M260.974 160.829H253.128C252.611 160.829 252.191 161.25 252.191 161.769V169.739C252.191 170.258 252.611 170.679 253.128 170.679H260.974C261.491 170.679 261.911 170.258 261.911 169.739V161.769C261.911 161.25 261.491 160.829 260.974 160.829Z" fill="black"/>
<path d="M273.271 160.829H265.425C264.908 160.829 264.488 161.25 264.488 161.769V169.739C264.488 170.258 264.908 170.679 265.425 170.679H273.271C273.789 170.679 274.208 170.258 274.208 169.739V161.769C274.208 161.25 273.789 160.829 273.271 160.829Z" fill="black"/>
</g>
<g opacity="0.1">
<path d="M236.771 172.863H228.925C228.408 172.863 227.989 173.284 227.989 173.803V181.772C227.989 182.292 228.408 182.713 228.925 182.713H236.771C237.289 182.713 237.708 182.292 237.708 181.772V173.803C237.708 173.284 237.289 172.863 236.771 172.863Z" fill="black"/>
<path d="M248.676 172.863H240.83C240.313 172.863 239.893 173.284 239.893 173.803V181.772C239.893 182.292 240.313 182.713 240.83 182.713H248.676C249.194 182.713 249.613 182.292 249.613 181.772V173.803C249.613 173.284 249.194 172.863 248.676 172.863Z" fill="black"/>
<path d="M260.974 172.863H253.128C252.611 172.863 252.191 173.284 252.191 173.803V181.772C252.191 182.292 252.611 182.713 253.128 182.713H260.974C261.491 182.713 261.911 182.292 261.911 181.772V173.803C261.911 173.284 261.491 172.863 260.974 172.863Z" fill="black"/>
<path d="M273.271 172.863H265.425C264.908 172.863 264.488 173.284 264.488 173.803V181.772C264.488 182.292 264.908 182.713 265.425 182.713H273.271C273.789 182.713 274.208 182.292 274.208 181.772V173.803C274.208 173.284 273.789 172.863 273.271 172.863Z" fill="black"/>
</g>
<g opacity="0.1">
<path d="M236.771 184.898H228.925C228.408 184.898 227.989 185.319 227.989 185.838V193.807C227.989 194.326 228.408 194.747 228.925 194.747H236.771C237.289 194.747 237.708 194.326 237.708 193.807V185.838C237.708 185.319 237.289 184.898 236.771 184.898Z" fill="black"/>
<path d="M248.676 184.898H240.83C240.313 184.898 239.893 185.319 239.893 185.838V193.807C239.893 194.326 240.313 194.747 240.83 194.747H248.676C249.194 194.747 249.613 194.326 249.613 193.807V185.838C249.613 185.319 249.194 184.898 248.676 184.898Z" fill="black"/>
<path d="M260.974 184.898H253.128C252.611 184.898 252.191 185.319 252.191 185.838V193.807C252.191 194.326 252.611 194.747 253.128 194.747H260.974C261.491 194.747 261.911 194.326 261.911 193.807V185.838C261.911 185.319 261.491 184.898 260.974 184.898Z" fill="black"/>
</g>
<g opacity="0.1">
<path d="M236.771 196.932H228.925C228.408 196.932 227.989 197.353 227.989 197.872V205.842C227.989 206.361 228.408 206.782 228.925 206.782H236.771C237.289 206.782 237.708 206.361 237.708 205.842V197.872C237.708 197.353 237.289 196.932 236.771 196.932Z" fill="black"/>
<path d="M248.676 196.932H240.83C240.313 196.932 239.893 197.353 239.893 197.872V205.842C239.893 206.361 240.313 206.782 240.83 206.782H248.676C249.194 206.782 249.613 206.361 249.613 205.842V197.872C249.613 197.353 249.194 196.932 248.676 196.932Z" fill="black"/>
<path d="M260.974 196.932H253.128C252.611 196.932 252.191 197.353 252.191 197.872V205.842C252.191 206.361 252.611 206.782 253.128 206.782H260.974C261.491 206.782 261.911 206.361 261.911 205.842V197.872C261.911 197.353 261.491 196.932 260.974 196.932Z" fill="black"/>
<path d="M273.271 184.898H265.425C264.908 184.898 264.488 185.319 264.488 185.838V205.841C264.488 206.36 264.908 206.781 265.425 206.781H273.271C273.789 206.781 274.208 206.36 274.208 205.841V185.838C274.208 185.319 273.789 184.898 273.271 184.898Z" fill="black"/>
</g>
<g opacity="0.1">
<path d="M275.355 141.252V153.935C275.353 154.513 275.124 155.066 274.717 155.474C274.31 155.883 273.758 156.113 273.183 156.114H230.226C230.14 156.114 230.053 156.107 229.968 156.094C229.441 156.03 228.955 155.775 228.603 155.377C228.25 154.979 228.055 154.466 228.054 153.933V141.252C228.055 140.674 228.285 140.12 228.692 139.711C229.099 139.303 229.65 139.072 230.226 139.071H273.183C273.759 139.072 274.31 139.303 274.717 139.711C275.125 140.12 275.354 140.674 275.355 141.252Z" fill="black"/>
</g>
<path d="M226.843 139.968V152.652C226.845 153.23 227.074 153.784 227.482 154.193C227.889 154.602 228.441 154.832 229.017 154.833H271.974C272.061 154.833 272.147 154.826 272.233 154.812C272.445 154.788 272.651 154.73 272.846 154.642C273.231 154.473 273.559 154.195 273.79 153.842C274.022 153.49 274.145 153.077 274.147 152.655V139.968C274.146 139.39 273.916 138.836 273.509 138.428C273.102 138.019 272.55 137.789 271.974 137.787H229.018C228.853 137.787 228.688 137.808 228.527 137.849C228.049 137.959 227.623 138.228 227.317 138.613C227.011 138.998 226.844 139.476 226.843 139.968Z" fill="#FFC9C9"/>
<path d="M226.843 139.968V141.145C238.948 140.859 251.051 140.573 263.151 140.29C265.304 140.235 267.647 140.242 269.364 141.548C271.217 142.956 271.802 145.493 271.877 147.818C271.952 150.143 271.639 152.529 272.225 154.785C272.225 154.792 272.231 154.806 272.231 154.812C272.758 154.749 273.244 154.494 273.596 154.096C273.949 153.698 274.145 153.185 274.146 152.652V139.968C274.144 139.39 273.915 138.836 273.507 138.428C273.1 138.019 272.548 137.789 271.973 137.787H229.017C228.441 137.789 227.889 138.019 227.482 138.428C227.075 138.836 226.845 139.39 226.843 139.968Z" fill="#FFC9C9"/>
<path d="M274.105 141.732L274.146 141.226V141.773C274.129 141.764 274.114 141.75 274.105 141.732Z" fill="#00F2FE"/>
<g opacity="0.25">
<path d="M262.838 137.787L251.864 154.833H256.087L267.075 137.787H262.838Z" fill="white"/>
</g>
<g opacity="0.25">
<path d="M256.251 137.787L245.276 154.833H243.165L254.139 137.787H256.251Z" fill="white"/>
</g>
<g opacity="0.25">
<path d="M249.861 137.787L238.873 154.837H229.017C228.93 154.837 228.843 154.83 228.757 154.816C228.545 154.791 228.338 154.734 228.144 154.645L238.996 137.791L249.861 137.787Z" fill="white"/>
</g>
<g opacity="0.25">
<path d="M274.146 139.968V143.654L266.938 154.837H261.516L272.463 137.852C272.94 137.963 273.366 138.232 273.672 138.616C273.977 139 274.144 139.477 274.146 139.968Z" fill="white"/>
</g>
<path d="M235.971 160.14H228.124C227.607 160.14 227.188 160.561 227.188 161.08V169.049C227.188 169.569 227.607 169.99 228.124 169.99H235.971C236.488 169.99 236.907 169.569 236.907 169.049V161.08C236.907 160.561 236.488 160.14 235.971 160.14Z" fill="white"/>
<path d="M248.024 160.386H240.178C239.66 160.386 239.241 160.807 239.241 161.327V169.296C239.241 169.815 239.66 170.236 240.178 170.236H248.024C248.541 170.236 248.96 169.815 248.96 169.296V161.327C248.96 160.807 248.541 160.386 248.024 160.386Z" fill="white"/>
<path d="M259.929 160.386H252.082C251.565 160.386 251.146 160.807 251.146 161.327V169.296C251.146 169.815 251.565 170.236 252.082 170.236H259.929C260.446 170.236 260.865 169.815 260.865 169.296V161.327C260.865 160.807 260.446 160.386 259.929 160.386Z" fill="white"/>
<path d="M272.471 160.14H264.625C264.108 160.14 263.688 160.561 263.688 161.08V169.049C263.688 169.569 264.108 169.99 264.625 169.99H272.471C272.988 169.99 273.408 169.569 273.408 169.049V161.08C273.408 160.561 272.988 160.14 272.471 160.14Z" fill="#EFC102"/>
<path d="M235.971 172.175H228.124C227.607 172.175 227.188 172.596 227.188 173.115V181.084C227.188 181.603 227.607 182.024 228.124 182.024H235.971C236.488 182.024 236.907 181.603 236.907 181.084V173.115C236.907 172.596 236.488 172.175 235.971 172.175Z" fill="white"/>
<path d="M247.631 172.42H239.785C239.267 172.42 238.848 172.841 238.848 173.36V181.33C238.848 181.849 239.267 182.27 239.785 182.27H247.631C248.148 182.27 248.567 181.849 248.567 181.33V173.36C248.567 172.841 248.148 172.42 247.631 172.42Z" fill="white"/>
<path d="M259.929 172.42H252.082C251.565 172.42 251.146 172.841 251.146 173.36V181.33C251.146 181.849 251.565 182.27 252.082 182.27H259.929C260.446 182.27 260.865 181.849 260.865 181.33V173.36C260.865 172.841 260.446 172.42 259.929 172.42Z" fill="white"/>
<path d="M272.471 172.175H264.625C264.108 172.175 263.688 172.596 263.688 173.115V181.084C263.688 181.603 264.108 182.024 264.625 182.024H272.471C272.988 182.024 273.408 181.603 273.408 181.084V173.115C273.408 172.596 272.988 172.175 272.471 172.175Z" fill="#060405"/>
<path d="M235.971 184.209H228.124C227.607 184.209 227.188 184.63 227.188 185.149V193.119C227.188 193.638 227.607 194.059 228.124 194.059H235.971C236.488 194.059 236.907 193.638 236.907 193.119V185.149C236.907 184.63 236.488 184.209 235.971 184.209Z" fill="white"/>
<path d="M247.631 184.455H239.785C239.267 184.455 238.848 184.876 238.848 185.395V193.364C238.848 193.884 239.267 194.304 239.785 194.304H247.631C248.148 194.304 248.567 193.884 248.567 193.364V185.395C248.567 184.876 248.148 184.455 247.631 184.455Z" fill="white"/>
<path d="M259.929 184.455H252.082C251.565 184.455 251.146 184.876 251.146 185.395V193.364C251.146 193.884 251.565 194.304 252.082 194.304H259.929C260.446 194.304 260.865 193.884 260.865 193.364V185.395C260.865 184.876 260.446 184.455 259.929 184.455Z" fill="white"/>
<path d="M235.971 196.243H228.124C227.607 196.243 227.188 196.664 227.188 197.183V205.153C227.188 205.672 227.607 206.093 228.124 206.093H235.971C236.488 206.093 236.907 205.672 236.907 205.153V197.183C236.907 196.664 236.488 196.243 235.971 196.243Z" fill="white"/>
<path d="M247.631 196.489H239.785C239.267 196.489 238.848 196.91 238.848 197.43V205.399C238.848 205.918 239.267 206.339 239.785 206.339H247.631C248.148 206.339 248.567 205.918 248.567 205.399V197.43C248.567 196.91 248.148 196.489 247.631 196.489Z" fill="white"/>
<path d="M259.929 196.489H252.082C251.565 196.489 251.146 196.91 251.146 197.43V205.399C251.146 205.918 251.565 206.339 252.082 206.339H259.929C260.446 206.339 260.865 205.918 260.865 205.399V197.43C260.865 196.91 260.446 196.489 259.929 196.489Z" fill="white"/>
<path d="M272.471 184.209H264.625C264.108 184.209 263.688 184.63 263.688 185.149V205.152C263.688 205.672 264.108 206.093 264.625 206.093H272.471C272.988 206.093 273.408 205.672 273.408 205.152V185.149C273.408 184.63 272.988 184.209 272.471 184.209Z" fill="#FE6021"/>
<path d="M17.4404 217.525L25.9503 149.542L36.4843 217.525H44.4194L47.395 128.245H8.30418C7.87999 129.172 6.48795 139.457 6.51341 149.159C6.56714 170.047 8.69089 209.425 9.49826 217.657L17.4404 217.525Z" fill="#060405"/>
<path d="M17.7974 218.909V217.519H9.5343C9.42614 220.207 9.21404 225.275 9.15112 225.275H22.5964C23.0538 220.84 17.7974 218.909 17.7974 218.909Z" fill="#FF7545"/>
<path d="M22.4112 223.345C22.6007 223.969 22.6637 224.626 22.5964 225.275H9.15112C9.17587 225.275 9.22182 224.474 9.2805 223.345H22.4112Z" fill="#060405"/>
<path d="M44.7516 218.909V217.519H36.4899C36.3817 220.207 36.1696 225.275 36.1067 225.275H49.552C50.0094 220.84 44.7516 218.909 44.7516 218.909Z" fill="#FF7545"/>
<path d="M49.3667 223.345C49.5567 223.969 49.6196 224.626 49.552 225.275H36.1067C36.1314 225.275 36.1774 224.474 36.2361 223.345H49.3667Z" fill="#060405"/>
<path d="M78.7529 72.1164C78.2036 73.8465 75.7914 74.879 75.7914 74.879L62.0364 94.6641C61.2194 95.887 60.0487 96.8292 58.6818 97.3637C57.315 97.8982 55.8178 97.9995 54.3919 97.6538L39.1516 93.9353L47.8877 81.3941C47.8877 81.3941 55.2261 84.9379 55.2686 84.6356C55.311 84.3333 70.8348 69.28 70.8348 69.28C70.8348 69.28 69.2589 64.7171 70.4947 64.512C71.7305 64.3069 72.6277 66.0441 72.6277 66.0441C72.6277 66.0441 76.6942 59.6766 77.5192 60.509C78.3443 61.3414 75.3806 67.6762 75.3806 67.6762C75.3806 67.6762 79.3022 70.3913 78.7529 72.1164Z" fill="white"/>
<path d="M56.0632 98.1526C55.4756 98.1528 54.8901 98.0825 54.3191 97.9432L38.6567 94.1219L47.7916 81.0151L48.0192 81.1251C51.0437 82.5855 54.4527 84.1531 55.1512 84.339C55.7465 83.6457 58.4118 80.9164 70.4926 69.1969C70.1936 68.2985 69.3515 65.5445 69.9171 64.59C69.9719 64.4922 70.0478 64.4081 70.1394 64.3437C70.2309 64.2793 70.3357 64.2364 70.4459 64.2182C71.4682 64.05 72.2502 64.9321 72.6333 65.487C73.5793 64.0372 76.1463 60.2577 77.2612 60.1371C77.3459 60.127 77.4318 60.1359 77.5127 60.1633C77.5935 60.1907 77.6672 60.2358 77.7285 60.2954C78.5769 61.1469 76.714 65.5019 75.7539 67.574C76.6355 68.2127 79.5766 70.5083 79.035 72.2065C78.502 73.8826 76.4291 74.9137 75.9872 75.1159L62.279 94.8329C61.5931 95.855 60.6675 96.6923 59.5837 97.2711C58.4998 97.85 57.2909 98.1526 56.0632 98.1526ZM39.6409 93.7486L54.4591 97.3642C55.8263 97.6939 57.2613 97.5961 58.5715 97.0839C59.8818 96.5718 61.0047 95.6697 61.7897 94.4987L75.597 74.6384L75.6755 74.605C75.6981 74.5951 77.9689 73.603 78.4701 72.0255C78.8639 70.79 76.1824 68.5916 75.2117 67.9189L75.0052 67.777L75.112 67.5485C76.6737 64.2132 77.6797 61.0908 77.31 60.719C76.8724 60.68 74.803 63.1906 72.8772 66.2073L72.6001 66.6408L72.364 66.1831C72.3562 66.1675 71.5552 64.6461 70.5428 64.8079C70.5179 64.8124 70.4945 64.8229 70.4746 64.8384C70.4546 64.854 70.4387 64.8742 70.4283 64.8973C70.0628 65.5132 70.6559 67.8536 71.1155 69.1842L71.1777 69.3637L71.0412 69.4957C65.1132 75.2437 56.2188 83.9309 55.5542 84.7449L55.5443 84.8272L55.3994 84.9131C55.2396 84.9989 54.9752 85.1423 47.9867 81.7737L39.6409 93.7486ZM55.0975 84.3965C55.0654 84.4167 55.0379 84.4434 55.0167 84.475C54.9955 84.5065 54.9811 84.5421 54.9745 84.5795C54.983 84.5554 55.0027 84.5128 55.1003 84.3965H55.0975Z" fill="#060405"/>
<path d="M39.9442 75.0358C39.9442 75.0358 51.1519 78.8103 52.5616 80.3849C52.0144 86.7191 49.639 91.4956 46.1663 95.3375" fill="#D07474"/>
<path d="M48.9151 134.789C48.9151 138.833 6.83722 138.252 5.99309 134.079C5.99309 134.079 6.50423 119.881 5.44447 106.254H1.36946C1.33694 102.554 1.33058 94.6677 1.71446 91.7717C2.61091 85.065 4.47167 83.4456 6.09772 81.0563C6.77925 80.0536 11.5365 76.2954 14.5701 75.1891C17.0445 74.2864 22.2974 73.1872 24.9316 73.1198C28.6298 73.0261 42.5021 73.1198 45.5152 78.8813C50.1954 87.8375 48.9151 134.789 48.9151 134.789Z" fill="#D07474"/>
<path d="M42.6597 120.548C42.6597 120.548 45.0634 116.526 46.9652 117.801C48.8252 119.038 46.0312 121.039 45.9301 121.136" fill="white"/>
<path d="M46.1719 121.321L45.7272 120.917C45.7364 120.908 45.7633 120.885 45.805 120.852C47.1405 119.798 47.3179 119.109 47.3045 118.794C47.2932 118.51 47.1285 118.27 46.8011 118.053C46.6675 117.96 46.5156 117.897 46.3557 117.869C46.1958 117.84 46.0317 117.846 45.8743 117.886C44.42 118.212 42.929 120.68 42.9142 120.704L42.4052 120.397C42.4709 120.287 44.0446 117.686 45.7449 117.305C45.9804 117.246 46.2255 117.239 46.4642 117.282C46.7029 117.326 46.9297 117.419 47.1299 117.557C47.6198 117.882 47.8786 118.29 47.8977 118.77C47.9288 119.522 47.3321 120.406 46.1719 121.321Z" fill="#060405"/>
<path d="M60.4381 137.535H43.9902C43.7092 137.535 43.4319 137.471 43.1799 137.346C42.9278 137.221 42.7077 137.04 42.5367 136.816C42.3658 136.592 42.2485 136.332 42.1941 136.055C42.1396 135.779 42.1495 135.493 42.2228 135.221L48.3466 111.579C48.4516 111.189 48.6816 110.845 49.0012 110.6C49.3207 110.354 49.7118 110.222 50.1141 110.222H66.5619C66.8429 110.222 67.1202 110.286 67.3723 110.411C67.6244 110.536 67.8444 110.717 68.0154 110.941C68.1864 111.164 68.3036 111.425 68.3581 111.702C68.4125 111.978 68.4027 112.264 68.3293 112.536L62.2055 136.178C62.1005 136.568 61.8705 136.912 61.551 137.157C61.2315 137.403 60.8403 137.535 60.4381 137.535Z" fill="white"/>
<path d="M60.4381 137.832H43.9902C43.664 137.832 43.3422 137.756 43.0498 137.611C42.7573 137.466 42.5021 137.255 42.3039 136.995C42.1056 136.735 41.9697 136.433 41.9066 136.112C41.8435 135.79 41.8549 135.459 41.94 135.143L48.0638 111.504C48.1857 111.051 48.4524 110.651 48.8229 110.366C49.1934 110.08 49.647 109.925 50.1141 109.924H66.5619C66.8881 109.924 67.2098 110 67.5022 110.145C67.7945 110.291 68.0497 110.502 68.2479 110.762C68.4461 111.022 68.582 111.324 68.6452 111.645C68.7084 111.966 68.697 112.298 68.6121 112.614L62.4883 136.253C62.3663 136.705 62.0996 137.105 61.7291 137.39C61.3587 137.676 60.9051 137.831 60.4381 137.832ZM50.1162 110.52C49.7798 110.521 49.4529 110.632 49.1857 110.837C48.9185 111.042 48.7258 111.33 48.6372 111.655L42.5141 135.295C42.4524 135.523 42.4439 135.762 42.4892 135.994C42.5345 136.226 42.6324 136.444 42.7752 136.632C42.9181 136.819 43.1022 136.972 43.3131 137.076C43.5241 137.181 43.7563 137.236 43.9917 137.236H60.4395C60.7759 137.236 61.1029 137.124 61.3701 136.919C61.6373 136.714 61.83 136.426 61.9185 136.101L68.0416 112.462C68.1034 112.234 68.1121 111.994 68.0668 111.762C68.0215 111.53 67.9236 111.312 67.7806 111.124C67.6376 110.936 67.4533 110.784 67.2422 110.68C67.0311 110.575 66.7988 110.521 66.5633 110.521L50.1162 110.52Z" fill="#060405"/>
<path d="M46.0122 121.123C46.3233 121.123 55.5493 120.294 55.2701 126.546C55.0735 130.983 42.1953 128.471 42.1953 128.471C42.1953 128.471 6.8139 131.31 2.05099 125.96C0.32385 124.023 1.35886 103.39 1.35886 103.39L16.6875 103.518V114.768L42.7417 120.536" fill="white"/>
<path d="M23.1315 129.531C13.8617 129.531 4.2199 128.842 1.83032 126.159C0.070657 124.187 0.955791 105.5 1.06042 103.376L1.07456 103.092L16.9815 103.224V114.53L42.8024 120.247L42.6745 120.829L16.3884 115.01V103.815L1.63873 103.692C1.23505 111.942 1.07315 124.424 2.26935 125.761C6.88026 130.942 41.8169 128.203 42.169 128.174H42.2093L42.2489 128.182C42.3422 128.2 51.581 129.969 54.283 127.827C54.7228 127.479 54.9476 127.057 54.9709 126.534C55.0296 125.218 54.6429 124.136 53.8207 123.32C51.8214 121.333 47.7796 121.323 46.1344 121.415C46.0694 121.419 46.027 121.42 46.0093 121.42V120.825L46.104 120.82C47.8283 120.724 52.0716 120.74 54.2406 122.896C55.1859 123.837 55.632 125.07 55.5655 126.56C55.5344 127.257 55.2269 127.841 54.6521 128.296C51.8008 130.549 42.9424 128.918 42.1775 128.772C41.2082 128.849 32.354 129.53 23.1315 129.531Z" fill="#060405"/>
<path d="M17.8864 107.898C18.1466 103.063 16.9497 93.1172 15.7316 89.7642C13.2056 82.8098 6.046 81.1337 6.046 81.1337C6.046 81.1337 1.95756 85.334 1.06111 92.0407C0.674396 94.936 0.0572043 103.276 0.0861904 106.972C4.57054 108.261 11.2529 109.004 17.8864 107.898Z" fill="#D07474"/>
<path d="M11.1547 108.733C7.2861 108.733 3.38995 108.232 0 107.259L0.163311 106.686C5.42039 108.195 11.9196 108.55 17.5995 107.643C17.8038 102.817 16.6444 93.1512 15.4503 89.8664L16.0081 89.662C17.241 93.054 18.4387 103.119 18.1806 107.914L18.1679 108.153L17.9332 108.192C15.6921 108.557 13.4251 108.738 11.1547 108.733Z" fill="#060405"/>
<path d="M28.788 66.0164C28.788 66.0164 30.0924 71.1087 31.5495 73.3781C32.6453 75.0869 30.5802 78.3327 28.6947 79.3234C25.6229 80.937 19.6185 73.6499 19.6185 73.6499L19.3782 55.0349L28.788 66.0164Z" fill="white"/>
<path d="M27.7135 79.85C24.3843 79.85 19.6136 74.1126 19.3895 73.8401L19.3224 73.7592L19.0707 54.2196L29.0567 65.8752L29.0744 65.9462C29.0871 65.9966 30.3837 71.0172 31.797 73.2206C32.1752 73.8089 32.2508 74.5916 32.0154 75.4829C31.5912 77.0938 30.2225 78.86 28.834 79.5909C28.4873 79.7682 28.1025 79.8572 27.7135 79.85ZM19.9134 73.5407C21.6002 75.5638 26.2458 80.2722 28.5562 79.0594C29.7955 78.4087 31.0631 76.7695 31.4428 75.3275C31.5757 74.8215 31.6591 74.1005 31.3014 73.5399C29.9108 71.3713 28.6856 66.7985 28.5208 66.1598L19.6857 55.8503L19.9134 73.5407Z" fill="#060405"/>
<path d="M19.7494 52.9387C19.9056 53.1572 21.3535 68.0906 30.3109 67.0794C39.2683 66.0682 36.9353 47.4937 32.9359 43.3778C28.9366 39.262 20.771 42.9521 20.771 42.9521L18.0944 49.4225L19.7494 52.9387Z" fill="white"/>
<path d="M29.4746 67.4258C24.5675 67.4258 21.0616 62.5251 19.5522 53.4887C19.5161 53.2687 19.4921 53.119 19.4758 53.0551L17.7699 49.4289L20.5427 42.7279L20.6494 42.6789C20.9909 42.5249 29.0504 38.9512 33.1481 43.1693C36.1372 46.2462 38.0191 56.3322 35.8494 62.4321C34.801 65.3785 32.8971 67.0873 30.3435 67.3761C30.055 67.409 29.7649 67.4256 29.4746 67.4258ZM20.0075 52.7925C20.0478 52.8635 20.0633 52.9557 20.1354 53.3886C21.695 62.7231 25.1981 67.3555 30.2756 66.7821C32.6207 66.5175 34.3054 64.9861 35.2881 62.2306C37.3553 56.4187 35.5376 46.4832 32.721 43.5837C29.1543 39.9114 21.9566 42.7705 20.9972 43.1757L18.4168 49.4119L20.0075 52.7925Z" fill="#060405"/>
<path d="M27.2339 53.9501C27.5788 53.9368 27.8431 53.5266 27.8243 53.034C27.8054 52.5413 27.5106 52.1527 27.1656 52.166C26.8207 52.1793 26.5564 52.5894 26.5753 53.0821C26.5941 53.5748 26.889 53.9634 27.2339 53.9501Z" fill="#060405"/>
<path d="M32.4983 53.0317C32.5174 53.5242 32.8122 53.9131 33.1565 53.8996C33.5008 53.8861 33.766 53.4738 33.7469 52.9834C33.7278 52.4931 33.433 52.1021 33.0887 52.1156C32.7444 52.1291 32.48 52.5392 32.4983 53.0317Z" fill="#060405"/>
<path d="M30.2063 58.735L29.8344 58.2709C30.0769 58.075 30.3646 58.053 30.6828 58.0126C30.8503 57.9863 30.9917 57.9139 31.0052 57.8472C31.0228 57.7564 30.8687 57.5967 30.757 57.4796C30.3011 56.9967 29.9705 56.4086 29.7942 55.7673C29.6179 55.1259 29.6014 54.4509 29.746 53.8016L30.3236 53.9393C30.2005 54.4887 30.2134 55.0601 30.3614 55.6033C30.5093 56.1465 30.7876 56.6451 31.172 57.0553C31.3742 57.2682 31.6669 57.5669 31.5856 57.9622C31.5205 58.2929 31.2172 58.5299 30.7726 58.6009C30.4905 58.6378 30.3074 58.6534 30.2063 58.735Z" fill="#060405"/>
<path d="M28.3724 63.1637C27.8762 62.945 27.4853 62.5396 27.2837 62.0347L27.8358 61.8147C27.9777 62.1744 28.2556 62.4632 28.6089 62.618C28.9622 62.7727 29.3621 62.7809 29.7214 62.6407L29.937 63.1956C29.4314 63.3912 28.8696 63.3797 28.3724 63.1637Z" fill="#060405"/>
<path d="M38.0834 45.8658C37.7007 46.102 37.294 46.2966 36.8702 46.4463C33.3452 47.615 23.8039 45.4251 23.526 46.7855C23.2432 48.1231 22.6656 56.1405 22.0506 55.152C20.8911 53.2885 20.4634 50.2102 20.3948 55.5466C20.4372 57.5335 19.8434 65.1074 19.8434 65.1074C19.5083 64.1792 17.7882 62.2689 16.604 60.2479C14.5085 56.6777 15.7401 47.217 15.7401 47.217C15.7401 47.217 13.33 45.1477 14.2781 43.0131C15.2226 40.8608 30.506 39.1102 33.6492 39.465C36.6454 39.8035 35.0017 37.7512 34.8716 38.1408C35.1176 37.8201 37.4259 35.0809 38.3845 37.0388C39.2492 38.8334 40.7218 44.2138 38.0834 45.8658Z" fill="#060405"/>
<path d="M47.7447 84.7072L47.1527 84.7543L47.8133 93.1236L48.4053 93.0766L47.7447 84.7072Z" fill="#060405"/>
<path d="M272.562 68.1048L286.776 37.6014L266.368 46.9302L268.938 52.5987L277.742 46.6088L270.351 57.796L272.562 68.1048Z" fill="#FFC9C9"/>
<path d="M268.938 52.5987L273.123 53.6014L277.741 46.6088L268.938 52.5987Z" fill="#060405"/>
<path d="M266.005 84.3242H244.389C244.359 84.3259 244.329 84.3214 244.3 84.3109C244.272 84.3005 244.246 84.2843 244.224 84.2634C244.202 84.2425 244.184 84.2174 244.172 84.1894C244.16 84.1615 244.154 84.1314 244.154 84.101C244.154 84.0706 244.16 84.0405 244.172 84.0125C244.184 83.9846 244.202 83.9594 244.224 83.9385C244.246 83.9176 244.272 83.9015 244.3 83.891C244.329 83.8806 244.359 83.8761 244.389 83.8778H266.005C266.035 83.8761 266.066 83.8806 266.094 83.891C266.122 83.9015 266.148 83.9176 266.17 83.9385C266.193 83.9594 266.21 83.9846 266.222 84.0125C266.234 84.0405 266.24 84.0706 266.24 84.101C266.24 84.1314 266.234 84.1615 266.222 84.1894C266.21 84.2174 266.193 84.2425 266.17 84.2634C266.148 84.2843 266.122 84.3005 266.094 84.3109C266.066 84.3214 266.035 84.3259 266.005 84.3242Z" fill="#FFC9C9"/>
<path d="M266.005 95.0807H244.389C244.33 95.0807 244.273 95.0572 244.232 95.0152C244.19 94.9733 244.166 94.9165 244.166 94.8572C244.166 94.7979 244.19 94.7411 244.232 94.6991C244.273 94.6572 244.33 94.6337 244.389 94.6337H266.005C266.064 94.6337 266.121 94.6572 266.162 94.6991C266.204 94.7411 266.228 94.7979 266.228 94.8572C266.228 94.9165 266.204 94.9733 266.162 95.0152C266.121 95.0572 266.064 95.0807 266.005 95.0807Z" fill="#FFC9C9"/>
<path d="M262.076 89.7024H231.5C231.44 89.7024 231.384 89.6789 231.342 89.637C231.3 89.595 231.277 89.5382 231.277 89.4789C231.277 89.4196 231.3 89.3628 231.342 89.3208C231.384 89.2789 231.44 89.2554 231.5 89.2554H262.076C262.135 89.2554 262.192 89.2789 262.234 89.3208C262.276 89.3628 262.299 89.4196 262.299 89.4789C262.299 89.5382 262.276 89.595 262.234 89.637C262.192 89.6789 262.135 89.7024 262.076 89.7024Z" fill="#FFC9C9"/>
<path d="M248.837 84.3242C248.778 84.324 248.722 84.3004 248.68 84.2587C248.638 84.217 248.615 84.1604 248.615 84.1013V79.5292C248.613 79.4988 248.618 79.4685 248.628 79.4399C248.638 79.4113 248.654 79.3852 248.675 79.3631C248.696 79.341 248.721 79.3234 248.749 79.3113C248.777 79.2993 248.807 79.2931 248.837 79.2931C248.867 79.2931 248.897 79.2993 248.925 79.3113C248.953 79.3234 248.978 79.341 248.999 79.3631C249.02 79.3852 249.036 79.4113 249.046 79.4399C249.057 79.4685 249.061 79.4988 249.059 79.5292V84.1013C249.059 84.1605 249.036 84.2172 248.994 84.2589C248.952 84.3007 248.896 84.3242 248.837 84.3242Z" fill="#FFC9C9"/>
<path d="M256.437 89.7024C256.378 89.7024 256.322 89.6789 256.28 89.637C256.238 89.5951 256.215 89.5382 256.215 89.4789V84.1014C256.213 84.071 256.217 84.0406 256.228 84.012C256.238 83.9835 256.254 83.9573 256.275 83.9352C256.296 83.9131 256.321 83.8955 256.349 83.8835C256.377 83.8714 256.407 83.8652 256.437 83.8652C256.467 83.8652 256.497 83.8714 256.525 83.8835C256.553 83.8955 256.578 83.9131 256.599 83.9352C256.62 83.9573 256.636 83.9835 256.646 84.012C256.657 84.0406 256.661 84.071 256.659 84.1014V89.4803C256.659 89.5393 256.635 89.5956 256.594 89.6372C256.552 89.6788 256.496 89.7023 256.437 89.7024Z" fill="#FFC9C9"/>
<path d="M250.655 94.9004C250.596 94.9004 250.539 94.8768 250.498 94.8349C250.456 94.793 250.432 94.7361 250.432 94.6768V89.4802C250.432 89.421 250.456 89.3641 250.498 89.3222C250.539 89.2803 250.596 89.2567 250.655 89.2567C250.714 89.2567 250.771 89.2803 250.813 89.3222C250.854 89.3641 250.878 89.421 250.878 89.4802V94.6783C250.877 94.7373 250.854 94.7938 250.812 94.8354C250.77 94.877 250.714 94.9004 250.655 94.9004Z" fill="#FFC9C9"/>
<path d="M206.91 9.30009H185.294C185.235 9.30009 185.179 9.27654 185.137 9.23462C185.095 9.1927 185.072 9.13584 185.072 9.07655C185.072 9.01727 185.095 8.96042 185.137 8.9185C185.179 8.87658 185.235 8.85303 185.294 8.85303H206.91C206.969 8.85303 207.026 8.87658 207.068 8.9185C207.109 8.96042 207.133 9.01727 207.133 9.07655C207.133 9.13584 207.109 9.1927 207.068 9.23462C207.026 9.27654 206.969 9.30009 206.91 9.30009Z" fill="#FFC9C9"/>
<path d="M206.91 20.0552H185.294C185.264 20.0569 185.234 20.0524 185.205 20.042C185.177 20.0316 185.151 20.0154 185.129 19.9945C185.107 19.9736 185.089 19.9484 185.077 19.9205C185.065 19.8926 185.059 19.8625 185.059 19.8321C185.059 19.8016 185.065 19.7715 185.077 19.7436C185.089 19.7157 185.107 19.6905 185.129 19.6696C185.151 19.6487 185.177 19.6325 185.205 19.6221C185.234 19.6117 185.264 19.6072 185.294 19.6089H206.91C206.94 19.6072 206.971 19.6117 206.999 19.6221C207.028 19.6325 207.054 19.6487 207.076 19.6696C207.098 19.6905 207.115 19.7157 207.127 19.7436C207.139 19.7715 207.145 19.8016 207.145 19.8321C207.145 19.8625 207.139 19.8926 207.127 19.9205C207.115 19.9484 207.098 19.9736 207.076 19.9945C207.054 20.0154 207.028 20.0316 206.999 20.042C206.971 20.0524 206.94 20.0569 206.91 20.0552Z" fill="#FFC9C9"/>
<path d="M202.984 14.6777H172.408C172.349 14.6777 172.293 14.6541 172.251 14.6122C172.209 14.5703 172.186 14.5134 172.186 14.4541C172.186 14.3948 172.209 14.338 172.251 14.2961C172.293 14.2541 172.349 14.2306 172.408 14.2306H202.984C203.043 14.2306 203.1 14.2541 203.142 14.2961C203.184 14.338 203.207 14.3948 203.207 14.4541C203.207 14.5134 203.184 14.5703 203.142 14.6122C203.1 14.6541 203.043 14.6777 202.984 14.6777Z" fill="#FFC9C9"/>
<path d="M189.743 9.30011C189.713 9.30011 189.685 9.29433 189.657 9.28309C189.63 9.27186 189.606 9.25539 189.585 9.23463C189.565 9.21388 189.548 9.18923 189.537 9.16211C189.526 9.13499 189.52 9.10593 189.52 9.07657V4.50515C189.52 4.44586 189.543 4.38901 189.585 4.34709C189.627 4.30517 189.684 4.28162 189.743 4.28162C189.802 4.28162 189.858 4.30517 189.9 4.34709C189.942 4.38901 189.965 4.44586 189.965 4.50515V9.07941C189.965 9.1382 189.941 9.19433 189.899 9.23564C189.858 9.27695 189.801 9.30011 189.743 9.30011Z" fill="#FFC9C9"/>
<path d="M197.343 14.6777C197.284 14.6777 197.227 14.6541 197.185 14.6122C197.143 14.5703 197.12 14.5134 197.12 14.4542V9.07943C197.12 9.02015 197.143 8.96329 197.185 8.92137C197.227 8.87945 197.284 8.8559 197.343 8.8559C197.402 8.8559 197.458 8.87945 197.5 8.92137C197.542 8.96329 197.565 9.02015 197.565 9.07943V14.457C197.565 14.5158 197.541 14.5719 197.499 14.6132C197.457 14.6545 197.401 14.6777 197.343 14.6777Z" fill="#FFC9C9"/>
<path d="M191.561 19.8757C191.502 19.8757 191.445 19.8522 191.404 19.8105C191.362 19.7687 191.338 19.712 191.338 19.6529V14.4541C191.338 14.3948 191.362 14.338 191.403 14.2961C191.445 14.2541 191.502 14.2306 191.561 14.2306C191.62 14.2306 191.677 14.2541 191.718 14.2961C191.76 14.338 191.784 14.3948 191.784 14.4541V19.6529C191.783 19.712 191.76 19.7687 191.718 19.8105C191.676 19.8522 191.62 19.8757 191.561 19.8757Z" fill="#FFC9C9"/>
<path d="M85.6339 166.671H64.0181C63.959 166.671 63.9024 166.647 63.8606 166.605C63.8189 166.563 63.7954 166.507 63.7954 166.447C63.7954 166.388 63.8189 166.331 63.8606 166.289C63.9024 166.247 63.959 166.224 64.0181 166.224H85.6339C85.693 166.224 85.7496 166.247 85.7914 166.289C85.8332 166.331 85.8566 166.388 85.8566 166.447C85.8566 166.507 85.8332 166.563 85.7914 166.605C85.7496 166.647 85.693 166.671 85.6339 166.671Z" fill="#FFC9C9"/>
<path d="M85.6339 177.426H64.0181C63.959 177.426 63.9024 177.402 63.8606 177.36C63.8189 177.319 63.7954 177.262 63.7954 177.202C63.7954 177.143 63.8189 177.086 63.8606 177.044C63.9024 177.002 63.959 176.979 64.0181 176.979H85.6339C85.693 176.979 85.7496 177.002 85.7914 177.044C85.8332 177.086 85.8566 177.143 85.8566 177.202C85.8566 177.262 85.8332 177.319 85.7914 177.36C85.7496 177.402 85.693 177.426 85.6339 177.426Z" fill="#FFC9C9"/>
<path d="M81.7082 172.048H51.1321C51.0731 172.048 51.0164 172.025 50.9747 171.983C50.9329 171.941 50.9094 171.884 50.9094 171.825C50.9094 171.766 50.9329 171.709 50.9747 171.667C51.0164 171.625 51.0731 171.601 51.1321 171.601H81.7082C81.7672 171.601 81.8239 171.625 81.8656 171.667C81.9074 171.709 81.9309 171.766 81.9309 171.825C81.9309 171.884 81.9074 171.941 81.8656 171.983C81.8239 172.025 81.7672 172.048 81.7082 172.048Z" fill="#FFC9C9"/>
<path d="M68.4665 166.671C68.4074 166.671 68.3508 166.647 68.309 166.605C68.2672 166.563 68.2438 166.507 68.2438 166.447V161.875C68.2438 161.816 68.2672 161.759 68.309 161.717C68.3508 161.675 68.4074 161.652 68.4665 161.652C68.5255 161.652 68.5822 161.675 68.6239 161.717C68.6657 161.759 68.6892 161.816 68.6892 161.875V166.447C68.6892 166.507 68.6657 166.563 68.6239 166.605C68.5822 166.647 68.5255 166.671 68.4665 166.671Z" fill="#FFC9C9"/>
<path d="M76.0664 172.048C76.0074 172.048 75.9507 172.025 75.909 171.983C75.8672 171.941 75.8438 171.884 75.8438 171.825V166.447C75.8438 166.388 75.8672 166.331 75.909 166.289C75.9507 166.247 76.0074 166.224 76.0664 166.224C76.1255 166.224 76.1822 166.247 76.2239 166.289C76.2657 166.331 76.2891 166.388 76.2891 166.447V171.825C76.2891 171.884 76.2657 171.941 76.2239 171.983C76.1822 172.025 76.1255 172.048 76.0664 172.048Z" fill="#FFC9C9"/>
<path d="M70.2848 177.246C70.2258 177.246 70.1691 177.223 70.1274 177.181C70.0856 177.139 70.0621 177.082 70.0621 177.023V171.825C70.0621 171.766 70.0856 171.709 70.1274 171.667C70.1691 171.625 70.2258 171.601 70.2848 171.601C70.3439 171.601 70.4005 171.625 70.4423 171.667C70.4841 171.709 70.5075 171.766 70.5075 171.825V177.023C70.5075 177.082 70.4841 177.139 70.4423 177.181C70.4005 177.223 70.3439 177.246 70.2848 177.246Z" fill="#FFC9C9"/>
</svg>
