<svg width="106" height="101" viewBox="0 0 106 101" fill="none" xmlns="http://www.w3.org/2000/svg">
<path d="M104.021 14.653V78.5852H86.0973C84.3312 78.5852 82.8994 80.017 82.8994 81.7831V99.7067H5.17688C3.41076 99.7067 1.979 98.2749 1.979 96.5088V14.653C1.979 12.8868 3.41076 11.4551 5.17688 11.4551H100.823C102.589 11.4553 104.021 12.8868 104.021 14.653Z" fill="#EDEDED"/>
<path d="M41.3095 58.624C42.8935 58.624 44.1895 59.152 45.1975 60.208C46.2055 61.264 46.7095 62.616 46.7095 64.264C46.7095 66.072 46.1495 67.536 45.0295 68.656C43.9255 69.76 42.4855 70.312 40.7095 70.312C38.8695 70.312 37.4135 69.832 36.3415 68.872C35.2695 67.896 34.6855 66.632 34.5895 65.08H37.3735C37.4855 65.976 37.8215 66.656 38.3815 67.12C38.9415 67.584 39.6855 67.816 40.6135 67.816C41.6215 67.816 42.4215 67.504 43.0135 66.88C43.6055 66.256 43.9015 65.408 43.9015 64.336C43.9015 63.28 43.6055 62.44 43.0135 61.816C42.4215 61.192 41.6375 60.88 40.6615 60.88C39.3335 60.88 38.3335 61.352 37.6615 62.296H34.9735L35.7175 53.2H45.7255V55.576H37.9255L37.6135 59.68H38.1895C39.0695 58.976 40.1095 58.624 41.3095 58.624ZM55.982 64.48H49.07V62.104H55.982V64.48ZM63.4889 64.24C61.9529 64.24 60.6649 63.728 59.6249 62.704C58.6009 61.664 58.0889 60.336 58.0889 58.72C58.0889 57.072 58.6249 55.688 59.6969 54.568C60.7849 53.432 62.2329 52.864 64.0409 52.864C66.0249 52.864 67.5929 53.528 68.7449 54.856C69.8969 56.184 70.4729 58.296 70.4729 61.192C70.4729 62.968 70.2409 64.528 69.7769 65.872C69.3289 67.2 68.6009 68.272 67.5929 69.088C66.5849 69.904 65.3449 70.312 63.8729 70.312C62.4329 70.312 61.2329 69.92 60.2729 69.136C59.3129 68.336 58.7369 67.32 58.5449 66.088H61.3049C61.6889 67.32 62.5609 67.936 63.9209 67.936C65.0729 67.936 65.9849 67.496 66.6569 66.616C67.3289 65.736 67.7049 64.456 67.7849 62.776H67.2089C66.3129 63.752 65.0729 64.24 63.4889 64.24ZM66.4169 56.176C65.8089 55.568 65.0329 55.264 64.0889 55.264C63.1449 55.264 62.3769 55.56 61.7849 56.152C61.1929 56.728 60.8969 57.552 60.8969 58.624C60.8969 59.696 61.1929 60.512 61.7849 61.072C62.3769 61.632 63.1529 61.912 64.1129 61.912C65.0569 61.912 65.8249 61.632 66.4169 61.072C67.0249 60.496 67.3289 59.688 67.3289 58.648C67.3289 57.592 67.0249 56.768 66.4169 56.176Z" fill="#626975"/>
<path d="M104.021 14.651V33.8379H1.98145V14.651C1.98145 12.8849 3.4132 11.4531 5.17932 11.4531H100.823C102.589 11.4531 104.021 12.8849 104.021 14.651Z" fill="#F69A8B"/>
<path d="M104.021 78.5859H86.0973C84.3312 78.5859 82.8994 80.0177 82.8994 81.7838V99.7074L104.021 78.5859Z" fill="#DAE8F0"/>
<path d="M92.7076 22.0765C92.7076 25.4029 90.0042 28.0946 86.6778 28.0946C83.3514 28.0946 80.6479 25.4029 80.6479 22.0765C80.6479 18.7386 83.3514 16.0469 86.6778 16.0469C90.0042 16.0469 92.7076 18.7386 92.7076 22.0765Z" fill="#EDEDED"/>
<path d="M90.2275 18.5214V4.84082C90.2275 2.88034 88.6382 1.29102 86.6777 1.29102C84.7173 1.29102 83.1279 2.88034 83.1279 4.84082V18.5214C83.1279 20.4818 84.7173 22.0712 86.6777 22.0712C88.6382 22.071 90.2275 20.4818 90.2275 18.5214Z" fill="#DAE8F0"/>
<path d="M25.3541 22.0765C25.3541 25.4029 22.6507 28.0946 19.3243 28.0946C15.9979 28.0946 13.2944 25.4029 13.2944 22.0765C13.2944 18.7386 15.9979 16.0469 19.3243 16.0469C22.6507 16.0469 25.3541 18.7386 25.3541 22.0765Z" fill="#EDEDED"/>
<path d="M22.874 18.5214V4.84082C22.874 2.88034 21.2847 1.29102 19.3242 1.29102C17.3637 1.29102 15.7744 2.88034 15.7744 4.84082V18.5214C15.7744 20.4818 17.3637 22.0712 19.3242 22.0712C21.2847 22.071 22.874 20.4818 22.874 18.5214Z" fill="#DAE8F0"/>
<path d="M5.17672 100.717H82.8991C83.1699 100.717 83.4282 100.607 83.6136 100.421L104.734 79.3009C104.887 79.1478 105.03 78.8778 105.03 78.5862V33.8379V14.6537V14.651C105.03 12.3309 103.143 10.4433 100.823 10.4433H91.2373V4.84066C91.2373 2.32658 89.192 0.28125 86.6779 0.28125C84.1632 0.28125 82.1179 2.32658 82.1179 4.84066V10.4433H23.8835V4.84066C23.8835 2.32658 21.8382 0.28125 19.3241 0.28125C16.81 0.28125 14.7647 2.32658 14.7647 4.84066V10.4433H5.17944C2.86034 10.4433 0.969238 12.3321 0.969238 14.6535V96.5096C0.969029 98.8299 2.85658 100.717 5.17672 100.717ZM83.9089 97.2698V81.7841C83.9089 80.5776 84.8905 79.596 86.0969 79.596H101.583L83.9089 97.2698ZM84.1377 4.84066C84.1377 3.44026 85.2771 2.30087 86.6781 2.30087C88.0785 2.30087 89.2179 3.44026 89.2179 4.84066V18.5214C89.2179 19.9218 88.0785 21.0612 86.6781 21.0612C85.2771 21.0612 84.1377 19.9218 84.1377 18.5214V4.84066ZM82.2746 19.6861C82.7914 21.6367 84.5667 23.0808 86.6781 23.0808C88.792 23.0808 90.5694 21.6326 91.0831 19.6777C91.4739 20.3908 91.6975 21.2077 91.6975 22.0769C91.6975 24.8384 89.4457 27.0852 86.6779 27.0852C83.9095 27.0852 81.6577 24.8384 81.6577 22.0769C81.6579 21.2098 81.8846 20.3975 82.2746 19.6861ZM16.7845 4.84066C16.7845 3.44026 17.9239 2.30087 19.3243 2.30087C20.7247 2.30087 21.8641 3.44026 21.8641 4.84066V18.5214C21.8641 19.9218 20.7247 21.0612 19.3243 21.0612C17.9239 21.0612 16.7845 19.9218 16.7845 18.5214V4.84066ZM14.921 19.6848C15.4374 21.6361 17.213 23.0808 19.3243 23.0808C21.4363 23.0808 23.2123 21.6353 23.7281 19.6831C24.118 20.3954 24.3446 21.2089 24.3446 22.0769C24.3446 24.8384 22.0928 27.0852 19.3243 27.0852C16.5559 27.0852 14.3041 24.8384 14.3041 22.0769C14.3041 21.2096 14.5317 20.397 14.921 19.6848ZM2.99137 14.651C2.99137 13.4448 3.97151 12.4657 5.17672 12.4657H14.7649V16.7404C13.2531 18.0309 12.2845 19.9377 12.2845 22.0769C12.2845 25.9523 15.4429 29.105 19.3243 29.105C23.2058 29.105 26.3642 25.9523 26.3642 22.0769C26.3642 19.9354 25.3981 18.0203 23.8837 16.7289V12.4657H82.1181V16.7392C80.6065 18.0299 79.6383 19.9379 79.6383 22.0769C79.6383 25.9523 82.7967 29.105 86.6781 29.105C90.5596 29.105 93.7173 25.9523 93.7173 22.0769C93.7173 19.9389 92.7477 18.0347 91.2375 16.7438V12.4657H100.823C102.029 12.4657 103.011 13.4473 103.011 14.6537V32.8281H2.99137V14.651ZM2.98865 34.8477H103.011V77.5762H86.0967C83.7766 77.5762 81.889 79.4638 81.889 81.7839V98.6976H5.17672C3.97025 98.6976 2.98865 97.716 2.98865 96.5096V34.8477Z" fill="#626975"/>
</svg>
