<svg width="107" height="107" viewBox="0 0 107 107" fill="none" xmlns="http://www.w3.org/2000/svg">
<path d="M104.521 17.653V81.5852H86.5973C84.8312 81.5852 83.3994 83.017 83.3994 84.7831V102.707H5.67688C3.91076 102.707 2.479 101.275 2.479 99.5088V17.653C2.479 15.8868 3.91076 14.4551 5.67688 14.4551H101.323C103.089 14.4553 104.521 15.8868 104.521 17.653Z" fill="#EDEDED"/>
<path d="M35.699 56.2H46.019V59.152L42.371 62.104V62.704C43.683 62.768 44.755 63.24 45.587 64.12C46.435 64.984 46.859 66.168 46.859 67.672C46.859 69.416 46.283 70.792 45.131 71.8C43.995 72.808 42.515 73.312 40.691 73.312C38.915 73.312 37.459 72.816 36.323 71.824C35.203 70.832 34.611 69.584 34.547 68.08H37.355C37.435 68.928 37.779 69.6 38.387 70.096C39.011 70.576 39.779 70.816 40.691 70.816C41.731 70.816 42.555 70.536 43.163 69.976C43.771 69.416 44.075 68.648 44.075 67.672C44.075 66.696 43.779 65.928 43.187 65.368C42.611 64.792 41.787 64.504 40.715 64.504C40.123 64.504 39.619 64.552 39.203 64.648V62.104L42.827 59.152V58.576H35.699V56.2ZM56.0249 67.48H49.1129V65.104H56.0249V67.48ZM68.9319 66.784H71.1159V69.232H68.9319V73H66.2199V69.232H58.0599V66.208L65.4519 56.2H68.9319V66.784ZM60.8199 66.784H66.2919V59.368H65.7159L60.8199 66.208V66.784Z" fill="#626975"/>
<path d="M104.521 17.651V36.8379H2.48145V17.651C2.48145 15.8849 3.9132 14.4531 5.67932 14.4531H101.323C103.089 14.4531 104.521 15.8849 104.521 17.651Z" fill="#F69A8B"/>
<path d="M104.521 81.5859H86.5973C84.8312 81.5859 83.3994 83.0177 83.3994 84.7838V102.707L104.521 81.5859Z" fill="#DAE8F0"/>
<path d="M93.2076 25.0765C93.2076 28.4029 90.5042 31.0946 87.1778 31.0946C83.8514 31.0946 81.1479 28.4029 81.1479 25.0765C81.1479 21.7386 83.8514 19.0469 87.1778 19.0469C90.5042 19.0469 93.2076 21.7386 93.2076 25.0765Z" fill="#EDEDED"/>
<path d="M90.7275 21.5214V7.84082C90.7275 5.88034 89.1382 4.29102 87.1777 4.29102C85.2173 4.29102 83.6279 5.88034 83.6279 7.84082V21.5214C83.6279 23.4818 85.2173 25.0712 87.1777 25.0712C89.1382 25.071 90.7275 23.4818 90.7275 21.5214Z" fill="#DAE8F0"/>
<path d="M25.8541 25.0765C25.8541 28.4029 23.1507 31.0946 19.8243 31.0946C16.4979 31.0946 13.7944 28.4029 13.7944 25.0765C13.7944 21.7386 16.4979 19.0469 19.8243 19.0469C23.1507 19.0469 25.8541 21.7386 25.8541 25.0765Z" fill="#EDEDED"/>
<path d="M23.374 21.5214V7.84082C23.374 5.88034 21.7847 4.29102 19.8242 4.29102C17.8637 4.29102 16.2744 5.88034 16.2744 7.84082V21.5214C16.2744 23.4818 17.8637 25.0712 19.8242 25.0712C21.7847 25.071 23.374 23.4818 23.374 21.5214Z" fill="#DAE8F0"/>
<path d="M5.67672 103.717H83.3991C83.6699 103.717 83.9282 103.607 84.1136 103.421L105.234 82.3009C105.387 82.1478 105.53 81.8778 105.53 81.5862V36.8379V17.6537V17.651C105.53 15.3309 103.643 13.4433 101.323 13.4433H91.7373V7.84066C91.7373 5.32658 89.692 3.28125 87.1779 3.28125C84.6632 3.28125 82.6179 5.32658 82.6179 7.84066V13.4433H24.3835V7.84066C24.3835 5.32658 22.3382 3.28125 19.8241 3.28125C17.31 3.28125 15.2647 5.32658 15.2647 7.84066V13.4433H5.67944C3.36034 13.4433 1.46924 15.3321 1.46924 17.6535V99.5096C1.46903 101.83 3.35658 103.717 5.67672 103.717ZM84.4089 100.27V84.7841C84.4089 83.5776 85.3905 82.596 86.5969 82.596H102.083L84.4089 100.27ZM84.6377 7.84066C84.6377 6.44026 85.7771 5.30087 87.1781 5.30087C88.5785 5.30087 89.7179 6.44026 89.7179 7.84066V21.5214C89.7179 22.9218 88.5785 24.0612 87.1781 24.0612C85.7771 24.0612 84.6377 22.9218 84.6377 21.5214V7.84066ZM82.7746 22.6861C83.2914 24.6367 85.0667 26.0808 87.1781 26.0808C89.292 26.0808 91.0694 24.6326 91.5831 22.6777C91.9739 23.3908 92.1975 24.2077 92.1975 25.0769C92.1975 27.8384 89.9457 30.0852 87.1779 30.0852C84.4095 30.0852 82.1577 27.8384 82.1577 25.0769C82.1579 24.2098 82.3846 23.3975 82.7746 22.6861ZM17.2845 7.84066C17.2845 6.44026 18.4239 5.30087 19.8243 5.30087C21.2247 5.30087 22.3641 6.44026 22.3641 7.84066V21.5214C22.3641 22.9218 21.2247 24.0612 19.8243 24.0612C18.4239 24.0612 17.2845 22.9218 17.2845 21.5214V7.84066ZM15.421 22.6848C15.9374 24.6361 17.713 26.0808 19.8243 26.0808C21.9363 26.0808 23.7123 24.6353 24.2281 22.6831C24.618 23.3954 24.8446 24.2089 24.8446 25.0769C24.8446 27.8384 22.5928 30.0852 19.8243 30.0852C17.0559 30.0852 14.8041 27.8384 14.8041 25.0769C14.8041 24.2096 15.0317 23.397 15.421 22.6848ZM3.49137 17.651C3.49137 16.4448 4.47151 15.4657 5.67672 15.4657H15.2649V19.7404C13.7531 21.0309 12.7845 22.9377 12.7845 25.0769C12.7845 28.9523 15.9429 32.105 19.8243 32.105C23.7058 32.105 26.8642 28.9523 26.8642 25.0769C26.8642 22.9354 25.8981 21.0203 24.3837 19.7289V15.4657H82.6181V19.7392C81.1065 21.0299 80.1383 22.9379 80.1383 25.0769C80.1383 28.9523 83.2967 32.105 87.1781 32.105C91.0596 32.105 94.2173 28.9523 94.2173 25.0769C94.2173 22.9389 93.2477 21.0347 91.7375 19.7438V15.4657H101.323C102.529 15.4657 103.511 16.4473 103.511 17.6537V35.8281H3.49137V17.651ZM3.48865 37.8477H103.511V80.5762H86.5967C84.2766 80.5762 82.389 82.4638 82.389 84.7839V101.698H5.67672C4.47025 101.698 3.48865 100.716 3.48865 99.5096V37.8477Z" fill="#626975"/>
</svg>
