<svg width="150" height="150" viewBox="0 0 150 150" fill="none" xmlns="http://www.w3.org/2000/svg">
<path d="M48.7244 80.5214V93.9433C49.0982 93.483 55.3394 84.6438 59.1933 83.6659C59.27 85.3149 59.27 86.2736 59.27 86.2736H68.8571C68.8636 86.9192 68.9407 87.5621 69.0871 88.191H59.27V90.1084H69.7391C70.789 92.1999 72.5014 93.8853 74.6092 94.9019C76.7248 93.8963 78.4404 92.2077 79.4794 90.1084H89.9484V88.191H80.1314C80.2778 87.5621 80.3549 86.9192 80.3614 86.2736H89.9484C89.9484 86.2736 89.9484 85.3149 90.0348 83.618C93.7065 84.5767 99.9668 93.205 100.494 93.8953V80.5214C100.494 77.6453 92.4123 67.0996 90.0635 64.0414C89.8814 57.1867 89.4403 50.1786 88.4816 45.3563C87.9245 42.5968 87.026 39.9174 85.8069 37.3799H63.2294C62.0372 39.9186 61.1737 42.599 60.6601 45.3563C59.7399 51.5271 59.2498 57.7545 59.1933 63.9934C56.9021 66.9462 48.7244 77.6453 48.7244 80.5214ZM98.5768 80.5214V88.3348C96.4866 85.8901 92.9492 82.2087 90.2264 81.6815H90.073C90.1498 78.1342 90.2169 72.9093 90.1306 67.3009C94.5502 73.1298 98.5768 79.1697 98.5768 80.5214ZM78.444 86.2736C78.4064 87.5826 78.0342 88.8601 77.3629 89.9845C76.6916 91.1089 75.7436 92.0427 74.6092 92.6969C73.4749 92.0427 72.5269 91.1089 71.8556 89.9845C71.1843 88.8601 70.8121 87.5826 70.7744 86.2736V75.0856C70.8654 71.4108 72.2197 67.8796 74.6092 65.0863C77.0239 67.8646 78.3818 71.4052 78.444 75.0856V86.2736ZM58.9921 81.6815C56.2693 82.2087 52.7317 85.8901 50.6417 88.3348V80.5214C50.6417 79.16 54.6971 73.1011 59.1262 67.2338C59.0399 72.8422 59.1262 78.0959 59.1262 81.6143L58.9921 81.6815Z" fill="#F69A8B"/>
<path d="M65.2332 92.708V93.6667C65.2332 102.295 69.4705 108.047 74.475 110.329C79.6711 108.076 83.9853 102.276 83.9853 93.6667V92.708H82.0679V93.6667C82.0679 103.589 76.0856 107.385 74.4942 108.22C72.9315 107.376 67.1505 103.58 67.1505 93.6667V92.708H65.2332Z" fill="#626975"/>
<path d="M74.4657 23C70.2516 26.436 66.7588 30.6716 64.1885 35.4631H84.8197C82.2088 30.6769 78.6922 26.444 74.4657 23Z" fill="#626975"/>
<path d="M61.1109 113.501L25.524 113.91C24.8695 120.455 31.5233 124 34.932 124.954C57.5659 125.227 105.042 125.609 113.878 124.954C122.713 124.3 124.65 117.046 124.513 113.501C112.651 112.955 89.0078 112.192 89.335 113.501C89.6623 114.81 86.7445 116.5 85.2446 117.183H64.7923C61.8472 117.183 61.1109 114.728 61.1109 113.501Z" fill="#DAE8F0"/>
<path d="M26.1744 114.486C26.495 116.841 27.6333 119.014 29.3989 120.619L29.7576 120.93C31.5821 122.439 33.8824 123.265 36.2599 123.255H112.959L113.434 123.246C115.799 123.145 118.061 122.219 119.821 120.619L120.163 120.292C121.733 118.724 122.745 116.685 123.045 114.486H89.2066C88.9228 115.527 88.3216 116.458 87.4817 117.146C86.5548 117.904 85.3948 118.319 84.1974 118.321H65.0225C63.8982 118.321 62.806 117.957 61.9084 117.287L61.7318 117.149C60.8899 116.462 60.2873 115.529 60.003 114.486H26.1744ZM116.243 110.17C116.238 110.716 116.121 111.253 115.908 111.75L125.42 111.76L125.829 111.761V113.128C125.829 116.435 124.557 119.611 122.282 122.002L122.06 122.23C119.645 124.644 116.371 126 112.958 126H36.2616C32.9542 126 29.778 124.728 27.388 122.453L27.1595 122.23C24.7456 119.816 23.3894 116.542 23.3894 113.128V111.76H33.3104C33.097 111.262 32.9813 110.725 32.9764 110.179V62.3616C33.0124 61.1889 33.512 60.0784 34.3649 59.2729L34.528 59.1259C35.3046 58.4619 36.2873 58.0866 37.309 58.0634H55.8446V60.7988H37.3305C36.9973 60.8159 36.6761 60.93 36.4069 61.1272L36.2768 61.2327C35.9444 61.5305 35.7418 61.9468 35.7119 62.3919V110.157C35.7415 110.602 35.9442 111.019 36.2768 111.317L36.4069 111.422C36.721 111.652 37.106 111.77 37.4983 111.751L37.5078 111.75H62.5555V113.118C62.5555 113.773 62.8151 114.401 63.2777 114.863L63.4591 115.027C63.8981 115.387 64.4501 115.585 65.0225 115.585H84.1966C84.8508 115.585 85.4787 115.326 85.9414 114.863L86.1052 114.681C86.4648 114.243 86.6636 113.691 86.6636 113.118V111.75H111.712L111.721 111.751C112.169 111.772 112.608 111.616 112.942 111.317L113.061 111.199C113.323 110.913 113.481 110.546 113.507 110.157V62.3919C113.481 62.0027 113.323 61.6361 113.061 61.3509L112.942 61.2327C112.65 60.9707 112.278 60.8186 111.888 60.7988H93.3745V58.0634H111.69C112.271 58.0465 112.85 58.1448 113.394 58.3518C113.937 58.5587 114.435 58.8705 114.857 59.2697L115.012 59.4231C115.363 59.7895 115.65 60.2139 115.858 60.6783L115.941 60.8796C116.126 61.3526 116.228 61.8545 116.243 62.3631V110.17Z" fill="#626975" stroke="#626975"/>
</svg>
