<svg width="150" height="150" viewBox="0 0 150 150" fill="none" xmlns="http://www.w3.org/2000/svg">
<g clip-path="url(#clip0_6317_1080)">
<path fill-rule="evenodd" clip-rule="evenodd" d="M29.7197 22.5H121.405C122.885 22.5 124.228 23.1044 125.201 24.0781C126.175 25.0519 126.78 26.395 126.78 27.8748V120.737C126.78 122.217 126.175 123.56 125.201 124.534C124.228 125.508 122.885 126.112 121.405 126.112H29.7197C28.2399 126.112 26.8968 125.508 25.9231 124.534C24.9494 123.56 24.345 122.217 24.345 120.737V27.8724C24.345 26.3926 24.9494 25.0495 25.9231 24.0757C26.8968 23.1044 28.2423 22.5 29.7197 22.5Z" fill="#626975"/>
<path fill-rule="evenodd" clip-rule="evenodd" d="M29.7196 25.8936C29.192 25.8936 28.6955 26.1046 28.3238 26.4764C27.9496 26.8505 27.741 27.3446 27.741 27.8722V120.735C27.741 121.263 27.952 121.759 28.3238 122.131C28.6979 122.505 29.192 122.714 29.7196 122.714H121.405C121.932 122.714 122.429 122.502 122.8 122.131C123.175 121.757 123.383 121.263 123.383 120.735V27.8722C123.383 27.3446 123.172 26.8481 122.8 26.4764C122.426 26.1022 121.932 25.8936 121.405 25.8936H29.7196Z" fill="white"/>
<path d="M29.7195 22.5H121.405C122.884 22.5 124.227 23.1044 125.201 24.0781C126.175 25.0519 126.779 26.395 126.779 27.8748V41.4136H24.3472V27.8724C24.3472 26.3926 24.9516 25.0495 25.9253 24.0757C26.8966 23.1044 28.2421 22.5 29.7195 22.5Z" fill="#626975"/>
<path fill-rule="evenodd" clip-rule="evenodd" d="M52.5 27.127C53.8354 27.127 55.0577 27.6562 55.9563 28.5145C56.9092 29.4255 57.5 30.7025 57.5 32.127C57.5 33.5514 56.9092 34.8284 55.9563 35.7394C55.06 36.5951 53.8377 37.127 52.5 37.127C51.1646 37.127 49.9423 36.5977 49.0437 35.7394C48.0908 34.8284 47.5 33.5514 47.5 32.127C47.5 30.7025 48.0908 29.4255 49.0437 28.5145C49.94 27.6588 51.1646 27.127 52.5 27.127Z" fill="#B5D5F5"/>
<path fill-rule="evenodd" clip-rule="evenodd" d="M66.5 27.127C67.8354 27.127 69.0577 27.6562 69.9563 28.5145C70.9092 29.4255 71.5 30.7025 71.5 32.127C71.5 33.5514 70.9092 34.8284 69.9563 35.7394C69.06 36.5951 67.8377 37.127 66.5 37.127C65.1646 37.127 63.9423 36.5977 63.0437 35.7394C62.0908 34.8284 61.5 33.5514 61.5 32.127C61.5 30.7025 62.0908 29.4255 63.0437 28.5145C63.94 27.6588 65.1646 27.127 66.5 27.127Z" fill="#98DB7C"/>
<path fill-rule="evenodd" clip-rule="evenodd" d="M38.5011 27.127C39.8369 27.127 41.0594 27.6562 41.956 28.5145C42.9091 29.4255 43.5 30.7025 43.5 32.127C43.5 33.5514 42.9091 34.8284 41.956 35.7394C41.0594 36.5951 39.8369 37.127 38.5011 37.127C37.1654 37.127 35.9428 36.5977 35.044 35.7394C34.0909 34.8284 33.5 33.5514 33.5 32.127C33.5 30.7025 34.0909 29.4255 35.044 28.5145C35.9428 27.6588 37.1654 27.127 38.5011 27.127Z" fill="#F9EAB0"/>
<path fill-rule="evenodd" clip-rule="evenodd" d="M44.0715 82.0632C44.0715 82.6988 43.5558 83.2145 42.9203 83.2145C42.2847 83.2145 41.769 82.6988 41.769 82.0632C41.769 76.0457 43.376 70.2536 46.29 65.2075L46.2924 65.2051H46.29C49.1992 60.1685 53.4131 55.8802 58.6344 52.8654C66.6977 48.2102 75.8835 47.2628 84.2155 49.4957C92.5498 51.7286 100.033 57.1417 104.688 65.2051C105.007 65.7543 104.818 66.457 104.271 66.7736C103.721 67.0926 103.019 66.9031 102.702 66.3563C98.3635 58.8422 91.3914 53.7984 83.6231 51.7166C75.8523 49.6348 67.2901 50.515 59.7784 54.8537C54.9217 57.6574 50.9956 61.6555 48.2806 66.3563H48.2782C45.5657 71.0475 44.0715 76.4462 44.0715 82.0632Z" fill="#DAE8F0"/>
<path fill-rule="evenodd" clip-rule="evenodd" d="M106.909 82.0634C106.909 81.4302 107.422 80.917 108.055 80.917C108.689 80.917 109.202 81.4302 109.202 82.0634C109.202 88.0881 107.595 93.8826 104.686 98.924C101.776 103.961 97.5625 108.249 92.3413 111.264C84.2779 115.919 75.0922 116.866 66.7602 114.633C58.4259 112.4 50.9429 106.987 46.2877 98.924C45.9687 98.3748 46.1582 97.672 46.705 97.3554C47.2542 97.0365 47.9569 97.2259 48.2735 97.7728C52.6122 105.287 59.5843 110.331 67.3526 112.412C75.1233 114.494 83.6855 113.614 91.1972 109.275C96.0539 106.472 99.9801 102.474 102.695 97.7728C105.41 93.0743 106.909 87.6732 106.909 82.0634Z" fill="#DAE8F0"/>
<path fill-rule="evenodd" clip-rule="evenodd" d="M63.9804 65.1543H87.1487C88.6141 65.1543 89.9452 65.7539 90.9093 66.718C91.8735 67.6822 92.4731 69.0133 92.4731 70.4787V93.647C92.4731 95.1124 91.8735 96.4435 90.9093 97.4076C89.9452 98.3718 88.6141 98.9714 87.1487 98.9714H63.9804C62.515 98.9714 61.1839 98.3718 60.2197 97.4076C59.2556 96.4435 58.656 95.1124 58.656 93.647V70.4787C58.656 69.0133 59.2556 67.6822 60.2197 66.718C61.1839 65.7539 62.515 65.1543 63.9804 65.1543Z" fill="#F69A8B"/>
<path d="M76.3873 88.0466C75.7517 88.0466 75.2361 87.5309 75.2361 86.8954C75.2361 86.2598 75.7517 85.7441 76.3873 85.7441H84.5897C85.2253 85.7441 85.741 86.2598 85.741 86.8954C85.741 87.5309 85.2253 88.0466 84.5897 88.0466H76.3873Z" fill="white"/>
<path d="M76.3873 93.156C75.7517 93.156 75.2361 92.6403 75.2361 92.0047C75.2361 91.3692 75.7517 90.8535 76.3873 90.8535H84.5897C85.2253 90.8535 85.741 91.3692 85.741 92.0047C85.741 92.6403 85.2253 93.156 84.5897 93.156H76.3873Z" fill="white"/>
<path d="M71.6433 71.1385C71.6433 70.503 72.159 69.9873 72.7945 69.9873C73.4301 69.9873 73.9458 70.503 73.9458 71.1385V78.6214C73.9458 79.257 73.4301 79.7727 72.7945 79.7727C72.159 79.7727 71.6433 79.257 71.6433 78.6214V71.1385Z" fill="white"/>
<path d="M77.1836 71.1385C77.1836 70.503 77.6992 69.9873 78.3348 69.9873C78.9704 69.9873 79.486 70.503 79.486 71.1385V78.6214C79.486 79.257 78.9704 79.7727 78.3348 79.7727C77.6992 79.7727 77.1836 79.257 77.1836 78.6214V71.1385Z" fill="white"/>
<path fill-rule="evenodd" clip-rule="evenodd" d="M44.1339 90.4476L40.9345 87.2482L37.7351 84.0488C37.2866 83.6003 37.2866 82.8712 37.7351 82.4203C37.8981 82.2572 38.0972 82.1541 38.3083 82.1085L42.6229 80.9525L46.9928 79.7821C47.6068 79.619 48.2375 79.9835 48.4006 80.5951C48.4558 80.8014 48.451 81.01 48.3982 81.2019L47.2302 85.5598L46.0598 89.9296C45.8967 90.5436 45.2659 90.9081 44.652 90.7426C44.4481 90.6899 44.273 90.5844 44.1339 90.4476Z" fill="#CAE3F2"/>
<path fill-rule="evenodd" clip-rule="evenodd" d="M112.581 83.2097H108.055H103.53C102.897 83.2097 102.383 82.6964 102.383 82.0633C102.383 81.8426 102.446 81.634 102.556 81.4589L104.799 77.5735L107.06 73.6546C107.377 73.1053 108.077 72.9159 108.624 73.2325C108.811 73.3404 108.955 73.4915 109.053 73.6666L111.31 77.5735L113.572 81.4925C113.888 82.0417 113.699 82.742 113.15 83.0586C112.972 83.1617 112.773 83.2097 112.581 83.2097Z" fill="#CAE3F2"/>
</g>
<defs>
<clipPath id="clip0_6317_1080">
<rect width="103" height="105" fill="white" transform="translate(24 22)"/>
</clipPath>
</defs>
</svg>
