<svg width="108" height="107" viewBox="0 0 108 107" fill="none" xmlns="http://www.w3.org/2000/svg">
<path d="M105.021 17.653V81.5852H87.0973C85.3312 81.5852 83.8994 83.017 83.8994 84.7831V102.707H6.17688C4.41076 102.707 2.979 101.275 2.979 99.5088V17.653C2.979 15.8868 4.41076 14.4551 6.17688 14.4551H101.823C103.589 14.4553 105.021 15.8868 105.021 17.653Z" fill="#EDEDED"/>
<path d="M50.3713 61.048H47.5873C47.6833 59.368 48.2593 58.088 49.3153 57.208C50.3713 56.312 51.7553 55.864 53.4673 55.864C55.1473 55.864 56.5073 56.328 57.5473 57.256C58.5873 58.168 59.1073 59.456 59.1073 61.12C59.1073 63.104 57.9713 65.008 55.6993 66.832L51.8113 69.976V70.552H59.5873V73H47.6113V70L53.6353 65.248C55.4113 63.84 56.2993 62.472 56.2993 61.144C56.2993 60.248 56.0353 59.56 55.5073 59.08C54.9953 58.6 54.2913 58.36 53.3953 58.36C52.5473 58.36 51.8513 58.584 51.3073 59.032C50.7793 59.48 50.4673 60.152 50.3713 61.048Z" fill="#626975"/>
<path d="M105.021 17.651V36.8379H2.98145V17.651C2.98145 15.8849 4.4132 14.4531 6.17932 14.4531H101.823C103.589 14.4531 105.021 15.8849 105.021 17.651Z" fill="#F69A8B"/>
<path d="M105.021 81.5859H87.0973C85.3312 81.5859 83.8994 83.0177 83.8994 84.7838V102.707L105.021 81.5859Z" fill="#DAE8F0"/>
<path d="M93.7076 25.0765C93.7076 28.4029 91.0042 31.0946 87.6778 31.0946C84.3514 31.0946 81.6479 28.4029 81.6479 25.0765C81.6479 21.7386 84.3514 19.0469 87.6778 19.0469C91.0042 19.0469 93.7076 21.7386 93.7076 25.0765Z" fill="#EDEDED"/>
<path d="M91.2275 21.5214V7.84082C91.2275 5.88034 89.6382 4.29102 87.6777 4.29102C85.7173 4.29102 84.1279 5.88034 84.1279 7.84082V21.5214C84.1279 23.4818 85.7173 25.0712 87.6777 25.0712C89.6382 25.071 91.2275 23.4818 91.2275 21.5214Z" fill="#DAE8F0"/>
<path d="M26.3541 25.0765C26.3541 28.4029 23.6507 31.0946 20.3243 31.0946C16.9979 31.0946 14.2944 28.4029 14.2944 25.0765C14.2944 21.7386 16.9979 19.0469 20.3243 19.0469C23.6507 19.0469 26.3541 21.7386 26.3541 25.0765Z" fill="#EDEDED"/>
<path d="M23.874 21.5214V7.84082C23.874 5.88034 22.2847 4.29102 20.3242 4.29102C18.3637 4.29102 16.7744 5.88034 16.7744 7.84082V21.5214C16.7744 23.4818 18.3637 25.0712 20.3242 25.0712C22.2847 25.071 23.874 23.4818 23.874 21.5214Z" fill="#DAE8F0"/>
<path d="M6.17672 103.717H83.8991C84.1699 103.717 84.4282 103.607 84.6136 103.421L105.734 82.3009C105.887 82.1478 106.03 81.8778 106.03 81.5862V36.8379V17.6537V17.651C106.03 15.3309 104.143 13.4433 101.823 13.4433H92.2373V7.84066C92.2373 5.32658 90.192 3.28125 87.6779 3.28125C85.1632 3.28125 83.1179 5.32658 83.1179 7.84066V13.4433H24.8835V7.84066C24.8835 5.32658 22.8382 3.28125 20.3241 3.28125C17.81 3.28125 15.7647 5.32658 15.7647 7.84066V13.4433H6.17944C3.86034 13.4433 1.96924 15.3321 1.96924 17.6535V99.5096C1.96903 101.83 3.85658 103.717 6.17672 103.717ZM84.9089 100.27V84.7841C84.9089 83.5776 85.8905 82.596 87.0969 82.596H102.583L84.9089 100.27ZM85.1377 7.84066C85.1377 6.44026 86.2771 5.30087 87.6781 5.30087C89.0785 5.30087 90.2179 6.44026 90.2179 7.84066V21.5214C90.2179 22.9218 89.0785 24.0612 87.6781 24.0612C86.2771 24.0612 85.1377 22.9218 85.1377 21.5214V7.84066ZM83.2746 22.6861C83.7914 24.6367 85.5667 26.0808 87.6781 26.0808C89.792 26.0808 91.5694 24.6326 92.0831 22.6777C92.4739 23.3908 92.6975 24.2077 92.6975 25.0769C92.6975 27.8384 90.4457 30.0852 87.6779 30.0852C84.9095 30.0852 82.6577 27.8384 82.6577 25.0769C82.6579 24.2098 82.8846 23.3975 83.2746 22.6861ZM17.7845 7.84066C17.7845 6.44026 18.9239 5.30087 20.3243 5.30087C21.7247 5.30087 22.8641 6.44026 22.8641 7.84066V21.5214C22.8641 22.9218 21.7247 24.0612 20.3243 24.0612C18.9239 24.0612 17.7845 22.9218 17.7845 21.5214V7.84066ZM15.921 22.6848C16.4374 24.6361 18.213 26.0808 20.3243 26.0808C22.4363 26.0808 24.2123 24.6353 24.7281 22.6831C25.118 23.3954 25.3446 24.2089 25.3446 25.0769C25.3446 27.8384 23.0928 30.0852 20.3243 30.0852C17.5559 30.0852 15.3041 27.8384 15.3041 25.0769C15.3041 24.2096 15.5317 23.397 15.921 22.6848ZM3.99137 17.651C3.99137 16.4448 4.97151 15.4657 6.17672 15.4657H15.7649V19.7404C14.2531 21.0309 13.2845 22.9377 13.2845 25.0769C13.2845 28.9523 16.4429 32.105 20.3243 32.105C24.2058 32.105 27.3642 28.9523 27.3642 25.0769C27.3642 22.9354 26.3981 21.0203 24.8837 19.7289V15.4657H83.1181V19.7392C81.6065 21.0299 80.6383 22.9379 80.6383 25.0769C80.6383 28.9523 83.7967 32.105 87.6781 32.105C91.5596 32.105 94.7173 28.9523 94.7173 25.0769C94.7173 22.9389 93.7477 21.0347 92.2375 19.7438V15.4657H101.823C103.029 15.4657 104.011 16.4473 104.011 17.6537V35.8281H3.99137V17.651ZM3.98865 37.8477H104.011V80.5762H87.0967C84.7766 80.5762 82.889 82.4638 82.889 84.7839V101.698H6.17672C4.97025 101.698 3.98865 100.716 3.98865 99.5096V37.8477Z" fill="#626975"/>
</svg>
