<svg width="375" height="48" viewBox="0 0 375 48" fill="none" xmlns="http://www.w3.org/2000/svg">
<g clip-path="url(#clip0_152_432)">
<rect width="1782.79" height="48" transform="translate(-703.895)" fill="url(#paint0_linear_152_432)"/>
<path d="M-28.2029 28.7576V18.5757H-23.5774C-22.472 18.5757 -21.4974 18.7891 -20.6538 19.2158C-19.8102 19.6327 -19.1508 20.2194 -18.6756 20.9758C-18.2005 21.7321 -17.9629 22.6291 -17.9629 23.6667C-17.9629 24.6945 -18.2005 25.5915 -18.6756 26.3576C-19.1508 27.1139 -19.8102 27.7054 -20.6538 28.1321C-21.4974 28.5491 -22.472 28.7576 -23.5774 28.7576H-28.2029ZM-25.8465 26.823H-23.6938C-23.015 26.823 -22.4283 26.697 -21.9338 26.4448C-21.4296 26.183 -21.0417 25.8145 -20.7702 25.3394C-20.4889 24.8642 -20.3483 24.3067 -20.3483 23.6667C-20.3483 23.017 -20.4889 22.4594 -20.7702 21.9939C-21.0417 21.5188 -21.4296 21.1551 -21.9338 20.903C-22.4283 20.6412 -23.015 20.5103 -23.6938 20.5103H-25.8465V26.823ZM-11.5943 22.6776H-6.69251V24.5103H-11.5943V22.6776ZM-11.4198 26.8667H-5.87796V28.7576H-13.7616V18.5757H-6.06705V20.4667H-11.4198V26.8667ZM-1.57883 28.7576V18.5757H2.82844C3.73996 18.5757 4.52541 18.7261 5.18481 19.0267C5.8442 19.3176 6.35329 19.7394 6.71208 20.2921C7.07087 20.8448 7.25026 21.5042 7.25026 22.2703C7.25026 23.0267 7.07087 23.6812 6.71208 24.2339C6.35329 24.7867 5.8442 25.2133 5.18481 25.5139C4.52541 25.8048 3.73996 25.9503 2.82844 25.9503H-0.269741L0.777532 24.8885V28.7576H-1.57883ZM0.777532 25.1503L-0.269741 24.0303H2.69753C3.4248 24.0303 3.96784 23.8751 4.32662 23.5648C4.68541 23.2545 4.8648 22.823 4.8648 22.2703C4.8648 21.7079 4.68541 21.2715 4.32662 20.9612C3.96784 20.6509 3.4248 20.4958 2.69753 20.4958H-0.269741L0.777532 19.3757V25.1503ZM11.3568 28.7576V18.5757H13.7131V26.8376H18.8186V28.7576H11.3568ZM27.3344 28.9321C26.5296 28.9321 25.7829 28.8012 25.0944 28.5394C24.4156 28.2776 23.8241 27.9091 23.3199 27.4339C22.8253 26.9588 22.4375 26.4012 22.1562 25.7612C21.8847 25.1212 21.749 24.423 21.749 23.6667C21.749 22.9103 21.8847 22.2121 22.1562 21.5721C22.4375 20.9321 22.8302 20.3745 23.3344 19.8994C23.8387 19.4242 24.4302 19.0557 25.109 18.7939C25.7878 18.5321 26.5247 18.4012 27.3199 18.4012C28.1247 18.4012 28.8617 18.5321 29.5308 18.7939C30.2096 19.0557 30.7962 19.4242 31.2908 19.8994C31.795 20.3745 32.1878 20.9321 32.469 21.5721C32.7502 22.2024 32.8908 22.9006 32.8908 23.6667C32.8908 24.423 32.7502 25.1261 32.469 25.7758C32.1878 26.4158 31.795 26.9733 31.2908 27.4485C30.7962 27.9139 30.2096 28.2776 29.5308 28.5394C28.8617 28.8012 28.1296 28.9321 27.3344 28.9321ZM27.3199 26.9248C27.7756 26.9248 28.1926 26.8473 28.5708 26.6921C28.9587 26.537 29.2981 26.3139 29.589 26.023C29.8799 25.7321 30.1029 25.3879 30.2581 24.9903C30.4229 24.5927 30.5053 24.1515 30.5053 23.6667C30.5053 23.1818 30.4229 22.7406 30.2581 22.343C30.1029 21.9454 29.8799 21.6012 29.589 21.3103C29.3078 21.0194 28.9732 20.7964 28.5853 20.6412C28.1975 20.4861 27.7756 20.4085 27.3199 20.4085C26.8641 20.4085 26.4423 20.4861 26.0544 20.6412C25.6762 20.7964 25.3417 21.0194 25.0508 21.3103C24.7599 21.6012 24.532 21.9454 24.3672 22.343C24.212 22.7406 24.1344 23.1818 24.1344 23.6667C24.1344 24.1418 24.212 24.583 24.3672 24.9903C24.532 25.3879 24.755 25.7321 25.0362 26.023C25.3272 26.3139 25.6665 26.537 26.0544 26.6921C26.4423 26.8473 26.8641 26.9248 27.3199 26.9248ZM39.1765 28.7576V24.5976L39.7147 26.023L35.2347 18.5757H37.7365L41.1692 24.2921H39.7292L43.1765 18.5757H45.4892L41.0092 26.023L41.5329 24.5976V28.7576H39.1765Z" fill="white"/>
<path d="M83.3004 23.7576L80.5011 20.9583L77.7018 23.7576L80.5011 26.5568L83.3004 23.7576ZM53.3496 23.7576V24.2424H80.5011V23.7576V23.2727H53.3496V23.7576Z" fill="white"/>
<path d="M93.344 28.7576V18.5757H95.7004V26.8376H100.806V28.7576H93.344ZM103.265 28.7576L107.803 18.5757H110.131L114.683 28.7576H112.211L108.487 19.7685H109.418L105.68 28.7576H103.265ZM105.534 26.5758L106.16 24.7867H111.396L112.036 26.5758H105.534ZM122.475 28.9321C121.03 28.9321 119.9 28.5297 119.086 27.7248C118.271 26.92 117.864 25.7709 117.864 24.2776V18.5757H120.22V24.1903C120.22 25.16 120.419 25.8582 120.816 26.2848C121.214 26.7115 121.772 26.9248 122.489 26.9248C123.207 26.9248 123.764 26.7115 124.162 26.2848C124.559 25.8582 124.758 25.16 124.758 24.1903V18.5757H127.086V24.2776C127.086 25.7709 126.678 26.92 125.864 27.7248C125.049 28.5297 123.919 28.9321 122.475 28.9321ZM131.838 28.7576V18.5757H133.787L139.795 25.9067H138.849V18.5757H141.176V28.7576H139.242L133.22 21.4267H134.166V28.7576H131.838ZM150.882 28.9321C150.097 28.9321 149.365 28.8061 148.686 28.5539C148.017 28.2921 147.435 27.9236 146.941 27.4485C146.446 26.9733 146.058 26.4158 145.777 25.7758C145.505 25.1357 145.37 24.4327 145.37 23.6667C145.37 22.9006 145.505 22.1976 145.777 21.5576C146.058 20.9176 146.446 20.36 146.941 19.8848C147.445 19.4097 148.032 19.0461 148.701 18.7939C149.37 18.5321 150.102 18.4012 150.897 18.4012C151.779 18.4012 152.575 18.5564 153.282 18.8667C154 19.1673 154.601 19.6133 155.086 20.2048L153.573 21.6012C153.224 21.2036 152.836 20.9079 152.41 20.7139C151.983 20.5103 151.518 20.4085 151.013 20.4085C150.538 20.4085 150.102 20.4861 149.704 20.6412C149.307 20.7964 148.962 21.0194 148.672 21.3103C148.381 21.6012 148.153 21.9454 147.988 22.343C147.833 22.7406 147.755 23.1818 147.755 23.6667C147.755 24.1515 147.833 24.5927 147.988 24.9903C148.153 25.3879 148.381 25.7321 148.672 26.023C148.962 26.3139 149.307 26.537 149.704 26.6921C150.102 26.8473 150.538 26.9248 151.013 26.9248C151.518 26.9248 151.983 26.8279 152.41 26.6339C152.836 26.4303 153.224 26.1248 153.573 25.7176L155.086 27.1139C154.601 27.7054 154 28.1564 153.282 28.4667C152.575 28.777 151.775 28.9321 150.882 28.9321ZM166.083 18.5757H168.44V28.7576H166.083V18.5757ZM161.458 28.7576H159.102V18.5757H161.458V28.7576ZM166.258 24.583H161.283V22.5903H166.258V24.583Z" fill="white"/>
<path d="M197.289 16L199.384 21.6623L205.046 23.7576L199.384 25.8528L197.289 31.5152L195.194 25.8528L189.531 23.7576L195.194 21.6623L197.289 16Z" fill="white"/>
<path d="M230.494 28.7576V18.5757H234.902C235.813 18.5757 236.599 18.7261 237.258 19.0267C237.917 19.3176 238.427 19.7394 238.785 20.2921C239.144 20.8448 239.323 21.5042 239.323 22.2703C239.323 23.0267 239.144 23.6812 238.785 24.2339C238.427 24.7867 237.917 25.2133 237.258 25.5139C236.599 25.8048 235.813 25.9503 234.902 25.9503H231.803L232.851 24.8885V28.7576H230.494ZM232.851 25.1503L231.803 24.0303H234.771C235.498 24.0303 236.041 23.8751 236.4 23.5648C236.759 23.2545 236.938 22.823 236.938 22.2703C236.938 21.7079 236.759 21.2715 236.4 20.9612C236.041 20.6509 235.498 20.4958 234.771 20.4958H231.803L232.851 19.3757V25.1503ZM243.43 28.7576V18.5757H245.786V26.8376H250.892V28.7576H243.43ZM253.351 28.7576L257.889 18.5757H260.217L264.769 28.7576H262.297L258.573 19.7685H259.504L255.766 28.7576H253.351ZM255.62 26.5758L256.246 24.7867H261.482L262.122 26.5758H255.62ZM268.25 28.7576V18.5757H270.199L276.206 25.9067H275.261V18.5757H277.588V28.7576H275.654L269.632 21.4267H270.577V28.7576H268.25Z" fill="white"/>
<path d="M321.845 23.7576L319.046 20.9583L316.247 23.7576L319.046 26.5568L321.845 23.7576ZM291.895 23.7576V24.2424H319.046V23.7576V23.2727H291.895V23.7576Z" fill="white"/>
<path d="M331.889 28.7576V18.5757H336.514C337.62 18.5757 338.594 18.7891 339.438 19.2158C340.282 19.6327 340.941 20.2194 341.416 20.9758C341.891 21.7321 342.129 22.6291 342.129 23.6667C342.129 24.6945 341.891 25.5915 341.416 26.3576C340.941 27.1139 340.282 27.7054 339.438 28.1321C338.594 28.5491 337.62 28.7576 336.514 28.7576H331.889ZM334.245 26.823H336.398C337.077 26.823 337.663 26.697 338.158 26.4448C338.662 26.183 339.05 25.8145 339.322 25.3394C339.603 24.8642 339.743 24.3067 339.743 23.6667C339.743 23.017 339.603 22.4594 339.322 21.9939C339.05 21.5188 338.662 21.1551 338.158 20.903C337.663 20.6412 337.077 20.5103 336.398 20.5103H334.245V26.823ZM348.497 22.6776H353.399V24.5103H348.497V22.6776ZM348.672 26.8667H354.214V28.7576H346.33V18.5757H354.025V20.4667H348.672V26.8667ZM361.858 28.9321C361.044 28.9321 360.263 28.8254 359.517 28.6121C358.77 28.3891 358.169 28.103 357.713 27.7539L358.513 25.9794C358.949 26.2897 359.463 26.5467 360.055 26.7503C360.656 26.9442 361.262 27.0412 361.873 27.0412C362.338 27.0412 362.712 26.9976 362.993 26.9103C363.284 26.8133 363.497 26.6824 363.633 26.5176C363.769 26.3527 363.837 26.1636 363.837 25.9503C363.837 25.6788 363.73 25.4654 363.517 25.3103C363.303 25.1454 363.022 25.0145 362.673 24.9176C362.324 24.8109 361.936 24.7139 361.509 24.6267C361.092 24.5297 360.671 24.4133 360.244 24.2776C359.827 24.1418 359.444 23.9673 359.095 23.7539C358.746 23.5406 358.46 23.2594 358.237 22.9103C358.023 22.5612 357.917 22.1151 357.917 21.5721C357.917 20.9903 358.072 20.4618 358.382 19.9867C358.702 19.5018 359.177 19.1188 359.808 18.8376C360.448 18.5467 361.248 18.4012 362.208 18.4012C362.848 18.4012 363.478 18.4788 364.098 18.6339C364.719 18.7794 365.267 19.0024 365.742 19.303L365.015 21.0921C364.54 20.8206 364.064 20.6218 363.589 20.4958C363.114 20.36 362.649 20.2921 362.193 20.2921C361.737 20.2921 361.364 20.3454 361.073 20.4521C360.782 20.5588 360.574 20.6994 360.448 20.8739C360.321 21.0388 360.258 21.2327 360.258 21.4557C360.258 21.7176 360.365 21.9309 360.578 22.0957C360.792 22.2509 361.073 22.377 361.422 22.4739C361.771 22.5709 362.154 22.6679 362.571 22.7648C362.998 22.8618 363.42 22.9733 363.837 23.0994C364.263 23.2254 364.651 23.3951 365 23.6085C365.349 23.8218 365.631 24.103 365.844 24.4521C366.067 24.8012 366.178 25.2424 366.178 25.7758C366.178 26.3479 366.018 26.8715 365.698 27.3467C365.378 27.8218 364.898 28.2048 364.258 28.4958C363.628 28.7867 362.828 28.9321 361.858 28.9321ZM370.213 28.7576V18.5757H372.569V28.7576H370.213ZM382.326 28.9321C381.521 28.9321 380.779 28.8061 380.101 28.5539C379.432 28.2921 378.845 27.9236 378.341 27.4485C377.846 26.9733 377.458 26.4158 377.177 25.7758C376.906 25.1357 376.77 24.4327 376.77 23.6667C376.77 22.9006 376.906 22.1976 377.177 21.5576C377.458 20.9176 377.851 20.36 378.355 19.8848C378.859 19.4097 379.451 19.0461 380.13 18.7939C380.809 18.5321 381.555 18.4012 382.37 18.4012C383.272 18.4012 384.081 18.5515 384.799 18.8521C385.526 19.1527 386.137 19.5891 386.632 20.1612L385.119 21.5576C384.75 21.1697 384.348 20.8836 383.912 20.6994C383.475 20.5054 383 20.4085 382.486 20.4085C381.992 20.4085 381.541 20.4861 381.133 20.6412C380.726 20.7964 380.372 21.0194 380.072 21.3103C379.781 21.6012 379.553 21.9454 379.388 22.343C379.233 22.7406 379.155 23.1818 379.155 23.6667C379.155 24.1418 379.233 24.5782 379.388 24.9758C379.553 25.3733 379.781 25.7224 380.072 26.023C380.372 26.3139 380.721 26.537 381.119 26.6921C381.526 26.8473 381.972 26.9248 382.457 26.9248C382.922 26.9248 383.373 26.8521 383.81 26.7067C384.256 26.5515 384.687 26.2945 385.104 25.9358L386.442 27.6376C385.89 28.0545 385.245 28.3745 384.508 28.5976C383.781 28.8206 383.053 28.9321 382.326 28.9321ZM384.29 27.3321V23.5067H386.442V27.6376L384.29 27.3321ZM391.056 28.7576V18.5757H393.005L399.012 25.9067H398.066V18.5757H400.394V28.7576H398.459L392.437 21.4267H393.383V28.7576H391.056Z" fill="white"/>
</g>
<defs>
<linearGradient id="paint0_linear_152_432" x1="848.496" y1="114.96" x2="784.915" y2="-129.286" gradientUnits="userSpaceOnUse">
<stop stop-color="#453A94"/>
<stop offset="1" stop-color="#F43B47"/>
</linearGradient>
<clipPath id="clip0_152_432">
<rect width="1782.79" height="48" fill="white" transform="translate(-703.895)"/>
</clipPath>
</defs>
</svg>
