<svg width="32" height="32" viewBox="0 0 32 32" fill="none" xmlns="http://www.w3.org/2000/svg">
<rect x="3" y="5" width="22" height="15" fill="#FFEEC5"/>
<rect x="21" y="15" width="9.51636" height="11" fill="#FFEEC5"/>
<path d="M30.5165 15.5103V14.1284C30.5165 13.4836 29.9929 12.96 29.348 12.96H22.1529C21.508 12.96 20.9844 13.4836 20.9844 14.1284V15.5103H30.5165Z" fill="#A780BA"/>
<path d="M20.9844 26.0654V27.4472C20.9844 28.0921 21.508 28.6157 22.1529 28.6157H29.348C29.9929 28.6157 30.5165 28.0921 30.5165 27.4472V26.0654H20.9844Z" fill="#A780BA"/>
<path opacity="0.3" d="M19.3943 12.7858C19.3943 14.0755 18.9288 15.2536 18.1628 16.1748C17.1931 17.3385 15.7337 18.0803 14.0997 18.0803C12.4658 18.0803 11.0064 17.3385 10.0367 16.1748C9.27063 15.2585 8.80518 14.0755 8.80518 12.7858C8.80518 11.4961 9.27063 10.3179 10.0367 9.39667C11.0064 8.23303 12.4658 7.49121 14.0997 7.49121C15.7337 7.49121 17.1931 8.23303 18.1628 9.39667C18.9288 10.3179 19.3943 11.5009 19.3943 12.7858Z" fill="#F7B319"/>
<path d="M19.118 28.0873C19.118 28.3782 18.8804 28.6158 18.5895 28.6158H9.61979C9.32888 28.6158 9.09131 28.3782 9.09131 28.0873C9.09131 27.0497 9.9301 26.2109 10.9677 26.2109H17.2416C18.2743 26.2109 19.118 27.0497 19.118 28.0873Z" fill="#A780BA"/>
<path d="M3.35544 20.6735C3.1615 20.6735 3.00635 20.5184 3.00635 20.3244V5.25534C3.00635 5.0614 3.1615 4.90625 3.35544 4.90625H24.8488C25.0427 4.90625 25.1979 5.0614 25.1979 5.25534V12.9644C25.1979 13.1584 25.0427 13.3135 24.8488 13.3135C24.6548 13.3135 24.4997 13.1584 24.4997 12.9644V5.60443H3.70453V20.3196C3.70453 20.5135 3.54938 20.6735 3.35544 20.6735Z" fill="#242222"/>
<path d="M19.1129 20.6739H1.48386C1.28992 20.6739 1.13477 20.5188 1.13477 20.3248V5.15391C1.13477 3.98542 2.08507 3.03027 3.2584 3.03027H24.9457C26.1142 3.03027 27.0693 3.98058 27.0693 5.15391V11.0885C27.0693 11.2824 26.9142 11.4375 26.7202 11.4375C26.5263 11.4375 26.3711 11.2824 26.3711 11.0885V5.15391C26.3711 4.36846 25.736 3.7333 24.9505 3.7333H3.2584C2.47295 3.7333 1.8378 4.3733 1.8378 5.15391V19.9709H19.1178C19.3117 19.9709 19.4669 20.126 19.4669 20.32C19.4669 20.5139 19.3069 20.6739 19.1129 20.6739Z" fill="#242222"/>
<path d="M19.1129 23.9998H3.2584C2.08507 23.9998 1.13477 23.0447 1.13477 21.8762V20.3247C1.13477 20.1307 1.28992 19.9756 1.48386 19.9756H19.1129C19.3069 19.9756 19.462 20.1307 19.462 20.3247C19.462 20.5186 19.3069 20.6738 19.1129 20.6738H1.8378V21.8762C1.8378 22.6616 2.4778 23.3016 3.26325 23.3016H19.1178C19.3117 23.3016 19.4669 23.4568 19.4669 23.6507C19.4669 23.8398 19.3069 23.9998 19.1129 23.9998Z" fill="#242222"/>
<path d="M18.5895 28.9692H9.61976C9.13491 28.9692 8.74219 28.5765 8.74219 28.0916C8.74219 26.865 9.74098 25.8613 10.9676 25.8613H17.2416C18.4682 25.8613 19.467 26.8601 19.467 28.0916C19.467 28.5716 19.0743 28.9692 18.5895 28.9692ZM10.9628 26.5595C10.1192 26.5595 9.43552 27.2431 9.43552 28.0868C9.43552 28.1838 9.5131 28.2662 9.61491 28.2662H18.5846C18.6816 28.2662 18.764 28.1886 18.764 28.0868C18.764 27.2431 18.0804 26.5595 17.2367 26.5595H10.9628Z" fill="#242222"/>
<path d="M16.6499 26.5599H11.5542C11.3602 26.5599 11.2051 26.4048 11.2051 26.2108V23.646C11.2051 23.452 11.3602 23.2969 11.5542 23.2969H16.6499C16.8439 23.2969 16.999 23.452 16.999 23.646V26.2108C16.999 26.4048 16.8439 26.5599 16.6499 26.5599ZM11.9033 25.8617H16.296V23.9999H11.9033V25.8617Z" fill="#242222"/>
<path d="M12.2427 22.3369H12.1118C11.9178 22.3369 11.7627 22.1817 11.7627 21.9878C11.7627 21.7938 11.9178 21.6387 12.1118 21.6387H12.2427C12.4366 21.6387 12.5918 21.7938 12.5918 21.9878C12.5918 22.1769 12.4318 22.3369 12.2427 22.3369Z" fill="#242222"/>
<path d="M14.1675 22.3369H14.0366C13.8427 22.3369 13.6875 22.1817 13.6875 21.9878C13.6875 21.7938 13.8427 21.6387 14.0366 21.6387H14.1675C14.3614 21.6387 14.5166 21.7938 14.5166 21.9878C14.5166 22.1769 14.3614 22.3369 14.1675 22.3369Z" fill="#242222"/>
<path d="M16.0923 22.3369H15.9614C15.7675 22.3369 15.6123 22.1817 15.6123 21.9878C15.6123 21.7938 15.7675 21.6387 15.9614 21.6387H16.0923C16.2862 21.6387 16.4414 21.7938 16.4414 21.9878C16.4414 22.1769 16.2862 22.3369 16.0923 22.3369Z" fill="#242222"/>
<path d="M29.348 28.9701H22.1528C21.314 28.9701 20.6353 28.2865 20.6353 27.4525V14.1289C20.6353 13.2901 21.3189 12.6113 22.1528 12.6113H29.348C30.1868 12.6113 30.8656 13.295 30.8656 14.1289V27.4477C30.8656 28.2865 30.1868 28.9701 29.348 28.9701ZM22.1528 13.3095C21.7019 13.3095 21.3334 13.678 21.3334 14.1289V27.4477C21.3334 27.8986 21.7019 28.2671 22.1528 28.2671H29.348C29.7989 28.2671 30.1674 27.8986 30.1674 27.4477V14.1289C30.1674 13.678 29.7989 13.3095 29.348 13.3095H22.1528Z" fill="#242222"/>
<path d="M30.5165 15.8647H20.9843C20.7904 15.8647 20.6353 15.7095 20.6353 15.5156V14.1338C20.6353 13.295 21.3189 12.6162 22.1528 12.6162H29.348C30.1868 12.6162 30.8656 13.2998 30.8656 14.1338V15.5156C30.8656 15.7047 30.7104 15.8647 30.5165 15.8647ZM21.3334 15.1617H30.1625V14.1289C30.1625 13.678 29.794 13.3095 29.3431 13.3095H22.1528C21.7019 13.3095 21.3334 13.678 21.3334 14.1289V15.1617Z" fill="#242222"/>
<path d="M25.9736 14.5849H24.2426C24.0487 14.5849 23.8936 14.4297 23.8936 14.2358C23.8936 14.0419 24.0487 13.8867 24.2426 13.8867H25.9736C26.1675 13.8867 26.3226 14.0419 26.3226 14.2358C26.3275 14.4297 26.1675 14.5849 25.9736 14.5849Z" fill="#242222"/>
<path d="M27.2538 14.5849C27.0598 14.5849 26.8901 14.4297 26.8901 14.2358C26.8901 14.0419 27.0356 13.8867 27.2295 13.8867H27.2538C27.4477 13.8867 27.6029 14.0419 27.6029 14.2358C27.6077 14.4297 27.4477 14.5849 27.2538 14.5849Z" fill="#242222"/>
<path d="M29.348 28.9702H22.1528C21.314 28.9702 20.6353 28.2865 20.6353 27.4526V26.0708C20.6353 25.8768 20.7904 25.7217 20.9843 25.7217H30.5165C30.7104 25.7217 30.8656 25.8768 30.8656 26.0708V27.4526C30.8656 28.2865 30.1868 28.9702 29.348 28.9702ZM21.3334 26.415V27.4477C21.3334 27.8987 21.7019 28.2671 22.1528 28.2671H29.348C29.7989 28.2671 30.1674 27.8987 30.1674 27.4477V26.415H21.3334Z" fill="#242222"/>
<path d="M25.9296 27.6904H25.5708C25.3768 27.6904 25.2217 27.5352 25.2217 27.3413C25.2217 27.1473 25.3768 26.9922 25.5708 26.9922H25.9296C26.1235 26.9922 26.2786 27.1473 26.2786 27.3413C26.2786 27.5352 26.1235 27.6904 25.9296 27.6904Z" fill="#242222"/>
<path d="M14.0997 18.4338C12.4221 18.4338 10.8463 17.6919 9.76511 16.4022C8.91663 15.3889 8.45117 14.1041 8.45117 12.7901C8.45117 11.4762 8.91663 10.1913 9.76511 9.178C10.8415 7.8883 12.4221 7.14648 14.0997 7.14648C15.7772 7.14648 17.353 7.8883 18.4342 9.178C19.2827 10.1913 19.7481 11.4762 19.7481 12.7901C19.7481 14.1041 19.2827 15.3889 18.4342 16.4022C17.3578 17.6919 15.7772 18.4338 14.0997 18.4338ZM14.0997 7.84467C12.6306 7.84467 11.2487 8.49436 10.3081 9.62406C9.56632 10.5113 9.15905 11.6362 9.15905 12.7853C9.15905 13.9344 9.56632 15.0592 10.3081 15.9465C11.2536 17.0762 12.6354 17.7259 14.0997 17.7259C15.5639 17.7259 16.9506 17.0762 17.8912 15.9465C18.633 15.0592 19.0403 13.9344 19.0403 12.7853C19.0403 11.6362 18.633 10.5113 17.8912 9.62406C16.9506 8.49436 15.5687 7.84467 14.0997 7.84467Z" fill="#242222"/>
<path d="M14.0995 18.4338C12.4268 18.4338 11.1177 15.9562 11.1177 12.7901C11.1177 9.62406 12.4268 7.14648 14.0995 7.14648C15.7722 7.14648 17.0813 9.62406 17.0813 12.7901C17.0813 15.9562 15.7722 18.4338 14.0995 18.4338ZM14.0995 7.84467C12.8631 7.84467 11.8207 10.1089 11.8207 12.7853C11.8207 15.4616 12.8631 17.7259 14.0995 17.7259C15.3359 17.7259 16.3783 15.4616 16.3783 12.7853C16.3783 10.1089 15.3359 7.84467 14.0995 7.84467Z" fill="#242222"/>
<path d="M14.0999 18.4338C12.4223 18.4338 10.8466 17.692 9.76534 16.4023C9.70231 16.3247 9.67322 16.2181 9.68776 16.1211C9.70231 16.0193 9.76534 15.932 9.85261 15.8787C10.9047 15.2435 12.4562 14.8799 14.095 14.8799C15.7338 14.8799 17.2853 15.2435 18.3375 15.8787C18.4247 15.932 18.4878 16.0193 18.5023 16.1211C18.5217 16.2229 18.4926 16.3247 18.4247 16.4023C17.3581 17.692 15.7775 18.4338 14.0999 18.4338ZM10.5993 16.2714C11.5253 17.2023 12.7811 17.7308 14.0999 17.7308C15.4187 17.7308 16.6744 17.2023 17.6005 16.2714C16.6744 15.8253 15.4235 15.5781 14.0999 15.5781C12.7762 15.5781 11.5253 15.8253 10.5993 16.2714Z" fill="#242222"/>
<path d="M14.0997 10.7004C12.4561 10.7004 10.9094 10.3368 9.85727 9.70164C9.77 9.6483 9.70697 9.56103 9.69242 9.45921C9.67303 9.35739 9.70212 9.25558 9.77 9.178C10.8464 7.8883 12.427 7.14648 14.1045 7.14648C15.7821 7.14648 17.3579 7.8883 18.4391 9.178C18.5021 9.25558 18.5312 9.36224 18.5167 9.45921C18.5021 9.56103 18.4391 9.6483 18.3518 9.70164C17.29 10.3368 15.7433 10.7004 14.0997 10.7004ZM10.5991 9.30406C11.5251 9.75012 12.7761 9.99739 14.0997 9.99739C15.4233 9.99739 16.6742 9.74527 17.6003 9.30406C16.6742 8.37315 15.4185 7.84467 14.0997 7.84467C12.7809 7.84467 11.5251 8.37315 10.5991 9.30406Z" fill="#242222"/>
<path d="M14.0996 18.4338C13.9056 18.4338 13.7505 18.2786 13.7505 18.0847V7.49558C13.7505 7.30164 13.9056 7.14648 14.0996 7.14648C14.2935 7.14648 14.4487 7.30164 14.4487 7.49558V18.0847C14.4535 18.2738 14.2935 18.4338 14.0996 18.4338Z" fill="#242222"/>
<path d="M19.3943 13.1396H8.81003C8.61609 13.1396 8.46094 12.9844 8.46094 12.7905C8.46094 12.5966 8.61609 12.4414 8.81003 12.4414H19.3943C19.5882 12.4414 19.7434 12.5966 19.7434 12.7905C19.7482 12.9796 19.5882 13.1396 19.3943 13.1396Z" fill="#242222"/>
<path d="M26.8218 23.0501H24.2085C24.0145 23.0501 23.8594 22.895 23.8594 22.701C23.8594 22.5071 24.0145 22.3519 24.2085 22.3519H26.8218C26.8848 22.3519 26.9382 22.2986 26.9382 22.2356V18.0659C26.9382 17.8719 27.0933 17.7168 27.2873 17.7168C27.4812 17.7168 27.6363 17.8719 27.6363 18.0659V22.2356C27.6412 22.6865 27.2727 23.0501 26.8218 23.0501Z" fill="#242222"/>
<path d="M25.0279 23.8644C24.9358 23.8644 24.8485 23.8304 24.7806 23.7626L23.9661 22.948C23.8982 22.8801 23.8643 22.7929 23.8643 22.7007C23.8643 22.6086 23.903 22.5165 23.9661 22.4535L24.7806 21.6389C24.9164 21.5032 25.1394 21.5032 25.2752 21.6389C25.4109 21.7747 25.4109 21.9977 25.2752 22.1335L24.7079 22.7007L25.2752 23.268C25.4109 23.4038 25.4109 23.6268 25.2752 23.7626C25.2073 23.8304 25.1152 23.8644 25.0279 23.8644Z" fill="#242222"/>
</svg>
