<svg width="32" height="32" viewBox="0 0 32 32" fill="none" xmlns="http://www.w3.org/2000/svg">
<g clip-path="url(#clip0_6292_609)">
<path d="M9.2828 0.533203H15.4668C16.4697 0.533203 17.2828 1.34627 17.2828 2.3492V29.6505C17.2828 30.6535 16.4697 31.4665 15.4668 31.4665H9.2828C8.27986 31.4665 7.4668 30.6535 7.4668 29.6505V2.3492C7.4668 1.34627 8.2798 0.533203 9.2828 0.533203Z" fill="white"/>
<path d="M10.8824 0.533203H21.1171C22.12 0.533203 22.9331 1.34627 22.9331 2.3492V29.6505C22.9331 30.6535 22.12 31.4665 21.1171 31.4665H10.8824C9.87947 31.4665 9.06641 30.6535 9.06641 29.6505V2.3492C9.06641 1.34627 9.87941 0.533203 10.8824 0.533203Z" fill="#FFB300" fill-opacity="0.2"/>
<path d="M22.9331 3.7334H9.06641V25.0667H22.9331V3.7334Z" fill="url(#paint0_linear_6292_609)"/>
<path d="M15.9999 29.867C16.8836 29.867 17.5999 29.1506 17.5999 28.267C17.5999 27.3833 16.8836 26.667 15.9999 26.667C15.1162 26.667 14.3999 27.3833 14.3999 28.267C14.3999 29.1506 15.1162 29.867 15.9999 29.867Z" fill="#FFB300"/>
<path d="M22.717 32H9.28261C7.98567 31.9984 6.93473 30.9474 6.93311 29.6505V2.3495C6.93473 1.05256 7.98567 0.001625 9.28261 0H22.717C24.0139 0.001625 25.0649 1.05256 25.0665 2.3495V29.6506C25.0649 30.9474 24.0139 31.9984 22.717 32ZM9.28261 1.06669C8.57448 1.0675 8.00061 1.64137 7.99979 2.3495V29.6506C8.00061 30.3587 8.57448 30.9326 9.28261 30.9334H22.717C23.4251 30.9326 23.999 30.3587 23.9998 29.6506V2.3495C23.999 1.64137 23.4251 1.0675 22.717 1.06669H9.28261Z" fill="#242222"/>
<path d="M16 30.4004C14.8218 30.4004 13.8667 29.4453 13.8667 28.2671C13.8667 27.0889 14.8218 26.1338 16 26.1338C17.1782 26.1338 18.1333 27.0889 18.1333 28.2671C18.1321 29.4448 17.1777 30.3992 16 30.4004ZM16 27.2004C15.4109 27.2004 14.9333 27.678 14.9333 28.2671C14.9333 28.8562 15.4109 29.3338 16 29.3338C16.5891 29.3338 17.0667 28.8562 17.0667 28.2671C17.0659 27.6783 16.5888 27.2012 16 27.2004Z" fill="#FFB300"/>
<path d="M24.533 25.5998H7.46642C7.17186 25.5998 6.93311 25.361 6.93311 25.0665C6.93311 24.772 7.17192 24.5332 7.46642 24.5332H24.5331C24.8277 24.5332 25.0664 24.772 25.0664 25.0665C25.0664 25.3611 24.8276 25.5998 24.533 25.5998Z" fill="#242222"/>
<path d="M24.533 4.26682H7.46642C7.17186 4.26682 6.93311 4.02801 6.93311 3.73351C6.93311 3.43901 7.17192 3.2002 7.46642 3.2002H24.5331C24.8277 3.2002 25.0664 3.43901 25.0664 3.73351C25.0664 4.02801 24.8276 4.26682 24.533 4.26682Z" fill="#242222"/>
<path d="M16.0001 2.66623H13.8668C13.5722 2.66623 13.3335 2.42742 13.3335 2.13292C13.3335 1.83842 13.5722 1.59961 13.8668 1.59961H16.0001C16.2947 1.59961 16.5334 1.83842 16.5334 2.13292C16.5334 2.42742 16.2947 2.66623 16.0001 2.66623Z" fill="#FFB300"/>
<path d="M18.133 2.66623H17.5997C17.3052 2.66623 17.0664 2.42742 17.0664 2.13292C17.0664 1.83842 17.3052 1.59961 17.5997 1.59961H18.133C18.4276 1.59961 18.6663 1.83842 18.6663 2.13292C18.6663 2.42742 18.4276 2.66623 18.133 2.66623Z" fill="#FFB300"/>
<path d="M29.816 11.3296C29.6003 11.3296 29.4059 11.1996 29.3234 11.0004C29.2409 10.8011 29.2864 10.5717 29.4389 10.4192C31.4316 8.42212 31.4316 5.18881 29.4389 3.19162C29.3042 3.05693 29.2516 2.86056 29.3009 2.6765C29.3502 2.4925 29.4939 2.34875 29.6779 2.29943C29.8619 2.25012 30.0583 2.30275 30.1931 2.43743C32.6014 4.85143 32.6014 8.75937 30.1931 11.1734C30.0932 11.2736 29.9575 11.3297 29.816 11.3296Z" fill="#242222"/>
<path d="M27.5704 10.2623C27.3547 10.2622 27.1602 10.1323 27.0777 9.93302C26.9952 9.73377 27.0408 9.50439 27.1933 9.35189C28.5572 7.98477 28.5572 5.77164 27.1933 4.40452C26.985 4.19627 26.985 3.85858 27.1933 3.65033C27.4015 3.44208 27.7392 3.44208 27.9475 3.65033C29.728 5.43389 29.728 8.32245 27.9475 10.1061C27.8475 10.2062 27.7119 10.2625 27.5704 10.2623Z" fill="#242222"/>
<path d="M2.18379 11.3296C2.04229 11.3298 1.9066 11.2736 1.80672 11.1734C-0.60159 8.75937 -0.60159 4.85143 1.80672 2.43743C1.94147 2.30275 2.13779 2.25012 2.32185 2.29943C2.50585 2.34875 2.6496 2.4925 2.69891 2.6765C2.74822 2.8605 2.6956 3.05687 2.56085 3.19162C0.56816 5.18875 0.56816 8.42206 2.56085 10.4192C2.71335 10.5717 2.75891 10.8011 2.67641 11.0004C2.59385 11.1996 2.39947 11.3296 2.18379 11.3296Z" fill="#242222"/>
<path d="M4.42977 10.1158C4.28827 10.116 4.15258 10.0598 4.05271 9.95959C2.27214 8.17603 2.27214 5.28747 4.05271 3.50384C4.26096 3.29559 4.59864 3.29559 4.80689 3.50384C5.01514 3.71209 5.01514 4.04978 4.80689 4.25803C3.44302 5.62516 3.44302 7.83828 4.80689 9.20541C4.95939 9.35791 5.00496 9.58728 4.92246 9.78653C4.83989 9.98584 4.64546 10.1158 4.42977 10.1158Z" fill="#242222"/>
</g>
<defs>
<linearGradient id="paint0_linear_6292_609" x1="7.19953" y1="5.60341" x2="28.4423" y2="14.5776" gradientUnits="userSpaceOnUse">
<stop stop-color="#FFB300" stop-opacity="0.2"/>
<stop offset="0.1717" stop-color="#FFB300" stop-opacity="0.2"/>
<stop offset="0.2" stop-color="#FFB300" stop-opacity="0.2"/>
<stop offset="0.2001" stop-color="#FFB300" stop-opacity="0.2"/>
<stop offset="0.2007" stop-color="#FFB300" stop-opacity="0.2"/>
<stop offset="0.2014" stop-color="#FFB300" stop-opacity="0.2"/>
<stop offset="0.2023" stop-color="#FFB300" stop-opacity="0.2"/>
<stop offset="0.205" stop-color="#FFB300" stop-opacity="0.2"/>
<stop offset="0.2522" stop-color="#FFB300" stop-opacity="0.2"/>
<stop offset="0.26" stop-color="#FFB300" stop-opacity="0.2"/>
<stop offset="0.3974" stop-color="#FFB300" stop-opacity="0.2"/>
<stop offset="0.42" stop-color="#FFB300" stop-opacity="0.2"/>
<stop offset="0.4201" stop-color="#FFB300" stop-opacity="0.2"/>
<stop offset="0.4207" stop-color="#FFB300" stop-opacity="0.2"/>
<stop offset="0.4214" stop-color="#F6F1F4"/>
<stop offset="0.4223" stop-color="#FDF4F4"/>
<stop offset="0.425" stop-color="#FFF5F4"/>
<stop offset="0.4894" stop-color="#FFF5F4"/>
<stop offset="0.5" stop-color="#F9F2F4"/>
<stop offset="0.5001" stop-color="#FFB300" stop-opacity="0.2"/>
<stop offset="0.5003" stop-color="#FFB300" stop-opacity="0.2"/>
<stop offset="0.5005" stop-color="#FFB300" stop-opacity="0.2"/>
<stop offset="0.501" stop-color="#FFB300" stop-opacity="0.2"/>
<stop offset="0.7062" stop-color="#FFB300" stop-opacity="0.2"/>
<stop offset="0.74" stop-color="#FFB300" stop-opacity="0.2"/>
<stop offset="0.741" stop-color="#FFF5F4"/>
<stop offset="0.8346" stop-color="#FFF5F4"/>
<stop offset="0.85" stop-color="#FFF5F4"/>
<stop offset="0.851" stop-color="#FFB300" stop-opacity="0.2"/>
</linearGradient>
<clipPath id="clip0_6292_609">
<rect width="32" height="32" fill="white"/>
</clipPath>
</defs>
</svg>
