<svg width="32" height="32" viewBox="0 0 32 32" fill="none" xmlns="http://www.w3.org/2000/svg">
<g clip-path="url(#clip0_6292_443)">
<path d="M29.5986 3.66797H23.2725L23.6259 4.02134C23.7726 4.16822 23.7726 4.40622 23.6259 4.55297L22.8035 5.37534C22.6831 5.49572 22.6584 5.68197 22.7444 5.82884C23.0991 6.43472 23.3745 7.09234 23.5565 7.78809C23.5995 7.95247 23.749 8.06647 23.919 8.06647H25.0812C25.2889 8.06647 25.4572 8.23472 25.4572 8.44234V11.0973C25.4572 11.305 25.2889 11.4733 25.0812 11.4733H23.919C23.749 11.4733 23.5996 11.5873 23.5565 11.7517C23.3745 12.4475 23.0991 13.1051 22.7444 13.7108C22.6584 13.8577 22.6832 14.0441 22.8035 14.1645L23.6259 14.9867C23.7726 15.1335 23.7726 15.3716 23.6259 15.5185L21.7485 17.3958C21.6017 17.5426 21.3636 17.5426 21.2169 17.3958L20.3946 16.5736C20.2742 16.4533 20.088 16.4285 19.9411 16.5143C19.3352 16.8692 18.6776 17.1446 17.982 17.3265C17.8176 17.3695 17.7035 17.519 17.7035 17.689V18.8511C17.7035 19.0587 17.5351 19.2271 17.3275 19.2271H14.6725C14.4649 19.2271 14.2965 19.0587 14.2965 18.8511V17.689C14.2965 17.519 14.1825 17.3695 14.018 17.3265C13.3222 17.1445 12.6646 16.8692 12.0589 16.5143C11.912 16.4283 11.7256 16.4532 11.6054 16.5736L10.7831 17.3958C10.6364 17.5426 10.3982 17.5426 10.2515 17.3958L8.37412 15.5185C8.22724 15.3716 8.22724 15.1335 8.37412 14.9867L9.19637 14.1645C9.31674 14.0441 9.34149 13.8577 9.25549 13.7108C8.90074 13.1051 8.62537 12.4475 8.44337 11.7517C8.40037 11.5873 8.25087 11.4733 8.08087 11.4733H6.91862C6.71099 11.4733 6.54262 11.305 6.54262 11.0973V8.44234C6.54262 8.23472 6.71099 8.06647 6.91862 8.06647H8.08087C8.25087 8.06647 8.40024 7.95247 8.44337 7.78809C8.62537 7.09234 8.90074 6.43472 9.25549 5.82884C9.34149 5.68197 9.31662 5.49572 9.19637 5.37534L8.37412 4.55297C8.22724 4.40622 8.22724 4.16809 8.37412 4.02134L8.72749 3.66797H2.40112C1.52462 3.66797 0.807617 4.38497 0.807617 5.26147V25.1807C0.807617 26.0572 1.52474 26.7743 2.40112 26.7743H29.5986C30.475 26.7743 31.1921 26.0572 31.1921 25.1807V5.26147C31.1921 4.38509 30.475 3.66797 29.5986 3.66797Z" fill="#5290DB"/>
<path d="M29.5984 4.99609H23.1828L22.8034 5.37547C22.683 5.49584 22.6583 5.68209 22.7443 5.82897C23.099 6.43484 23.3744 7.09247 23.5564 7.78822C23.5994 7.95259 23.7489 8.06659 23.9189 8.06659H25.0811C25.2888 8.06659 25.4571 8.23484 25.4571 8.44247V11.0975C25.4571 11.3051 25.2888 11.4735 25.0811 11.4735H23.9189C23.7489 11.4735 23.5995 11.5875 23.5564 11.7518C23.3744 12.4476 23.099 13.1052 22.7443 13.711C22.6583 13.8578 22.6831 14.0442 22.8034 14.1646L23.6258 14.9868C23.7725 15.1336 23.7725 15.3717 23.6258 15.5186L21.7484 17.396C21.6016 17.5427 21.3635 17.5427 21.2168 17.396L20.3945 16.5737C20.2741 16.4535 20.0879 16.4286 19.941 16.5145C19.3351 16.8693 18.6775 17.1447 17.9819 17.3266C17.8175 17.3696 17.7034 17.5191 17.7034 17.6891V18.8512C17.7034 19.0588 17.535 19.2272 17.3274 19.2272H14.6724C14.4648 19.2272 14.2964 19.0588 14.2964 18.8512V17.6891C14.2964 17.5191 14.1824 17.3696 14.0179 17.3266C13.3221 17.1446 12.6645 16.8693 12.0588 16.5145C11.9119 16.4285 11.7255 16.4533 11.6053 16.5737L10.783 17.396C10.6363 17.5427 10.3981 17.5427 10.2514 17.396L8.374 15.5186C8.22713 15.3717 8.22713 15.1336 8.374 14.9868L9.19625 14.1646C9.31663 14.0442 9.34138 13.8578 9.25538 13.711C8.90063 13.1052 8.62525 12.4476 8.44325 11.7518C8.40025 11.5875 8.25075 11.4735 8.08075 11.4735H6.91838C6.71075 11.4735 6.54238 11.3051 6.54238 11.0975V8.44247C6.54238 8.23484 6.71075 8.06659 6.91838 8.06659H8.08063C8.25063 8.06659 8.4 7.95259 8.44313 7.78822C8.62513 7.09247 8.9005 6.43484 9.25525 5.82897C9.34125 5.68209 9.31638 5.49584 9.19613 5.37547L8.81675 4.99609H2.40088C2.25475 4.99609 2.13525 5.11559 2.13525 5.26172V22.5251H29.8639V5.26159C29.864 5.11559 29.7444 4.99609 29.5984 4.99609Z" fill="#EDF4FC"/>
<path d="M29.8644 21.0322H2.13574V22.525H29.8644V21.0322Z" fill="#5290DB"/>
<path d="M5.27374 21.0322H2.13574V22.525H5.27374V21.0322Z" fill="#FCDD86"/>
<path d="M25.081 8.06625H23.9187C23.7487 8.06625 23.5994 7.95225 23.5562 7.78788C23.3742 7.09212 23.0989 6.4345 22.7441 5.82863C22.6581 5.68175 22.683 5.4955 22.8032 5.37512L23.6256 4.55275C23.7724 4.406 23.7724 4.16787 23.6256 4.02112L21.7482 2.14375C21.6015 1.997 21.3634 1.997 21.2166 2.14375L20.3944 2.96613C20.274 3.0865 20.0877 3.11125 19.9409 3.02525C19.335 2.67062 18.6774 2.39512 17.9817 2.21312C17.8174 2.17013 17.7032 2.02075 17.7032 1.85075V0.688375C17.7032 0.48075 17.5349 0.3125 17.3272 0.3125H14.6722C14.4646 0.3125 14.2962 0.480875 14.2962 0.688375V1.85063C14.2962 2.02062 14.1822 2.17 14.0177 2.213C13.322 2.395 12.6644 2.6705 12.0586 3.02513C11.9117 3.11112 11.7255 3.08637 11.6051 2.966L10.7829 2.14363C10.6361 1.99688 10.398 1.99688 10.2512 2.14363L8.37373 4.02112C8.22686 4.168 8.22686 4.406 8.37373 4.55275L9.19598 5.37512C9.31636 5.4955 9.34111 5.68175 9.25511 5.82863C8.90036 6.4345 8.62498 7.09212 8.44298 7.78788C8.39998 7.95225 8.25048 8.06625 8.08048 8.06625H6.91848C6.71086 8.06625 6.54248 8.2345 6.54248 8.44213V11.0971C6.54248 11.3048 6.71086 11.4731 6.91848 11.4731H8.08073C8.25073 11.4731 8.40011 11.5871 8.44323 11.7515C8.62523 12.4473 8.90061 13.1049 9.25536 13.7106C9.34136 13.8575 9.31648 14.0439 9.19623 14.1643L8.37398 14.9865C8.22711 15.1333 8.22711 15.3714 8.37398 15.5183L10.2514 17.3956C10.3982 17.5424 10.6362 17.5424 10.783 17.3956L11.6052 16.5734C11.7256 16.4531 11.9119 16.4283 12.0587 16.5141C12.6645 16.869 13.3222 17.1444 14.0179 17.3263C14.1822 17.3692 14.2964 17.5187 14.2964 17.6887V18.8509C14.2964 19.0585 14.4647 19.2269 14.6724 19.2269H17.3274C17.535 19.2269 17.7034 19.0585 17.7034 18.8509V17.6887C17.7034 17.5187 17.8174 17.3692 17.9819 17.3263C18.6776 17.1443 19.3352 16.869 19.941 16.5141C20.0879 16.4281 20.2742 16.453 20.3945 16.5734L21.2167 17.3956C21.3636 17.5424 21.6016 17.5424 21.7484 17.3956L23.6257 15.5183C23.7725 15.3714 23.7725 15.1333 23.6257 14.9865L22.8034 14.1643C22.683 14.0439 22.6582 13.8575 22.7442 13.7106C23.099 13.1049 23.3744 12.4473 23.5564 11.7515C23.5994 11.5871 23.7489 11.4731 23.9189 11.4731H25.0811C25.2887 11.4731 25.4571 11.3048 25.4571 11.0971V8.44213C25.457 8.2345 25.2886 8.06625 25.081 8.06625ZM21.9512 10.075C21.7272 10.2755 21.4335 10.401 21.0759 10.4505C20.7341 12.9494 18.5924 14.875 15.9997 14.875C13.8016 14.875 11.9274 13.4908 11.1994 11.5468V11.7739C11.1994 11.9445 11.0611 12.0828 10.8905 12.0828H10.3641C10.1935 12.0828 10.0552 11.9445 10.0552 11.7739V7.76562C10.0552 7.595 10.1935 7.45675 10.3641 7.45675H10.9946C11.1187 7.45675 11.2307 7.531 11.2791 7.64525L11.3024 7.70013C12.0932 5.89038 13.8982 4.625 15.9997 4.625C17.9916 4.625 19.7169 5.76225 20.565 7.422H20.7099C21.2555 7.422 21.679 7.56012 21.9685 7.83275C22.2632 8.11037 22.4126 8.48675 22.4126 8.95125C22.4126 9.42275 22.2574 9.80087 21.9512 10.075Z" fill="#F5C84C"/>
<path d="M19.0169 26.7744H12.9824V30.195H19.0169V26.7744Z" fill="#C7D7E5"/>
<path d="M0.807617 22.5244V25.1803C0.807617 26.0568 1.52474 26.7738 2.40112 26.7738H29.5986C30.4751 26.7738 31.1921 26.0567 31.1921 25.1803V22.5244H0.807617Z" fill="#EDF4FC"/>
<path d="M14.4476 7.45675H13.8171C13.6923 7.45675 13.5797 7.53175 13.5318 7.647L12.4151 10.3329L11.2791 7.64525C11.2307 7.531 11.1187 7.45662 10.9946 7.45662H10.3641C10.1934 7.45662 10.0552 7.59488 10.0552 7.7655V11.7738C10.0552 11.9444 10.1934 12.0826 10.3641 12.0826H10.8904C11.0611 12.0826 11.1993 11.9444 11.1993 11.7738V10.18L11.8879 11.8891C11.9351 12.006 12.0486 12.0825 12.1746 12.0825H12.6431C12.7694 12.0825 12.8831 12.0055 12.9298 11.8883L13.6123 10.1805V11.7736C13.6123 11.9443 13.7506 12.0825 13.9212 12.0825H14.4476C14.6182 12.0825 14.7564 11.9443 14.7564 11.7736V7.76562C14.7564 7.595 14.6182 7.45675 14.4476 7.45675ZM19.0119 7.55412C18.9542 7.47137 18.8597 7.422 18.7587 7.422H18.1861C18.0558 7.422 17.9397 7.50362 17.8956 7.626L16.9273 10.3089L15.9728 7.62725C15.9291 7.504 15.8124 7.42188 15.6818 7.42188H15.1034C15.0026 7.42188 14.9081 7.47113 14.8503 7.55375C14.7926 7.6365 14.7788 7.74225 14.8134 7.837L16.3057 11.9146C16.3502 12.0364 16.4661 12.1174 16.5958 12.1174H17.2609C17.3904 12.1174 17.5062 12.0365 17.5509 11.915L19.0486 7.8375C19.0833 7.74275 19.0697 7.63687 19.0119 7.55412ZM21.9684 7.83275C21.6789 7.56012 21.2554 7.422 20.7098 7.422H19.4142C19.2436 7.422 19.1053 7.56025 19.1053 7.73088V11.8085C19.1053 11.9791 19.2436 12.1174 19.4142 12.1174H19.9405C20.1112 12.1174 20.2494 11.9791 20.2494 11.8085V10.4747H20.7099C21.2372 10.4747 21.6549 10.3404 21.9513 10.075C22.2574 9.80087 22.4127 9.42275 22.4127 8.95125C22.4126 8.48675 22.2632 8.11037 21.9684 7.83275ZM20.2494 8.47937H20.6636C20.8939 8.47937 21.0641 8.52025 21.1426 8.59463C21.1709 8.62138 21.2569 8.70263 21.2569 8.95125C21.2569 9.11175 21.2189 9.22612 21.1408 9.30087L21.1407 9.301C21.0626 9.376 20.8931 9.41737 20.6634 9.41737H20.2493V8.47937H20.2494Z" fill="#474646"/>
<path d="M29.5986 27.0868H2.40112C1.35012 27.0868 0.495117 26.2317 0.495117 25.1807V5.26147C0.495117 4.21047 1.35012 3.35547 2.40112 3.35547H8.67762C8.85024 3.35547 8.99012 3.49534 8.99012 3.66797C8.99012 3.84059 8.85024 3.98047 8.67762 3.98047H2.40112C1.69487 3.98047 1.12012 4.55522 1.12012 5.26147V25.1807C1.12012 25.8871 1.69487 26.4618 2.40112 26.4618H29.5986C30.3049 26.4618 30.8796 25.8871 30.8796 25.1807V5.26147C30.8796 4.55522 30.3049 3.98047 29.5986 3.98047H23.3397C23.1671 3.98047 23.0272 3.84059 23.0272 3.66797C23.0272 3.49534 23.1671 3.35547 23.3397 3.35547H29.5986C30.6496 3.35547 31.5046 4.21047 31.5046 5.26147V25.1807C31.5046 26.2318 30.6496 27.0868 29.5986 27.0868Z" fill="black"/>
<path d="M29.8642 22.791C29.6916 22.791 29.5517 22.6511 29.5517 22.4785V5.30859H23.25C23.0774 5.30859 22.9375 5.16872 22.9375 4.99609C22.9375 4.82347 23.0774 4.68359 23.25 4.68359H29.5987C29.9175 4.68359 30.1767 4.94284 30.1767 5.26159V22.4785C30.1767 22.6511 30.0369 22.791 29.8642 22.791ZM2.13574 22.7605C1.96312 22.7605 1.82324 22.6206 1.82324 22.448V5.26159C1.82324 4.94284 2.08249 4.68359 2.40124 4.68359H8.76774C8.94037 4.68359 9.08024 4.82347 9.08024 4.99609C9.08024 5.16872 8.94037 5.30859 8.76774 5.30859H2.44824V22.448C2.44824 22.6206 2.30837 22.7605 2.13574 22.7605Z" fill="black"/>
<path d="M21.4639 30.1943H10.5354C10.1232 30.1943 9.78906 30.5286 9.78906 30.9407C9.78906 31.353 10.1232 31.6871 10.5354 31.6871H21.4639C21.8762 31.6871 22.2103 31.3528 22.2103 30.9407C22.2103 30.5285 21.8762 30.1943 21.4639 30.1943Z" fill="#EDF4FC"/>
<path d="M15.9999 23.8633C15.5657 23.8633 15.2139 24.2152 15.2139 24.6493C15.2139 25.0834 15.5657 25.4353 15.9999 25.4353C16.434 25.4353 16.7859 25.0834 16.7859 24.6493C16.7859 24.2152 16.434 23.8633 15.9999 23.8633Z" fill="#C7D7E5"/>
<path d="M21.4641 31.9997H10.5356C9.95169 31.9997 9.47656 31.5247 9.47656 30.9408C9.47656 30.357 9.95169 29.8818 10.5356 29.8818H21.4641C22.0479 29.8818 22.5231 30.357 22.5231 30.9408C22.5231 31.5247 22.0479 31.9997 21.4641 31.9997ZM10.5356 30.507C10.2963 30.507 10.1016 30.7017 10.1016 30.941C10.1016 31.1802 10.2963 31.3747 10.5356 31.3747H21.4641C21.7033 31.3747 21.8981 31.1801 21.8981 30.9408C21.8981 30.7016 21.7033 30.5068 21.4641 30.5068L10.5356 30.507Z" fill="black"/>
<path d="M19.017 30.3911C18.8444 30.3911 18.7045 30.2512 18.7045 30.0786V26.8702C18.7045 26.6976 18.8444 26.5577 19.017 26.5577C19.1897 26.5577 19.3295 26.6976 19.3295 26.8702V30.0786C19.3295 30.2512 19.1897 30.3911 19.017 30.3911ZM12.9824 30.4232C12.8098 30.4232 12.6699 30.2833 12.6699 30.1107V26.8555C12.6699 26.6828 12.8098 26.543 12.9824 26.543C13.155 26.543 13.2949 26.6828 13.2949 26.8555V30.1107C13.2949 30.2833 13.155 30.4232 12.9824 30.4232Z" fill="black"/>
<path d="M27.463 1.4569C26.9008 1.35215 26.4577 0.918148 26.3508 0.367398C26.3454 0.339773 26.3068 0.339773 26.3014 0.367398C26.1945 0.918148 25.7514 1.35227 25.1892 1.4569C25.1609 1.46215 25.1609 1.50002 25.1892 1.50527C25.7514 1.61002 26.1945 2.04402 26.3014 2.5949C26.3068 2.62252 26.3454 2.62252 26.3508 2.5949C26.4577 2.04415 26.9008 1.61002 27.463 1.50527C27.4913 1.4999 27.4913 1.46215 27.463 1.4569Z" fill="#F5C84C"/>
<path d="M25.3627 28.8415C25.0394 28.7813 24.7845 28.5317 24.7232 28.215C24.72 28.1992 24.6979 28.1992 24.6948 28.215C24.6333 28.5318 24.3785 28.7814 24.0552 28.8415C24.0389 28.8445 24.0389 28.8663 24.0552 28.8693C24.3784 28.9295 24.6333 29.1792 24.6948 29.4958C24.6979 29.5117 24.72 29.5117 24.7232 29.4958C24.7847 29.179 25.0394 28.9294 25.3627 28.8693C25.3788 28.8663 25.3788 28.8445 25.3627 28.8415Z" fill="#87D147"/>
<path d="M7.74232 29.8109H7.45107V29.5196C7.45107 29.3016 7.27445 29.125 7.05645 29.125C6.83845 29.125 6.66182 29.3016 6.66182 29.5196V29.8109H6.3707C6.1527 29.8109 5.97607 29.9875 5.97607 30.2055C5.97607 30.4235 6.1527 30.6001 6.3707 30.6001H6.66182V30.8914C6.66182 31.1094 6.83845 31.286 7.05645 31.286C7.27445 31.286 7.45107 31.1094 7.45107 30.8914V30.6001H7.74232C7.96032 30.6001 8.13695 30.4235 8.13695 30.2055C8.13695 29.9875 7.96032 29.8109 7.74232 29.8109Z" fill="#70D6F9"/>
<path d="M4.08277 28.8442C4.3159 28.8442 4.50489 28.6553 4.50489 28.4221C4.50489 28.189 4.3159 28 4.08277 28C3.84964 28 3.66064 28.189 3.66064 28.4221C3.66064 28.6553 3.84964 28.8442 4.08277 28.8442Z" fill="#FC657E"/>
<path d="M22.9578 0.84425C23.1909 0.84425 23.3799 0.655258 23.3799 0.422125C23.3799 0.188992 23.1909 0 22.9578 0C22.7246 0 22.5356 0.188992 22.5356 0.422125C22.5356 0.655258 22.7246 0.84425 22.9578 0.84425Z" fill="#70D6F9"/>
<path d="M31.1092 22.8375H0.892578C0.719953 22.8375 0.580078 22.6976 0.580078 22.525C0.580078 22.3524 0.719953 22.2125 0.892578 22.2125H31.1092C31.2818 22.2125 31.4217 22.3524 31.4217 22.525C31.4217 22.6976 31.2818 22.8375 31.1092 22.8375ZM15.9998 25.7482C15.3941 25.7482 14.9013 25.2555 14.9013 24.6497C14.9013 24.044 15.3941 23.5512 15.9998 23.5512C16.6056 23.5512 17.0983 24.044 17.0983 24.6497C17.0983 25.2555 16.6056 25.7482 15.9998 25.7482ZM15.9998 24.1762C15.7387 24.1762 15.5263 24.3886 15.5263 24.6497C15.5263 24.9109 15.7387 25.1232 15.9998 25.1232C16.261 25.1232 16.4733 24.9109 16.4733 24.6497C16.4733 24.3886 16.261 24.1762 15.9998 24.1762ZM29.7655 21.3447H2.2342C2.06158 21.3447 1.9217 21.2049 1.9217 21.0322C1.9217 20.8596 2.06158 20.7197 2.2342 20.7197H29.7655C29.9381 20.7197 30.078 20.8596 30.078 21.0322C30.078 21.2049 29.9381 21.3447 29.7655 21.3447Z" fill="black"/>
<path d="M5.27344 22.8099C5.10081 22.8099 4.96094 22.67 4.96094 22.4974V21.068C4.96094 20.8954 5.10081 20.7555 5.27344 20.7555C5.44606 20.7555 5.58594 20.8954 5.58594 21.068V22.4974C5.58594 22.67 5.44606 22.8099 5.27344 22.8099ZM17.3272 19.5394H14.6722C14.2926 19.5394 13.9837 19.2305 13.9837 18.8509V17.6887C13.9837 17.6601 13.9652 17.6354 13.9386 17.6285C13.2244 17.4417 12.5388 17.1574 11.9007 16.7838C11.8771 16.7698 11.8463 16.774 11.8262 16.7941L11.0037 17.6165C10.8738 17.7465 10.7009 17.8181 10.5168 17.8181C10.3328 17.8181 10.1601 17.7465 10.0299 17.6164L8.15256 15.7391C8.02244 15.6091 7.95094 15.4361 7.95094 15.2522C7.95094 15.0684 8.02244 14.8955 8.15256 14.7654L8.97494 13.9431C8.99494 13.923 8.99919 13.8923 8.98531 13.8684C8.61156 13.2301 8.32719 12.5444 8.14044 11.8304C8.13356 11.8038 8.10881 11.7854 8.08044 11.7854H6.91844C6.53881 11.7854 6.22994 11.4765 6.22994 11.0969V8.44188C6.22994 8.06238 6.53881 7.7535 6.91844 7.7535H8.08069C8.10919 7.7535 8.13394 7.73513 8.14069 7.70862C8.32756 6.9945 8.61181 6.30875 8.98556 5.67037C8.99944 5.64663 8.99519 5.61575 8.97506 5.59562L8.15281 4.77338C8.02281 4.6435 7.95119 4.47062 7.95119 4.28662C7.95119 4.10262 8.02269 3.92988 8.15281 3.79975L10.0303 1.92225C10.2986 1.65387 10.7354 1.65375 11.0038 1.92225L11.8262 2.74463C11.8463 2.76463 11.8768 2.76913 11.9008 2.755C12.5392 2.38125 13.2249 2.09687 13.9388 1.91013C13.9654 1.90325 13.9838 1.87863 13.9838 1.85025V0.6885C13.9838 0.308875 14.2927 0 14.6723 0H17.3273C17.7069 0 18.0158 0.308875 18.0158 0.6885V1.85075C18.0158 1.87925 18.0342 1.90387 18.0607 1.91062C18.7747 2.09737 19.4603 2.38175 20.0988 2.7555C20.1224 2.76925 20.1533 2.76537 20.1733 2.74525L20.9958 1.92275C21.2641 1.6545 21.7009 1.65437 21.9692 1.92262L23.8468 3.80025C23.9769 3.93025 24.0484 4.10313 24.0484 4.28713C24.0484 4.47113 23.9768 4.64388 23.8467 4.774L23.0244 5.59625C23.0044 5.61625 23.0002 5.647 23.0141 5.67088C23.3878 6.30912 23.6721 6.995 23.8589 7.709C23.8658 7.73563 23.8906 7.754 23.9189 7.754H25.0812C25.4608 7.754 25.7697 8.06287 25.7697 8.44238V11.0974C25.7697 11.477 25.4608 11.7859 25.0812 11.7859H23.9189C23.8904 11.7859 23.8657 11.8043 23.8589 11.8308C23.6722 12.5449 23.3878 13.2305 23.0141 13.8689C23.0002 13.8926 23.0044 13.9235 23.0246 13.9438L23.8468 14.7659C23.9769 14.8959 24.0484 15.0689 24.0484 15.2528C24.0484 15.4366 23.9769 15.6095 23.8468 15.7396L21.9693 17.617C21.8393 17.7471 21.6664 17.8186 21.4824 17.8186C21.2984 17.8186 21.1257 17.747 20.9956 17.6169L20.1733 16.7948C20.1532 16.7746 20.1224 16.7708 20.0986 16.7843C19.4606 17.1579 18.7749 17.4423 18.0607 17.6291C18.0342 17.636 18.0157 17.6608 18.0157 17.6893V18.8514C18.0157 19.2306 17.7068 19.5394 17.3272 19.5394ZM11.8708 16.1507C11.9894 16.1507 12.1088 16.1814 12.2166 16.2445C12.8053 16.5894 13.4379 16.8515 14.0969 17.0239C14.3983 17.1029 14.6088 17.3762 14.6088 17.6887V18.8509C14.6088 18.8859 14.6373 18.9144 14.6723 18.9144H17.3273C17.3623 18.9144 17.3908 18.8859 17.3908 18.8509V17.6887C17.3908 17.3762 17.6013 17.1028 17.9026 17.024C18.5616 16.8515 19.1943 16.5892 19.7829 16.2445C20.0523 16.0869 20.3944 16.1313 20.6154 16.3525L21.4377 17.1746C21.4684 17.2054 21.4967 17.2054 21.5274 17.1746L23.4049 15.2972C23.4297 15.2725 23.4297 15.2321 23.4049 15.2074L22.5826 14.3851C22.3614 14.1639 22.3173 13.8216 22.4748 13.5526C22.8197 12.9637 23.0819 12.3311 23.2542 11.6724C23.3329 11.3711 23.6063 11.1605 23.9189 11.1605H25.0812C25.1162 11.1605 25.1447 11.132 25.1447 11.097V8.442C25.1447 8.40713 25.1162 8.37862 25.0812 8.37862H23.9189C23.6063 8.37862 23.3329 8.168 23.2542 7.86662C23.0818 7.20787 22.8196 6.57537 22.4748 5.98637C22.3172 5.71762 22.3616 5.37525 22.5824 5.15413L23.4049 4.33162C23.4203 4.31625 23.4234 4.29875 23.4234 4.28687C23.4234 4.275 23.4203 4.25738 23.4049 4.242L21.5274 2.3645C21.5028 2.34 21.4623 2.33975 21.4377 2.3645L20.6153 3.18688C20.3944 3.40825 20.0519 3.45237 19.7829 3.29463C19.1939 2.94975 18.5613 2.6875 17.9027 2.51525C17.6014 2.4365 17.3908 2.16325 17.3908 1.85063V0.6885C17.3908 0.6535 17.3623 0.625 17.3273 0.625H14.6723C14.6373 0.625 14.6088 0.6535 14.6088 0.6885V1.85075C14.6088 2.16337 14.3982 2.43675 14.0968 2.51537C13.4383 2.68762 12.8057 2.95 12.2167 3.29475C11.9477 3.4525 11.6052 3.40812 11.3843 3.187L10.5619 2.36462C10.5372 2.33987 10.4968 2.34013 10.4722 2.36462L8.59469 4.24213C8.57931 4.2575 8.57619 4.27513 8.57619 4.287C8.57619 4.29888 8.57931 4.31637 8.59456 4.33162L9.41706 5.15413C9.63819 5.3755 9.68244 5.71775 9.52481 5.9865C9.17994 6.5755 8.91781 7.208 8.74544 7.86688C8.66669 8.16813 8.39331 8.37875 8.08069 8.37875H6.91844C6.88344 8.37875 6.85494 8.40725 6.85494 8.44213V11.0971C6.85494 11.1321 6.88344 11.1606 6.91844 11.1606H8.08069C8.39331 11.1606 8.66669 11.3712 8.74544 11.6726C8.91769 12.3312 9.18006 12.9639 9.52481 13.5527C9.68231 13.8217 9.63806 14.1641 9.41719 14.3851L8.59469 15.2075C8.56994 15.2323 8.56994 15.2726 8.59469 15.2974L10.4722 17.1747C10.5032 17.2056 10.5314 17.2052 10.5618 17.1749L11.3843 16.3525C11.5167 16.2198 11.6929 16.1507 11.8708 16.1507Z" fill="black"/>
</g>
<defs>
<clipPath id="clip0_6292_443">
<rect width="32" height="32" fill="white"/>
</clipPath>
</defs>
</svg>
