<svg width="46" height="36" viewBox="0 0 46 36" fill="none" xmlns="http://www.w3.org/2000/svg">
<g clip-path="url(#clip0_6274_1634)">
<g clip-path="url(#clip1_6274_1634)">
<g clip-path="url(#clip2_6274_1634)">
<path d="M46.2403 18.4108C46.2403 17.2722 45.3141 16.3407 44.182 16.3407H37.1836C37.4924 15.2021 37.8526 14.1153 38.3672 13.0803C39.3964 11.1137 40.8372 9.04361 42.7926 6.87001C43.616 5.99022 43.5645 4.59291 42.5868 3.81662L38.573 0.556227C37.7497 -0.116556 36.4632 -0.0130523 35.7428 0.763235C32.398 4.3859 30.0309 7.85331 28.5386 11.1655C26.892 14.8916 26.0686 19.0836 26.0686 23.7413V34.04C26.0686 35.1786 26.9949 36.1101 28.127 36.1101H44.182C45.3141 36.1101 46.2403 35.1786 46.2403 34.04V18.4108Z" fill="#FF0000"/>
<path d="M19.6717 34.04V18.4108C19.6717 17.2722 18.7454 16.3407 17.6133 16.3407H10.615C10.9237 15.2021 11.2839 14.1153 11.7985 13.0803C12.8277 11.1137 14.2685 9.04361 16.224 6.87001C17.0473 5.99022 16.9958 4.59291 16.0181 3.81662L12.0044 0.556225C11.181 -0.116558 9.89464 -0.01305 9.17419 0.763237C5.82939 4.3859 3.4623 7.85331 1.97001 11.1655C0.323337 14.8916 -0.5 19.0836 -0.5 23.7413L-0.499999 34.04C-0.499999 35.1786 0.426257 36.1101 1.55834 36.1101H17.5619C18.694 36.1101 19.6202 35.1786 19.6202 34.04H19.6717Z" fill="#FF0000"/>
</g>
</g>
</g>
<defs>
<clipPath id="clip0_6274_1634">
<rect width="46" height="35.22" fill="white" transform="translate(0 0.5)"/>
</clipPath>
<clipPath id="clip1_6274_1634">
<rect width="46" height="35.22" fill="white" transform="translate(0 0.5)"/>
</clipPath>
<clipPath id="clip2_6274_1634">
<rect width="47" height="36" fill="white" transform="translate(-0.5 0.110107)"/>
</clipPath>
</defs>
</svg>
