<svg width="32" height="32" viewBox="0 0 32 32" fill="none" xmlns="http://www.w3.org/2000/svg">
<g clip-path="url(#clip0_6292_861)">
<path d="M5.46613 31.375H0.625V17.3438H5.46613C6.25281 17.3438 6.89062 17.9815 6.89062 18.7682V29.9506C6.89062 30.7373 6.25287 31.375 5.46613 31.375Z" fill="#A780BA"/>
<path d="M28.0625 26.375V13.125L18.5625 3.8125L9.0625 13.125V26.375H28.0625Z" fill="#FFB300"/>
<path d="M22.0566 14.9375H15.0566V24.4375H22.0566V14.9375Z" fill="white"/>
<path d="M30.9132 24.7205L30.8542 24.6616C30.2429 24.0504 29.2823 23.9629 28.5707 24.4536L25.129 27.0419C25.6682 26.5435 25.7093 25.4709 25.1049 24.8665C24.8705 24.632 24.5525 24.5004 24.221 24.5004H19.1949C18.6976 24.5004 18.2207 24.3028 17.8691 23.9512L14.5451 20.6116C13.9591 20.0255 13.1643 19.6963 12.3354 19.6963H6.89062V28.5837L9.48162 30.1529C10.8019 30.9525 12.3161 31.3754 13.8597 31.3754H22.9359C24.5714 31.3754 26.1573 30.8137 27.4282 29.7843L30.7907 27.0608C31.5179 26.4717 31.575 25.3824 30.9132 24.7205Z" fill="#FEDCC5"/>
<path d="M18.5561 4.60187L27.0902 13.125H31.0722L18.5561 0.625L6.04004 13.125H10.022L18.5561 4.60187Z" fill="white"/>
<path d="M18.5557 12.4795C19.5567 12.4795 20.3682 11.668 20.3682 10.667C20.3682 9.66598 19.5567 8.85449 18.5557 8.85449C17.5546 8.85449 16.7432 9.66598 16.7432 10.667C16.7432 11.668 17.5546 12.4795 18.5557 12.4795Z" fill="white"/>
<path d="M18.5561 4.60187L27.0902 13.125H31.0722L18.5561 0.625L6.04004 13.125H10.022L18.5561 4.60187Z" fill="#FF5D5D"/>
<path d="M18.5561 4.60187L27.0902 13.125H31.0722L18.5561 0.625L6.04004 13.125H10.022L18.5561 4.60187Z" fill="#FF5D5D"/>
<path d="M31.3551 24.2782L31.2962 24.2192C30.6003 23.5234 29.5694 23.3307 28.6876 23.6851V13.7499H31.0725C31.3254 13.7499 31.5533 13.5975 31.65 13.3639C31.7467 13.1303 31.6931 12.8614 31.5141 12.6827L18.9981 0.182734C18.7541 -0.0609531 18.3587 -0.0608906 18.1147 0.182797L14.6786 3.61555C14.4344 3.85948 14.4341 4.25523 14.6781 4.49942C14.9221 4.74367 15.3179 4.74386 15.562 4.49986L18.5565 1.50836L29.5622 12.4999H27.3491L18.998 4.15955C18.754 3.91586 18.3587 3.91586 18.1147 4.15955L9.76363 12.4999H7.5505L12.0799 7.97636C12.3242 7.73242 12.3244 7.33673 12.0805 7.09248C11.8366 6.84823 11.4409 6.84798 11.1966 7.09192L5.59863 12.6827C5.41969 12.8614 5.36606 13.1303 5.46275 13.3639C5.55944 13.5975 5.78737 13.7499 6.04025 13.7499H8.4375V19.0709H7.51562V18.7682C7.51562 17.638 6.59625 16.7187 5.46613 16.7187H0.625C0.279813 16.7187 0 16.9985 0 17.3437V31.3749C0 31.72 0.279813 31.9999 0.625 31.9999H5.46613C6.59619 31.9999 7.51562 31.0805 7.51562 29.9504V29.6925L9.15781 30.6871C10.5759 31.546 12.2018 32 13.8597 32H22.9359C24.7087 32 26.4438 31.3855 27.8215 30.2695L31.184 27.546C31.6681 27.154 31.9644 26.5723 31.9969 25.9502C32.0295 25.328 31.7956 24.7187 31.3551 24.2782ZM9.6875 13.7499H10.0223C10.1879 13.7499 10.3467 13.6842 10.4639 13.5672L18.5564 5.48511L26.6488 13.5672C26.766 13.6842 26.9249 13.7499 27.0904 13.7499H27.4375V24.4532C27.4375 24.476 27.4389 24.4984 27.4412 24.5205L26.1207 25.5137C26.0352 25.1025 25.8406 24.7179 25.5468 24.424C25.1926 24.0699 24.7218 23.8749 24.221 23.8749H22.6814V14.9374C22.6814 14.5922 22.4016 14.3124 22.0564 14.3124H15.0564C14.7112 14.3124 14.4314 14.5922 14.4314 14.9374V19.7105C13.8171 19.2947 13.0936 19.0709 12.3354 19.0709H9.6875V13.7499ZM21.4314 23.8749H19.1949C18.861 23.8749 18.5471 23.7449 18.3121 23.5098L15.6767 20.8621C15.6795 20.838 15.6814 20.8136 15.6814 20.7887V15.5624H21.4314V23.8749ZM6.26562 29.9504C6.26562 30.3913 5.907 30.7499 5.46613 30.7499H1.25V17.9687H5.46613C5.90694 17.9687 6.26562 18.3273 6.26562 18.7682V29.9504ZM30.7487 25.8848C30.7344 26.1577 30.6096 26.4027 30.3972 26.5747L27.0347 29.2982C25.8789 30.2344 24.4233 30.7499 22.9359 30.7499H13.8597C12.4301 30.7499 11.0281 30.3584 9.80538 29.6179L7.51562 28.231V20.3209H12.3354C13.0031 20.3209 13.6309 20.5809 14.1021 21.0521L17.4271 24.3927C17.8994 24.8649 18.5271 25.1249 19.1949 25.1249H24.221C24.3879 25.1249 24.5449 25.1899 24.6629 25.308C24.9495 25.5945 24.9727 26.0666 24.8489 26.3652C24.812 26.4544 24.7685 26.5181 24.7235 26.5644L24.6916 26.5884C24.6936 26.5888 24.6953 26.5891 24.6973 26.5895C24.5888 26.6842 24.4771 26.6848 24.4298 26.6848H16.9375C16.5056 26.6848 16.0859 26.5604 15.7239 26.3249L13.7183 25.0204L13.7109 25.0156C13.4219 24.827 13.0346 24.9082 12.8459 25.1974C12.6573 25.4864 12.7386 25.8737 13.0277 26.0624L15.0424 27.3727C15.6077 27.7404 16.263 27.9348 16.9375 27.9348H24.4297C24.8491 27.9348 25.2272 27.7885 25.5246 27.526L28.9351 24.9612C29.3974 24.6487 30.0169 24.7076 30.4123 25.1031L30.4713 25.162C30.6644 25.3552 30.763 25.6119 30.7487 25.8848Z" fill="#242222"/>
<path d="M25.375 23.3749C25.7202 23.3749 26 23.0951 26 22.7499V18.7891C26 18.4439 25.7202 18.1641 25.375 18.1641C25.0298 18.1641 24.75 18.4439 24.75 18.7891V22.7499C24.75 23.0951 25.0298 23.3749 25.375 23.3749Z" fill="#242222"/>
<path d="M25.375 17.0351C25.5394 17.0351 25.7006 16.9683 25.8169 16.852C25.9331 16.7358 26 16.5745 26 16.4101C26 16.2451 25.9331 16.0845 25.8169 15.9683C25.7006 15.8514 25.5394 15.7852 25.375 15.7852C25.2106 15.7852 25.0494 15.8514 24.9331 15.9683C24.8169 16.0845 24.75 16.2452 24.75 16.4101C24.75 16.5745 24.8169 16.7358 24.9331 16.852C25.0494 16.9683 25.2106 17.0351 25.375 17.0351Z" fill="#242222"/>
<path d="M17.1123 20.3213C17.2767 20.3213 17.4373 20.2544 17.5542 20.1382C17.6704 20.0213 17.7373 19.8607 17.7373 19.6957C17.7373 19.5313 17.6704 19.3707 17.5542 19.2538C17.4379 19.1376 17.2767 19.0713 17.1123 19.0713C16.9473 19.0713 16.7867 19.1376 16.6698 19.2538C16.5536 19.3707 16.4873 19.5313 16.4873 19.6957C16.4873 19.8607 16.5536 20.0213 16.6698 20.1382C16.7867 20.2544 16.9479 20.3213 17.1123 20.3213Z" fill="#242222"/>
<path d="M12.9371 6.23795C13.0591 6.36001 13.219 6.42095 13.379 6.42095C13.5389 6.42095 13.6989 6.35988 13.8209 6.23788C14.065 5.99382 14.0649 5.59801 13.8209 5.35395C13.5768 5.10988 13.1811 5.10988 12.937 5.35395C12.6929 5.59801 12.6929 5.99376 12.937 6.23788L12.9371 6.23795Z" fill="#242222"/>
<path d="M18.5566 13.1045C19.9007 13.1045 20.9941 12.0111 20.9941 10.667C20.9941 9.32293 19.9007 8.22949 18.5566 8.22949C17.2126 8.22949 16.1191 9.32293 16.1191 10.667C16.1191 12.0111 17.2126 13.1045 18.5566 13.1045ZM18.5566 9.47949C19.2115 9.47949 19.7441 10.0122 19.7441 10.667C19.7441 11.3218 19.2115 11.8545 18.5566 11.8545C17.9018 11.8545 17.3691 11.3218 17.3691 10.667C17.3691 10.0122 17.9018 9.47949 18.5566 9.47949Z" fill="#242222"/>
<path d="M3.75781 27.375C3.59344 27.375 3.43281 27.4418 3.31594 27.5581C3.19969 27.6744 3.13281 27.8356 3.13281 28C3.13281 28.1644 3.19969 28.3256 3.31594 28.4418C3.43281 28.5581 3.59344 28.625 3.75781 28.625C3.92281 28.625 4.08344 28.5581 4.19969 28.4418C4.31656 28.3256 4.38281 28.1644 4.38281 28C4.38281 27.8356 4.31656 27.6744 4.19969 27.5581C4.08344 27.4418 3.92281 27.375 3.75781 27.375Z" fill="#242222"/>
</g>
<defs>
<clipPath id="clip0_6292_861">
<rect width="32" height="32" fill="white"/>
</clipPath>
</defs>
</svg>
