<svg width="32" height="32" viewBox="0 0 32 32" fill="none" xmlns="http://www.w3.org/2000/svg">
<g clip-path="url(#clip0_6292_950)">
<path d="M5.33789 8.37402H29.8381V25.9718H5.33789V8.37402Z" fill="#FFEEC5"/>
<path d="M17.3584 15.4072H26.4204V25.9716H17.3584V15.4072Z" fill="#FFEEC5"/>
<path fill-rule="evenodd" clip-rule="evenodd" d="M31.562 8.24291V9.7541C31.5585 10.493 31.2625 11.2005 30.7388 11.7218C30.215 12.2431 29.5062 12.5357 28.7672 12.5357C28.0283 12.5357 27.3194 12.2431 26.7957 11.7218C26.2719 11.2005 25.976 10.493 25.9725 9.7541C25.969 10.493 25.673 11.2005 25.1492 11.7218C24.6255 12.2431 23.9166 12.5357 23.1777 12.5357C22.4387 12.5357 21.7299 12.2431 21.2061 11.7218C20.6824 11.2005 20.3864 10.493 20.3829 9.7541C20.3829 10.4953 20.0884 11.2062 19.5643 11.7303C19.0402 12.2545 18.3293 12.5489 17.5881 12.5489C16.8469 12.5489 16.136 12.2545 15.6119 11.7303C15.0877 11.2062 14.7933 10.4953 14.7933 9.7541C14.7933 10.495 14.4989 11.2057 13.975 11.7296C13.4511 12.2535 12.7405 12.5479 11.9995 12.5479C11.2586 12.5479 10.548 12.2535 10.024 11.7296C9.50011 11.2057 9.20577 10.495 9.20577 9.7541C9.20228 10.493 8.90629 11.2005 8.38254 11.7218C7.8588 12.2431 7.14993 12.5357 6.41099 12.5357C5.67205 12.5357 4.96318 12.2431 4.43944 11.7218C3.9157 11.2005 3.61971 10.493 3.61621 9.7541V8.24291L7.0279 1.2041H28.1495L31.562 8.24291Z" fill="white"/>
<path fill-rule="evenodd" clip-rule="evenodd" d="M20.3828 8.24316H25.9724V9.75435C25.9699 10.4949 25.6744 11.2043 25.1506 11.7277C24.6268 12.2512 23.9172 12.5461 23.1767 12.5481C22.4365 12.5457 21.7273 12.2506 21.2039 11.7272C20.6805 11.2038 20.3853 10.4946 20.3829 9.75435L20.3828 8.24316Z" fill="#FF5D5D"/>
<path d="M17.3584 15.4072H21.8885V25.9716H17.3584V15.4072Z" fill="#FFEEC5"/>
<path d="M16.3174 14.624H27.4611V16.1901H16.3174V14.624Z" fill="#FF5D5D"/>
<path d="M7.48535 14.624H14.0706V19.5333H7.48535V14.624Z" fill="#FFB300"/>
<path fill-rule="evenodd" clip-rule="evenodd" d="M20.3833 8.24291L19.5314 1.2041H15.6459L14.7939 8.24291V9.7541C14.7939 10.4953 15.0884 11.2062 15.6125 11.7303C16.1367 12.2545 16.8475 12.5489 17.5888 12.5489C18.33 12.5489 19.0409 12.2545 19.565 11.7303C20.0891 11.2062 20.3836 10.4953 20.3836 9.7541L20.3833 8.24291Z" fill="#FFB300"/>
<path fill-rule="evenodd" clip-rule="evenodd" d="M14.7939 8.24316V9.75435C14.7939 10.4956 15.0884 11.2065 15.6125 11.7306C16.1367 12.2547 16.8475 12.5492 17.5888 12.5492C18.33 12.5492 19.0409 12.2547 19.565 11.7306C20.0891 11.2065 20.3836 10.4956 20.3836 9.75435V8.24316H14.7939Z" fill="#FF5D5D"/>
<path fill-rule="evenodd" clip-rule="evenodd" d="M14.7941 8.24291L15.646 1.2041H11.3302L9.20605 8.24291V9.7541C9.20605 10.121 9.27832 10.4843 9.41872 10.8232C9.55911 11.1622 9.7649 11.4702 10.0243 11.7296C10.2837 11.989 10.5917 12.1948 10.9307 12.3352C11.2696 12.4756 11.6329 12.5479 11.9998 12.5479C12.3667 12.5479 12.73 12.4756 13.0689 12.3352C13.4079 12.1948 13.7159 11.989 13.9753 11.7296C14.2347 11.4702 14.4405 11.1622 14.5809 10.8232C14.7213 10.4843 14.7936 10.121 14.7936 9.7541L14.7941 8.24291Z" fill="#FF5D5D"/>
<path fill-rule="evenodd" clip-rule="evenodd" d="M9.20605 8.24316V9.75435C9.20605 10.1212 9.27832 10.4845 9.41872 10.8235C9.55911 11.1624 9.7649 11.4704 10.0243 11.7298C10.2837 11.9893 10.5917 12.195 10.9307 12.3354C11.2696 12.4758 11.6329 12.5481 11.9998 12.5481C12.3667 12.5481 12.73 12.4758 13.0689 12.3354C13.4079 12.195 13.7159 11.9893 13.9753 11.7298C14.2347 11.4704 14.4405 11.1624 14.5809 10.8235C14.7213 10.4845 14.7936 10.1212 14.7936 9.75435V8.24316H9.20605Z" fill="#FFB300"/>
<path fill-rule="evenodd" clip-rule="evenodd" d="M20.3831 8.24291L19.5312 1.2041H23.847L25.973 8.24291V9.7541C25.9695 10.493 25.6735 11.2005 25.1498 11.7218C24.626 12.2431 23.9172 12.5357 23.1782 12.5357C22.4393 12.5357 21.7304 12.2431 21.2067 11.7218C20.6829 11.2005 20.3869 10.493 20.3834 9.7541L20.3831 8.24291Z" fill="#FF5D5D"/>
<path fill-rule="evenodd" clip-rule="evenodd" d="M25.9724 8.24316V9.75435C25.9689 10.4933 25.6729 11.2008 25.1491 11.722C24.6254 12.2433 23.9165 12.5359 23.1776 12.5359C22.4387 12.5359 21.7298 12.2433 21.206 11.722C20.6823 11.2008 20.3863 10.4933 20.3828 9.75435V8.24316H25.9724Z" fill="#FFB300"/>
<path fill-rule="evenodd" clip-rule="evenodd" d="M9.20577 8.24291L11.33 1.2041H7.0284L3.61621 8.24291V9.7541C3.61808 10.3057 3.7824 10.8445 4.08865 11.3033C4.3949 11.762 4.82951 12.1204 5.33821 12.3337C5.76279 12.5103 6.2244 12.5794 6.68209 12.5349C7.13979 12.4904 7.57942 12.3336 7.96199 12.0784C8.34456 11.8232 8.65824 11.4776 8.87521 11.0721C9.09217 10.6667 9.20572 10.214 9.20577 9.7541V8.24291Z" fill="#FFB300"/>
<path fill-rule="evenodd" clip-rule="evenodd" d="M3.61621 8.24316V9.75435C3.61808 10.3059 3.7824 10.8448 4.08865 11.3035C4.3949 11.7623 4.82951 12.1207 5.33821 12.3339C5.76279 12.5106 6.2244 12.5797 6.68209 12.5351C7.13979 12.4906 7.57942 12.3338 7.96199 12.0787C8.34456 11.8235 8.65824 11.4778 8.87521 11.0724C9.09217 10.6669 9.20572 10.2142 9.20577 9.75435V8.24316H3.61621Z" fill="#FF5D5D"/>
<path fill-rule="evenodd" clip-rule="evenodd" d="M23.8467 1.2041L25.9727 8.24291V9.7541C25.9751 10.4943 26.2702 11.2035 26.7936 11.7269C27.317 12.2503 28.0262 12.5454 28.7664 12.5479C29.1344 12.5483 29.4988 12.4754 29.8383 12.3335C30.3475 12.1207 30.7826 11.7625 31.0893 11.3037C31.3959 10.845 31.5606 10.3059 31.5625 9.7541V8.24291L28.15 1.2041H23.8467Z" fill="#FFB300"/>
<path fill-rule="evenodd" clip-rule="evenodd" d="M25.9727 8.24316V9.75435C25.9751 10.4946 26.2702 11.2038 26.7936 11.7272C27.317 12.2506 28.0262 12.5457 28.7664 12.5481C29.1344 12.5486 29.4988 12.4757 29.8383 12.3337C30.3474 12.1209 30.7826 11.7628 31.0893 11.304C31.3959 10.8452 31.5605 10.3062 31.5625 9.75435V8.24316H25.9727Z" fill="#FF5D5D"/>
<path fill-rule="evenodd" clip-rule="evenodd" d="M4.56402 9.75435V8.24316H3.61621V9.75435C3.61808 10.3059 3.7824 10.8448 4.08865 11.3035C4.3949 11.7623 4.82951 12.1207 5.33821 12.3339C5.82682 12.5375 6.36331 12.5977 6.8849 12.5075C6.29344 12.4062 5.75076 12.1159 5.33821 11.6802C4.8411 11.1623 4.56366 10.4722 4.56402 9.75435Z" fill="#FF5D5D"/>
<path fill-rule="evenodd" clip-rule="evenodd" d="M3.61621 8.24291H4.56402L7.97652 1.2041H7.0284L3.61621 8.24291Z" fill="#FFB300"/>
<path fill-rule="evenodd" clip-rule="evenodd" d="M6.20602 20.7567V12.5412C5.9074 12.5192 5.61428 12.4492 5.33789 12.334V25.9722H6.20602V20.7567Z" fill="#B7CFE8"/>
<path fill-rule="evenodd" clip-rule="evenodd" d="M10.0238 9.75435V8.24316H9.20508V9.75435C9.20719 10.4947 9.50221 11.204 10.0257 11.7275C10.5492 12.251 11.2585 12.546 11.9988 12.5481C12.1358 12.548 12.2726 12.5379 12.4081 12.518C11.7461 12.4178 11.1419 12.084 10.7045 11.5772C10.2672 11.0703 10.0256 10.4236 10.0235 9.75416L10.0238 9.75435Z" fill="#FFB300"/>
<path fill-rule="evenodd" clip-rule="evenodd" d="M9.20605 8.24291H10.0248L12.1503 1.2041H11.3302L9.20605 8.24291Z" fill="#FF5D5D"/>
<path fill-rule="evenodd" clip-rule="evenodd" d="M15.5715 9.75435V8.24316H14.7939V9.75435C14.7947 10.154 14.881 10.5488 15.047 10.9124C15.2131 11.2759 15.4551 11.5996 15.7567 11.8618C16.0583 12.124 16.4126 12.3185 16.7957 12.4323C17.1788 12.5462 17.5818 12.5767 17.9776 12.5217C17.3114 12.4256 16.7019 12.0933 16.2603 11.5853C15.8186 11.0773 15.5743 10.4275 15.5718 9.75435H15.5715Z" fill="#FF5D5D"/>
<path fill-rule="evenodd" clip-rule="evenodd" d="M14.7939 8.24291H15.5718L16.4236 1.2041H15.6459L14.7939 8.24291Z" fill="#FFB300"/>
<path fill-rule="evenodd" clip-rule="evenodd" d="M21.0649 8.24316H20.3828V9.75435C20.3852 10.4946 20.6803 11.2038 21.2037 11.7272C21.7272 12.2506 22.4364 12.5457 23.1766 12.5481C23.2909 12.5482 23.4051 12.5411 23.5185 12.5269C22.8426 12.4414 22.2209 12.1129 21.7694 11.6027C21.3178 11.0925 21.0674 10.4355 21.0647 9.75416V8.24316H21.0649Z" fill="#FFB300"/>
<path fill-rule="evenodd" clip-rule="evenodd" d="M20.3831 8.24291H21.0652L20.2148 1.2041H19.5312L20.3831 8.24291Z" fill="#FF5D5D"/>
<path fill-rule="evenodd" clip-rule="evenodd" d="M26.6777 8.24316H25.9727V9.75435C25.9751 10.4946 26.2702 11.2038 26.7936 11.7272C27.317 12.2506 28.0262 12.5457 28.7664 12.5481C28.8849 12.5485 29.0033 12.5408 29.1207 12.525C28.4468 12.4378 27.8275 12.1087 27.3781 11.599C26.9287 11.0893 26.6797 10.4337 26.6776 9.75416V8.24316H26.6777Z" fill="#FF5D5D"/>
<path fill-rule="evenodd" clip-rule="evenodd" d="M25.9727 8.24291H26.6777L24.5536 1.2041H23.8467L25.9727 8.24291Z" fill="#FFB300"/>
<path fill-rule="evenodd" clip-rule="evenodd" d="M14.0706 18.7325H8.21529V14.624H7.48535V19.5333H14.0706V18.7325Z" fill="#FFB300"/>
<path d="M19.7056 19.6726C19.6053 19.6149 19.4862 19.5993 19.3744 19.6293C19.2626 19.6593 19.1673 19.7324 19.1094 19.8326L18.3456 21.1564C18.317 21.206 18.2984 21.2608 18.2909 21.3177C18.2835 21.3745 18.2873 21.4323 18.3021 21.4876C18.317 21.543 18.3426 21.5949 18.3775 21.6404C18.4124 21.6858 18.456 21.724 18.5056 21.7526C18.5718 21.7912 18.6471 21.8115 18.7237 21.8114C18.8005 21.8113 18.8759 21.791 18.9424 21.7526C19.0089 21.7143 19.0641 21.6591 19.1025 21.5926L19.8656 20.2695C19.8944 20.2198 19.913 20.1649 19.9205 20.108C19.928 20.0511 19.9243 19.9933 19.9094 19.9379C19.8945 19.8824 19.8689 19.8305 19.8339 19.785C19.799 19.7394 19.7554 19.7013 19.7056 19.6726ZM24.2375 19.6726C24.1372 19.6149 24.0181 19.5993 23.9063 19.6293C23.7945 19.6593 23.6992 19.7324 23.6413 19.8326L22.8775 21.1564C22.8489 21.206 22.8303 21.2608 22.8228 21.3177C22.8153 21.3745 22.8191 21.4323 22.834 21.4876C22.8489 21.543 22.8745 21.5949 22.9094 21.6404C22.9443 21.6858 22.9878 21.724 23.0375 21.7526C23.1037 21.7912 23.179 21.8115 23.2556 21.8114C23.3324 21.8113 23.4078 21.791 23.4743 21.7526C23.5407 21.7143 23.5959 21.6591 23.6344 21.5926L24.3975 20.2695C24.4262 20.2198 24.4449 20.1649 24.4524 20.108C24.4599 20.0511 24.4561 19.9933 24.4413 19.9379C24.4264 19.8824 24.4008 19.8305 24.3658 19.785C24.3308 19.7394 24.2872 19.7013 24.2375 19.6726ZM25.2763 20.3032C25.1758 20.2455 25.0566 20.2298 24.9447 20.2598C24.8328 20.2898 24.7374 20.363 24.6794 20.4632L23.9156 21.787C23.887 21.8366 23.8684 21.8915 23.8609 21.9483C23.8534 22.0051 23.8572 22.0629 23.8721 22.1183C23.8869 22.1736 23.9126 22.2255 23.9475 22.271C23.9824 22.3165 24.026 22.3546 24.0756 22.3832C24.1418 22.4218 24.2171 22.4421 24.2938 22.442C24.3705 22.442 24.446 22.4218 24.5125 22.3834C24.579 22.345 24.6342 22.2898 24.6725 22.2232L25.4363 20.9001C25.494 20.7997 25.5096 20.6805 25.4796 20.5686C25.4497 20.4567 25.3765 20.3613 25.2763 20.3032ZM20.7437 20.3032C20.6434 20.2455 20.5243 20.23 20.4125 20.26C20.3008 20.29 20.2055 20.3631 20.1475 20.4632L19.3838 21.787C19.3551 21.8366 19.3365 21.8915 19.329 21.9483C19.3215 22.0051 19.3253 22.0629 19.3402 22.1183C19.3551 22.1736 19.3807 22.2255 19.4156 22.271C19.4505 22.3165 19.4941 22.3546 19.5438 22.3832C19.61 22.4218 19.6852 22.4421 19.7619 22.442C19.8387 22.442 19.9141 22.4218 19.9806 22.3834C20.0471 22.345 20.1023 22.2898 20.1406 22.2232L20.9037 20.9001C20.9325 20.8504 20.9511 20.7956 20.9586 20.7387C20.9661 20.6818 20.9623 20.6239 20.9475 20.5685C20.9326 20.5131 20.907 20.4611 20.872 20.4156C20.8371 20.3701 20.7935 20.3319 20.7437 20.3032ZM14.07 14.1345H7.48625C7.37039 14.1345 7.25928 14.1805 7.17735 14.2625C7.09542 14.3444 7.04939 14.4555 7.04938 14.5714V19.4807C7.04939 19.5381 7.06071 19.5949 7.08268 19.6478C7.10464 19.7008 7.13683 19.7489 7.17741 19.7894C7.21798 19.8299 7.26614 19.862 7.31913 19.8839C7.37212 19.9058 7.42891 19.9171 7.48625 19.917H14.07C14.1273 19.917 14.1841 19.9058 14.237 19.8839C14.29 19.862 14.3381 19.8298 14.3786 19.7893C14.4191 19.7488 14.4512 19.7007 14.4731 19.6477C14.495 19.5948 14.5063 19.538 14.5063 19.4807V14.5714C14.5063 14.514 14.4951 14.4572 14.4732 14.4042C14.4513 14.3513 14.4192 14.3031 14.3787 14.2625C14.3381 14.222 14.29 14.1898 14.2371 14.1678C14.1841 14.1458 14.1273 14.1345 14.07 14.1345ZM13.6331 19.0439H7.92312V15.0082H13.6331V19.0439ZM25.2763 20.3032C25.1758 20.2455 25.0566 20.2298 24.9447 20.2598C24.8328 20.2898 24.7374 20.363 24.6794 20.4632L23.9156 21.787C23.887 21.8366 23.8684 21.8915 23.8609 21.9483C23.8534 22.0051 23.8572 22.0629 23.8721 22.1183C23.8869 22.1736 23.9126 22.2255 23.9475 22.271C23.9824 22.3165 24.026 22.3546 24.0756 22.3832C24.1418 22.4218 24.2171 22.4421 24.2938 22.442C24.3705 22.442 24.446 22.4218 24.5125 22.3834C24.579 22.345 24.6342 22.2898 24.6725 22.2232L25.4363 20.9001C25.494 20.7997 25.5096 20.6805 25.4796 20.5686C25.4497 20.4567 25.3765 20.3613 25.2763 20.3032ZM24.2375 19.6726C24.1372 19.6149 24.0181 19.5993 23.9063 19.6293C23.7945 19.6593 23.6992 19.7324 23.6413 19.8326L22.8775 21.1564C22.8489 21.206 22.8303 21.2608 22.8228 21.3177C22.8153 21.3745 22.8191 21.4323 22.834 21.4876C22.8489 21.543 22.8745 21.5949 22.9094 21.6404C22.9443 21.6858 22.9878 21.724 23.0375 21.7526C23.1037 21.7912 23.179 21.8115 23.2556 21.8114C23.3324 21.8113 23.4078 21.791 23.4743 21.7526C23.5407 21.7143 23.5959 21.6591 23.6344 21.5926L24.3975 20.2695C24.4262 20.2198 24.4449 20.1649 24.4524 20.108C24.4599 20.0511 24.4561 19.9933 24.4413 19.9379C24.4264 19.8824 24.4008 19.8305 24.3658 19.785C24.3308 19.7394 24.2872 19.7013 24.2375 19.6726ZM20.7437 20.3032C20.6434 20.2455 20.5243 20.23 20.4125 20.26C20.3008 20.29 20.2055 20.3631 20.1475 20.4632L19.3838 21.787C19.3551 21.8366 19.3365 21.8915 19.329 21.9483C19.3215 22.0051 19.3253 22.0629 19.3402 22.1183C19.3551 22.1736 19.3807 22.2255 19.4156 22.271C19.4505 22.3165 19.4941 22.3546 19.5438 22.3832C19.61 22.4218 19.6852 22.4421 19.7619 22.442C19.8387 22.442 19.9141 22.4218 19.9806 22.3834C20.0471 22.345 20.1023 22.2898 20.1406 22.2232L20.9037 20.9001C20.9325 20.8504 20.9511 20.7956 20.9586 20.7387C20.9661 20.6818 20.9623 20.6239 20.9475 20.5685C20.9326 20.5131 20.907 20.4611 20.872 20.4156C20.8371 20.3701 20.7935 20.3319 20.7437 20.3032ZM19.7056 19.6726C19.6053 19.6149 19.4862 19.5993 19.3744 19.6293C19.2626 19.6593 19.1673 19.7324 19.1094 19.8326L18.3456 21.1564C18.317 21.206 18.2984 21.2608 18.2909 21.3177C18.2835 21.3745 18.2873 21.4323 18.3021 21.4876C18.317 21.543 18.3426 21.5949 18.3775 21.6404C18.4124 21.6858 18.456 21.724 18.5056 21.7526C18.5718 21.7912 18.6471 21.8115 18.7237 21.8114C18.8005 21.8113 18.8759 21.791 18.9424 21.7526C19.0089 21.7143 19.0641 21.6591 19.1025 21.5926L19.8656 20.2695C19.8944 20.2198 19.913 20.1649 19.9205 20.108C19.928 20.0511 19.9243 19.9933 19.9094 19.9379C19.8945 19.8824 19.8689 19.8305 19.8339 19.785C19.799 19.7394 19.7554 19.7013 19.7056 19.6726ZM14.07 14.1345H7.48625C7.37039 14.1345 7.25928 14.1805 7.17735 14.2625C7.09542 14.3444 7.04939 14.4555 7.04938 14.5714V19.4807C7.04939 19.5381 7.06071 19.5949 7.08268 19.6478C7.10464 19.7008 7.13683 19.7489 7.17741 19.7894C7.21798 19.8299 7.26614 19.862 7.31913 19.8839C7.37212 19.9058 7.42891 19.9171 7.48625 19.917H14.07C14.1273 19.917 14.1841 19.9058 14.237 19.8839C14.29 19.862 14.3381 19.8298 14.3786 19.7893C14.4191 19.7488 14.4512 19.7007 14.4731 19.6477C14.495 19.5948 14.5063 19.538 14.5063 19.4807V14.5714C14.5063 14.514 14.4951 14.4572 14.4732 14.4042C14.4513 14.3513 14.4192 14.3031 14.3787 14.2625C14.3381 14.222 14.29 14.1898 14.2371 14.1678C14.1841 14.1458 14.1273 14.1345 14.07 14.1345ZM13.6331 19.0439H7.92312V15.0082H13.6331V19.0439ZM19.7056 19.6726C19.6053 19.6149 19.4862 19.5993 19.3744 19.6293C19.2626 19.6593 19.1673 19.7324 19.1094 19.8326L18.3456 21.1564C18.317 21.206 18.2984 21.2608 18.2909 21.3177C18.2835 21.3745 18.2873 21.4323 18.3021 21.4876C18.317 21.543 18.3426 21.5949 18.3775 21.6404C18.4124 21.6858 18.456 21.724 18.5056 21.7526C18.5718 21.7912 18.6471 21.8115 18.7237 21.8114C18.8005 21.8113 18.8759 21.791 18.9424 21.7526C19.0089 21.7143 19.0641 21.6591 19.1025 21.5926L19.8656 20.2695C19.8944 20.2198 19.913 20.1649 19.9205 20.108C19.928 20.0511 19.9243 19.9933 19.9094 19.9379C19.8945 19.8824 19.8689 19.8305 19.8339 19.785C19.799 19.7394 19.7554 19.7013 19.7056 19.6726ZM20.7437 20.3032C20.6434 20.2455 20.5243 20.23 20.4125 20.26C20.3008 20.29 20.2055 20.3631 20.1475 20.4632L19.3838 21.787C19.3551 21.8366 19.3365 21.8915 19.329 21.9483C19.3215 22.0051 19.3253 22.0629 19.3402 22.1183C19.3551 22.1736 19.3807 22.2255 19.4156 22.271C19.4505 22.3165 19.4941 22.3546 19.5438 22.3832C19.61 22.4218 19.6852 22.4421 19.7619 22.442C19.8387 22.442 19.9141 22.4218 19.9806 22.3834C20.0471 22.345 20.1023 22.2898 20.1406 22.2232L20.9037 20.9001C20.9325 20.8504 20.9511 20.7956 20.9586 20.7387C20.9661 20.6818 20.9623 20.6239 20.9475 20.5685C20.9326 20.5131 20.907 20.4611 20.872 20.4156C20.8371 20.3701 20.7935 20.3319 20.7437 20.3032ZM24.2375 19.6726C24.1372 19.6149 24.0181 19.5993 23.9063 19.6293C23.7945 19.6593 23.6992 19.7324 23.6413 19.8326L22.8775 21.1564C22.8489 21.206 22.8303 21.2608 22.8228 21.3177C22.8153 21.3745 22.8191 21.4323 22.834 21.4876C22.8489 21.543 22.8745 21.5949 22.9094 21.6404C22.9443 21.6858 22.9878 21.724 23.0375 21.7526C23.1037 21.7912 23.179 21.8115 23.2556 21.8114C23.3324 21.8113 23.4078 21.791 23.4743 21.7526C23.5407 21.7143 23.5959 21.6591 23.6344 21.5926L24.3975 20.2695C24.4262 20.2198 24.4449 20.1649 24.4524 20.108C24.4599 20.0511 24.4561 19.9933 24.4413 19.9379C24.4264 19.8824 24.4008 19.8305 24.3658 19.785C24.3308 19.7394 24.2872 19.7013 24.2375 19.6726ZM25.2763 20.3032C25.1758 20.2455 25.0566 20.2298 24.9447 20.2598C24.8328 20.2898 24.7374 20.363 24.6794 20.4632L23.9156 21.787C23.887 21.8366 23.8684 21.8915 23.8609 21.9483C23.8534 22.0051 23.8572 22.0629 23.8721 22.1183C23.8869 22.1736 23.9126 22.2255 23.9475 22.271C23.9824 22.3165 24.026 22.3546 24.0756 22.3832C24.1418 22.4218 24.2171 22.4421 24.2938 22.442C24.3705 22.442 24.446 22.4218 24.5125 22.3834C24.579 22.345 24.6342 22.2898 24.6725 22.2232L25.4363 20.9001C25.494 20.7997 25.5096 20.6805 25.4796 20.5686C25.4497 20.4567 25.3765 20.3613 25.2763 20.3032ZM14.07 14.1345H7.48625C7.37039 14.1345 7.25928 14.1805 7.17735 14.2625C7.09542 14.3444 7.04939 14.4555 7.04938 14.5714V19.4807C7.04939 19.5381 7.06071 19.5949 7.08268 19.6478C7.10464 19.7008 7.13683 19.7489 7.17741 19.7894C7.21798 19.8299 7.26614 19.862 7.31913 19.8839C7.37212 19.9058 7.42891 19.9171 7.48625 19.917H14.07C14.1273 19.917 14.1841 19.9058 14.237 19.8839C14.29 19.862 14.3381 19.8298 14.3786 19.7893C14.4191 19.7488 14.4512 19.7007 14.4731 19.6477C14.495 19.5948 14.5063 19.538 14.5063 19.4807V14.5714C14.5063 14.514 14.4951 14.4572 14.4732 14.4042C14.4513 14.3513 14.4192 14.3031 14.3787 14.2625C14.3381 14.222 14.29 14.1898 14.2371 14.1678C14.1841 14.1458 14.1273 14.1345 14.07 14.1345ZM13.6331 19.0439H7.92312V15.0082H13.6331V19.0439ZM25.2763 20.3032C25.1758 20.2455 25.0566 20.2298 24.9447 20.2598C24.8328 20.2898 24.7374 20.363 24.6794 20.4632L23.9156 21.787C23.887 21.8366 23.8684 21.8915 23.8609 21.9483C23.8534 22.0051 23.8572 22.0629 23.8721 22.1183C23.8869 22.1736 23.9126 22.2255 23.9475 22.271C23.9824 22.3165 24.026 22.3546 24.0756 22.3832C24.1418 22.4218 24.2171 22.4421 24.2938 22.442C24.3705 22.442 24.446 22.4218 24.5125 22.3834C24.579 22.345 24.6342 22.2898 24.6725 22.2232L25.4363 20.9001C25.494 20.7997 25.5096 20.6805 25.4796 20.5686C25.4497 20.4567 25.3765 20.3613 25.2763 20.3032ZM24.2375 19.6726C24.1372 19.6149 24.0181 19.5993 23.9063 19.6293C23.7945 19.6593 23.6992 19.7324 23.6413 19.8326L22.8775 21.1564C22.8489 21.206 22.8303 21.2608 22.8228 21.3177C22.8153 21.3745 22.8191 21.4323 22.834 21.4876C22.8489 21.543 22.8745 21.5949 22.9094 21.6404C22.9443 21.6858 22.9878 21.724 23.0375 21.7526C23.1037 21.7912 23.179 21.8115 23.2556 21.8114C23.3324 21.8113 23.4078 21.791 23.4743 21.7526C23.5407 21.7143 23.5959 21.6591 23.6344 21.5926L24.3975 20.2695C24.4262 20.2198 24.4449 20.1649 24.4524 20.108C24.4599 20.0511 24.4561 19.9933 24.4413 19.9379C24.4264 19.8824 24.4008 19.8305 24.3658 19.785C24.3308 19.7394 24.2872 19.7013 24.2375 19.6726ZM20.7437 20.3032C20.6434 20.2455 20.5243 20.23 20.4125 20.26C20.3008 20.29 20.2055 20.3631 20.1475 20.4632L19.3838 21.787C19.3551 21.8366 19.3365 21.8915 19.329 21.9483C19.3215 22.0051 19.3253 22.0629 19.3402 22.1183C19.3551 22.1736 19.3807 22.2255 19.4156 22.271C19.4505 22.3165 19.4941 22.3546 19.5438 22.3832C19.61 22.4218 19.6852 22.4421 19.7619 22.442C19.8387 22.442 19.9141 22.4218 19.9806 22.3834C20.0471 22.345 20.1023 22.2898 20.1406 22.2232L20.9037 20.9001C20.9325 20.8504 20.9511 20.7956 20.9586 20.7387C20.9661 20.6818 20.9623 20.6239 20.9475 20.5685C20.9326 20.5131 20.907 20.4611 20.872 20.4156C20.8371 20.3701 20.7935 20.3319 20.7437 20.3032ZM19.7056 19.6726C19.6053 19.6149 19.4862 19.5993 19.3744 19.6293C19.2626 19.6593 19.1673 19.7324 19.1094 19.8326L18.3456 21.1564C18.317 21.206 18.2984 21.2608 18.2909 21.3177C18.2835 21.3745 18.2873 21.4323 18.3021 21.4876C18.317 21.543 18.3426 21.5949 18.3775 21.6404C18.4124 21.6858 18.456 21.724 18.5056 21.7526C18.5718 21.7912 18.6471 21.8115 18.7237 21.8114C18.8005 21.8113 18.8759 21.791 18.9424 21.7526C19.0089 21.7143 19.0641 21.6591 19.1025 21.5926L19.8656 20.2695C19.8944 20.2198 19.913 20.1649 19.9205 20.108C19.928 20.0511 19.9243 19.9933 19.9094 19.9379C19.8945 19.8824 19.8689 19.8305 19.8339 19.785C19.799 19.7394 19.7554 19.7013 19.7056 19.6726ZM14.07 14.1345H7.48625C7.37039 14.1345 7.25928 14.1805 7.17735 14.2625C7.09542 14.3444 7.04939 14.4555 7.04938 14.5714V19.4807C7.04939 19.5381 7.06071 19.5949 7.08268 19.6478C7.10464 19.7008 7.13683 19.7489 7.17741 19.7894C7.21798 19.8299 7.26614 19.862 7.31913 19.8839C7.37212 19.9058 7.42891 19.9171 7.48625 19.917H14.07C14.1273 19.917 14.1841 19.9058 14.237 19.8839C14.29 19.862 14.3381 19.8298 14.3786 19.7893C14.4191 19.7488 14.4512 19.7007 14.4731 19.6477C14.495 19.5948 14.5063 19.538 14.5063 19.4807V14.5714C14.5063 14.514 14.4951 14.4572 14.4732 14.4042C14.4513 14.3513 14.4192 14.3031 14.3787 14.2625C14.3381 14.222 14.29 14.1898 14.2371 14.1678C14.1841 14.1458 14.1273 14.1345 14.07 14.1345ZM13.6331 19.0439H7.92312V15.0082H13.6331V19.0439ZM19.7056 19.6726C19.6053 19.6149 19.4862 19.5993 19.3744 19.6293C19.2626 19.6593 19.1673 19.7324 19.1094 19.8326L18.3456 21.1564C18.317 21.206 18.2984 21.2608 18.2909 21.3177C18.2835 21.3745 18.2873 21.4323 18.3021 21.4876C18.317 21.543 18.3426 21.5949 18.3775 21.6404C18.4124 21.6858 18.456 21.724 18.5056 21.7526C18.5718 21.7912 18.6471 21.8115 18.7237 21.8114C18.8005 21.8113 18.8759 21.791 18.9424 21.7526C19.0089 21.7143 19.0641 21.6591 19.1025 21.5926L19.8656 20.2695C19.8944 20.2198 19.913 20.1649 19.9205 20.108C19.928 20.0511 19.9243 19.9933 19.9094 19.9379C19.8945 19.8824 19.8689 19.8305 19.8339 19.785C19.799 19.7394 19.7554 19.7013 19.7056 19.6726ZM20.7437 20.3032C20.6434 20.2455 20.5243 20.23 20.4125 20.26C20.3008 20.29 20.2055 20.3631 20.1475 20.4632L19.3838 21.787C19.3551 21.8366 19.3365 21.8915 19.329 21.9483C19.3215 22.0051 19.3253 22.0629 19.3402 22.1183C19.3551 22.1736 19.3807 22.2255 19.4156 22.271C19.4505 22.3165 19.4941 22.3546 19.5438 22.3832C19.61 22.4218 19.6852 22.4421 19.7619 22.442C19.8387 22.442 19.9141 22.4218 19.9806 22.3834C20.0471 22.345 20.1023 22.2898 20.1406 22.2232L20.9037 20.9001C20.9325 20.8504 20.9511 20.7956 20.9586 20.7387C20.9661 20.6818 20.9623 20.6239 20.9475 20.5685C20.9326 20.5131 20.907 20.4611 20.872 20.4156C20.8371 20.3701 20.7935 20.3319 20.7437 20.3032ZM24.2375 19.6726C24.1372 19.6149 24.0181 19.5993 23.9063 19.6293C23.7945 19.6593 23.6992 19.7324 23.6413 19.8326L22.8775 21.1564C22.8489 21.206 22.8303 21.2608 22.8228 21.3177C22.8153 21.3745 22.8191 21.4323 22.834 21.4876C22.8489 21.543 22.8745 21.5949 22.9094 21.6404C22.9443 21.6858 22.9878 21.724 23.0375 21.7526C23.1037 21.7912 23.179 21.8115 23.2556 21.8114C23.3324 21.8113 23.4078 21.791 23.4743 21.7526C23.5407 21.7143 23.5959 21.6591 23.6344 21.5926L24.3975 20.2695C24.4262 20.2198 24.4449 20.1649 24.4524 20.108C24.4599 20.0511 24.4561 19.9933 24.4413 19.9379C24.4264 19.8824 24.4008 19.8305 24.3658 19.785C24.3308 19.7394 24.2872 19.7013 24.2375 19.6726ZM25.2763 20.3032C25.1758 20.2455 25.0566 20.2298 24.9447 20.2598C24.8328 20.2898 24.7374 20.363 24.6794 20.4632L23.9156 21.787C23.887 21.8366 23.8684 21.8915 23.8609 21.9483C23.8534 22.0051 23.8572 22.0629 23.8721 22.1183C23.8869 22.1736 23.9126 22.2255 23.9475 22.271C23.9824 22.3165 24.026 22.3546 24.0756 22.3832C24.1418 22.4218 24.2171 22.4421 24.2938 22.442C24.3705 22.442 24.446 22.4218 24.5125 22.3834C24.579 22.345 24.6342 22.2898 24.6725 22.2232L25.4363 20.9001C25.494 20.7997 25.5096 20.6805 25.4796 20.5686C25.4497 20.4567 25.3765 20.3613 25.2763 20.3032ZM14.07 14.1345H7.48625C7.37039 14.1345 7.25928 14.1805 7.17735 14.2625C7.09542 14.3444 7.04939 14.4555 7.04938 14.5714V19.4807C7.04939 19.5381 7.06071 19.5949 7.08268 19.6478C7.10464 19.7008 7.13683 19.7489 7.17741 19.7894C7.21798 19.8299 7.26614 19.862 7.31913 19.8839C7.37212 19.9058 7.42891 19.9171 7.48625 19.917H14.07C14.1273 19.917 14.1841 19.9058 14.237 19.8839C14.29 19.862 14.3381 19.8298 14.3786 19.7893C14.4191 19.7488 14.4512 19.7007 14.4731 19.6477C14.495 19.5948 14.5063 19.538 14.5063 19.4807V14.5714C14.5063 14.514 14.4951 14.4572 14.4732 14.4042C14.4513 14.3513 14.4192 14.3031 14.3787 14.2625C14.3381 14.222 14.29 14.1898 14.2371 14.1678C14.1841 14.1458 14.1273 14.1345 14.07 14.1345ZM13.6331 19.0439H7.92312V15.0082H13.6331V19.0439ZM25.2763 20.3032C25.1758 20.2455 25.0566 20.2298 24.9447 20.2598C24.8328 20.2898 24.7374 20.363 24.6794 20.4632L23.9156 21.787C23.887 21.8366 23.8684 21.8915 23.8609 21.9483C23.8534 22.0051 23.8572 22.0629 23.8721 22.1183C23.8869 22.1736 23.9126 22.2255 23.9475 22.271C23.9824 22.3165 24.026 22.3546 24.0756 22.3832C24.1418 22.4218 24.2171 22.4421 24.2938 22.442C24.3705 22.442 24.446 22.4218 24.5125 22.3834C24.579 22.345 24.6342 22.2898 24.6725 22.2232L25.4363 20.9001C25.494 20.7997 25.5096 20.6805 25.4796 20.5686C25.4497 20.4567 25.3765 20.3613 25.2763 20.3032ZM24.2375 19.6726C24.1372 19.6149 24.0181 19.5993 23.9063 19.6293C23.7945 19.6593 23.6992 19.7324 23.6413 19.8326L22.8775 21.1564C22.8489 21.206 22.8303 21.2608 22.8228 21.3177C22.8153 21.3745 22.8191 21.4323 22.834 21.4876C22.8489 21.543 22.8745 21.5949 22.9094 21.6404C22.9443 21.6858 22.9878 21.724 23.0375 21.7526C23.1037 21.7912 23.179 21.8115 23.2556 21.8114C23.3324 21.8113 23.4078 21.791 23.4743 21.7526C23.5407 21.7143 23.5959 21.6591 23.6344 21.5926L24.3975 20.2695C24.4262 20.2198 24.4449 20.1649 24.4524 20.108C24.4599 20.0511 24.4561 19.9933 24.4413 19.9379C24.4264 19.8824 24.4008 19.8305 24.3658 19.785C24.3308 19.7394 24.2872 19.7013 24.2375 19.6726ZM20.7437 20.3032C20.6434 20.2455 20.5243 20.23 20.4125 20.26C20.3008 20.29 20.2055 20.3631 20.1475 20.4632L19.3838 21.787C19.3551 21.8366 19.3365 21.8915 19.329 21.9483C19.3215 22.0051 19.3253 22.0629 19.3402 22.1183C19.3551 22.1736 19.3807 22.2255 19.4156 22.271C19.4505 22.3165 19.4941 22.3546 19.5438 22.3832C19.61 22.4218 19.6852 22.4421 19.7619 22.442C19.8387 22.442 19.9141 22.4218 19.9806 22.3834C20.0471 22.345 20.1023 22.2898 20.1406 22.2232L20.9037 20.9001C20.9325 20.8504 20.9511 20.7956 20.9586 20.7387C20.9661 20.6818 20.9623 20.6239 20.9475 20.5685C20.9326 20.5131 20.907 20.4611 20.872 20.4156C20.8371 20.3701 20.7935 20.3319 20.7437 20.3032ZM19.7056 19.6726C19.6053 19.6149 19.4862 19.5993 19.3744 19.6293C19.2626 19.6593 19.1673 19.7324 19.1094 19.8326L18.3456 21.1564C18.317 21.206 18.2984 21.2608 18.2909 21.3177C18.2835 21.3745 18.2873 21.4323 18.3021 21.4876C18.317 21.543 18.3426 21.5949 18.3775 21.6404C18.4124 21.6858 18.456 21.724 18.5056 21.7526C18.5718 21.7912 18.6471 21.8115 18.7237 21.8114C18.8005 21.8113 18.8759 21.791 18.9424 21.7526C19.0089 21.7143 19.0641 21.6591 19.1025 21.5926L19.8656 20.2695C19.8944 20.2198 19.913 20.1649 19.9205 20.108C19.928 20.0511 19.9243 19.9933 19.9094 19.9379C19.8945 19.8824 19.8689 19.8305 19.8339 19.785C19.799 19.7394 19.7554 19.7013 19.7056 19.6726ZM14.07 14.1345H7.48625C7.37039 14.1345 7.25928 14.1805 7.17735 14.2625C7.09542 14.3444 7.04939 14.4555 7.04938 14.5714V19.4807C7.04939 19.5381 7.06071 19.5949 7.08268 19.6478C7.10464 19.7008 7.13683 19.7489 7.17741 19.7894C7.21798 19.8299 7.26614 19.862 7.31913 19.8839C7.37212 19.9058 7.42891 19.9171 7.48625 19.917H14.07C14.1273 19.917 14.1841 19.9058 14.237 19.8839C14.29 19.862 14.3381 19.8298 14.3786 19.7893C14.4191 19.7488 14.4512 19.7007 14.4731 19.6477C14.495 19.5948 14.5063 19.538 14.5063 19.4807V14.5714C14.5063 14.514 14.4951 14.4572 14.4732 14.4042C14.4513 14.3513 14.4192 14.3031 14.3787 14.2625C14.3381 14.222 14.29 14.1898 14.2371 14.1678C14.1841 14.1458 14.1273 14.1345 14.07 14.1345ZM13.6331 19.0439H7.92312V15.0082H13.6331V19.0439ZM19.7056 19.6726C19.6053 19.6149 19.4862 19.5993 19.3744 19.6293C19.2626 19.6593 19.1673 19.7324 19.1094 19.8326L18.3456 21.1564C18.317 21.206 18.2984 21.2608 18.2909 21.3177C18.2835 21.3745 18.2873 21.4323 18.3021 21.4876C18.317 21.543 18.3426 21.5949 18.3775 21.6404C18.4124 21.6858 18.456 21.724 18.5056 21.7526C18.5718 21.7912 18.6471 21.8115 18.7237 21.8114C18.8005 21.8113 18.8759 21.791 18.9424 21.7526C19.0089 21.7143 19.0641 21.6591 19.1025 21.5926L19.8656 20.2695C19.8944 20.2198 19.913 20.1649 19.9205 20.108C19.928 20.0511 19.9243 19.9933 19.9094 19.9379C19.8945 19.8824 19.8689 19.8305 19.8339 19.785C19.799 19.7394 19.7554 19.7013 19.7056 19.6726ZM20.7437 20.3032C20.6434 20.2455 20.5243 20.23 20.4125 20.26C20.3008 20.29 20.2055 20.3631 20.1475 20.4632L19.3838 21.787C19.3551 21.8366 19.3365 21.8915 19.329 21.9483C19.3215 22.0051 19.3253 22.0629 19.3402 22.1183C19.3551 22.1736 19.3807 22.2255 19.4156 22.271C19.4505 22.3165 19.4941 22.3546 19.5438 22.3832C19.61 22.4218 19.6852 22.4421 19.7619 22.442C19.8387 22.442 19.9141 22.4218 19.9806 22.3834C20.0471 22.345 20.1023 22.2898 20.1406 22.2232L20.9037 20.9001C20.9325 20.8504 20.9511 20.7956 20.9586 20.7387C20.9661 20.6818 20.9623 20.6239 20.9475 20.5685C20.9326 20.5131 20.907 20.4611 20.872 20.4156C20.8371 20.3701 20.7935 20.3319 20.7437 20.3032ZM24.2375 19.6726C24.1372 19.6149 24.0181 19.5993 23.9063 19.6293C23.7945 19.6593 23.6992 19.7324 23.6413 19.8326L22.8775 21.1564C22.8489 21.206 22.8303 21.2608 22.8228 21.3177C22.8153 21.3745 22.8191 21.4323 22.834 21.4876C22.8489 21.543 22.8745 21.5949 22.9094 21.6404C22.9443 21.6858 22.9878 21.724 23.0375 21.7526C23.1037 21.7912 23.179 21.8115 23.2556 21.8114C23.3324 21.8113 23.4078 21.791 23.4743 21.7526C23.5407 21.7143 23.5959 21.6591 23.6344 21.5926L24.3975 20.2695C24.4262 20.2198 24.4449 20.1649 24.4524 20.108C24.4599 20.0511 24.4561 19.9933 24.4413 19.9379C24.4264 19.8824 24.4008 19.8305 24.3658 19.785C24.3308 19.7394 24.2872 19.7013 24.2375 19.6726ZM25.2763 20.3032C25.1758 20.2455 25.0566 20.2298 24.9447 20.2598C24.8328 20.2898 24.7374 20.363 24.6794 20.4632L23.9156 21.787C23.887 21.8366 23.8684 21.8915 23.8609 21.9483C23.8534 22.0051 23.8572 22.0629 23.8721 22.1183C23.8869 22.1736 23.9126 22.2255 23.9475 22.271C23.9824 22.3165 24.026 22.3546 24.0756 22.3832C24.1418 22.4218 24.2171 22.4421 24.2938 22.442C24.3705 22.442 24.446 22.4218 24.5125 22.3834C24.579 22.345 24.6342 22.2898 24.6725 22.2232L25.4363 20.9001C25.494 20.7997 25.5096 20.6805 25.4796 20.5686C25.4497 20.4567 25.3765 20.3613 25.2763 20.3032ZM14.07 14.1345H7.48625C7.37039 14.1345 7.25928 14.1805 7.17735 14.2625C7.09542 14.3444 7.04939 14.4555 7.04938 14.5714V19.4807C7.04939 19.5381 7.06071 19.5949 7.08268 19.6478C7.10464 19.7008 7.13683 19.7489 7.17741 19.7894C7.21798 19.8299 7.26614 19.862 7.31913 19.8839C7.37212 19.9058 7.42891 19.9171 7.48625 19.917H14.07C14.1273 19.917 14.1841 19.9058 14.237 19.8839C14.29 19.862 14.3381 19.8298 14.3786 19.7893C14.4191 19.7488 14.4512 19.7007 14.4731 19.6477C14.495 19.5948 14.5063 19.538 14.5063 19.4807V14.5714C14.5063 14.514 14.4951 14.4572 14.4732 14.4042C14.4513 14.3513 14.4192 14.3031 14.3787 14.2625C14.3381 14.222 14.29 14.1898 14.2371 14.1678C14.1841 14.1458 14.1273 14.1345 14.07 14.1345ZM13.6331 19.0439H7.92312V15.0082H13.6331V19.0439ZM25.2763 20.3032C25.1758 20.2455 25.0566 20.2298 24.9447 20.2598C24.8328 20.2898 24.7374 20.363 24.6794 20.4632L23.9156 21.787C23.887 21.8366 23.8684 21.8915 23.8609 21.9483C23.8534 22.0051 23.8572 22.0629 23.8721 22.1183C23.8869 22.1736 23.9126 22.2255 23.9475 22.271C23.9824 22.3165 24.026 22.3546 24.0756 22.3832C24.1418 22.4218 24.2171 22.4421 24.2938 22.442C24.3705 22.442 24.446 22.4218 24.5125 22.3834C24.579 22.345 24.6342 22.2898 24.6725 22.2232L25.4363 20.9001C25.494 20.7997 25.5096 20.6805 25.4796 20.5686C25.4497 20.4567 25.3765 20.3613 25.2763 20.3032ZM24.2375 19.6726C24.1372 19.6149 24.0181 19.5993 23.9063 19.6293C23.7945 19.6593 23.6992 19.7324 23.6413 19.8326L22.8775 21.1564C22.8489 21.206 22.8303 21.2608 22.8228 21.3177C22.8153 21.3745 22.8191 21.4323 22.834 21.4876C22.8489 21.543 22.8745 21.5949 22.9094 21.6404C22.9443 21.6858 22.9878 21.724 23.0375 21.7526C23.1037 21.7912 23.179 21.8115 23.2556 21.8114C23.3324 21.8113 23.4078 21.791 23.4743 21.7526C23.5407 21.7143 23.5959 21.6591 23.6344 21.5926L24.3975 20.2695C24.4262 20.2198 24.4449 20.1649 24.4524 20.108C24.4599 20.0511 24.4561 19.9933 24.4413 19.9379C24.4264 19.8824 24.4008 19.8305 24.3658 19.785C24.3308 19.7394 24.2872 19.7013 24.2375 19.6726ZM20.7437 20.3032C20.6434 20.2455 20.5243 20.23 20.4125 20.26C20.3008 20.29 20.2055 20.3631 20.1475 20.4632L19.3838 21.787C19.3551 21.8366 19.3365 21.8915 19.329 21.9483C19.3215 22.0051 19.3253 22.0629 19.3402 22.1183C19.3551 22.1736 19.3807 22.2255 19.4156 22.271C19.4505 22.3165 19.4941 22.3546 19.5438 22.3832C19.61 22.4218 19.6852 22.4421 19.7619 22.442C19.8387 22.442 19.9141 22.4218 19.9806 22.3834C20.0471 22.345 20.1023 22.2898 20.1406 22.2232L20.9037 20.9001C20.9325 20.8504 20.9511 20.7956 20.9586 20.7387C20.9661 20.6818 20.9623 20.6239 20.9475 20.5685C20.9326 20.5131 20.907 20.4611 20.872 20.4156C20.8371 20.3701 20.7935 20.3319 20.7437 20.3032ZM19.7056 19.6726C19.6053 19.6149 19.4862 19.5993 19.3744 19.6293C19.2626 19.6593 19.1673 19.7324 19.1094 19.8326L18.3456 21.1564C18.317 21.206 18.2984 21.2608 18.2909 21.3177C18.2835 21.3745 18.2873 21.4323 18.3021 21.4876C18.317 21.543 18.3426 21.5949 18.3775 21.6404C18.4124 21.6858 18.456 21.724 18.5056 21.7526C18.5718 21.7912 18.6471 21.8115 18.7237 21.8114C18.8005 21.8113 18.8759 21.791 18.9424 21.7526C19.0089 21.7143 19.0641 21.6591 19.1025 21.5926L19.8656 20.2695C19.8944 20.2198 19.913 20.1649 19.9205 20.108C19.928 20.0511 19.9243 19.9933 19.9094 19.9379C19.8945 19.8824 19.8689 19.8305 19.8339 19.785C19.799 19.7394 19.7554 19.7013 19.7056 19.6726ZM14.07 14.1345H7.48625C7.37039 14.1345 7.25928 14.1805 7.17735 14.2625C7.09542 14.3444 7.04939 14.4555 7.04938 14.5714V19.4807C7.04939 19.5381 7.06071 19.5949 7.08268 19.6478C7.10464 19.7008 7.13683 19.7489 7.17741 19.7894C7.21798 19.8299 7.26614 19.862 7.31913 19.8839C7.37212 19.9058 7.42891 19.9171 7.48625 19.917H14.07C14.1273 19.917 14.1841 19.9058 14.237 19.8839C14.29 19.862 14.3381 19.8298 14.3786 19.7893C14.4191 19.7488 14.4512 19.7007 14.4731 19.6477C14.495 19.5948 14.5063 19.538 14.5063 19.4807V14.5714C14.5063 14.514 14.4951 14.4572 14.4732 14.4042C14.4513 14.3513 14.4192 14.3031 14.3787 14.2625C14.3381 14.222 14.29 14.1898 14.2371 14.1678C14.1841 14.1458 14.1273 14.1345 14.07 14.1345ZM13.6331 19.0439H7.92312V15.0082H13.6331V19.0439ZM19.7056 19.6726C19.6053 19.6149 19.4862 19.5993 19.3744 19.6293C19.2626 19.6593 19.1673 19.7324 19.1094 19.8326L18.3456 21.1564C18.317 21.206 18.2984 21.2608 18.2909 21.3177C18.2835 21.3745 18.2873 21.4323 18.3021 21.4876C18.317 21.543 18.3426 21.5949 18.3775 21.6404C18.4124 21.6858 18.456 21.724 18.5056 21.7526C18.5718 21.7912 18.6471 21.8115 18.7237 21.8114C18.8005 21.8113 18.8759 21.791 18.9424 21.7526C19.0089 21.7143 19.0641 21.6591 19.1025 21.5926L19.8656 20.2695C19.8944 20.2198 19.913 20.1649 19.9205 20.108C19.928 20.0511 19.9243 19.9933 19.9094 19.9379C19.8945 19.8824 19.8689 19.8305 19.8339 19.785C19.799 19.7394 19.7554 19.7013 19.7056 19.6726ZM20.7437 20.3032C20.6434 20.2455 20.5243 20.23 20.4125 20.26C20.3008 20.29 20.2055 20.3631 20.1475 20.4632L19.3838 21.787C19.3551 21.8366 19.3365 21.8915 19.329 21.9483C19.3215 22.0051 19.3253 22.0629 19.3402 22.1183C19.3551 22.1736 19.3807 22.2255 19.4156 22.271C19.4505 22.3165 19.4941 22.3546 19.5438 22.3832C19.61 22.4218 19.6852 22.4421 19.7619 22.442C19.8387 22.442 19.9141 22.4218 19.9806 22.3834C20.0471 22.345 20.1023 22.2898 20.1406 22.2232L20.9037 20.9001C20.9325 20.8504 20.9511 20.7956 20.9586 20.7387C20.9661 20.6818 20.9623 20.6239 20.9475 20.5685C20.9326 20.5131 20.907 20.4611 20.872 20.4156C20.8371 20.3701 20.7935 20.3319 20.7437 20.3032ZM24.2375 19.6726C24.1372 19.6149 24.0181 19.5993 23.9063 19.6293C23.7945 19.6593 23.6992 19.7324 23.6413 19.8326L22.8775 21.1564C22.8489 21.206 22.8303 21.2608 22.8228 21.3177C22.8153 21.3745 22.8191 21.4323 22.834 21.4876C22.8489 21.543 22.8745 21.5949 22.9094 21.6404C22.9443 21.6858 22.9878 21.724 23.0375 21.7526C23.1037 21.7912 23.179 21.8115 23.2556 21.8114C23.3324 21.8113 23.4078 21.791 23.4743 21.7526C23.5407 21.7143 23.5959 21.6591 23.6344 21.5926L24.3975 20.2695C24.4262 20.2198 24.4449 20.1649 24.4524 20.108C24.4599 20.0511 24.4561 19.9933 24.4413 19.9379C24.4264 19.8824 24.4008 19.8305 24.3658 19.785C24.3308 19.7394 24.2872 19.7013 24.2375 19.6726ZM25.2763 20.3032C25.1758 20.2455 25.0566 20.2298 24.9447 20.2598C24.8328 20.2898 24.7374 20.363 24.6794 20.4632L23.9156 21.787C23.887 21.8366 23.8684 21.8915 23.8609 21.9483C23.8534 22.0051 23.8572 22.0629 23.8721 22.1183C23.8869 22.1736 23.9126 22.2255 23.9475 22.271C23.9824 22.3165 24.026 22.3546 24.0756 22.3832C24.1418 22.4218 24.2171 22.4421 24.2938 22.442C24.3705 22.442 24.446 22.4218 24.5125 22.3834C24.579 22.345 24.6342 22.2898 24.6725 22.2232L25.4363 20.9001C25.494 20.7997 25.5096 20.6805 25.4796 20.5686C25.4497 20.4567 25.3765 20.3613 25.2763 20.3032ZM14.07 14.1345H7.48625C7.37039 14.1345 7.25928 14.1805 7.17735 14.2625C7.09542 14.3444 7.04939 14.4555 7.04938 14.5714V19.4807C7.04939 19.5381 7.06071 19.5949 7.08268 19.6478C7.10464 19.7008 7.13683 19.7489 7.17741 19.7894C7.21798 19.8299 7.26614 19.862 7.31913 19.8839C7.37212 19.9058 7.42891 19.9171 7.48625 19.917H14.07C14.1273 19.917 14.1841 19.9058 14.237 19.8839C14.29 19.862 14.3381 19.8298 14.3786 19.7893C14.4191 19.7488 14.4512 19.7007 14.4731 19.6477C14.495 19.5948 14.5063 19.538 14.5063 19.4807V14.5714C14.5063 14.514 14.4951 14.4572 14.4732 14.4042C14.4513 14.3513 14.4192 14.3031 14.3787 14.2625C14.3381 14.222 14.29 14.1898 14.2371 14.1678C14.1841 14.1458 14.1273 14.1345 14.07 14.1345ZM13.6331 19.0439H7.92312V15.0082H13.6331V19.0439ZM25.2763 20.3032C25.1758 20.2455 25.0566 20.2298 24.9447 20.2598C24.8328 20.2898 24.7374 20.363 24.6794 20.4632L23.9156 21.787C23.887 21.8366 23.8684 21.8915 23.8609 21.9483C23.8534 22.0051 23.8572 22.0629 23.8721 22.1183C23.8869 22.1736 23.9126 22.2255 23.9475 22.271C23.9824 22.3165 24.026 22.3546 24.0756 22.3832C24.1418 22.4218 24.2171 22.4421 24.2938 22.442C24.3705 22.442 24.446 22.4218 24.5125 22.3834C24.579 22.345 24.6342 22.2898 24.6725 22.2232L25.4363 20.9001C25.494 20.7997 25.5096 20.6805 25.4796 20.5686C25.4497 20.4567 25.3765 20.3613 25.2763 20.3032ZM24.2375 19.6726C24.1372 19.6149 24.0181 19.5993 23.9063 19.6293C23.7945 19.6593 23.6992 19.7324 23.6413 19.8326L22.8775 21.1564C22.8489 21.206 22.8303 21.2608 22.8228 21.3177C22.8153 21.3745 22.8191 21.4323 22.834 21.4876C22.8489 21.543 22.8745 21.5949 22.9094 21.6404C22.9443 21.6858 22.9878 21.724 23.0375 21.7526C23.1037 21.7912 23.179 21.8115 23.2556 21.8114C23.3324 21.8113 23.4078 21.791 23.4743 21.7526C23.5407 21.7143 23.5959 21.6591 23.6344 21.5926L24.3975 20.2695C24.4262 20.2198 24.4449 20.1649 24.4524 20.108C24.4599 20.0511 24.4561 19.9933 24.4413 19.9379C24.4264 19.8824 24.4008 19.8305 24.3658 19.785C24.3308 19.7394 24.2872 19.7013 24.2375 19.6726ZM20.7437 20.3032C20.6434 20.2455 20.5243 20.23 20.4125 20.26C20.3008 20.29 20.2055 20.3631 20.1475 20.4632L19.3838 21.787C19.3551 21.8366 19.3365 21.8915 19.329 21.9483C19.3215 22.0051 19.3253 22.0629 19.3402 22.1183C19.3551 22.1736 19.3807 22.2255 19.4156 22.271C19.4505 22.3165 19.4941 22.3546 19.5438 22.3832C19.61 22.4218 19.6852 22.4421 19.7619 22.442C19.8387 22.442 19.9141 22.4218 19.9806 22.3834C20.0471 22.345 20.1023 22.2898 20.1406 22.2232L20.9037 20.9001C20.9325 20.8504 20.9511 20.7956 20.9586 20.7387C20.9661 20.6818 20.9623 20.6239 20.9475 20.5685C20.9326 20.5131 20.907 20.4611 20.872 20.4156C20.8371 20.3701 20.7935 20.3319 20.7437 20.3032ZM19.7056 19.6726C19.6053 19.6149 19.4862 19.5993 19.3744 19.6293C19.2626 19.6593 19.1673 19.7324 19.1094 19.8326L18.3456 21.1564C18.317 21.206 18.2984 21.2608 18.2909 21.3177C18.2835 21.3745 18.2873 21.4323 18.3021 21.4876C18.317 21.543 18.3426 21.5949 18.3775 21.6404C18.4124 21.6858 18.456 21.724 18.5056 21.7526C18.5718 21.7912 18.6471 21.8115 18.7237 21.8114C18.8005 21.8113 18.8759 21.791 18.9424 21.7526C19.0089 21.7143 19.0641 21.6591 19.1025 21.5926L19.8656 20.2695C19.8944 20.2198 19.913 20.1649 19.9205 20.108C19.928 20.0511 19.9243 19.9933 19.9094 19.9379C19.8945 19.8824 19.8689 19.8305 19.8339 19.785C19.799 19.7394 19.7554 19.7013 19.7056 19.6726ZM14.07 14.1345H7.48625C7.37039 14.1345 7.25928 14.1805 7.17735 14.2625C7.09542 14.3444 7.04939 14.4555 7.04938 14.5714V19.4807C7.04939 19.5381 7.06071 19.5949 7.08268 19.6478C7.10464 19.7008 7.13683 19.7489 7.17741 19.7894C7.21798 19.8299 7.26614 19.862 7.31913 19.8839C7.37212 19.9058 7.42891 19.9171 7.48625 19.917H14.07C14.1273 19.917 14.1841 19.9058 14.237 19.8839C14.29 19.862 14.3381 19.8298 14.3786 19.7893C14.4191 19.7488 14.4512 19.7007 14.4731 19.6477C14.495 19.5948 14.5063 19.538 14.5063 19.4807V14.5714C14.5063 14.514 14.4951 14.4572 14.4732 14.4042C14.4513 14.3513 14.4192 14.3031 14.3787 14.2625C14.3381 14.222 14.29 14.1898 14.2371 14.1678C14.1841 14.1458 14.1273 14.1345 14.07 14.1345ZM13.6331 19.0439H7.92312V15.0082H13.6331V19.0439ZM19.7056 19.6726C19.6053 19.6149 19.4862 19.5993 19.3744 19.6293C19.2626 19.6593 19.1673 19.7324 19.1094 19.8326L18.3456 21.1564C18.317 21.206 18.2984 21.2608 18.2909 21.3177C18.2835 21.3745 18.2873 21.4323 18.3021 21.4876C18.317 21.543 18.3426 21.5949 18.3775 21.6404C18.4124 21.6858 18.456 21.724 18.5056 21.7526C18.5718 21.7912 18.6471 21.8115 18.7237 21.8114C18.8005 21.8113 18.8759 21.791 18.9424 21.7526C19.0089 21.7143 19.0641 21.6591 19.1025 21.5926L19.8656 20.2695C19.8944 20.2198 19.913 20.1649 19.9205 20.108C19.928 20.0511 19.9243 19.9933 19.9094 19.9379C19.8945 19.8824 19.8689 19.8305 19.8339 19.785C19.799 19.7394 19.7554 19.7013 19.7056 19.6726ZM20.7437 20.3032C20.6434 20.2455 20.5243 20.23 20.4125 20.26C20.3008 20.29 20.2055 20.3631 20.1475 20.4632L19.3838 21.787C19.3551 21.8366 19.3365 21.8915 19.329 21.9483C19.3215 22.0051 19.3253 22.0629 19.3402 22.1183C19.3551 22.1736 19.3807 22.2255 19.4156 22.271C19.4505 22.3165 19.4941 22.3546 19.5438 22.3832C19.61 22.4218 19.6852 22.4421 19.7619 22.442C19.8387 22.442 19.9141 22.4218 19.9806 22.3834C20.0471 22.345 20.1023 22.2898 20.1406 22.2232L20.9037 20.9001C20.9325 20.8504 20.9511 20.7956 20.9586 20.7387C20.9661 20.6818 20.9623 20.6239 20.9475 20.5685C20.9326 20.5131 20.907 20.4611 20.872 20.4156C20.8371 20.3701 20.7935 20.3319 20.7437 20.3032ZM24.2375 19.6726C24.1372 19.6149 24.0181 19.5993 23.9063 19.6293C23.7945 19.6593 23.6992 19.7324 23.6413 19.8326L22.8775 21.1564C22.8489 21.206 22.8303 21.2608 22.8228 21.3177C22.8153 21.3745 22.8191 21.4323 22.834 21.4876C22.8489 21.543 22.8745 21.5949 22.9094 21.6404C22.9443 21.6858 22.9878 21.724 23.0375 21.7526C23.1037 21.7912 23.179 21.8115 23.2556 21.8114C23.3324 21.8113 23.4078 21.791 23.4743 21.7526C23.5407 21.7143 23.5959 21.6591 23.6344 21.5926L24.3975 20.2695C24.4262 20.2198 24.4449 20.1649 24.4524 20.108C24.4599 20.0511 24.4561 19.9933 24.4413 19.9379C24.4264 19.8824 24.4008 19.8305 24.3658 19.785C24.3308 19.7394 24.2872 19.7013 24.2375 19.6726ZM25.2763 20.3032C25.1758 20.2455 25.0566 20.2298 24.9447 20.2598C24.8328 20.2898 24.7374 20.363 24.6794 20.4632L23.9156 21.787C23.887 21.8366 23.8684 21.8915 23.8609 21.9483C23.8534 22.0051 23.8572 22.0629 23.8721 22.1183C23.8869 22.1736 23.9126 22.2255 23.9475 22.271C23.9824 22.3165 24.026 22.3546 24.0756 22.3832C24.1418 22.4218 24.2171 22.4421 24.2938 22.442C24.3705 22.442 24.446 22.4218 24.5125 22.3834C24.579 22.345 24.6342 22.2898 24.6725 22.2232L25.4363 20.9001C25.494 20.7997 25.5096 20.6805 25.4796 20.5686C25.4497 20.4567 25.3765 20.3613 25.2763 20.3032ZM14.07 14.1345H7.48625C7.37039 14.1345 7.25928 14.1805 7.17735 14.2625C7.09542 14.3444 7.04939 14.4555 7.04938 14.5714V19.4807C7.04939 19.5381 7.06071 19.5949 7.08268 19.6478C7.10464 19.7008 7.13683 19.7489 7.17741 19.7894C7.21798 19.8299 7.26614 19.862 7.31913 19.8839C7.37212 19.9058 7.42891 19.9171 7.48625 19.917H14.07C14.1273 19.917 14.1841 19.9058 14.237 19.8839C14.29 19.862 14.3381 19.8298 14.3786 19.7893C14.4191 19.7488 14.4512 19.7007 14.4731 19.6477C14.495 19.5948 14.5063 19.538 14.5063 19.4807V14.5714C14.5063 14.514 14.4951 14.4572 14.4732 14.4042C14.4513 14.3513 14.4192 14.3031 14.3787 14.2625C14.3381 14.222 14.29 14.1898 14.2371 14.1678C14.1841 14.1458 14.1273 14.1345 14.07 14.1345ZM13.6331 19.0439H7.92312V15.0082H13.6331V19.0439ZM25.2763 20.3032C25.1758 20.2455 25.0566 20.2298 24.9447 20.2598C24.8328 20.2898 24.7374 20.363 24.6794 20.4632L23.9156 21.787C23.887 21.8366 23.8684 21.8915 23.8609 21.9483C23.8534 22.0051 23.8572 22.0629 23.8721 22.1183C23.8869 22.1736 23.9126 22.2255 23.9475 22.271C23.9824 22.3165 24.026 22.3546 24.0756 22.3832C24.1418 22.4218 24.2171 22.4421 24.2938 22.442C24.3705 22.442 24.446 22.4218 24.5125 22.3834C24.579 22.345 24.6342 22.2898 24.6725 22.2232L25.4363 20.9001C25.494 20.7997 25.5096 20.6805 25.4796 20.5686C25.4497 20.4567 25.3765 20.3613 25.2763 20.3032ZM24.2375 19.6726C24.1372 19.6149 24.0181 19.5993 23.9063 19.6293C23.7945 19.6593 23.6992 19.7324 23.6413 19.8326L22.8775 21.1564C22.8489 21.206 22.8303 21.2608 22.8228 21.3177C22.8153 21.3745 22.8191 21.4323 22.834 21.4876C22.8489 21.543 22.8745 21.5949 22.9094 21.6404C22.9443 21.6858 22.9878 21.724 23.0375 21.7526C23.1037 21.7912 23.179 21.8115 23.2556 21.8114C23.3324 21.8113 23.4078 21.791 23.4743 21.7526C23.5407 21.7143 23.5959 21.6591 23.6344 21.5926L24.3975 20.2695C24.4262 20.2198 24.4449 20.1649 24.4524 20.108C24.4599 20.0511 24.4561 19.9933 24.4413 19.9379C24.4264 19.8824 24.4008 19.8305 24.3658 19.785C24.3308 19.7394 24.2872 19.7013 24.2375 19.6726ZM20.7437 20.3032C20.6434 20.2455 20.5243 20.23 20.4125 20.26C20.3008 20.29 20.2055 20.3631 20.1475 20.4632L19.3838 21.787C19.3551 21.8366 19.3365 21.8915 19.329 21.9483C19.3215 22.0051 19.3253 22.0629 19.3402 22.1183C19.3551 22.1736 19.3807 22.2255 19.4156 22.271C19.4505 22.3165 19.4941 22.3546 19.5438 22.3832C19.61 22.4218 19.6852 22.4421 19.7619 22.442C19.8387 22.442 19.9141 22.4218 19.9806 22.3834C20.0471 22.345 20.1023 22.2898 20.1406 22.2232L20.9037 20.9001C20.9325 20.8504 20.9511 20.7956 20.9586 20.7387C20.9661 20.6818 20.9623 20.6239 20.9475 20.5685C20.9326 20.5131 20.907 20.4611 20.872 20.4156C20.8371 20.3701 20.7935 20.3319 20.7437 20.3032ZM19.7056 19.6726C19.6053 19.6149 19.4862 19.5993 19.3744 19.6293C19.2626 19.6593 19.1673 19.7324 19.1094 19.8326L18.3456 21.1564C18.317 21.206 18.2984 21.2608 18.2909 21.3177C18.2835 21.3745 18.2873 21.4323 18.3021 21.4876C18.317 21.543 18.3426 21.5949 18.3775 21.6404C18.4124 21.6858 18.456 21.724 18.5056 21.7526C18.5718 21.7912 18.6471 21.8115 18.7237 21.8114C18.8005 21.8113 18.8759 21.791 18.9424 21.7526C19.0089 21.7143 19.0641 21.6591 19.1025 21.5926L19.8656 20.2695C19.8944 20.2198 19.913 20.1649 19.9205 20.108C19.928 20.0511 19.9243 19.9933 19.9094 19.9379C19.8945 19.8824 19.8689 19.8305 19.8339 19.785C19.799 19.7394 19.7554 19.7013 19.7056 19.6726ZM31.9562 7.99949L28.5438 0.960117C28.5081 0.886327 28.4523 0.824083 28.3829 0.780527C28.3135 0.736972 28.2332 0.713868 28.1513 0.713867H7.02938C6.94734 0.713861 6.86695 0.736955 6.79743 0.780505C6.7279 0.824054 6.67205 0.8863 6.63625 0.960117L3.22375 7.99949C3.19502 8.05871 3.18006 8.12367 3.18 8.18949V9.70074C3.18042 10.2883 3.34102 10.8647 3.64452 11.3679C3.94802 11.871 4.38294 12.2819 4.9025 12.5564V20.7039H3.42688L2.88937 18.6676C2.86471 18.5744 2.8099 18.4919 2.73349 18.433C2.65708 18.3741 2.56335 18.3421 2.46688 18.342H0.436875C0.321009 18.342 0.209888 18.388 0.127958 18.4699C0.0460278 18.5519 0 18.663 0 18.7789C0 18.8947 0.0460278 19.0059 0.127958 19.0878C0.209888 19.1697 0.321009 19.2157 0.436875 19.2157H2.13063L2.655 21.2026C2.65974 21.2367 2.66877 21.2701 2.68187 21.302L3.1275 22.9901C3.13188 23.0366 3.14392 23.082 3.16313 23.1245L3.60188 24.7864C3.60552 24.8406 3.61952 24.8936 3.64313 24.9426L3.98062 26.222C3.63538 26.3493 3.34591 26.594 3.16288 26.9132C2.97984 27.2325 2.9149 27.6059 2.97941 27.9682C3.04392 28.3304 3.23379 28.6585 3.51577 28.8949C3.79775 29.1313 4.1539 29.261 4.52187 29.2614H4.96688C4.88792 29.4425 4.84727 29.6381 4.8475 29.8357C4.8475 30.2201 5.00017 30.5886 5.27192 30.8604C5.54367 31.1321 5.91225 31.2848 6.29656 31.2848C6.68088 31.2848 7.04945 31.1321 7.3212 30.8604C7.59296 30.5886 7.74563 30.2201 7.74563 29.8357C7.74585 29.6381 7.70521 29.4425 7.62625 29.2614H9.91C9.83084 29.4425 9.78998 29.6381 9.79 29.8357C9.78973 30.0512 9.83748 30.2641 9.92979 30.4588C10.0221 30.6535 10.1566 30.8252 10.3236 30.9615C10.4906 31.0977 10.6859 31.1949 10.8952 31.2462C11.1045 31.2975 11.3226 31.3015 11.5336 31.2579C11.7447 31.2143 11.9434 31.1243 12.1152 30.9943C12.2871 30.8643 12.4278 30.6976 12.5272 30.5064C12.6266 30.3152 12.6821 30.1042 12.6897 29.8888C12.6973 29.6735 12.6569 29.4591 12.5712 29.2614H13.2869C13.4027 29.2614 13.5139 29.2153 13.5958 29.1334C13.6777 29.0515 13.7238 28.9404 13.7238 28.8245C13.7238 28.7086 13.6777 28.5975 13.5958 28.5156C13.5139 28.4336 13.4027 28.3876 13.2869 28.3876H4.52187C4.33772 28.3876 4.1611 28.3145 4.03088 28.1842C3.90066 28.054 3.8275 27.8774 3.8275 27.6932C3.8275 27.5091 3.90066 27.3325 4.03088 27.2022C4.1611 27.072 4.33772 26.9989 4.52187 26.9989C4.52437 26.9989 4.52688 26.9982 4.52875 26.9982C4.53062 26.9982 4.53375 26.9989 4.53625 26.9989H12.6469C12.7435 26.9989 12.8373 26.9668 12.9138 26.9078C12.9902 26.8488 13.0449 26.7661 13.0694 26.6726L13.1525 26.3557H29.8394C29.9552 26.3557 30.0663 26.3097 30.1483 26.2278C30.2302 26.1458 30.2762 26.0347 30.2763 25.9189V12.557C30.7961 12.2826 31.2313 11.8717 31.5351 11.3684C31.8388 10.8651 31.9995 10.2886 32 9.70074V8.18949C31.9999 8.12367 31.985 8.05871 31.9562 7.99949ZM11.2406 29.2614C11.3545 29.2616 11.4657 29.2956 11.5602 29.3591C11.6547 29.4225 11.7283 29.5126 11.7717 29.6179C11.815 29.7231 11.8261 29.8389 11.8037 29.9505C11.7812 30.0621 11.7262 30.1646 11.6455 30.2449C11.5648 30.3252 11.4622 30.3798 11.3504 30.4018C11.2387 30.4238 11.123 30.4121 11.0179 30.3683C10.9129 30.3245 10.8231 30.2505 10.7601 30.1558C10.697 30.061 10.6635 29.9496 10.6637 29.8357C10.6642 29.6831 10.7252 29.5369 10.8333 29.4292C10.9415 29.3215 11.088 29.2611 11.2406 29.2614ZM6.29563 29.2614C6.40955 29.2612 6.52096 29.2949 6.61573 29.3582C6.71049 29.4214 6.78437 29.5113 6.828 29.6166C6.87162 29.7218 6.88304 29.8376 6.8608 29.9494C6.83856 30.0611 6.78366 30.1637 6.70306 30.2442C6.62245 30.3248 6.51977 30.3795 6.40801 30.4017C6.29625 30.4238 6.18044 30.4122 6.07524 30.3685C5.97005 30.3248 5.8802 30.2508 5.81707 30.1559C5.75394 30.0611 5.72038 29.9497 5.72062 29.8357C5.72109 29.6834 5.78184 29.5375 5.88959 29.4299C5.99734 29.3223 6.14332 29.2617 6.29563 29.2614ZM27.8775 1.58762L30.8662 7.75324H26.2981L24.4356 1.58762H27.8775ZM25.5381 9.67262C25.5375 9.68199 25.5369 9.69137 25.5369 9.70074C25.5369 10.3262 25.2884 10.926 24.8462 11.3682C24.404 11.8104 23.8042 12.0589 23.1787 12.0589C22.5533 12.0589 21.9535 11.8104 21.5113 11.3682C21.0691 10.926 20.8206 10.3262 20.8206 9.70074C20.8206 9.69762 20.82 9.69449 20.82 9.69137C20.82 9.68824 20.8206 9.68449 20.8206 9.68137V8.62637H25.5369V9.64449C25.5369 9.65387 25.5375 9.66324 25.5381 9.67262ZM23.5231 1.58762L25.3856 7.75324H20.7712L20.0244 1.58762H23.5231ZM16.0338 1.58762H19.145L19.8913 7.75324H15.2869L16.0338 1.58762ZM15.2312 9.65637V8.62637H19.9475V9.70074C19.9475 10.3262 19.6991 10.926 19.2568 11.3682C18.8146 11.8104 18.2148 12.0589 17.5894 12.0589C16.964 12.0589 16.3642 11.8104 15.9219 11.3682C15.4797 10.926 15.2312 10.3262 15.2312 9.70074C15.2312 9.69324 15.2306 9.68637 15.23 9.67887C15.2306 9.67137 15.2312 9.66387 15.2312 9.65637ZM15.1538 1.58762L14.4075 7.75324H9.79438L11.655 1.58762H15.1538ZM14.3588 9.67887C14.3581 9.68637 14.3575 9.69324 14.3575 9.70074C14.3575 10.3259 14.1092 10.9255 13.6671 11.3675C13.225 11.8096 12.6255 12.0579 12.0003 12.0579C11.3751 12.0579 10.7756 11.8096 10.3335 11.3675C9.89147 10.9255 9.64312 10.3259 9.64312 9.70074C9.64312 9.69574 9.6425 9.69074 9.6425 9.68574C9.6425 9.68074 9.64312 9.67574 9.64312 9.67074V8.62637H14.3575V9.65637C14.3575 9.66387 14.3581 9.67137 14.3588 9.67887ZM7.3025 1.58762H10.7425L8.88188 7.75324H4.31375L7.3025 1.58762ZM4.05375 9.70074V8.62637H8.77V9.67074C8.77 9.67574 8.77063 9.68074 8.77063 9.68574C8.77063 9.69074 8.77 9.69574 8.77 9.70074C8.76995 10.0863 8.67533 10.466 8.49443 10.8066C8.31353 11.1471 8.05188 11.4381 7.7324 11.654C7.41292 11.8699 7.04536 12.0041 6.66194 12.045C6.27851 12.0858 5.89092 12.032 5.53312 11.8882C5.51431 11.8788 5.49489 11.8707 5.475 11.8639C5.05315 11.6809 4.69392 11.3788 4.44144 10.9945C4.18895 10.6102 4.05421 10.1605 4.05375 9.70074ZM3.90438 22.5107L3.6575 21.5776H5.9075L6.07937 22.5107H3.90438ZM4.38125 24.3182L4.135 23.3845H6.24062L6.4125 24.3182H4.38125ZM4.85875 26.1251L4.61188 25.1914H6.57312L6.74563 26.1251H4.85875ZM9.52312 26.1251H7.63375L7.46125 25.1914H9.69563L9.52312 26.1251ZM9.85625 24.3182H7.30062L7.12875 23.3845H10.0281L9.85625 24.3182ZM10.1894 22.5107H6.9675L6.79563 21.5776H10.3612L10.1894 22.5107ZM12.3988 25.7876C12.3963 25.7957 12.3944 25.8039 12.3925 25.8114L12.31 26.1251H10.4113L10.5837 25.1914H12.555L12.3988 25.7876ZM12.7844 24.3182H10.7444L10.9169 23.3845H13.0294L12.7844 24.3182ZM11.0775 22.5107L11.2494 21.5776H13.5037L13.2587 22.5107H11.0775ZM21.4531 25.482H17.7962V16.5739H21.4531V25.482ZM16.755 15.7007V15.0082H27.025V15.7007H16.755ZM25.985 25.482H22.3269V16.5739H25.985V25.482ZM29.4025 25.482H26.8587V16.5739H27.4619C27.5192 16.5739 27.576 16.5627 27.629 16.5408C27.682 16.5189 27.7301 16.4868 27.7707 16.4463C27.8113 16.4058 27.8435 16.3576 27.8654 16.3047C27.8874 16.2517 27.8987 16.195 27.8988 16.1376V14.5714C27.8987 14.4555 27.8527 14.3444 27.7708 14.2625C27.6888 14.1805 27.5777 14.1345 27.4619 14.1345H16.3181C16.2023 14.1345 16.0912 14.1805 16.0092 14.2625C15.9273 14.3444 15.8813 14.4555 15.8813 14.5714V16.1376C15.8813 16.195 15.8926 16.2517 15.9146 16.3047C15.9365 16.3576 15.9687 16.4058 16.0093 16.4463C16.0499 16.4868 16.098 16.5189 16.151 16.5408C16.204 16.5627 16.2608 16.5739 16.3181 16.5739H16.9231V25.482H13.3819L13.5381 24.887C13.5425 24.8726 13.5469 24.8576 13.55 24.8426L14.0106 23.0857C14.0169 23.0676 14.0219 23.049 14.0256 23.0301L14.4925 21.2514C14.5094 21.1868 14.5112 21.1191 14.4979 21.0537C14.4846 20.9883 14.4565 20.9268 14.4157 20.8739C14.3749 20.821 14.3225 20.7782 14.2626 20.7487C14.2027 20.7193 14.1368 20.7039 14.07 20.7039H5.77563V12.8682C6.43738 13.001 7.12408 12.9232 7.73936 12.6458C8.35464 12.3683 8.86761 11.9052 9.20625 11.3214C9.49006 11.811 9.89756 12.2175 10.3879 12.5001C10.8783 12.7827 11.4343 12.9314 12.0003 12.9314C12.5663 12.9314 13.1223 12.7827 13.6127 12.5001C14.1031 12.2175 14.5106 11.811 14.7944 11.3214C15.0783 11.811 15.4859 12.2174 15.9764 12.5C16.4668 12.7825 17.0229 12.9313 17.5889 12.9314C18.1549 12.9314 18.711 12.7828 19.2015 12.5003C19.692 12.2179 20.0997 11.8116 20.3838 11.322C20.6679 11.8116 21.0756 12.218 21.5661 12.5005C22.0567 12.7829 22.6129 12.9316 23.1789 12.9315C23.745 12.9315 24.3011 12.7827 24.7916 12.5001C25.2821 12.2175 25.6898 11.811 25.9737 11.3214C26.2577 11.8108 26.6652 12.2171 27.1555 12.4996C27.6458 12.7822 28.2016 12.931 28.7675 12.9314C28.9807 12.9313 29.1934 12.9104 29.4025 12.8689V25.482ZM31.1269 9.70074C31.1263 10.1601 30.9917 10.6093 30.7395 10.9933C30.4874 11.3773 30.1288 11.6794 29.7075 11.8626C29.6849 11.8696 29.6629 11.8786 29.6419 11.8895C29.2843 12.0327 28.897 12.086 28.5141 12.0447C28.1311 12.0035 27.7641 11.8689 27.4452 11.6529C27.1263 11.4369 26.8652 11.146 26.6849 10.8056C26.5045 10.4653 26.4103 10.0859 26.4106 9.70074C26.4106 9.69137 26.4094 9.68199 26.4088 9.67262C26.4094 9.66324 26.4106 9.65387 26.4106 9.64449V8.62637H31.1269V9.70074ZM24.0756 22.3832C24.1418 22.4218 24.2171 22.4421 24.2938 22.442C24.3705 22.442 24.446 22.4218 24.5125 22.3834C24.579 22.345 24.6342 22.2898 24.6725 22.2232L25.4363 20.9001C25.4942 20.7997 25.5099 20.6805 25.4799 20.5685C25.4499 20.4566 25.3766 20.3612 25.2763 20.3032C25.1759 20.2453 25.0566 20.2296 24.9447 20.2596C24.8327 20.2896 24.7373 20.3629 24.6794 20.4632L23.9156 21.787C23.887 21.8366 23.8684 21.8915 23.8609 21.9483C23.8534 22.0051 23.8572 22.0629 23.8721 22.1183C23.8869 22.1736 23.9126 22.2255 23.9475 22.271C23.9824 22.3165 24.026 22.3546 24.0756 22.3832ZM23.0375 21.7526C23.1037 21.7912 23.179 21.8115 23.2556 21.8114C23.3324 21.8113 23.4078 21.791 23.4743 21.7526C23.5407 21.7143 23.5959 21.6591 23.6344 21.5926L24.3975 20.2695C24.4264 20.2198 24.4453 20.1649 24.4529 20.108C24.4606 20.051 24.457 19.9931 24.4422 19.9375C24.4274 19.882 24.4019 19.8299 24.3669 19.7842C24.332 19.7386 24.2884 19.7003 24.2386 19.6716C24.1888 19.6428 24.1339 19.6242 24.0769 19.6167C24.0199 19.6092 23.962 19.6131 23.9065 19.628C23.851 19.643 23.799 19.6688 23.7535 19.7039C23.708 19.739 23.6698 19.7827 23.6413 19.8326L22.8775 21.1564C22.8489 21.206 22.8303 21.2608 22.8228 21.3177C22.8153 21.3745 22.8191 21.4323 22.834 21.4876C22.8489 21.543 22.8745 21.5949 22.9094 21.6404C22.9443 21.6858 22.9878 21.724 23.0375 21.7526ZM19.5438 22.3832C19.61 22.4218 19.6852 22.4421 19.7619 22.442C19.8387 22.442 19.9141 22.4218 19.9806 22.3834C20.0471 22.345 20.1023 22.2898 20.1406 22.2232L20.9037 20.9001C20.9327 20.8504 20.9515 20.7956 20.9592 20.7386C20.9669 20.6816 20.9632 20.6237 20.9485 20.5682C20.9337 20.5126 20.9081 20.4605 20.8732 20.4149C20.8382 20.3692 20.7946 20.3309 20.7449 20.3022C20.6951 20.2734 20.6401 20.2548 20.5831 20.2473C20.5261 20.2399 20.4682 20.2437 20.4127 20.2587C20.3572 20.2736 20.3052 20.2994 20.2597 20.3345C20.2142 20.3696 20.1761 20.4134 20.1475 20.4632L19.3838 21.787C19.3551 21.8366 19.3365 21.8915 19.329 21.9483C19.3215 22.0051 19.3253 22.0629 19.3402 22.1183C19.3551 22.1736 19.3807 22.2255 19.4156 22.271C19.4505 22.3165 19.4941 22.3546 19.5438 22.3832ZM18.5056 21.7526C18.5718 21.7912 18.6471 21.8115 18.7237 21.8114C18.8005 21.8113 18.8759 21.791 18.9424 21.7526C19.0089 21.7143 19.0641 21.6591 19.1025 21.5926L19.8656 20.2695C19.8946 20.2198 19.9134 20.1649 19.9211 20.108C19.9287 20.051 19.9251 19.9931 19.9103 19.9375C19.8956 19.882 19.87 19.8299 19.835 19.7842C19.8001 19.7386 19.7565 19.7003 19.7067 19.6716C19.657 19.6428 19.602 19.6242 19.545 19.6167C19.488 19.6092 19.4301 19.6131 19.3746 19.628C19.3191 19.643 19.2671 19.6688 19.2216 19.7039C19.1761 19.739 19.1379 19.7827 19.1094 19.8326L18.3456 21.1564C18.317 21.206 18.2984 21.2608 18.2909 21.3177C18.2835 21.3745 18.2873 21.4323 18.3021 21.4876C18.317 21.543 18.3426 21.5949 18.3775 21.6404C18.4124 21.6858 18.456 21.724 18.5056 21.7526ZM14.07 14.1345H7.48625C7.37039 14.1345 7.25928 14.1805 7.17735 14.2625C7.09542 14.3444 7.04939 14.4555 7.04938 14.5714V19.4807C7.04939 19.5381 7.06071 19.5949 7.08268 19.6478C7.10464 19.7008 7.13683 19.7489 7.17741 19.7894C7.21798 19.8299 7.26614 19.862 7.31913 19.8839C7.37212 19.9058 7.42891 19.9171 7.48625 19.917H14.07C14.1273 19.917 14.1841 19.9058 14.237 19.8839C14.29 19.862 14.3381 19.8298 14.3786 19.7893C14.4191 19.7488 14.4512 19.7007 14.4731 19.6477C14.495 19.5948 14.5063 19.538 14.5063 19.4807V14.5714C14.5063 14.514 14.4951 14.4572 14.4732 14.4042C14.4513 14.3513 14.4192 14.3031 14.3787 14.2625C14.3381 14.222 14.29 14.1898 14.2371 14.1678C14.1841 14.1458 14.1273 14.1345 14.07 14.1345ZM13.6331 19.0439H7.92312V15.0082H13.6331V19.0439ZM19.7056 19.6726C19.6053 19.6149 19.4862 19.5993 19.3744 19.6293C19.2626 19.6593 19.1673 19.7324 19.1094 19.8326L18.3456 21.1564C18.317 21.206 18.2984 21.2608 18.2909 21.3177C18.2835 21.3745 18.2873 21.4323 18.3021 21.4876C18.317 21.543 18.3426 21.5949 18.3775 21.6404C18.4124 21.6858 18.456 21.724 18.5056 21.7526C18.5718 21.7912 18.6471 21.8115 18.7237 21.8114C18.8005 21.8113 18.8759 21.791 18.9424 21.7526C19.0089 21.7143 19.0641 21.6591 19.1025 21.5926L19.8656 20.2695C19.8944 20.2198 19.913 20.1649 19.9205 20.108C19.928 20.0511 19.9243 19.9933 19.9094 19.9379C19.8945 19.8824 19.8689 19.8305 19.8339 19.785C19.799 19.7394 19.7554 19.7013 19.7056 19.6726ZM20.7437 20.3032C20.6434 20.2455 20.5243 20.23 20.4125 20.26C20.3008 20.29 20.2055 20.3631 20.1475 20.4632L19.3838 21.787C19.3551 21.8366 19.3365 21.8915 19.329 21.9483C19.3215 22.0051 19.3253 22.0629 19.3402 22.1183C19.3551 22.1736 19.3807 22.2255 19.4156 22.271C19.4505 22.3165 19.4941 22.3546 19.5438 22.3832C19.61 22.4218 19.6852 22.4421 19.7619 22.442C19.8387 22.442 19.9141 22.4218 19.9806 22.3834C20.0471 22.345 20.1023 22.2898 20.1406 22.2232L20.9037 20.9001C20.9325 20.8504 20.9511 20.7956 20.9586 20.7387C20.9661 20.6818 20.9623 20.6239 20.9475 20.5685C20.9326 20.5131 20.907 20.4611 20.872 20.4156C20.8371 20.3701 20.7935 20.3319 20.7437 20.3032ZM24.2375 19.6726C24.1372 19.6149 24.0181 19.5993 23.9063 19.6293C23.7945 19.6593 23.6992 19.7324 23.6413 19.8326L22.8775 21.1564C22.8489 21.206 22.8303 21.2608 22.8228 21.3177C22.8153 21.3745 22.8191 21.4323 22.834 21.4876C22.8489 21.543 22.8745 21.5949 22.9094 21.6404C22.9443 21.6858 22.9878 21.724 23.0375 21.7526C23.1037 21.7912 23.179 21.8115 23.2556 21.8114C23.3324 21.8113 23.4078 21.791 23.4743 21.7526C23.5407 21.7143 23.5959 21.6591 23.6344 21.5926L24.3975 20.2695C24.4262 20.2198 24.4449 20.1649 24.4524 20.108C24.4599 20.0511 24.4561 19.9933 24.4413 19.9379C24.4264 19.8824 24.4008 19.8305 24.3658 19.785C24.3308 19.7394 24.2872 19.7013 24.2375 19.6726ZM25.2763 20.3032C25.1758 20.2455 25.0566 20.2298 24.9447 20.2598C24.8328 20.2898 24.7374 20.363 24.6794 20.4632L23.9156 21.787C23.887 21.8366 23.8684 21.8915 23.8609 21.9483C23.8534 22.0051 23.8572 22.0629 23.8721 22.1183C23.8869 22.1736 23.9126 22.2255 23.9475 22.271C23.9824 22.3165 24.026 22.3546 24.0756 22.3832C24.1418 22.4218 24.2171 22.4421 24.2938 22.442C24.3705 22.442 24.446 22.4218 24.5125 22.3834C24.579 22.345 24.6342 22.2898 24.6725 22.2232L25.4363 20.9001C25.494 20.7997 25.5096 20.6805 25.4796 20.5686C25.4497 20.4567 25.3765 20.3613 25.2763 20.3032ZM14.07 14.1345H7.48625C7.37039 14.1345 7.25928 14.1805 7.17735 14.2625C7.09542 14.3444 7.04939 14.4555 7.04938 14.5714V19.4807C7.04939 19.5381 7.06071 19.5949 7.08268 19.6478C7.10464 19.7008 7.13683 19.7489 7.17741 19.7894C7.21798 19.8299 7.26614 19.862 7.31913 19.8839C7.37212 19.9058 7.42891 19.9171 7.48625 19.917H14.07C14.1273 19.917 14.1841 19.9058 14.237 19.8839C14.29 19.862 14.3381 19.8298 14.3786 19.7893C14.4191 19.7488 14.4512 19.7007 14.4731 19.6477C14.495 19.5948 14.5063 19.538 14.5063 19.4807V14.5714C14.5063 14.514 14.4951 14.4572 14.4732 14.4042C14.4513 14.3513 14.4192 14.3031 14.3787 14.2625C14.3381 14.222 14.29 14.1898 14.2371 14.1678C14.1841 14.1458 14.1273 14.1345 14.07 14.1345ZM13.6331 19.0439H7.92312V15.0082H13.6331V19.0439ZM25.2763 20.3032C25.1758 20.2455 25.0566 20.2298 24.9447 20.2598C24.8328 20.2898 24.7374 20.363 24.6794 20.4632L23.9156 21.787C23.887 21.8366 23.8684 21.8915 23.8609 21.9483C23.8534 22.0051 23.8572 22.0629 23.8721 22.1183C23.8869 22.1736 23.9126 22.2255 23.9475 22.271C23.9824 22.3165 24.026 22.3546 24.0756 22.3832C24.1418 22.4218 24.2171 22.4421 24.2938 22.442C24.3705 22.442 24.446 22.4218 24.5125 22.3834C24.579 22.345 24.6342 22.2898 24.6725 22.2232L25.4363 20.9001C25.494 20.7997 25.5096 20.6805 25.4796 20.5686C25.4497 20.4567 25.3765 20.3613 25.2763 20.3032ZM24.2375 19.6726C24.1372 19.6149 24.0181 19.5993 23.9063 19.6293C23.7945 19.6593 23.6992 19.7324 23.6413 19.8326L22.8775 21.1564C22.8489 21.206 22.8303 21.2608 22.8228 21.3177C22.8153 21.3745 22.8191 21.4323 22.834 21.4876C22.8489 21.543 22.8745 21.5949 22.9094 21.6404C22.9443 21.6858 22.9878 21.724 23.0375 21.7526C23.1037 21.7912 23.179 21.8115 23.2556 21.8114C23.3324 21.8113 23.4078 21.791 23.4743 21.7526C23.5407 21.7143 23.5959 21.6591 23.6344 21.5926L24.3975 20.2695C24.4262 20.2198 24.4449 20.1649 24.4524 20.108C24.4599 20.0511 24.4561 19.9933 24.4413 19.9379C24.4264 19.8824 24.4008 19.8305 24.3658 19.785C24.3308 19.7394 24.2872 19.7013 24.2375 19.6726ZM20.7437 20.3032C20.6434 20.2455 20.5243 20.23 20.4125 20.26C20.3008 20.29 20.2055 20.3631 20.1475 20.4632L19.3838 21.787C19.3551 21.8366 19.3365 21.8915 19.329 21.9483C19.3215 22.0051 19.3253 22.0629 19.3402 22.1183C19.3551 22.1736 19.3807 22.2255 19.4156 22.271C19.4505 22.3165 19.4941 22.3546 19.5438 22.3832C19.61 22.4218 19.6852 22.4421 19.7619 22.442C19.8387 22.442 19.9141 22.4218 19.9806 22.3834C20.0471 22.345 20.1023 22.2898 20.1406 22.2232L20.9037 20.9001C20.9325 20.8504 20.9511 20.7956 20.9586 20.7387C20.9661 20.6818 20.9623 20.6239 20.9475 20.5685C20.9326 20.5131 20.907 20.4611 20.872 20.4156C20.8371 20.3701 20.7935 20.3319 20.7437 20.3032ZM19.7056 19.6726C19.6053 19.6149 19.4862 19.5993 19.3744 19.6293C19.2626 19.6593 19.1673 19.7324 19.1094 19.8326L18.3456 21.1564C18.317 21.206 18.2984 21.2608 18.2909 21.3177C18.2835 21.3745 18.2873 21.4323 18.3021 21.4876C18.317 21.543 18.3426 21.5949 18.3775 21.6404C18.4124 21.6858 18.456 21.724 18.5056 21.7526C18.5718 21.7912 18.6471 21.8115 18.7237 21.8114C18.8005 21.8113 18.8759 21.791 18.9424 21.7526C19.0089 21.7143 19.0641 21.6591 19.1025 21.5926L19.8656 20.2695C19.8944 20.2198 19.913 20.1649 19.9205 20.108C19.928 20.0511 19.9243 19.9933 19.9094 19.9379C19.8945 19.8824 19.8689 19.8305 19.8339 19.785C19.799 19.7394 19.7554 19.7013 19.7056 19.6726ZM14.07 14.1345H7.48625C7.37039 14.1345 7.25928 14.1805 7.17735 14.2625C7.09542 14.3444 7.04939 14.4555 7.04938 14.5714V19.4807C7.04939 19.5381 7.06071 19.5949 7.08268 19.6478C7.10464 19.7008 7.13683 19.7489 7.17741 19.7894C7.21798 19.8299 7.26614 19.862 7.31913 19.8839C7.37212 19.9058 7.42891 19.9171 7.48625 19.917H14.07C14.1273 19.917 14.1841 19.9058 14.237 19.8839C14.29 19.862 14.3381 19.8298 14.3786 19.7893C14.4191 19.7488 14.4512 19.7007 14.4731 19.6477C14.495 19.5948 14.5063 19.538 14.5063 19.4807V14.5714C14.5063 14.514 14.4951 14.4572 14.4732 14.4042C14.4513 14.3513 14.4192 14.3031 14.3787 14.2625C14.3381 14.222 14.29 14.1898 14.2371 14.1678C14.1841 14.1458 14.1273 14.1345 14.07 14.1345ZM13.6331 19.0439H7.92312V15.0082H13.6331V19.0439ZM19.7056 19.6726C19.6053 19.6149 19.4862 19.5993 19.3744 19.6293C19.2626 19.6593 19.1673 19.7324 19.1094 19.8326L18.3456 21.1564C18.317 21.206 18.2984 21.2608 18.2909 21.3177C18.2835 21.3745 18.2873 21.4323 18.3021 21.4876C18.317 21.543 18.3426 21.5949 18.3775 21.6404C18.4124 21.6858 18.456 21.724 18.5056 21.7526C18.5718 21.7912 18.6471 21.8115 18.7237 21.8114C18.8005 21.8113 18.8759 21.791 18.9424 21.7526C19.0089 21.7143 19.0641 21.6591 19.1025 21.5926L19.8656 20.2695C19.8944 20.2198 19.913 20.1649 19.9205 20.108C19.928 20.0511 19.9243 19.9933 19.9094 19.9379C19.8945 19.8824 19.8689 19.8305 19.8339 19.785C19.799 19.7394 19.7554 19.7013 19.7056 19.6726ZM20.7437 20.3032C20.6434 20.2455 20.5243 20.23 20.4125 20.26C20.3008 20.29 20.2055 20.3631 20.1475 20.4632L19.3838 21.787C19.3551 21.8366 19.3365 21.8915 19.329 21.9483C19.3215 22.0051 19.3253 22.0629 19.3402 22.1183C19.3551 22.1736 19.3807 22.2255 19.4156 22.271C19.4505 22.3165 19.4941 22.3546 19.5438 22.3832C19.61 22.4218 19.6852 22.4421 19.7619 22.442C19.8387 22.442 19.9141 22.4218 19.9806 22.3834C20.0471 22.345 20.1023 22.2898 20.1406 22.2232L20.9037 20.9001C20.9325 20.8504 20.9511 20.7956 20.9586 20.7387C20.9661 20.6818 20.9623 20.6239 20.9475 20.5685C20.9326 20.5131 20.907 20.4611 20.872 20.4156C20.8371 20.3701 20.7935 20.3319 20.7437 20.3032ZM24.2375 19.6726C24.1372 19.6149 24.0181 19.5993 23.9063 19.6293C23.7945 19.6593 23.6992 19.7324 23.6413 19.8326L22.8775 21.1564C22.8489 21.206 22.8303 21.2608 22.8228 21.3177C22.8153 21.3745 22.8191 21.4323 22.834 21.4876C22.8489 21.543 22.8745 21.5949 22.9094 21.6404C22.9443 21.6858 22.9878 21.724 23.0375 21.7526C23.1037 21.7912 23.179 21.8115 23.2556 21.8114C23.3324 21.8113 23.4078 21.791 23.4743 21.7526C23.5407 21.7143 23.5959 21.6591 23.6344 21.5926L24.3975 20.2695C24.4262 20.2198 24.4449 20.1649 24.4524 20.108C24.4599 20.0511 24.4561 19.9933 24.4413 19.9379C24.4264 19.8824 24.4008 19.8305 24.3658 19.785C24.3308 19.7394 24.2872 19.7013 24.2375 19.6726ZM25.2763 20.3032C25.1758 20.2455 25.0566 20.2298 24.9447 20.2598C24.8328 20.2898 24.7374 20.363 24.6794 20.4632L23.9156 21.787C23.887 21.8366 23.8684 21.8915 23.8609 21.9483C23.8534 22.0051 23.8572 22.0629 23.8721 22.1183C23.8869 22.1736 23.9126 22.2255 23.9475 22.271C23.9824 22.3165 24.026 22.3546 24.0756 22.3832C24.1418 22.4218 24.2171 22.4421 24.2938 22.442C24.3705 22.442 24.446 22.4218 24.5125 22.3834C24.579 22.345 24.6342 22.2898 24.6725 22.2232L25.4363 20.9001C25.494 20.7997 25.5096 20.6805 25.4796 20.5686C25.4497 20.4567 25.3765 20.3613 25.2763 20.3032ZM14.07 14.1345H7.48625C7.37039 14.1345 7.25928 14.1805 7.17735 14.2625C7.09542 14.3444 7.04939 14.4555 7.04938 14.5714V19.4807C7.04939 19.5381 7.06071 19.5949 7.08268 19.6478C7.10464 19.7008 7.13683 19.7489 7.17741 19.7894C7.21798 19.8299 7.26614 19.862 7.31913 19.8839C7.37212 19.9058 7.42891 19.9171 7.48625 19.917H14.07C14.1273 19.917 14.1841 19.9058 14.237 19.8839C14.29 19.862 14.3381 19.8298 14.3786 19.7893C14.4191 19.7488 14.4512 19.7007 14.4731 19.6477C14.495 19.5948 14.5063 19.538 14.5063 19.4807V14.5714C14.5063 14.514 14.4951 14.4572 14.4732 14.4042C14.4513 14.3513 14.4192 14.3031 14.3787 14.2625C14.3381 14.222 14.29 14.1898 14.2371 14.1678C14.1841 14.1458 14.1273 14.1345 14.07 14.1345ZM13.6331 19.0439H7.92312V15.0082H13.6331V19.0439ZM25.2763 20.3032C25.1758 20.2455 25.0566 20.2298 24.9447 20.2598C24.8328 20.2898 24.7374 20.363 24.6794 20.4632L23.9156 21.787C23.887 21.8366 23.8684 21.8915 23.8609 21.9483C23.8534 22.0051 23.8572 22.0629 23.8721 22.1183C23.8869 22.1736 23.9126 22.2255 23.9475 22.271C23.9824 22.3165 24.026 22.3546 24.0756 22.3832C24.1418 22.4218 24.2171 22.4421 24.2938 22.442C24.3705 22.442 24.446 22.4218 24.5125 22.3834C24.579 22.345 24.6342 22.2898 24.6725 22.2232L25.4363 20.9001C25.494 20.7997 25.5096 20.6805 25.4796 20.5686C25.4497 20.4567 25.3765 20.3613 25.2763 20.3032ZM24.2375 19.6726C24.1372 19.6149 24.0181 19.5993 23.9063 19.6293C23.7945 19.6593 23.6992 19.7324 23.6413 19.8326L22.8775 21.1564C22.8489 21.206 22.8303 21.2608 22.8228 21.3177C22.8153 21.3745 22.8191 21.4323 22.834 21.4876C22.8489 21.543 22.8745 21.5949 22.9094 21.6404C22.9443 21.6858 22.9878 21.724 23.0375 21.7526C23.1037 21.7912 23.179 21.8115 23.2556 21.8114C23.3324 21.8113 23.4078 21.791 23.4743 21.7526C23.5407 21.7143 23.5959 21.6591 23.6344 21.5926L24.3975 20.2695C24.4262 20.2198 24.4449 20.1649 24.4524 20.108C24.4599 20.0511 24.4561 19.9933 24.4413 19.9379C24.4264 19.8824 24.4008 19.8305 24.3658 19.785C24.3308 19.7394 24.2872 19.7013 24.2375 19.6726ZM20.7437 20.3032C20.6434 20.2455 20.5243 20.23 20.4125 20.26C20.3008 20.29 20.2055 20.3631 20.1475 20.4632L19.3838 21.787C19.3551 21.8366 19.3365 21.8915 19.329 21.9483C19.3215 22.0051 19.3253 22.0629 19.3402 22.1183C19.3551 22.1736 19.3807 22.2255 19.4156 22.271C19.4505 22.3165 19.4941 22.3546 19.5438 22.3832C19.61 22.4218 19.6852 22.4421 19.7619 22.442C19.8387 22.442 19.9141 22.4218 19.9806 22.3834C20.0471 22.345 20.1023 22.2898 20.1406 22.2232L20.9037 20.9001C20.9325 20.8504 20.9511 20.7956 20.9586 20.7387C20.9661 20.6818 20.9623 20.6239 20.9475 20.5685C20.9326 20.5131 20.907 20.4611 20.872 20.4156C20.8371 20.3701 20.7935 20.3319 20.7437 20.3032ZM19.7056 19.6726C19.6053 19.6149 19.4862 19.5993 19.3744 19.6293C19.2626 19.6593 19.1673 19.7324 19.1094 19.8326L18.3456 21.1564C18.317 21.206 18.2984 21.2608 18.2909 21.3177C18.2835 21.3745 18.2873 21.4323 18.3021 21.4876C18.317 21.543 18.3426 21.5949 18.3775 21.6404C18.4124 21.6858 18.456 21.724 18.5056 21.7526C18.5718 21.7912 18.6471 21.8115 18.7237 21.8114C18.8005 21.8113 18.8759 21.791 18.9424 21.7526C19.0089 21.7143 19.0641 21.6591 19.1025 21.5926L19.8656 20.2695C19.8944 20.2198 19.913 20.1649 19.9205 20.108C19.928 20.0511 19.9243 19.9933 19.9094 19.9379C19.8945 19.8824 19.8689 19.8305 19.8339 19.785C19.799 19.7394 19.7554 19.7013 19.7056 19.6726ZM14.07 14.1345H7.48625C7.37039 14.1345 7.25928 14.1805 7.17735 14.2625C7.09542 14.3444 7.04939 14.4555 7.04938 14.5714V19.4807C7.04939 19.5381 7.06071 19.5949 7.08268 19.6478C7.10464 19.7008 7.13683 19.7489 7.17741 19.7894C7.21798 19.8299 7.26614 19.862 7.31913 19.8839C7.37212 19.9058 7.42891 19.9171 7.48625 19.917H14.07C14.1273 19.917 14.1841 19.9058 14.237 19.8839C14.29 19.862 14.3381 19.8298 14.3786 19.7893C14.4191 19.7488 14.4512 19.7007 14.4731 19.6477C14.495 19.5948 14.5063 19.538 14.5063 19.4807V14.5714C14.5063 14.514 14.4951 14.4572 14.4732 14.4042C14.4513 14.3513 14.4192 14.3031 14.3787 14.2625C14.3381 14.222 14.29 14.1898 14.2371 14.1678C14.1841 14.1458 14.1273 14.1345 14.07 14.1345ZM13.6331 19.0439H7.92312V15.0082H13.6331V19.0439ZM19.7056 19.6726C19.6053 19.6149 19.4862 19.5993 19.3744 19.6293C19.2626 19.6593 19.1673 19.7324 19.1094 19.8326L18.3456 21.1564C18.317 21.206 18.2984 21.2608 18.2909 21.3177C18.2835 21.3745 18.2873 21.4323 18.3021 21.4876C18.317 21.543 18.3426 21.5949 18.3775 21.6404C18.4124 21.6858 18.456 21.724 18.5056 21.7526C18.5718 21.7912 18.6471 21.8115 18.7237 21.8114C18.8005 21.8113 18.8759 21.791 18.9424 21.7526C19.0089 21.7143 19.0641 21.6591 19.1025 21.5926L19.8656 20.2695C19.8944 20.2198 19.913 20.1649 19.9205 20.108C19.928 20.0511 19.9243 19.9933 19.9094 19.9379C19.8945 19.8824 19.8689 19.8305 19.8339 19.785C19.799 19.7394 19.7554 19.7013 19.7056 19.6726ZM20.7437 20.3032C20.6434 20.2455 20.5243 20.23 20.4125 20.26C20.3008 20.29 20.2055 20.3631 20.1475 20.4632L19.3838 21.787C19.3551 21.8366 19.3365 21.8915 19.329 21.9483C19.3215 22.0051 19.3253 22.0629 19.3402 22.1183C19.3551 22.1736 19.3807 22.2255 19.4156 22.271C19.4505 22.3165 19.4941 22.3546 19.5438 22.3832C19.61 22.4218 19.6852 22.4421 19.7619 22.442C19.8387 22.442 19.9141 22.4218 19.9806 22.3834C20.0471 22.345 20.1023 22.2898 20.1406 22.2232L20.9037 20.9001C20.9325 20.8504 20.9511 20.7956 20.9586 20.7387C20.9661 20.6818 20.9623 20.6239 20.9475 20.5685C20.9326 20.5131 20.907 20.4611 20.872 20.4156C20.8371 20.3701 20.7935 20.3319 20.7437 20.3032ZM24.2375 19.6726C24.1372 19.6149 24.0181 19.5993 23.9063 19.6293C23.7945 19.6593 23.6992 19.7324 23.6413 19.8326L22.8775 21.1564C22.8489 21.206 22.8303 21.2608 22.8228 21.3177C22.8153 21.3745 22.8191 21.4323 22.834 21.4876C22.8489 21.543 22.8745 21.5949 22.9094 21.6404C22.9443 21.6858 22.9878 21.724 23.0375 21.7526C23.1037 21.7912 23.179 21.8115 23.2556 21.8114C23.3324 21.8113 23.4078 21.791 23.4743 21.7526C23.5407 21.7143 23.5959 21.6591 23.6344 21.5926L24.3975 20.2695C24.4262 20.2198 24.4449 20.1649 24.4524 20.108C24.4599 20.0511 24.4561 19.9933 24.4413 19.9379C24.4264 19.8824 24.4008 19.8305 24.3658 19.785C24.3308 19.7394 24.2872 19.7013 24.2375 19.6726ZM25.2763 20.3032C25.1758 20.2455 25.0566 20.2298 24.9447 20.2598C24.8328 20.2898 24.7374 20.363 24.6794 20.4632L23.9156 21.787C23.887 21.8366 23.8684 21.8915 23.8609 21.9483C23.8534 22.0051 23.8572 22.0629 23.8721 22.1183C23.8869 22.1736 23.9126 22.2255 23.9475 22.271C23.9824 22.3165 24.026 22.3546 24.0756 22.3832C24.1418 22.4218 24.2171 22.4421 24.2938 22.442C24.3705 22.442 24.446 22.4218 24.5125 22.3834C24.579 22.345 24.6342 22.2898 24.6725 22.2232L25.4363 20.9001C25.494 20.7997 25.5096 20.6805 25.4796 20.5686C25.4497 20.4567 25.3765 20.3613 25.2763 20.3032ZM14.07 14.1345H7.48625C7.37039 14.1345 7.25928 14.1805 7.17735 14.2625C7.09542 14.3444 7.04939 14.4555 7.04938 14.5714V19.4807C7.04939 19.5381 7.06071 19.5949 7.08268 19.6478C7.10464 19.7008 7.13683 19.7489 7.17741 19.7894C7.21798 19.8299 7.26614 19.862 7.31913 19.8839C7.37212 19.9058 7.42891 19.9171 7.48625 19.917H14.07C14.1273 19.917 14.1841 19.9058 14.237 19.8839C14.29 19.862 14.3381 19.8298 14.3786 19.7893C14.4191 19.7488 14.4512 19.7007 14.4731 19.6477C14.495 19.5948 14.5063 19.538 14.5063 19.4807V14.5714C14.5063 14.514 14.4951 14.4572 14.4732 14.4042C14.4513 14.3513 14.4192 14.3031 14.3787 14.2625C14.3381 14.222 14.29 14.1898 14.2371 14.1678C14.1841 14.1458 14.1273 14.1345 14.07 14.1345ZM13.6331 19.0439H7.92312V15.0082H13.6331V19.0439ZM25.2763 20.3032C25.1758 20.2455 25.0566 20.2298 24.9447 20.2598C24.8328 20.2898 24.7374 20.363 24.6794 20.4632L23.9156 21.787C23.887 21.8366 23.8684 21.8915 23.8609 21.9483C23.8534 22.0051 23.8572 22.0629 23.8721 22.1183C23.8869 22.1736 23.9126 22.2255 23.9475 22.271C23.9824 22.3165 24.026 22.3546 24.0756 22.3832C24.1418 22.4218 24.2171 22.4421 24.2938 22.442C24.3705 22.442 24.446 22.4218 24.5125 22.3834C24.579 22.345 24.6342 22.2898 24.6725 22.2232L25.4363 20.9001C25.494 20.7997 25.5096 20.6805 25.4796 20.5686C25.4497 20.4567 25.3765 20.3613 25.2763 20.3032ZM24.2375 19.6726C24.1372 19.6149 24.0181 19.5993 23.9063 19.6293C23.7945 19.6593 23.6992 19.7324 23.6413 19.8326L22.8775 21.1564C22.8489 21.206 22.8303 21.2608 22.8228 21.3177C22.8153 21.3745 22.8191 21.4323 22.834 21.4876C22.8489 21.543 22.8745 21.5949 22.9094 21.6404C22.9443 21.6858 22.9878 21.724 23.0375 21.7526C23.1037 21.7912 23.179 21.8115 23.2556 21.8114C23.3324 21.8113 23.4078 21.791 23.4743 21.7526C23.5407 21.7143 23.5959 21.6591 23.6344 21.5926L24.3975 20.2695C24.4262 20.2198 24.4449 20.1649 24.4524 20.108C24.4599 20.0511 24.4561 19.9933 24.4413 19.9379C24.4264 19.8824 24.4008 19.8305 24.3658 19.785C24.3308 19.7394 24.2872 19.7013 24.2375 19.6726ZM20.7437 20.3032C20.6434 20.2455 20.5243 20.23 20.4125 20.26C20.3008 20.29 20.2055 20.3631 20.1475 20.4632L19.3838 21.787C19.3551 21.8366 19.3365 21.8915 19.329 21.9483C19.3215 22.0051 19.3253 22.0629 19.3402 22.1183C19.3551 22.1736 19.3807 22.2255 19.4156 22.271C19.4505 22.3165 19.4941 22.3546 19.5438 22.3832C19.61 22.4218 19.6852 22.4421 19.7619 22.442C19.8387 22.442 19.9141 22.4218 19.9806 22.3834C20.0471 22.345 20.1023 22.2898 20.1406 22.2232L20.9037 20.9001C20.9325 20.8504 20.9511 20.7956 20.9586 20.7387C20.9661 20.6818 20.9623 20.6239 20.9475 20.5685C20.9326 20.5131 20.907 20.4611 20.872 20.4156C20.8371 20.3701 20.7935 20.3319 20.7437 20.3032ZM19.7056 19.6726C19.6053 19.6149 19.4862 19.5993 19.3744 19.6293C19.2626 19.6593 19.1673 19.7324 19.1094 19.8326L18.3456 21.1564C18.317 21.206 18.2984 21.2608 18.2909 21.3177C18.2835 21.3745 18.2873 21.4323 18.3021 21.4876C18.317 21.543 18.3426 21.5949 18.3775 21.6404C18.4124 21.6858 18.456 21.724 18.5056 21.7526C18.5718 21.7912 18.6471 21.8115 18.7237 21.8114C18.8005 21.8113 18.8759 21.791 18.9424 21.7526C19.0089 21.7143 19.0641 21.6591 19.1025 21.5926L19.8656 20.2695C19.8944 20.2198 19.913 20.1649 19.9205 20.108C19.928 20.0511 19.9243 19.9933 19.9094 19.9379C19.8945 19.8824 19.8689 19.8305 19.8339 19.785C19.799 19.7394 19.7554 19.7013 19.7056 19.6726ZM14.07 14.1345H7.48625C7.37039 14.1345 7.25928 14.1805 7.17735 14.2625C7.09542 14.3444 7.04939 14.4555 7.04938 14.5714V19.4807C7.04939 19.5381 7.06071 19.5949 7.08268 19.6478C7.10464 19.7008 7.13683 19.7489 7.17741 19.7894C7.21798 19.8299 7.26614 19.862 7.31913 19.8839C7.37212 19.9058 7.42891 19.9171 7.48625 19.917H14.07C14.1273 19.917 14.1841 19.9058 14.237 19.8839C14.29 19.862 14.3381 19.8298 14.3786 19.7893C14.4191 19.7488 14.4512 19.7007 14.4731 19.6477C14.495 19.5948 14.5063 19.538 14.5063 19.4807V14.5714C14.5063 14.514 14.4951 14.4572 14.4732 14.4042C14.4513 14.3513 14.4192 14.3031 14.3787 14.2625C14.3381 14.222 14.29 14.1898 14.2371 14.1678C14.1841 14.1458 14.1273 14.1345 14.07 14.1345ZM13.6331 19.0439H7.92312V15.0082H13.6331V19.0439ZM19.7056 19.6726C19.6053 19.6149 19.4862 19.5993 19.3744 19.6293C19.2626 19.6593 19.1673 19.7324 19.1094 19.8326L18.3456 21.1564C18.317 21.206 18.2984 21.2608 18.2909 21.3177C18.2835 21.3745 18.2873 21.4323 18.3021 21.4876C18.317 21.543 18.3426 21.5949 18.3775 21.6404C18.4124 21.6858 18.456 21.724 18.5056 21.7526C18.5718 21.7912 18.6471 21.8115 18.7237 21.8114C18.8005 21.8113 18.8759 21.791 18.9424 21.7526C19.0089 21.7143 19.0641 21.6591 19.1025 21.5926L19.8656 20.2695C19.8944 20.2198 19.913 20.1649 19.9205 20.108C19.928 20.0511 19.9243 19.9933 19.9094 19.9379C19.8945 19.8824 19.8689 19.8305 19.8339 19.785C19.799 19.7394 19.7554 19.7013 19.7056 19.6726ZM20.7437 20.3032C20.6434 20.2455 20.5243 20.23 20.4125 20.26C20.3008 20.29 20.2055 20.3631 20.1475 20.4632L19.3838 21.787C19.3551 21.8366 19.3365 21.8915 19.329 21.9483C19.3215 22.0051 19.3253 22.0629 19.3402 22.1183C19.3551 22.1736 19.3807 22.2255 19.4156 22.271C19.4505 22.3165 19.4941 22.3546 19.5438 22.3832C19.61 22.4218 19.6852 22.4421 19.7619 22.442C19.8387 22.442 19.9141 22.4218 19.9806 22.3834C20.0471 22.345 20.1023 22.2898 20.1406 22.2232L20.9037 20.9001C20.9325 20.8504 20.9511 20.7956 20.9586 20.7387C20.9661 20.6818 20.9623 20.6239 20.9475 20.5685C20.9326 20.5131 20.907 20.4611 20.872 20.4156C20.8371 20.3701 20.7935 20.3319 20.7437 20.3032ZM24.2375 19.6726C24.1372 19.6149 24.0181 19.5993 23.9063 19.6293C23.7945 19.6593 23.6992 19.7324 23.6413 19.8326L22.8775 21.1564C22.8489 21.206 22.8303 21.2608 22.8228 21.3177C22.8153 21.3745 22.8191 21.4323 22.834 21.4876C22.8489 21.543 22.8745 21.5949 22.9094 21.6404C22.9443 21.6858 22.9878 21.724 23.0375 21.7526C23.1037 21.7912 23.179 21.8115 23.2556 21.8114C23.3324 21.8113 23.4078 21.791 23.4743 21.7526C23.5407 21.7143 23.5959 21.6591 23.6344 21.5926L24.3975 20.2695C24.4262 20.2198 24.4449 20.1649 24.4524 20.108C24.4599 20.0511 24.4561 19.9933 24.4413 19.9379C24.4264 19.8824 24.4008 19.8305 24.3658 19.785C24.3308 19.7394 24.2872 19.7013 24.2375 19.6726ZM25.2763 20.3032C25.1758 20.2455 25.0566 20.2298 24.9447 20.2598C24.8328 20.2898 24.7374 20.363 24.6794 20.4632L23.9156 21.787C23.887 21.8366 23.8684 21.8915 23.8609 21.9483C23.8534 22.0051 23.8572 22.0629 23.8721 22.1183C23.8869 22.1736 23.9126 22.2255 23.9475 22.271C23.9824 22.3165 24.026 22.3546 24.0756 22.3832C24.1418 22.4218 24.2171 22.4421 24.2938 22.442C24.3705 22.442 24.446 22.4218 24.5125 22.3834C24.579 22.345 24.6342 22.2898 24.6725 22.2232L25.4363 20.9001C25.494 20.7997 25.5096 20.6805 25.4796 20.5686C25.4497 20.4567 25.3765 20.3613 25.2763 20.3032ZM14.07 14.1345H7.48625C7.37039 14.1345 7.25928 14.1805 7.17735 14.2625C7.09542 14.3444 7.04939 14.4555 7.04938 14.5714V19.4807C7.04939 19.5381 7.06071 19.5949 7.08268 19.6478C7.10464 19.7008 7.13683 19.7489 7.17741 19.7894C7.21798 19.8299 7.26614 19.862 7.31913 19.8839C7.37212 19.9058 7.42891 19.9171 7.48625 19.917H14.07C14.1273 19.917 14.1841 19.9058 14.237 19.8839C14.29 19.862 14.3381 19.8298 14.3786 19.7893C14.4191 19.7488 14.4512 19.7007 14.4731 19.6477C14.495 19.5948 14.5063 19.538 14.5063 19.4807V14.5714C14.5063 14.514 14.4951 14.4572 14.4732 14.4042C14.4513 14.3513 14.4192 14.3031 14.3787 14.2625C14.3381 14.222 14.29 14.1898 14.2371 14.1678C14.1841 14.1458 14.1273 14.1345 14.07 14.1345ZM13.6331 19.0439H7.92312V15.0082H13.6331V19.0439ZM25.2763 20.3032C25.1758 20.2455 25.0566 20.2298 24.9447 20.2598C24.8328 20.2898 24.7374 20.363 24.6794 20.4632L23.9156 21.787C23.887 21.8366 23.8684 21.8915 23.8609 21.9483C23.8534 22.0051 23.8572 22.0629 23.8721 22.1183C23.8869 22.1736 23.9126 22.2255 23.9475 22.271C23.9824 22.3165 24.026 22.3546 24.0756 22.3832C24.1418 22.4218 24.2171 22.4421 24.2938 22.442C24.3705 22.442 24.446 22.4218 24.5125 22.3834C24.579 22.345 24.6342 22.2898 24.6725 22.2232L25.4363 20.9001C25.494 20.7997 25.5096 20.6805 25.4796 20.5686C25.4497 20.4567 25.3765 20.3613 25.2763 20.3032ZM24.2375 19.6726C24.1372 19.6149 24.0181 19.5993 23.9063 19.6293C23.7945 19.6593 23.6992 19.7324 23.6413 19.8326L22.8775 21.1564C22.8489 21.206 22.8303 21.2608 22.8228 21.3177C22.8153 21.3745 22.8191 21.4323 22.834 21.4876C22.8489 21.543 22.8745 21.5949 22.9094 21.6404C22.9443 21.6858 22.9878 21.724 23.0375 21.7526C23.1037 21.7912 23.179 21.8115 23.2556 21.8114C23.3324 21.8113 23.4078 21.791 23.4743 21.7526C23.5407 21.7143 23.5959 21.6591 23.6344 21.5926L24.3975 20.2695C24.4262 20.2198 24.4449 20.1649 24.4524 20.108C24.4599 20.0511 24.4561 19.9933 24.4413 19.9379C24.4264 19.8824 24.4008 19.8305 24.3658 19.785C24.3308 19.7394 24.2872 19.7013 24.2375 19.6726ZM20.7437 20.3032C20.6434 20.2455 20.5243 20.23 20.4125 20.26C20.3008 20.29 20.2055 20.3631 20.1475 20.4632L19.3838 21.787C19.3551 21.8366 19.3365 21.8915 19.329 21.9483C19.3215 22.0051 19.3253 22.0629 19.3402 22.1183C19.3551 22.1736 19.3807 22.2255 19.4156 22.271C19.4505 22.3165 19.4941 22.3546 19.5438 22.3832C19.61 22.4218 19.6852 22.4421 19.7619 22.442C19.8387 22.442 19.9141 22.4218 19.9806 22.3834C20.0471 22.345 20.1023 22.2898 20.1406 22.2232L20.9037 20.9001C20.9325 20.8504 20.9511 20.7956 20.9586 20.7387C20.9661 20.6818 20.9623 20.6239 20.9475 20.5685C20.9326 20.5131 20.907 20.4611 20.872 20.4156C20.8371 20.3701 20.7935 20.3319 20.7437 20.3032ZM19.7056 19.6726C19.6053 19.6149 19.4862 19.5993 19.3744 19.6293C19.2626 19.6593 19.1673 19.7324 19.1094 19.8326L18.3456 21.1564C18.317 21.206 18.2984 21.2608 18.2909 21.3177C18.2835 21.3745 18.2873 21.4323 18.3021 21.4876C18.317 21.543 18.3426 21.5949 18.3775 21.6404C18.4124 21.6858 18.456 21.724 18.5056 21.7526C18.5718 21.7912 18.6471 21.8115 18.7237 21.8114C18.8005 21.8113 18.8759 21.791 18.9424 21.7526C19.0089 21.7143 19.0641 21.6591 19.1025 21.5926L19.8656 20.2695C19.8944 20.2198 19.913 20.1649 19.9205 20.108C19.928 20.0511 19.9243 19.9933 19.9094 19.9379C19.8945 19.8824 19.8689 19.8305 19.8339 19.785C19.799 19.7394 19.7554 19.7013 19.7056 19.6726ZM14.07 14.1345H7.48625C7.37039 14.1345 7.25928 14.1805 7.17735 14.2625C7.09542 14.3444 7.04939 14.4555 7.04938 14.5714V19.4807C7.04939 19.5381 7.06071 19.5949 7.08268 19.6478C7.10464 19.7008 7.13683 19.7489 7.17741 19.7894C7.21798 19.8299 7.26614 19.862 7.31913 19.8839C7.37212 19.9058 7.42891 19.9171 7.48625 19.917H14.07C14.1273 19.917 14.1841 19.9058 14.237 19.8839C14.29 19.862 14.3381 19.8298 14.3786 19.7893C14.4191 19.7488 14.4512 19.7007 14.4731 19.6477C14.495 19.5948 14.5063 19.538 14.5063 19.4807V14.5714C14.5063 14.514 14.4951 14.4572 14.4732 14.4042C14.4513 14.3513 14.4192 14.3031 14.3787 14.2625C14.3381 14.222 14.29 14.1898 14.2371 14.1678C14.1841 14.1458 14.1273 14.1345 14.07 14.1345ZM13.6331 19.0439H7.92312V15.0082H13.6331V19.0439ZM19.7056 19.6726C19.6053 19.6149 19.4862 19.5993 19.3744 19.6293C19.2626 19.6593 19.1673 19.7324 19.1094 19.8326L18.3456 21.1564C18.317 21.206 18.2984 21.2608 18.2909 21.3177C18.2835 21.3745 18.2873 21.4323 18.3021 21.4876C18.317 21.543 18.3426 21.5949 18.3775 21.6404C18.4124 21.6858 18.456 21.724 18.5056 21.7526C18.5718 21.7912 18.6471 21.8115 18.7237 21.8114C18.8005 21.8113 18.8759 21.791 18.9424 21.7526C19.0089 21.7143 19.0641 21.6591 19.1025 21.5926L19.8656 20.2695C19.8944 20.2198 19.913 20.1649 19.9205 20.108C19.928 20.0511 19.9243 19.9933 19.9094 19.9379C19.8945 19.8824 19.8689 19.8305 19.8339 19.785C19.799 19.7394 19.7554 19.7013 19.7056 19.6726ZM20.7437 20.3032C20.6434 20.2455 20.5243 20.23 20.4125 20.26C20.3008 20.29 20.2055 20.3631 20.1475 20.4632L19.3838 21.787C19.3551 21.8366 19.3365 21.8915 19.329 21.9483C19.3215 22.0051 19.3253 22.0629 19.3402 22.1183C19.3551 22.1736 19.3807 22.2255 19.4156 22.271C19.4505 22.3165 19.4941 22.3546 19.5438 22.3832C19.61 22.4218 19.6852 22.4421 19.7619 22.442C19.8387 22.442 19.9141 22.4218 19.9806 22.3834C20.0471 22.345 20.1023 22.2898 20.1406 22.2232L20.9037 20.9001C20.9325 20.8504 20.9511 20.7956 20.9586 20.7387C20.9661 20.6818 20.9623 20.6239 20.9475 20.5685C20.9326 20.5131 20.907 20.4611 20.872 20.4156C20.8371 20.3701 20.7935 20.3319 20.7437 20.3032ZM24.2375 19.6726C24.1372 19.6149 24.0181 19.5993 23.9063 19.6293C23.7945 19.6593 23.6992 19.7324 23.6413 19.8326L22.8775 21.1564C22.8489 21.206 22.8303 21.2608 22.8228 21.3177C22.8153 21.3745 22.8191 21.4323 22.834 21.4876C22.8489 21.543 22.8745 21.5949 22.9094 21.6404C22.9443 21.6858 22.9878 21.724 23.0375 21.7526C23.1037 21.7912 23.179 21.8115 23.2556 21.8114C23.3324 21.8113 23.4078 21.791 23.4743 21.7526C23.5407 21.7143 23.5959 21.6591 23.6344 21.5926L24.3975 20.2695C24.4262 20.2198 24.4449 20.1649 24.4524 20.108C24.4599 20.0511 24.4561 19.9933 24.4413 19.9379C24.4264 19.8824 24.4008 19.8305 24.3658 19.785C24.3308 19.7394 24.2872 19.7013 24.2375 19.6726ZM25.2763 20.3032C25.1758 20.2455 25.0566 20.2298 24.9447 20.2598C24.8328 20.2898 24.7374 20.363 24.6794 20.4632L23.9156 21.787C23.887 21.8366 23.8684 21.8915 23.8609 21.9483C23.8534 22.0051 23.8572 22.0629 23.8721 22.1183C23.8869 22.1736 23.9126 22.2255 23.9475 22.271C23.9824 22.3165 24.026 22.3546 24.0756 22.3832C24.1418 22.4218 24.2171 22.4421 24.2938 22.442C24.3705 22.442 24.446 22.4218 24.5125 22.3834C24.579 22.345 24.6342 22.2898 24.6725 22.2232L25.4363 20.9001C25.494 20.7997 25.5096 20.6805 25.4796 20.5686C25.4497 20.4567 25.3765 20.3613 25.2763 20.3032ZM14.07 14.1345H7.48625C7.37039 14.1345 7.25928 14.1805 7.17735 14.2625C7.09542 14.3444 7.04939 14.4555 7.04938 14.5714V19.4807C7.04939 19.5381 7.06071 19.5949 7.08268 19.6478C7.10464 19.7008 7.13683 19.7489 7.17741 19.7894C7.21798 19.8299 7.26614 19.862 7.31913 19.8839C7.37212 19.9058 7.42891 19.9171 7.48625 19.917H14.07C14.1273 19.917 14.1841 19.9058 14.237 19.8839C14.29 19.862 14.3381 19.8298 14.3786 19.7893C14.4191 19.7488 14.4512 19.7007 14.4731 19.6477C14.495 19.5948 14.5063 19.538 14.5063 19.4807V14.5714C14.5063 14.514 14.4951 14.4572 14.4732 14.4042C14.4513 14.3513 14.4192 14.3031 14.3787 14.2625C14.3381 14.222 14.29 14.1898 14.2371 14.1678C14.1841 14.1458 14.1273 14.1345 14.07 14.1345ZM13.6331 19.0439H7.92312V15.0082H13.6331V19.0439ZM25.2763 20.3032C25.1758 20.2455 25.0566 20.2298 24.9447 20.2598C24.8328 20.2898 24.7374 20.363 24.6794 20.4632L23.9156 21.787C23.887 21.8366 23.8684 21.8915 23.8609 21.9483C23.8534 22.0051 23.8572 22.0629 23.8721 22.1183C23.8869 22.1736 23.9126 22.2255 23.9475 22.271C23.9824 22.3165 24.026 22.3546 24.0756 22.3832C24.1418 22.4218 24.2171 22.4421 24.2938 22.442C24.3705 22.442 24.446 22.4218 24.5125 22.3834C24.579 22.345 24.6342 22.2898 24.6725 22.2232L25.4363 20.9001C25.494 20.7997 25.5096 20.6805 25.4796 20.5686C25.4497 20.4567 25.3765 20.3613 25.2763 20.3032ZM24.2375 19.6726C24.1372 19.6149 24.0181 19.5993 23.9063 19.6293C23.7945 19.6593 23.6992 19.7324 23.6413 19.8326L22.8775 21.1564C22.8489 21.206 22.8303 21.2608 22.8228 21.3177C22.8153 21.3745 22.8191 21.4323 22.834 21.4876C22.8489 21.543 22.8745 21.5949 22.9094 21.6404C22.9443 21.6858 22.9878 21.724 23.0375 21.7526C23.1037 21.7912 23.179 21.8115 23.2556 21.8114C23.3324 21.8113 23.4078 21.791 23.4743 21.7526C23.5407 21.7143 23.5959 21.6591 23.6344 21.5926L24.3975 20.2695C24.4262 20.2198 24.4449 20.1649 24.4524 20.108C24.4599 20.0511 24.4561 19.9933 24.4413 19.9379C24.4264 19.8824 24.4008 19.8305 24.3658 19.785C24.3308 19.7394 24.2872 19.7013 24.2375 19.6726ZM20.7437 20.3032C20.6434 20.2455 20.5243 20.23 20.4125 20.26C20.3008 20.29 20.2055 20.3631 20.1475 20.4632L19.3838 21.787C19.3551 21.8366 19.3365 21.8915 19.329 21.9483C19.3215 22.0051 19.3253 22.0629 19.3402 22.1183C19.3551 22.1736 19.3807 22.2255 19.4156 22.271C19.4505 22.3165 19.4941 22.3546 19.5438 22.3832C19.61 22.4218 19.6852 22.4421 19.7619 22.442C19.8387 22.442 19.9141 22.4218 19.9806 22.3834C20.0471 22.345 20.1023 22.2898 20.1406 22.2232L20.9037 20.9001C20.9325 20.8504 20.9511 20.7956 20.9586 20.7387C20.9661 20.6818 20.9623 20.6239 20.9475 20.5685C20.9326 20.5131 20.907 20.4611 20.872 20.4156C20.8371 20.3701 20.7935 20.3319 20.7437 20.3032ZM19.7056 19.6726C19.6053 19.6149 19.4862 19.5993 19.3744 19.6293C19.2626 19.6593 19.1673 19.7324 19.1094 19.8326L18.3456 21.1564C18.317 21.206 18.2984 21.2608 18.2909 21.3177C18.2835 21.3745 18.2873 21.4323 18.3021 21.4876C18.317 21.543 18.3426 21.5949 18.3775 21.6404C18.4124 21.6858 18.456 21.724 18.5056 21.7526C18.5718 21.7912 18.6471 21.8115 18.7237 21.8114C18.8005 21.8113 18.8759 21.791 18.9424 21.7526C19.0089 21.7143 19.0641 21.6591 19.1025 21.5926L19.8656 20.2695C19.8944 20.2198 19.913 20.1649 19.9205 20.108C19.928 20.0511 19.9243 19.9933 19.9094 19.9379C19.8945 19.8824 19.8689 19.8305 19.8339 19.785C19.799 19.7394 19.7554 19.7013 19.7056 19.6726ZM14.07 14.1345H7.48625C7.37039 14.1345 7.25928 14.1805 7.17735 14.2625C7.09542 14.3444 7.04939 14.4555 7.04938 14.5714V19.4807C7.04939 19.5381 7.06071 19.5949 7.08268 19.6478C7.10464 19.7008 7.13683 19.7489 7.17741 19.7894C7.21798 19.8299 7.26614 19.862 7.31913 19.8839C7.37212 19.9058 7.42891 19.9171 7.48625 19.917H14.07C14.1273 19.917 14.1841 19.9058 14.237 19.8839C14.29 19.862 14.3381 19.8298 14.3786 19.7893C14.4191 19.7488 14.4512 19.7007 14.4731 19.6477C14.495 19.5948 14.5063 19.538 14.5063 19.4807V14.5714C14.5063 14.514 14.4951 14.4572 14.4732 14.4042C14.4513 14.3513 14.4192 14.3031 14.3787 14.2625C14.3381 14.222 14.29 14.1898 14.2371 14.1678C14.1841 14.1458 14.1273 14.1345 14.07 14.1345ZM13.6331 19.0439H7.92312V15.0082H13.6331V19.0439ZM14.07 14.1345H7.48625C7.37039 14.1345 7.25928 14.1805 7.17735 14.2625C7.09542 14.3444 7.04939 14.4555 7.04938 14.5714V19.4807C7.04939 19.5381 7.06071 19.5949 7.08268 19.6478C7.10464 19.7008 7.13683 19.7489 7.17741 19.7894C7.21798 19.8299 7.26614 19.862 7.31913 19.8839C7.37212 19.9058 7.42891 19.9171 7.48625 19.917H14.07C14.1273 19.917 14.1841 19.9058 14.237 19.8839C14.29 19.862 14.3381 19.8298 14.3786 19.7893C14.4191 19.7488 14.4512 19.7007 14.4731 19.6477C14.495 19.5948 14.5063 19.538 14.5063 19.4807V14.5714C14.5063 14.514 14.4951 14.4572 14.4732 14.4042C14.4513 14.3513 14.4192 14.3031 14.3787 14.2625C14.3381 14.222 14.29 14.1898 14.2371 14.1678C14.1841 14.1458 14.1273 14.1345 14.07 14.1345ZM13.6331 19.0439H7.92312V15.0082H13.6331V19.0439Z" fill="#242222"/>
<path d="M13.5035 21.5771L13.2585 22.5103H11.0772L11.2491 21.5771H13.5035ZM10.7441 24.3178H12.7841L13.0291 23.384H10.9166L10.7441 24.3178ZM10.411 26.1246H12.3097L12.3922 25.8109C12.3941 25.8034 12.396 25.7953 12.3985 25.7871L12.5547 25.1909H10.5835L10.411 26.1246ZM7.63348 26.1246H9.52285L9.69535 25.1909H7.46098L7.63348 26.1246ZM7.30035 24.3178H9.85598L10.0279 23.384H7.12848L7.30035 24.3178ZM6.96723 22.5103H10.1891L10.361 21.5771H6.79535L6.96723 22.5103ZM5.90723 21.5771H3.65723L3.9041 22.5103H6.0791L5.90723 21.5771ZM6.24035 23.384H4.13473L4.38098 24.3178H6.41223L6.24035 23.384ZM6.57285 25.1909H4.6116L4.85848 26.1246H6.74535L6.57285 25.1909ZM6.29535 29.2609C6.1815 29.2611 6.07029 29.2951 5.97576 29.3586C5.88124 29.4221 5.80766 29.5121 5.76432 29.6174C5.72098 29.7227 5.70983 29.8384 5.73228 29.95C5.75474 30.0617 5.80978 30.1641 5.89046 30.2444C5.97114 30.3248 6.07382 30.3794 6.18553 30.4013C6.29724 30.4233 6.41295 30.4116 6.51804 30.3679C6.62313 30.3241 6.71287 30.2501 6.77591 30.1553C6.83895 30.0605 6.87247 29.9491 6.87223 29.8353C6.8721 29.7597 6.85707 29.6848 6.828 29.615C6.79893 29.5453 6.75639 29.4819 6.70282 29.4285C6.64925 29.3752 6.58568 29.3329 6.51577 29.3042C6.44585 29.2754 6.37095 29.2607 6.29535 29.2609ZM11.2404 29.2609C11.1265 29.261 11.0152 29.2949 10.9206 29.3583C10.826 29.4217 10.7523 29.5117 10.7089 29.617C10.6654 29.7222 10.6542 29.838 10.6766 29.9497C10.699 30.0613 10.754 30.1638 10.8346 30.2442C10.9153 30.3246 11.0179 30.3793 11.1297 30.4013C11.2414 30.4233 11.3571 30.4117 11.4623 30.3679C11.5674 30.3241 11.6572 30.2502 11.7202 30.1553C11.7833 30.0605 11.8168 29.9491 11.8166 29.8353C11.8161 29.6828 11.7552 29.5366 11.6472 29.429C11.5392 29.3213 11.3929 29.2609 11.2404 29.2609Z" fill="#FFB300"/>
</g>
<defs>
<clipPath id="clip0_6292_950">
<rect width="32" height="32" fill="white"/>
</clipPath>
</defs>
</svg>
