<svg width="108" height="107" viewBox="0 0 108 107" fill="none" xmlns="http://www.w3.org/2000/svg">
<g clip-path="url(#clip0_7406_12413)">
<path d="M103.81 8.30078H4.18962C2.15181 8.30078 0.5 9.9528 0.5 11.9904V71.0249H107.5V11.9904C107.5 9.9528 105.848 8.30078 103.81 8.30078ZM101.965 24.9042V65.4904H6.03453V24.9042V13.8353H101.965V24.9042Z" fill="#626975"/>
<path d="M6.03418 65.4905H101.965V24.9043H6.03418V65.4905ZM81.6721 34.1284V32.2835C81.6721 31.2647 82.4982 30.4386 83.517 30.4386H94.5861C95.6049 30.4386 96.431 31.2647 96.431 32.2835V34.1284V58.1113C96.431 59.1301 95.6049 59.9562 94.5861 59.9562H83.517C82.4982 59.9562 81.6721 59.1301 81.6721 58.1113V34.1284ZM61.3789 34.1284V32.2835C61.3789 31.2647 62.205 30.4386 63.2238 30.4386H74.2929C75.3117 30.4386 76.1378 31.2647 76.1378 32.2835V34.1284V58.1113C76.1378 59.1301 75.3117 59.9562 74.2929 59.9562H63.2238C62.205 59.9562 61.3789 59.1301 61.3789 58.1113V34.1284ZM41.0859 34.1284V32.2835C41.0859 31.2647 41.912 30.4386 42.9308 30.4386H53.9996C55.0184 30.4386 55.8446 31.2647 55.8446 32.2835V34.1284V58.1113C55.8446 59.1301 55.0184 59.9562 53.9996 59.9562H42.9306C41.9118 59.9562 41.0857 59.1301 41.0857 58.1113V34.1284H41.0859ZM11.5687 34.1284V32.2835C11.5687 31.2647 12.3948 30.4386 13.4136 30.4386H33.7066C34.7254 30.4386 35.5516 31.2647 35.5516 32.2835V34.1284V58.1113C35.5516 59.1301 34.7254 59.9562 33.7066 59.9562H13.4134C12.3946 59.9562 11.5685 59.1301 11.5685 58.1113L11.5687 34.1284Z" fill="white"/>
<path d="M0.5 78.4046C0.5 80.4422 2.15181 82.0942 4.18962 82.0942H39.2413H68.7585H103.81C105.848 82.0942 107.5 80.4422 107.5 78.4046V71.0254H0.5V78.4046ZM54 73.7926C55.5283 73.7926 56.7672 75.0316 56.7672 76.5597C56.7672 78.0878 55.5281 79.3269 54 79.3269C52.4717 79.3269 51.2328 78.0878 51.2328 76.5597C51.2328 75.0316 52.4717 73.7926 54 73.7926Z" fill="#DAE8F0"/>
<path d="M37.627 95.0093H70.3727L69.2197 85.7852H38.7799L37.627 95.0093Z" fill="#AFBBD0"/>
<path d="M37.3967 95.0078C36.3779 95.0078 35.5518 95.8339 35.5518 96.8527C35.5518 97.8715 36.3779 98.6976 37.3967 98.6976H70.6037C71.6225 98.6976 72.4486 97.8715 72.4486 96.8527C72.4486 95.8339 71.6225 95.0078 70.6037 95.0078H70.3732H37.6274H37.3967Z" fill="#BEC8DC"/>
<path d="M38.7803 85.7853H69.2201L68.7589 82.0957H39.2415L38.7803 85.7853Z" fill="#96A5B9"/>
<path d="M6.03418 24.9048H101.965V13.8359H6.03418V24.9048ZM89.0513 17.5256H96.4306C97.4494 17.5256 98.2755 18.3517 98.2755 19.3705C98.2755 20.3893 97.4494 21.2154 96.4306 21.2154H89.0513C88.0325 21.2154 87.2064 20.3893 87.2064 19.3705C87.2066 18.3517 88.0325 17.5256 89.0513 17.5256ZM74.2927 17.5256H81.6719C82.6907 17.5256 83.5168 18.3517 83.5168 19.3705C83.5168 20.3893 82.6907 21.2154 81.6719 21.2154H74.2927C73.2739 21.2154 72.4477 20.3893 72.4477 19.3705C72.448 18.3517 73.2739 17.5256 74.2927 17.5256ZM59.5342 17.5256H66.9134C67.9322 17.5256 68.7583 18.3517 68.7583 19.3705C68.7583 20.3893 67.9322 21.2154 66.9134 21.2154H59.5342C58.5154 21.2154 57.6893 20.3893 57.6893 19.3705C57.6893 18.3517 58.5154 17.5256 59.5342 17.5256ZM44.7755 17.5256H52.1547C53.1735 17.5256 53.9996 18.3517 53.9996 19.3705C53.9996 20.3893 53.1735 21.2154 52.1547 21.2154H44.7755C43.7567 21.2154 42.9306 20.3893 42.9306 19.3705C42.9306 18.3517 43.7567 17.5256 44.7755 17.5256ZM30.0168 17.5256H37.396C38.4148 17.5256 39.241 18.3517 39.241 19.3705C39.241 20.3893 38.4148 21.2154 37.396 21.2154H30.0168C28.998 21.2154 28.1719 20.3893 28.1719 19.3705C28.1721 18.3517 28.998 17.5256 30.0168 17.5256ZM11.5687 17.5256H22.6378C23.6566 17.5256 24.4827 18.3517 24.4827 19.3705C24.4827 20.3893 23.6566 21.2154 22.6378 21.2154H11.5687C10.5499 21.2154 9.7238 20.3893 9.7238 19.3705C9.7238 18.3517 10.5497 17.5256 11.5687 17.5256Z" fill="#F69A8B"/>
<path d="M11.5695 21.2152H22.6386C23.6574 21.2152 24.4835 20.3891 24.4835 19.3703C24.4835 18.3515 23.6574 17.5254 22.6386 17.5254H11.5695C10.5507 17.5254 9.72461 18.3515 9.72461 19.3703C9.72461 20.3893 10.5505 21.2152 11.5695 21.2152Z" fill="#FFDC69"/>
<path d="M30.0168 21.2152H37.396C38.4148 21.2152 39.2409 20.3891 39.2409 19.3703C39.2409 18.3515 38.4148 17.5254 37.396 17.5254H30.0168C28.998 17.5254 28.1719 18.3515 28.1719 19.3703C28.1721 20.3893 28.998 21.2152 30.0168 21.2152Z" fill="#F37B68"/>
<path d="M44.7756 21.2152H52.1548C53.1736 21.2152 53.9997 20.3891 53.9997 19.3703C53.9997 18.3515 53.1736 17.5254 52.1548 17.5254H44.7756C43.7568 17.5254 42.9307 18.3515 42.9307 19.3703C42.9307 20.3893 43.7568 21.2152 44.7756 21.2152Z" fill="#F37B68"/>
<path d="M59.5344 21.2152H66.9136C67.9324 21.2152 68.7585 20.3891 68.7585 19.3703C68.7585 18.3515 67.9324 17.5254 66.9136 17.5254H59.5344C58.5156 17.5254 57.6895 18.3515 57.6895 19.3703C57.6895 20.3893 58.5156 21.2152 59.5344 21.2152Z" fill="#F37B68"/>
<path d="M74.2922 21.2152H81.6714C82.6902 21.2152 83.5163 20.3891 83.5163 19.3703C83.5163 18.3515 82.6902 17.5254 81.6714 17.5254H74.2922C73.2734 17.5254 72.4473 18.3515 72.4473 19.3703C72.4475 20.3893 73.2734 21.2152 74.2922 21.2152Z" fill="#F37B68"/>
<path d="M89.051 21.2152H96.4302C97.449 21.2152 98.2751 20.3891 98.2751 19.3703C98.2751 18.3515 97.449 17.5254 96.4302 17.5254H89.051C88.0322 17.5254 87.2061 18.3515 87.2061 19.3703C87.2063 20.3893 88.0322 21.2152 89.051 21.2152Z" fill="#F37B68"/>
<path d="M13.4142 59.9567H33.7073C34.7261 59.9567 35.5522 59.1305 35.5522 58.1117V34.1289C35.5522 35.1477 34.7261 35.9738 33.7073 35.9738H13.4142C12.3955 35.9738 11.5693 35.1477 11.5693 34.1289V58.1117C11.5695 59.1305 12.3955 59.9567 13.4142 59.9567Z" fill="#DAE8F0"/>
<path d="M42.9318 59.9567H54.0009C55.0197 59.9567 55.8458 59.1305 55.8458 58.1117V34.1289C55.8458 35.1477 55.0197 35.9738 54.0009 35.9738H42.9318C41.913 35.9738 41.0869 35.1477 41.0869 34.1289V58.1117C41.0871 59.1305 41.913 59.9567 42.9318 59.9567Z" fill="#DAE8F0"/>
<path d="M63.2248 59.9567H74.2939C75.3127 59.9567 76.1388 59.1305 76.1388 58.1117V34.1289C76.1388 35.1477 75.3127 35.9738 74.2939 35.9738H63.2248C62.206 35.9738 61.3799 35.1477 61.3799 34.1289V58.1117C61.3799 59.1305 62.206 59.9567 63.2248 59.9567Z" fill="#DAE8F0"/>
<path d="M83.5178 59.9567H94.5868C95.6056 59.9567 96.4317 59.1305 96.4317 58.1117V34.1289C96.4317 35.1477 95.6056 35.9738 94.5868 35.9738H83.5178C82.499 35.9738 81.6729 35.1477 81.6729 34.1289V58.1117C81.6731 59.1305 82.499 59.9567 83.5178 59.9567Z" fill="#DAE8F0"/>
<path d="M13.4142 35.9742H33.7073C34.7261 35.9742 35.5522 35.1481 35.5522 34.1293V32.2844C35.5522 31.2656 34.7261 30.4395 33.7073 30.4395H13.4142C12.3955 30.4395 11.5693 31.2656 11.5693 32.2844V34.1293C11.5695 35.1481 12.3955 35.9742 13.4142 35.9742Z" fill="#FFDC69"/>
<path d="M42.9309 35.9742H53.9999C55.0187 35.9742 55.8448 35.1481 55.8448 34.1293V32.2844C55.8448 31.2656 55.0187 30.4395 53.9999 30.4395H42.9309C41.9121 30.4395 41.0859 31.2656 41.0859 32.2844V34.1293C41.0861 35.1481 41.9121 35.9742 42.9309 35.9742Z" fill="#B4E173"/>
<path d="M63.2238 35.9742H74.2929C75.3117 35.9742 76.1378 35.1481 76.1378 34.1293V32.2844C76.1378 31.2656 75.3117 30.4395 74.2929 30.4395H63.2238C62.205 30.4395 61.3789 31.2656 61.3789 32.2844V34.1293C61.3789 35.1481 62.205 35.9742 63.2238 35.9742Z" fill="#FF969B"/>
<path d="M83.5168 35.9742H94.5859C95.6047 35.9742 96.4308 35.1481 96.4308 34.1293V32.2844C96.4308 31.2656 95.6047 30.4395 94.5859 30.4395H83.5168C82.498 30.4395 81.6719 31.2656 81.6719 32.2844V34.1293C81.6721 35.1481 82.498 35.9742 83.5168 35.9742Z" fill="#A0DCF0"/>
<path d="M53.9996 79.3273C55.5278 79.3273 56.7667 78.0884 56.7667 76.5601C56.7667 75.0319 55.5278 73.793 53.9996 73.793C52.4713 73.793 51.2324 75.0319 51.2324 76.5601C51.2324 78.0884 52.4713 79.3273 53.9996 79.3273Z" fill="#96A5B9"/>
</g>
<defs>
<clipPath id="clip0_7406_12413">
<rect width="107" height="107" fill="white" transform="translate(0.5)"/>
</clipPath>
</defs>
</svg>
