<svg width="32" height="32" viewBox="0 0 32 32" fill="none" xmlns="http://www.w3.org/2000/svg">
<g clip-path="url(#clip0_6292_174)">
<path d="M7.75564 11.0324L9.63064 14.2801C9.88951 14.7284 10.4629 14.8821 10.9113 14.6232L11.6833 14.1774C12.1514 14.5324 12.6543 14.8249 13.1877 15.0524V15.9375C13.1877 16.4552 13.6075 16.875 14.1252 16.875H17.8752C18.393 16.875 18.8127 16.4552 18.8127 15.9375V15.0524C19.3461 14.8249 19.849 14.5324 20.3171 14.1774L21.0891 14.6232C21.5374 14.8821 22.1108 14.7284 22.3697 14.2801L24.2447 11.0324C24.5036 10.5841 24.35 10.0107 23.9016 9.75181L23.1328 9.30794C23.1693 9.016 23.1877 8.725 23.1877 8.4375C23.1877 8.15 23.1693 7.859 23.1329 7.56706L23.9016 7.12319C24.35 6.86431 24.5036 6.29094 24.2448 5.84256L22.3698 2.59494C22.1109 2.14656 21.5375 1.99287 21.0891 2.25181L20.3171 2.6975C19.8491 2.34262 19.3461 2.05006 18.8127 1.8225V0.9375C18.8127 0.41975 18.393 0 17.8752 0H14.1252C13.6075 0 13.1877 0.41975 13.1877 0.9375V1.8225C12.6543 2.05006 12.1513 2.34262 11.6833 2.6975L10.9113 2.25175C10.463 1.99287 9.88958 2.1465 9.6307 2.59488L7.7557 5.8425C7.49682 6.29088 7.65045 6.86425 8.09883 7.12313L8.86758 7.567C8.83108 7.859 8.8127 8.15 8.8127 8.4375C8.8127 8.725 8.83108 9.016 8.86751 9.30794L8.09876 9.75181C7.65039 10.0107 7.49676 10.5841 7.75564 11.0324ZM16.0002 5.625C17.551 5.625 18.8127 6.88669 18.8127 8.4375C18.8127 9.98831 17.551 11.25 16.0002 11.25C14.4494 11.25 13.1877 9.98831 13.1877 8.4375C13.1877 6.88669 14.4494 5.625 16.0002 5.625Z" fill="#242222"/>
<path d="M0.58075 15.6509L15.5808 23.1509C15.8446 23.2829 16.1554 23.2829 16.4193 23.1509L31.4193 15.6509C31.7369 15.4921 31.9375 15.1675 31.9375 14.8124C31.9375 14.4573 31.7369 14.1326 31.4193 13.9739L26.1375 11.333C26.0756 11.5509 25.9867 11.7648 25.8684 11.9697L23.9934 15.2174C23.4926 16.0848 22.5589 16.6238 21.5568 16.6238C21.5567 16.6238 21.5568 16.6238 21.5567 16.6238C21.2431 16.6238 20.9321 16.5709 20.6372 16.4688C20.388 17.7664 19.2442 18.7499 17.875 18.7499H14.125C12.7558 18.7499 11.612 17.7664 11.3629 16.4688C11.0679 16.5709 10.7569 16.6238 10.4432 16.6238C9.44106 16.6238 8.50737 16.0849 8.00656 15.2173L6.13163 11.9699C6.01438 11.7669 5.92406 11.5534 5.86112 11.3338L0.58075 13.9739C0.263125 14.1326 0.0625 14.4573 0.0625 14.8124C0.0625 15.1675 0.263125 15.4921 0.58075 15.6509Z" fill="#FFB300"/>
<path d="M1 19L16 26.5L31 19" stroke="#242222" stroke-width="1.5" stroke-linecap="round"/>
<path d="M1 24L16 31.5L31 24" stroke="#242222" stroke-width="1.5" stroke-linecap="round"/>
</g>
<defs>
<clipPath id="clip0_6292_174">
<rect width="32" height="32" fill="white"/>
</clipPath>
</defs>
</svg>
