<svg width="151" height="151" viewBox="0 0 151 151" fill="none" xmlns="http://www.w3.org/2000/svg">
<path d="M93.7785 23.0977L127.899 57.2197L121.806 63.3127L87.6855 29.1907L93.7785 23.0977Z" fill="#DAE8F0"/>
<path d="M121.807 65.704L85.2969 29.1925L93.7809 20.71L130.292 57.2215L121.807 65.704ZM90.0774 29.1925L121.807 60.9235L125.509 57.2215L93.7794 25.4905L90.0774 29.1925Z" fill="#626975"/>
<path d="M29.1946 87.6846L63.3121 121.805L57.2191 127.898L23.0986 93.7761L29.1946 87.6846Z" fill="#DAE8F0"/>
<path d="M57.2215 130.29L20.71 93.7789L29.194 85.2949L65.7055 121.806L57.2215 130.29ZM25.4905 93.7789L57.2215 125.51L60.9235 121.808L29.1925 90.0769L25.4905 93.7789Z" fill="#626975"/>
<path d="M108.402 74.2801L120.588 62.0941L88.9036 30.4111L76.7176 42.5986C69.2296 50.0866 68.1721 63.9856 73.5031 72.6226L72.6211 73.5046C63.9856 68.1736 50.0866 69.2296 42.5971 76.7191L30.4111 88.9051L62.0956 120.59L74.2816 108.404C81.7696 100.916 82.8271 87.0151 77.4961 78.3796L78.3781 77.4976C87.0136 82.8271 100.913 81.7696 108.402 74.2801Z" fill="white"/>
<path d="M62.096 122.978L28.0205 88.904L41.4005 75.5225C48.4325 68.4935 61.0715 66.5135 70.526 70.5275C66.5105 61.07 68.4905 48.4325 75.521 41.4005L88.9025 28.0205L122.977 62.0945L109.597 75.476C102.565 82.508 89.927 84.488 80.471 80.471C84.4865 89.9285 82.5065 102.566 75.476 109.597L62.096 122.978ZM32.8025 88.904L62.096 118.198L73.088 107.207C79.7465 100.547 81.1355 87.4895 76.058 79.265L75.356 78.1265L78.128 75.3545L79.2665 76.058C87.4895 81.1355 100.547 79.748 107.209 73.0865L118.198 62.0945L88.904 32.8025L77.912 43.793C71.2535 50.453 69.8645 63.5105 74.942 71.7335L75.644 72.872L72.872 75.644L71.7335 74.942C63.512 69.866 50.4545 71.2535 43.7915 77.9135L32.8025 88.904Z" fill="#626975"/>
<path d="M81.5926 69.4072C75.5356 63.3502 75.5356 53.5297 81.5926 47.4727C84.5386 59.1517 91.8495 66.4627 103.529 69.4072C97.47 75.4642 87.6496 75.4642 81.5926 69.4072Z" fill="#F69A8B"/>
<path d="M92.5607 75.6319C90.3019 75.6359 88.0646 75.1937 85.9772 74.3305C83.8899 73.4674 81.9935 72.2005 80.3972 70.6024C73.6892 63.8944 73.6892 52.9834 80.3972 46.2769L82.5032 44.1709L83.2307 47.0584C86.0372 58.1884 92.8112 64.9624 103.941 67.7689L106.829 68.4979L104.723 70.6039C103.127 72.2016 101.23 73.4683 99.1433 74.3312C97.0562 75.194 94.8192 75.6361 92.5607 75.6319ZM80.8862 51.0394C77.4992 56.3809 78.1322 63.5569 82.7882 68.2114C87.4442 72.8659 94.6217 73.4989 99.9602 70.1134C90.5147 66.8839 84.1157 60.4849 80.8862 51.0394Z" fill="#626975"/>
<path d="M68.1877 82.8111C68.1877 82.8111 74.2447 98.6886 68.1877 104.746L62.0947 110.839L40.1602 88.9041L46.2532 82.8111C52.3102 76.7541 68.1877 82.8111 68.1877 82.8111Z" fill="#F69A8B"/>
<path d="M62.096 113.229L37.7705 88.9038L45.059 81.6168C51.8135 74.8608 68.1005 80.9688 68.7905 81.2328L69.4985 81.5013L69.767 82.2093C70.0295 82.8993 76.1375 99.1878 69.383 105.941L62.096 113.229ZM42.551 88.9038L62.0945 108.449L66.992 103.551C71.0975 99.4473 68.495 88.7599 66.8705 84.1309C62.2385 82.5079 51.5435 79.9114 47.4485 84.0064L42.551 88.9038Z" fill="#626975"/>
<path d="M58.2917 99.6891L60.6917 97.2876L63.0752 99.6891L60.6917 102.071L58.2917 99.6891ZM53.5082 94.9056L55.9082 92.5056L58.2917 94.9056L55.9082 97.2876L53.5082 94.9056ZM48.7412 90.1206L51.1232 87.7371L53.5247 90.1206L51.1232 92.5041L48.7412 90.1206ZM60.8267 92.4711L63.2117 90.0696L65.6117 92.4711L63.2117 94.8546L60.8267 92.4711ZM56.0432 87.6876L58.4432 85.2861L60.8267 87.6876L58.4432 90.0696L56.0432 87.6876Z" fill="#626975"/>
<path d="M41.6933 24.7891L45.2798 31.3456L51.8363 34.9321L45.2798 38.5171L41.6933 45.0736L38.1083 38.5171L31.5518 34.9321L38.1083 31.3456L41.6933 24.7891Z" fill="#F69A8B"/>
<path d="M41.6933 48.5976L36.8633 39.7641L28.0283 34.9326L36.8633 30.1026L41.6933 21.2676L46.5248 30.1026L55.3583 34.9326L46.5248 39.7641L41.6933 48.5976ZM35.0753 34.9326L39.3533 37.2726L41.6933 41.5521L44.0333 37.2726L48.3128 34.9326L44.0333 32.5926L41.6933 28.3146L39.3533 32.5926L35.0753 34.9326Z" fill="#626975"/>
<path d="M55.2156 46.7646L57.6066 51.1356L61.9776 53.5251L57.6066 55.9161L55.2156 60.2872L52.8261 55.9161L48.4551 53.5251L52.8261 51.1356L55.2156 46.7646Z" fill="#9BF2FF"/>
<path d="M55.2156 63.8107L51.5796 57.1627L44.9316 53.5267L51.5796 49.8907L55.2156 43.2412L58.8516 49.8907L65.5011 53.5267L58.8516 57.1627L55.2156 63.8107ZM51.9786 53.5252L54.0711 54.6697L55.2156 56.7637L56.3601 54.6697L58.4526 53.5252L56.3601 52.3807L55.2156 50.2882L54.0711 52.3807L51.9786 53.5252Z" fill="#626975"/>
<path d="M116.067 80.5713L118.458 84.9408L122.829 87.3318L118.458 89.7228L116.067 94.0938L113.678 89.7228L109.307 87.3318L113.678 84.9408L116.067 80.5713Z" fill="#F96178"/>
<path d="M116.067 97.6174L112.431 90.9678L105.783 87.3333L112.431 83.6973L116.067 77.0479L119.703 83.6973L126.353 87.3333L119.703 90.9678L116.067 97.6174ZM112.83 87.3319L114.923 88.4764L116.067 90.5689L117.212 88.4764L119.304 87.3319L117.212 86.1873L116.067 84.0948L114.923 86.1873L112.83 87.3319Z" fill="#626975"/>
<path d="M97.4734 100.854L99.8644 105.225L104.235 107.616L99.8644 110.007L97.4734 114.378L95.0839 110.007L90.7129 107.616L95.0839 105.225L97.4734 100.854Z" fill="#047573"/>
<path d="M97.4737 117.902L93.8392 111.252L87.1897 107.616L93.8392 103.98L97.4737 97.3324L101.11 103.98L107.759 107.616L101.11 111.252L97.4737 117.902ZM94.2367 107.616L96.3292 108.761L97.4737 110.853L98.6182 108.761L100.711 107.616L98.6182 106.472L97.4737 104.379L96.3292 106.472L94.2367 107.616ZM33.2422 53.5249V50.1439H36.6232V53.5249H33.2422ZM41.6932 63.6679V60.2869H45.0742V63.6679H41.6932ZM60.2872 43.3834V40.0039H63.6682V43.3834H60.2872ZM89.0227 94.0939V90.7129H92.4037V94.0939H89.0227ZM116.068 110.997V107.616H119.449V110.997H116.068Z" fill="#626975"/>
</svg>
