<svg width="80" height="80" viewBox="0 0 80 80" fill="none" xmlns="http://www.w3.org/2000/svg">
<circle opacity="0.8" cx="40" cy="40" r="40" fill="#FFE9E9"/>
<path d="M57.1431 38.4329V40.0101C57.141 43.7068 55.944 47.3038 53.7306 50.2646C51.5171 53.2255 48.4059 55.3915 44.8609 56.4396C41.3159 57.4878 37.527 57.3619 34.0594 56.0808C30.5917 54.7997 27.6311 52.432 25.6191 49.3308C23.607 46.2296 22.6513 42.5611 22.8946 38.8723C23.1378 35.1836 24.5669 31.6724 26.9688 28.8622C29.3706 26.0521 32.6165 24.0936 36.2223 23.2789C39.8282 22.4642 43.6007 22.837 46.9774 24.3415M57.1431 26.2958L40.0003 43.4558L34.8574 38.313" stroke="#27AE60" stroke-width="2" stroke-linecap="round" stroke-linejoin="round"/>
</svg>
