<svg width="32" height="32" viewBox="0 0 32 32" fill="none" xmlns="http://www.w3.org/2000/svg">
<path fill-rule="evenodd" clip-rule="evenodd" d="M6.25 14V23.5C6.25 23.638 6.138 23.75 6 23.75H4.5C4.362 23.75 4.25 23.638 4.25 23.5V14C4.25 13.862 4.362 13.75 4.5 13.75H6C6.138 13.75 6.25 13.862 6.25 14Z" fill="#FFEEC5"/>
<path d="M23 30.25C27.0041 30.25 30.25 27.0041 30.25 23C30.25 18.9959 27.0041 15.75 23 15.75C18.9959 15.75 15.75 18.9959 15.75 23C15.75 27.0041 18.9959 30.25 23 30.25Z" fill="#FFEEC5"/>
<path fill-rule="evenodd" clip-rule="evenodd" d="M8.699 18.1259C5.824 17.1631 3.75 14.4466 3.75 11.2494C3.75 9.23289 4.575 7.40739 5.90575 6.09264C5.97025 6.02914 6.064 6.00514 6.151 6.03039C6.238 6.05564 6.3045 6.12589 6.325 6.21389L9.022 17.8324C9.0425 17.9206 9.0135 18.0129 8.9465 18.0739C8.8795 18.1349 8.78475 18.1546 8.699 18.1259Z" fill="#FFEEC5"/>
<path fill-rule="evenodd" clip-rule="evenodd" d="M14.7228 21.059C14.4213 21.3317 14.0823 21.5232 13.7103 21.623C12.6798 21.8992 11.5175 21.438 10.4078 20.3867C8.83227 18.894 7.34102 16.2052 6.47027 12.9552C5.59952 9.70524 5.54652 6.63099 6.16452 4.55049C6.60002 3.08524 7.37602 2.10474 8.40652 1.82849C9.43702 1.55249 10.5993 2.01374 11.709 3.06499C13.2845 4.55749 14.7758 7.24649 15.6465 10.4965C16.3903 13.2715 16.5375 15.9185 16.1798 17.9282C15.4953 18.8467 14.992 19.908 14.7228 21.059Z" fill="#FFB300"/>
<path fill-rule="evenodd" clip-rule="evenodd" d="M9.40558 3.62478C9.78258 3.52378 10.3088 3.73803 10.8681 4.28478C11.9951 5.38703 13.3826 7.84228 14.1971 10.882C15.0116 13.9215 15.0376 16.7418 14.6126 18.2598C14.4016 19.013 14.0531 19.4615 13.6761 19.5625C13.2988 19.6635 12.7726 19.449 12.2131 18.9018C11.0858 17.7985 9.69808 15.3415 8.88358 12.302C8.06908 9.26228 8.04333 6.44378 8.46883 4.92678C8.67983 4.17403 9.02833 3.72578 9.40558 3.62478Z" fill="#FFEEC5"/>
<path fill-rule="evenodd" clip-rule="evenodd" d="M8.75 23.5V26C8.75 26.138 8.638 26.25 8.5 26.25H2C1.862 26.25 1.75 26.138 1.75 26V23.5C1.75 23.362 1.862 23.25 2 23.25H8.5C8.638 23.25 8.75 23.362 8.75 23.5Z" fill="#FFEEC5"/>
<path fill-rule="evenodd" clip-rule="evenodd" d="M27.75 20.25V26.25C27.75 26.388 27.638 26.5 27.5 26.5H18.5C18.362 26.5 18.25 26.388 18.25 26.25V20.25C18.25 20.112 18.362 20 18.5 20H27.5C27.638 20 27.75 20.112 27.75 20.25Z" fill="#FFB300"/>
<path fill-rule="evenodd" clip-rule="evenodd" d="M20.5 21.5H24C24.4142 21.5 24.75 21.8358 24.75 22.25V24.25C24.75 24.6642 24.4142 25 24 25H20.5C20.0858 25 19.75 24.6642 19.75 24.25V22.25C19.75 21.8358 20.0858 21.5 20.5 21.5Z" fill="#FFEEC5"/>
<path fill-rule="evenodd" clip-rule="evenodd" d="M18.5746 7.90079C19.5076 7.65079 20.4681 8.20529 20.7181 9.13829C20.9681 10.071 20.4136 11.0315 19.4806 11.2815C18.5476 11.5315 17.5873 10.977 17.3373 10.044C17.0873 9.11104 17.6418 8.15079 18.5746 7.90079Z" fill="#FFB300"/>
<path fill-rule="evenodd" clip-rule="evenodd" d="M14.642 21.4456C14.375 21.6406 14.085 21.7818 13.775 21.8648C12.6737 22.1601 11.422 21.6921 10.236 20.5686C9.617 19.9823 9.01025 19.2148 8.44725 18.3031C7.74325 18.0481 7.088 17.6903 6.5 17.2483V22.9996H8.5C8.77625 22.9996 9 23.2233 9 23.4996V25.9996C9 26.2758 8.77625 26.4996 8.5 26.4996H2C1.72375 26.4996 1.5 26.2758 1.5 25.9996V23.4996C1.5 23.2233 1.72375 22.9996 2 22.9996H4V13.9458C3.677 13.1088 3.5 12.1998 3.5 11.2496C3.5 9.22659 4.30275 7.38933 5.60675 6.03983C5.67775 5.47558 5.7845 4.95233 5.925 4.47958C6.39025 2.91358 7.24025 1.88258 8.34175 1.58733C9.44325 1.29233 10.6947 1.76008 11.8807 2.88383C12.5912 3.55683 13.2863 4.46884 13.9167 5.56359L18.2385 7.75258C18.4805 7.64858 18.7472 7.59084 19.0273 7.59084C20.131 7.59084 21.0273 8.48709 21.0273 9.59084C21.0273 10.6148 20.256 11.4601 19.2635 11.5771L16.615 15.6338C16.6157 16.3056 16.5747 16.9416 16.4945 17.5311C15.5672 18.6326 14.9145 19.9728 14.642 21.4456ZM17.3892 8.44359L14.6925 7.07759C15.0955 7.96209 15.455 8.92708 15.754 9.95259L17.0275 9.61259C17.0273 9.60534 17.0273 9.59809 17.0273 9.59084C17.0273 9.16409 17.1613 8.76834 17.3892 8.44359ZM5 15.7481V22.9996H5.5V16.3463C5.32325 16.1558 5.15625 15.9561 5 15.7481ZM18.1822 11.4038C17.8055 11.2278 17.4925 10.9376 17.2878 10.5781L16.0128 10.9186C16.266 11.9546 16.4368 12.9688 16.5298 13.9348L18.1822 11.4038ZM15.1305 16.0783L15.6155 15.3356C15.589 14.0523 15.4028 12.6381 15.0465 11.1766L14.563 11.3056C14.9878 13.0566 15.1547 14.7158 15.1305 16.0783ZM5.50175 7.78309C4.86725 8.78659 4.5 9.97558 4.5 11.2496C4.5 13.6026 5.753 15.6651 7.62725 16.8061C7.0775 15.6748 6.59775 14.3973 6.22875 13.0203C5.733 11.1698 5.50025 9.37534 5.50175 7.78309ZM19.0273 8.59084C18.4753 8.59084 18.0273 9.03909 18.0273 9.59084C18.0273 10.1428 18.4753 10.5908 19.0273 10.5908C19.5793 10.5908 20.0273 10.1428 20.0273 9.59084C20.0273 9.03909 19.5793 8.59084 19.0273 8.59084ZM9.744 12.5926C10.5248 15.2458 11.731 17.3803 12.7375 18.3651C12.9303 18.5541 13.1112 18.6966 13.279 18.7798C13.3022 18.7913 13.3245 18.8026 13.3457 18.8123L13.9248 17.9253C14.2675 16.5468 14.2268 14.1668 13.5968 11.5638L9.744 12.5926ZM12.1243 4.65583C11.8212 4.26008 11.5092 3.90933 11.193 3.60983C10.3123 2.77508 9.41875 2.33409 8.6005 2.55334C7.7825 2.77259 7.22925 3.60108 6.8835 4.76458C6.29525 6.74408 6.366 9.66884 7.19475 12.7613C8.02325 15.8541 9.4245 18.4223 10.9237 19.8426C11.8047 20.6771 12.6982 21.1181 13.5162 20.8988C14.3342 20.6798 14.8877 19.8511 15.2332 18.6878C15.3572 18.2703 15.452 17.8106 15.5165 17.3163L14.85 18.3373C14.6063 19.1988 14.173 19.6876 13.7402 19.8036C13.3057 19.9201 12.6827 19.7108 12.038 19.0798C10.8905 17.9571 9.47075 15.4598 8.64175 12.3661C7.81275 9.27209 7.79475 6.40283 8.22775 4.85883C8.471 3.99133 8.906 3.49934 9.3405 3.38284C9.775 3.26634 10.398 3.47533 11.0425 4.10558L11.0472 4.11034L12.1243 4.65583ZM8 23.9996H2.5V25.4996H8V23.9996ZM9.491 4.44308C9.4785 4.46083 9.46575 4.48009 9.4525 4.50009C9.34875 4.65584 9.26325 4.86933 9.1905 5.12883C8.8105 6.48433 8.83275 8.93608 9.485 11.6268L13.338 10.5978C12.585 8.03509 11.435 5.95683 10.4508 4.92909L9.491 4.44308ZM14.7878 10.2106C14.3655 8.76584 13.8193 7.44708 13.2 6.32184L12.4122 5.92284C13.1137 7.09134 13.7977 8.61159 14.3045 10.3398L14.7878 10.2106ZM21.374 8.06384C21.3025 7.79734 21.461 7.52309 21.7275 7.45159C21.9943 7.38009 22.2685 7.53859 22.34 7.80509L22.7283 9.25409C22.7995 9.52059 22.6413 9.79484 22.3748 9.86633C22.108 9.93783 21.8338 9.77934 21.7623 9.51284L21.374 8.06384ZM22.6935 7.19284C22.622 6.92609 22.7805 6.65183 23.047 6.58034C23.3135 6.50884 23.588 6.66734 23.6595 6.93384L24.3065 9.34883C24.378 9.61534 24.2195 9.88959 23.953 9.96109C23.6865 10.0326 23.412 9.87408 23.3405 9.60758L22.6935 7.19284ZM23.9482 6.08009C23.8767 5.81359 24.0352 5.53908 24.3018 5.46758C24.5685 5.39633 24.8427 5.55459 24.9142 5.82134L25.9495 9.68484C26.021 9.95159 25.8625 10.2258 25.596 10.2973C25.3295 10.3688 25.055 10.2103 24.9835 9.94384L23.9482 6.08009ZM23 15.4996C27.1392 15.4996 30.5 18.8603 30.5 22.9996C30.5 27.1388 27.1392 30.4996 23 30.4996C18.8608 30.4996 15.5 27.1388 15.5 22.9996C15.5 18.8603 18.8608 15.4996 23 15.4996ZM23 16.4996C19.4125 16.4996 16.5 19.4121 16.5 22.9996C16.5 26.5871 19.4125 29.4996 23 29.4996C26.5875 29.4996 29.5 26.5871 29.5 22.9996C29.5 19.4121 26.5875 16.4996 23 16.4996ZM19.25 26.7496H18.5C18.2237 26.7496 18 26.5258 18 26.2496V20.2496C18 19.9733 18.2237 19.7496 18.5 19.7496H21.9325L21.366 19.0696C21.1892 18.8576 21.218 18.5421 21.43 18.3656C21.642 18.1888 21.9575 18.2176 22.134 18.4296L22.9655 19.4271L24.3405 17.4628C24.4988 17.2368 24.8108 17.1818 25.0368 17.3401C25.2628 17.4983 25.3178 17.8103 25.1595 18.0363L23.9603 19.7496H27.5C27.7763 19.7496 28 19.9733 28 20.2496V26.2496C28 26.5258 27.7763 26.7496 27.5 26.7496H26.75V27.2496C26.75 27.5256 26.526 27.7496 26.25 27.7496C25.974 27.7496 25.75 27.5256 25.75 27.2496V26.7496H20.25V27.2496C20.25 27.5256 20.026 27.7496 19.75 27.7496C19.474 27.7496 19.25 27.5256 19.25 27.2496V26.7496ZM27 20.7496H19V25.7496H27V20.7496ZM26 21.4996C26.276 21.4996 26.5 21.7236 26.5 21.9996C26.5 22.2756 26.276 22.4996 26 22.4996C25.724 22.4996 25.5 22.2756 25.5 21.9996C25.5 21.7236 25.724 21.4996 26 21.4996ZM24 21.2496C24.5522 21.2496 25 21.6973 25 22.2496V24.2496C25 24.8018 24.5522 25.2496 24 25.2496H20.5C19.9478 25.2496 19.5 24.8018 19.5 24.2496V22.2496C19.5 21.6973 19.9478 21.2496 20.5 21.2496H24ZM20.5 22.2496V24.2496H24V22.2496H20.5ZM26 22.9996C26.276 22.9996 26.5 23.2236 26.5 23.4996C26.5 23.7756 26.276 23.9996 26 23.9996C25.724 23.9996 25.5 23.7756 25.5 23.4996C25.5 23.2236 25.724 22.9996 26 22.9996Z" fill="#242222"/>
</svg>
