<svg width="1600" height="99" viewBox="0 0 1600 99" fill="none" xmlns="http://www.w3.org/2000/svg">
<g clip-path="url(#clip0_135_625)">
<rect width="3677" height="99" transform="translate(-1038)" fill="url(#paint0_linear_135_625)"/>
<path d="M55.7735 49L50 43.2265L44.2265 49L50 54.7735L55.7735 49ZM-6 49V50H50V49V48H-6V49Z" fill="white"/>
<path d="M76.49 59.5V38.5H86.03C88.31 38.5 90.32 38.94 92.06 39.82C93.8 40.68 95.16 41.89 96.14 43.45C97.12 45.01 97.61 46.86 97.61 49C97.61 51.12 97.12 52.97 96.14 54.55C95.16 56.11 93.8 57.33 92.06 58.21C90.32 59.07 88.31 59.5 86.03 59.5H76.49ZM81.35 55.51H85.79C87.19 55.51 88.4 55.25 89.42 54.73C90.46 54.19 91.26 53.43 91.82 52.45C92.4 51.47 92.69 50.32 92.69 49C92.69 47.66 92.4 46.51 91.82 45.55C91.26 44.57 90.46 43.82 89.42 43.3C88.4 42.76 87.19 42.49 85.79 42.49H81.35V55.51ZM110.745 46.96H120.855V50.74H110.745V46.96ZM111.105 55.6H122.535V59.5H106.275V38.5H122.145V42.4H111.105V55.6ZM137.409 59.5L128.349 38.5H133.599L141.519 57.1H138.429L146.469 38.5H151.299L142.209 59.5H137.409ZM162.523 46.96H172.633V50.74H162.523V46.96ZM162.883 55.6H174.312V59.5H158.053V38.5H173.923V42.4H162.883V55.6ZM183.179 59.5V38.5H188.039V55.54H198.569V59.5H183.179ZM216.133 59.86C214.473 59.86 212.933 59.59 211.513 59.05C210.113 58.51 208.893 57.75 207.853 56.77C206.833 55.79 206.033 54.64 205.453 53.32C204.893 52 204.613 50.56 204.613 49C204.613 47.44 204.893 46 205.453 44.68C206.033 43.36 206.843 42.21 207.883 41.23C208.923 40.25 210.143 39.49 211.543 38.95C212.943 38.41 214.463 38.14 216.103 38.14C217.763 38.14 219.283 38.41 220.663 38.95C222.063 39.49 223.273 40.25 224.293 41.23C225.333 42.21 226.143 43.36 226.723 44.68C227.303 45.98 227.593 47.42 227.593 49C227.593 50.56 227.303 52.01 226.723 53.35C226.143 54.67 225.333 55.82 224.293 56.8C223.273 57.76 222.063 58.51 220.663 59.05C219.283 59.59 217.773 59.86 216.133 59.86ZM216.103 55.72C217.043 55.72 217.903 55.56 218.683 55.24C219.483 54.92 220.183 54.46 220.783 53.86C221.383 53.26 221.843 52.55 222.163 51.73C222.503 50.91 222.673 50 222.673 49C222.673 48 222.503 47.09 222.163 46.27C221.843 45.45 221.383 44.74 220.783 44.14C220.203 43.54 219.513 43.08 218.713 42.76C217.913 42.44 217.043 42.28 216.103 42.28C215.163 42.28 214.293 42.44 213.493 42.76C212.713 43.08 212.023 43.54 211.423 44.14C210.823 44.74 210.353 45.45 210.013 46.27C209.693 47.09 209.533 48 209.533 49C209.533 49.98 209.693 50.89 210.013 51.73C210.353 52.55 210.813 53.26 211.393 53.86C211.993 54.46 212.693 54.92 213.493 55.24C214.293 55.56 215.163 55.72 216.103 55.72ZM236.246 59.5V38.5H245.336C247.216 38.5 248.836 38.81 250.196 39.43C251.556 40.03 252.606 40.9 253.346 42.04C254.086 43.18 254.456 44.54 254.456 46.12C254.456 47.68 254.086 49.03 253.346 50.17C252.606 51.31 251.556 52.19 250.196 52.81C248.836 53.41 247.216 53.71 245.336 53.71H238.946L241.106 51.52V59.5H236.246ZM241.106 52.06L238.946 49.75H245.066C246.566 49.75 247.686 49.43 248.426 48.79C249.166 48.15 249.536 47.26 249.536 46.12C249.536 44.96 249.166 44.06 248.426 43.42C247.686 42.78 246.566 42.46 245.066 42.46H238.946L241.106 40.15V52.06Z" fill="white"/>
<path d="M333.774 49L328 43.2265L322.226 49L328 54.7735L333.774 49ZM272 49V50H328V49V48H272V49Z" fill="white"/>
<path d="M354.49 59.5V38.5H364.03C366.31 38.5 368.32 38.94 370.06 39.82C371.8 40.68 373.16 41.89 374.14 43.45C375.12 45.01 375.61 46.86 375.61 49C375.61 51.12 375.12 52.97 374.14 54.55C373.16 56.11 371.8 57.33 370.06 58.21C368.32 59.07 366.31 59.5 364.03 59.5H354.49ZM359.35 55.51H363.79C365.19 55.51 366.4 55.25 367.42 54.73C368.46 54.19 369.26 53.43 369.82 52.45C370.4 51.47 370.69 50.32 370.69 49C370.69 47.66 370.4 46.51 369.82 45.55C369.26 44.57 368.46 43.82 367.42 43.3C366.4 42.76 365.19 42.49 363.79 42.49H359.35V55.51ZM388.745 46.96H398.855V50.74H388.745V46.96ZM389.105 55.6H400.535V59.5H384.275V38.5H400.145V42.4H389.105V55.6ZM409.402 59.5V38.5H418.492C420.372 38.5 421.992 38.81 423.352 39.43C424.712 40.03 425.762 40.9 426.502 42.04C427.242 43.18 427.612 44.54 427.612 46.12C427.612 47.68 427.242 49.03 426.502 50.17C425.762 51.31 424.712 52.19 423.352 52.81C421.992 53.41 420.372 53.71 418.492 53.71H412.102L414.262 51.52V59.5H409.402ZM414.262 52.06L412.102 49.75H418.222C419.722 49.75 420.842 49.43 421.582 48.79C422.322 48.15 422.692 47.26 422.692 46.12C422.692 44.96 422.322 44.06 421.582 43.42C420.842 42.78 419.722 42.46 418.222 42.46H412.102L414.262 40.15V52.06ZM436.082 59.5V38.5H440.942V55.54H451.472V59.5H436.082ZM469.036 59.86C467.376 59.86 465.836 59.59 464.416 59.05C463.016 58.51 461.796 57.75 460.756 56.77C459.736 55.79 458.936 54.64 458.356 53.32C457.796 52 457.516 50.56 457.516 49C457.516 47.44 457.796 46 458.356 44.68C458.936 43.36 459.746 42.21 460.786 41.23C461.826 40.25 463.046 39.49 464.446 38.95C465.846 38.41 467.366 38.14 469.006 38.14C470.666 38.14 472.186 38.41 473.566 38.95C474.966 39.49 476.176 40.25 477.196 41.23C478.236 42.21 479.046 43.36 479.626 44.68C480.206 45.98 480.496 47.42 480.496 49C480.496 50.56 480.206 52.01 479.626 53.35C479.046 54.67 478.236 55.82 477.196 56.8C476.176 57.76 474.966 58.51 473.566 59.05C472.186 59.59 470.676 59.86 469.036 59.86ZM469.006 55.72C469.946 55.72 470.806 55.56 471.586 55.24C472.386 54.92 473.086 54.46 473.686 53.86C474.286 53.26 474.746 52.55 475.066 51.73C475.406 50.91 475.576 50 475.576 49C475.576 48 475.406 47.09 475.066 46.27C474.746 45.45 474.286 44.74 473.686 44.14C473.106 43.54 472.416 43.08 471.616 42.76C470.816 42.44 469.946 42.28 469.006 42.28C468.066 42.28 467.196 42.44 466.396 42.76C465.616 43.08 464.926 43.54 464.326 44.14C463.726 44.74 463.256 45.45 462.916 46.27C462.596 47.09 462.436 48 462.436 49C462.436 49.98 462.596 50.89 462.916 51.73C463.256 52.55 463.716 53.26 464.296 53.86C464.896 54.46 465.596 54.92 466.396 55.24C467.196 55.56 468.066 55.72 469.006 55.72ZM493.46 59.5V50.92L494.57 53.86L485.33 38.5H490.49L497.57 50.29H494.6L501.71 38.5H506.48L497.24 53.86L498.32 50.92V59.5H493.46Z" fill="white"/>
<path d="M584.774 49L579 43.2265L573.226 49L579 54.7735L584.774 49ZM523 49V50H579V49V48H523V49Z" fill="white"/>
<path d="M605.49 59.5V38.5H610.35V55.54H620.88V59.5H605.49ZM625.953 59.5L635.313 38.5H640.113L649.503 59.5H644.403L636.723 40.96H638.643L630.933 59.5H625.953ZM630.633 55L631.923 51.31H642.723L644.043 55H630.633ZM665.572 59.86C662.592 59.86 660.262 59.03 658.582 57.37C656.902 55.71 656.062 53.34 656.062 50.26V38.5H660.922V50.08C660.922 52.08 661.332 53.52 662.152 54.4C662.972 55.28 664.122 55.72 665.602 55.72C667.082 55.72 668.232 55.28 669.052 54.4C669.872 53.52 670.282 52.08 670.282 50.08V38.5H675.082V50.26C675.082 53.34 674.242 55.71 672.562 57.37C670.882 59.03 668.552 59.86 665.572 59.86ZM684.885 59.5V38.5H688.905L701.295 53.62H699.345V38.5H704.145V59.5H700.155L687.735 44.38H689.685V59.5H684.885ZM724.163 59.86C722.543 59.86 721.033 59.6 719.633 59.08C718.253 58.54 717.053 57.78 716.033 56.8C715.013 55.82 714.213 54.67 713.633 53.35C713.073 52.03 712.793 50.58 712.793 49C712.793 47.42 713.073 45.97 713.633 44.65C714.213 43.33 715.013 42.18 716.033 41.2C717.073 40.22 718.283 39.47 719.663 38.95C721.043 38.41 722.553 38.14 724.193 38.14C726.013 38.14 727.653 38.46 729.113 39.1C730.593 39.72 731.833 40.64 732.833 41.86L729.713 44.74C728.993 43.92 728.193 43.31 727.313 42.91C726.433 42.49 725.473 42.28 724.433 42.28C723.453 42.28 722.553 42.44 721.733 42.76C720.913 43.08 720.203 43.54 719.603 44.14C719.003 44.74 718.533 45.45 718.193 46.27C717.873 47.09 717.713 48 717.713 49C717.713 50 717.873 50.91 718.193 51.73C718.533 52.55 719.003 53.26 719.603 53.86C720.203 54.46 720.913 54.92 721.733 55.24C722.553 55.56 723.453 55.72 724.433 55.72C725.473 55.72 726.433 55.52 727.313 55.12C728.193 54.7 728.993 54.07 729.713 53.23L732.833 56.11C731.833 57.33 730.593 58.26 729.113 58.9C727.653 59.54 726.003 59.86 724.163 59.86ZM755.515 38.5H760.375V59.5H755.515V38.5ZM745.975 59.5H741.115V38.5H745.975V59.5ZM755.875 50.89H745.615V46.78H755.875V50.89Z" fill="white"/>
<path d="M819 33L823.321 44.6785L835 49L823.321 53.3215L819 65L814.679 53.3215L803 49L814.679 44.6785L819 33Z" fill="white"/>
<path d="M887.49 59.5V38.5H896.58C898.46 38.5 900.08 38.81 901.44 39.43C902.8 40.03 903.85 40.9 904.59 42.04C905.33 43.18 905.7 44.54 905.7 46.12C905.7 47.68 905.33 49.03 904.59 50.17C903.85 51.31 902.8 52.19 901.44 52.81C900.08 53.41 898.46 53.71 896.58 53.71H890.19L892.35 51.52V59.5H887.49ZM892.35 52.06L890.19 49.75H896.31C897.81 49.75 898.93 49.43 899.67 48.79C900.41 48.15 900.78 47.26 900.78 46.12C900.78 44.96 900.41 44.06 899.67 43.42C898.93 42.78 897.81 42.46 896.31 42.46H890.19L892.35 40.15V52.06ZM914.17 59.5V38.5H919.03V55.54H929.56V59.5H914.17ZM934.632 59.5L943.992 38.5H948.792L958.182 59.5H953.082L945.402 40.96H947.322L939.612 59.5H934.632ZM939.312 55L940.602 51.31H951.402L952.722 55H939.312ZM965.361 59.5V38.5H969.381L981.771 53.62H979.821V38.5H984.621V59.5H980.631L968.211 44.38H970.161V59.5H965.361Z" fill="white"/>
<path d="M1075.77 49L1070 43.2265L1064.23 49L1070 54.7735L1075.77 49ZM1014 49V50H1070V49V48H1014V49Z" fill="white"/>
<path d="M1096.49 59.5V38.5H1106.03C1108.31 38.5 1110.32 38.94 1112.06 39.82C1113.8 40.68 1115.16 41.89 1116.14 43.45C1117.12 45.01 1117.61 46.86 1117.61 49C1117.61 51.12 1117.12 52.97 1116.14 54.55C1115.16 56.11 1113.8 57.33 1112.06 58.21C1110.32 59.07 1108.31 59.5 1106.03 59.5H1096.49ZM1101.35 55.51H1105.79C1107.19 55.51 1108.4 55.25 1109.42 54.73C1110.46 54.19 1111.26 53.43 1111.82 52.45C1112.4 51.47 1112.69 50.32 1112.69 49C1112.69 47.66 1112.4 46.51 1111.82 45.55C1111.26 44.57 1110.46 43.82 1109.42 43.3C1108.4 42.76 1107.19 42.49 1105.79 42.49H1101.35V55.51ZM1130.75 46.96H1140.86V50.74H1130.75V46.96ZM1131.11 55.6H1142.54V59.5H1126.28V38.5H1142.15V42.4H1131.11V55.6ZM1158.3 59.86C1156.62 59.86 1155.01 59.64 1153.47 59.2C1151.93 58.74 1150.69 58.15 1149.75 57.43L1151.4 53.77C1152.3 54.41 1153.36 54.94 1154.58 55.36C1155.82 55.76 1157.07 55.96 1158.33 55.96C1159.29 55.96 1160.06 55.87 1160.64 55.69C1161.24 55.49 1161.68 55.22 1161.96 54.88C1162.24 54.54 1162.38 54.15 1162.38 53.71C1162.38 53.15 1162.16 52.71 1161.72 52.39C1161.28 52.05 1160.7 51.78 1159.98 51.58C1159.26 51.36 1158.46 51.16 1157.58 50.98C1156.72 50.78 1155.85 50.54 1154.97 50.26C1154.11 49.98 1153.32 49.62 1152.6 49.18C1151.88 48.74 1151.29 48.16 1150.83 47.44C1150.39 46.72 1150.17 45.8 1150.17 44.68C1150.17 43.48 1150.49 42.39 1151.13 41.41C1151.79 40.41 1152.77 39.62 1154.07 39.04C1155.39 38.44 1157.04 38.14 1159.02 38.14C1160.34 38.14 1161.64 38.3 1162.92 38.62C1164.2 38.92 1165.33 39.38 1166.31 40L1164.81 43.69C1163.83 43.13 1162.85 42.72 1161.87 42.46C1160.89 42.18 1159.93 42.04 1158.99 42.04C1158.05 42.04 1157.28 42.15 1156.68 42.37C1156.08 42.59 1155.65 42.88 1155.39 43.24C1155.13 43.58 1155 43.98 1155 44.44C1155 44.98 1155.22 45.42 1155.66 45.76C1156.1 46.08 1156.68 46.34 1157.4 46.54C1158.12 46.74 1158.91 46.94 1159.77 47.14C1160.65 47.34 1161.52 47.57 1162.38 47.83C1163.26 48.09 1164.06 48.44 1164.78 48.88C1165.5 49.32 1166.08 49.9 1166.52 50.62C1166.98 51.34 1167.21 52.25 1167.21 53.35C1167.21 54.53 1166.88 55.61 1166.22 56.59C1165.56 57.57 1164.57 58.36 1163.25 58.96C1161.95 59.56 1160.3 59.86 1158.3 59.86ZM1175.53 59.5V38.5H1180.39V59.5H1175.53ZM1200.52 59.86C1198.86 59.86 1197.33 59.6 1195.93 59.08C1194.55 58.54 1193.34 57.78 1192.3 56.8C1191.28 55.82 1190.48 54.67 1189.9 53.35C1189.34 52.03 1189.06 50.58 1189.06 49C1189.06 47.42 1189.34 45.97 1189.9 44.65C1190.48 43.33 1191.29 42.18 1192.33 41.2C1193.37 40.22 1194.59 39.47 1195.99 38.95C1197.39 38.41 1198.93 38.14 1200.61 38.14C1202.47 38.14 1204.14 38.45 1205.62 39.07C1207.12 39.69 1208.38 40.59 1209.4 41.77L1206.28 44.65C1205.52 43.85 1204.69 43.26 1203.79 42.88C1202.89 42.48 1201.91 42.28 1200.85 42.28C1199.83 42.28 1198.9 42.44 1198.06 42.76C1197.22 43.08 1196.49 43.54 1195.87 44.14C1195.27 44.74 1194.8 45.45 1194.46 46.27C1194.14 47.09 1193.98 48 1193.98 49C1193.98 49.98 1194.14 50.88 1194.46 51.7C1194.8 52.52 1195.27 53.24 1195.87 53.86C1196.49 54.46 1197.21 54.92 1198.03 55.24C1198.87 55.56 1199.79 55.72 1200.79 55.72C1201.75 55.72 1202.68 55.57 1203.58 55.27C1204.5 54.95 1205.39 54.42 1206.25 53.68L1209.01 57.19C1207.87 58.05 1206.54 58.71 1205.02 59.17C1203.52 59.63 1202.02 59.86 1200.52 59.86ZM1204.57 56.56V48.67H1209.01V57.19L1204.57 56.56ZM1218.52 59.5V38.5H1222.54L1234.93 53.62H1232.98V38.5H1237.78V59.5H1233.79L1221.37 44.38H1223.32V59.5H1218.52Z" fill="white"/>
<path d="M1318.77 49L1313 43.2265L1307.23 49L1313 54.7735L1318.77 49ZM1257 49V50H1313V49V48H1257V49Z" fill="white"/>
<path d="M1339.49 59.5V38.5H1349.03C1351.31 38.5 1353.32 38.94 1355.06 39.82C1356.8 40.68 1358.16 41.89 1359.14 43.45C1360.12 45.01 1360.61 46.86 1360.61 49C1360.61 51.12 1360.12 52.97 1359.14 54.55C1358.16 56.11 1356.8 57.33 1355.06 58.21C1353.32 59.07 1351.31 59.5 1349.03 59.5H1339.49ZM1344.35 55.51H1348.79C1350.19 55.51 1351.4 55.25 1352.42 54.73C1353.46 54.19 1354.26 53.43 1354.82 52.45C1355.4 51.47 1355.69 50.32 1355.69 49C1355.69 47.66 1355.4 46.51 1354.82 45.55C1354.26 44.57 1353.46 43.82 1352.42 43.3C1351.4 42.76 1350.19 42.49 1348.79 42.49H1344.35V55.51ZM1373.75 46.96H1383.86V50.74H1373.75V46.96ZM1374.11 55.6H1385.54V59.5H1369.28V38.5H1385.15V42.4H1374.11V55.6ZM1400.41 59.5L1391.35 38.5H1396.6L1404.52 57.1H1401.43L1409.47 38.5H1414.3L1405.21 59.5H1400.41ZM1425.52 46.96H1435.63V50.74H1425.52V46.96ZM1425.88 55.6H1437.31V59.5H1421.05V38.5H1436.92V42.4H1425.88V55.6ZM1446.18 59.5V38.5H1451.04V55.54H1461.57V59.5H1446.18ZM1479.13 59.86C1477.47 59.86 1475.93 59.59 1474.51 59.05C1473.11 58.51 1471.89 57.75 1470.85 56.77C1469.83 55.79 1469.03 54.64 1468.45 53.32C1467.89 52 1467.61 50.56 1467.61 49C1467.61 47.44 1467.89 46 1468.45 44.68C1469.03 43.36 1469.84 42.21 1470.88 41.23C1471.92 40.25 1473.14 39.49 1474.54 38.95C1475.94 38.41 1477.46 38.14 1479.1 38.14C1480.76 38.14 1482.28 38.41 1483.66 38.95C1485.06 39.49 1486.27 40.25 1487.29 41.23C1488.33 42.21 1489.14 43.36 1489.72 44.68C1490.3 45.98 1490.59 47.42 1490.59 49C1490.59 50.56 1490.3 52.01 1489.72 53.35C1489.14 54.67 1488.33 55.82 1487.29 56.8C1486.27 57.76 1485.06 58.51 1483.66 59.05C1482.28 59.59 1480.77 59.86 1479.13 59.86ZM1479.1 55.72C1480.04 55.72 1480.9 55.56 1481.68 55.24C1482.48 54.92 1483.18 54.46 1483.78 53.86C1484.38 53.26 1484.84 52.55 1485.16 51.73C1485.5 50.91 1485.67 50 1485.67 49C1485.67 48 1485.5 47.09 1485.16 46.27C1484.84 45.45 1484.38 44.74 1483.78 44.14C1483.2 43.54 1482.51 43.08 1481.71 42.76C1480.91 42.44 1480.04 42.28 1479.1 42.28C1478.16 42.28 1477.29 42.44 1476.49 42.76C1475.71 43.08 1475.02 43.54 1474.42 44.14C1473.82 44.74 1473.35 45.45 1473.01 46.27C1472.69 47.09 1472.53 48 1472.53 49C1472.53 49.98 1472.69 50.89 1473.01 51.73C1473.35 52.55 1473.81 53.26 1474.39 53.86C1474.99 54.46 1475.69 54.92 1476.49 55.24C1477.29 55.56 1478.16 55.72 1479.1 55.72ZM1499.25 59.5V38.5H1508.34C1510.22 38.5 1511.84 38.81 1513.2 39.43C1514.56 40.03 1515.61 40.9 1516.35 42.04C1517.09 43.18 1517.46 44.54 1517.46 46.12C1517.46 47.68 1517.09 49.03 1516.35 50.17C1515.61 51.31 1514.56 52.19 1513.2 52.81C1511.84 53.41 1510.22 53.71 1508.34 53.71H1501.95L1504.11 51.52V59.5H1499.25ZM1504.11 52.06L1501.95 49.75H1508.07C1509.57 49.75 1510.69 49.43 1511.43 48.79C1512.17 48.15 1512.54 47.26 1512.54 46.12C1512.54 44.96 1512.17 44.06 1511.43 43.42C1510.69 42.78 1509.57 42.46 1508.07 42.46H1501.95L1504.11 40.15V52.06Z" fill="white"/>
<path d="M1596.77 49L1591 43.2265L1585.23 49L1591 54.7735L1596.77 49ZM1535 49V50H1591V49V48H1535V49Z" fill="white"/>
</g>
<defs>
<linearGradient id="paint0_linear_135_625" x1="1750.02" y1="237.105" x2="1618.89" y2="-266.653" gradientUnits="userSpaceOnUse">
<stop stop-color="#453A94"/>
<stop offset="1" stop-color="#F43B47"/>
</linearGradient>
<clipPath id="clip0_135_625">
<rect width="3677" height="99" fill="white" transform="translate(-1038)"/>
</clipPath>
</defs>
</svg>
