<svg width="151" height="150" viewBox="0 0 151 150" fill="none" xmlns="http://www.w3.org/2000/svg">
<path d="M71.0938 88.1717C71.0469 87.7498 70.9766 87.3514 70.9297 86.9295C70.8125 85.7342 70.7422 84.5155 70.7422 83.2967C70.7422 82.1014 70.8125 80.9061 70.9297 79.7108C70.9297 79.5233 70.9531 79.3123 70.9766 79.1248C71.0938 77.9764 71.2813 76.8514 71.4922 75.7264C71.5156 75.5623 71.5625 75.3983 71.5859 75.2342C73.5547 65.8826 78.8984 57.5858 86.7969 51.8905C77.7266 47.6483 69.1719 49.8514 63.9922 52.1248C65.5391 52.617 66.5 53.6483 66.9922 54.3045C69.0547 57.0936 68.9141 61.4061 66.6875 63.9139C65.6328 65.1092 62.5156 67.5233 56.6562 64.1248C50.375 60.4686 44.6328 61.6873 42.1016 62.578C44.7969 66.2108 45.6406 70.7576 44.2344 74.5545C43.1797 77.4373 39.8047 82.4295 29.1875 83.6717C19.9531 84.7498 12.4531 82.8279 7.4375 80.7654C12.6875 87.7264 22.3203 95.9764 38.0703 94.3123C41.2578 93.9842 45.9688 92.742 50.5391 91.5233C54.9219 90.3748 61.1328 90.492 64.4609 93.4451C65.7734 94.617 67.2266 96.7733 66.7109 100.406C66.4063 102.633 65.375 104.39 63.6641 105.633C62.4688 106.5 61.0625 107.015 59.6797 107.297C64.7188 108.773 72.2422 109.992 79.0391 107.25C78.4531 106.5 77.8906 105.726 77.375 104.93C77.375 104.93 77.375 104.93 77.375 104.906C76.0156 102.914 74.8672 100.781 73.9297 98.578C73.7891 98.2264 73.6484 97.8748 73.5078 97.5233C73.2266 96.7967 72.9453 96.0467 72.6875 95.2967C72.5469 94.8514 72.4062 94.4061 72.2891 93.9373C72.1016 93.2576 71.9141 92.5545 71.75 91.8514C71.6328 91.3826 71.5391 90.9139 71.4453 90.4217C71.3047 89.6483 71.1875 88.8983 71.0938 88.1248V88.1717Z" fill="#F69A8B"/>
<path d="M145.766 83.2969C145.766 74.7891 142.812 66.9609 137.891 60.7734C137.211 59.9297 136.508 59.1094 135.758 58.3359C135.312 57.8437 134.82 57.3984 134.352 56.9297C133.602 56.2031 132.805 55.5234 131.984 54.8672C126.687 50.6719 120.242 47.8828 113.164 47.1562H113.117C111.898 47.0391 110.68 46.9688 109.438 46.9688C108.195 46.9688 106.953 47.0391 105.758 47.1562C105.758 47.1562 105.758 47.1562 105.734 47.1562C87.4531 49.0312 73.1328 64.5234 73.1328 83.2969C73.1328 103.336 89.4219 119.625 109.461 119.625C129.5 119.625 145.789 103.336 145.789 83.2969H145.766ZM109.438 112.148C93.5469 112.148 80.6094 99.2109 80.6094 83.2969C80.6094 67.3828 93.5469 54.4687 109.438 54.4687C110.094 54.4687 110.633 55.0078 110.633 55.6641V82.125H137.094C137.75 82.125 138.289 82.6641 138.289 83.3203C138.289 99.2344 125.352 112.172 109.438 112.172V112.148Z" fill="white"/>
<path d="M135.875 84.4922H109.438C108.781 84.4922 108.242 83.9531 108.242 83.2969V56.8594C94.2031 57.4922 82.9766 69.0938 82.9766 83.2969C82.9766 97.5 94.8359 109.758 109.438 109.758C124.039 109.758 135.242 98.5312 135.875 84.4922Z" fill="#DAE8F0"/>
<path d="M137.094 82.1016H110.633V55.6406C110.633 54.9844 110.094 54.4453 109.437 54.4453C93.5469 54.4453 80.6094 67.3828 80.6094 83.2734C80.6094 99.1641 93.5469 112.125 109.437 112.125C125.328 112.125 138.289 99.1875 138.289 83.2734C138.289 82.6172 137.75 82.0781 137.094 82.0781V82.1016ZM82.9766 83.2969C82.9766 69.1172 94.2031 57.4922 108.242 56.8594V83.2969C108.242 83.9531 108.781 84.4922 109.437 84.4922H135.875C135.242 98.5312 123.641 109.758 109.437 109.758C95.2344 109.758 82.9766 97.8984 82.9766 83.2969Z" fill="#626975"/>
<path d="M105.266 36.3516H116.492C117.148 36.3516 117.688 35.8125 117.688 35.1563V31.5469C117.688 30.8906 117.148 30.3516 116.492 30.3516H102.43C101.773 30.3516 101.234 30.8906 101.234 31.5469V35.1563C101.234 35.8125 101.773 36.3516 102.43 36.3516H105.266Z" fill="#F69A8B"/>
<path d="M112.437 44.6953V38.7422H106.461V44.6953C107.422 44.625 108.43 44.5781 109.461 44.5781C110.492 44.5781 111.5 44.625 112.461 44.6953H112.437ZM139.508 58.8984L144.477 53.9297C144.898 53.5078 144.875 52.8516 144.477 52.4297L140.305 48.2578C139.883 47.8594 139.227 47.8594 138.805 48.2578L133.836 53.2266C135.898 54.9141 137.797 56.8125 139.484 58.875L139.508 58.8984Z" fill="#DAE8F0"/>
<path d="M146.141 55.6172C147.477 54.2812 147.477 52.1016 146.141 50.7656L141.969 46.5937C140.633 45.2578 138.453 45.2578 137.117 46.5937L131.891 51.8438C126.945 48.3047 121.109 45.9141 114.828 45.0234V38.7656H116.492C118.461 38.7656 120.055 37.1719 120.055 35.2031V31.5937C120.055 29.625 118.461 28.0312 116.492 28.0312H102.43C100.461 28.0312 98.8672 29.625 98.8672 31.5937V35.2031C98.8672 37.1719 100.461 38.7656 102.43 38.7656H104.094V45.0234C98.6562 45.7734 93.5938 47.6719 89.1406 50.4375C72.8047 41.7891 57.7109 52.9453 57.5469 53.0625C57.0547 53.4375 56.9375 54.0937 57.2422 54.6328C57.5469 55.1484 58.2031 55.3594 58.7656 55.1016C61.5781 53.7891 63.8281 54.0234 65.1172 55.7578C66.5 57.6328 66.4297 60.7031 64.9531 62.3672C63.5 63.9844 60.9922 63.8906 57.8984 62.1094C48.4062 56.6016 39.9922 60.8906 39.6406 61.0781C39.3125 61.2422 39.0781 61.5703 39.0313 61.9219C38.9609 62.2969 39.0781 62.6484 39.3359 62.9297C42.2656 66.0938 43.3203 70.3359 42.0547 73.7578C40.5312 77.8359 35.8906 80.5313 28.9766 81.3281C17.4688 82.6875 8.79688 79.0781 4.64844 76.8047C4.17969 76.5469 3.59375 76.6406 3.21875 77.0156C2.84375 77.4141 2.77344 78 3.05469 78.4453C7.71875 86.1563 18.5234 98.7891 38.375 96.6797C41.75 96.3281 46.5547 95.0625 51.1953 93.8203C54.9922 92.8125 60.4062 92.9766 62.9141 95.2266C64.2031 96.375 64.6953 97.9688 64.3906 100.078C64.1797 101.648 63.5 102.844 62.3281 103.688C59.1875 105.961 53.6797 105.023 53.6328 105C53.0469 104.906 52.4844 105.234 52.2969 105.797C52.1094 106.359 52.3672 106.969 52.8828 107.227C53.3281 107.461 61.0156 111.258 70.0156 111.258C73.5078 111.258 77.1875 110.648 80.7266 109.055C87.8281 116.953 98.0703 121.945 109.484 121.945C130.836 121.945 148.203 104.578 148.203 83.2266C148.203 74.8594 145.508 67.1016 140.961 60.7734L146.188 55.5469L146.141 55.6172ZM73.1094 83.3203C73.1094 64.5469 87.4297 49.0547 105.711 47.1797C105.711 47.1797 105.711 47.1797 105.734 47.1797C106.953 47.0625 108.172 46.9922 109.414 46.9922C110.656 46.9922 111.875 47.0625 113.094 47.1797H113.141C120.219 47.9062 126.688 50.6953 131.961 54.8906C132.781 55.5469 133.555 56.2266 134.328 56.9531C134.82 57.3984 135.289 57.8672 135.734 58.3594C136.484 59.1328 137.188 59.9531 137.867 60.7969C142.789 66.9844 145.742 74.8125 145.742 83.3203C145.742 103.359 129.453 119.648 109.414 119.648C89.375 119.648 73.0859 103.359 73.0859 83.3203H73.1094ZM72.2656 94.0078C72.4062 94.4531 72.5234 94.9219 72.6641 95.3672C72.8984 96.1172 73.1797 96.8438 73.4844 97.5938C73.625 97.9453 73.7422 98.2969 73.9062 98.6484C74.8438 100.852 76.0156 102.961 77.3516 104.977C77.3516 104.977 77.3516 104.977 77.3516 105C77.8906 105.797 78.4297 106.57 79.0156 107.32C72.2188 110.063 64.6719 108.844 59.6562 107.367C61.0391 107.086 62.4453 106.57 63.6406 105.703C65.3516 104.461 66.3594 102.727 66.6875 100.477C67.2031 96.8203 65.75 94.6875 64.4375 93.5156C61.1094 90.5625 54.8984 90.4453 50.5156 91.5938C45.9688 92.8125 41.2578 94.0547 38.0469 94.3828C22.2969 96.0469 12.6406 87.7969 7.41406 80.8359C12.4297 82.875 19.9297 84.8203 29.1641 83.7422C39.7813 82.5 43.1328 77.5078 44.2109 74.625C45.6172 70.8516 44.7734 66.3047 42.0781 62.6484C44.6328 61.7578 50.3516 60.5391 56.6328 64.1953C62.4922 67.5938 65.5859 65.1797 66.6641 63.9844C68.9141 61.4766 69.0547 57.1641 66.9688 54.375C66.4766 53.7188 65.5156 52.7109 63.9688 52.1953C69.1484 49.9219 77.7031 47.7188 86.7734 51.9609C78.8984 57.6328 73.5312 65.9531 71.5625 75.3047C71.5391 75.4688 71.4922 75.6328 71.4688 75.7969C71.2578 76.9219 71.0703 78.0469 70.9531 79.1953C70.9531 79.3828 70.9297 79.5938 70.9062 79.7813C70.7891 80.9531 70.7188 82.1484 70.7188 83.3672C70.7188 84.5859 70.7891 85.7812 70.9062 87C70.9531 87.4219 71 87.8203 71.0703 88.2422C71.1641 89.0156 71.2812 89.7891 71.4219 90.5391C71.5156 91.0078 71.6094 91.5 71.7266 91.9688C71.8906 92.6719 72.0547 93.375 72.2656 94.0547V94.0078ZM101.211 35.2031V31.5937C101.211 30.9375 101.75 30.3984 102.406 30.3984H116.469C117.125 30.3984 117.664 30.9375 117.664 31.5937V35.2031C117.664 35.8594 117.125 36.3984 116.469 36.3984H102.406C101.75 36.3984 101.211 35.8594 101.211 35.2031ZM106.438 38.7656H112.414V44.7188C111.453 44.6484 110.445 44.6016 109.414 44.6016C108.383 44.6016 107.375 44.6484 106.414 44.7188V38.7656H106.438ZM140.281 48.2812L144.453 52.4531C144.875 52.875 144.875 53.5313 144.453 53.9531L139.484 58.9219C137.797 56.8594 135.898 54.9609 133.836 53.2734L138.805 48.3047C139.203 47.9063 139.883 47.9063 140.305 48.3047L140.281 48.2812Z" fill="#626975"/>
</svg>
