<svg width="32" height="32" viewBox="0 0 32 32" fill="none" xmlns="http://www.w3.org/2000/svg">
<path d="M16.0002 30.0765C23.7746 30.0765 30.077 23.7741 30.077 15.9997C30.077 8.22526 23.7746 1.92285 16.0002 1.92285C8.22574 1.92285 1.92334 8.22526 1.92334 15.9997C1.92334 23.7741 8.22574 30.0765 16.0002 30.0765Z" fill="#FFEDC4"/>
<path opacity="0.1" d="M11.1757 2.77148C5.77753 4.74073 1.92334 9.92005 1.92334 15.9996C1.92334 23.774 8.22572 30.0764 16.0002 30.0764C19.5787 30.0764 22.8447 28.7404 25.3283 26.5409C8.7239 24.7057 7.85259 8.93123 11.1757 2.77148Z" fill="#FFF0CD"/>
<path d="M29.7558 12.1611H2.24419C1.26363 12.1611 0.46875 12.956 0.46875 13.9366V18.0628C0.46875 19.0434 1.26363 19.8383 2.24419 19.8383H29.7558C30.7364 19.8383 31.5312 19.0434 31.5312 18.0628V13.9366C31.5312 12.956 30.7364 12.1611 29.7558 12.1611Z" fill="#F7B319"/>
<path d="M2.24419 12.1611C1.26369 12.1611 0.46875 12.956 0.46875 13.9366V18.0628C0.46875 19.0434 1.26363 19.8383 2.24419 19.8383H17.1938C15.3085 18.5886 14.5126 15.1546 15.298 12.1611H2.24419Z" fill="#F7B319"/>
<path d="M29.8978 11.6974C29.4059 10.1096 28.6352 8.61229 27.6377 7.28098C27.6161 7.24204 27.5893 7.20648 27.5581 7.17535C26.7807 6.15704 25.8699 5.23823 24.8487 4.45435C22.2916 2.4916 19.2318 1.45416 16.0002 1.4541H16C13.6421 1.4541 11.3003 2.03141 9.228 3.1236C8.99894 3.24429 8.91112 3.52779 9.03187 3.75685C9.15256 3.98579 9.43619 4.07366 9.66506 3.95298C11.2349 3.12566 12.9705 2.61441 14.7458 2.44998C13.4524 3.74448 12.2632 5.32491 11.2741 7.03885H5.76269C6.37631 6.33685 7.06206 5.69579 7.81025 5.1311C8.01688 4.97516 8.05794 4.68123 7.902 4.47454C7.746 4.26798 7.45225 4.22691 7.24544 4.38279C6.18388 5.1841 5.24 6.12923 4.43825 7.1801C4.41175 7.20723 4.38875 7.2376 4.36944 7.27048C3.36844 8.60373 2.59569 10.1042 2.10219 11.6974C0.930687 11.7709 0 12.7469 0 13.9365V18.0628C0 19.2525 0.930687 20.2285 2.10219 20.302C2.59406 21.8897 3.36475 23.387 4.36219 24.7182C4.38375 24.7572 4.41062 24.7929 4.442 24.8241C5.21937 25.8424 6.13013 26.7612 7.15137 27.545C9.70856 29.5077 12.7683 30.5452 16 30.5452C18.5888 30.5452 21.131 29.8564 23.3516 28.5532C23.5749 28.4222 23.6496 28.135 23.5187 27.9117C23.3876 27.6884 23.1004 27.6137 22.8771 27.7446C21.1604 28.7521 19.2378 29.3665 17.2548 29.5495C18.5479 28.2549 19.737 26.6743 20.726 24.9605H26.2432C25.7624 25.5085 25.2354 26.0212 24.6646 26.4932C24.4651 26.6581 24.4369 26.9535 24.6019 27.1531C24.6946 27.2652 24.8285 27.3232 24.9634 27.3232C25.0687 27.3232 25.1744 27.288 25.2619 27.2157C27.4643 25.395 29.0617 23.0103 29.898 20.302C31.0694 20.2284 32 19.2525 32 18.0629V13.9366C32 12.7469 31.0693 11.7709 29.8978 11.6974ZM26.9865 7.97641C27.8137 9.10835 28.467 10.3643 28.9112 11.6924H22.7827C22.3919 10.4372 21.8677 9.18204 21.2406 7.97641H26.9865ZM24.2778 5.19816C24.9914 5.74598 25.6474 6.36423 26.237 7.03891H20.7259C19.7365 5.32429 18.5468 3.74335 17.2528 2.4486C19.8114 2.67948 22.2189 3.61785 24.2778 5.19816ZM16 2.54785C17.345 3.76566 18.5946 5.32185 19.6389 7.03891H12.3611C13.4053 5.32185 14.6549 3.76566 16 2.54785ZM11.8201 7.97641H20.1799C20.8344 9.17404 21.3853 10.4309 21.7984 11.6924H10.2016C10.6147 10.4309 11.1656 9.17404 11.8201 7.97641ZM5.01319 7.97641H10.7593C10.1322 9.18204 9.608 10.4372 9.21725 11.6924H3.08869C3.53312 10.3633 4.18619 9.10791 5.01319 7.97641ZM5.0135 24.023C4.18631 22.8911 3.533 21.6351 3.08875 20.307H9.21737C9.60812 21.5622 10.1323 22.8174 10.7594 24.023H5.0135ZM7.72225 26.8013C7.0085 26.2535 6.35256 25.6352 5.763 24.9605H11.2741C12.2634 26.6749 13.4529 28.256 14.7464 29.5508C12.1881 29.3198 9.78088 28.3815 7.72225 26.8013ZM16 29.4516C14.6549 28.2338 13.4053 26.6776 12.3611 24.9605H19.6389C18.5946 26.6776 17.345 28.2338 16 29.4516ZM20.1799 24.023H11.8201C11.1656 22.8254 10.6146 21.5685 10.2014 20.307H21.7986C21.3854 21.5685 20.8344 22.8254 20.1799 24.023ZM26.9954 24.023H21.2406C21.8677 22.8174 22.3919 21.5623 22.7826 20.307H28.9118C28.4665 21.6454 27.8204 22.8954 26.9954 24.023ZM31.0625 18.0629C31.0625 18.7834 30.4763 19.3695 29.7558 19.3695H29.5352C29.5349 19.3695 29.5346 19.3695 29.5342 19.3695H22.4281C22.4273 19.3695 22.4266 19.3695 22.4258 19.3695H9.57413C9.57338 19.3695 9.57262 19.3695 9.57187 19.3695H2.46563C2.46525 19.3695 2.46494 19.3695 2.46456 19.3695H2.24412C1.52369 19.3695 0.9375 18.7834 0.9375 18.0629V13.9366C0.9375 13.2162 1.52369 12.63 2.24419 12.63H2.45163C2.45219 12.63 2.45281 12.6301 2.45338 12.6301C2.45388 12.6301 2.45438 12.63 2.45487 12.63H9.5725H9.57375H22.4332C22.4337 12.63 22.4342 12.6301 22.4347 12.6301C22.4352 12.6301 22.4358 12.63 22.4364 12.63H29.5452C29.5457 12.63 29.5462 12.6301 29.5467 12.6301C29.5473 12.6301 29.5479 12.63 29.5484 12.63H29.7558C30.4763 12.63 31.0625 13.2162 31.0625 13.9366V18.0629ZM11.7928 13.7833C11.5494 13.6949 11.2805 13.8202 11.1919 14.0634L10.3397 16.4051L9.48738 14.0634C9.41994 13.8782 9.24394 13.755 9.04688 13.755C8.84981 13.755 8.67381 13.8783 8.60637 14.0634L7.75406 16.4051L6.90181 14.0634C6.81325 13.8201 6.54419 13.6948 6.301 13.7833C6.05769 13.8719 5.93231 14.1409 6.02081 14.3841L7.31356 17.936C7.381 18.1212 7.557 18.2444 7.75406 18.2444C7.95113 18.2444 8.12713 18.1212 8.19456 17.936L9.04688 15.5943L9.89919 17.936C9.96662 18.1212 10.1426 18.2444 10.3397 18.2444C10.5367 18.2444 10.7128 18.1212 10.7802 17.936L12.0729 14.3841C12.1614 14.1409 12.036 13.8719 11.7928 13.7833ZM25.6991 13.7833C25.4554 13.6945 25.1867 13.8202 25.0982 14.0634L24.2459 16.4051L23.3936 14.0634C23.3263 13.8782 23.1502 13.755 22.9531 13.755C22.7561 13.755 22.58 13.8783 22.5126 14.0634L21.6603 16.4051L20.808 14.0634C20.7195 13.8202 20.4505 13.6949 20.2072 13.7833C19.9639 13.8719 19.8385 14.1409 19.9271 14.3841L21.2199 17.936C21.2873 18.1212 21.4633 18.2444 21.6604 18.2444C21.8574 18.2444 22.0335 18.1212 22.1009 17.936L22.9532 15.5943L23.8055 17.936C23.8729 18.1212 24.0489 18.2444 24.246 18.2444C24.4431 18.2444 24.6191 18.1212 24.6865 17.936L25.9793 14.3841C26.0678 14.1409 25.9422 13.8719 25.6991 13.7833ZM18.7459 13.7833C18.5024 13.6945 18.2336 13.8202 18.1451 14.0634L17.2928 16.4051L16.4405 14.0634C16.3731 13.8782 16.1971 13.755 16 13.755C15.8029 13.755 15.6269 13.8783 15.5595 14.0634L14.7072 16.4051L13.8549 14.0634C13.7664 13.8201 13.4972 13.6948 13.2541 13.7833C13.0108 13.8719 12.8854 14.1409 12.9739 14.3841L14.2667 17.936C14.3341 18.1212 14.5101 18.2444 14.7072 18.2444C14.9043 18.2444 15.0803 18.1212 15.1477 17.936L16 15.5944L16.8523 17.936C16.9197 18.1212 17.0957 18.2445 17.2928 18.2445C17.4899 18.2445 17.6659 18.1212 17.7333 17.936L19.0261 14.3842C19.1146 14.1409 18.9891 13.8719 18.7459 13.7833Z" fill="black"/>
</svg>
