<svg width="24" height="24" viewBox="0 0 24 24" fill="none" xmlns="http://www.w3.org/2000/svg">
<path fill-rule="evenodd" clip-rule="evenodd" d="M19.6879 4.31208C18.9385 3.56264 17.7234 3.56264 16.974 4.31208C16.6811 4.60497 16.2062 4.60497 15.9133 4.31208C15.6204 4.01919 15.6204 3.54431 15.9133 3.25142C17.2486 1.91619 19.4134 1.91619 20.7486 3.25142C22.0838 4.58664 22.0838 6.75147 20.7486 8.08669L18.3895 10.4458C17.1148 11.7205 15.0848 11.7782 13.741 10.6193C13.4273 10.3488 13.3923 9.8752 13.6628 9.56152C13.9333 9.24785 14.4069 9.21286 14.7206 9.48338C15.474 10.1331 16.6137 10.1003 17.3288 9.38517L19.6879 7.02604C20.4374 6.2766 20.4374 5.06152 19.6879 4.31208ZM16.2794 7.51662C15.526 6.8669 14.3863 6.89974 13.6712 7.61483L11.3121 9.97396C10.5626 10.7234 10.5626 11.9385 11.3121 12.6879C12.0615 13.4374 13.2766 13.4374 14.026 12.6879C14.3189 12.395 14.7938 12.395 15.0867 12.6879C15.3796 12.9808 15.3796 13.4557 15.0867 13.7486C13.7514 15.0838 11.5866 15.0838 10.2514 13.7486C8.9162 12.4134 8.9162 10.2485 10.2514 8.91331L12.6105 6.55417C13.8852 5.27948 15.9152 5.22176 17.2591 6.3807C17.5727 6.65122 17.6077 7.1248 17.3372 7.43848C17.0667 7.75215 16.5931 7.78714 16.2794 7.51662Z" fill="#999999"/>
<path fill-rule="evenodd" clip-rule="evenodd" d="M10.9436 2.25H11C11.4142 2.25 11.75 2.58579 11.75 3C11.75 3.41421 11.4142 3.75 11 3.75C9.09318 3.75 7.73851 3.75159 6.71085 3.88976C5.70476 4.02502 5.12511 4.27869 4.7019 4.7019C4.27869 5.12511 4.02502 5.70476 3.88976 6.71085C3.75159 7.73851 3.75 9.09318 3.75 11V13C3.75 14.9068 3.75159 16.2615 3.88976 17.2892C4.02502 18.2952 4.27869 18.8749 4.7019 19.2981C5.12511 19.7213 5.70476 19.975 6.71085 20.1102C7.73851 20.2484 9.09318 20.25 11 20.25H13C14.9068 20.25 16.2615 20.2484 17.2892 20.1102C18.2952 19.975 18.8749 19.7213 19.2981 19.2981C19.7213 18.8749 19.975 18.2952 20.1102 17.2892C20.2484 16.2615 20.25 14.9068 20.25 13C20.25 12.5858 20.5858 12.25 21 12.25C21.4142 12.25 21.75 12.5858 21.75 13V13.0564C21.75 14.8942 21.75 16.3498 21.5969 17.489C21.4392 18.6614 21.1071 19.6104 20.3588 20.3588C19.6104 21.1071 18.6614 21.4392 17.489 21.5969C16.3498 21.75 14.8942 21.75 13.0564 21.75H10.9436C9.10583 21.75 7.65019 21.75 6.51098 21.5969C5.33856 21.4392 4.38961 21.1071 3.64124 20.3588C2.89288 19.6104 2.56076 18.6614 2.40314 17.489C2.24997 16.3498 2.24998 14.8942 2.25 13.0564V10.9436C2.24998 9.10582 2.24997 7.65019 2.40314 6.51098C2.56076 5.33856 2.89288 4.38961 3.64124 3.64124C4.38961 2.89288 5.33856 2.56076 6.51098 2.40314C7.65019 2.24997 9.10582 2.24998 10.9436 2.25Z" fill="black"/>
</svg>
