<svg width="24" height="24" viewBox="0 0 24 24" fill="none" xmlns="http://www.w3.org/2000/svg">
<path d="M22 20H2C0.897 20 0 19.103 0 18V6C0 4.897 0.897 4 2 4H22C23.103 4 24 4.897 24 6V18C24 19.103 23.103 20 22 20ZM2 5C1.4485 5 1 5.4485 1 6V18C1 18.5515 1.4485 19 2 19H22C22.5515 19 23 18.5515 23 18V6C23 5.4485 22.5515 5 22 5H2Z" fill="black"/>
<path d="M12.0001 14.5956L3.22861 8.92011C3.11722 8.84811 3.039 8.7348 3.01115 8.60512C2.9833 8.47544 3.00811 8.34001 3.08011 8.22861C3.15212 8.11722 3.26543 8.039 3.39511 8.01115C3.52479 7.9833 3.66022 8.00811 3.77161 8.08011L12.0001 13.4046L20.2286 8.08011C20.34 8.00811 20.4754 7.9833 20.6051 8.01115C20.7348 8.039 20.8481 8.11722 20.9201 8.22861C20.9921 8.34001 21.0169 8.47544 20.9891 8.60512C20.9612 8.7348 20.883 8.84811 20.7716 8.92011L12.0001 14.5956ZM3.00061 17.0001C2.89325 17.0002 2.7887 16.9658 2.70242 16.9019C2.61615 16.838 2.55273 16.7481 2.52155 16.6453C2.49037 16.5426 2.49309 16.4325 2.5293 16.3315C2.56551 16.2304 2.63329 16.1437 2.72261 16.0841L7.22261 13.0841C7.27724 13.0477 7.33852 13.0223 7.40293 13.0096C7.46735 12.9968 7.53365 12.9969 7.59805 13.0097C7.66244 13.0226 7.72368 13.048 7.77825 13.0845C7.83283 13.1211 7.87967 13.168 7.91611 13.2226C7.95255 13.2772 7.97788 13.3385 7.99064 13.4029C8.0034 13.4674 8.00335 13.5337 7.99049 13.598C7.97763 13.6624 7.95221 13.7237 7.91569 13.7783C7.87916 13.8328 7.83224 13.8797 7.77761 13.9161L3.27761 16.9161C3.19553 16.9707 3.09919 16.9999 3.00061 17.0001ZM20.9996 17.0001C20.9046 17.0001 20.8081 16.9726 20.7226 16.9161L16.2226 13.9161C16.168 13.8797 16.1211 13.8328 16.0845 13.7783C16.048 13.7237 16.0226 13.6624 16.0097 13.598C15.9969 13.5337 15.9968 13.4674 16.0096 13.4029C16.0223 13.3385 16.0477 13.2772 16.0841 13.2226C16.1206 13.168 16.1674 13.1211 16.222 13.0845C16.2765 13.048 16.3378 13.0226 16.4022 13.0097C16.4666 12.9969 16.5329 12.9968 16.5973 13.0096C16.6617 13.0223 16.723 13.0477 16.7776 13.0841L21.2776 16.0841C21.3669 16.1437 21.4347 16.2304 21.4709 16.3315C21.5071 16.4325 21.5099 16.5426 21.4787 16.6453C21.4475 16.7481 21.3841 16.838 21.2978 16.9019C21.2115 16.9658 21.107 17.0002 20.9996 17.0001Z" fill="black"/>
</svg>
