<svg width="24" height="24" viewBox="0 0 24 24" fill="none" xmlns="http://www.w3.org/2000/svg">
<g clip-path="url(#clip0_7505_2770)">
<path d="M5.21963 23.9398C5.03963 23.9398 4.85963 23.8798 4.67963 23.8198C4.43963 23.6398 4.25963 23.3398 4.25963 23.0398L4.19963 20.8798C4.19963 20.6398 4.07963 20.3998 3.89963 20.2198C1.49963 18.0598 0.119629 14.9998 0.119629 11.6398C0.119629 5.03975 5.27963 0.0597534 12.0597 0.0597534C18.8397 0.0597534 23.9997 5.03975 23.9997 11.6398C23.9997 18.2398 18.8397 23.2198 12.0597 23.2198C10.8597 23.2198 9.71966 23.0398 8.57966 22.7398C8.33966 22.6798 8.15966 22.6798 7.91966 22.7998L5.57963 23.8198C5.45963 23.9398 5.33963 23.9398 5.21963 23.9398ZM4.61963 19.3198C5.09963 19.7398 5.33963 20.2798 5.33963 20.8798L5.39963 22.6798L7.43966 21.7798C7.91966 21.5998 8.39966 21.5398 8.87966 21.6598C9.89966 21.9598 10.9197 22.0798 11.9997 22.0798C18.1197 22.0798 22.7397 17.6398 22.7397 11.6998C22.7397 5.75976 18.1797 1.25976 12.0597 1.25976C5.93963 1.25976 1.31963 5.69976 1.31963 11.6398C1.31963 14.6398 2.45963 17.3998 4.61963 19.3198Z" fill="black"/>
<path fill-rule="evenodd" clip-rule="evenodd" d="M4.8604 15.0598L8.34042 9.47978C8.88042 8.57978 10.0804 8.39978 10.9204 8.99978L13.6804 11.0998C13.9204 11.2798 14.2804 11.2798 14.5204 11.0998L18.3004 8.21978C18.7804 7.85978 19.4404 8.45978 19.1404 8.99978L15.6604 14.5798C15.1204 15.4798 13.9204 15.6598 13.0804 15.0598L10.2604 12.9598C10.0204 12.7798 9.66042 12.7798 9.42042 12.9598L5.6404 15.8398C5.2204 16.1398 4.5604 15.5398 4.8604 15.0598Z" fill="black"/>
</g>
<defs>
<clipPath id="clip0_7505_2770">
<rect width="24" height="24" fill="white"/>
</clipPath>
</defs>
</svg>
