<svg width="24" height="24" viewBox="0 0 24 24" fill="none" xmlns="http://www.w3.org/2000/svg">
<path d="M22.5002 3.58887C22.5004 3.31268 22.2767 3.08862 22.0005 3.08838C21.9107 3.08832 21.8226 3.11243 21.7453 3.1582C21.0414 3.5777 20.2769 3.88574 19.4787 4.07129C18.6071 3.23865 17.4468 2.77594 16.2414 2.78027C13.6324 2.78351 11.5185 4.89795 11.5158 7.50684C11.5158 7.6416 11.5217 7.77832 11.5344 7.91602C8.51147 7.59454 5.73791 6.09198 3.81756 3.73535C3.64221 3.52142 3.3266 3.49017 3.11267 3.66553C3.06592 3.70386 3.02649 3.75037 2.99627 3.80273C2.58178 4.52637 2.36395 5.34582 2.36444 6.17975C2.3631 7.09509 2.62774 7.99109 3.12616 8.75879C3.10663 8.74805 3.08618 8.7373 3.06659 8.72559C2.90698 8.6477 2.71814 8.65961 2.56952 8.75684C2.41485 8.85724 2.32177 9.02942 2.32245 9.21387C2.3183 9.33209 2.3255 9.4505 2.34393 9.56732C2.43969 10.9027 3.10132 12.1336 4.16229 12.9502C4.0697 12.9771 3.98712 13.0308 3.92499 13.1045C3.8117 13.2359 3.77472 13.4167 3.82733 13.582C4.29614 15.0438 5.44879 16.1847 6.91516 16.6387C5.43982 17.4646 3.7406 17.8017 2.06164 17.6016C1.78741 17.5679 1.53784 17.763 1.50421 18.0372C1.48089 18.2277 1.56848 18.4146 1.72967 18.5186C3.73883 19.8124 6.07818 20.5004 8.46795 20.5C14.0428 20.5618 18.9619 16.8658 20.4543 11.4941C20.7932 10.3566 20.9662 9.17621 20.968 7.98926C20.968 7.86914 20.968 7.74414 20.965 7.61719C22.0168 6.54773 22.5735 5.0871 22.5002 3.58887ZM20.0764 7.12207C19.9943 7.21905 19.9523 7.34381 19.9592 7.4707C19.968 7.64746 19.968 7.82324 19.968 7.98926C19.9659 9.08057 19.8068 10.166 19.4953 11.2119C18.1671 16.1846 13.6139 19.6068 8.46795 19.5C6.94208 19.5005 5.43158 19.1954 4.02557 18.6025C5.67822 18.4192 7.24603 17.7749 8.54999 16.7432C8.76721 16.5724 8.80487 16.2579 8.63409 16.0406C8.54132 15.9225 8.40033 15.8524 8.25018 15.8496C6.94873 15.8287 5.75354 15.1271 5.10077 14.001C5.52484 14.0023 5.94696 13.9437 6.35467 13.8271C6.61993 13.751 6.77319 13.4742 6.69702 13.209C6.64526 13.0286 6.49682 12.8925 6.31268 12.8564C4.84912 12.5638 3.70404 11.4218 3.40741 9.95898C3.83197 10.0965 4.27386 10.1731 4.71991 10.1865C4.94635 10.2034 5.15283 10.0571 5.21209 9.83789C5.27954 9.625 5.19787 9.39319 5.0119 9.26953C3.9787 8.5816 3.35986 7.42096 3.36444 6.17969C3.36413 5.76721 3.43139 5.35748 3.56366 4.9668C5.78094 7.36108 8.8457 8.79468 12.1047 8.96191C12.2628 8.97864 12.418 8.91071 12.5129 8.7832C12.6135 8.66248 12.6517 8.50171 12.6164 8.34863C12.5502 8.07288 12.5164 7.7904 12.5158 7.50684C12.5178 5.44989 14.1844 3.78278 16.2414 3.78027C17.2697 3.77734 18.2524 4.20477 18.9514 4.95898C19.0693 5.08508 19.244 5.14124 19.4133 5.10742C20.123 4.96783 20.8129 4.74219 21.468 4.43555C21.2978 5.45502 20.8109 6.39496 20.0764 7.12207Z" fill="black"/>
</svg>
