<svg width="75" height="75" viewBox="0 0 75 75" fill="none" xmlns="http://www.w3.org/2000/svg">
<path d="M61.7349 17.9059C60.5315 17.9059 59.3639 18.0824 58.2683 18.4178C58.2772 18.2501 58.2772 18.0824 58.2772 17.9059C58.2772 11.5249 53.0144 6.35311 46.5212 6.35311C44.0783 6.35311 41.8151 7.08564 39.9291 8.33889C37.5222 4.2526 33.0228 1.50781 27.8767 1.50781C20.18 1.50781 13.9472 7.63283 13.9472 15.1964C13.9472 16.1408 14.046 17.0586 14.2256 17.95C13.9113 17.9235 13.597 17.9059 13.2737 17.9059C6.78042 17.9059 1.51758 23.0777 1.51758 29.4587C1.51758 35.8397 6.78042 41.0115 13.2737 41.0115H61.717C68.2102 41.0115 73.473 35.8397 73.473 29.4587C73.491 23.0777 68.2281 17.9059 61.7349 17.9059Z" fill="white"/>
<path d="M61.7351 42.5133H13.2828C5.95437 42.5133 0 36.6531 0 29.4602C0 22.532 5.52329 16.8394 12.4745 16.4246C12.4386 16.0098 12.4206 15.6038 12.4206 15.189C12.4206 6.81342 19.3539 0 27.8769 0C32.8523 0 37.5224 2.38293 40.4053 6.30154C42.2823 5.33954 44.3659 4.8453 46.5124 4.8453C53.3738 4.8453 59.0318 9.98187 59.7233 16.5482C60.379 16.4511 61.0525 16.3981 61.7171 16.3981C69.0456 16.3981 75 22.2584 75 29.4513C75.0179 36.6619 69.0546 42.5133 61.7351 42.5133ZM13.2828 19.4077C7.6428 19.4077 3.05353 23.9176 3.05353 29.4602C3.05353 35.0027 7.6428 39.5126 13.2828 39.5126H61.7261C67.3661 39.5126 71.9554 35.0027 71.9554 29.4602C71.9554 23.9176 67.3661 19.4077 61.7261 19.4077C60.7023 19.4077 59.6874 19.5577 58.7085 19.849C58.2325 19.9902 57.7206 19.9019 57.3254 19.6019C56.9303 19.3018 56.7147 18.834 56.7327 18.3486C56.7417 18.1986 56.7417 18.0485 56.7417 17.9073C56.7417 12.3648 52.1524 7.85485 46.5124 7.85485C44.4557 7.85485 42.4709 8.455 40.7825 9.58472C40.4323 9.81419 40.0012 9.89362 39.588 9.80536C39.1749 9.70828 38.8247 9.45233 38.6091 9.09928C36.3908 5.34836 32.2775 3.01838 27.8769 3.01838C21.0424 3.01838 15.4742 8.48148 15.4742 15.2067C15.4742 16.0363 15.555 16.8571 15.7256 17.6602C15.8244 18.1192 15.6897 18.6046 15.3754 18.9576C15.061 19.3106 14.594 19.496 14.1091 19.4607C13.8037 19.4165 13.5343 19.4077 13.2828 19.4077Z" fill="#898989"/>
<path d="M21.8141 61.9113H15.5634C14.7192 61.9113 14.0366 61.2405 14.0366 60.4109C14.0366 59.5813 14.7192 58.9106 15.5634 58.9106H20.2874V41.0121C20.2874 40.1825 20.9699 39.5117 21.8141 39.5117C22.6583 39.5117 23.3409 40.1825 23.3409 41.0121V60.4109C23.3409 61.2405 22.6583 61.9113 21.8141 61.9113ZM32.277 67.3391C31.4327 67.3391 30.7502 66.6683 30.7502 65.8387V41.0121C30.7502 40.1825 31.4327 39.5117 32.277 39.5117C33.1212 39.5117 33.8037 40.1825 33.8037 41.0121V65.8387C33.8037 66.6683 33.1212 67.3391 32.277 67.3391ZM48.299 67.3391H42.7398C41.8956 67.3391 41.213 66.6683 41.213 65.8387V41.0121C41.213 40.1825 41.8956 39.5117 42.7398 39.5117C43.584 39.5117 44.2665 40.1825 44.2665 41.0121V64.3384H48.299C49.1432 64.3384 49.8257 65.0091 49.8257 65.8387C49.8257 66.6683 49.1432 67.3391 48.299 67.3391ZM59.5881 56.4835H53.2026C52.3584 56.4835 51.6758 55.8127 51.6758 54.9831V41.0121C51.6758 40.1825 52.3584 39.5117 53.2026 39.5117C54.0468 39.5117 54.7294 40.1825 54.7294 41.0121V53.4828H59.5881C60.4323 53.4828 61.1148 54.1535 61.1148 54.9831C61.1148 55.8127 60.4323 56.4835 59.5881 56.4835Z" fill="#898989"/>
<path d="M11.7107 65.6982C8.74698 65.6982 6.33105 63.3241 6.33105 60.4116C6.33105 57.4992 8.74698 55.1251 11.7107 55.1251C14.6744 55.1251 17.0903 57.4992 17.0903 60.4116C17.0903 63.3329 14.6744 65.6982 11.7107 65.6982ZM11.7107 58.1258C10.4264 58.1258 9.38463 59.1496 9.38463 60.4116C9.38463 61.6737 10.4264 62.6975 11.7107 62.6975C12.995 62.6975 14.0368 61.6737 14.0368 60.4116C14.0368 59.1496 12.986 58.1258 11.7107 58.1258ZM32.2771 75.0005C29.3134 75.0005 26.8975 72.6264 26.8975 69.7139C26.8975 66.8014 29.3134 64.4273 32.2771 64.4273C35.2408 64.4273 37.6567 66.8014 37.6567 69.7139C37.6567 72.6352 35.2408 75.0005 32.2771 75.0005ZM32.2771 67.4281C30.9928 67.4281 29.951 68.4518 29.951 69.7139C29.951 70.976 30.9928 71.9998 32.2771 71.9998C33.5614 71.9998 34.6032 70.976 34.6032 69.7139C34.6032 68.4518 33.5614 67.4281 32.2771 67.4281ZM52.2687 71.126C49.305 71.126 46.8891 68.7519 46.8891 65.8394C46.8891 62.927 49.305 60.5528 52.2687 60.5528C55.2324 60.5528 57.6483 62.927 57.6483 65.8394C57.6483 68.7607 55.2324 71.126 52.2687 71.126ZM52.2687 63.5536C50.9844 63.5536 49.9426 64.5774 49.9426 65.8394C49.9426 67.1015 50.9844 68.1253 52.2687 68.1253C53.553 68.1253 54.5948 67.1015 54.5948 65.8394C54.5948 64.5774 53.553 63.5536 52.2687 63.5536ZM63.441 60.2704C60.4773 60.2704 58.0614 57.8963 58.0614 54.9838C58.0614 52.0714 60.4773 49.6973 63.441 49.6973C66.4047 49.6973 68.8206 52.0714 68.8206 54.9838C68.8206 57.8963 66.4047 60.2704 63.441 60.2704ZM63.441 52.698C62.1568 52.698 61.115 53.7218 61.115 54.9838C61.115 56.2459 62.1568 57.2697 63.441 57.2697C64.7253 57.2697 65.7671 56.2459 65.7671 54.9838C65.7671 53.7218 64.7163 52.698 63.441 52.698Z" fill="#898989"/>
</svg>
