<svg width="24" height="16" viewBox="0 0 24 16" fill="none" xmlns="http://www.w3.org/2000/svg">
<path d="M23 7C23.5523 7 24 7.44772 24 8C24 8.55228 23.5523 9 23 9V7ZM1 8L0.292893 8.70711C-0.0976311 8.31658 -0.0976311 7.68342 0.292893 7.29289L1 8ZM7.29289 0.292893C7.68342 -0.0976311 8.31658 -0.0976311 8.70711 0.292893C9.09763 0.683417 9.09763 1.31658 8.70711 1.70711L7.29289 0.292893ZM8.70711 14.2929C9.09763 14.6834 9.09763 15.3166 8.70711 15.7071C8.31658 16.0976 7.68342 16.0976 7.29289 15.7071L8.70711 14.2929ZM23 9L1 9L1 7L23 7V9ZM8.70711 1.70711L1.70711 8.70711L0.292893 7.29289L7.29289 0.292893L8.70711 1.70711ZM1.70711 7.29289L8.70711 14.2929L7.29289 15.7071L0.292893 8.70711L1.70711 7.29289Z" fill="white"/>
</svg>
