<svg width="50" height="50" viewBox="0 0 50 50" fill="none" xmlns="http://www.w3.org/2000/svg">
<path d="M33.6538 21.1539L32.8845 20.9615C32.8845 20.9615 32.8845 20.7692 32.6922 20.7692L33.0768 20.1923C33.6538 19.4231 33.4615 18.4615 32.8845 17.6923L31.3461 16.1539C30.7692 15.3846 29.8076 15.3846 29.0384 15.9615L28.4615 16.3462H28.2692L28.0768 15.7692C27.8845 14.8077 27.1153 14.2308 26.1538 14.2308H24.0384C23.0768 14.2308 22.3076 14.8077 22.1153 15.7692L21.923 16.5385C21.923 16.5385 21.7307 16.5385 21.7307 16.7308L21.1538 16.3462C20.1922 15.3846 19.2307 15.3846 18.4615 16.1539L16.923 17.6923C16.3461 18.2692 16.1538 19.4231 16.7307 20.1923L17.1153 20.7692V20.9615L16.3461 21.1539C15.3845 21.3462 14.8076 22.1154 14.8076 23.0769V25.1923C14.8076 26.1539 15.3845 26.9231 16.3461 27.1154L17.1153 27.3077C17.1153 27.3077 17.1153 27.5 17.3076 27.5L16.923 28.0769C16.3461 28.8462 16.5384 30 17.1153 30.5769L18.6538 32.1154C19.2307 32.6923 20.3845 32.8846 21.1538 32.3077L21.7307 31.9231H21.923L22.1153 32.6923C22.3076 33.6539 23.0768 34.2308 24.0384 34.2308H26.1538C27.1153 34.2308 27.8845 33.6539 28.0768 32.6923L28.2692 31.9231C28.2692 31.9231 28.4615 31.9231 28.4615 31.7308L29.0384 32.1154C29.8076 32.6923 30.9615 32.5 31.5384 31.9231L33.0768 30.3846C33.6538 29.8077 33.8461 28.6539 33.2692 27.8846L32.8845 27.3077C32.8845 27.3077 32.8845 27.1154 33.0768 27.1154L33.6538 26.9231C34.6153 26.7308 35.1922 25.9615 35.1922 25V23.0769C35.1922 22.1154 34.6153 21.3462 33.6538 21.1539ZM33.2692 23.0769V25.1923L32.1153 25.3846C31.7307 25.3846 31.5384 25.7692 31.3461 25.9615C31.1538 26.3462 31.1538 26.7308 30.9615 26.9231C30.7692 27.3077 30.7692 27.5 30.9615 27.8846L31.5384 29.0385L29.9999 30.7692L29.0384 30C28.6538 29.8077 28.4615 29.8077 28.0768 30C27.6922 30.1923 27.4999 30.3846 27.1153 30.3846C26.7307 30.3846 26.5384 30.7692 26.3461 31.1539L25.9615 32.5H23.8461L23.6538 31.3462C23.6538 30.9615 23.2692 30.7692 22.8845 30.5769C22.4999 30.5769 22.3076 30.3846 21.923 30.1923C21.7307 30.1923 21.5384 30 21.5384 30C21.3461 30 21.1538 30 20.9615 30.1923L19.8076 30.7692L18.2692 29.2308L18.8461 28.2692C19.0384 28.0769 19.0384 27.6923 18.8461 27.3077C18.6538 26.9231 18.4615 26.7308 18.4615 26.3462C18.2692 25.9615 18.0768 25.7692 17.6922 25.7692L16.3461 25.3846V23.2692L17.4999 23.0769C17.8845 23.0769 18.0768 22.6923 18.2692 22.5C18.4615 22.1154 18.4615 21.9231 18.6538 21.5385C18.8461 21.1539 18.8461 20.9615 18.6538 20.5769L18.2692 19.0385L19.8076 17.5L20.7692 18.2692C21.1538 18.4615 21.5384 18.4615 21.7307 18.2692C22.1153 18.0769 22.3076 17.8846 22.6922 17.8846C23.0768 17.6923 23.2692 17.5 23.2692 17.1154L23.6538 15.7692H25.7692L25.9615 16.9231C25.9615 17.3077 26.3461 17.5 26.5384 17.6923C26.923 17.8846 27.3076 17.8846 27.4999 18.0769C27.8845 18.2692 28.2692 18.2692 28.4615 18.0769L29.6153 17.5L31.1538 19.0385L30.5768 20C30.3845 20.1923 30.3845 20.5769 30.5768 20.9615C30.7692 21.3462 30.9615 21.5385 30.9615 21.9231C31.1538 22.3077 31.3461 22.5 31.7307 22.5L33.2692 23.0769L33.4615 22.1154L33.2692 23.0769ZM24.9999 46.3462C26.3461 46.3462 27.4999 45.1923 27.4999 43.8462C27.4999 42.5 26.3461 41.3462 24.9999 41.3462C23.6538 41.3462 22.4999 42.5 22.4999 43.8462C22.4999 45.3846 23.6538 46.3462 24.9999 46.3462ZM24.9999 43.2692C25.3845 43.2692 25.5768 43.4615 25.5768 43.8462C25.5768 44.2308 25.3845 44.4231 24.9999 44.4231C24.6153 44.4231 24.423 44.2308 24.423 43.8462C24.423 43.6538 24.6153 43.2692 24.9999 43.2692ZM28.4615 4.23077H21.5384C20.9615 4.23077 20.5768 4.61539 20.5768 5.19231C20.5768 5.76924 20.9615 6.15385 21.5384 6.15385H28.4615C29.0384 6.15385 29.423 5.76924 29.423 5.19231C29.423 4.61539 29.0384 4.23077 28.4615 4.23077Z" fill="#898989"/>
<path d="M14.4229 0.961548C11.7306 0.961548 9.61523 3.07693 9.61523 5.76924C9.61523 20.1923 9.61523 29.8077 9.61523 44.2308C9.61523 46.9231 11.7306 49.0385 14.4229 49.0385H35.7691C38.4614 49.0385 40.5768 46.9231 40.5768 44.2308C40.5768 20.9615 40.5768 29.6154 40.5768 5.76924C40.5768 3.07693 38.4614 0.961548 35.7691 0.961548H14.4229ZM11.5383 9.23078H38.4614V38.8462H11.5383V9.23078ZM38.4614 44.2308C38.4614 45.7692 37.1152 47.1154 35.5768 47.1154H14.4229C12.6922 47.1154 11.5383 45.7692 11.5383 44.2308V40.7692H38.4614V44.2308ZM38.4614 5.76924V7.3077H11.5383V5.76924C11.5383 4.23078 12.8845 2.88462 14.4229 2.88462H35.7691C37.3075 2.88462 38.4614 4.23078 38.4614 5.76924Z" fill="#898989"/>
<path d="M25.0001 19.2308C22.3078 19.2308 20.1924 21.3462 20.1924 24.0385C20.1924 26.7308 22.3078 28.8462 25.0001 28.8462C27.6924 28.8462 29.8078 26.7308 29.8078 24.0385C29.8078 21.3462 27.6924 19.2308 25.0001 19.2308ZM25.0001 26.9231C23.4616 26.9231 22.1155 25.5769 22.1155 24.0385C22.1155 22.5 23.4616 21.1539 25.0001 21.1539C26.5385 21.1539 27.8847 22.5 27.8847 24.0385C27.8847 25.5769 26.5385 26.9231 25.0001 26.9231Z" fill="#898989"/>
</svg>
