<svg width="24" height="16" viewBox="0 0 24 16" fill="none" xmlns="http://www.w3.org/2000/svg">
<path d="M1 7C0.447716 7 0 7.44772 0 8C0 8.55228 0.447716 9 1 9V7ZM23 8L23.7071 8.70711C24.0976 8.31658 24.0976 7.68342 23.7071 7.29289L23 8ZM16.7071 0.292893C16.3166 -0.0976311 15.6834 -0.0976311 15.2929 0.292893C14.9024 0.683417 14.9024 1.31658 15.2929 1.70711L16.7071 0.292893ZM15.2929 14.2929C14.9024 14.6834 14.9024 15.3166 15.2929 15.7071C15.6834 16.0976 16.3166 16.0976 16.7071 15.7071L15.2929 14.2929ZM1 9L23 9V7L1 7V9ZM15.2929 1.70711L22.2929 8.70711L23.7071 7.29289L16.7071 0.292893L15.2929 1.70711ZM22.2929 7.29289L15.2929 14.2929L16.7071 15.7071L23.7071 8.70711L22.2929 7.29289Z" fill="white"/>
</svg>
