<svg width="20" height="20" viewBox="0 0 20 20" fill="none" xmlns="http://www.w3.org/2000/svg">
<path d="M18.4766 8.19939L3.3866 0.898056C3.02388 0.720922 2.61585 0.658324 2.21671 0.718576C1.81757 0.778828 1.4462 0.959079 1.15193 1.23539C0.855387 1.50948 0.64934 1.86737 0.561212 2.26145C0.473083 2.65552 0.507053 3.06709 0.658599 3.44139L3.28193 10.0001L0.657932 16.5594C0.50644 16.9336 0.4725 17.345 0.560629 17.739C0.648758 18.133 0.854776 18.4907 1.15127 18.7647C1.44546 19.0411 1.81679 19.2215 2.21594 19.2819C2.61508 19.3423 3.02315 19.2798 3.38593 19.1027L18.4759 11.8014C19.1719 11.4641 19.6046 10.7741 19.6046 10.0007C19.6046 9.22739 19.1726 8.53672 18.4766 8.19939ZM1.8966 2.94606C1.8446 2.8214 1.83252 2.6837 1.86201 2.5519C1.8915 2.42009 1.96111 2.30067 2.06127 2.21006C2.11727 2.15739 2.28127 2.02672 2.51127 2.02672C2.6006 2.02672 2.69927 2.04606 2.80593 2.09806L17.7586 9.33339H4.45127L1.8966 2.94606ZM2.80593 17.9021C2.42593 18.0867 2.13927 17.8621 2.0606 17.7894C1.96061 17.6988 1.89115 17.5795 1.86179 17.4478C1.83242 17.3161 1.84458 17.1785 1.8966 17.0541L4.45127 10.6667H17.7586L2.80593 17.9021Z" fill="#FF0000"/>
</svg>
