<svg width="48" height="48" viewBox="0 0 48 48" fill="none" xmlns="http://www.w3.org/2000/svg">
<path fill-rule="evenodd" clip-rule="evenodd" d="M10 47C6.5203 47 4 44.4797 4 41V13C4 12.0214 4.5611 10.8736 5 10C5.2926 9.4176 6.62593 6.75093 9 2C9.2667 1.4666 9.4036 1 10 1C10.5964 1 10.7333 1.4666 11 2L15 10C15.4389 10.8736 16 12.0214 16 13V41C16 44.4797 13.4797 47 10 47ZM4 13H16H4ZM4 39H16H4ZM24 4C24 2.342 25.2612 1 27 1H40C41.7388 1 43 2.342 43 4V44C43 45.658 41.3388 47 39.6 47H27C25.2612 47 24 45.658 24 44V4Z" stroke="#898989" stroke-width="1.5" stroke-linecap="round" stroke-linejoin="round"/>
<path d="M24 38H30.3M24 11H30.3H24ZM24 20H30.3H24ZM24 29H30.3H24Z" stroke="#898989" stroke-width="1.5" stroke-linecap="round" stroke-linejoin="round"/>
</svg>
