<svg width="17" height="24" viewBox="0 0 17 24" fill="none" xmlns="http://www.w3.org/2000/svg">
<path d="M9.5 1C9.5 0.447716 9.05228 0 8.5 0C7.94772 0 7.5 0.447716 7.5 1H9.5ZM8.5 23L7.79289 23.7071C8.18342 24.0976 8.81658 24.0976 9.20711 23.7071L8.5 23ZM16.2071 16.7071C16.5976 16.3166 16.5976 15.6834 16.2071 15.2929C15.8166 14.9024 15.1834 14.9024 14.7929 15.2929L16.2071 16.7071ZM2.20711 15.2929C1.81658 14.9024 1.18342 14.9024 0.792893 15.2929C0.402369 15.6834 0.402369 16.3166 0.792893 16.7071L2.20711 15.2929ZM7.5 1V23H9.5V1H7.5ZM14.7929 15.2929L7.79289 22.2929L9.20711 23.7071L16.2071 16.7071L14.7929 15.2929ZM9.20711 22.2929L2.20711 15.2929L0.792893 16.7071L7.79289 23.7071L9.20711 22.2929Z" fill="white"/>
</svg>
