<svg width="17" height="24" viewBox="0 0 17 24" fill="none" xmlns="http://www.w3.org/2000/svg">
<path d="M9.5 23C9.5 23.5523 9.05228 24 8.5 24C7.94772 24 7.5 23.5523 7.5 23H9.5ZM8.5 1L7.79289 0.292893C8.18342 -0.0976311 8.81658 -0.0976311 9.20711 0.292893L8.5 1ZM16.2071 7.29289C16.5976 7.68342 16.5976 8.31658 16.2071 8.70711C15.8166 9.09763 15.1834 9.09763 14.7929 8.70711L16.2071 7.29289ZM2.20711 8.70711C1.81658 9.09763 1.18342 9.09763 0.792893 8.70711C0.402369 8.31658 0.402369 7.68342 0.792893 7.29289L2.20711 8.70711ZM7.5 23V1H9.5V23H7.5ZM14.7929 8.70711L7.79289 1.70711L9.20711 0.292893L16.2071 7.29289L14.7929 8.70711ZM9.20711 1.70711L2.20711 8.70711L0.792893 7.29289L7.79289 0.292893L9.20711 1.70711Z" fill="white"/>
</svg>
