<svg width="56" height="48" viewBox="0 0 56 48" fill="none" xmlns="http://www.w3.org/2000/svg">
<path d="M54.72 0H0.96C0.705392 0 0.461212 0.101143 0.281177 0.281178C0.101143 0.461213 0 0.705392 0 0.96V47.04C0 47.2946 0.101143 47.5388 0.281177 47.7188C0.461212 47.8989 0.705392 48 0.96 48H54.72C54.9746 48 55.2188 47.8989 55.3988 47.7188C55.5789 47.5388 55.68 47.2946 55.68 47.04V0.96C55.68 0.705392 55.5789 0.461213 55.3988 0.281178C55.2188 0.101143 54.9746 0 54.72 0ZM1.92 1.92H13.44V46.08H1.92V1.92ZM53.76 46.08H15.36V1.92H53.76V46.08Z" fill="#898989"/>
<path d="M4.80033 7.68001H10.5603C10.8149 7.68001 11.0591 7.57887 11.2392 7.39883C11.4192 7.2188 11.5203 6.97462 11.5203 6.72001C11.5203 6.4654 11.4192 6.22122 11.2392 6.04119C11.0591 5.86115 10.8149 5.76001 10.5603 5.76001H4.80033C4.54572 5.76001 4.30154 5.86115 4.12151 6.04119C3.94147 6.22122 3.84033 6.4654 3.84033 6.72001C3.84033 6.97462 3.94147 7.2188 4.12151 7.39883C4.30154 7.57887 4.54572 7.68001 4.80033 7.68001ZM10.5603 11.52H4.80033C4.54572 11.52 4.30154 11.6212 4.12151 11.8012C3.94147 11.9812 3.84033 12.2254 3.84033 12.48C3.84033 12.7346 3.94147 12.9788 4.12151 13.1588C4.30154 13.3389 4.54572 13.44 4.80033 13.44H10.5603C10.8149 13.44 11.0591 13.3389 11.2392 13.1588C11.4192 12.9788 11.5203 12.7346 11.5203 12.48C11.5203 12.2254 11.4192 11.9812 11.2392 11.8012C11.0591 11.6212 10.8149 11.52 10.5603 11.52ZM10.5603 17.28H4.80033C4.54572 17.28 4.30154 17.3812 4.12151 17.5612C3.94147 17.7412 3.84033 17.9854 3.84033 18.24C3.84033 18.4946 3.94147 18.7388 4.12151 18.9188C4.30154 19.0989 4.54572 19.2 4.80033 19.2H10.5603C10.8149 19.2 11.0591 19.0989 11.2392 18.9188C11.4192 18.7388 11.5203 18.4946 11.5203 18.24C11.5203 17.9854 11.4192 17.7412 11.2392 17.5612C11.0591 17.3812 10.8149 17.28 10.5603 17.28ZM22.9059 24.7392L28.6659 29.5392C28.8386 29.6823 29.056 29.7605 29.2803 29.76C29.4214 29.7602 29.5607 29.7294 29.6885 29.6697C29.8162 29.6099 29.9293 29.5228 30.0195 29.4144C30.1004 29.3174 30.1613 29.2054 30.1988 29.0848C30.2362 28.9642 30.2496 28.8375 30.238 28.7117C30.2264 28.586 30.1901 28.4638 30.1312 28.3521C30.0723 28.2404 29.9919 28.1414 29.8947 28.0608L25.0179 24L29.8947 19.9392C30.0908 19.7763 30.2141 19.5421 30.2375 19.2883C30.2609 19.0344 30.1825 18.7817 30.0195 18.5856C29.8566 18.3896 29.6224 18.2663 29.3686 18.2429C29.1147 18.2195 28.862 18.2979 28.6659 18.4608L22.9059 23.2608C22.7972 23.3509 22.7097 23.4638 22.6497 23.5916C22.5896 23.7194 22.5585 23.8588 22.5585 24C22.5585 24.1412 22.5896 24.2806 22.6497 24.4084C22.7097 24.5362 22.7972 24.6491 22.9059 24.7392ZM39.1011 29.4144C39.1914 29.5228 39.3044 29.6099 39.4322 29.6697C39.56 29.7294 39.6993 29.7602 39.8403 29.76C40.0646 29.7605 40.282 29.6823 40.4547 29.5392L46.2147 24.7392C46.3234 24.6491 46.411 24.5362 46.471 24.4084C46.5311 24.2806 46.5622 24.1412 46.5622 24C46.5622 23.8588 46.5311 23.7194 46.471 23.5916C46.411 23.4638 46.3234 23.3509 46.2147 23.2608L40.4547 18.4608C40.2587 18.2979 40.0059 18.2195 39.7521 18.2429C39.4982 18.2663 39.2641 18.3896 39.1011 18.5856C38.9382 18.7817 38.8598 19.0344 38.8832 19.2883C38.9066 19.5421 39.0299 19.7763 39.2259 19.9392L44.1027 24L39.2259 28.0608C39.1287 28.1414 39.0484 28.2404 38.9895 28.3521C38.9306 28.4638 38.8943 28.586 38.8827 28.7117C38.8711 28.8375 38.8844 28.9642 38.9219 29.0848C38.9594 29.2054 39.0203 29.3174 39.1011 29.4144ZM32.2851 29.6928C32.3982 29.7375 32.5187 29.7603 32.6403 29.76C32.8326 29.7602 33.0205 29.7026 33.1797 29.5948C33.3389 29.487 33.462 29.3338 33.5331 29.1552L37.3731 19.5552C37.4673 19.3184 37.4636 19.0539 37.3628 18.8199C37.262 18.5858 37.0723 18.4014 36.8355 18.3072C36.5988 18.213 36.3342 18.2167 36.1002 18.3175C35.8661 18.4184 35.6817 18.608 35.5875 18.8448L31.7475 28.4448C31.7008 28.562 31.6776 28.6873 31.6793 28.8135C31.681 28.9398 31.7076 29.0644 31.7575 29.1803C31.8075 29.2962 31.8798 29.4011 31.9703 29.4891C32.0608 29.577 32.1678 29.6463 32.2851 29.6928Z" fill="#898989"/>
</svg>
