<svg width="600" height="422" viewBox="0 0 600 422" fill="none" xmlns="http://www.w3.org/2000/svg">
<path d="M430.183 109.452C429.471 109.452 428.78 109.549 428.116 109.716C427.628 107.012 425.265 104.955 422.419 104.955C421.949 104.955 421.491 105.016 421.056 105.122C421.069 104.942 421.082 104.761 421.082 104.577C421.082 99.8777 417.268 96.0665 412.566 96.0665C411.554 96.0665 410.586 96.2512 409.685 96.5765C408.202 91.6971 403.672 88.1452 398.305 88.1452C392.27 88.1452 387.295 92.6422 386.525 98.4667C384.629 97.227 382.372 96.5017 379.94 96.5017C373.284 96.5017 367.891 101.891 367.891 108.542C367.891 109.447 368.001 110.327 368.191 111.175C367.755 111.1 367.315 111.052 366.858 111.052C362.604 111.052 359.16 114.498 359.16 118.745C359.16 122.868 362.406 126.222 366.479 126.42L366.475 126.437H429.347L429.321 126.393C429.607 126.424 429.897 126.437 430.188 126.437C434.881 126.437 438.686 122.635 438.686 117.945C438.686 113.254 434.877 109.452 430.183 109.452Z" fill="#E0E6FF"/>
<path d="M166.056 164.804C165.343 164.804 164.652 164.901 163.988 165.068C163.5 162.365 161.138 160.307 158.292 160.307C157.821 160.307 157.364 160.369 156.928 160.474C156.941 160.294 156.955 160.114 156.955 159.929C156.955 155.23 153.141 151.419 148.438 151.419C147.427 151.419 146.459 151.604 145.557 151.929C144.075 147.049 139.544 143.498 134.177 143.498C128.142 143.498 123.167 147.995 122.397 153.819C120.501 152.579 118.245 151.854 115.812 151.854C109.157 151.854 103.764 157.243 103.764 163.894C103.764 164.8 103.874 165.679 104.063 166.527C103.628 166.453 103.188 166.404 102.73 166.404C98.4765 166.404 95.0322 169.851 95.0322 174.097C95.0322 178.22 98.2786 181.574 102.352 181.772L102.347 181.79H165.22L165.194 181.746C165.479 181.777 165.77 181.79 166.06 181.79C170.754 181.79 174.559 177.987 174.559 173.297C174.554 168.607 170.749 164.804 166.056 164.804Z" fill="#E0E6FF"/>
<path d="M444.207 216.842C444.919 216.842 445.61 216.939 446.274 217.106C446.763 214.402 449.125 212.345 451.971 212.345C452.441 212.345 452.899 212.407 453.334 212.512C453.321 212.332 453.308 212.152 453.308 211.967C453.308 207.268 457.122 203.457 461.824 203.457C462.836 203.457 463.804 203.641 464.705 203.967C466.188 199.087 470.719 195.535 476.085 195.535C482.12 195.535 487.095 200.032 487.865 205.857C489.761 204.617 492.018 203.892 494.45 203.892C501.106 203.892 506.499 209.281 506.499 215.932C506.499 216.838 506.389 217.717 506.199 218.565C506.635 218.49 507.075 218.442 507.532 218.442C511.786 218.442 515.23 221.888 515.23 226.135C515.23 230.258 511.984 233.612 507.911 233.81L507.915 233.828H445.043L445.069 233.784C444.783 233.814 444.493 233.828 444.202 233.828C439.509 233.828 435.704 230.025 435.704 225.335C435.704 220.644 439.509 216.842 444.207 216.842Z" fill="#E0E6FF"/>
<path d="M139.324 315.704C137.538 315.704 135.66 315.419 133.751 314.856C133.328 314.733 133.086 314.289 133.21 313.862C133.333 313.44 133.781 313.199 134.199 313.322C136.289 313.937 138.303 314.197 140.221 314.078C140.652 314.056 141.04 314.386 141.066 314.825C141.092 315.265 140.758 315.643 140.318 315.669C139.993 315.691 139.658 315.704 139.324 315.704ZM128.138 312.346C128.006 312.346 127.869 312.311 127.742 312.24C125.956 311.221 124.152 309.981 122.38 308.552C122.037 308.275 121.984 307.774 122.261 307.431C122.538 307.089 123.04 307.036 123.383 307.313C125.089 308.689 126.823 309.88 128.534 310.856C128.916 311.076 129.048 311.563 128.833 311.946C128.683 312.201 128.415 312.346 128.138 312.346ZM118.179 304.411C117.968 304.411 117.761 304.328 117.603 304.17C116.142 302.662 114.717 301.018 113.362 299.286C113.089 298.939 113.151 298.438 113.499 298.165C113.846 297.892 114.347 297.954 114.62 298.301C115.94 299.989 117.334 301.589 118.755 303.058C119.063 303.374 119.054 303.88 118.738 304.187C118.575 304.337 118.377 304.411 118.179 304.411ZM110.296 294.38C110.032 294.38 109.777 294.253 109.623 294.011C108.466 292.209 107.38 290.327 106.39 288.424C106.188 288.033 106.337 287.549 106.729 287.347C107.12 287.145 107.604 287.294 107.806 287.685C108.774 289.545 109.839 291.382 110.969 293.145C111.207 293.514 111.101 294.011 110.727 294.248C110.591 294.341 110.441 294.38 110.296 294.38ZM104.415 283.065C104.098 283.065 103.803 282.876 103.676 282.569C102.853 280.555 102.132 278.502 101.529 276.472C101.406 276.05 101.644 275.606 102.066 275.478C102.488 275.355 102.933 275.592 103.06 276.014C103.65 277.997 104.353 279.997 105.154 281.966C105.321 282.375 105.123 282.841 104.714 283.008C104.617 283.048 104.516 283.065 104.415 283.065ZM100.808 270.832C100.43 270.832 100.095 270.564 100.025 270.177C99.6334 268.01 99.3739 265.847 99.2507 263.741C99.2243 263.302 99.563 262.924 100.003 262.902C100.456 262.88 100.821 263.214 100.847 263.653C100.962 265.693 101.213 267.79 101.595 269.895C101.674 270.331 101.384 270.744 100.953 270.823C100.905 270.827 100.856 270.832 100.808 270.832ZM100.13 258.115C100.108 258.115 100.086 258.115 100.064 258.11C99.6246 258.075 99.2991 257.688 99.3343 257.249C99.4091 256.361 99.5146 255.468 99.6422 254.593C99.8314 253.336 100.042 252.079 100.267 250.857C100.346 250.422 100.768 250.14 101.199 250.22C101.635 250.299 101.921 250.716 101.837 251.152C101.613 252.352 101.406 253.587 101.221 254.826C101.098 255.666 100.997 256.523 100.922 257.38C100.887 257.802 100.54 258.115 100.13 258.115ZM102.444 245.586C102.378 245.586 102.308 245.578 102.242 245.56C101.815 245.45 101.56 245.011 101.67 244.589C102.224 242.474 102.853 240.404 103.548 238.43C103.694 238.012 104.151 237.797 104.564 237.942C104.982 238.087 105.198 238.544 105.053 238.957C104.375 240.892 103.755 242.918 103.214 244.993C103.122 245.349 102.796 245.586 102.444 245.586ZM106.68 233.577C106.57 233.577 106.456 233.555 106.346 233.502C105.946 233.318 105.77 232.843 105.955 232.443C106.865 230.46 107.872 228.535 108.946 226.724C109.17 226.346 109.663 226.218 110.041 226.443C110.419 226.667 110.547 227.155 110.323 227.537C109.276 229.304 108.295 231.177 107.411 233.111C107.274 233.406 106.984 233.577 106.68 233.577ZM113.182 222.636C113.015 222.636 112.843 222.583 112.702 222.473C112.35 222.205 112.28 221.708 112.548 221.357C113.85 219.638 115.267 217.985 116.754 216.442C117.062 216.126 117.567 216.117 117.884 216.42C118.201 216.728 118.21 217.229 117.906 217.55C116.463 219.044 115.091 220.653 113.828 222.319C113.661 222.526 113.424 222.636 113.182 222.636ZM348.361 218.108C347.974 218.108 347.582 218.108 347.191 218.104C346.751 218.099 346.394 217.743 346.399 217.299C346.403 216.86 346.759 216.508 347.199 216.508H347.204C349.368 216.521 351.519 216.495 353.56 216.429C353.982 216.407 354.369 216.759 354.383 217.198C354.396 217.638 354.053 218.007 353.613 218.02C351.915 218.077 350.151 218.108 348.361 218.108ZM340.812 217.95C340.803 217.95 340.79 217.95 340.781 217.95C338.723 217.866 336.567 217.752 334.381 217.603C333.941 217.572 333.607 217.194 333.638 216.754C333.669 216.315 334.051 215.98 334.487 216.011C336.66 216.156 338.802 216.275 340.843 216.354C341.283 216.372 341.626 216.741 341.608 217.185C341.591 217.611 341.239 217.95 340.812 217.95ZM359.96 217.66C359.551 217.66 359.199 217.343 359.164 216.926C359.129 216.486 359.454 216.099 359.894 216.064C362.067 215.884 364.183 215.651 366.194 215.361C366.629 215.295 367.034 215.602 367.095 216.038C367.157 216.473 366.853 216.877 366.418 216.939C364.377 217.229 362.226 217.471 360.022 217.651C360.004 217.655 359.982 217.66 359.96 217.66ZM328.064 217.101C328.038 217.101 328.016 217.101 327.99 217.097C325.944 216.912 323.798 216.697 321.616 216.46C321.176 216.411 320.864 216.016 320.908 215.58C320.956 215.141 321.352 214.829 321.787 214.873C323.96 215.11 326.094 215.325 328.13 215.51C328.57 215.55 328.891 215.937 328.852 216.376C328.821 216.789 328.474 217.101 328.064 217.101ZM372.638 216.095C372.242 216.095 371.894 215.8 371.846 215.396C371.793 214.961 372.101 214.561 372.541 214.508C374.63 214.249 376.746 213.95 378.84 213.616C379.271 213.545 379.685 213.844 379.755 214.275C379.825 214.71 379.526 215.119 379.091 215.189C376.979 215.528 374.842 215.831 372.735 216.09C372.704 216.09 372.669 216.095 372.638 216.095ZM315.361 215.717C315.325 215.717 315.295 215.717 315.259 215.712C313.232 215.457 311.098 215.176 308.916 214.873C308.481 214.811 308.177 214.411 308.235 213.972C308.296 213.536 308.701 213.229 309.136 213.29C311.309 213.594 313.438 213.875 315.462 214.13C315.897 214.187 316.21 214.583 316.152 215.022C316.1 215.422 315.757 215.717 315.361 215.717ZM385.258 214.073C384.884 214.073 384.55 213.809 384.475 213.426C384.391 212.996 384.673 212.574 385.104 212.49C387.185 212.081 389.274 211.633 391.324 211.154C391.755 211.053 392.182 211.321 392.283 211.747C392.384 212.178 392.116 212.604 391.689 212.706C389.622 213.189 387.51 213.642 385.412 214.055C385.359 214.068 385.306 214.073 385.258 214.073ZM302.701 213.963C302.661 213.963 302.622 213.958 302.582 213.954C300.488 213.642 298.381 213.312 296.261 212.978C295.825 212.908 295.531 212.499 295.597 212.064C295.667 211.629 296.072 211.33 296.512 211.4C298.628 211.734 300.73 212.059 302.82 212.371C303.255 212.437 303.554 212.842 303.493 213.277C303.431 213.677 303.092 213.963 302.701 213.963ZM122.015 213.479C121.782 213.479 121.553 213.378 121.394 213.185C121.117 212.842 121.166 212.341 121.509 212.064C123.158 210.719 124.922 209.444 126.748 208.275C127.117 208.037 127.614 208.143 127.852 208.516C128.089 208.886 127.984 209.382 127.61 209.62C125.833 210.758 124.122 211.998 122.516 213.303C122.371 213.418 122.195 213.479 122.015 213.479ZM290.081 211.963C290.037 211.963 289.993 211.958 289.949 211.954C287.855 211.607 285.752 211.255 283.641 210.894C283.205 210.82 282.915 210.407 282.99 209.976C283.064 209.541 283.482 209.25 283.909 209.325C286.016 209.686 288.114 210.037 290.208 210.38C290.644 210.451 290.938 210.864 290.864 211.299C290.802 211.686 290.463 211.963 290.081 211.963ZM397.698 211.163C397.346 211.163 397.025 210.93 396.928 210.574C396.814 210.147 397.064 209.708 397.487 209.593C399.541 209.031 401.591 208.428 403.584 207.8C404.001 207.668 404.454 207.901 404.586 208.319C404.718 208.741 404.485 209.189 404.067 209.321C402.057 209.954 399.985 210.565 397.909 211.132C397.839 211.154 397.768 211.163 397.698 211.163ZM277.478 209.826C277.434 209.826 277.386 209.822 277.342 209.813C275.243 209.448 273.141 209.083 271.034 208.714C270.598 208.639 270.308 208.226 270.387 207.791C270.462 207.356 270.875 207.07 271.311 207.145C273.418 207.514 275.52 207.879 277.619 208.244C278.054 208.319 278.345 208.732 278.27 209.167C278.199 209.549 277.861 209.826 277.478 209.826ZM264.871 207.62C264.827 207.62 264.779 207.615 264.73 207.606C262.632 207.237 260.534 206.872 258.431 206.507C257.996 206.433 257.705 206.02 257.78 205.584C257.855 205.149 258.268 204.859 258.704 204.934C260.806 205.299 262.905 205.668 265.003 206.033C265.438 206.107 265.729 206.521 265.65 206.956C265.588 207.347 265.249 207.62 264.871 207.62ZM409.878 207.316C409.553 207.316 409.245 207.114 409.126 206.789C408.977 206.376 409.192 205.918 409.606 205.769C411.611 205.044 413.608 204.274 415.535 203.479C415.944 203.312 416.411 203.505 416.578 203.914C416.745 204.323 416.551 204.789 416.142 204.956C414.194 205.76 412.179 206.538 410.147 207.272C410.063 207.299 409.971 207.316 409.878 207.316ZM132.73 206.591C132.435 206.591 132.154 206.428 132.018 206.151C131.82 205.756 131.978 205.277 132.374 205.079C134.252 204.138 136.236 203.259 138.277 202.468C138.686 202.305 139.152 202.512 139.311 202.92C139.469 203.329 139.267 203.795 138.853 203.953C136.861 204.727 134.921 205.584 133.086 206.503C132.972 206.565 132.849 206.591 132.73 206.591ZM252.273 205.435C252.229 205.435 252.185 205.43 252.136 205.422C250.038 205.066 247.94 204.71 245.842 204.362C245.406 204.292 245.111 203.879 245.186 203.444C245.261 203.008 245.67 202.714 246.106 202.789C248.204 203.136 250.306 203.492 252.405 203.852C252.84 203.927 253.13 204.34 253.056 204.771C252.99 205.162 252.655 205.435 252.273 205.435ZM239.674 203.347C239.63 203.347 239.591 203.342 239.547 203.338C237.444 203.004 235.346 202.674 233.252 202.353C232.817 202.287 232.518 201.879 232.584 201.443C232.65 201.008 233.063 200.709 233.494 200.775C235.592 201.096 237.695 201.426 239.802 201.76C240.238 201.83 240.532 202.239 240.466 202.674C240.4 203.066 240.062 203.347 239.674 203.347ZM421.689 202.437C421.39 202.437 421.1 202.265 420.968 201.98C420.779 201.58 420.95 201.105 421.35 200.92C423.286 200.01 425.199 199.057 427.029 198.076C427.416 197.87 427.905 198.015 428.111 198.402C428.318 198.788 428.173 199.272 427.786 199.483C425.93 200.476 423.994 201.443 422.032 202.367C421.918 202.415 421.803 202.437 421.689 202.437ZM144.607 201.953C144.264 201.953 143.947 201.729 143.842 201.382C143.718 200.96 143.956 200.516 144.378 200.388C146.375 199.795 148.474 199.254 150.616 198.784C151.047 198.687 151.474 198.96 151.566 199.391C151.663 199.821 151.39 200.248 150.959 200.34C148.852 200.806 146.793 201.338 144.831 201.918C144.757 201.945 144.682 201.953 144.607 201.953ZM227.054 201.426C227.015 201.426 226.979 201.421 226.94 201.417C224.789 201.109 222.66 200.819 220.619 200.551C220.183 200.494 219.875 200.094 219.933 199.654C219.99 199.219 220.394 198.911 220.83 198.969C222.88 199.237 225.013 199.531 227.169 199.839C227.604 199.9 227.908 200.305 227.846 200.74C227.784 201.14 227.446 201.426 227.054 201.426ZM214.381 199.769C214.35 199.769 214.32 199.769 214.284 199.764C212.133 199.509 210.004 199.276 207.946 199.065C207.506 199.021 207.189 198.63 207.233 198.191C207.277 197.751 207.669 197.43 208.108 197.478C210.172 197.689 212.314 197.927 214.474 198.182C214.913 198.234 215.226 198.63 215.173 199.07C215.125 199.47 214.781 199.769 214.381 199.769ZM157.06 199.175C156.673 199.175 156.334 198.894 156.273 198.503C156.202 198.067 156.501 197.659 156.937 197.588C158.991 197.263 161.133 196.982 163.311 196.753C163.751 196.705 164.142 197.026 164.186 197.461C164.235 197.9 163.913 198.292 163.478 198.34C161.331 198.569 159.216 198.845 157.188 199.166C157.144 199.175 157.104 199.175 157.06 199.175ZM201.669 198.476C201.647 198.476 201.625 198.476 201.603 198.472C199.447 198.292 197.309 198.133 195.246 198.006C194.806 197.98 194.472 197.601 194.499 197.158C194.525 196.718 194.908 196.388 195.343 196.41C197.419 196.542 199.566 196.7 201.73 196.881C202.17 196.916 202.496 197.303 202.46 197.742C202.43 198.16 202.078 198.476 201.669 198.476ZM169.76 197.821C169.342 197.821 168.99 197.496 168.963 197.07C168.937 196.63 169.271 196.252 169.711 196.226C171.783 196.098 173.938 196.01 176.125 195.962C176.582 195.953 176.93 196.3 176.943 196.74C176.952 197.179 176.604 197.544 176.164 197.558C174 197.606 171.862 197.694 169.812 197.817C169.79 197.821 169.773 197.821 169.76 197.821ZM188.916 197.681C188.908 197.681 188.894 197.681 188.886 197.681C186.726 197.597 184.584 197.544 182.52 197.522C182.081 197.518 181.724 197.158 181.729 196.718C181.733 196.278 182.089 195.927 182.529 195.927C182.534 195.927 182.534 195.927 182.538 195.927C184.614 195.949 186.77 196.001 188.947 196.085C189.387 196.103 189.73 196.472 189.713 196.911C189.695 197.342 189.343 197.681 188.916 197.681ZM432.95 196.406C432.682 196.406 432.418 196.27 432.268 196.023C432.04 195.645 432.158 195.157 432.532 194.924C434.362 193.808 436.144 192.643 437.833 191.46C438.194 191.206 438.691 191.293 438.946 191.654C439.201 192.014 439.113 192.511 438.752 192.766C437.032 193.971 435.22 195.153 433.364 196.287C433.236 196.366 433.095 196.406 432.95 196.406ZM443.397 189.074C443.164 189.074 442.935 188.972 442.777 188.779C442.5 188.436 442.553 187.935 442.896 187.658C444.554 186.317 446.155 184.92 447.655 183.5C447.977 183.196 448.478 183.21 448.786 183.53C449.089 183.851 449.076 184.357 448.755 184.66C447.224 186.106 445.592 187.531 443.903 188.898C443.754 189.016 443.573 189.074 443.397 189.074ZM452.661 180.304C452.472 180.304 452.283 180.238 452.129 180.102C451.799 179.807 451.773 179.302 452.067 178.976C453.484 177.394 454.825 175.754 456.057 174.093C456.321 173.741 456.823 173.666 457.174 173.93C457.526 174.194 457.601 174.69 457.337 175.046C456.075 176.743 454.702 178.427 453.255 180.04C453.097 180.216 452.877 180.304 452.661 180.304ZM460.249 170.075C460.108 170.075 459.968 170.04 459.84 169.96C459.462 169.732 459.339 169.244 459.567 168.866C460.654 167.064 461.652 165.2 462.541 163.318C462.73 162.918 463.205 162.751 463.606 162.936C464.006 163.125 464.177 163.6 463.988 164C463.078 165.929 462.053 167.842 460.94 169.688C460.786 169.934 460.518 170.075 460.249 170.075ZM465.677 158.562C465.589 158.562 465.501 158.549 465.413 158.518C464.996 158.373 464.78 157.916 464.925 157.503C465.616 155.538 466.214 153.507 466.702 151.467C466.803 151.041 467.235 150.773 467.666 150.878C468.092 150.979 468.361 151.41 468.255 151.841C467.754 153.933 467.138 156.017 466.43 158.035C466.315 158.355 466.007 158.562 465.677 158.562ZM451.095 155.344C450.695 155.344 450.352 155.045 450.303 154.641C450.251 154.206 450.563 153.806 450.999 153.753C453.066 153.502 455.072 152.988 456.959 152.215C457.368 152.047 457.834 152.245 458.001 152.65C458.169 153.059 457.975 153.524 457.566 153.692C455.547 154.518 453.405 155.072 451.192 155.336C451.161 155.344 451.13 155.344 451.095 155.344ZM444.73 155.265C444.691 155.265 444.651 155.261 444.611 155.256C442.35 154.918 440.226 154.267 438.295 153.322C437.899 153.129 437.736 152.65 437.93 152.254C438.123 151.858 438.603 151.696 438.998 151.889C440.78 152.76 442.746 153.362 444.849 153.678C445.284 153.744 445.588 154.149 445.522 154.584C445.46 154.979 445.122 155.265 444.73 155.265ZM462.743 150.522C462.51 150.522 462.281 150.421 462.123 150.228C461.846 149.885 461.894 149.384 462.237 149.107C462.823 148.628 463.386 148.113 463.905 147.577C464.89 146.636 465.805 145.674 466.641 144.693C466.667 144.662 466.694 144.636 466.72 144.61C466.496 142.794 466.104 141.01 465.55 139.286C465.413 138.869 465.647 138.416 466.064 138.284C466.487 138.148 466.935 138.381 467.072 138.798C467.74 140.869 468.185 143.023 468.396 145.208C468.44 145.647 468.114 146.034 467.679 146.078C467.639 146.082 467.595 146.082 467.556 146.082C466.768 146.983 465.924 147.863 465.035 148.711C464.494 149.269 463.887 149.828 463.249 150.346C463.1 150.465 462.919 150.522 462.743 150.522ZM433.557 149.625C433.342 149.625 433.122 149.537 432.963 149.362C431.45 147.691 430.328 145.753 429.625 143.594C429.488 143.177 429.717 142.724 430.135 142.588C430.557 142.451 431.006 142.68 431.142 143.098C431.776 145.041 432.787 146.79 434.147 148.289C434.441 148.614 434.419 149.12 434.089 149.414C433.94 149.555 433.746 149.625 433.557 149.625ZM470.938 140.812C470.802 140.812 470.666 140.777 470.538 140.706C470.155 140.486 470.028 139.998 470.248 139.616C471.29 137.818 472.161 135.915 472.839 133.959C472.984 133.541 473.437 133.321 473.855 133.466C474.273 133.611 474.493 134.064 474.347 134.482C473.639 136.53 472.724 138.526 471.629 140.416C471.479 140.667 471.215 140.812 470.938 140.812ZM429.589 137.853C429.563 137.853 429.537 137.853 429.506 137.849C429.066 137.805 428.749 137.414 428.793 136.974C429.022 134.741 429.783 132.622 431.059 130.675C431.301 130.306 431.798 130.205 432.163 130.446C432.532 130.688 432.633 131.18 432.391 131.55C431.257 133.282 430.579 135.163 430.377 137.137C430.337 137.546 429.994 137.853 429.589 137.853ZM463.676 134.042C463.408 134.042 463.144 133.906 462.994 133.66C461.894 131.849 460.597 130.235 459.141 128.873C458.82 128.569 458.802 128.068 459.105 127.743C459.409 127.422 459.915 127.404 460.236 127.708C461.802 129.172 463.188 130.899 464.362 132.833C464.591 133.211 464.472 133.699 464.094 133.928C463.962 134.003 463.817 134.042 463.676 134.042ZM475.1 128.824C475.06 128.824 475.025 128.82 474.985 128.815C474.55 128.754 474.246 128.345 474.312 127.91C474.554 126.244 474.677 124.525 474.677 122.798C474.677 122.428 474.673 122.055 474.66 121.685C474.647 121.246 474.994 120.877 475.434 120.863C475.878 120.855 476.243 121.198 476.257 121.637C476.27 122.024 476.274 122.411 476.274 122.798C476.274 124.6 476.147 126.398 475.891 128.139C475.83 128.539 475.487 128.824 475.1 128.824ZM436.196 127.404C435.941 127.404 435.695 127.286 435.537 127.057C435.286 126.692 435.378 126.196 435.739 125.949C437.547 124.705 439.562 123.76 441.73 123.14C442.152 123.022 442.597 123.264 442.716 123.69C442.839 124.112 442.592 124.556 442.166 124.675C440.164 125.246 438.308 126.116 436.641 127.264C436.513 127.36 436.355 127.404 436.196 127.404ZM454.43 125.505C454.315 125.505 454.201 125.479 454.091 125.431C453.919 125.352 453.743 125.272 453.567 125.198C451.922 124.49 450.123 124.077 448.227 123.976C447.787 123.954 447.449 123.576 447.475 123.136C447.497 122.696 447.867 122.358 448.315 122.38C450.4 122.494 452.384 122.947 454.201 123.73C454.39 123.813 454.579 123.897 454.768 123.984C455.169 124.169 455.34 124.648 455.151 125.044C455.019 125.338 454.729 125.505 454.43 125.505ZM474.761 116.125C474.383 116.125 474.048 115.857 473.978 115.474C473.604 113.465 473.072 111.426 472.399 109.408C472.258 108.99 472.487 108.538 472.905 108.397C473.323 108.256 473.776 108.485 473.916 108.902C474.611 110.99 475.161 113.1 475.553 115.18C475.632 115.615 475.346 116.028 474.915 116.112C474.858 116.12 474.809 116.125 474.761 116.125ZM470.762 104.041C470.463 104.041 470.177 103.874 470.041 103.583C469.152 101.72 468.136 99.8601 467.019 98.0666C466.786 97.693 466.9 97.2007 467.274 96.9677C467.648 96.7347 468.141 96.849 468.374 97.2226C469.522 99.0689 470.569 100.977 471.484 102.893C471.673 103.293 471.506 103.768 471.106 103.957C470.996 104.019 470.877 104.041 470.762 104.041ZM464.037 93.218C463.799 93.218 463.566 93.1125 463.408 92.9103C462.119 91.2619 460.729 89.6618 459.273 88.154C458.965 87.8375 458.974 87.332 459.295 87.0243C459.611 86.721 460.117 86.7254 460.425 87.0463C461.916 88.5936 463.346 90.2333 464.67 91.9257C464.943 92.2729 464.881 92.7741 464.534 93.0466C464.384 93.1653 464.208 93.218 464.037 93.218ZM455.177 84.0483C454.997 84.0483 454.817 83.9868 454.667 83.8637C453.044 82.5054 451.342 81.2394 449.617 80.1009C449.248 79.8591 449.147 79.3624 449.393 78.9931C449.635 78.6239 450.132 78.5228 450.497 78.7689C452.274 79.9426 454.021 81.2438 455.688 82.6417C456.026 82.923 456.07 83.4285 455.789 83.767C455.63 83.9516 455.402 84.0483 455.177 84.0483ZM444.528 77.0414C444.409 77.0414 444.286 77.015 444.172 76.9578C443.692 76.7205 443.208 76.4875 442.724 76.2677C442.707 76.2589 442.689 76.2501 442.676 76.2413C441.325 75.5072 439.913 74.7863 438.475 74.0962C438.079 73.9071 437.912 73.428 438.101 73.0324C438.295 72.6367 438.77 72.4697 439.166 72.6587C440.617 73.3577 442.042 74.0874 443.411 74.8259C443.903 75.0501 444.396 75.283 444.884 75.5248C445.28 75.7226 445.438 76.1974 445.245 76.593C445.104 76.8787 444.818 77.0414 444.528 77.0414ZM432.985 71.5817C432.884 71.5817 432.779 71.5642 432.682 71.5202C430.808 70.7465 428.811 69.9773 426.757 69.2388C426.343 69.0893 426.128 68.6321 426.277 68.2189C426.427 67.8057 426.884 67.5903 427.298 67.7398C429.374 68.4871 431.393 69.2651 433.293 70.0476C433.702 70.2146 433.896 70.6806 433.724 71.0894C433.597 71.3971 433.302 71.5817 432.985 71.5817ZM420.977 67.2431C420.897 67.2431 420.814 67.2299 420.735 67.2035C418.817 66.5925 416.824 65.9902 414.642 65.3572C414.22 65.2342 413.974 64.7902 414.097 64.3682C414.22 63.9462 414.66 63.7 415.086 63.8231C417.281 64.4605 419.287 65.0671 421.218 65.6825C421.636 65.8144 421.869 66.2672 421.737 66.6848C421.632 67.0233 421.315 67.2431 420.977 67.2431ZM408.717 63.6692C408.647 63.6692 408.576 63.6605 408.506 63.6429C406.452 63.0846 404.393 62.5395 402.339 61.9988C401.912 61.8845 401.657 61.4494 401.771 61.023C401.886 60.5966 402.321 60.3416 402.748 60.4559C404.806 61.001 406.865 61.5461 408.924 62.1043C409.35 62.2186 409.601 62.6582 409.487 63.0846C409.39 63.4319 409.069 63.6692 408.717 63.6692Z" fill="#9B98E6"/>
<path d="M183.114 220.493L190.935 216.476L166.047 168.1L158.227 172.118L183.114 220.493Z" fill="#37197D"/>
<path d="M155.217 188.929C173.027 188.929 187.465 174.501 187.465 156.703C187.465 138.905 173.027 124.477 155.217 124.477C137.407 124.477 122.969 138.905 122.969 156.703C122.969 174.501 137.407 188.929 155.217 188.929Z" fill="#4E2C9C"/>
<path d="M155.217 183.741C170.16 183.741 182.274 171.636 182.274 156.703C182.274 141.77 170.16 129.664 155.217 129.664C140.274 129.664 128.16 141.77 128.16 156.703C128.16 171.636 140.274 183.741 155.217 183.741Z" fill="#C7F4FF"/>
<path d="M203.538 258.185L209.543 255.099C212.798 253.429 213.625 248.765 211.328 245.028L211.038 244.553L209.587 242.188L191.648 212.974L190.197 210.609L189.264 209.088L189.057 208.749L187.896 206.859C187.87 206.815 187.839 206.767 187.808 206.727C185.771 203.536 182.098 202.204 179.274 203.655C176.45 205.105 175.399 208.864 176.811 212.376C176.828 212.424 176.846 212.473 176.868 212.525L177.73 214.569L177.884 214.934L178.579 216.578L179.661 219.132L193.003 250.708L194.081 253.262L194.296 253.776C196.012 257.816 200.287 259.855 203.538 258.185Z" fill="#4E2C9C"/>
<path d="M177.893 214.934L189.268 209.088L189.062 208.749L187.9 206.859C187.874 206.815 187.843 206.767 187.812 206.727L176.815 212.376C176.833 212.424 176.851 212.473 176.872 212.525L177.735 214.569L177.893 214.934Z" fill="#FFAF24"/>
<path d="M194.089 253.266L211.043 244.553L209.591 242.188L193.007 250.708L194.089 253.266Z" fill="#F8B64C"/>
<path d="M174.784 150.745C176.629 144.417 170.567 137.086 161.244 134.372C151.921 131.658 142.868 134.588 141.023 140.916C139.179 147.245 145.241 154.575 154.563 157.289C163.886 160.003 172.939 157.073 174.784 150.745Z" fill="#F5FDFF"/>
<path d="M333.796 79.547H277.584C256.504 79.547 239.415 96.6248 239.415 117.69V197.812H257.648V119.953C257.648 107.702 267.585 97.7677 279.849 97.7677H331.531C343.79 97.7677 353.732 107.702 353.732 119.953V197.812H371.965V117.685C371.965 96.6204 354.875 79.547 333.796 79.547Z" fill="#5939A3"/>
<path d="M406.289 153.001V342.277C406.289 347.526 402.031 351.781 396.779 351.781H210.22C204.963 351.781 200.71 347.526 200.71 342.277V153.001C200.71 147.748 204.968 143.498 210.22 143.498H396.779C402.031 143.498 406.289 147.753 406.289 153.001Z" fill="#FF7BA5"/>
<path d="M303.497 323.951C335.14 323.951 360.792 298.317 360.792 266.695C360.792 235.074 335.14 209.439 303.497 209.439C271.854 209.439 246.202 235.074 246.202 266.695C246.202 298.317 271.854 323.951 303.497 323.951Z" fill="#E96690"/>
<path d="M303.497 314.531C329.934 314.531 351.365 293.114 351.365 266.695C351.365 240.276 329.934 218.86 303.497 218.86C277.06 218.86 255.629 240.276 255.629 266.695C255.629 293.114 277.06 314.531 303.497 314.531Z" fill="white"/>
<path d="M321.106 282.815L313.636 267.64C312.466 265.267 312.743 262.379 314.499 260.396C316.966 257.609 318.414 253.903 318.246 249.855C317.93 242.166 311.56 235.814 303.867 235.524C295.324 235.199 288.295 242.021 288.295 250.483C288.295 254.255 289.694 257.701 291.999 260.33C293.723 262.299 294.238 265.047 293.125 267.416L285.823 282.951C283.197 288.538 287.279 294.96 293.455 294.96H313.54C319.786 294.965 323.864 288.415 321.106 282.815Z" fill="#E96690"/>
<path d="M406.289 168.04H200.705V175.934H406.289V168.04Z" fill="#E96690"/>
<path d="M200.63 238.896C200.63 235.067 197.481 231.959 193.597 231.959H143.996C140.111 231.959 136.962 235.063 136.962 238.896V253.706V338.532C136.962 342.361 140.111 345.469 143.996 345.469H257.265C261.149 345.469 264.299 342.365 264.299 338.532V252.769C264.299 248.94 261.149 245.833 257.265 245.833H207.669C203.78 245.833 200.63 242.729 200.63 238.896Z" fill="#EB971A"/>
<path d="M257.938 249.499H146.239V276.551H257.938V249.499Z" fill="#E1E4F0"/>
<path d="M253.971 254.717H142.271V281.769H253.971V254.717Z" fill="white"/>
<path d="M254.943 351.785H146.323C141.154 351.785 136.548 348.176 136.025 343.662L127.469 269.517C126.792 263.627 131.125 258.77 137.169 258.77H264.097C270.136 258.77 274.474 263.627 273.796 269.517L265.24 343.662C264.717 348.176 260.111 351.785 254.943 351.785Z" fill="#FFB300"/>
<path d="M492.796 219.141C488.516 254.022 490.069 292.754 475.064 318.179C466.658 332.417 444.343 342.352 433.724 347.97C421.003 340.646 401.023 331.068 392.371 316.008C378.026 291.039 378.809 253.081 374.648 219.141C390.875 216.328 408.018 236.047 433.724 219.141C455.116 234.808 467.674 220.244 492.796 219.141Z" fill="#1EACE3"/>
<path d="M432.207 338.048C420.378 331.455 405.651 323.252 399.233 312.073C389.292 294.763 387.11 268.941 385.003 243.973C384.545 238.566 384.084 233.045 383.534 227.559C385.689 228.091 388.012 228.838 390.515 229.643C396.831 231.674 403.984 233.973 412.258 233.973C419.586 233.973 426.576 232.166 433.491 228.473C440.076 232.408 446.569 234.263 453.603 234.263C460.262 234.263 466.311 232.61 472.715 230.86C476.305 229.88 479.96 228.882 483.871 228.144C483.299 234.131 482.833 240.158 482.38 246.052C480.361 272.199 478.452 296.895 468.255 314.17C462.084 324.628 444.928 333.371 434.683 338.593C434.419 338.73 434.155 338.862 433.896 338.993C433.337 338.681 432.774 338.365 432.207 338.048Z" fill="white"/>
<path d="M468.031 255.517C449.05 264.779 444.264 270.84 430.883 286.802C423.466 282.028 415.786 277.759 407.336 274.902L406.654 275.667C414.163 282.705 424.927 292.415 432.669 299.391C447.739 283.193 454.144 273.082 468.765 256.475C468.985 256.224 468.963 255.842 468.717 255.618C468.537 255.446 468.259 255.407 468.031 255.517Z" fill="#1EACE3"/>
<path d="M518.023 353.381H81.9765C81.0924 353.381 80.3798 352.665 80.3798 351.785C80.3798 350.906 81.0924 350.19 81.9765 350.19H518.019C518.903 350.19 519.616 350.906 519.616 351.785C519.62 352.665 518.903 353.381 518.023 353.381Z" fill="#422C94"/>
<path d="M219.695 116.947H134.582C131.349 116.947 128.732 114.327 128.732 111.1V98.1985C128.732 94.9676 131.353 92.3521 134.582 92.3521H219.695C222.928 92.3521 225.545 94.972 225.545 98.1985V111.1C225.545 114.327 222.928 116.947 219.695 116.947Z" fill="#23B5ED"/>
<path d="M146.926 105.827C147.583 103.034 145.85 100.237 143.055 99.5802C140.26 98.9234 137.461 100.655 136.803 103.449C136.146 106.242 137.879 109.039 140.675 109.696C143.47 110.353 146.269 108.621 146.926 105.827Z" fill="white"/>
<path d="M163.177 108.321C165.207 106.292 165.207 103.002 163.177 100.973C161.146 98.9438 157.854 98.9438 155.824 100.973C153.793 103.002 153.793 106.292 155.824 108.321C157.854 110.35 161.146 110.35 163.177 108.321Z" fill="white"/>
<path d="M182.203 105.824C182.86 103.03 181.127 100.233 178.331 99.5765C175.536 98.9197 172.737 100.652 172.08 103.445C171.422 106.239 173.156 109.036 175.951 109.692C178.746 110.349 181.545 108.617 182.203 105.824Z" fill="white"/>
<path d="M196.24 109.633C198.995 108.825 200.574 105.938 199.766 103.185C198.957 100.431 196.068 98.8538 193.313 99.6616C190.557 100.469 188.979 103.356 189.787 106.11C190.596 108.863 193.485 110.441 196.24 109.633Z" fill="white"/>
<path d="M216.091 108.322C218.121 106.293 218.121 103.003 216.09 100.974C214.06 98.9452 210.768 98.9452 208.737 100.974C206.707 103.004 206.707 106.293 208.738 108.322C210.768 110.352 214.06 110.351 216.091 108.322Z" fill="white"/>
<path d="M142.029 102.111L142.267 103.768C142.28 103.852 142.364 103.9 142.443 103.874L144.013 103.298C144.154 103.245 144.259 103.434 144.141 103.526L142.821 104.559C142.755 104.612 142.755 104.709 142.817 104.766L144.106 105.838C144.22 105.935 144.11 106.12 143.974 106.063L142.421 105.438C142.342 105.408 142.258 105.456 142.24 105.54L141.955 107.188C141.928 107.337 141.717 107.333 141.695 107.184L141.457 105.526C141.444 105.443 141.361 105.394 141.281 105.421L139.711 105.997C139.57 106.049 139.465 105.86 139.584 105.768L140.903 104.735C140.969 104.682 140.969 104.586 140.908 104.529L139.619 103.456C139.504 103.359 139.614 103.175 139.751 103.232L141.303 103.856C141.383 103.887 141.466 103.838 141.484 103.755L141.77 102.106C141.796 101.961 142.007 101.966 142.029 102.111Z" fill="#FF4782"/>
<path d="M159.757 102.111L159.994 103.768C160.007 103.852 160.091 103.9 160.17 103.874L161.74 103.298C161.881 103.245 161.987 103.434 161.868 103.526L160.548 104.559C160.482 104.612 160.482 104.709 160.544 104.766L161.833 105.838C161.947 105.935 161.837 106.12 161.701 106.063L160.148 105.438C160.069 105.408 159.985 105.456 159.968 105.54L159.682 107.188C159.655 107.337 159.444 107.333 159.422 107.184L159.185 105.526C159.172 105.443 159.088 105.394 159.009 105.421L157.438 105.997C157.298 106.049 157.192 105.86 157.311 105.768L158.63 104.735C158.696 104.682 158.696 104.586 158.635 104.529L157.346 103.456C157.232 103.359 157.342 103.175 157.478 103.232L159.031 103.856C159.11 103.887 159.194 103.838 159.211 103.755L159.497 102.106C159.519 101.961 159.735 101.966 159.757 102.111Z" fill="#FF4782"/>
<path d="M177.479 102.111L177.717 103.768C177.73 103.852 177.814 103.9 177.893 103.874L179.463 103.298C179.604 103.245 179.71 103.434 179.591 103.526L178.271 104.559C178.205 104.612 178.205 104.709 178.267 104.766L179.556 105.838C179.67 105.935 179.56 106.12 179.424 106.063L177.871 105.438C177.792 105.408 177.708 105.456 177.691 105.54L177.405 107.188C177.378 107.337 177.167 107.333 177.145 107.184L176.908 105.526C176.894 105.443 176.811 105.394 176.732 105.421L175.161 105.997C175.021 106.049 174.915 105.86 175.034 105.768L176.353 104.735C176.419 104.682 176.419 104.586 176.358 104.529L175.069 103.456C174.955 103.359 175.065 103.175 175.201 103.232L176.754 103.856C176.833 103.887 176.916 103.838 176.934 103.755L177.22 102.106C177.246 101.961 177.457 101.966 177.479 102.111Z" fill="#FF4782"/>
<path d="M195.202 102.111L195.44 103.768C195.453 103.852 195.537 103.9 195.616 103.874L197.186 103.298C197.327 103.245 197.433 103.434 197.314 103.526L195.994 104.559C195.928 104.612 195.928 104.709 195.99 104.766L197.279 105.838C197.393 105.935 197.283 106.12 197.147 106.063L195.594 105.438C195.515 105.408 195.431 105.456 195.414 105.54L195.128 107.188C195.101 107.337 194.89 107.333 194.868 107.184L194.631 105.526C194.617 105.443 194.534 105.394 194.455 105.421L192.884 105.997C192.743 106.049 192.638 105.86 192.757 105.768L194.076 104.735C194.142 104.682 194.142 104.586 194.081 104.529L192.792 103.456C192.677 103.359 192.787 103.175 192.924 103.232L194.477 103.856C194.556 103.887 194.639 103.838 194.657 103.755L194.943 102.106C194.969 101.961 195.185 101.966 195.202 102.111Z" fill="#FF4782"/>
<path d="M212.93 102.111L213.167 103.768C213.18 103.852 213.264 103.9 213.343 103.874L214.914 103.298C215.054 103.245 215.16 103.434 215.041 103.526L213.721 104.559C213.655 104.612 213.655 104.709 213.717 104.766L215.006 105.838C215.12 105.935 215.01 106.12 214.874 106.063L213.321 105.438C213.242 105.408 213.158 105.456 213.141 105.54L212.855 107.188C212.829 107.337 212.617 107.333 212.595 107.184L212.358 105.526C212.345 105.443 212.261 105.394 212.182 105.421L210.611 105.997C210.471 106.049 210.365 105.86 210.484 105.768L211.804 104.735C211.87 104.682 211.87 104.586 211.808 104.529L210.519 103.456C210.405 103.359 210.515 103.175 210.651 103.232L212.204 103.856C212.283 103.887 212.367 103.838 212.384 103.755L212.67 102.106C212.692 101.961 212.908 101.966 212.93 102.111Z" fill="#FF4782"/>
<path d="M434.019 71.2125L407.714 65.4891L419.358 54.0951L434.019 71.2125Z" fill="#44248F"/>
<path d="M408.506 70.3597L377.771 50.5081L420.066 60.3987L408.506 70.3597Z" fill="#6F4EBD"/>
<path d="M377.754 50.4554L436.729 40.2087L425.789 50.5653L377.754 50.4554Z" fill="#6F4EBD"/>
<path d="M377.771 50.5081L420.123 60.5394L434.019 71.2125L425.846 50.3674L377.771 50.5081Z" fill="#5939A3"/>
<path d="M231.897 63.0362C231.185 63.0362 230.494 63.133 229.83 63.3C229.342 60.5966 226.979 58.5393 224.133 58.5393C223.663 58.5393 223.205 58.6009 222.77 58.7064C222.783 58.5261 222.796 58.3459 222.796 58.1613C222.796 53.4621 218.982 49.6509 214.28 49.6509C213.268 49.6509 212.301 49.8356 211.399 50.1609C209.916 45.2815 205.386 41.7296 200.019 41.7296C193.984 41.7296 189.009 46.2266 188.239 52.0511C186.343 50.8114 184.087 50.0861 181.654 50.0861C174.999 50.0861 169.606 55.4754 169.606 62.1263C169.606 63.0319 169.716 63.911 169.905 64.7594C169.469 64.6847 169.029 64.6363 168.572 64.6363C164.318 64.6363 160.874 68.0827 160.874 72.329C160.874 76.4523 164.12 79.8064 168.194 80.0042L168.189 80.0217H231.062L231.035 79.9778C231.321 80.0086 231.611 80.0217 231.902 80.0217C236.595 80.0217 240.4 76.2194 240.4 71.529C240.396 66.8386 236.591 63.0362 231.897 63.0362Z" fill="#E0E6FF"/>
<path d="M149.507 67.8673C149.903 68.5091 150.031 69.2827 149.846 70.0432C149.6 71.0454 148.861 71.8191 147.867 72.1092L138.282 74.905C137.287 75.1951 136.249 74.9402 135.502 74.228C134.754 73.5115 134.455 72.4873 134.701 71.485L137.072 61.7922C137.318 60.7856 138.057 60.0163 139.051 59.7262C140.045 59.436 141.084 59.691 141.831 60.4075L149.045 67.309C149.226 67.4716 149.38 67.6607 149.507 67.8673ZM137.516 71.718C137.547 71.7664 137.578 71.8015 137.6 71.8235C137.661 71.8851 137.837 72.0169 138.092 71.9422L146.142 69.5948C146.397 69.5201 146.472 69.3135 146.494 69.2256C146.516 69.142 146.543 68.9223 146.353 68.7376L140.296 62.9439C140.103 62.7593 139.887 62.7989 139.804 62.8252C139.72 62.8516 139.513 62.9351 139.452 63.1901L137.459 71.3312C137.419 71.5026 137.463 71.6301 137.516 71.718Z" fill="#FF5C90"/>
<path d="M510.29 327.78C510.686 328.421 510.814 329.195 510.629 329.956C510.383 330.958 509.644 331.732 508.65 332.022L499.065 334.817C498.07 335.108 497.032 334.853 496.284 334.14C495.537 333.424 495.238 332.4 495.484 331.397L497.855 321.705C498.101 320.698 498.84 319.929 499.834 319.639C500.828 319.348 501.867 319.603 502.614 320.32L509.828 327.221C510.009 327.384 510.163 327.573 510.29 327.78ZM498.299 331.63C498.33 331.679 498.361 331.714 498.383 331.736C498.444 331.797 498.62 331.929 498.875 331.855L506.925 329.507C507.18 329.433 507.255 329.226 507.277 329.138C507.299 329.054 507.326 328.835 507.136 328.65L501.079 322.856C500.886 322.672 500.67 322.711 500.587 322.738C500.503 322.764 500.296 322.848 500.235 323.103L498.242 331.244C498.198 331.415 498.246 331.543 498.299 331.63Z" fill="#FF5C90"/>
<path d="M90.7214 206.732L93.827 203.628C94.5308 202.925 94.5308 201.782 93.827 201.074C93.1232 200.371 91.9795 200.371 91.2757 201.074L88.1701 204.178L85.0645 201.074C84.3607 200.371 83.217 200.371 82.5132 201.074C81.8094 201.778 81.8094 202.92 82.5132 203.628L85.6188 206.732L82.5176 209.831C81.8138 210.534 81.8138 211.677 82.5176 212.385C82.8695 212.736 83.3314 212.912 83.7933 212.912C84.2551 212.912 84.717 212.736 85.0689 212.385L88.1701 209.286L91.2713 212.385C91.6232 212.736 92.0851 212.912 92.5469 212.912C93.0088 212.912 93.4707 212.736 93.8226 212.385C94.5264 211.681 94.5264 210.538 93.8226 209.831L90.7214 206.732Z" fill="#FFB300"/>
<path d="M369.532 71.2125L372.638 68.109C373.342 67.4057 373.342 66.2628 372.638 65.5551C371.934 64.8517 370.79 64.8517 370.086 65.5551L366.981 68.6585L363.875 65.5551C363.172 64.8517 362.028 64.8517 361.324 65.5551C360.62 66.2584 360.62 67.4013 361.324 68.109L364.43 71.2125L361.328 74.3116C360.625 75.0149 360.625 76.1578 361.328 76.8655C361.68 77.2172 362.142 77.393 362.604 77.393C363.066 77.393 363.528 77.2172 363.88 76.8655L366.981 73.7665L370.082 76.8655C370.434 77.2172 370.896 77.393 371.358 77.393C371.82 77.393 372.281 77.2172 372.633 76.8655C373.337 76.1622 373.337 75.0193 372.633 74.3116L369.532 71.2125Z" fill="#FFB300"/>
<path d="M111.528 337.064C108.075 337.064 105.268 334.259 105.268 330.808C105.268 327.358 108.075 324.553 111.528 324.553C114.981 324.553 117.787 327.358 117.787 330.808C117.787 334.255 114.981 337.064 111.528 337.064ZM111.528 327.221C109.548 327.221 107.938 328.83 107.938 330.808C107.938 332.787 109.548 334.395 111.528 334.395C113.507 334.395 115.117 332.787 115.117 330.808C115.117 328.83 113.507 327.221 111.528 327.221Z" fill="#664EB3"/>
<path d="M499.056 174.295C495.603 174.295 492.796 171.49 492.796 168.04C492.796 164.589 495.603 161.784 499.056 161.784C502.509 161.784 505.315 164.589 505.315 168.04C505.315 171.486 502.504 174.295 499.056 174.295ZM499.056 164.453C497.076 164.453 495.466 166.061 495.466 168.04C495.466 170.018 497.076 171.627 499.056 171.627C501.035 171.627 502.645 170.018 502.645 168.04C502.641 166.061 501.031 164.453 499.056 164.453Z" fill="#664EB3"/>
<path d="M419.384 381.791H317.389C316.504 381.791 315.792 381.075 315.792 380.196C315.792 379.316 316.504 378.6 317.389 378.6H419.384C420.268 378.6 420.981 379.316 420.981 380.196C420.981 381.075 420.264 381.791 419.384 381.791Z" fill="#422C94"/>
<path d="M475.469 381.791H449.015C448.13 381.791 447.418 381.075 447.418 380.196C447.418 379.316 448.13 378.6 449.015 378.6H475.469C476.353 378.6 477.066 379.316 477.066 380.196C477.066 381.075 476.353 381.791 475.469 381.791Z" fill="#422C94"/>
<path d="M165.827 381.791H134.789C133.905 381.791 133.192 381.075 133.192 380.196C133.192 379.316 133.905 378.6 134.789 378.6H165.827C166.711 378.6 167.424 379.316 167.424 380.196C167.424 381.075 166.711 381.791 165.827 381.791Z" fill="#422C94"/>
</svg>
